solid Pers-ClampBraceBar
facet normal 1.6673833433912697e-16 1.0 1.6457023755049647e-31
  outer loop
    vertex 27.78726233817573 20.000000000000025 0.010743000000000107
    vertex 180.0 20.0 7.5
    vertex 180.0 20.0 0.0
  endloop
endfacet
facet normal 1.6673833433912697e-16 1.0 1.6457023755049647e-31
  outer loop
    vertex 180.0 20.0 7.5
    vertex 27.78726233817573 20.000000000000025 0.010743000000000107
    vertex 27.78726233817573 20.000000000000025 2.5
  endloop
endfacet
facet normal 1.6673833433912697e-16 1.0 1.6457023755049647e-31
  outer loop
    vertex 180.0 20.0 7.5
    vertex 27.78726233817573 20.000000000000025 2.5
    vertex 27.78726233817573 20.000000000000025 7.5
  endloop
endfacet
facet normal 1.0 0.0 0.0
  outer loop
    vertex 180.0 0.0 0.0
    vertex 180.0 3.0000000000000115 2.5
    vertex 180.0 0.0 7.5
  endloop
endfacet
facet normal 1.0 0.0 0.0
  outer loop
    vertex 180.0 3.0000000000000115 2.5
    vertex 180.0 0.0 0.0
    vertex 180.0 20.0 0.0
  endloop
endfacet
facet normal 1.0 0.0 0.0
  outer loop
    vertex 180.0 3.0000000000000115 2.5
    vertex 180.0 20.0 0.0
    vertex 180.0 17.000000000000025 2.5
  endloop
endfacet
facet normal 1.0 0.0 0.0
  outer loop
    vertex 180.0 17.000000000000025 2.5
    vertex 180.0 20.0 0.0
    vertex 180.0 17.000000000000025 7.5
  endloop
endfacet
facet normal 1.0 0.0 0.0
  outer loop
    vertex 180.0 17.000000000000025 7.5
    vertex 180.0 20.0 0.0
    vertex 180.0 20.0 7.5
  endloop
endfacet
facet normal 1.0 0.0 0.0
  outer loop
    vertex 180.0 3.0000000000000115 7.5
    vertex 180.0 0.0 7.5
    vertex 180.0 3.0000000000000115 2.5
  endloop
endfacet
facet normal -7.642173657209959e-17 -1.0 0.0
  outer loop
    vertex 180.0 0.0 7.5
    vertex 27.787262338175182 1.1632361740510077e-14 0.0
    vertex 180.0 0.0 0.0
  endloop
endfacet
facet normal -7.642173657209959e-17 -1.0 0.0
  outer loop
    vertex 27.787262338175182 1.1632361740510077e-14 0.0
    vertex 180.0 0.0 7.5
    vertex 27.787262338175182 1.1632361740510077e-14 2.5
  endloop
endfacet
facet normal -7.642173657209959e-17 -1.0 0.0
  outer loop
    vertex 27.787262338175182 1.1632361740510077e-14 2.5
    vertex 180.0 0.0 7.5
    vertex 27.787262338175182 1.1632361740510077e-14 7.5
  endloop
endfacet
facet normal 0.9914448613738133 0.13052619222003056 0.0
  outer loop
    vertex 173.00000000000003 10.0 0.0
    vertex 173.06814834742187 9.482361909794959 2.5
    vertex 173.06814834742187 9.482361909794959 0.0
  endloop
endfacet
facet normal 0.9914448613738133 0.13052619222003056 0.0
  outer loop
    vertex 173.06814834742187 9.482361909794959 2.5
    vertex 173.00000000000003 10.0 0.0
    vertex 173.00000000000003 10.0 2.5
  endloop
endfacet
facet normal 0.92387953251129 0.38268343236508207 0.0
  outer loop
    vertex 173.06814834742187 9.482361909794959 0.0
    vertex 173.26794919243113 9.0 2.5
    vertex 173.26794919243113 9.0 0.0
  endloop
endfacet
facet normal 0.92387953251129 0.38268343236508207 0.0
  outer loop
    vertex 173.26794919243113 9.0 2.5
    vertex 173.06814834742187 9.482361909794959 0.0
    vertex 173.06814834742187 9.482361909794959 2.5
  endloop
endfacet
facet normal 0.7933533402912268 0.6087614290087315 0.0
  outer loop
    vertex 173.26794919243113 9.0 0.0
    vertex 173.58578643762692 8.585786437626906 2.5
    vertex 173.58578643762692 8.585786437626906 0.0
  endloop
endfacet
facet normal 0.7933533402912268 0.6087614290087315 0.0
  outer loop
    vertex 173.58578643762692 8.585786437626906 2.5
    vertex 173.26794919243113 9.0 0.0
    vertex 173.26794919243113 9.0 2.5
  endloop
endfacet
facet normal 0.6087614290087162 0.7933533402912388 0.0
  outer loop
    vertex 173.58578643762692 8.585786437626906 2.5
    vertex 174.00000000000003 8.267949192431123 0.0
    vertex 173.58578643762692 8.585786437626906 0.0
  endloop
endfacet
facet normal 0.6087614290087162 0.7933533402912388 0.0
  outer loop
    vertex 174.00000000000003 8.267949192431123 0.0
    vertex 173.58578643762692 8.585786437626906 2.5
    vertex 174.00000000000003 8.267949192431123 2.5
  endloop
endfacet
facet normal 0.3826834323650951 0.9238795325112845 0.0
  outer loop
    vertex 174.00000000000003 8.267949192431123 2.5
    vertex 174.48236190979497 8.068148347421863 0.0
    vertex 174.00000000000003 8.267949192431123 0.0
  endloop
endfacet
facet normal 0.3826834323650951 0.9238795325112845 0.0
  outer loop
    vertex 174.48236190979497 8.068148347421863 0.0
    vertex 174.00000000000003 8.267949192431123 2.5
    vertex 174.48236190979497 8.068148347421863 2.5
  endloop
endfacet
facet normal 0.13052619222005077 0.9914448613738106 0.0
  outer loop
    vertex 174.48236190979497 8.068148347421863 2.5
    vertex 175.00000000000003 7.999999999999999 0.0
    vertex 174.48236190979497 8.068148347421863 0.0
  endloop
endfacet
facet normal 0.13052619222005077 0.9914448613738106 0.0
  outer loop
    vertex 175.00000000000003 7.999999999999999 0.0
    vertex 174.48236190979497 8.068148347421863 2.5
    vertex 175.00000000000003 7.999999999999999 2.5
  endloop
endfacet
facet normal -0.13052619222005077 0.9914448613738106 0.0
  outer loop
    vertex 175.00000000000003 7.999999999999999 2.5
    vertex 175.51763809020505 8.068148347421863 0.0
    vertex 175.00000000000003 7.999999999999999 0.0
  endloop
endfacet
facet normal -0.13052619222005077 0.9914448613738106 0.0
  outer loop
    vertex 175.51763809020505 8.068148347421863 0.0
    vertex 175.00000000000003 7.999999999999999 2.5
    vertex 175.51763809020505 8.068148347421863 2.5
  endloop
endfacet
facet normal -0.38268343236509283 0.9238795325112855 0.0
  outer loop
    vertex 175.51763809020505 8.068148347421863 2.5
    vertex 176.00000000000003 8.267949192431121 0.0
    vertex 175.51763809020505 8.068148347421863 0.0
  endloop
endfacet
facet normal -0.38268343236509283 0.9238795325112855 0.0
  outer loop
    vertex 176.00000000000003 8.267949192431121 0.0
    vertex 175.51763809020505 8.068148347421863 2.5
    vertex 176.00000000000003 8.267949192431121 2.5
  endloop
endfacet
facet normal -0.6087614290087162 0.7933533402912388 0.0
  outer loop
    vertex 176.00000000000003 8.267949192431121 2.5
    vertex 176.4142135623731 8.585786437626904 0.0
    vertex 176.00000000000003 8.267949192431121 0.0
  endloop
endfacet
facet normal -0.6087614290087162 0.7933533402912388 0.0
  outer loop
    vertex 176.4142135623731 8.585786437626904 0.0
    vertex 176.00000000000003 8.267949192431121 2.5
    vertex 176.4142135623731 8.585786437626904 2.5
  endloop
endfacet
facet normal -0.7933533402912477 0.6087614290087043 0.0
  outer loop
    vertex 176.7320508075689 8.999999999999998 2.5
    vertex 176.4142135623731 8.585786437626904 0.0
    vertex 176.4142135623731 8.585786437626904 2.5
  endloop
endfacet
facet normal -0.7933533402912477 0.6087614290087043 0.0
  outer loop
    vertex 176.4142135623731 8.585786437626904 0.0
    vertex 176.7320508075689 8.999999999999998 2.5
    vertex 176.7320508075689 8.999999999999998 0.0
  endloop
endfacet
facet normal -0.9238795325112747 0.382683432365119 0.0
  outer loop
    vertex 176.93185165257816 9.482361909794957 2.5
    vertex 176.7320508075689 8.999999999999998 0.0
    vertex 176.7320508075689 8.999999999999998 2.5
  endloop
endfacet
facet normal -0.9238795325112747 0.382683432365119 0.0
  outer loop
    vertex 176.7320508075689 8.999999999999998 0.0
    vertex 176.93185165257816 9.482361909794957 2.5
    vertex 176.93185165257816 9.482361909794957 0.0
  endloop
endfacet
facet normal -0.9914448613738134 0.13052619222003023 0.0
  outer loop
    vertex 177.0 10.0 2.5
    vertex 176.93185165257816 9.482361909794957 0.0
    vertex 176.93185165257816 9.482361909794957 2.5
  endloop
endfacet
facet normal -0.9914448613738134 0.13052619222003023 0.0
  outer loop
    vertex 176.93185165257816 9.482361909794957 0.0
    vertex 177.0 10.0 2.5
    vertex 177.0 10.0 0.0
  endloop
endfacet
facet normal -0.9914448613738133 -0.13052619222003056 -0.0
  outer loop
    vertex 176.93185165257816 10.517638090205041 2.5
    vertex 177.0 10.0 0.0
    vertex 177.0 10.0 2.5
  endloop
endfacet
facet normal -0.9914448613738133 -0.13052619222003056 -0.0
  outer loop
    vertex 177.0 10.0 0.0
    vertex 176.93185165257816 10.517638090205041 2.5
    vertex 176.93185165257816 10.517638090205041 0.0
  endloop
endfacet
facet normal -0.9238795325112747 -0.382683432365119 -0.0
  outer loop
    vertex 176.7320508075689 11.0 2.5
    vertex 176.93185165257816 10.517638090205041 0.0
    vertex 176.93185165257816 10.517638090205041 2.5
  endloop
endfacet
facet normal -0.9238795325112747 -0.382683432365119 -0.0
  outer loop
    vertex 176.93185165257816 10.517638090205041 0.0
    vertex 176.7320508075689 11.0 2.5
    vertex 176.7320508075689 11.0 0.0
  endloop
endfacet
facet normal -0.7933533402912488 -0.6087614290087031 -0.0
  outer loop
    vertex 176.4142135623731 11.414213562373096 2.5
    vertex 176.7320508075689 11.0 0.0
    vertex 176.7320508075689 11.0 2.5
  endloop
endfacet
facet normal -0.7933533402912488 -0.6087614290087031 -0.0
  outer loop
    vertex 176.7320508075689 11.0 0.0
    vertex 176.4142135623731 11.414213562373096 2.5
    vertex 176.4142135623731 11.414213562373096 0.0
  endloop
endfacet
facet normal -0.6087614290087144 -0.7933533402912402 -0.0
  outer loop
    vertex 176.4142135623731 11.414213562373096 2.5
    vertex 176.00000000000003 11.732050807568877 0.0
    vertex 176.4142135623731 11.414213562373096 0.0
  endloop
endfacet
facet normal -0.6087614290087144 -0.7933533402912402 -0.0
  outer loop
    vertex 176.00000000000003 11.732050807568877 0.0
    vertex 176.4142135623731 11.414213562373096 2.5
    vertex 176.00000000000003 11.732050807568877 2.5
  endloop
endfacet
facet normal -0.3826834323650951 -0.9238795325112845 -0.0
  outer loop
    vertex 176.00000000000003 11.732050807568877 2.5
    vertex 175.51763809020505 11.931851652578137 0.0
    vertex 176.00000000000003 11.732050807568877 0.0
  endloop
endfacet
facet normal -0.3826834323650951 -0.9238795325112845 -0.0
  outer loop
    vertex 175.51763809020505 11.931851652578137 0.0
    vertex 176.00000000000003 11.732050807568877 2.5
    vertex 175.51763809020505 11.931851652578137 2.5
  endloop
endfacet
facet normal -0.13052619222005077 -0.9914448613738106 -0.0
  outer loop
    vertex 175.51763809020505 11.931851652578137 2.5
    vertex 175.00000000000003 12.0 0.0
    vertex 175.51763809020505 11.931851652578137 0.0
  endloop
endfacet
facet normal -0.13052619222005077 -0.9914448613738106 -0.0
  outer loop
    vertex 175.00000000000003 12.0 0.0
    vertex 175.51763809020505 11.931851652578137 2.5
    vertex 175.00000000000003 12.0 2.5
  endloop
endfacet
facet normal 0.13052619222005077 -0.9914448613738106 0.0
  outer loop
    vertex 175.00000000000003 12.0 2.5
    vertex 174.48236190979497 11.931851652578137 0.0
    vertex 175.00000000000003 12.0 0.0
  endloop
endfacet
facet normal 0.13052619222005077 -0.9914448613738106 0.0
  outer loop
    vertex 174.48236190979497 11.931851652578137 0.0
    vertex 175.00000000000003 12.0 2.5
    vertex 174.48236190979497 11.931851652578137 2.5
  endloop
endfacet
facet normal 0.38268343236509283 -0.9238795325112855 0.0
  outer loop
    vertex 174.48236190979497 11.931851652578137 2.5
    vertex 174.00000000000003 11.732050807568879 0.0
    vertex 174.48236190979497 11.931851652578137 0.0
  endloop
endfacet
facet normal 0.38268343236509283 -0.9238795325112855 0.0
  outer loop
    vertex 174.00000000000003 11.732050807568879 0.0
    vertex 174.48236190979497 11.931851652578137 2.5
    vertex 174.00000000000003 11.732050807568879 2.5
  endloop
endfacet
facet normal 0.6087614290087162 -0.7933533402912388 0.0
  outer loop
    vertex 174.00000000000003 11.732050807568879 2.5
    vertex 173.58578643762692 11.414213562373096 0.0
    vertex 174.00000000000003 11.732050807568879 0.0
  endloop
endfacet
facet normal 0.6087614290087162 -0.7933533402912388 0.0
  outer loop
    vertex 173.58578643762692 11.414213562373096 0.0
    vertex 174.00000000000003 11.732050807568879 2.5
    vertex 173.58578643762692 11.414213562373096 2.5
  endloop
endfacet
facet normal 0.7933533402912477 -0.6087614290087043 0.0
  outer loop
    vertex 173.58578643762692 11.414213562373096 0.0
    vertex 173.26794919243116 11.000000000000002 2.5
    vertex 173.26794919243116 11.000000000000002 0.0
  endloop
endfacet
facet normal 0.7933533402912477 -0.6087614290087043 0.0
  outer loop
    vertex 173.26794919243116 11.000000000000002 2.5
    vertex 173.58578643762692 11.414213562373096 0.0
    vertex 173.58578643762692 11.414213562373096 2.5
  endloop
endfacet
facet normal 0.9238795325112747 -0.382683432365119 0.0
  outer loop
    vertex 173.26794919243116 11.000000000000002 0.0
    vertex 173.06814834742187 10.517638090205043 2.5
    vertex 173.06814834742187 10.517638090205043 0.0
  endloop
endfacet
facet normal 0.9238795325112747 -0.382683432365119 0.0
  outer loop
    vertex 173.06814834742187 10.517638090205043 2.5
    vertex 173.26794919243116 11.000000000000002 0.0
    vertex 173.26794919243116 11.000000000000002 2.5
  endloop
endfacet
facet normal 0.9914448613738134 -0.13052619222003023 0.0
  outer loop
    vertex 173.06814834742187 10.517638090205043 0.0
    vertex 173.00000000000003 10.0 2.5
    vertex 173.00000000000003 10.0 0.0
  endloop
endfacet
facet normal 0.9914448613738134 -0.13052619222003023 0.0
  outer loop
    vertex 173.00000000000003 10.0 2.5
    vertex 173.06814834742187 10.517638090205043 0.0
    vertex 173.06814834742187 10.517638090205043 2.5
  endloop
endfacet
facet normal 0.13052619222005143 0.9914448613738105 0.0
  outer loop
    vertex 4.482361909794957 8.068148347421864 2.5
    vertex 4.999999999999999 8.0 0.0
    vertex 4.482361909794957 8.068148347421864 0.0
  endloop
endfacet
facet normal 0.13052619222005143 0.9914448613738105 0.0
  outer loop
    vertex 4.999999999999999 8.0 0.0
    vertex 4.482361909794957 8.068148347421864 2.5
    vertex 4.999999999999999 8.0 2.5
  endloop
endfacet
facet normal -0.1305261922200518 0.9914448613738104 0.0
  outer loop
    vertex 4.999999999999999 8.0 2.5
    vertex 5.517638090205041 8.068148347421864 0.0
    vertex 4.999999999999999 8.0 0.0
  endloop
endfacet
facet normal -0.1305261922200518 0.9914448613738104 0.0
  outer loop
    vertex 5.517638090205041 8.068148347421864 0.0
    vertex 4.999999999999999 8.0 2.5
    vertex 5.517638090205041 8.068148347421864 2.5
  endloop
endfacet
facet normal -0.38268343236508895 0.9238795325112871 0.0
  outer loop
    vertex 5.517638090205041 8.068148347421864 2.5
    vertex 5.999999999999999 8.267949192431123 0.0
    vertex 5.517638090205041 8.068148347421864 0.0
  endloop
endfacet
facet normal -0.38268343236508895 0.9238795325112871 0.0
  outer loop
    vertex 5.999999999999999 8.267949192431123 0.0
    vertex 5.517638090205041 8.068148347421864 2.5
    vertex 5.999999999999999 8.267949192431123 2.5
  endloop
endfacet
facet normal -0.6087614290087213 0.7933533402912347 0.0
  outer loop
    vertex 5.999999999999999 8.267949192431123 2.5
    vertex 6.414213562373094 8.585786437626906 0.0
    vertex 5.999999999999999 8.267949192431123 0.0
  endloop
endfacet
facet normal -0.6087614290087213 0.7933533402912347 0.0
  outer loop
    vertex 6.414213562373094 8.585786437626906 0.0
    vertex 5.999999999999999 8.267949192431123 2.5
    vertex 6.414213562373094 8.585786437626906 2.5
  endloop
endfacet
facet normal -0.7933533402912347 0.6087614290087213 0.0
  outer loop
    vertex 6.732050807568876 9.0 2.5
    vertex 6.414213562373094 8.585786437626906 0.0
    vertex 6.414213562373094 8.585786437626906 2.5
  endloop
endfacet
facet normal -0.7933533402912347 0.6087614290087213 0.0
  outer loop
    vertex 6.414213562373094 8.585786437626906 0.0
    vertex 6.732050807568876 9.0 2.5
    vertex 6.732050807568876 9.0 0.0
  endloop
endfacet
facet normal -0.9238795325112871 0.38268343236508895 0.0
  outer loop
    vertex 6.931851652578135 9.482361909794959 2.5
    vertex 6.732050807568876 9.0 0.0
    vertex 6.732050807568876 9.0 2.5
  endloop
endfacet
facet normal -0.9238795325112871 0.38268343236508895 0.0
  outer loop
    vertex 6.732050807568876 9.0 0.0
    vertex 6.931851652578135 9.482361909794959 2.5
    vertex 6.931851652578135 9.482361909794959 0.0
  endloop
endfacet
facet normal -0.9914448613738104 0.1305261922200518 0.0
  outer loop
    vertex 6.999999999999998 10.0 2.5
    vertex 6.931851652578135 9.482361909794959 0.0
    vertex 6.931851652578135 9.482361909794959 2.5
  endloop
endfacet
facet normal -0.9914448613738104 0.1305261922200518 0.0
  outer loop
    vertex 6.931851652578135 9.482361909794959 0.0
    vertex 6.999999999999998 10.0 2.5
    vertex 6.999999999999998 10.0 0.0
  endloop
endfacet
facet normal -0.9914448613738104 -0.1305261922200518 -0.0
  outer loop
    vertex 6.931851652578135 10.517638090205041 2.5
    vertex 6.999999999999998 10.0 0.0
    vertex 6.999999999999998 10.0 2.5
  endloop
endfacet
facet normal -0.9914448613738104 -0.1305261922200518 -0.0
  outer loop
    vertex 6.999999999999998 10.0 0.0
    vertex 6.931851652578135 10.517638090205041 2.5
    vertex 6.931851652578135 10.517638090205041 0.0
  endloop
endfacet
facet normal -0.9238795325112871 -0.38268343236508895 -0.0
  outer loop
    vertex 6.732050807568876 11.0 2.5
    vertex 6.931851652578135 10.517638090205041 0.0
    vertex 6.931851652578135 10.517638090205041 2.5
  endloop
endfacet
facet normal -0.9238795325112871 -0.38268343236508895 -0.0
  outer loop
    vertex 6.931851652578135 10.517638090205041 0.0
    vertex 6.732050807568876 11.0 2.5
    vertex 6.732050807568876 11.0 0.0
  endloop
endfacet
facet normal -0.7933533402912347 -0.6087614290087213 -0.0
  outer loop
    vertex 6.414213562373094 11.414213562373094 2.5
    vertex 6.732050807568876 11.0 0.0
    vertex 6.732050807568876 11.0 2.5
  endloop
endfacet
facet normal -0.7933533402912347 -0.6087614290087213 -0.0
  outer loop
    vertex 6.732050807568876 11.0 0.0
    vertex 6.414213562373094 11.414213562373094 2.5
    vertex 6.414213562373094 11.414213562373094 0.0
  endloop
endfacet
facet normal -0.608761429008722 -0.7933533402912342 -0.0
  outer loop
    vertex 6.414213562373094 11.414213562373094 2.5
    vertex 6.0 11.732050807568877 0.0
    vertex 6.414213562373094 11.414213562373094 0.0
  endloop
endfacet
facet normal -0.608761429008722 -0.7933533402912342 -0.0
  outer loop
    vertex 6.0 11.732050807568877 0.0
    vertex 6.414213562373094 11.414213562373094 2.5
    vertex 6.0 11.732050807568877 2.5
  endloop
endfacet
facet normal -0.38268343236508895 -0.9238795325112871 -0.0
  outer loop
    vertex 6.0 11.732050807568877 2.5
    vertex 5.5176380902050415 11.931851652578136 0.0
    vertex 6.0 11.732050807568877 0.0
  endloop
endfacet
facet normal -0.38268343236508895 -0.9238795325112871 -0.0
  outer loop
    vertex 5.5176380902050415 11.931851652578136 0.0
    vertex 6.0 11.732050807568877 2.5
    vertex 5.5176380902050415 11.931851652578136 2.5
  endloop
endfacet
facet normal -0.13052619222005163 -0.9914448613738104 -0.0
  outer loop
    vertex 5.5176380902050415 11.931851652578136 2.5
    vertex 4.999999999999999 12.0 0.0
    vertex 5.5176380902050415 11.931851652578136 0.0
  endloop
endfacet
facet normal -0.13052619222005163 -0.9914448613738104 -0.0
  outer loop
    vertex 4.999999999999999 12.0 0.0
    vertex 5.5176380902050415 11.931851652578136 2.5
    vertex 4.999999999999999 12.0 2.5
  endloop
endfacet
facet normal 0.130526192220052 -0.9914448613738105 0.0
  outer loop
    vertex 4.999999999999999 12.0 2.5
    vertex 4.4823619097949585 11.931851652578136 0.0
    vertex 4.999999999999999 12.0 0.0
  endloop
endfacet
facet normal 0.130526192220052 -0.9914448613738105 0.0
  outer loop
    vertex 4.4823619097949585 11.931851652578136 0.0
    vertex 4.999999999999999 12.0 2.5
    vertex 4.4823619097949585 11.931851652578136 2.5
  endloop
endfacet
facet normal 0.38268343236508895 -0.9238795325112871 0.0
  outer loop
    vertex 4.4823619097949585 11.931851652578136 2.5
    vertex 4.0 11.732050807568877 0.0
    vertex 4.4823619097949585 11.931851652578136 0.0
  endloop
endfacet
facet normal 0.38268343236508895 -0.9238795325112871 0.0
  outer loop
    vertex 4.0 11.732050807568877 0.0
    vertex 4.4823619097949585 11.931851652578136 2.5
    vertex 4.0 11.732050807568877 2.5
  endloop
endfacet
facet normal 0.6087614290087197 -0.7933533402912359 0.0
  outer loop
    vertex 4.0 11.732050807568877 2.5
    vertex 3.5857864376269055 11.414213562373096 0.0
    vertex 4.0 11.732050807568877 0.0
  endloop
endfacet
facet normal 0.6087614290087197 -0.7933533402912359 0.0
  outer loop
    vertex 3.5857864376269055 11.414213562373096 0.0
    vertex 4.0 11.732050807568877 2.5
    vertex 3.5857864376269055 11.414213562373096 2.5
  endloop
endfacet
facet normal 0.7933533402912354 -0.6087614290087205 0.0
  outer loop
    vertex 3.5857864376269055 11.414213562373096 0.0
    vertex 3.2679491924311237 11.000000000000002 2.5
    vertex 3.2679491924311237 11.000000000000002 0.0
  endloop
endfacet
facet normal 0.7933533402912354 -0.6087614290087205 0.0
  outer loop
    vertex 3.2679491924311237 11.000000000000002 2.5
    vertex 3.5857864376269055 11.414213562373096 0.0
    vertex 3.5857864376269055 11.414213562373096 2.5
  endloop
endfacet
facet normal 0.9238795325112864 -0.3826834323650908 0.0
  outer loop
    vertex 3.2679491924311237 11.000000000000002 0.0
    vertex 3.068148347421864 10.517638090205043 2.5
    vertex 3.068148347421864 10.517638090205043 0.0
  endloop
endfacet
facet normal 0.9238795325112864 -0.3826834323650908 0.0
  outer loop
    vertex 3.068148347421864 10.517638090205043 2.5
    vertex 3.2679491924311237 11.000000000000002 0.0
    vertex 3.2679491924311237 11.000000000000002 2.5
  endloop
endfacet
facet normal 0.9914448613738105 -0.13052619222005213 0.0
  outer loop
    vertex 3.068148347421864 10.517638090205043 0.0
    vertex 3.0 10.0 2.5
    vertex 3.0 10.0 0.0
  endloop
endfacet
facet normal 0.9914448613738105 -0.13052619222005213 0.0
  outer loop
    vertex 3.0 10.0 2.5
    vertex 3.068148347421864 10.517638090205043 0.0
    vertex 3.068148347421864 10.517638090205043 2.5
  endloop
endfacet
facet normal 0.9914448613738106 0.13052619222005152 0.0
  outer loop
    vertex 3.0 10.0 0.0
    vertex 3.068148347421863 9.48236190979496 2.5
    vertex 3.068148347421863 9.48236190979496 0.0
  endloop
endfacet
facet normal 0.9914448613738106 0.13052619222005152 0.0
  outer loop
    vertex 3.068148347421863 9.48236190979496 2.5
    vertex 3.0 10.0 0.0
    vertex 3.0 10.0 2.5
  endloop
endfacet
facet normal 0.9238795325112868 0.38268343236508956 0.0
  outer loop
    vertex 3.068148347421863 9.48236190979496 0.0
    vertex 3.2679491924311224 9.000000000000002 2.5
    vertex 3.2679491924311224 9.000000000000002 0.0
  endloop
endfacet
facet normal 0.9238795325112868 0.38268343236508956 0.0
  outer loop
    vertex 3.2679491924311224 9.000000000000002 2.5
    vertex 3.068148347421863 9.48236190979496 0.0
    vertex 3.068148347421863 9.48236190979496 2.5
  endloop
endfacet
facet normal 0.7933533402912358 0.6087614290087201 0.0
  outer loop
    vertex 3.2679491924311224 9.000000000000002 0.0
    vertex 3.585786437626905 8.585786437626906 2.5
    vertex 3.585786437626905 8.585786437626906 0.0
  endloop
endfacet
facet normal 0.7933533402912358 0.6087614290087201 0.0
  outer loop
    vertex 3.585786437626905 8.585786437626906 2.5
    vertex 3.2679491924311224 9.000000000000002 0.0
    vertex 3.2679491924311224 9.000000000000002 2.5
  endloop
endfacet
facet normal 0.6087614290087203 0.7933533402912356 0.0
  outer loop
    vertex 3.585786437626905 8.585786437626906 2.5
    vertex 3.999999999999999 8.267949192431125 0.0
    vertex 3.585786437626905 8.585786437626906 0.0
  endloop
endfacet
facet normal 0.6087614290087203 0.7933533402912356 0.0
  outer loop
    vertex 3.999999999999999 8.267949192431125 0.0
    vertex 3.585786437626905 8.585786437626906 2.5
    vertex 3.999999999999999 8.267949192431125 2.5
  endloop
endfacet
facet normal 0.3826834323650917 0.9238795325112859 0.0
  outer loop
    vertex 3.999999999999999 8.267949192431125 2.5
    vertex 4.482361909794957 8.068148347421864 0.0
    vertex 3.999999999999999 8.267949192431125 0.0
  endloop
endfacet
facet normal 0.3826834323650917 0.9238795325112859 0.0
  outer loop
    vertex 4.482361909794957 8.068148347421864 0.0
    vertex 3.999999999999999 8.267949192431125 2.5
    vertex 4.482361909794957 8.068148347421864 2.5
  endloop
endfacet
facet normal -0.13052619222005266 -0.9914448613738103 0.0
  outer loop
    vertex 27.787262338175182 1.1632361740510077e-14 2.5
    vertex 4.999999999999995 3.000000000000002 0.0
    vertex 27.787262338175182 1.1632361740510077e-14 0.0
  endloop
endfacet
facet normal -0.13052619222005266 -0.9914448613738103 0.0
  outer loop
    vertex 4.999999999999995 3.000000000000002 0.0
    vertex 27.787262338175182 1.1632361740510077e-14 2.5
    vertex 4.999999999999995 3.000000000000002 2.5
  endloop
endfacet
facet normal -0.13052619222005218 -0.9914448613738105 -0.0
  outer loop
    vertex 4.999999999999995 3.000000000000002 2.5
    vertex 3.18826668428235 3.2385192159765253 0.0
    vertex 4.999999999999995 3.000000000000002 0.0
  endloop
endfacet
facet normal -0.13052619222005218 -0.9914448613738105 -0.0
  outer loop
    vertex 3.18826668428235 3.2385192159765253 0.0
    vertex 4.999999999999995 3.000000000000002 2.5
    vertex 3.18826668428235 3.2385192159765253 2.5
  endloop
endfacet
facet normal -0.3826834323650914 -0.9238795325112862 -0.0
  outer loop
    vertex 3.18826668428235 3.2385192159765253 2.5
    vertex 1.499999999999986 3.93782217350894 0.0
    vertex 3.18826668428235 3.2385192159765253 0.0
  endloop
endfacet
facet normal -0.3826834323650914 -0.9238795325112862 -0.0
  outer loop
    vertex 1.499999999999986 3.93782217350894 0.0
    vertex 3.18826668428235 3.2385192159765253 2.5
    vertex 1.499999999999986 3.93782217350894 2.5
  endloop
endfacet
facet normal -0.6087614290087223 -0.793353340291234 -0.0
  outer loop
    vertex 1.499999999999986 3.93782217350894 2.5
    vertex 0.05025253169415781 5.050252531694179 0.0
    vertex 1.499999999999986 3.93782217350894 0.0
  endloop
endfacet
facet normal -0.6087614290087223 -0.793353340291234 -0.0
  outer loop
    vertex 0.05025253169415781 5.050252531694179 0.0
    vertex 1.499999999999986 3.93782217350894 2.5
    vertex 0.05025253169415781 5.050252531694179 2.5
  endloop
endfacet
facet normal -0.793353340291241 -0.6087614290087132 0.0
  outer loop
    vertex 0.0 5.1157429060475135 2.5
    vertex 0.05025253169415781 5.050252531694179 0.0
    vertex 0.05025253169415781 5.050252531694179 2.5
  endloop
endfacet
facet normal -0.793353340291241 -0.6087614290087132 0.0
  outer loop
    vertex 0.05025253169415781 5.050252531694179 0.0
    vertex 0.0 5.1157429060475135 2.5
    vertex 0.0 5.1157429060475135 0.0
  endloop
endfacet
facet normal -0.13052619222005177 0.9914448613738105 -0.0
  outer loop
    vertex 3.1882666842823553 16.761480784023476 2.5
    vertex 5.000000000000001 17.0 0.010743000000000107
    vertex 3.1882666842823553 16.761480784023476 0.010743000000000107
  endloop
endfacet
facet normal -0.13052619222005177 0.9914448613738105 -0.0
  outer loop
    vertex 5.000000000000001 17.0 0.010743000000000107
    vertex 3.1882666842823553 16.761480784023476 2.5
    vertex 5.000000000000001 17.0 2.5
  endloop
endfacet
facet normal -0.13052619222005113 0.9914448613738105 -7.428902565810437e-32
  outer loop
    vertex 5.000000000000001 17.0 2.5
    vertex 27.78726233817573 20.000000000000025 0.010743000000000107
    vertex 5.000000000000001 17.0 0.010743000000000107
  endloop
endfacet
facet normal -0.13052619222005113 0.9914448613738105 -7.428902565810437e-32
  outer loop
    vertex 27.78726233817573 20.000000000000025 0.010743000000000107
    vertex 5.000000000000001 17.0 2.5
    vertex 27.78726233817573 20.000000000000025 2.5
  endloop
endfacet
facet normal -0.7933533402912374 0.608761429008718 8.590043697662542e-19
  outer loop
    vertex 0.050252531694169794 14.949747468305832 2.5
    vertex 0.0 14.884257093952483 0.010743000000000107
    vertex 0.0 14.884257093952483 2.5
  endloop
endfacet
facet normal -0.7933533402912374 0.608761429008718 8.590043697662542e-19
  outer loop
    vertex 0.0 14.884257093952483 0.010743000000000107
    vertex 0.050252531694169794 14.949747468305832 2.5
    vertex 0.050252531694169794 14.949747468305832 0.010743000000000107
  endloop
endfacet
facet normal -0.6087614290087211 0.7933533402912349 -0.0
  outer loop
    vertex 0.050252531694169794 14.949747468305832 2.5
    vertex 1.5000000000000007 16.06217782649107 0.010743000000000107
    vertex 0.050252531694169794 14.949747468305832 0.010743000000000107
  endloop
endfacet
facet normal -0.6087614290087211 0.7933533402912349 -0.0
  outer loop
    vertex 1.5000000000000007 16.06217782649107 0.010743000000000107
    vertex 0.050252531694169794 14.949747468305832 2.5
    vertex 1.5000000000000007 16.06217782649107 2.5
  endloop
endfacet
facet normal -0.3826834323650899 0.9238795325112868 -0.0
  outer loop
    vertex 1.5000000000000007 16.06217782649107 2.5
    vertex 3.1882666842823553 16.761480784023476 0.010743000000000107
    vertex 1.5000000000000007 16.06217782649107 0.010743000000000107
  endloop
endfacet
facet normal -0.3826834323650899 0.9238795325112868 -0.0
  outer loop
    vertex 3.1882666842823553 16.761480784023476 0.010743000000000107
    vertex 1.5000000000000007 16.06217782649107 2.5
    vertex 3.1882666842823553 16.761480784023476 2.5
  endloop
endfacet
facet normal -0.793353340291236 -0.6087614290087195 1.5576270914014786e-18
  outer loop
    vertex -1.0621778264910764 6.500000000000012 2.5
    vertex 0.0 5.1157429060475135 0.0
    vertex 0.0 5.1157429060475135 2.5
  endloop
endfacet
facet normal -0.793353340291236 -0.6087614290087195 1.5576270914014786e-18
  outer loop
    vertex 0.0 5.1157429060475135 0.0
    vertex -1.0621778264910764 6.500000000000012 2.5
    vertex -1.0621778264910764 6.500000000000012 0.010743000000004159
  endloop
endfacet
facet normal -0.7933533402912345 0.6087614290087215 -1.1704531930376775e-17
  outer loop
    vertex 0.0 14.884257093952483 2.5
    vertex -1.062177826491067 13.500000000000004 0.010743000000004159
    vertex -1.062177826491067 13.500000000000004 2.5
  endloop
endfacet
facet normal -0.7933533402912345 0.6087614290087215 -1.1704531930376775e-17
  outer loop
    vertex -1.062177826491067 13.500000000000004 0.010743000000004159
    vertex 0.0 14.884257093952483 2.5
    vertex 0.0 14.884257093952483 0.010743000000000107
  endloop
endfacet
facet normal -0.9238795325112866 0.38268343236509067 0.0
  outer loop
    vertex -1.062177826491067 13.500000000000004 2.5
    vertex -1.7614807840234754 11.811733315717651 0.010743000000004159
    vertex -1.7614807840234754 11.811733315717651 2.5
  endloop
endfacet
facet normal -0.9238795325112866 0.38268343236509067 0.0
  outer loop
    vertex -1.7614807840234754 11.811733315717651 0.010743000000004159
    vertex -1.062177826491067 13.500000000000004 2.5
    vertex -1.062177826491067 13.500000000000004 0.010743000000004159
  endloop
endfacet
facet normal -0.9914448613738104 0.1305261922200527 0.0
  outer loop
    vertex -1.7614807840234754 11.811733315717651 2.5
    vertex -1.9999999999999991 10.000000000000009 0.010743000000004159
    vertex -1.9999999999999991 10.000000000000009 2.5
  endloop
endfacet
facet normal -0.9914448613738104 0.1305261922200527 0.0
  outer loop
    vertex -1.9999999999999991 10.000000000000009 0.010743000000004159
    vertex -1.7614807840234754 11.811733315717651 2.5
    vertex -1.7614807840234754 11.811733315717651 0.010743000000004159
  endloop
endfacet
facet normal -0.9914448613738105 -0.1305261922200508 -0.0
  outer loop
    vertex -1.9999999999999991 10.000000000000009 2.5
    vertex -1.761480784023479 8.188266684282366 0.010743000000004159
    vertex -1.761480784023479 8.188266684282366 2.5
  endloop
endfacet
facet normal -0.9914448613738105 -0.1305261922200508 -0.0
  outer loop
    vertex -1.761480784023479 8.188266684282366 0.010743000000004159
    vertex -1.9999999999999991 10.000000000000009 2.5
    vertex -1.9999999999999991 10.000000000000009 0.010743000000004159
  endloop
endfacet
facet normal -0.9238795325112877 -0.38268343236508773 -0.0
  outer loop
    vertex -1.761480784023479 8.188266684282366 2.5
    vertex -1.0621778264910764 6.500000000000012 0.010743000000004159
    vertex -1.0621778264910764 6.500000000000012 2.5
  endloop
endfacet
facet normal -0.9238795325112877 -0.38268343236508773 -0.0
  outer loop
    vertex -1.0621778264910764 6.500000000000012 0.010743000000004159
    vertex -1.761480784023479 8.188266684282366 2.5
    vertex -1.761480784023479 8.188266684282366 0.010743000000004159
  endloop
endfacet
facet normal -0.0 -0.0 1.0
  outer loop
    vertex -1.761480784023479 8.188266684282366 2.5
    vertex -1.7614807840234754 11.811733315717651 2.5
    vertex -1.9999999999999991 10.000000000000009 2.5
  endloop
endfacet
facet normal -0.0 -0.0 1.0
  outer loop
    vertex -1.7614807840234754 11.811733315717651 2.5
    vertex -1.761480784023479 8.188266684282366 2.5
    vertex -1.0621778264910764 6.500000000000012 2.5
  endloop
endfacet
facet normal -0.0 -0.0 1.0
  outer loop
    vertex -1.7614807840234754 11.811733315717651 2.5
    vertex -1.0621778264910764 6.500000000000012 2.5
    vertex -1.062177826491067 13.500000000000004 2.5
  endloop
endfacet
facet normal -0.0 -0.0 1.0
  outer loop
    vertex -1.062177826491067 13.500000000000004 2.5
    vertex -1.0621778264910764 6.500000000000012 2.5
    vertex 0.0 5.1157429060475135 2.5
  endloop
endfacet
facet normal -0.0 -0.0 1.0
  outer loop
    vertex -1.062177826491067 13.500000000000004 2.5
    vertex 0.0 5.1157429060475135 2.5
    vertex 0.0 14.884257093952483 2.5
  endloop
endfacet
facet normal -0.0 -0.0 1.0
  outer loop
    vertex 0.0 14.884257093952483 2.5
    vertex 0.0 5.1157429060475135 2.5
    vertex 0.05025253169415781 5.050252531694179 2.5
  endloop
endfacet
facet normal -0.0 -0.0 1.0
  outer loop
    vertex 0.0 14.884257093952483 2.5
    vertex 0.05025253169415781 5.050252531694179 2.5
    vertex 0.050252531694169794 14.949747468305832 2.5
  endloop
endfacet
facet normal -0.0 -0.0 1.0
  outer loop
    vertex 0.050252531694169794 14.949747468305832 2.5
    vertex 0.05025253169415781 5.050252531694179 2.5
    vertex 1.499999999999986 3.93782217350894 2.5
  endloop
endfacet
facet normal -0.0 -0.0 1.0
  outer loop
    vertex 0.050252531694169794 14.949747468305832 2.5
    vertex 1.499999999999986 3.93782217350894 2.5
    vertex 1.5000000000000007 16.06217782649107 2.5
  endloop
endfacet
facet normal -0.0 -0.0 1.0
  outer loop
    vertex 1.5000000000000007 16.06217782649107 2.5
    vertex 1.499999999999986 3.93782217350894 2.5
    vertex 3.18826668428235 3.2385192159765253 2.5
  endloop
endfacet
facet normal -0.0 -0.0 1.0
  outer loop
    vertex 1.5000000000000007 16.06217782649107 2.5
    vertex 3.18826668428235 3.2385192159765253 2.5
    vertex 3.0 10.0 2.5
  endloop
endfacet
facet normal -0.0 -0.0 1.0
  outer loop
    vertex 3.0 10.0 2.5
    vertex 3.18826668428235 3.2385192159765253 2.5
    vertex 3.068148347421863 9.48236190979496 2.5
  endloop
endfacet
facet normal -0.0 -0.0 1.0
  outer loop
    vertex 3.068148347421863 9.48236190979496 2.5
    vertex 3.18826668428235 3.2385192159765253 2.5
    vertex 3.2679491924311224 9.000000000000002 2.5
  endloop
endfacet
facet normal -0.0 -0.0 1.0
  outer loop
    vertex 3.2679491924311224 9.000000000000002 2.5
    vertex 3.18826668428235 3.2385192159765253 2.5
    vertex 4.999999999999995 3.000000000000002 2.5
  endloop
endfacet
facet normal -0.0 -0.0 1.0
  outer loop
    vertex 3.2679491924311224 9.000000000000002 2.5
    vertex 4.999999999999995 3.000000000000002 2.5
    vertex 3.585786437626905 8.585786437626906 2.5
  endloop
endfacet
facet normal -0.0 -0.0 1.0
  outer loop
    vertex 3.585786437626905 8.585786437626906 2.5
    vertex 4.999999999999995 3.000000000000002 2.5
    vertex 3.999999999999999 8.267949192431125 2.5
  endloop
endfacet
facet normal -0.0 -0.0 1.0
  outer loop
    vertex 3.999999999999999 8.267949192431125 2.5
    vertex 4.999999999999995 3.000000000000002 2.5
    vertex 4.482361909794957 8.068148347421864 2.5
  endloop
endfacet
facet normal -0.0 -0.0 1.0
  outer loop
    vertex 4.482361909794957 8.068148347421864 2.5
    vertex 4.999999999999995 3.000000000000002 2.5
    vertex 4.999999999999999 8.0 2.5
  endloop
endfacet
facet normal -0.0 -0.0 1.0
  outer loop
    vertex 4.999999999999999 8.0 2.5
    vertex 4.999999999999995 3.000000000000002 2.5
    vertex 27.787262338175182 1.1632361740510077e-14 2.5
  endloop
endfacet
facet normal -0.0 -0.0 1.0
  outer loop
    vertex 4.999999999999999 8.0 2.5
    vertex 27.787262338175182 1.1632361740510077e-14 2.5
    vertex 5.517638090205041 8.068148347421864 2.5
  endloop
endfacet
facet normal -0.0 -0.0 1.0
  outer loop
    vertex 5.517638090205041 8.068148347421864 2.5
    vertex 27.787262338175182 1.1632361740510077e-14 2.5
    vertex 5.999999999999999 8.267949192431123 2.5
  endloop
endfacet
facet normal -0.0 -0.0 1.0
  outer loop
    vertex 5.999999999999999 8.267949192431123 2.5
    vertex 27.787262338175182 1.1632361740510077e-14 2.5
    vertex 6.414213562373094 8.585786437626906 2.5
  endloop
endfacet
facet normal -0.0 -0.0 1.0
  outer loop
    vertex 6.414213562373094 8.585786437626906 2.5
    vertex 27.787262338175182 1.1632361740510077e-14 2.5
    vertex 6.732050807568876 9.0 2.5
  endloop
endfacet
facet normal -0.0 -0.0 1.0
  outer loop
    vertex 6.732050807568876 9.0 2.5
    vertex 27.787262338175182 1.1632361740510077e-14 2.5
    vertex 6.931851652578135 9.482361909794959 2.5
  endloop
endfacet
facet normal -0.0 -0.0 1.0
  outer loop
    vertex 6.931851652578135 9.482361909794959 2.5
    vertex 27.787262338175182 1.1632361740510077e-14 2.5
    vertex 6.999999999999998 10.0 2.5
  endloop
endfacet
facet normal -0.0 -0.0 1.0
  outer loop
    vertex 3.0 10.0 2.5
    vertex 3.1882666842823553 16.761480784023476 2.5
    vertex 1.5000000000000007 16.06217782649107 2.5
  endloop
endfacet
facet normal -0.0 -0.0 1.0
  outer loop
    vertex 3.1882666842823553 16.761480784023476 2.5
    vertex 3.0 10.0 2.5
    vertex 3.068148347421864 10.517638090205043 2.5
  endloop
endfacet
facet normal -0.0 -0.0 1.0
  outer loop
    vertex 3.1882666842823553 16.761480784023476 2.5
    vertex 3.068148347421864 10.517638090205043 2.5
    vertex 3.2679491924311237 11.000000000000002 2.5
  endloop
endfacet
facet normal -0.0 -0.0 1.0
  outer loop
    vertex 3.1882666842823553 16.761480784023476 2.5
    vertex 3.2679491924311237 11.000000000000002 2.5
    vertex 5.000000000000001 17.0 2.5
  endloop
endfacet
facet normal -0.0 -0.0 1.0
  outer loop
    vertex 5.000000000000001 17.0 2.5
    vertex 3.2679491924311237 11.000000000000002 2.5
    vertex 3.5857864376269055 11.414213562373096 2.5
  endloop
endfacet
facet normal -0.0 -0.0 1.0
  outer loop
    vertex 5.000000000000001 17.0 2.5
    vertex 3.5857864376269055 11.414213562373096 2.5
    vertex 4.0 11.732050807568877 2.5
  endloop
endfacet
facet normal -0.0 -0.0 1.0
  outer loop
    vertex 5.000000000000001 17.0 2.5
    vertex 4.0 11.732050807568877 2.5
    vertex 4.4823619097949585 11.931851652578136 2.5
  endloop
endfacet
facet normal -0.0 -0.0 1.0
  outer loop
    vertex 5.000000000000001 17.0 2.5
    vertex 4.4823619097949585 11.931851652578136 2.5
    vertex 4.999999999999999 12.0 2.5
  endloop
endfacet
facet normal -0.0 -0.0 1.0
  outer loop
    vertex 5.000000000000001 17.0 2.5
    vertex 4.999999999999999 12.0 2.5
    vertex 5.5176380902050415 11.931851652578136 2.5
  endloop
endfacet
facet normal -0.0 -0.0 1.0
  outer loop
    vertex 5.000000000000001 17.0 2.5
    vertex 5.5176380902050415 11.931851652578136 2.5
    vertex 27.78726233817573 20.000000000000025 2.5
  endloop
endfacet
facet normal -0.0 -0.0 1.0
  outer loop
    vertex 27.78726233817573 20.000000000000025 2.5
    vertex 5.5176380902050415 11.931851652578136 2.5
    vertex 6.0 11.732050807568877 2.5
  endloop
endfacet
facet normal -0.0 -0.0 1.0
  outer loop
    vertex 27.78726233817573 20.000000000000025 2.5
    vertex 6.0 11.732050807568877 2.5
    vertex 6.414213562373094 11.414213562373094 2.5
  endloop
endfacet
facet normal -0.0 -0.0 1.0
  outer loop
    vertex 27.78726233817573 20.000000000000025 2.5
    vertex 6.414213562373094 11.414213562373094 2.5
    vertex 6.732050807568876 11.0 2.5
  endloop
endfacet
facet normal -0.0 -0.0 1.0
  outer loop
    vertex 27.78726233817573 20.000000000000025 2.5
    vertex 6.732050807568876 11.0 2.5
    vertex 6.931851652578135 10.517638090205041 2.5
  endloop
endfacet
facet normal -0.0 -0.0 1.0
  outer loop
    vertex 27.78726233817573 20.000000000000025 2.5
    vertex 6.931851652578135 10.517638090205041 2.5
    vertex 6.999999999999998 10.0 2.5
  endloop
endfacet
facet normal -0.0 -0.0 1.0
  outer loop
    vertex 27.78726233817573 20.000000000000025 2.5
    vertex 6.999999999999998 10.0 2.5
    vertex 27.787262338175182 3.0000000000000115 2.5
  endloop
endfacet
facet normal -0.0 -0.0 1.0
  outer loop
    vertex 27.787262338175182 3.0000000000000115 2.5
    vertex 6.999999999999998 10.0 2.5
    vertex 27.787262338175182 1.1632361740510077e-14 2.5
  endloop
endfacet
facet normal -0.0 -0.0 1.0
  outer loop
    vertex 27.78726233817573 20.000000000000025 2.5
    vertex 27.787262338175182 3.0000000000000115 2.5
    vertex 27.78726233817573 17.000000000000025 2.5
  endloop
endfacet
facet normal -0.0 -0.0 1.0
  outer loop
    vertex 180.0 3.0000000000000115 2.5
    vertex 27.78726233817573 17.000000000000025 2.5
    vertex 27.787262338175182 3.0000000000000115 2.5
  endloop
endfacet
facet normal -0.0 -0.0 1.0
  outer loop
    vertex 27.78726233817573 17.000000000000025 2.5
    vertex 180.0 3.0000000000000115 2.5
    vertex 173.58578643762692 8.585786437626906 2.5
  endloop
endfacet
facet normal -0.0 -0.0 1.0
  outer loop
    vertex 27.78726233817573 17.000000000000025 2.5
    vertex 173.58578643762692 8.585786437626906 2.5
    vertex 173.26794919243113 9.0 2.5
  endloop
endfacet
facet normal -0.0 -0.0 1.0
  outer loop
    vertex 27.78726233817573 17.000000000000025 2.5
    vertex 173.26794919243113 9.0 2.5
    vertex 173.06814834742187 9.482361909794959 2.5
  endloop
endfacet
facet normal -0.0 -0.0 1.0
  outer loop
    vertex 27.78726233817573 17.000000000000025 2.5
    vertex 173.06814834742187 9.482361909794959 2.5
    vertex 173.00000000000003 10.0 2.5
  endloop
endfacet
facet normal -0.0 -0.0 1.0
  outer loop
    vertex 173.58578643762692 8.585786437626906 2.5
    vertex 180.0 3.0000000000000115 2.5
    vertex 174.00000000000003 8.267949192431123 2.5
  endloop
endfacet
facet normal -0.0 -0.0 1.0
  outer loop
    vertex 174.00000000000003 8.267949192431123 2.5
    vertex 180.0 3.0000000000000115 2.5
    vertex 174.48236190979497 8.068148347421863 2.5
  endloop
endfacet
facet normal -0.0 -0.0 1.0
  outer loop
    vertex 174.48236190979497 8.068148347421863 2.5
    vertex 180.0 3.0000000000000115 2.5
    vertex 175.00000000000003 7.999999999999999 2.5
  endloop
endfacet
facet normal -0.0 -0.0 1.0
  outer loop
    vertex 175.00000000000003 7.999999999999999 2.5
    vertex 180.0 3.0000000000000115 2.5
    vertex 175.51763809020505 8.068148347421863 2.5
  endloop
endfacet
facet normal -0.0 -0.0 1.0
  outer loop
    vertex 175.51763809020505 8.068148347421863 2.5
    vertex 180.0 3.0000000000000115 2.5
    vertex 176.00000000000003 8.267949192431121 2.5
  endloop
endfacet
facet normal -0.0 -0.0 1.0
  outer loop
    vertex 176.00000000000003 8.267949192431121 2.5
    vertex 180.0 3.0000000000000115 2.5
    vertex 176.4142135623731 8.585786437626904 2.5
  endloop
endfacet
facet normal -0.0 -0.0 1.0
  outer loop
    vertex 176.4142135623731 8.585786437626904 2.5
    vertex 180.0 3.0000000000000115 2.5
    vertex 176.7320508075689 8.999999999999998 2.5
  endloop
endfacet
facet normal -0.0 -0.0 1.0
  outer loop
    vertex 176.7320508075689 8.999999999999998 2.5
    vertex 180.0 3.0000000000000115 2.5
    vertex 176.93185165257816 9.482361909794957 2.5
  endloop
endfacet
facet normal -0.0 -0.0 1.0
  outer loop
    vertex 176.93185165257816 9.482361909794957 2.5
    vertex 180.0 3.0000000000000115 2.5
    vertex 177.0 10.0 2.5
  endloop
endfacet
facet normal -0.0 -0.0 1.0
  outer loop
    vertex 177.0 10.0 2.5
    vertex 180.0 3.0000000000000115 2.5
    vertex 180.0 17.000000000000025 2.5
  endloop
endfacet
facet normal -0.0 -0.0 1.0
  outer loop
    vertex 27.78726233817573 17.000000000000025 2.5
    vertex 173.58578643762692 11.414213562373096 2.5
    vertex 180.0 17.000000000000025 2.5
  endloop
endfacet
facet normal -0.0 -0.0 1.0
  outer loop
    vertex 173.58578643762692 11.414213562373096 2.5
    vertex 27.78726233817573 17.000000000000025 2.5
    vertex 173.26794919243116 11.000000000000002 2.5
  endloop
endfacet
facet normal -0.0 -0.0 1.0
  outer loop
    vertex 173.26794919243116 11.000000000000002 2.5
    vertex 27.78726233817573 17.000000000000025 2.5
    vertex 173.06814834742187 10.517638090205043 2.5
  endloop
endfacet
facet normal -0.0 -0.0 1.0
  outer loop
    vertex 173.06814834742187 10.517638090205043 2.5
    vertex 27.78726233817573 17.000000000000025 2.5
    vertex 173.00000000000003 10.0 2.5
  endloop
endfacet
facet normal -0.0 -0.0 1.0
  outer loop
    vertex 180.0 17.000000000000025 2.5
    vertex 173.58578643762692 11.414213562373096 2.5
    vertex 174.00000000000003 11.732050807568879 2.5
  endloop
endfacet
facet normal -0.0 -0.0 1.0
  outer loop
    vertex 180.0 17.000000000000025 2.5
    vertex 174.00000000000003 11.732050807568879 2.5
    vertex 174.48236190979497 11.931851652578137 2.5
  endloop
endfacet
facet normal -0.0 -0.0 1.0
  outer loop
    vertex 180.0 17.000000000000025 2.5
    vertex 174.48236190979497 11.931851652578137 2.5
    vertex 175.00000000000003 12.0 2.5
  endloop
endfacet
facet normal -0.0 -0.0 1.0
  outer loop
    vertex 180.0 17.000000000000025 2.5
    vertex 175.00000000000003 12.0 2.5
    vertex 175.51763809020505 11.931851652578137 2.5
  endloop
endfacet
facet normal -0.0 -0.0 1.0
  outer loop
    vertex 180.0 17.000000000000025 2.5
    vertex 175.51763809020505 11.931851652578137 2.5
    vertex 176.00000000000003 11.732050807568877 2.5
  endloop
endfacet
facet normal -0.0 -0.0 1.0
  outer loop
    vertex 180.0 17.000000000000025 2.5
    vertex 176.00000000000003 11.732050807568877 2.5
    vertex 176.4142135623731 11.414213562373096 2.5
  endloop
endfacet
facet normal -0.0 -0.0 1.0
  outer loop
    vertex 180.0 17.000000000000025 2.5
    vertex 176.4142135623731 11.414213562373096 2.5
    vertex 176.7320508075689 11.0 2.5
  endloop
endfacet
facet normal -0.0 -0.0 1.0
  outer loop
    vertex 180.0 17.000000000000025 2.5
    vertex 176.7320508075689 11.0 2.5
    vertex 176.93185165257816 10.517638090205041 2.5
  endloop
endfacet
facet normal -0.0 -0.0 1.0
  outer loop
    vertex 180.0 17.000000000000025 2.5
    vertex 176.93185165257816 10.517638090205041 2.5
    vertex 177.0 10.0 2.5
  endloop
endfacet
facet normal 0.0 0.0 1.0
  outer loop
    vertex 180.0 17.000000000000025 7.5
    vertex 27.78726233817573 20.000000000000025 7.5
    vertex 27.78726233817573 17.000000000000025 7.5
  endloop
endfacet
facet normal 0.0 0.0 1.0
  outer loop
    vertex 27.78726233817573 20.000000000000025 7.5
    vertex 180.0 17.000000000000025 7.5
    vertex 180.0 20.0 7.5
  endloop
endfacet
facet normal -1.0 -0.0 -0.0
  outer loop
    vertex 27.78726233817573 20.000000000000025 7.5
    vertex 27.78726233817573 17.000000000000025 2.5
    vertex 27.78726233817573 17.000000000000025 7.5
  endloop
endfacet
facet normal -1.0 -0.0 -0.0
  outer loop
    vertex 27.78726233817573 17.000000000000025 2.5
    vertex 27.78726233817573 20.000000000000025 7.5
    vertex 27.78726233817573 20.000000000000025 2.5
  endloop
endfacet
facet normal 0.0 -1.0 0.0
  outer loop
    vertex 180.0 17.000000000000025 7.5
    vertex 27.78726233817573 17.000000000000025 2.5
    vertex 180.0 17.000000000000025 2.5
  endloop
endfacet
facet normal 0.0 -1.0 0.0
  outer loop
    vertex 27.78726233817573 17.000000000000025 2.5
    vertex 180.0 17.000000000000025 7.5
    vertex 27.78726233817573 17.000000000000025 7.5
  endloop
endfacet
facet normal 0.0 0.0 1.0
  outer loop
    vertex 180.0 0.0 7.5
    vertex 27.787262338175182 3.0000000000000115 7.5
    vertex 27.787262338175182 1.1632361740510077e-14 7.5
  endloop
endfacet
facet normal 0.0 0.0 1.0
  outer loop
    vertex 27.787262338175182 3.0000000000000115 7.5
    vertex 180.0 0.0 7.5
    vertex 180.0 3.0000000000000115 7.5
  endloop
endfacet
facet normal 0.0 1.0 0.0
  outer loop
    vertex 27.787262338175182 3.0000000000000115 7.5
    vertex 180.0 3.0000000000000115 2.5
    vertex 27.787262338175182 3.0000000000000115 2.5
  endloop
endfacet
facet normal 0.0 1.0 0.0
  outer loop
    vertex 180.0 3.0000000000000115 2.5
    vertex 27.787262338175182 3.0000000000000115 7.5
    vertex 180.0 3.0000000000000115 7.5
  endloop
endfacet
facet normal -1.0 -0.0 -0.0
  outer loop
    vertex 27.787262338175182 3.0000000000000115 7.5
    vertex 27.787262338175182 1.1632361740510077e-14 2.5
    vertex 27.787262338175182 1.1632361740510077e-14 7.5
  endloop
endfacet
facet normal -1.0 -0.0 -0.0
  outer loop
    vertex 27.787262338175182 1.1632361740510077e-14 2.5
    vertex 27.787262338175182 3.0000000000000115 7.5
    vertex 27.787262338175182 3.0000000000000115 2.5
  endloop
endfacet
facet normal -3.024395410533344e-05 0.0005608422169661668 -0.9999998422706431
  outer loop
    vertex 27.78726233817573 20.000000000000025 0.010743000000000107
    vertex 173.06814834742187 10.517638090205043 0.0
    vertex 173.00000000000003 10.0 0.0
  endloop
endfacet
facet normal -3.024395410533344e-05 0.0005608422169661668 -0.9999998422706431
  outer loop
    vertex 173.06814834742187 10.517638090205043 0.0
    vertex 27.78726233817573 20.000000000000025 0.010743000000000107
    vertex 173.26794919243116 11.000000000000002 0.0
  endloop
endfacet
facet normal -3.024395410533344e-05 0.0005608422169661668 -0.9999998422706431
  outer loop
    vertex 173.26794919243116 11.000000000000002 0.0
    vertex 27.78726233817573 20.000000000000025 0.010743000000000107
    vertex 180.0 20.0 0.0
  endloop
endfacet
facet normal -3.024395410533344e-05 0.0005608422169661668 -0.9999998422706431
  outer loop
    vertex 173.26794919243116 11.000000000000002 0.0
    vertex 180.0 20.0 0.0
    vertex 173.58578643762692 11.414213562373096 0.0
  endloop
endfacet
facet normal -3.024395410533344e-05 0.0005608422169661668 -0.9999998422706431
  outer loop
    vertex 173.58578643762692 11.414213562373096 0.0
    vertex 180.0 20.0 0.0
    vertex 174.00000000000003 11.732050807568879 0.0
  endloop
endfacet
facet normal -3.024395410533344e-05 0.0005608422169661668 -0.9999998422706431
  outer loop
    vertex 174.00000000000003 11.732050807568879 0.0
    vertex 180.0 20.0 0.0
    vertex 174.48236190979497 11.931851652578137 0.0
  endloop
endfacet
facet normal -3.024395410533344e-05 0.0005608422169661668 -0.9999998422706431
  outer loop
    vertex 174.48236190979497 11.931851652578137 0.0
    vertex 180.0 20.0 0.0
    vertex 175.00000000000003 12.0 0.0
  endloop
endfacet
facet normal -3.024395410533344e-05 0.0005608422169661668 -0.9999998422706431
  outer loop
    vertex 175.00000000000003 12.0 0.0
    vertex 180.0 20.0 0.0
    vertex 175.51763809020505 11.931851652578137 0.0
  endloop
endfacet
facet normal -3.024395410533344e-05 0.0005608422169661668 -0.9999998422706431
  outer loop
    vertex 175.51763809020505 11.931851652578137 0.0
    vertex 180.0 20.0 0.0
    vertex 176.00000000000003 11.732050807568877 0.0
  endloop
endfacet
facet normal -3.024395410533344e-05 0.0005608422169661668 -0.9999998422706431
  outer loop
    vertex 176.00000000000003 11.732050807568877 0.0
    vertex 180.0 20.0 0.0
    vertex 176.4142135623731 11.414213562373096 0.0
  endloop
endfacet
facet normal -3.024395410533344e-05 0.0005608422169661668 -0.9999998422706431
  outer loop
    vertex 176.4142135623731 11.414213562373096 0.0
    vertex 180.0 20.0 0.0
    vertex 176.7320508075689 11.0 0.0
  endloop
endfacet
facet normal -3.024395410533344e-05 0.0005608422169661668 -0.9999998422706431
  outer loop
    vertex 176.7320508075689 11.0 0.0
    vertex 180.0 20.0 0.0
    vertex 176.93185165257816 10.517638090205041 0.0
  endloop
endfacet
facet normal -3.024395410533344e-05 0.0005608422169661668 -0.9999998422706431
  outer loop
    vertex 176.93185165257816 10.517638090205041 0.0
    vertex 180.0 20.0 0.0
    vertex 177.0 10.0 0.0
  endloop
endfacet
facet normal -3.024395410533344e-05 0.0005608422169661668 -0.9999998422706431
  outer loop
    vertex 3.1882666842823553 16.761480784023476 0.010743000000000107
    vertex 3.0 10.0 0.0
    vertex 1.5000000000000007 16.06217782649107 0.010743000000000107
  endloop
endfacet
facet normal -3.024395410533344e-05 0.0005608422169661668 -0.9999998422706431
  outer loop
    vertex 3.0 10.0 0.0
    vertex 3.1882666842823553 16.761480784023476 0.010743000000000107
    vertex 3.068148347421864 10.517638090205043 0.0
  endloop
endfacet
facet normal -3.024395410533344e-05 0.0005608422169661668 -0.9999998422706431
  outer loop
    vertex 3.068148347421864 10.517638090205043 0.0
    vertex 3.1882666842823553 16.761480784023476 0.010743000000000107
    vertex 3.2679491924311237 11.000000000000002 0.0
  endloop
endfacet
facet normal -3.024395410533344e-05 0.0005608422169661668 -0.9999998422706431
  outer loop
    vertex 3.2679491924311237 11.000000000000002 0.0
    vertex 3.1882666842823553 16.761480784023476 0.010743000000000107
    vertex 5.000000000000001 17.0 0.010743000000000107
  endloop
endfacet
facet normal -3.024395410533344e-05 0.0005608422169661668 -0.9999998422706431
  outer loop
    vertex 3.2679491924311237 11.000000000000002 0.0
    vertex 5.000000000000001 17.0 0.010743000000000107
    vertex 3.5857864376269055 11.414213562373096 0.0
  endloop
endfacet
facet normal -3.024395410533344e-05 0.0005608422169661668 -0.9999998422706431
  outer loop
    vertex 3.5857864376269055 11.414213562373096 0.0
    vertex 5.000000000000001 17.0 0.010743000000000107
    vertex 4.0 11.732050807568877 0.0
  endloop
endfacet
facet normal -3.024395410533344e-05 0.0005608422169661668 -0.9999998422706431
  outer loop
    vertex 4.0 11.732050807568877 0.0
    vertex 5.000000000000001 17.0 0.010743000000000107
    vertex 4.4823619097949585 11.931851652578136 0.0
  endloop
endfacet
facet normal -3.024395410533344e-05 0.0005608422169661668 -0.9999998422706431
  outer loop
    vertex 4.4823619097949585 11.931851652578136 0.0
    vertex 5.000000000000001 17.0 0.010743000000000107
    vertex 4.999999999999999 12.0 0.0
  endloop
endfacet
facet normal -3.024395410533344e-05 0.0005608422169661668 -0.9999998422706431
  outer loop
    vertex 4.999999999999999 12.0 0.0
    vertex 5.000000000000001 17.0 0.010743000000000107
    vertex 5.5176380902050415 11.931851652578136 0.0
  endloop
endfacet
facet normal -3.024395410533344e-05 0.0005608422169661668 -0.9999998422706431
  outer loop
    vertex 5.5176380902050415 11.931851652578136 0.0
    vertex 5.000000000000001 17.0 0.010743000000000107
    vertex 27.78726233817573 20.000000000000025 0.010743000000000107
  endloop
endfacet
facet normal -3.024395410533344e-05 0.0005608422169661668 -0.9999998422706431
  outer loop
    vertex 5.5176380902050415 11.931851652578136 0.0
    vertex 27.78726233817573 20.000000000000025 0.010743000000000107
    vertex 6.0 11.732050807568877 0.0
  endloop
endfacet
facet normal -3.024395410533344e-05 0.0005608422169661668 -0.9999998422706431
  outer loop
    vertex 6.0 11.732050807568877 0.0
    vertex 27.78726233817573 20.000000000000025 0.010743000000000107
    vertex 6.414213562373094 11.414213562373094 0.0
  endloop
endfacet
facet normal -3.024395410533344e-05 0.0005608422169661668 -0.9999998422706431
  outer loop
    vertex 6.414213562373094 11.414213562373094 0.0
    vertex 27.78726233817573 20.000000000000025 0.010743000000000107
    vertex 6.732050807568876 11.0 0.0
  endloop
endfacet
facet normal -3.024395410533344e-05 0.0005608422169661668 -0.9999998422706431
  outer loop
    vertex 6.732050807568876 11.0 0.0
    vertex 27.78726233817573 20.000000000000025 0.010743000000000107
    vertex 6.931851652578135 10.517638090205041 0.0
  endloop
endfacet
facet normal -3.024395410533344e-05 0.0005608422169661668 -0.9999998422706431
  outer loop
    vertex 6.931851652578135 10.517638090205041 0.0
    vertex 27.78726233817573 20.000000000000025 0.010743000000000107
    vertex 6.999999999999998 10.0 0.0
  endloop
endfacet
facet normal -3.024395410533344e-05 0.0005608422169661668 -0.9999998422706431
  outer loop
    vertex 6.999999999999998 10.0 0.0
    vertex 27.78726233817573 20.000000000000025 0.010743000000000107
    vertex 27.787262338175182 1.1632361740510077e-14 0.0
  endloop
endfacet
facet normal -3.024395410533344e-05 0.0005608422169661668 -0.9999998422706431
  outer loop
    vertex 27.787262338175182 1.1632361740510077e-14 0.0
    vertex 27.78726233817573 20.000000000000025 0.010743000000000107
    vertex 180.0 0.0 0.0
  endloop
endfacet
facet normal -3.024395410533344e-05 0.0005608422169661668 -0.9999998422706431
  outer loop
    vertex 180.0 0.0 0.0
    vertex 27.78726233817573 20.000000000000025 0.010743000000000107
    vertex 173.26794919243113 9.0 0.0
  endloop
endfacet
facet normal -3.024395410533344e-05 0.0005608422169661668 -0.9999998422706431
  outer loop
    vertex 173.26794919243113 9.0 0.0
    vertex 27.78726233817573 20.000000000000025 0.010743000000000107
    vertex 173.06814834742187 9.482361909794959 0.0
  endloop
endfacet
facet normal -3.024395410533344e-05 0.0005608422169661668 -0.9999998422706431
  outer loop
    vertex 173.06814834742187 9.482361909794959 0.0
    vertex 27.78726233817573 20.000000000000025 0.010743000000000107
    vertex 173.00000000000003 10.0 0.0
  endloop
endfacet
facet normal -3.024395410533344e-05 0.0005608422169661668 -0.9999998422706431
  outer loop
    vertex 180.0 0.0 0.0
    vertex 173.26794919243113 9.0 0.0
    vertex 173.58578643762692 8.585786437626906 0.0
  endloop
endfacet
facet normal -3.024395410533344e-05 0.0005608422169661668 -0.9999998422706431
  outer loop
    vertex 180.0 0.0 0.0
    vertex 173.58578643762692 8.585786437626906 0.0
    vertex 174.00000000000003 8.267949192431123 0.0
  endloop
endfacet
facet normal -3.024395410533344e-05 0.0005608422169661668 -0.9999998422706431
  outer loop
    vertex 180.0 0.0 0.0
    vertex 174.00000000000003 8.267949192431123 0.0
    vertex 174.48236190979497 8.068148347421863 0.0
  endloop
endfacet
facet normal -3.024395410533344e-05 0.0005608422169661668 -0.9999998422706431
  outer loop
    vertex 180.0 0.0 0.0
    vertex 174.48236190979497 8.068148347421863 0.0
    vertex 175.00000000000003 7.999999999999999 0.0
  endloop
endfacet
facet normal -3.024395410533344e-05 0.0005608422169661668 -0.9999998422706431
  outer loop
    vertex 180.0 0.0 0.0
    vertex 175.00000000000003 7.999999999999999 0.0
    vertex 175.51763809020505 8.068148347421863 0.0
  endloop
endfacet
facet normal -3.024395410533344e-05 0.0005608422169661668 -0.9999998422706431
  outer loop
    vertex 180.0 0.0 0.0
    vertex 175.51763809020505 8.068148347421863 0.0
    vertex 176.00000000000003 8.267949192431121 0.0
  endloop
endfacet
facet normal -3.024395410533344e-05 0.0005608422169661668 -0.9999998422706431
  outer loop
    vertex 180.0 0.0 0.0
    vertex 176.00000000000003 8.267949192431121 0.0
    vertex 176.4142135623731 8.585786437626904 0.0
  endloop
endfacet
facet normal -3.024395410533344e-05 0.0005608422169661668 -0.9999998422706431
  outer loop
    vertex 180.0 0.0 0.0
    vertex 176.4142135623731 8.585786437626904 0.0
    vertex 176.7320508075689 8.999999999999998 0.0
  endloop
endfacet
facet normal -3.024395410533344e-05 0.0005608422169661668 -0.9999998422706431
  outer loop
    vertex 180.0 0.0 0.0
    vertex 176.7320508075689 8.999999999999998 0.0
    vertex 176.93185165257816 9.482361909794957 0.0
  endloop
endfacet
facet normal -3.024395410533344e-05 0.0005608422169661668 -0.9999998422706431
  outer loop
    vertex 180.0 0.0 0.0
    vertex 176.93185165257816 9.482361909794957 0.0
    vertex 177.0 10.0 0.0
  endloop
endfacet
facet normal -3.024395410533344e-05 0.0005608422169661668 -0.9999998422706431
  outer loop
    vertex 180.0 0.0 0.0
    vertex 177.0 10.0 0.0
    vertex 180.0 20.0 0.0
  endloop
endfacet
facet normal -3.024395410533344e-05 0.0005608422169661668 -0.9999998422706431
  outer loop
    vertex 0.050252531694169794 14.949747468305832 0.010743000000000107
    vertex 0.0 5.1157429060475135 0.0
    vertex 0.0 14.884257093952483 0.010743000000000107
  endloop
endfacet
facet normal -3.024395410533344e-05 0.0005608422169661668 -0.9999998422706431
  outer loop
    vertex 0.0 5.1157429060475135 0.0
    vertex 0.050252531694169794 14.949747468305832 0.010743000000000107
    vertex 0.05025253169415781 5.050252531694179 0.0
  endloop
endfacet
facet normal -3.024395410533344e-05 0.0005608422169661668 -0.9999998422706431
  outer loop
    vertex 0.05025253169415781 5.050252531694179 0.0
    vertex 0.050252531694169794 14.949747468305832 0.010743000000000107
    vertex 1.499999999999986 3.93782217350894 0.0
  endloop
endfacet
facet normal -3.024395410533344e-05 0.0005608422169661668 -0.9999998422706431
  outer loop
    vertex 1.499999999999986 3.93782217350894 0.0
    vertex 0.050252531694169794 14.949747468305832 0.010743000000000107
    vertex 1.5000000000000007 16.06217782649107 0.010743000000000107
  endloop
endfacet
facet normal -3.024395410533344e-05 0.0005608422169661668 -0.9999998422706431
  outer loop
    vertex 1.499999999999986 3.93782217350894 0.0
    vertex 1.5000000000000007 16.06217782649107 0.010743000000000107
    vertex 3.18826668428235 3.2385192159765253 0.0
  endloop
endfacet
facet normal -3.024395410533344e-05 0.0005608422169661668 -0.9999998422706431
  outer loop
    vertex 3.18826668428235 3.2385192159765253 0.0
    vertex 1.5000000000000007 16.06217782649107 0.010743000000000107
    vertex 3.0 10.0 0.0
  endloop
endfacet
facet normal -3.024395410533344e-05 0.0005608422169661668 -0.9999998422706431
  outer loop
    vertex 3.18826668428235 3.2385192159765253 0.0
    vertex 3.0 10.0 0.0
    vertex 3.068148347421863 9.48236190979496 0.0
  endloop
endfacet
facet normal -3.024395410533344e-05 0.0005608422169661668 -0.9999998422706431
  outer loop
    vertex 3.18826668428235 3.2385192159765253 0.0
    vertex 3.068148347421863 9.48236190979496 0.0
    vertex 3.2679491924311224 9.000000000000002 0.0
  endloop
endfacet
facet normal -3.024395410533344e-05 0.0005608422169661668 -0.9999998422706431
  outer loop
    vertex 3.18826668428235 3.2385192159765253 0.0
    vertex 3.2679491924311224 9.000000000000002 0.0
    vertex 4.999999999999995 3.000000000000002 0.0
  endloop
endfacet
facet normal -3.024395410533344e-05 0.0005608422169661668 -0.9999998422706431
  outer loop
    vertex 4.999999999999995 3.000000000000002 0.0
    vertex 3.2679491924311224 9.000000000000002 0.0
    vertex 3.585786437626905 8.585786437626906 0.0
  endloop
endfacet
facet normal -3.024395410533344e-05 0.0005608422169661668 -0.9999998422706431
  outer loop
    vertex 4.999999999999995 3.000000000000002 0.0
    vertex 3.585786437626905 8.585786437626906 0.0
    vertex 3.999999999999999 8.267949192431125 0.0
  endloop
endfacet
facet normal -3.024395410533344e-05 0.0005608422169661668 -0.9999998422706431
  outer loop
    vertex 4.999999999999995 3.000000000000002 0.0
    vertex 3.999999999999999 8.267949192431125 0.0
    vertex 4.482361909794957 8.068148347421864 0.0
  endloop
endfacet
facet normal -3.024395410533344e-05 0.0005608422169661668 -0.9999998422706431
  outer loop
    vertex 4.999999999999995 3.000000000000002 0.0
    vertex 4.482361909794957 8.068148347421864 0.0
    vertex 4.999999999999999 8.0 0.0
  endloop
endfacet
facet normal -3.024395410533344e-05 0.0005608422169661668 -0.9999998422706431
  outer loop
    vertex 4.999999999999995 3.000000000000002 0.0
    vertex 4.999999999999999 8.0 0.0
    vertex 27.787262338175182 1.1632361740510077e-14 0.0
  endloop
endfacet
facet normal -3.024395410533344e-05 0.0005608422169661668 -0.9999998422706431
  outer loop
    vertex 27.787262338175182 1.1632361740510077e-14 0.0
    vertex 4.999999999999999 8.0 0.0
    vertex 5.517638090205041 8.068148347421864 0.0
  endloop
endfacet
facet normal -3.024395410533344e-05 0.0005608422169661668 -0.9999998422706431
  outer loop
    vertex 27.787262338175182 1.1632361740510077e-14 0.0
    vertex 5.517638090205041 8.068148347421864 0.0
    vertex 5.999999999999999 8.267949192431123 0.0
  endloop
endfacet
facet normal -3.024395410533344e-05 0.0005608422169661668 -0.9999998422706431
  outer loop
    vertex 27.787262338175182 1.1632361740510077e-14 0.0
    vertex 5.999999999999999 8.267949192431123 0.0
    vertex 6.414213562373094 8.585786437626906 0.0
  endloop
endfacet
facet normal -3.024395410533344e-05 0.0005608422169661668 -0.9999998422706431
  outer loop
    vertex 27.787262338175182 1.1632361740510077e-14 0.0
    vertex 6.414213562373094 8.585786437626906 0.0
    vertex 6.732050807568876 9.0 0.0
  endloop
endfacet
facet normal -3.024395410533344e-05 0.0005608422169661668 -0.9999998422706431
  outer loop
    vertex 27.787262338175182 1.1632361740510077e-14 0.0
    vertex 6.732050807568876 9.0 0.0
    vertex 6.931851652578135 9.482361909794959 0.0
  endloop
endfacet
facet normal -3.024395410533344e-05 0.0005608422169661668 -0.9999998422706431
  outer loop
    vertex 27.787262338175182 1.1632361740510077e-14 0.0
    vertex 6.931851652578135 9.482361909794959 0.0
    vertex 6.999999999999998 10.0 0.0
  endloop
endfacet
facet normal -0.0028572545489082223 0.0006660770867308105 -0.9999956962096175
  outer loop
    vertex -1.7614807840234754 11.811733315717651 0.010743000000004159
    vertex -1.761480784023479 8.188266684282366 0.010743000000004159
    vertex -1.9999999999999991 10.000000000000009 0.010743000000004159
  endloop
endfacet
facet normal -0.0028572545489082223 0.0006660770867308105 -0.9999956962096175
  outer loop
    vertex -1.761480784023479 8.188266684282366 0.010743000000004159
    vertex -1.7614807840234754 11.811733315717651 0.010743000000004159
    vertex -1.0621778264910764 6.500000000000012 0.010743000000004159
  endloop
endfacet
facet normal -0.0028572545489082223 0.0006660770867308105 -0.9999956962096175
  outer loop
    vertex -1.0621778264910764 6.500000000000012 0.010743000000004159
    vertex -1.7614807840234754 11.811733315717651 0.010743000000004159
    vertex -1.062177826491067 13.500000000000004 0.010743000000004159
  endloop
endfacet
facet normal -0.0028572545489082223 0.0006660770867308105 -0.9999956962096175
  outer loop
    vertex -1.0621778264910764 6.500000000000012 0.010743000000004159
    vertex -1.062177826491067 13.500000000000004 0.010743000000004159
    vertex 0.0 5.1157429060475135 0.0
  endloop
endfacet
facet normal -0.0028572545489082223 0.0006660770867308105 -0.9999956962096175
  outer loop
    vertex 0.0 5.1157429060475135 0.0
    vertex -1.062177826491067 13.500000000000004 0.010743000000004159
    vertex 0.0 14.884257093952483 0.010743000000000107
  endloop
endfacet
endsolid Pers-ClampBraceBar
