solid UltaSonicCircuitBoardCover
facet normal 0.0 0.0 -1.0
  outer loop
    vertex 5.639932965095795e-15 65.99999999999999 0.0
    vertex 21.20096189432334 64.75 2.114974861910923e-15
    vertex 5.639932965095795e-15 30.000000000000007 0.0
  endloop
endfacet
facet normal 0.0 0.0 -1.0
  outer loop
    vertex 21.20096189432334 64.75 2.114974861910923e-15
    vertex 5.639932965095795e-15 65.99999999999999 0.0
    vertex 21.439339828220174 65.06066017177982 2.114974861910923e-15
  endloop
endfacet
facet normal 0.0 0.0 -1.0
  outer loop
    vertex 21.439339828220174 65.06066017177982 2.114974861910923e-15
    vertex 5.639932965095795e-15 65.99999999999999 0.0
    vertex 21.75 65.29903810567666 2.114974861910923e-15
  endloop
endfacet
facet normal 0.0 0.0 -1.0
  outer loop
    vertex 21.75 65.29903810567666 2.114974861910923e-15
    vertex 5.639932965095795e-15 65.99999999999999 0.0
    vertex 22.11177143234622 65.4488887394336 2.114974861910923e-15
  endloop
endfacet
facet normal 0.0 0.0 -1.0
  outer loop
    vertex 22.11177143234622 65.4488887394336 2.114974861910923e-15
    vertex 5.639932965095795e-15 65.99999999999999 0.0
    vertex 22.499999999999996 65.5 2.114974861910923e-15
  endloop
endfacet
facet normal 0.0 0.0 -1.0
  outer loop
    vertex 22.499999999999996 65.5 2.114974861910923e-15
    vertex 5.639932965095795e-15 65.99999999999999 0.0
    vertex 45.0 65.99999999999999 0.0
  endloop
endfacet
facet normal 0.0 0.0 -1.0
  outer loop
    vertex 5.639932965095795e-15 30.000000000000007 0.0
    vertex 21.20096189432334 64.75 2.114974861910923e-15
    vertex 21.051111260566397 64.38822856765377 2.114974861910923e-15
  endloop
endfacet
facet normal 0.0 0.0 -1.0
  outer loop
    vertex 5.639932965095795e-15 30.000000000000007 0.0
    vertex 21.051111260566397 64.38822856765377 2.114974861910923e-15
    vertex 15.0 30.000000000000007 0.0
  endloop
endfacet
facet normal 0.0 0.0 -1.0
  outer loop
    vertex 15.0 30.000000000000007 0.0
    vertex 21.051111260566397 64.38822856765377 2.114974861910923e-15
    vertex 18.500000000000007 48.5 0.0
  endloop
endfacet
facet normal 0.0 0.0 -1.0
  outer loop
    vertex 15.0 30.000000000000007 0.0
    vertex 18.500000000000007 48.5 0.0
    vertex 15.0 0.0 0.0
  endloop
endfacet
facet normal 0.0 0.0 -1.0
  outer loop
    vertex 18.500000000000007 48.5 0.0
    vertex 21.051111260566397 64.38822856765377 2.114974861910923e-15
    vertex 21.000000000000004 63.99999999999999 2.114974861910923e-15
  endloop
endfacet
facet normal 0.0 0.0 -1.0
  outer loop
    vertex 22.499999999999996 65.5 2.114974861910923e-15
    vertex 45.0 65.99999999999999 0.0
    vertex 22.888228567653783 65.4488887394336 2.114974861910923e-15
  endloop
endfacet
facet normal 0.0 0.0 -1.0
  outer loop
    vertex 22.888228567653783 65.4488887394336 2.114974861910923e-15
    vertex 45.0 65.99999999999999 0.0
    vertex 23.249999999999993 65.29903810567666 2.114974861910923e-15
  endloop
endfacet
facet normal 0.0 0.0 -1.0
  outer loop
    vertex 23.249999999999993 65.29903810567666 2.114974861910923e-15
    vertex 45.0 65.99999999999999 0.0
    vertex 23.56066017177982 65.06066017177982 2.114974861910923e-15
  endloop
endfacet
facet normal 0.0 0.0 -1.0
  outer loop
    vertex 23.56066017177982 65.06066017177982 2.114974861910923e-15
    vertex 45.0 65.99999999999999 0.0
    vertex 23.799038105676658 64.75 2.114974861910923e-15
  endloop
endfacet
facet normal 0.0 0.0 -1.0
  outer loop
    vertex 23.799038105676658 64.75 2.114974861910923e-15
    vertex 45.0 65.99999999999999 0.0
    vertex 23.948888739433595 64.38822856765377 2.114974861910923e-15
  endloop
endfacet
facet normal 0.0 0.0 -1.0
  outer loop
    vertex 23.948888739433595 64.38822856765377 2.114974861910923e-15
    vertex 45.0 65.99999999999999 0.0
    vertex 24.0 63.99999999999999 2.114974861910923e-15
  endloop
endfacet
facet normal 0.0 0.0 -1.0
  outer loop
    vertex 24.0 63.99999999999999 2.114974861910923e-15
    vertex 45.0 65.99999999999999 0.0
    vertex 26.500000000000018 48.5 0.0
  endloop
endfacet
facet normal 0.0 0.0 -1.0
  outer loop
    vertex 26.500000000000018 48.5 0.0
    vertex 45.0 65.99999999999999 0.0
    vertex 26.500000000000018 42.5 0.0
  endloop
endfacet
facet normal 0.0 0.0 -1.0
  outer loop
    vertex 26.500000000000018 42.5 0.0
    vertex 45.0 65.99999999999999 0.0
    vertex 30.0 30.000000000000007 0.0
  endloop
endfacet
facet normal 0.0 0.0 -1.0
  outer loop
    vertex 30.0 30.000000000000007 0.0
    vertex 45.0 65.99999999999999 0.0
    vertex 45.0 30.000000000000007 0.0
  endloop
endfacet
facet normal 0.0 0.0 -1.0
  outer loop
    vertex 15.0 0.0 0.0
    vertex 18.500000000000007 42.5 0.0
    vertex 30.0 7.049916206369744e-15 0.0
  endloop
endfacet
facet normal 0.0 0.0 -1.0
  outer loop
    vertex 18.500000000000007 42.5 0.0
    vertex 15.0 0.0 0.0
    vertex 18.500000000000007 48.5 0.0
  endloop
endfacet
facet normal 0.0 0.0 -1.0
  outer loop
    vertex 30.0 7.049916206369744e-15 0.0
    vertex 18.500000000000007 42.5 0.0
    vertex 26.500000000000018 42.5 0.0
  endloop
endfacet
facet normal 0.0 0.0 -1.0
  outer loop
    vertex 30.0 7.049916206369744e-15 0.0
    vertex 26.500000000000018 42.5 0.0
    vertex 30.0 30.000000000000007 0.0
  endloop
endfacet
facet normal 0.0 0.0 -1.0
  outer loop
    vertex 18.500000000000007 48.5 0.0
    vertex 21.051111260566397 63.61177143234622 2.114974861910923e-15
    vertex 26.500000000000018 48.5 0.0
  endloop
endfacet
facet normal 0.0 0.0 -1.0
  outer loop
    vertex 21.051111260566397 63.61177143234622 2.114974861910923e-15
    vertex 18.500000000000007 48.5 0.0
    vertex 21.000000000000004 63.99999999999999 2.114974861910923e-15
  endloop
endfacet
facet normal 0.0 0.0 -1.0
  outer loop
    vertex 26.500000000000018 48.5 0.0
    vertex 21.051111260566397 63.61177143234622 2.114974861910923e-15
    vertex 21.20096189432334 63.25 2.114974861910923e-15
  endloop
endfacet
facet normal 0.0 0.0 -1.0
  outer loop
    vertex 26.500000000000018 48.5 0.0
    vertex 21.20096189432334 63.25 2.114974861910923e-15
    vertex 21.439339828220174 62.93933982822017 2.114974861910923e-15
  endloop
endfacet
facet normal 0.0 0.0 -1.0
  outer loop
    vertex 26.500000000000018 48.5 0.0
    vertex 21.439339828220174 62.93933982822017 2.114974861910923e-15
    vertex 21.75 62.700961894323335 2.114974861910923e-15
  endloop
endfacet
facet normal 0.0 0.0 -1.0
  outer loop
    vertex 26.500000000000018 48.5 0.0
    vertex 21.75 62.700961894323335 2.114974861910923e-15
    vertex 22.11177143234622 62.551111260566394 2.114974861910923e-15
  endloop
endfacet
facet normal 0.0 0.0 -1.0
  outer loop
    vertex 26.500000000000018 48.5 0.0
    vertex 22.11177143234622 62.551111260566394 2.114974861910923e-15
    vertex 22.499999999999996 62.499999999999986 2.114974861910923e-15
  endloop
endfacet
facet normal 0.0 0.0 -1.0
  outer loop
    vertex 26.500000000000018 48.5 0.0
    vertex 22.499999999999996 62.499999999999986 2.114974861910923e-15
    vertex 22.888228567653783 62.551111260566394 2.114974861910923e-15
  endloop
endfacet
facet normal 0.0 0.0 -1.0
  outer loop
    vertex 26.500000000000018 48.5 0.0
    vertex 22.888228567653783 62.551111260566394 2.114974861910923e-15
    vertex 23.250000000000007 62.700961894323335 2.114974861910923e-15
  endloop
endfacet
facet normal 0.0 0.0 -1.0
  outer loop
    vertex 26.500000000000018 48.5 0.0
    vertex 23.250000000000007 62.700961894323335 2.114974861910923e-15
    vertex 23.56066017177982 62.93933982822017 2.114974861910923e-15
  endloop
endfacet
facet normal 0.0 0.0 -1.0
  outer loop
    vertex 26.500000000000018 48.5 0.0
    vertex 23.56066017177982 62.93933982822017 2.114974861910923e-15
    vertex 23.799038105676658 63.25 2.114974861910923e-15
  endloop
endfacet
facet normal 0.0 0.0 -1.0
  outer loop
    vertex 26.500000000000018 48.5 0.0
    vertex 23.799038105676658 63.25 2.114974861910923e-15
    vertex 23.948888739433606 63.61177143234622 2.114974861910923e-15
  endloop
endfacet
facet normal 0.0 0.0 -1.0
  outer loop
    vertex 26.500000000000018 48.5 0.0
    vertex 23.948888739433606 63.61177143234622 2.114974861910923e-15
    vertex 24.0 63.99999999999999 2.114974861910923e-15
  endloop
endfacet
facet normal -0.0 -0.0 1.0
  outer loop
    vertex 30.0 7.049916206369744e-15 0.9999999999999999
    vertex 15.0 30.000000000000007 0.9999999999999999
    vertex 15.0 0.0 0.9999999999999999
  endloop
endfacet
facet normal -0.0 -0.0 1.0
  outer loop
    vertex 12.500000000000005 54.5 0.9999999999999999
    vertex 21.051111260566397 63.61177143234622 0.9999999999999999
    vertex 21.000000000000004 63.99999999999999 0.9999999999999999
  endloop
endfacet
facet normal -0.0 -0.0 1.0
  outer loop
    vertex 21.051111260566397 63.61177143234622 0.9999999999999999
    vertex 12.500000000000005 54.5 0.9999999999999999
    vertex 21.20096189432334 63.25 0.9999999999999999
  endloop
endfacet
facet normal -0.0 -0.0 1.0
  outer loop
    vertex 21.20096189432334 63.25 0.9999999999999999
    vertex 12.500000000000005 54.5 0.9999999999999999
    vertex 21.439339828220174 62.93933982822017 0.9999999999999999
  endloop
endfacet
facet normal -0.0 -0.0 1.0
  outer loop
    vertex 21.439339828220174 62.93933982822017 0.9999999999999999
    vertex 12.500000000000005 54.5 0.9999999999999999
    vertex 21.75 62.700961894323335 0.9999999999999999
  endloop
endfacet
facet normal -0.0 -0.0 1.0
  outer loop
    vertex 21.75 62.700961894323335 0.9999999999999999
    vertex 12.500000000000005 54.5 0.9999999999999999
    vertex 32.50000000000002 54.5 0.9999999999999999
  endloop
endfacet
facet normal -0.0 -0.0 1.0
  outer loop
    vertex 21.75 62.700961894323335 0.9999999999999999
    vertex 32.50000000000002 54.5 0.9999999999999999
    vertex 22.11177143234622 62.551111260566394 0.9999999999999999
  endloop
endfacet
facet normal -0.0 -0.0 1.0
  outer loop
    vertex 22.11177143234622 62.551111260566394 0.9999999999999999
    vertex 32.50000000000002 54.5 0.9999999999999999
    vertex 22.499999999999996 62.499999999999986 0.9999999999999999
  endloop
endfacet
facet normal -0.0 -0.0 1.0
  outer loop
    vertex 22.499999999999996 62.499999999999986 0.9999999999999999
    vertex 32.50000000000002 54.5 0.9999999999999999
    vertex 22.888228567653783 62.551111260566394 0.9999999999999999
  endloop
endfacet
facet normal -0.0 -0.0 1.0
  outer loop
    vertex 22.888228567653783 62.551111260566394 0.9999999999999999
    vertex 32.50000000000002 54.5 0.9999999999999999
    vertex 23.250000000000007 62.700961894323335 0.9999999999999999
  endloop
endfacet
facet normal -0.0 -0.0 1.0
  outer loop
    vertex 23.250000000000007 62.700961894323335 0.9999999999999999
    vertex 32.50000000000002 54.5 0.9999999999999999
    vertex 23.56066017177982 62.93933982822017 0.9999999999999999
  endloop
endfacet
facet normal -0.0 -0.0 1.0
  outer loop
    vertex 23.56066017177982 62.93933982822017 0.9999999999999999
    vertex 32.50000000000002 54.5 0.9999999999999999
    vertex 23.799038105676658 63.25 0.9999999999999999
  endloop
endfacet
facet normal -0.0 -0.0 1.0
  outer loop
    vertex 23.799038105676658 63.25 0.9999999999999999
    vertex 32.50000000000002 54.5 0.9999999999999999
    vertex 23.948888739433606 63.61177143234622 0.9999999999999999
  endloop
endfacet
facet normal -0.0 -0.0 1.0
  outer loop
    vertex 23.948888739433606 63.61177143234622 0.9999999999999999
    vertex 32.50000000000002 54.5 0.9999999999999999
    vertex 24.0 63.99999999999999 0.9999999999999999
  endloop
endfacet
facet normal -0.0 -0.0 1.0
  outer loop
    vertex 15.0 30.000000000000007 0.9999999999999999
    vertex 5.639932965095795e-15 65.99999999999999 0.9999999999999999
    vertex 5.639932965095795e-15 30.000000000000007 0.9999999999999999
  endloop
endfacet
facet normal -0.0 -0.0 1.0
  outer loop
    vertex 5.639932965095795e-15 65.99999999999999 0.9999999999999999
    vertex 15.0 30.000000000000007 0.9999999999999999
    vertex 12.500000000000005 36.5 0.9999999999999999
  endloop
endfacet
facet normal -0.0 -0.0 1.0
  outer loop
    vertex 12.500000000000005 36.5 0.9999999999999999
    vertex 15.0 30.000000000000007 0.9999999999999999
    vertex 32.50000000000002 36.5 0.9999999999999999
  endloop
endfacet
facet normal -0.0 -0.0 1.0
  outer loop
    vertex 32.50000000000002 36.5 0.9999999999999999
    vertex 15.0 30.000000000000007 0.9999999999999999
    vertex 30.0 30.000000000000007 0.9999999999999999
  endloop
endfacet
facet normal -0.0 -0.0 1.0
  outer loop
    vertex 30.0 30.000000000000007 0.9999999999999999
    vertex 15.0 30.000000000000007 0.9999999999999999
    vertex 30.0 7.049916206369744e-15 0.9999999999999999
  endloop
endfacet
facet normal -0.0 -0.0 1.0
  outer loop
    vertex 32.50000000000002 36.5 0.9999999999999999
    vertex 30.0 30.000000000000007 0.9999999999999999
    vertex 45.0 30.000000000000007 0.9999999999999999
  endloop
endfacet
facet normal -0.0 -0.0 1.0
  outer loop
    vertex 32.50000000000002 36.5 0.9999999999999999
    vertex 45.0 30.000000000000007 0.9999999999999999
    vertex 32.50000000000002 54.5 0.9999999999999999
  endloop
endfacet
facet normal -0.0 -0.0 1.0
  outer loop
    vertex 5.639932965095795e-15 65.99999999999999 0.9999999999999999
    vertex 22.499999999999996 65.5 0.9999999999999999
    vertex 45.0 65.99999999999999 0.9999999999999999
  endloop
endfacet
facet normal -0.0 -0.0 1.0
  outer loop
    vertex 22.499999999999996 65.5 0.9999999999999999
    vertex 5.639932965095795e-15 65.99999999999999 0.9999999999999999
    vertex 22.11177143234622 65.4488887394336 0.9999999999999999
  endloop
endfacet
facet normal -0.0 -0.0 1.0
  outer loop
    vertex 22.11177143234622 65.4488887394336 0.9999999999999999
    vertex 5.639932965095795e-15 65.99999999999999 0.9999999999999999
    vertex 21.75 65.29903810567666 0.9999999999999999
  endloop
endfacet
facet normal -0.0 -0.0 1.0
  outer loop
    vertex 21.75 65.29903810567666 0.9999999999999999
    vertex 5.639932965095795e-15 65.99999999999999 0.9999999999999999
    vertex 21.439339828220174 65.06066017177982 0.9999999999999999
  endloop
endfacet
facet normal -0.0 -0.0 1.0
  outer loop
    vertex 21.439339828220174 65.06066017177982 0.9999999999999999
    vertex 5.639932965095795e-15 65.99999999999999 0.9999999999999999
    vertex 12.500000000000005 54.5 0.9999999999999999
  endloop
endfacet
facet normal -0.0 -0.0 1.0
  outer loop
    vertex 12.500000000000005 54.5 0.9999999999999999
    vertex 5.639932965095795e-15 65.99999999999999 0.9999999999999999
    vertex 12.500000000000005 36.5 0.9999999999999999
  endloop
endfacet
facet normal -0.0 -0.0 1.0
  outer loop
    vertex 21.439339828220174 65.06066017177982 0.9999999999999999
    vertex 12.500000000000005 54.5 0.9999999999999999
    vertex 21.20096189432334 64.75 0.9999999999999999
  endloop
endfacet
facet normal -0.0 -0.0 1.0
  outer loop
    vertex 21.20096189432334 64.75 0.9999999999999999
    vertex 12.500000000000005 54.5 0.9999999999999999
    vertex 21.051111260566397 64.38822856765377 0.9999999999999999
  endloop
endfacet
facet normal -0.0 -0.0 1.0
  outer loop
    vertex 21.051111260566397 64.38822856765377 0.9999999999999999
    vertex 12.500000000000005 54.5 0.9999999999999999
    vertex 21.000000000000004 63.99999999999999 0.9999999999999999
  endloop
endfacet
facet normal -0.0 -0.0 1.0
  outer loop
    vertex 45.0 65.99999999999999 0.9999999999999999
    vertex 22.499999999999996 65.5 0.9999999999999999
    vertex 22.888228567653783 65.4488887394336 0.9999999999999999
  endloop
endfacet
facet normal -0.0 -0.0 1.0
  outer loop
    vertex 45.0 65.99999999999999 0.9999999999999999
    vertex 22.888228567653783 65.4488887394336 0.9999999999999999
    vertex 23.249999999999993 65.29903810567666 0.9999999999999999
  endloop
endfacet
facet normal -0.0 -0.0 1.0
  outer loop
    vertex 45.0 65.99999999999999 0.9999999999999999
    vertex 23.249999999999993 65.29903810567666 0.9999999999999999
    vertex 23.56066017177982 65.06066017177982 0.9999999999999999
  endloop
endfacet
facet normal -0.0 -0.0 1.0
  outer loop
    vertex 45.0 65.99999999999999 0.9999999999999999
    vertex 23.56066017177982 65.06066017177982 0.9999999999999999
    vertex 23.799038105676658 64.75 0.9999999999999999
  endloop
endfacet
facet normal -0.0 -0.0 1.0
  outer loop
    vertex 45.0 65.99999999999999 0.9999999999999999
    vertex 23.799038105676658 64.75 0.9999999999999999
    vertex 23.948888739433595 64.38822856765377 0.9999999999999999
  endloop
endfacet
facet normal -0.0 -0.0 1.0
  outer loop
    vertex 45.0 65.99999999999999 0.9999999999999999
    vertex 23.948888739433595 64.38822856765377 0.9999999999999999
    vertex 24.0 63.99999999999999 0.9999999999999999
  endloop
endfacet
facet normal -0.0 -0.0 1.0
  outer loop
    vertex 45.0 65.99999999999999 0.9999999999999999
    vertex 24.0 63.99999999999999 0.9999999999999999
    vertex 32.50000000000002 54.5 0.9999999999999999
  endloop
endfacet
facet normal -0.0 -0.0 1.0
  outer loop
    vertex 45.0 65.99999999999999 0.9999999999999999
    vertex 32.50000000000002 54.5 0.9999999999999999
    vertex 45.0 30.000000000000007 0.9999999999999999
  endloop
endfacet
facet normal 0.0 1.0 0.0
  outer loop
    vertex 5.639932965095795e-15 65.99999999999999 0.9999999999999999
    vertex 45.0 65.99999999999999 0.0
    vertex 5.639932965095795e-15 65.99999999999999 0.0
  endloop
endfacet
facet normal 0.0 1.0 0.0
  outer loop
    vertex 45.0 65.99999999999999 0.0
    vertex 5.639932965095795e-15 65.99999999999999 0.9999999999999999
    vertex 45.0 65.99999999999999 0.9999999999999999
  endloop
endfacet
facet normal -1.0 0.0 0.0
  outer loop
    vertex 5.639932965095795e-15 65.99999999999999 0.9999999999999999
    vertex 5.639932965095795e-15 30.000000000000007 0.0
    vertex 5.639932965095795e-15 30.000000000000007 0.9999999999999999
  endloop
endfacet
facet normal -1.0 0.0 0.0
  outer loop
    vertex 5.639932965095795e-15 30.000000000000007 0.0
    vertex 5.639932965095795e-15 65.99999999999999 0.9999999999999999
    vertex 5.639932965095795e-15 65.99999999999999 0.0
  endloop
endfacet
facet normal 0.0 -1.0 0.0
  outer loop
    vertex 15.0 30.000000000000007 0.9999999999999999
    vertex 5.639932965095795e-15 30.000000000000007 0.0
    vertex 15.0 30.000000000000007 0.0
  endloop
endfacet
facet normal 0.0 -1.0 0.0
  outer loop
    vertex 5.639932965095795e-15 30.000000000000007 0.0
    vertex 15.0 30.000000000000007 0.9999999999999999
    vertex 5.639932965095795e-15 30.000000000000007 0.9999999999999999
  endloop
endfacet
facet normal -1.0 0.0 0.0
  outer loop
    vertex 15.0 30.000000000000007 0.9999999999999999
    vertex 15.0 0.0 0.0
    vertex 15.0 0.0 0.9999999999999999
  endloop
endfacet
facet normal -1.0 0.0 0.0
  outer loop
    vertex 15.0 0.0 0.0
    vertex 15.0 30.000000000000007 0.9999999999999999
    vertex 15.0 30.000000000000007 0.0
  endloop
endfacet
facet normal 4.699944137579828e-16 -1.0 0.0
  outer loop
    vertex 30.0 7.049916206369744e-15 0.9999999999999999
    vertex 15.0 0.0 0.0
    vertex 30.0 7.049916206369744e-15 0.0
  endloop
endfacet
facet normal 4.699944137579828e-16 -1.0 0.0
  outer loop
    vertex 15.0 0.0 0.0
    vertex 30.0 7.049916206369744e-15 0.9999999999999999
    vertex 15.0 0.0 0.9999999999999999
  endloop
endfacet
facet normal 1.0 -0.0 -0.0
  outer loop
    vertex 30.0 30.000000000000007 0.0
    vertex 30.0 7.049916206369744e-15 0.9999999999999999
    vertex 30.0 7.049916206369744e-15 0.0
  endloop
endfacet
facet normal 1.0 -0.0 -0.0
  outer loop
    vertex 30.0 7.049916206369744e-15 0.9999999999999999
    vertex 30.0 30.000000000000007 0.0
    vertex 30.0 30.000000000000007 0.9999999999999999
  endloop
endfacet
facet normal 0.0 -1.0 0.0
  outer loop
    vertex 45.0 30.000000000000007 0.9999999999999999
    vertex 30.0 30.000000000000007 0.0
    vertex 45.0 30.000000000000007 0.0
  endloop
endfacet
facet normal 0.0 -1.0 0.0
  outer loop
    vertex 30.0 30.000000000000007 0.0
    vertex 45.0 30.000000000000007 0.9999999999999999
    vertex 30.0 30.000000000000007 0.9999999999999999
  endloop
endfacet
facet normal 1.0 -0.0 -0.0
  outer loop
    vertex 45.0 65.99999999999999 0.0
    vertex 45.0 30.000000000000007 0.9999999999999999
    vertex 45.0 30.000000000000007 0.0
  endloop
endfacet
facet normal 1.0 -0.0 -0.0
  outer loop
    vertex 45.0 30.000000000000007 0.9999999999999999
    vertex 45.0 65.99999999999999 0.0
    vertex 45.0 65.99999999999999 0.9999999999999999
  endloop
endfacet
facet normal -1.0 0.0 0.0
  outer loop
    vertex 26.500000000000018 48.5 0.9999999999999999
    vertex 26.500000000000018 42.5 0.0
    vertex 26.500000000000018 42.5 0.9999999999999999
  endloop
endfacet
facet normal -1.0 0.0 0.0
  outer loop
    vertex 26.500000000000018 42.5 0.0
    vertex 26.500000000000018 48.5 0.9999999999999999
    vertex 26.500000000000018 48.5 0.0
  endloop
endfacet
facet normal -0.0 1.0 -0.0
  outer loop
    vertex 18.500000000000007 42.5 0.9999999999999999
    vertex 26.500000000000018 42.5 0.0
    vertex 18.500000000000007 42.5 0.0
  endloop
endfacet
facet normal -0.0 1.0 -0.0
  outer loop
    vertex 26.500000000000018 42.5 0.0
    vertex 18.500000000000007 42.5 0.9999999999999999
    vertex 26.500000000000018 42.5 0.9999999999999999
  endloop
endfacet
facet normal 1.0 -0.0 -0.0
  outer loop
    vertex 18.500000000000007 48.5 0.0
    vertex 18.500000000000007 42.5 0.9999999999999999
    vertex 18.500000000000007 42.5 0.0
  endloop
endfacet
facet normal 1.0 -0.0 -0.0
  outer loop
    vertex 18.500000000000007 42.5 0.9999999999999999
    vertex 18.500000000000007 48.5 0.0
    vertex 18.500000000000007 48.5 0.9999999999999999
  endloop
endfacet
facet normal 0.0 -1.0 0.0
  outer loop
    vertex 26.500000000000018 48.5 0.9999999999999999
    vertex 18.500000000000007 48.5 0.0
    vertex 26.500000000000018 48.5 0.0
  endloop
endfacet
facet normal 0.0 -1.0 0.0
  outer loop
    vertex 18.500000000000007 48.5 0.0
    vertex 26.500000000000018 48.5 0.9999999999999999
    vertex 18.500000000000007 48.5 0.9999999999999999
  endloop
endfacet
facet normal -0.0 -0.0 1.0
  outer loop
    vertex 17.500000000000004 41.5 0.9999999999999999
    vertex 18.500000000000007 42.5 0.9999999999999999
    vertex 17.500000000000004 49.5 0.9999999999999999
  endloop
endfacet
facet normal -0.0 -0.0 1.0
  outer loop
    vertex 18.500000000000007 42.5 0.9999999999999999
    vertex 17.500000000000004 41.5 0.9999999999999999
    vertex 27.500000000000018 41.5 0.9999999999999999
  endloop
endfacet
facet normal -0.0 -0.0 1.0
  outer loop
    vertex 18.500000000000007 42.5 0.9999999999999999
    vertex 27.500000000000018 41.5 0.9999999999999999
    vertex 26.500000000000018 42.5 0.9999999999999999
  endloop
endfacet
facet normal -0.0 -0.0 1.0
  outer loop
    vertex 26.500000000000018 42.5 0.9999999999999999
    vertex 27.500000000000018 41.5 0.9999999999999999
    vertex 26.500000000000018 48.5 0.9999999999999999
  endloop
endfacet
facet normal -0.0 -0.0 1.0
  outer loop
    vertex 17.500000000000004 49.5 0.9999999999999999
    vertex 18.500000000000007 48.5 0.9999999999999999
    vertex 27.500000000000018 49.5 0.9999999999999999
  endloop
endfacet
facet normal -0.0 -0.0 1.0
  outer loop
    vertex 18.500000000000007 48.5 0.9999999999999999
    vertex 17.500000000000004 49.5 0.9999999999999999
    vertex 18.500000000000007 42.5 0.9999999999999999
  endloop
endfacet
facet normal -0.0 -0.0 1.0
  outer loop
    vertex 27.500000000000018 49.5 0.9999999999999999
    vertex 18.500000000000007 48.5 0.9999999999999999
    vertex 26.500000000000018 48.5 0.9999999999999999
  endloop
endfacet
facet normal -0.0 -0.0 1.0
  outer loop
    vertex 27.500000000000018 49.5 0.9999999999999999
    vertex 26.500000000000018 48.5 0.9999999999999999
    vertex 27.500000000000018 41.5 0.9999999999999999
  endloop
endfacet
facet normal 0.0 -1.0 0.0
  outer loop
    vertex 27.500000000000018 49.5 16.0
    vertex 17.500000000000004 49.5 0.9999999999999999
    vertex 27.500000000000018 49.5 0.9999999999999999
  endloop
endfacet
facet normal 0.0 -1.0 0.0
  outer loop
    vertex 17.500000000000004 49.5 0.9999999999999999
    vertex 27.500000000000018 49.5 16.0
    vertex 17.500000000000004 49.5 16.0
  endloop
endfacet
facet normal -1.0 0.0 0.0
  outer loop
    vertex 27.500000000000018 49.5 16.0
    vertex 27.500000000000018 41.5 0.9999999999999999
    vertex 27.500000000000018 41.5 16.0
  endloop
endfacet
facet normal -1.0 0.0 0.0
  outer loop
    vertex 27.500000000000018 41.5 0.9999999999999999
    vertex 27.500000000000018 49.5 16.0
    vertex 27.500000000000018 49.5 0.9999999999999999
  endloop
endfacet
facet normal -0.0 1.0 -0.0
  outer loop
    vertex 17.500000000000004 41.5 16.0
    vertex 27.500000000000018 41.5 0.9999999999999999
    vertex 17.500000000000004 41.5 0.9999999999999999
  endloop
endfacet
facet normal -0.0 1.0 -0.0
  outer loop
    vertex 27.500000000000018 41.5 0.9999999999999999
    vertex 17.500000000000004 41.5 16.0
    vertex 27.500000000000018 41.5 16.0
  endloop
endfacet
facet normal 1.0 -0.0 -0.0
  outer loop
    vertex 17.500000000000004 49.5 0.9999999999999999
    vertex 17.500000000000004 41.5 16.0
    vertex 17.500000000000004 41.5 0.9999999999999999
  endloop
endfacet
facet normal 1.0 -0.0 -0.0
  outer loop
    vertex 17.500000000000004 41.5 16.0
    vertex 17.500000000000004 49.5 0.9999999999999999
    vertex 17.500000000000004 49.5 16.0
  endloop
endfacet
facet normal -0.0 -0.0 1.0
  outer loop
    vertex 15.500000000000005 39.5 16.0
    vertex 17.500000000000004 41.5 16.0
    vertex 15.500000000000005 51.49999999999999 16.0
  endloop
endfacet
facet normal -0.0 -0.0 1.0
  outer loop
    vertex 17.500000000000004 41.5 16.0
    vertex 15.500000000000005 39.5 16.0
    vertex 29.500000000000014 39.5 16.0
  endloop
endfacet
facet normal -0.0 -0.0 1.0
  outer loop
    vertex 17.500000000000004 41.5 16.0
    vertex 29.500000000000014 39.5 16.0
    vertex 27.500000000000018 41.5 16.0
  endloop
endfacet
facet normal -0.0 -0.0 1.0
  outer loop
    vertex 27.500000000000018 41.5 16.0
    vertex 29.500000000000014 39.5 16.0
    vertex 27.500000000000018 49.5 16.0
  endloop
endfacet
facet normal -0.0 -0.0 1.0
  outer loop
    vertex 15.500000000000005 51.49999999999999 16.0
    vertex 17.500000000000004 49.5 16.0
    vertex 29.500000000000014 51.49999999999999 16.0
  endloop
endfacet
facet normal -0.0 -0.0 1.0
  outer loop
    vertex 17.500000000000004 49.5 16.0
    vertex 15.500000000000005 51.49999999999999 16.0
    vertex 17.500000000000004 41.5 16.0
  endloop
endfacet
facet normal -0.0 -0.0 1.0
  outer loop
    vertex 29.500000000000014 51.49999999999999 16.0
    vertex 17.500000000000004 49.5 16.0
    vertex 27.500000000000018 49.5 16.0
  endloop
endfacet
facet normal -0.0 -0.0 1.0
  outer loop
    vertex 29.500000000000014 51.49999999999999 16.0
    vertex 27.500000000000018 49.5 16.0
    vertex 29.500000000000014 39.5 16.0
  endloop
endfacet
facet normal -5.892298475471091e-18 0.9805806756909201 0.19611613513818432
  outer loop
    vertex 15.500000000000005 51.49999999999999 16.0
    vertex 32.50000000000002 54.5 0.9999999999999999
    vertex 12.500000000000005 54.5 0.9999999999999999
  endloop
endfacet
facet normal -5.892298475471091e-18 0.9805806756909201 0.19611613513818432
  outer loop
    vertex 32.50000000000002 54.5 0.9999999999999999
    vertex 15.500000000000005 51.49999999999999 16.0
    vertex 29.500000000000014 51.49999999999999 16.0
  endloop
endfacet
facet normal -0.9805806756909201 4.6899170557970795e-18 0.196116135138184
  outer loop
    vertex 15.500000000000005 39.5 16.0
    vertex 12.500000000000005 54.5 0.9999999999999999
    vertex 12.500000000000005 36.5 0.9999999999999999
  endloop
endfacet
facet normal -0.9805806756909201 4.6899170557970795e-18 0.196116135138184
  outer loop
    vertex 12.500000000000005 54.5 0.9999999999999999
    vertex 15.500000000000005 39.5 16.0
    vertex 15.500000000000005 51.49999999999999 16.0
  endloop
endfacet
facet normal 7.365373094339076e-18 -0.9805806756909201 0.19611613513818396
  outer loop
    vertex 29.500000000000014 39.5 16.0
    vertex 12.500000000000005 36.5 0.9999999999999999
    vertex 32.50000000000002 36.5 0.9999999999999999
  endloop
endfacet
facet normal 7.365373094339076e-18 -0.9805806756909201 0.19611613513818396
  outer loop
    vertex 12.500000000000005 36.5 0.9999999999999999
    vertex 29.500000000000014 39.5 16.0
    vertex 15.500000000000005 39.5 16.0
  endloop
endfacet
facet normal 0.9805806756909201 4.689917055797127e-18 0.19611613513818427
  outer loop
    vertex 32.50000000000002 54.5 0.9999999999999999
    vertex 29.500000000000014 39.5 16.0
    vertex 32.50000000000002 36.5 0.9999999999999999
  endloop
endfacet
facet normal 0.9805806756909201 4.689917055797127e-18 0.19611613513818427
  outer loop
    vertex 29.500000000000014 39.5 16.0
    vertex 32.50000000000002 54.5 0.9999999999999999
    vertex 29.500000000000014 51.49999999999999 16.0
  endloop
endfacet
facet normal -0.9238795325112829 0.3826834323650993 -0.0
  outer loop
    vertex 23.948888739433606 63.61177143234622 0.9999999999999999
    vertex 23.799038105676658 63.25 2.114974861910923e-15
    vertex 23.799038105676658 63.25 0.9999999999999999
  endloop
endfacet
facet normal -0.9238795325112829 0.3826834323650993 -0.0
  outer loop
    vertex 23.799038105676658 63.25 2.114974861910923e-15
    vertex 23.948888739433606 63.61177143234622 0.9999999999999999
    vertex 23.948888739433606 63.61177143234622 2.114974861910923e-15
  endloop
endfacet
facet normal -0.9914448613738122 0.13052619222003845 -0.0
  outer loop
    vertex 24.0 63.99999999999999 0.9999999999999999
    vertex 23.948888739433606 63.61177143234622 2.114974861910923e-15
    vertex 23.948888739433606 63.61177143234622 0.9999999999999999
  endloop
endfacet
facet normal -0.9914448613738122 0.13052619222003845 -0.0
  outer loop
    vertex 23.948888739433606 63.61177143234622 2.114974861910923e-15
    vertex 24.0 63.99999999999999 0.9999999999999999
    vertex 24.0 63.99999999999999 2.114974861910923e-15
  endloop
endfacet
facet normal -0.9914448613738085 -0.13052619222006678 -0.0
  outer loop
    vertex 23.948888739433595 64.38822856765377 0.9999999999999999
    vertex 24.0 63.99999999999999 2.114974861910923e-15
    vertex 24.0 63.99999999999999 0.9999999999999999
  endloop
endfacet
facet normal -0.9914448613738085 -0.13052619222006678 -0.0
  outer loop
    vertex 24.0 63.99999999999999 2.114974861910923e-15
    vertex 23.948888739433595 64.38822856765377 0.9999999999999999
    vertex 23.948888739433595 64.38822856765377 2.114974861910923e-15
  endloop
endfacet
facet normal -0.9238795325112932 -0.3826834323650748 -0.0
  outer loop
    vertex 23.799038105676658 64.75 0.9999999999999999
    vertex 23.948888739433595 64.38822856765377 2.114974861910923e-15
    vertex 23.948888739433595 64.38822856765377 0.9999999999999999
  endloop
endfacet
facet normal -0.9238795325112932 -0.3826834323650748 -0.0
  outer loop
    vertex 23.948888739433595 64.38822856765377 2.114974861910923e-15
    vertex 23.799038105676658 64.75 0.9999999999999999
    vertex 23.799038105676658 64.75 2.114974861910923e-15
  endloop
endfacet
facet normal -0.7933533402912378 -0.6087614290087172 -0.0
  outer loop
    vertex 23.56066017177982 65.06066017177982 0.9999999999999999
    vertex 23.799038105676658 64.75 2.114974861910923e-15
    vertex 23.799038105676658 64.75 0.9999999999999999
  endloop
endfacet
facet normal -0.7933533402912378 -0.6087614290087172 -0.0
  outer loop
    vertex 23.799038105676658 64.75 2.114974861910923e-15
    vertex 23.56066017177982 65.06066017177982 0.9999999999999999
    vertex 23.56066017177982 65.06066017177982 2.114974861910923e-15
  endloop
endfacet
facet normal -0.6087614290087172 -0.7933533402912378 -0.0
  outer loop
    vertex 23.56066017177982 65.06066017177982 0.9999999999999999
    vertex 23.249999999999993 65.29903810567666 2.114974861910923e-15
    vertex 23.56066017177982 65.06066017177982 2.114974861910923e-15
  endloop
endfacet
facet normal -0.6087614290087172 -0.7933533402912378 -0.0
  outer loop
    vertex 23.249999999999993 65.29903810567666 2.114974861910923e-15
    vertex 23.56066017177982 65.06066017177982 0.9999999999999999
    vertex 23.249999999999993 65.29903810567666 0.9999999999999999
  endloop
endfacet
facet normal -0.3826834323650885 -0.9238795325112874 -0.0
  outer loop
    vertex 23.249999999999993 65.29903810567666 0.9999999999999999
    vertex 22.888228567653783 65.4488887394336 2.114974861910923e-15
    vertex 23.249999999999993 65.29903810567666 2.114974861910923e-15
  endloop
endfacet
facet normal -0.3826834323650885 -0.9238795325112874 -0.0
  outer loop
    vertex 22.888228567653783 65.4488887394336 2.114974861910923e-15
    vertex 23.249999999999993 65.29903810567666 0.9999999999999999
    vertex 22.888228567653783 65.4488887394336 0.9999999999999999
  endloop
endfacet
facet normal -0.13052619222007106 -0.9914448613738079 -0.0
  outer loop
    vertex 22.888228567653783 65.4488887394336 0.9999999999999999
    vertex 22.499999999999996 65.5 2.114974861910923e-15
    vertex 22.888228567653783 65.4488887394336 2.114974861910923e-15
  endloop
endfacet
facet normal -0.13052619222007106 -0.9914448613738079 -0.0
  outer loop
    vertex 22.499999999999996 65.5 2.114974861910923e-15
    vertex 22.888228567653783 65.4488887394336 0.9999999999999999
    vertex 22.499999999999996 65.5 0.9999999999999999
  endloop
endfacet
facet normal 0.13052619222007478 -0.9914448613738074 -0.0
  outer loop
    vertex 22.499999999999996 65.5 0.9999999999999999
    vertex 22.11177143234622 65.4488887394336 2.114974861910923e-15
    vertex 22.499999999999996 65.5 2.114974861910923e-15
  endloop
endfacet
facet normal 0.13052619222007478 -0.9914448613738074 -0.0
  outer loop
    vertex 22.11177143234622 65.4488887394336 2.114974861910923e-15
    vertex 22.499999999999996 65.5 0.9999999999999999
    vertex 22.11177143234622 65.4488887394336 0.9999999999999999
  endloop
endfacet
facet normal 0.38268343236508073 -0.9238795325112904 -0.0
  outer loop
    vertex 22.11177143234622 65.4488887394336 0.9999999999999999
    vertex 21.75 65.29903810567666 2.114974861910923e-15
    vertex 22.11177143234622 65.4488887394336 2.114974861910923e-15
  endloop
endfacet
facet normal 0.38268343236508073 -0.9238795325112904 -0.0
  outer loop
    vertex 21.75 65.29903810567666 2.114974861910923e-15
    vertex 22.11177143234622 65.4488887394336 0.9999999999999999
    vertex 21.75 65.29903810567666 0.9999999999999999
  endloop
endfacet
facet normal 0.6087614290087172 -0.7933533402912378 -0.0
  outer loop
    vertex 21.75 65.29903810567666 0.9999999999999999
    vertex 21.439339828220174 65.06066017177982 2.114974861910923e-15
    vertex 21.75 65.29903810567666 2.114974861910923e-15
  endloop
endfacet
facet normal 0.6087614290087172 -0.7933533402912378 -0.0
  outer loop
    vertex 21.439339828220174 65.06066017177982 2.114974861910923e-15
    vertex 21.75 65.29903810567666 0.9999999999999999
    vertex 21.439339828220174 65.06066017177982 0.9999999999999999
  endloop
endfacet
facet normal 0.7933533402912378 -0.6087614290087172 -0.0
  outer loop
    vertex 21.439339828220174 65.06066017177982 2.114974861910923e-15
    vertex 21.20096189432334 64.75 0.9999999999999999
    vertex 21.20096189432334 64.75 2.114974861910923e-15
  endloop
endfacet
facet normal 0.7933533402912378 -0.6087614290087172 -0.0
  outer loop
    vertex 21.20096189432334 64.75 0.9999999999999999
    vertex 21.439339828220174 65.06066017177982 2.114974861910923e-15
    vertex 21.439339828220174 65.06066017177982 0.9999999999999999
  endloop
endfacet
facet normal 0.9238795325112932 -0.3826834323650748 -0.0
  outer loop
    vertex 21.20096189432334 64.75 2.114974861910923e-15
    vertex 21.051111260566397 64.38822856765377 0.9999999999999999
    vertex 21.051111260566397 64.38822856765377 2.114974861910923e-15
  endloop
endfacet
facet normal 0.9238795325112932 -0.3826834323650748 -0.0
  outer loop
    vertex 21.051111260566397 64.38822856765377 0.9999999999999999
    vertex 21.20096189432334 64.75 2.114974861910923e-15
    vertex 21.20096189432334 64.75 0.9999999999999999
  endloop
endfacet
facet normal 0.9914448613738113 -0.13052619222004555 -0.0
  outer loop
    vertex 21.051111260566397 64.38822856765377 2.114974861910923e-15
    vertex 21.000000000000004 63.99999999999999 0.9999999999999999
    vertex 21.000000000000004 63.99999999999999 2.114974861910923e-15
  endloop
endfacet
facet normal 0.9914448613738113 -0.13052619222004555 -0.0
  outer loop
    vertex 21.000000000000004 63.99999999999999 0.9999999999999999
    vertex 21.051111260566397 64.38822856765377 2.114974861910923e-15
    vertex 21.051111260566397 64.38822856765377 0.9999999999999999
  endloop
endfacet
facet normal 0.9914448613738113 0.13052619222004555 0.0
  outer loop
    vertex 21.000000000000004 63.99999999999999 2.114974861910923e-15
    vertex 21.051111260566397 63.61177143234622 0.9999999999999999
    vertex 21.051111260566397 63.61177143234622 2.114974861910923e-15
  endloop
endfacet
facet normal 0.9914448613738113 0.13052619222004555 0.0
  outer loop
    vertex 21.051111260566397 63.61177143234622 0.9999999999999999
    vertex 21.000000000000004 63.99999999999999 2.114974861910923e-15
    vertex 21.000000000000004 63.99999999999999 0.9999999999999999
  endloop
endfacet
facet normal 0.9238795325112932 0.3826834323650748 0.0
  outer loop
    vertex 21.051111260566397 63.61177143234622 2.114974861910923e-15
    vertex 21.20096189432334 63.25 0.9999999999999999
    vertex 21.20096189432334 63.25 2.114974861910923e-15
  endloop
endfacet
facet normal 0.9238795325112932 0.3826834323650748 0.0
  outer loop
    vertex 21.20096189432334 63.25 0.9999999999999999
    vertex 21.051111260566397 63.61177143234622 2.114974861910923e-15
    vertex 21.051111260566397 63.61177143234622 0.9999999999999999
  endloop
endfacet
facet normal 0.7933533402912378 0.6087614290087172 0.0
  outer loop
    vertex 21.20096189432334 63.25 2.114974861910923e-15
    vertex 21.439339828220174 62.93933982822017 0.9999999999999999
    vertex 21.439339828220174 62.93933982822017 2.114974861910923e-15
  endloop
endfacet
facet normal 0.7933533402912378 0.6087614290087172 0.0
  outer loop
    vertex 21.439339828220174 62.93933982822017 0.9999999999999999
    vertex 21.20096189432334 63.25 2.114974861910923e-15
    vertex 21.20096189432334 63.25 0.9999999999999999
  endloop
endfacet
facet normal 0.6087614290087172 0.7933533402912378 0.0
  outer loop
    vertex 21.439339828220174 62.93933982822017 0.9999999999999999
    vertex 21.75 62.700961894323335 2.114974861910923e-15
    vertex 21.439339828220174 62.93933982822017 2.114974861910923e-15
  endloop
endfacet
facet normal 0.6087614290087172 0.7933533402912378 0.0
  outer loop
    vertex 21.75 62.700961894323335 2.114974861910923e-15
    vertex 21.439339828220174 62.93933982822017 0.9999999999999999
    vertex 21.75 62.700961894323335 0.9999999999999999
  endloop
endfacet
facet normal 0.38268343236508073 0.9238795325112904 0.0
  outer loop
    vertex 21.75 62.700961894323335 0.9999999999999999
    vertex 22.11177143234622 62.551111260566394 2.114974861910923e-15
    vertex 21.75 62.700961894323335 2.114974861910923e-15
  endloop
endfacet
facet normal 0.38268343236508073 0.9238795325112904 0.0
  outer loop
    vertex 22.11177143234622 62.551111260566394 2.114974861910923e-15
    vertex 21.75 62.700961894323335 0.9999999999999999
    vertex 22.11177143234622 62.551111260566394 0.9999999999999999
  endloop
endfacet
facet normal 0.13052619222007478 0.9914448613738074 0.0
  outer loop
    vertex 22.11177143234622 62.551111260566394 0.9999999999999999
    vertex 22.499999999999996 62.499999999999986 2.114974861910923e-15
    vertex 22.11177143234622 62.551111260566394 2.114974861910923e-15
  endloop
endfacet
facet normal 0.13052619222007478 0.9914448613738074 0.0
  outer loop
    vertex 22.499999999999996 62.499999999999986 2.114974861910923e-15
    vertex 22.11177143234622 62.551111260566394 0.9999999999999999
    vertex 22.499999999999996 62.499999999999986 0.9999999999999999
  endloop
endfacet
facet normal -0.13052619222007106 0.9914448613738079 -0.0
  outer loop
    vertex 22.499999999999996 62.499999999999986 0.9999999999999999
    vertex 22.888228567653783 62.551111260566394 2.114974861910923e-15
    vertex 22.499999999999996 62.499999999999986 2.114974861910923e-15
  endloop
endfacet
facet normal -0.13052619222007106 0.9914448613738079 -0.0
  outer loop
    vertex 22.888228567653783 62.551111260566394 2.114974861910923e-15
    vertex 22.499999999999996 62.499999999999986 0.9999999999999999
    vertex 22.888228567653783 62.551111260566394 0.9999999999999999
  endloop
endfacet
facet normal -0.38268343236507835 0.9238795325112917 -0.0
  outer loop
    vertex 22.888228567653783 62.551111260566394 0.9999999999999999
    vertex 23.250000000000007 62.700961894323335 2.114974861910923e-15
    vertex 22.888228567653783 62.551111260566394 2.114974861910923e-15
  endloop
endfacet
facet normal -0.38268343236507835 0.9238795325112917 -0.0
  outer loop
    vertex 23.250000000000007 62.700961894323335 2.114974861910923e-15
    vertex 22.888228567653783 62.551111260566394 0.9999999999999999
    vertex 23.250000000000007 62.700961894323335 0.9999999999999999
  endloop
endfacet
facet normal -0.6087614290087312 0.7933533402912273 -0.0
  outer loop
    vertex 23.250000000000007 62.700961894323335 0.9999999999999999
    vertex 23.56066017177982 62.93933982822017 2.114974861910923e-15
    vertex 23.250000000000007 62.700961894323335 2.114974861910923e-15
  endloop
endfacet
facet normal -0.6087614290087312 0.7933533402912273 -0.0
  outer loop
    vertex 23.56066017177982 62.93933982822017 2.114974861910923e-15
    vertex 23.250000000000007 62.700961894323335 0.9999999999999999
    vertex 23.56066017177982 62.93933982822017 0.9999999999999999
  endloop
endfacet
facet normal -0.7933533402912378 0.6087614290087172 -0.0
  outer loop
    vertex 23.799038105676658 63.25 0.9999999999999999
    vertex 23.56066017177982 62.93933982822017 2.114974861910923e-15
    vertex 23.56066017177982 62.93933982822017 0.9999999999999999
  endloop
endfacet
facet normal -0.7933533402912378 0.6087614290087172 -0.0
  outer loop
    vertex 23.56066017177982 62.93933982822017 2.114974861910923e-15
    vertex 23.799038105676658 63.25 0.9999999999999999
    vertex 23.799038105676658 63.25 2.114974861910923e-15
  endloop
endfacet
endsolid UltaSonicCircuitBoardCover
