solid HandRemote-SideCover
facet normal -1.0 9.638728965363621e-10 4.321242704261301e-09
  outer loop
    vertex -3.452904516639487e-08 19.714049325342028 0.8000000000000074
    vertex 0.0 0.0 0.0
    vertex -2.566305926539835e-08 -6.920854663368825e-09 0.7999999999999996
  endloop
endfacet
facet normal -1.0 9.638728965363621e-10 4.321242704261301e-09
  outer loop
    vertex 0.0 0.0 0.0
    vertex -3.452904516639487e-08 19.714049325342028 0.8000000000000074
    vertex 1.0057856014711318e-08 21.42817535736944 2.026850909331301e-15
  endloop
endfacet
facet normal -1.0 9.638728965363621e-10 4.321242704261301e-09
  outer loop
    vertex 1.0057856014711318e-08 21.42817535736944 2.026850909331301e-15
    vertex -3.452904516639487e-08 19.714049325342028 0.8000000000000074
    vertex 2.7591246366568405e-08 20.428175350448573 1.3000537074804885
  endloop
endfacet
facet normal -1.0 9.638728965363621e-10 4.321242704261301e-09
  outer loop
    vertex 1.0057856014711318e-08 21.42817535736944 2.026850909331301e-15
    vertex 2.7591246366568405e-08 20.428175350448573 1.3000537074804885
    vertex 2.5974756979777473e-08 21.42817535044859 1.3000537074804899
  endloop
endfacet
facet normal 0.9999999999999998 1.616483746858019e-09 2.8678765850997666e-08
  outer loop
    vertex 27.250000075753565 17.000000014909833 0.8000007884991921
    vertex 27.250000048691284 16.000000014909833 1.800000788499204
    vertex 27.25000008060302 14.000000014909833 0.8000007884991964
  endloop
endfacet
facet normal 0.9999999999999998 1.616483746858019e-09 2.8678765850997666e-08
  outer loop
    vertex 27.250000048691284 16.000000014909833 1.800000788499204
    vertex 27.250000075753565 17.000000014909833 0.8000007884991921
    vertex 27.250000047074803 17.00000001490982 1.8000007884991998
  endloop
endfacet
facet normal -0.9999999999999998 -1.6164865668245054e-09 -2.8678805330528388e-08
  outer loop
    vertex 17.25000004869126 15.99999999874499 1.8000005017115344
    vertex 17.250000075753587 16.999999998744972 0.8000005017115224
    vertex 17.250000080603055 13.999999998744968 0.800000501711528
  endloop
endfacet
facet normal -0.9999999999999998 -1.6164865668245054e-09 -2.8678805330528388e-08
  outer loop
    vertex 17.250000075753587 16.999999998744972 0.8000005017115224
    vertex 17.25000004869126 15.99999999874499 1.8000005017115344
    vertex 17.250000047074796 16.99999999874497 1.8000005017115315
  endloop
endfacet
facet normal -2.4928154662870693e-08 -0.44721359549995876 0.8944271909999153
  outer loop
    vertex 17.250000080603055 13.999999998744968 0.800000501711528
    vertex 27.250000048691284 16.000000014909833 1.800000788499204
    vertex 17.25000004869126 15.99999999874499 1.8000005017115344
  endloop
endfacet
facet normal -2.4928154662870693e-08 -0.44721359549995876 0.8944271909999153
  outer loop
    vertex 27.250000048691284 16.000000014909833 1.800000788499204
    vertex 17.250000080603055 13.999999998744968 0.800000501711528
    vertex 27.25000008060302 14.000000014909833 0.8000007884991964
  endloop
endfacet
facet normal -2.8678766908485323e-08 3.4785996715475055e-15 0.9999999999999998
  outer loop
    vertex 17.25000004869126 15.99999999874499 1.8000005017115344
    vertex 27.250000047074803 17.00000001490982 1.8000007884991998
    vertex 17.250000047074796 16.99999999874497 1.8000005017115315
  endloop
endfacet
facet normal -2.8678766908485323e-08 3.4785996715475055e-15 0.9999999999999998
  outer loop
    vertex 27.250000047074803 17.00000001490982 1.8000007884991998
    vertex 17.25000004869126 15.99999999874499 1.8000005017115344
    vertex 27.250000048691284 16.000000014909833 1.800000788499204
  endloop
endfacet
facet normal -1.6164857208347462e-09 1.0 8.413540614499715e-15
  outer loop
    vertex 17.250000047074796 16.99999999874497 1.8000005017115315
    vertex 27.250000075753565 17.000000014909833 0.8000007884991921
    vertex 17.250000075753587 16.999999998744972 0.8000005017115224
  endloop
endfacet
facet normal -1.6164857208347462e-09 1.0 8.413540614499715e-15
  outer loop
    vertex 27.250000075753565 17.000000014909833 0.8000007884991921
    vertex 17.250000047074796 16.99999999874497 1.8000005017115315
    vertex 27.250000047074803 17.00000001490982 1.8000007884991998
  endloop
endfacet
facet normal -2.867876690848543e-08 1.5986216107591704e-15 0.9999999999999998
  outer loop
    vertex 17.250000080603055 13.999999998744968 0.800000501711528
    vertex 27.250000075753565 17.000000014909833 0.8000007884991921
    vertex 17.250000075753587 16.999999998744972 0.8000005017115224
  endloop
endfacet
facet normal -2.867876690848543e-08 1.5986216107591704e-15 0.9999999999999998
  outer loop
    vertex 27.250000075753565 17.000000014909833 0.8000007884991921
    vertex 17.250000080603055 13.999999998744968 0.800000501711528
    vertex 27.25000008060302 14.000000014909833 0.8000007884991964
  endloop
endfacet
facet normal 1.0 -4.837433661546618e-10 -4.186307523055737e-09
  outer loop
    vertex 44.50000025779378 7.314056528075083e-08 1.4125024892185782e-06
    vertex 44.500000213206896 19.71404869259055 0.7999999294869742
    vertex 44.50000023213073 6.621969863252446e-08 0.800001290177893
  endloop
endfacet
facet normal 1.0 -4.837433661546618e-10 -4.186307523055737e-09
  outer loop
    vertex 44.500000213206896 19.71404869259055 0.7999999294869742
    vertex 44.50000025779378 7.314056528075083e-08 1.4125024892185782e-06
    vertex 44.50000025779379 21.42817472461796 -7.051302982168106e-08
  endloop
endfacet
facet normal 1.0 -4.837433661546618e-10 -4.186307523055737e-09
  outer loop
    vertex 44.500000213206896 19.71404869259055 0.7999999294869742
    vertex 44.50000025779379 21.42817472461796 -7.051302982168106e-08
    vertex 44.50000027532716 20.428174717697104 1.3000536369674554
  endloop
endfacet
facet normal 1.0 -4.837433661546618e-10 -4.186307523055737e-09
  outer loop
    vertex 44.50000027532716 20.428174717697104 1.3000536369674554
    vertex 44.50000025779379 21.42817472461796 -7.051302982168106e-08
    vertex 44.50000027371069 21.428174717697086 1.3000536369674567
  endloop
endfacet
facet normal -6.8579665651394436e-09 -0.5735897375855716 0.8191427305033692
  outer loop
    vertex 44.500000213206896 19.71404869259055 0.7999999294869742
    vertex 2.7591246366568405e-08 20.428175350448573 1.3000537074804885
    vertex -3.452904516639487e-08 19.714049325342028 0.8000000000000074
  endloop
endfacet
facet normal -6.8579665651394436e-09 -0.5735897375855716 0.8191427305033692
  outer loop
    vertex 2.7591246366568405e-08 20.428175350448573 1.3000537074804885
    vertex 44.500000213206896 19.71404869259055 0.7999999294869742
    vertex 44.50000027532716 20.428174717697104 1.3000536369674554
  endloop
endfacet
facet normal -1.3704099260353051e-08 3.4510690515347826e-08 0.9999999999999993
  outer loop
    vertex -2.566305926539835e-08 -6.920854663368825e-09 0.7999999999999996
    vertex 17.250000080603055 13.999999998744968 0.800000501711528
    vertex 17.250000075753587 16.999999998744972 0.8000005017115224
  endloop
endfacet
facet normal -1.3704099260353051e-08 3.4510690515347826e-08 0.9999999999999993
  outer loop
    vertex 17.250000080603055 13.999999998744968 0.800000501711528
    vertex -2.566305926539835e-08 -6.920854663368825e-09 0.7999999999999996
    vertex 44.50000023213073 6.621969863252446e-08 0.800001290177893
  endloop
endfacet
facet normal -1.3704099260353051e-08 3.4510690515347826e-08 0.9999999999999993
  outer loop
    vertex 17.250000080603055 13.999999998744968 0.800000501711528
    vertex 44.50000023213073 6.621969863252446e-08 0.800001290177893
    vertex 27.25000008060302 14.000000014909833 0.8000007884991964
  endloop
endfacet
facet normal -1.3704099260353051e-08 3.4510690515347826e-08 0.9999999999999993
  outer loop
    vertex 27.25000008060302 14.000000014909833 0.8000007884991964
    vertex 44.50000023213073 6.621969863252446e-08 0.800001290177893
    vertex 44.500000213206896 19.71404869259055 0.7999999294869742
  endloop
endfacet
facet normal -1.3704099260353051e-08 3.4510690515347826e-08 0.9999999999999993
  outer loop
    vertex -3.452904516639487e-08 19.714049325342028 0.8000000000000074
    vertex 17.250000075753587 16.999999998744972 0.8000005017115224
    vertex 44.500000213206896 19.71404869259055 0.7999999294869742
  endloop
endfacet
facet normal -1.3704099260353051e-08 3.4510690515347826e-08 0.9999999999999993
  outer loop
    vertex 17.250000075753587 16.999999998744972 0.8000005017115224
    vertex -3.452904516639487e-08 19.714049325342028 0.8000000000000074
    vertex -2.566305926539835e-08 -6.920854663368825e-09 0.7999999999999996
  endloop
endfacet
facet normal -1.3704099260353051e-08 3.4510690515347826e-08 0.9999999999999993
  outer loop
    vertex 44.500000213206896 19.71404869259055 0.7999999294869742
    vertex 17.250000075753587 16.999999998744972 0.8000005017115224
    vertex 27.250000075753565 17.000000014909833 0.8000007884991921
  endloop
endfacet
facet normal -1.3704099260353051e-08 3.4510690515347826e-08 0.9999999999999993
  outer loop
    vertex 44.500000213206896 19.71404869259055 0.7999999294869742
    vertex 27.250000075753565 17.000000014909833 0.8000007884991921
    vertex 27.25000008060302 14.000000014909833 0.8000007884991964
  endloop
endfacet
facet normal 1.507853292752843e-08 -3.460433500361092e-08 -0.9999999999999993
  outer loop
    vertex 1.0057856014711318e-08 21.42817535736944 2.026850909331301e-15
    vertex 44.50000025779378 7.314056528075083e-08 1.4125024892185782e-06
    vertex 0.0 0.0 0.0
  endloop
endfacet
facet normal 1.507853292752843e-08 -3.460433500361092e-08 -0.9999999999999993
  outer loop
    vertex 44.50000025779378 7.314056528075083e-08 1.4125024892185782e-06
    vertex 1.0057856014711318e-08 21.42817535736944 2.026850909331301e-15
    vertex 44.50000025779379 21.42817472461796 -7.051302982168106e-08
  endloop
endfacet
facet normal 1.4219134604466669e-08 1.0 5.323518693227002e-09
  outer loop
    vertex 1.0057856014711318e-08 21.42817535736944 2.026850909331301e-15
    vertex 44.50000027371069 21.428174717697086 1.3000536369674567
    vertex 44.50000025779379 21.42817472461796 -7.051302982168106e-08
  endloop
endfacet
facet normal 1.4219134604466669e-08 1.0 5.323518693227002e-09
  outer loop
    vertex 44.50000027371069 21.428174717697086 1.3000536369674567
    vertex 1.0057856014711318e-08 21.42817535736944 2.026850909331301e-15
    vertex 2.5974756979777473e-08 21.42817535044859 1.3000537074804899
  endloop
endfacet
facet normal 1.584562533343266e-09 -1.4074218275492099e-15 1.0
  outer loop
    vertex 2.7591246366568405e-08 20.428175350448573 1.3000537074804885
    vertex 44.50000027371069 21.428174717697086 1.3000536369674567
    vertex 2.5974756979777473e-08 21.42817535044859 1.3000537074804899
  endloop
endfacet
facet normal 1.584562533343266e-09 -1.4074218275492099e-15 1.0
  outer loop
    vertex 44.50000027371069 21.428174717697086 1.3000536369674567
    vertex 2.7591246366568405e-08 20.428175350448573 1.3000537074804885
    vertex 44.50000027532716 20.428174717697104 1.3000536369674554
  endloop
endfacet
facet normal 1.6436083270821866e-09 -1.0 -8.65107642842101e-09
  outer loop
    vertex 44.50000025779378 7.314056528075083e-08 1.4125024892185782e-06
    vertex -2.566305926539835e-08 -6.920854663368825e-09 0.7999999999999996
    vertex 0.0 0.0 0.0
  endloop
endfacet
facet normal 1.6436083270821866e-09 -1.0 -8.65107642842101e-09
  outer loop
    vertex -2.566305926539835e-08 -6.920854663368825e-09 0.7999999999999996
    vertex 44.50000025779378 7.314056528075083e-08 1.4125024892185782e-06
    vertex 44.50000023213073 6.621969863252446e-08 0.800001290177893
  endloop
endfacet
endsolid HandRemote-SideCover
