solid WL-HandRemote-BackCover
facet normal 1.1775331887050012e-08 4.6505029887936585e-10 -1.0
  outer loop
    vertex 51.89531321561919 124.99999912154406 9.237837369058254e-07
    vertex 41.99999949708044 2.000000113227185 1.098155665002487e-06
    vertex 30.210535560926605 124.99999936615775 1.4330459282563268e-06
  endloop
endfacet
facet normal 1.1775331887050012e-08 4.6505029887936585e-10 -1.0
  outer loop
    vertex 41.99999949708044 2.000000113227185 1.098155665002487e-06
    vertex 51.89531321561919 124.99999912154406 9.237837369058254e-07
    vertex 42.03407367079137 2.258819158329705 1.0986504140220176e-06
  endloop
endfacet
facet normal 1.1775331887050012e-08 4.6505029887936585e-10 -1.0
  outer loop
    vertex 42.03407367079137 2.258819158329705 1.0986504140220176e-06
    vertex 51.89531321561919 124.99999912154406 9.237837369058254e-07
    vertex 42.133974093296 2.5000001132271836 1.0993312977491953e-06
  endloop
endfacet
facet normal 1.1775331887050012e-08 4.6505029887936585e-10 -1.0
  outer loop
    vertex 42.133974093296 2.5000001132271836 1.0993312977491953e-06
    vertex 51.89531321561919 124.99999912154406 9.237837369058254e-07
    vertex 42.29289271589389 2.7071068944137306 1.1001519164555162e-06
  endloop
endfacet
facet normal 1.1775331887050012e-08 4.6505029887936585e-10 -1.0
  outer loop
    vertex 42.29289271589389 2.7071068944137306 1.1001519164555162e-06
    vertex 51.89531321561919 124.99999912154406 9.237837369058254e-07
    vertex 42.49999949708044 2.8660255170116216 1.101056347385665e-06
  endloop
endfacet
facet normal 1.1775331887050012e-08 4.6505029887936585e-10 -1.0
  outer loop
    vertex 42.49999949708044 2.8660255170116216 1.101056347385665e-06
    vertex 51.89531321561919 124.99999912154406 9.237837369058254e-07
    vertex 42.74118045197792 2.965925939516251 1.1019829517122659e-06
  endloop
endfacet
facet normal 1.1775331887050012e-08 4.6505029887936585e-10 -1.0
  outer loop
    vertex 42.74118045197792 2.965925939516251 1.1019829517122659e-06
    vertex 51.89531321561919 124.99999912154406 9.237837369058254e-07
    vertex 42.99999949708044 3.0000001132271827 1.102868584745842e-06
  endloop
endfacet
facet normal 1.1775331887050012e-08 4.6505029887936585e-10 -1.0
  outer loop
    vertex 42.99999949708044 3.0000001132271827 1.102868584745842e-06
    vertex 51.89531321561919 124.99999912154406 9.237837369058254e-07
    vertex 43.25881854218296 2.9659259395162514 1.103652890743767e-06
  endloop
endfacet
facet normal 1.1775331887050012e-08 4.6505029887936585e-10 -1.0
  outer loop
    vertex 43.25881854218296 2.9659259395162514 1.103652890743767e-06
    vertex 51.89531321561919 124.99999912154406 9.237837369058254e-07
    vertex 43.49999949708044 2.866025517011622 1.1042824228812975e-06
  endloop
endfacet
facet normal 1.1775331887050012e-08 4.6505029887936585e-10 -1.0
  outer loop
    vertex 43.49999949708044 2.866025517011622 1.1042824228812975e-06
    vertex 51.89531321561919 124.99999912154406 9.237837369058254e-07
    vertex 43.707106278266984 2.707106894413731 1.1047142781883677e-06
  endloop
endfacet
facet normal 1.1775331887050012e-08 4.6505029887936585e-10 -1.0
  outer loop
    vertex 43.707106278266984 2.707106894413731 1.1047142781883677e-06
    vertex 51.89531321561919 124.99999912154406 9.237837369058254e-07
    vertex 43.86602490086488 2.500000113227184 1.1049190246747998e-06
  endloop
endfacet
facet normal 1.1775331887050012e-08 4.6505029887936585e-10 -1.0
  outer loop
    vertex 43.86602490086488 2.500000113227184 1.1049190246747998e-06
    vertex 51.89531321561919 124.99999912154406 9.237837369058254e-07
    vertex 43.965925323369504 2.2588191583297057 1.1048827147863703e-06
  endloop
endfacet
facet normal 1.1775331887050012e-08 4.6505029887936585e-10 -1.0
  outer loop
    vertex 43.965925323369504 2.2588191583297057 1.1048827147863703e-06
    vertex 51.89531321561919 124.99999912154406 9.237837369058254e-07
    vertex 43.99999949708044 2.000000113227185 1.1046078159937522e-06
  endloop
endfacet
facet normal 1.1775331887050012e-08 4.6505029887936585e-10 -1.0
  outer loop
    vertex 0.49999999999999994 -1.0855412443258571e-09 7.869938155008886e-07
    vertex 42.99999949708044 1.0000001132271865 1.0998948962503973e-06
    vertex 85.49999899416089 2.278352728191838e-07 1.4157696658610776e-06
  endloop
endfacet
facet normal 1.1775331887050012e-08 4.6505029887936585e-10 -1.0
  outer loop
    vertex 42.99999949708044 1.0000001132271865 1.0998948962503973e-06
    vertex 0.49999999999999994 -1.0855412443258571e-09 7.869938155008886e-07
    vertex 42.74118045197792 1.034074286938118 1.0991105902524722e-06
  endloop
endfacet
facet normal 1.1775331887050012e-08 4.6505029887936585e-10 -1.0
  outer loop
    vertex 42.74118045197792 1.034074286938118 1.0991105902524722e-06
    vertex 0.49999999999999994 -1.0855412443258571e-09 7.869938155008886e-07
    vertex 42.49999949708044 1.1339747094427477 1.0984810581149418e-06
  endloop
endfacet
facet normal 1.1775331887050012e-08 4.6505029887936585e-10 -1.0
  outer loop
    vertex 42.49999949708044 1.1339747094427477 1.0984810581149418e-06
    vertex 0.49999999999999994 -1.0855412443258571e-09 7.869938155008886e-07
    vertex 42.29289271589389 1.2928933320406386 1.0980492028078713e-06
  endloop
endfacet
facet normal 1.1775331887050012e-08 4.6505029887936585e-10 -1.0
  outer loop
    vertex 42.29289271589389 1.2928933320406386 1.0980492028078713e-06
    vertex 0.49999999999999994 -1.0855412443258571e-09 7.869938155008886e-07
    vertex 42.133974093296 1.5000001132271854 1.0978444563214395e-06
  endloop
endfacet
facet normal 1.1775331887050012e-08 4.6505029887936585e-10 -1.0
  outer loop
    vertex 42.133974093296 1.5000001132271854 1.0978444563214395e-06
    vertex 0.49999999999999994 -1.0855412443258571e-09 7.869938155008886e-07
    vertex 42.03407367079137 1.7411810681246642 1.0978807662098687e-06
  endloop
endfacet
facet normal 1.1775331887050012e-08 4.6505029887936585e-10 -1.0
  outer loop
    vertex 42.03407367079137 1.7411810681246642 1.0978807662098687e-06
    vertex 0.49999999999999994 -1.0855412443258571e-09 7.869938155008886e-07
    vertex 0.5000002475034101 113.99999966359785 4.538555938335351e-09
  endloop
endfacet
facet normal 1.1775331887050012e-08 4.6505029887936585e-10 -1.0
  outer loop
    vertex 42.03407367079137 1.7411810681246642 1.0978807662098687e-06
    vertex 0.5000002475034101 113.99999966359785 4.538555938335351e-09
    vertex 21.89531333398622 113.99999961629703 1.3370280970814717e-06
  endloop
endfacet
facet normal 1.1775331887050012e-08 4.6505029887936585e-10 -1.0
  outer loop
    vertex 42.03407367079137 1.7411810681246642 1.0978807662098687e-06
    vertex 21.89531333398622 113.99999961629703 1.3370280970814717e-06
    vertex 41.99999949708044 2.000000113227185 1.098155665002487e-06
  endloop
endfacet
facet normal 1.1775331887050012e-08 4.6505029887936585e-10 -1.0
  outer loop
    vertex 41.99999949708044 2.000000113227185 1.098155665002487e-06
    vertex 21.89531333398622 113.99999961629703 1.3370280970814717e-06
    vertex 30.210535560926605 124.99999936615775 1.4330459282563268e-06
  endloop
endfacet
facet normal 1.1775331887050012e-08 4.6505029887936585e-10 -1.0
  outer loop
    vertex 85.49999899416089 2.278352728191838e-07 1.4157696658610776e-06
    vertex 42.99999949708044 1.0000001132271865 1.0998948962503973e-06
    vertex 43.25881854218296 1.0340742869381183 1.1007805292839734e-06
  endloop
endfacet
facet normal 1.1775331887050012e-08 4.6505029887936585e-10 -1.0
  outer loop
    vertex 85.49999899416089 2.278352728191838e-07 1.4157696658610776e-06
    vertex 43.25881854218296 1.0340742869381183 1.1007805292839734e-06
    vertex 43.49999949708044 1.1339747094427477 1.1017071336105743e-06
  endloop
endfacet
facet normal 1.1775331887050012e-08 4.6505029887936585e-10 -1.0
  outer loop
    vertex 85.49999899416089 2.278352728191838e-07 1.4157696658610776e-06
    vertex 43.49999949708044 1.1339747094427477 1.1017071336105743e-06
    vertex 43.707106278266984 1.2928933320406386 1.102611564540723e-06
  endloop
endfacet
facet normal 1.1775331887050012e-08 4.6505029887936585e-10 -1.0
  outer loop
    vertex 85.49999899416089 2.278352728191838e-07 1.4157696658610776e-06
    vertex 43.707106278266984 1.2928933320406386 1.102611564540723e-06
    vertex 43.86602490086488 1.5000001132271856 1.103432183247044e-06
  endloop
endfacet
facet normal 1.1775331887050012e-08 4.6505029887936585e-10 -1.0
  outer loop
    vertex 85.49999899416089 2.278352728191838e-07 1.4157696658610776e-06
    vertex 43.86602490086488 1.5000001132271856 1.103432183247044e-06
    vertex 43.965925323369504 1.7411810681246644 1.1041130669742216e-06
  endloop
endfacet
facet normal 1.1775331887050012e-08 4.6505029887936585e-10 -1.0
  outer loop
    vertex 85.49999899416089 2.278352728191838e-07 1.4157696658610776e-06
    vertex 43.965925323369504 1.7411810681246644 1.1041130669742216e-06
    vertex 43.99999949708044 2.000000113227185 1.1046078159937522e-06
  endloop
endfacet
facet normal 1.1775331887050012e-08 4.6505029887936585e-10 -1.0
  outer loop
    vertex 85.49999899416089 2.278352728191838e-07 1.4157696658610776e-06
    vertex 43.99999949708044 2.000000113227185 1.1046078159937522e-06
    vertex 51.89531321561919 124.99999912154406 9.237837369058254e-07
  endloop
endfacet
facet normal 1.1775331887050012e-08 4.6505029887936585e-10 -1.0
  outer loop
    vertex 85.49999899416089 2.278352728191838e-07 1.4157696658610776e-06
    vertex 51.89531321561919 124.99999912154406 9.237837369058254e-07
    vertex 68.49999938492618 65.99999937297368 1.6334881895021454e-06
  endloop
endfacet
facet normal 1.1775331887050012e-08 4.6505029887936585e-10 -1.0
  outer loop
    vertex 68.49999938492618 65.99999937297368 1.6334881895021454e-06
    vertex 51.89531321561919 124.99999912154406 9.237837369058254e-07
    vertex 68.49999938469057 117.23385358353532 1.514364678060348e-06
  endloop
endfacet
facet normal 1.1775331887050012e-08 4.6505029887936585e-10 -1.0
  outer loop
    vertex 85.49999899416089 2.278352728191838e-07 1.4157696658610776e-06
    vertex 68.49999938492618 65.99999937297368 1.6334881895021454e-06
    vertex 85.49999917644013 65.99999957440848 1.5657973055281716e-06
  endloop
endfacet
facet normal -1.0 2.1710824886517143e-09 -9.077111876670704e-09
  outer loop
    vertex 0.5000002293491862 113.99999965896664 2.0000000045385558
    vertex 0.49999999999999994 -1.0855412443258571e-09 7.869938155008886e-07
    vertex 0.49999998184577615 -5.7167416847130525e-09 2.0000007869938154
  endloop
endfacet
facet normal -1.0 2.1710824886517143e-09 -9.077111876670704e-09
  outer loop
    vertex 0.49999999999999994 -1.0855412443258571e-09 7.869938155008886e-07
    vertex 0.5000002293491862 113.99999965896664 2.0000000045385558
    vertex 0.5000002475034101 113.99999966359785 4.538555938335351e-09
  endloop
endfacet
facet normal 2.2098956869929077e-09 1.0 2.315600240253069e-09
  outer loop
    vertex 0.5000002293491862 113.99999965896664 2.0000000045385558
    vertex 21.89531333398622 113.99999961629703 1.3370280970814717e-06
    vertex 0.5000002475034101 113.99999966359785 4.538555938335351e-09
  endloop
endfacet
facet normal 2.2098956869929077e-09 1.0 2.315600240253069e-09
  outer loop
    vertex 21.89531333398622 113.99999961629703 1.3370280970814717e-06
    vertex 0.5000002293491862 113.99999965896664 2.0000000045385558
    vertex 21.895313315831995 113.99999961166584 2.000001337028097
  endloop
endfacet
facet normal -0.7977238953322772 0.6030228742061934 -5.844669148341439e-09
  outer loop
    vertex 30.210535542772384 124.99999936152656 2.000001433045928
    vertex 21.89531333398622 113.99999961629703 1.3370280970814717e-06
    vertex 21.895313315831995 113.99999961166584 2.000001337028097
  endloop
endfacet
facet normal -0.7977238953322772 0.6030228742061934 -5.844669148341439e-09
  outer loop
    vertex 21.89531333398622 113.99999961629703 1.3370280970814717e-06
    vertex 30.210535542772384 124.99999936152656 2.000001433045928
    vertex 30.210535560926605 124.99999936615775 1.4330459282563268e-06
  endloop
endfacet
facet normal 1.1280433154275178e-08 1.0 2.3156003225873522e-09
  outer loop
    vertex 30.210535560926605 124.99999936615775 1.4330459282563268e-06
    vertex 51.895313197464965 124.99999911691287 2.0000009237837366
    vertex 51.89531321561919 124.99999912154406 9.237837369058254e-07
  endloop
endfacet
facet normal 1.1280433154275178e-08 1.0 2.3156003225873522e-09
  outer loop
    vertex 51.895313197464965 124.99999911691287 2.0000009237837366
    vertex 30.210535560926605 124.99999936615775 1.4330459282563268e-06
    vertex 30.210535542772384 124.99999936152656 2.000001433045928
  endloop
endfacet
facet normal 0.42365992839503613 0.9058213207207662 5.943127789492572e-09
  outer loop
    vertex 51.895313197464965 124.99999911691287 2.0000009237837366
    vertex 68.49999938469057 117.23385358353532 1.514364678060348e-06
    vertex 51.89531321561919 124.99999912154406 9.237837369058254e-07
  endloop
endfacet
facet normal 0.42365992839503613 0.9058213207207662 5.943127789492572e-09
  outer loop
    vertex 68.49999938469057 117.23385358353532 1.514364678060348e-06
    vertex 51.895313197464965 124.99999911691287 2.0000009237837366
    vertex 68.49999936653636 117.23385363933319 2.000001514364676
  endloop
endfacet
facet normal -1.1767740172416066e-08 1.0 2.3156001133765037e-09
  outer loop
    vertex 68.49999938492618 65.99999937297368 1.6334881895021454e-06
    vertex 85.4999991582859 65.99999956977727 2.0000015657973056
    vertex 85.49999917644013 65.99999957440848 1.5657973055281716e-06
  endloop
endfacet
facet normal -1.1767740172416066e-08 1.0 2.3156001133765037e-09
  outer loop
    vertex 85.4999991582859 65.99999956977727 2.0000015657973056
    vertex 68.49999938492618 65.99999937297368 1.6334881895021454e-06
    vertex 68.49999936677197 65.99999936834249 2.000001633488189
  endloop
endfacet
facet normal 2.6331903907108786e-09 -1.0 -2.3156001962918343e-09
  outer loop
    vertex 85.49999899416089 2.278352728191838e-07 1.4157696658610776e-06
    vertex 0.49999998184577615 -5.7167416847130525e-09 2.0000007869938154
    vertex 0.49999999999999994 -1.0855412443258571e-09 7.869938155008886e-07
  endloop
endfacet
facet normal 2.6331903907108786e-09 -1.0 -2.3156001962918343e-09
  outer loop
    vertex 0.49999998184577615 -5.7167416847130525e-09 2.0000007869938154
    vertex 85.49999899416089 2.278352728191838e-07 1.4157696658610776e-06
    vertex 85.49999897600667 2.2320407237879662e-07 2.0000014157696655
  endloop
endfacet
facet normal 0.9238795325112898 0.3826834323650826 9.27229972206491e-09
  outer loop
    vertex 42.133974093296 1.5000001132271854 1.0978444563214395e-06
    vertex 42.03407365263715 1.741181063493464 2.000001097880766
    vertex 42.13397407514178 1.5000001085959849 2.0000010978444562
  endloop
endfacet
facet normal 0.9238795325112898 0.3826834323650826 9.27229972206491e-09
  outer loop
    vertex 42.03407365263715 1.741181063493464 2.000001097880766
    vertex 42.133974093296 1.5000001132271854 1.0978444563214395e-06
    vertex 42.03407367079137 1.7411810681246642 1.0978807662098687e-06
  endloop
endfacet
facet normal 0.7933533402912261 0.6087614290087324 8.611005130600326e-09
  outer loop
    vertex 42.29289271589389 1.2928933320406386 1.0980492028078713e-06
    vertex 42.13397407514178 1.5000001085959849 2.0000010978444562
    vertex 42.292892697739674 1.292893327409438 2.0000010980492027
  endloop
endfacet
facet normal 0.7933533402912261 0.6087614290087324 8.611005130600326e-09
  outer loop
    vertex 42.13397407514178 1.5000001085959849 2.0000010978444562
    vertex 42.29289271589389 1.2928933320406386 1.0980492028078713e-06
    vertex 42.133974093296 1.5000001132271854 1.0978444563214395e-06
  endloop
endfacet
facet normal 0.6087614290087253 0.7933533402912316 7.362884769844295e-09
  outer loop
    vertex 42.292892697739674 1.292893327409438 2.0000010980492027
    vertex 42.49999949708044 1.1339747094427477 1.0984810581149418e-06
    vertex 42.29289271589389 1.2928933320406386 1.0980492028078713e-06
  endloop
endfacet
facet normal 0.6087614290087253 0.7933533402912316 7.362884769844295e-09
  outer loop
    vertex 42.49999949708044 1.1339747094427477 1.0984810581149418e-06
    vertex 42.292892697739674 1.292893327409438 2.0000010980492027
    vertex 42.49999947892621 1.1339747048115474 2.000001098481058
  endloop
endfacet
facet normal 0.3826834323650935 0.9238795325112854 5.612995979765679e-09
  outer loop
    vertex 42.49999947892621 1.1339747048115474 2.000001098481058
    vertex 42.74118045197792 1.034074286938118 1.0991105902524722e-06
    vertex 42.49999949708044 1.1339747094427477 1.0984810581149418e-06
  endloop
endfacet
facet normal 0.3826834323650935 0.9238795325112854 5.612995979765679e-09
  outer loop
    vertex 42.74118045197792 1.034074286938118 1.0991105902524722e-06
    vertex 42.49999947892621 1.1339747048115474 2.000001098481058
    vertex 42.74118043382369 1.0340742823069178 2.00000109911059
  endloop
endfacet
facet normal 0.13052619222005007 0.9914448613738106 3.4805907895804295e-09
  outer loop
    vertex 42.74118043382369 1.0340742823069178 2.00000109911059
    vertex 42.99999949708044 1.0000001132271865 1.0998948962503973e-06
    vertex 42.74118045197792 1.034074286938118 1.0991105902524722e-06
  endloop
endfacet
facet normal 0.13052619222005007 0.9914448613738106 3.4805907895804295e-09
  outer loop
    vertex 42.99999949708044 1.0000001132271865 1.0998948962503973e-06
    vertex 42.74118043382369 1.0340742823069178 2.00000109911059
    vertex 42.99999947892621 1.0000001085959862 2.000001099894896
  endloop
endfacet
facet normal -0.13052619222005077 0.9914448613738106 1.110989089033579e-09
  outer loop
    vertex 42.99999947892621 1.0000001085959862 2.000001099894896
    vertex 43.25881854218296 1.0340742869381183 1.1007805292839734e-06
    vertex 42.99999949708044 1.0000001132271865 1.0998948962503973e-06
  endloop
endfacet
facet normal -0.13052619222005077 0.9914448613738106 1.110989089033579e-09
  outer loop
    vertex 43.25881854218296 1.0340742869381183 1.1007805292839734e-06
    vertex 42.99999947892621 1.0000001085959862 2.000001099894896
    vertex 43.25881852402874 1.034074282306918 2.000001100780529
  endloop
endfacet
facet normal -0.38268343236509283 0.9238795325112855 -1.3343246819346906e-09
  outer loop
    vertex 43.25881852402874 1.034074282306918 2.000001100780529
    vertex 43.49999949708044 1.1339747094427477 1.1017071336105743e-06
    vertex 43.25881854218296 1.0340742869381183 1.1007805292839734e-06
  endloop
endfacet
facet normal -0.38268343236509283 0.9238795325112855 -1.3343246819346906e-09
  outer loop
    vertex 43.49999949708044 1.1339747094427477 1.1017071336105743e-06
    vertex 43.25881852402874 1.034074282306918 2.000001100780529
    vertex 43.49999947892621 1.1339747048115474 2.0000011017071335
  endloop
endfacet
facet normal -0.6087614290087253 0.7933533402912316 -3.6887064309048907e-09
  outer loop
    vertex 43.49999947892621 1.1339747048115474 2.0000011017071335
    vertex 43.707106278266984 1.2928933320406386 1.102611564540723e-06
    vertex 43.49999949708044 1.1339747094427477 1.1017071336105743e-06
  endloop
endfacet
facet normal -0.6087614290087253 0.7933533402912316 -3.6887064309048907e-09
  outer loop
    vertex 43.707106278266984 1.2928933320406386 1.102611564540723e-06
    vertex 43.49999947892621 1.1339747048115474 2.0000011017071335
    vertex 43.70710626011276 1.292893327409438 2.0000011026115643
  endloop
endfacet
facet normal -0.7933533402912267 0.6087614290087319 -5.791708932484353e-09
  outer loop
    vertex 43.866024882710654 1.5000001085959853 2.000001103432183
    vertex 43.707106278266984 1.2928933320406386 1.102611564540723e-06
    vertex 43.70710626011276 1.292893327409438 2.0000011026115643
  endloop
endfacet
facet normal -0.7933533402912267 0.6087614290087319 -5.791708932484353e-09
  outer loop
    vertex 43.707106278266984 1.2928933320406386 1.102611564540723e-06
    vertex 43.866024882710654 1.5000001085959853 2.000001103432183
    vertex 43.86602490086488 1.5000001132271856 1.103432183247044e-06
  endloop
endfacet
facet normal -0.9238795325112898 0.3826834323650826 -7.500016041566854e-09
  outer loop
    vertex 43.96592530521528 1.7411810634934641 2.0000011041130668
    vertex 43.86602490086488 1.5000001132271856 1.103432183247044e-06
    vertex 43.866024882710654 1.5000001085959853 2.000001103432183
  endloop
endfacet
facet normal -0.9238795325112898 0.3826834323650826 -7.500016041566854e-09
  outer loop
    vertex 43.86602490086488 1.5000001132271856 1.103432183247044e-06
    vertex 43.96592530521528 1.7411810634934641 2.0000011041130668
    vertex 43.965925323369504 1.7411810681246644 1.1041130669742216e-06
  endloop
endfacet
facet normal -0.9914448613738103 0.130526192220052 -8.69720945177892e-09
  outer loop
    vertex 43.99999947892621 2.0000001085959846 2.000001104607816
    vertex 43.965925323369504 1.7411810681246644 1.1041130669742216e-06
    vertex 43.96592530521528 1.7411810634934641 2.0000011041130668
  endloop
endfacet
facet normal -0.9914448613738103 0.130526192220052 -8.69720945177892e-09
  outer loop
    vertex 43.965925323369504 1.7411810681246644 1.1041130669742216e-06
    vertex 43.99999947892621 2.0000001085959846 2.000001104607816
    vertex 43.99999949708044 2.000000113227185 1.1046078159937522e-06
  endloop
endfacet
facet normal -0.9914448613738104 -0.13052619222005163 -9.30170241067049e-09
  outer loop
    vertex 43.96592530521528 2.2588191536985054 2.0000011048827147
    vertex 43.99999949708044 2.000000113227185 1.1046078159937522e-06
    vertex 43.99999947892621 2.0000001085959846 2.000001104607816
  endloop
endfacet
facet normal -0.9914448613738104 -0.13052619222005163 -9.30170241067049e-09
  outer loop
    vertex 43.99999949708044 2.000000113227185 1.1046078159937522e-06
    vertex 43.96592530521528 2.2588191536985054 2.0000011048827147
    vertex 43.965925323369504 2.2588191583297057 1.1048827147863703e-06
  endloop
endfacet
facet normal -0.9238795325112895 -0.382683432365083 -9.272299722064909e-09
  outer loop
    vertex 43.866024882710654 2.5000001085959838 2.0000011049190247
    vertex 43.965925323369504 2.2588191583297057 1.1048827147863703e-06
    vertex 43.96592530521528 2.2588191536985054 2.0000011048827147
  endloop
endfacet
facet normal -0.9238795325112895 -0.382683432365083 -9.272299722064909e-09
  outer loop
    vertex 43.965925323369504 2.2588191583297057 1.1048827147863703e-06
    vertex 43.866024882710654 2.5000001085959838 2.0000011049190247
    vertex 43.86602490086488 2.500000113227184 1.1049190246747998e-06
  endloop
endfacet
facet normal -0.7933533402912265 -0.6087614290087322 -8.611005130600328e-09
  outer loop
    vertex 43.70710626011276 2.707106889782531 2.000001104714278
    vertex 43.86602490086488 2.500000113227184 1.1049190246747998e-06
    vertex 43.866024882710654 2.5000001085959838 2.0000011049190247
  endloop
endfacet
facet normal -0.7933533402912265 -0.6087614290087322 -8.611005130600328e-09
  outer loop
    vertex 43.86602490086488 2.500000113227184 1.1049190246747998e-06
    vertex 43.70710626011276 2.707106889782531 2.000001104714278
    vertex 43.707106278266984 2.707106894413731 1.1047142781883677e-06
  endloop
endfacet
facet normal -0.6087614290087257 -0.7933533402912314 -7.3628847698442994e-09
  outer loop
    vertex 43.707106278266984 2.707106894413731 1.1047142781883677e-06
    vertex 43.49999947892621 2.866025512380422 2.000001104282423
    vertex 43.49999949708044 2.866025517011622 1.1042824228812975e-06
  endloop
endfacet
facet normal -0.6087614290087257 -0.7933533402912314 -7.3628847698442994e-09
  outer loop
    vertex 43.49999947892621 2.866025512380422 2.000001104282423
    vertex 43.707106278266984 2.707106894413731 1.1047142781883677e-06
    vertex 43.70710626011276 2.707106889782531 2.000001104714278
  endloop
endfacet
facet normal -0.3826834323650853 -0.9238795325112888 -5.612995979765613e-09
  outer loop
    vertex 43.49999949708044 2.866025517011622 1.1042824228812975e-06
    vertex 43.25881852402873 2.965925934885051 2.0000011036528904
    vertex 43.25881854218296 2.9659259395162514 1.103652890743767e-06
  endloop
endfacet
facet normal -0.3826834323650853 -0.9238795325112888 -5.612995979765613e-09
  outer loop
    vertex 43.25881852402873 2.965925934885051 2.0000011036528904
    vertex 43.49999949708044 2.866025517011622 1.1042824228812975e-06
    vertex 43.49999947892621 2.866025512380422 2.000001104282423
  endloop
endfacet
facet normal -0.13052619222005224 -0.9914448613738105 -3.480590789580449e-09
  outer loop
    vertex 43.25881854218296 2.9659259395162514 1.103652890743767e-06
    vertex 42.99999947892621 3.000000108595983 2.0000011028685845
    vertex 42.99999949708044 3.0000001132271827 1.102868584745842e-06
  endloop
endfacet
facet normal -0.13052619222005224 -0.9914448613738105 -3.480590789580449e-09
  outer loop
    vertex 42.99999947892621 3.000000108595983 2.0000011028685845
    vertex 43.25881854218296 2.9659259395162514 1.103652890743767e-06
    vertex 43.25881852402873 2.965925934885051 2.0000011036528904
  endloop
endfacet
facet normal 0.1305261922200521 -0.9914448613738105 -1.1109890890335666e-09
  outer loop
    vertex 42.99999949708044 3.0000001132271827 1.102868584745842e-06
    vertex 42.74118043382369 2.9659259348850506 2.0000011019829516
    vertex 42.74118045197792 2.965925939516251 1.1019829517122659e-06
  endloop
endfacet
facet normal 0.1305261922200521 -0.9914448613738105 -1.1109890890335666e-09
  outer loop
    vertex 42.74118043382369 2.9659259348850506 2.0000011019829516
    vertex 42.99999949708044 3.0000001132271827 1.102868584745842e-06
    vertex 42.99999947892621 3.000000108595983 2.0000011028685845
  endloop
endfacet
facet normal 0.38268343236509283 -0.9238795325112855 1.3343246819346906e-09
  outer loop
    vertex 42.74118045197792 2.965925939516251 1.1019829517122659e-06
    vertex 42.49999947892621 2.8660255123804212 2.0000011010563474
    vertex 42.49999949708044 2.8660255170116216 1.101056347385665e-06
  endloop
endfacet
facet normal 0.38268343236509283 -0.9238795325112855 1.3343246819346906e-09
  outer loop
    vertex 42.49999947892621 2.8660255123804212 2.0000011010563474
    vertex 42.74118045197792 2.965925939516251 1.1019829517122659e-06
    vertex 42.74118043382369 2.9659259348850506 2.0000011019829516
  endloop
endfacet
facet normal 0.6087614290087153 -0.7933533402912394 3.6887064309047815e-09
  outer loop
    vertex 42.49999949708044 2.8660255170116216 1.101056347385665e-06
    vertex 42.29289269773967 2.7071068897825303 2.0000011001519162
    vertex 42.29289271589389 2.7071068944137306 1.1001519164555162e-06
  endloop
endfacet
facet normal 0.6087614290087153 -0.7933533402912394 3.6887064309047815e-09
  outer loop
    vertex 42.29289269773967 2.7071068897825303 2.0000011001519162
    vertex 42.49999949708044 2.8660255170116216 1.101056347385665e-06
    vertex 42.49999947892621 2.8660255123804212 2.0000011010563474
  endloop
endfacet
facet normal 0.7933533402912368 -0.6087614290087187 5.791708932484474e-09
  outer loop
    vertex 42.133974093296 2.5000001132271836 1.0993312977491953e-06
    vertex 42.29289269773967 2.7071068897825303 2.0000011001519162
    vertex 42.13397407514178 2.5000001085959833 2.0000010993312975
  endloop
endfacet
facet normal 0.7933533402912368 -0.6087614290087187 5.791708932484474e-09
  outer loop
    vertex 42.29289269773967 2.7071068897825303 2.0000011001519162
    vertex 42.133974093296 2.5000001132271836 1.0993312977491953e-06
    vertex 42.29289271589389 2.7071068944137306 1.1001519164555162e-06
  endloop
endfacet
facet normal 0.9238795325112898 -0.3826834323650826 7.500016041566854e-09
  outer loop
    vertex 42.03407367079137 2.258819158329705 1.0986504140220176e-06
    vertex 42.13397407514178 2.5000001085959833 2.0000010993312975
    vertex 42.03407365263715 2.2588191536985045 2.0000010986504138
  endloop
endfacet
facet normal 0.9238795325112898 -0.3826834323650826 7.500016041566854e-09
  outer loop
    vertex 42.13397407514178 2.5000001085959833 2.0000010993312975
    vertex 42.03407367079137 2.258819158329705 1.0986504140220176e-06
    vertex 42.133974093296 2.5000001132271836 1.0993312977491953e-06
  endloop
endfacet
facet normal 0.9914448613738104 -0.13052619222005216 8.69720945177892e-09
  outer loop
    vertex 41.99999949708044 2.000000113227185 1.098155665002487e-06
    vertex 42.03407365263715 2.2588191536985045 2.0000010986504138
    vertex 41.99999947892622 2.0000001085959846 2.000001098155665
  endloop
endfacet
facet normal 0.9914448613738104 -0.13052619222005216 8.69720945177892e-09
  outer loop
    vertex 42.03407365263715 2.2588191536985045 2.0000010986504138
    vertex 41.99999949708044 2.000000113227185 1.098155665002487e-06
    vertex 42.03407367079137 2.258819158329705 1.0986504140220176e-06
  endloop
endfacet
facet normal 0.9914448613738104 0.1305261922200518 9.301702410670488e-09
  outer loop
    vertex 42.03407367079137 1.7411810681246642 1.0978807662098687e-06
    vertex 41.99999947892622 2.0000001085959846 2.000001098155665
    vertex 42.03407365263715 1.741181063493464 2.000001097880766
  endloop
endfacet
facet normal 0.9914448613738104 0.1305261922200518 9.301702410670488e-09
  outer loop
    vertex 41.99999947892622 2.0000001085959846 2.000001098155665
    vertex 42.03407367079137 1.7411810681246642 1.0978807662098687e-06
    vertex 41.99999949708044 2.000000113227185 1.098155665002487e-06
  endloop
endfacet
facet normal -1.1775331883108846e-08 -4.6505029620354746e-10 1.0
  outer loop
    vertex 0.49999998184577615 -5.7167416847130525e-09 2.0000007869938154
    vertex 42.03407365263715 1.741181063493464 2.000001097880766
    vertex 0.5000002293491862 113.99999965896664 2.0000000045385558
  endloop
endfacet
facet normal -1.1775331883108846e-08 -4.6505029620354746e-10 1.0
  outer loop
    vertex 42.03407365263715 1.741181063493464 2.000001097880766
    vertex 0.49999998184577615 -5.7167416847130525e-09 2.0000007869938154
    vertex 42.13397407514178 1.5000001085959849 2.0000010978444562
  endloop
endfacet
facet normal -1.1775331883108846e-08 -4.6505029620354746e-10 1.0
  outer loop
    vertex 42.13397407514178 1.5000001085959849 2.0000010978444562
    vertex 0.49999998184577615 -5.7167416847130525e-09 2.0000007869938154
    vertex 42.292892697739674 1.292893327409438 2.0000010980492027
  endloop
endfacet
facet normal -1.1775331883108846e-08 -4.6505029620354746e-10 1.0
  outer loop
    vertex 42.292892697739674 1.292893327409438 2.0000010980492027
    vertex 0.49999998184577615 -5.7167416847130525e-09 2.0000007869938154
    vertex 42.49999947892621 1.1339747048115474 2.000001098481058
  endloop
endfacet
facet normal -1.1775331883108846e-08 -4.6505029620354746e-10 1.0
  outer loop
    vertex 42.49999947892621 1.1339747048115474 2.000001098481058
    vertex 0.49999998184577615 -5.7167416847130525e-09 2.0000007869938154
    vertex 42.74118043382369 1.0340742823069178 2.00000109911059
  endloop
endfacet
facet normal -1.1775331883108846e-08 -4.6505029620354746e-10 1.0
  outer loop
    vertex 42.74118043382369 1.0340742823069178 2.00000109911059
    vertex 0.49999998184577615 -5.7167416847130525e-09 2.0000007869938154
    vertex 42.99999947892621 1.0000001085959862 2.000001099894896
  endloop
endfacet
facet normal -1.1775331883108846e-08 -4.6505029620354746e-10 1.0
  outer loop
    vertex 42.99999947892621 1.0000001085959862 2.000001099894896
    vertex 0.49999998184577615 -5.7167416847130525e-09 2.0000007869938154
    vertex 85.49999897600667 2.2320407237879662e-07 2.0000014157696655
  endloop
endfacet
facet normal -1.1775331883108846e-08 -4.6505029620354746e-10 1.0
  outer loop
    vertex 0.5000002293491862 113.99999965896664 2.0000000045385558
    vertex 42.03407365263715 1.741181063493464 2.000001097880766
    vertex 21.895313315831995 113.99999961166584 2.000001337028097
  endloop
endfacet
facet normal -1.1775331883108846e-08 -4.6505029620354746e-10 1.0
  outer loop
    vertex 21.895313315831995 113.99999961166584 2.000001337028097
    vertex 42.03407365263715 1.741181063493464 2.000001097880766
    vertex 41.99999947892622 2.0000001085959846 2.000001098155665
  endloop
endfacet
facet normal -1.1775331883108846e-08 -4.6505029620354746e-10 1.0
  outer loop
    vertex 21.895313315831995 113.99999961166584 2.000001337028097
    vertex 41.99999947892622 2.0000001085959846 2.000001098155665
    vertex 30.210535542772384 124.99999936152656 2.000001433045928
  endloop
endfacet
facet normal -1.1775331883108846e-08 -4.6505029620354746e-10 1.0
  outer loop
    vertex 42.99999947892621 1.0000001085959862 2.000001099894896
    vertex 85.49999897600667 2.2320407237879662e-07 2.0000014157696655
    vertex 43.25881852402874 1.034074282306918 2.000001100780529
  endloop
endfacet
facet normal -1.1775331883108846e-08 -4.6505029620354746e-10 1.0
  outer loop
    vertex 43.25881852402874 1.034074282306918 2.000001100780529
    vertex 85.49999897600667 2.2320407237879662e-07 2.0000014157696655
    vertex 43.49999947892621 1.1339747048115474 2.0000011017071335
  endloop
endfacet
facet normal -1.1775331883108846e-08 -4.6505029620354746e-10 1.0
  outer loop
    vertex 43.49999947892621 1.1339747048115474 2.0000011017071335
    vertex 85.49999897600667 2.2320407237879662e-07 2.0000014157696655
    vertex 43.70710626011276 1.292893327409438 2.0000011026115643
  endloop
endfacet
facet normal -1.1775331883108846e-08 -4.6505029620354746e-10 1.0
  outer loop
    vertex 43.70710626011276 1.292893327409438 2.0000011026115643
    vertex 85.49999897600667 2.2320407237879662e-07 2.0000014157696655
    vertex 43.866024882710654 1.5000001085959853 2.000001103432183
  endloop
endfacet
facet normal -1.1775331883108846e-08 -4.6505029620354746e-10 1.0
  outer loop
    vertex 43.866024882710654 1.5000001085959853 2.000001103432183
    vertex 85.49999897600667 2.2320407237879662e-07 2.0000014157696655
    vertex 43.96592530521528 1.7411810634934641 2.0000011041130668
  endloop
endfacet
facet normal -1.1775331883108846e-08 -4.6505029620354746e-10 1.0
  outer loop
    vertex 43.96592530521528 1.7411810634934641 2.0000011041130668
    vertex 85.49999897600667 2.2320407237879662e-07 2.0000014157696655
    vertex 43.99999947892621 2.0000001085959846 2.000001104607816
  endloop
endfacet
facet normal -1.1775331883108846e-08 -4.6505029620354746e-10 1.0
  outer loop
    vertex 43.99999947892621 2.0000001085959846 2.000001104607816
    vertex 85.49999897600667 2.2320407237879662e-07 2.0000014157696655
    vertex 51.895313197464965 124.99999911691287 2.0000009237837366
  endloop
endfacet
facet normal -1.1775331883108846e-08 -4.6505029620354746e-10 1.0
  outer loop
    vertex 51.895313197464965 124.99999911691287 2.0000009237837366
    vertex 85.49999897600667 2.2320407237879662e-07 2.0000014157696655
    vertex 68.49999936677197 65.99999936834249 2.000001633488189
  endloop
endfacet
facet normal -1.1775331883108846e-08 -4.6505029620354746e-10 1.0
  outer loop
    vertex 51.895313197464965 124.99999911691287 2.0000009237837366
    vertex 68.49999936677197 65.99999936834249 2.000001633488189
    vertex 68.49999936653636 117.23385363933319 2.000001514364676
  endloop
endfacet
facet normal -1.1775331883108846e-08 -4.6505029620354746e-10 1.0
  outer loop
    vertex 68.49999936677197 65.99999936834249 2.000001633488189
    vertex 85.49999897600667 2.2320407237879662e-07 2.0000014157696655
    vertex 85.4999991582859 65.99999956977727 2.0000015657973056
  endloop
endfacet
facet normal -1.1775331883108846e-08 -4.6505029620354746e-10 1.0
  outer loop
    vertex 41.99999947892622 2.0000001085959846 2.000001098155665
    vertex 51.895313197464965 124.99999911691287 2.0000009237837366
    vertex 30.210535542772384 124.99999936152656 2.000001433045928
  endloop
endfacet
facet normal -1.1775331883108846e-08 -4.6505029620354746e-10 1.0
  outer loop
    vertex 51.895313197464965 124.99999911691287 2.0000009237837366
    vertex 41.99999947892622 2.0000001085959846 2.000001098155665
    vertex 42.03407365263715 2.2588191536985045 2.0000010986504138
  endloop
endfacet
facet normal -1.1775331883108846e-08 -4.6505029620354746e-10 1.0
  outer loop
    vertex 51.895313197464965 124.99999911691287 2.0000009237837366
    vertex 42.03407365263715 2.2588191536985045 2.0000010986504138
    vertex 42.13397407514178 2.5000001085959833 2.0000010993312975
  endloop
endfacet
facet normal -1.1775331883108846e-08 -4.6505029620354746e-10 1.0
  outer loop
    vertex 51.895313197464965 124.99999911691287 2.0000009237837366
    vertex 42.13397407514178 2.5000001085959833 2.0000010993312975
    vertex 42.29289269773967 2.7071068897825303 2.0000011001519162
  endloop
endfacet
facet normal -1.1775331883108846e-08 -4.6505029620354746e-10 1.0
  outer loop
    vertex 51.895313197464965 124.99999911691287 2.0000009237837366
    vertex 42.29289269773967 2.7071068897825303 2.0000011001519162
    vertex 42.49999947892621 2.8660255123804212 2.0000011010563474
  endloop
endfacet
facet normal -1.1775331883108846e-08 -4.6505029620354746e-10 1.0
  outer loop
    vertex 51.895313197464965 124.99999911691287 2.0000009237837366
    vertex 42.49999947892621 2.8660255123804212 2.0000011010563474
    vertex 42.74118043382369 2.9659259348850506 2.0000011019829516
  endloop
endfacet
facet normal -1.1775331883108846e-08 -4.6505029620354746e-10 1.0
  outer loop
    vertex 51.895313197464965 124.99999911691287 2.0000009237837366
    vertex 42.74118043382369 2.9659259348850506 2.0000011019829516
    vertex 42.99999947892621 3.000000108595983 2.0000011028685845
  endloop
endfacet
facet normal -1.1775331883108846e-08 -4.6505029620354746e-10 1.0
  outer loop
    vertex 51.895313197464965 124.99999911691287 2.0000009237837366
    vertex 42.99999947892621 3.000000108595983 2.0000011028685845
    vertex 43.25881852402873 2.965925934885051 2.0000011036528904
  endloop
endfacet
facet normal -1.1775331883108846e-08 -4.6505029620354746e-10 1.0
  outer loop
    vertex 51.895313197464965 124.99999911691287 2.0000009237837366
    vertex 43.25881852402873 2.965925934885051 2.0000011036528904
    vertex 43.49999947892621 2.866025512380422 2.000001104282423
  endloop
endfacet
facet normal -1.1775331883108846e-08 -4.6505029620354746e-10 1.0
  outer loop
    vertex 51.895313197464965 124.99999911691287 2.0000009237837366
    vertex 43.49999947892621 2.866025512380422 2.000001104282423
    vertex 43.70710626011276 2.707106889782531 2.000001104714278
  endloop
endfacet
facet normal -1.1775331883108846e-08 -4.6505029620354746e-10 1.0
  outer loop
    vertex 51.895313197464965 124.99999911691287 2.0000009237837366
    vertex 43.70710626011276 2.707106889782531 2.000001104714278
    vertex 43.866024882710654 2.5000001085959838 2.0000011049190247
  endloop
endfacet
facet normal -1.1775331883108846e-08 -4.6505029620354746e-10 1.0
  outer loop
    vertex 51.895313197464965 124.99999911691287 2.0000009237837366
    vertex 43.866024882710654 2.5000001085959838 2.0000011049190247
    vertex 43.96592530521528 2.2588191536985054 2.0000011048827147
  endloop
endfacet
facet normal -1.1775331883108846e-08 -4.6505029620354746e-10 1.0
  outer loop
    vertex 51.895313197464965 124.99999911691287 2.0000009237837366
    vertex 43.96592530521528 2.2588191536985054 2.0000011048827147
    vertex 43.99999947892621 2.0000001085959846 2.000001104607816
  endloop
endfacet
facet normal 1.0 -2.761806687253139e-09 9.077111145216677e-09
  outer loop
    vertex 85.49999899416089 2.278352728191838e-07 1.4157696658610776e-06
    vertex 85.4999991582859 65.99999956977727 2.0000015657973056
    vertex 85.49999897600667 2.2320407237879662e-07 2.0000014157696655
  endloop
endfacet
facet normal 1.0 -2.761806687253139e-09 9.077111145216677e-09
  outer loop
    vertex 85.4999991582859 65.99999956977727 2.0000015657973056
    vertex 85.49999899416089 2.278352728191838e-07 1.4157696658610776e-06
    vertex 85.49999917644013 65.99999957440848 1.5657973055281716e-06
  endloop
endfacet
facet normal 1.0 4.609315250270431e-12 9.077109271599585e-09
  outer loop
    vertex 68.49999938492618 65.99999937297368 1.6334881895021454e-06
    vertex 68.49999936653636 117.23385363933319 2.000001514364676
    vertex 68.49999936677197 65.99999936834249 2.000001633488189
  endloop
endfacet
facet normal 1.0 4.609315250270431e-12 9.077109271599585e-09
  outer loop
    vertex 68.49999936653636 117.23385363933319 2.000001514364676
    vertex 68.49999938492618 65.99999937297368 1.6334881895021454e-06
    vertex 68.49999938469057 117.23385358353532 1.514364678060348e-06
  endloop
endfacet
endsolid WL-HandRemote-BackCover
