solid HandRemote-BackCover
facet normal -1.654681090939523e-08 1.0 8.503871939242455e-11
  outer loop
    vertex 27.645834029169137 123.99999907200748 2.5000004873746473
    vertex 48.970644124275786 123.999999424695 4.50000006251605
    vertex 48.97064414722345 123.99999942486511 2.5000000625160608
  endloop
endfacet
facet normal -1.654681090939523e-08 1.0 8.503871939242455e-11
  outer loop
    vertex 48.970644124275786 123.999999424695 4.50000006251605
    vertex 27.645834029169137 123.99999907200748 2.5000004873746473
    vertex 27.64583400622149 123.99999907183742 4.500000487374624
  endloop
endfacet
facet normal 0.7977238921565333 0.6030228784073053 9.204259754843336e-09
  outer loop
    vertex 57.285866430387856 112.99999972105248 2.5000000996579654
    vertex 48.970644124275786 123.999999424695 4.50000006251605
    vertex 57.28586640744025 112.99999972088214 4.500000099657964
  endloop
endfacet
facet normal 0.7977238921565333 0.6030228784073053 9.204259754843336e-09
  outer loop
    vertex 48.970644124275786 123.999999424695 4.50000006251605
    vertex 57.285866430387856 112.99999972105248 2.5000000996579654
    vertex 48.97064414722345 123.99999942486511 2.5000000625160608
  endloop
endfacet
facet normal -7.476280291538978e-09 1.0 8.510650266189723e-11
  outer loop
    vertex 57.28586640744025 112.99999972088214 4.500000099657964
    vertex 78.92999814270449 112.99999988286996 2.5000014366318157
    vertex 57.285866430387856 112.99999972105248 2.5000000996579654
  endloop
endfacet
facet normal -7.476280291538978e-09 1.0 8.510650266189723e-11
  outer loop
    vertex 78.92999814270449 112.99999988286996 2.5000014366318157
    vertex 57.28586640744025 112.99999972088214 4.500000099657964
    vertex 78.92999811975686 112.99999988269985 4.500001436631816
  endloop
endfacet
facet normal 1.0 7.214522119488188e-09 4.904569480048229e-09
  outer loop
    vertex 78.92999814270449 112.99999988286996 2.5000014366318157
    vertex 78.92999847303639 64.99999922809968 4.500000429195053
    vertex 78.92999847593472 64.99999922485291 2.500001096485633
  endloop
endfacet
facet normal 1.0 7.214522119488188e-09 4.904569480048229e-09
  outer loop
    vertex 78.92999847303639 64.99999922809968 4.500000429195053
    vertex 78.92999814270449 112.99999988286996 2.5000014366318157
    vertex 78.92999811975686 112.99999988269985 4.500001436631816
  endloop
endfacet
facet normal -1.0 -8.053630417768202e-09 -1.0210990696134108e-08
  outer loop
    vertex -1.500000021962198 -0.40000000769097405 4.499999992437433
    vertex -1.500000178631873 21.099999994710995 2.4999999552938386
    vertex -1.500000009658343 -0.40000000769097416 2.4999999935441335
  endloop
endfacet
facet normal -1.0 -8.053630417768202e-09 -1.0210990696134108e-08
  outer loop
    vertex -1.500000178631873 21.099999994710995 2.4999999552938386
    vertex -1.500000021962198 -0.40000000769097405 4.499999992437433
    vertex -1.5000005560982788 64.99999933862281 4.499999873739648
  endloop
endfacet
facet normal -1.0 -8.053630417768202e-09 -1.0210990696134108e-08
  outer loop
    vertex -1.500000178631873 21.099999994710995 2.4999999552938386
    vertex -1.5000005560982788 64.99999933862281 4.499999873739648
    vertex -1.5000002994996782 36.09999999670423 2.4999999276053906
  endloop
endfacet
facet normal -1.0 -8.053630417768202e-09 -1.0210990696134108e-08
  outer loop
    vertex -1.5000002994996782 36.09999999670423 2.4999999276053906
    vertex -1.5000005560982788 64.99999933862281 4.499999873739648
    vertex -1.500000533150666 64.99999933879297 2.4999998737396343
  endloop
endfacet
facet normal 6.494227388462684e-09 1.0 4.25420863813925e-11
  outer loop
    vertex -1.500000533150666 64.99999933879297 2.4999998737396343
    vertex 10.429999231401494 64.99999926123176 4.500000132008523
    vertex 10.429999256980066 64.99999926123176 2.4999998142362867
  endloop
endfacet
facet normal 6.494227388462684e-09 1.0 4.25420863813925e-11
  outer loop
    vertex 10.429999231401494 64.99999926123176 4.500000132008523
    vertex -1.500000533150666 64.99999933879297 2.4999998737396343
    vertex -1.5000005560982788 64.99999933862281 4.499999873739648
  endloop
endfacet
facet normal -1.0 -5.248656982618378e-09 -1.1912317122423422e-08
  outer loop
    vertex 10.42999896472569 116.18186826399446 4.49999996323815
    vertex 10.429999256980066 64.99999926123176 2.4999998142362867
    vertex 10.429999231401494 64.99999926123176 4.500000132008523
  endloop
endfacet
facet normal -1.0 -5.248656982618378e-09 -1.1912317122423422e-08
  outer loop
    vertex 10.429999256980066 64.99999926123176 2.4999998142362867
    vertex 10.42999896472569 116.18186826399446 4.49999996323815
    vertex 10.429998987673336 116.18186826416456 2.499999963238151
  endloop
endfacet
facet normal -0.8320502945750765 -7.816415294777548e-09 -0.5547001958693797
  outer loop
    vertex -1.500000533150666 64.99999933879297 2.4999998737396343
    vertex -0.5000002981007194 36.100000001993244 0.9999999270635525
    vertex -1.5000002994996782 36.09999999670423 2.4999999276053906
  endloop
endfacet
facet normal -0.8320502945750765 -7.816415294777548e-09 -0.5547001958693797
  outer loop
    vertex -0.5000002981007194 36.100000001993244 0.9999999270635525
    vertex -1.500000533150666 64.99999933879297 2.4999998737396343
    vertex -0.5000005251224828 63.99999933309365 0.9999998714520968
  endloop
endfacet
facet normal 0.8320503019421257 1.009614969813166e-08 -0.5547001848188057
  outer loop
    vertex 82.99999898222868 0.7999996090186469 1.000000620514683
    vertex 83.99999848822894 64.99999922809968 2.5000010929051464
    vertex 83.99999898298218 -0.40000039200542764 2.500000627545768
  endloop
endfacet
facet normal 0.8320503019421257 1.009614969813166e-08 -0.5547001848188057
  outer loop
    vertex 83.99999848822894 64.99999922809968 2.5000010929051464
    vertex 82.99999898222868 0.7999996090186469 1.000000620514683
    vertex 82.99999851648552 63.9999992223484 1.000001045174024
  endloop
endfacet
facet normal 2.850678944180076e-08 0.8320502987442486 -0.554700189615621
  outer loop
    vertex 57.285866430387856 112.99999972105248 2.5000000996579654
    vertex 77.92999815014196 111.99999987619576 1.000001367700112
    vertex 56.78822918615794 111.9999997181341 1.0000000256007726
  endloop
endfacet
facet normal 2.850678944180076e-08 0.8320502987442486 -0.554700189615621
  outer loop
    vertex 77.92999815014196 111.99999987619576 1.000001367700112
    vertex 57.285866430387856 112.99999972105248 2.5000000996579654
    vertex 78.92999814270449 112.99999988286996 2.5000014366318157
  endloop
endfacet
facet normal 0.6637464020691995 0.5017453662970153 -0.5547001903187581
  outer loop
    vertex 48.4730069064056 122.9999994174328 1.0000000908676836
    vertex 57.285866430387856 112.99999972105248 2.5000000996579654
    vertex 56.78822918615794 111.9999997181341 1.0000000256007726
  endloop
endfacet
facet normal 0.6637464020691995 0.5017453662970153 -0.5547001903187581
  outer loop
    vertex 57.285866430387856 112.99999972105248 2.5000000996579654
    vertex 48.4730069064056 122.9999994174328 1.0000000908676836
    vertex 48.97064414722345 123.99999942486511 2.5000000625160608
  endloop
endfacet
facet normal -2.3154415983724084e-08 0.8320503022556611 -0.5547001843485023
  outer loop
    vertex 27.868131861627894 122.99999907648784 1.0000003733070821
    vertex 48.97064414722345 123.99999942486511 2.5000000625160608
    vertex 48.4730069064056 122.9999994174328 1.0000000908676836
  endloop
endfacet
facet normal -2.3154415983724084e-08 0.8320503022556611 -0.5547001843485023
  outer loop
    vertex 48.97064414722345 123.99999942486511 2.5000000625160608
    vertex 27.868131861627894 122.99999907648784 1.0000003733070821
    vertex 27.645834029169137 123.99999907200748 2.5000004873746473
  endloop
endfacet
facet normal 2.56697354760437e-09 0.8320502943372471 -0.5547001962261242
  outer loop
    vertex -0.5000005251224828 63.99999933309365 0.9999998714520968
    vertex 10.429999256980066 64.99999926123176 2.4999998142362867
    vertex 11.429999262440486 63.99999925553245 0.999999808688212
  endloop
endfacet
facet normal 2.56697354760437e-09 0.8320502943372471 -0.5547001962261242
  outer loop
    vertex 10.429999256980066 64.99999926123176 2.4999998142362867
    vertex -0.5000005251224828 63.99999933309365 0.9999998714520968
    vertex -1.500000533150666 64.99999933879297 2.4999998737396343
  endloop
endfacet
facet normal -1.0 -8.08258530118557e-09 -9.800713444983338e-09
  outer loop
    vertex -0.5000002981007194 36.100000001993244 0.9999999270635525
    vertex -0.50000051380413 63.99999933287157 -1.285478788304317e-07
    vertex -0.5000002898176454 36.1 -7.214981532034079e-08
  endloop
endfacet
facet normal -1.0 -8.08258530118557e-09 -9.800713444983338e-09
  outer loop
    vertex -0.50000051380413 63.99999933287157 -1.285478788304317e-07
    vertex -0.5000002981007194 36.100000001993244 0.9999999270635525
    vertex -0.5000005251224828 63.99999933309365 0.9999998714520968
  endloop
endfacet
facet normal 6.501360274746218e-09 1.0 -2.221117913036237e-10
  outer loop
    vertex -0.5000005251224828 63.99999933309365 0.9999998714520968
    vertex 11.429999270929303 63.99999925531031 -5.028928081557401e-08
    vertex -0.50000051380413 63.99999933287157 -1.285478788304317e-07
  endloop
endfacet
facet normal 6.501360274746218e-09 1.0 -2.221117913036237e-10
  outer loop
    vertex 11.429999270929303 63.99999925531031 -5.028928081557401e-08
    vertex -0.5000005251224828 63.99999933309365 0.9999998714520968
    vertex 11.429999262440486 63.99999925553245 0.999999808688212
  endloop
endfacet
facet normal -1.654680693436846e-08 1.0 -2.2210074744873598e-10
  outer loop
    vertex 27.868131872946304 122.99999907626581 3.7330708400062914e-07
    vertex 48.4730069064056 122.9999994174328 1.0000000908676836
    vertex 48.47300691772398 122.99999941721063 9.08676502486827e-08
  endloop
endfacet
facet normal -1.654680693436846e-08 1.0 -2.2210074744873598e-10
  outer loop
    vertex 48.4730069064056 122.9999994174328 1.0000000908676836
    vertex 27.868131872946304 122.99999907626581 3.7330708400062914e-07
    vertex 27.868131861627894 122.99999907648784 1.0000003733070821
  endloop
endfacet
facet normal 0.7977238921565274 0.6030228784073133 8.894938616385675e-09
  outer loop
    vertex 48.47300691772398 122.99999941721063 9.08676502486827e-08
    vertex 56.78822918615794 111.9999997181341 1.0000000256007726
    vertex 56.78822919747631 111.99999971791185 2.560076961533042e-08
  endloop
endfacet
facet normal 0.7977238921565274 0.6030228784073133 8.894938616385675e-09
  outer loop
    vertex 56.78822918615794 111.9999997181341 1.0000000256007726
    vertex 48.47300691772398 122.99999941721063 9.08676502486827e-08
    vertex 48.4730069064056 122.9999994174328 1.0000000908676836
  endloop
endfacet
facet normal -7.476278867986929e-09 1.0 -2.2214576424853555e-10
  outer loop
    vertex 56.78822918615794 111.9999997181341 1.0000000256007726
    vertex 77.92999816146033 111.99999987597371 1.3677001097112118e-06
    vertex 56.78822919747631 111.99999971791185 2.560076961533042e-08
  endloop
endfacet
facet normal -7.476278867986929e-09 1.0 -2.2214576424853555e-10
  outer loop
    vertex 77.92999816146033 111.99999987597371 1.3677001097112118e-06
    vertex 56.78822918615794 111.9999997181341 1.0000000256007726
    vertex 77.92999815014196 111.99999987619576 1.000001367700112
  endloop
endfacet
facet normal -4.484872261608141e-08 -0.7071067935400371 0.7071067688330563
  outer loop
    vertex 73.42999816066292 107.49999984318444 1.5000010479776693
    vertex 56.04177329686541 110.49999971158125 4.499999914514989
    vertex 54.54886156417556 107.49999970202383 1.4999996058460727
  endloop
endfacet
facet normal -4.484872261608141e-08 -0.7071067935400371 0.7071067688330563
  outer loop
    vertex 56.04177329686541 110.49999971158125 4.499999914514989
    vertex 73.42999816066292 107.49999984318444 1.5000010479776693
    vertex 76.42999813835051 110.4999998640092 4.500001264302557
  endloop
endfacet
facet normal -0.5640759760565751 -0.42640159084375606 0.7071067646131921
  outer loop
    vertex 54.54886156417556 107.49999970202383 1.4999996058460727
    vertex 47.72655102223127 121.49999940410919 4.500000133395041
    vertex 46.23363929977785 118.49999938101047 1.5000000869541135
  endloop
endfacet
facet normal -0.5640759760565751 -0.42640159084375606 0.7071067646131921
  outer loop
    vertex 47.72655102223127 121.49999940410919 4.500000133395041
    vertex 54.54886156417556 107.49999970202383 1.4999996058460727
    vertex 56.04177329686541 110.49999971158125 4.499999914514989
  endloop
endfacet
facet normal 1.3394534593940928e-08 -0.7071067900280315 0.7071067723450633
  outer loop
    vertex 47.72655102223127 121.49999940410919 4.500000133395041
    vertex 28.868472084744564 118.49999909367216 1.5000001037890554
    vertex 46.23363929977785 118.49999938101047 1.5000000869541135
  endloop
endfacet
facet normal 1.3394534593940928e-08 -0.7071067900280315 0.7071067723450633
  outer loop
    vertex 28.868472084744564 118.49999909367216 1.5000001037890554
    vertex 47.72655102223127 121.49999940410919 4.500000133395041
    vertex 28.201578587368413 121.49999908103311 4.500000202205722
  endloop
endfacet
facet normal -1.0584690896083284e-08 -0.707106776171339 0.707106786201756
  outer loop
    vertex 3.9999994880566336 59.49999930446942 1.4999998604266025
    vertex 12.929999231401549 62.499999244808144 4.499999891883164
    vertex 0.9999994639721627 62.49999932236936 4.499999868020919
  endloop
endfacet
facet normal -1.0584690896083284e-08 -0.707106776171339 0.707106786201756
  outer loop
    vertex 12.929999231401549 62.499999244808144 4.499999891883164
    vertex 3.9999994880566336 59.49999930446942 1.4999998604266025
    vertex 15.929999231401492 59.49999922690822 1.500000038602602
  endloop
endfacet
facet normal -0.4134851928808697 0.9105108430261938 -4.666827187737843e-09
  outer loop
    vertex 10.42999896472569 116.18186826399446 4.49999996323815
    vertex 27.645834029169137 123.99999907200748 2.5000004873746473
    vertex 10.429998987673336 116.18186826416456 2.499999963238151
  endloop
endfacet
facet normal -0.4134851928808697 0.9105108430261938 -4.666827187737843e-09
  outer loop
    vertex 27.645834029169137 123.99999907200748 2.5000004873746473
    vertex 10.42999896472569 116.18186826399446 4.49999996323815
    vertex 27.64583400622149 123.99999907183742 4.500000487374624
  endloop
endfacet
facet normal -0.4129999149579291 0.9107310636212775 -4.876794396352436e-09
  outer loop
    vertex 11.42999899102112 115.54560584361268 0.9999999911550238
    vertex 27.868131872946304 122.99999907626581 3.7330708400062914e-07
    vertex 11.42999900233962 115.5456058433905 -8.84502509013174e-09
  endloop
endfacet
facet normal -0.4129999149579291 0.9107310636212775 -4.876794396352436e-09
  outer loop
    vertex 27.868131872946304 122.99999907626581 3.7330708400062914e-07
    vertex 11.42999899102112 115.54560584361268 0.9999999911550238
    vertex 27.868131861627894 122.99999907648784 1.0000003733070821
  endloop
endfacet
facet normal -0.3441057619849496 0.7582463424893586 -0.5537632243750641
  outer loop
    vertex 10.429998987673336 116.18186826416456 2.499999963238151
    vertex 27.868131861627894 122.99999907648784 1.0000003733070821
    vertex 11.42999899102112 115.54560584361268 0.9999999911550238
  endloop
endfacet
facet normal -0.3441057619849496 0.7582463424893586 -0.5537632243750641
  outer loop
    vertex 27.868131861627894 122.99999907648784 1.0000003733070821
    vertex 10.429998987673336 116.18186826416456 2.499999963238151
    vertex 27.645834029169137 123.99999907200748 2.5000004873746473
  endloop
endfacet
facet normal 0.29125525607731223 -0.6454521079795424 0.7060891955780829
  outer loop
    vertex 15.929998983138942 112.68242494815189 1.5000000516658327
    vertex 28.201578587368413 121.49999908103311 4.500000202205722
    vertex 12.929998973095389 114.59121221060965 4.500000033030284
  endloop
endfacet
facet normal 0.29125525607731223 -0.6454521079795424 0.7060891955780829
  outer loop
    vertex 28.201578587368413 121.49999908103311 4.500000202205722
    vertex 15.929998983138942 112.68242494815189 1.5000000516658327
    vertex 28.868472084744564 118.49999909367216 1.5000001037890554
  endloop
endfacet
facet normal -1.0 -7.858620185931803e-09 -9.393529629375844e-09
  outer loop
    vertex -0.50000017554688 21.100000000000005 0.9999999569621852
    vertex -0.5000000128451024 1.5999999999999999 -2.410272753194993e-09
    vertex -0.5000000191931867 0.8000000185608267 0.9999999974250017
  endloop
endfacet
facet normal -1.0 -7.858620185931803e-09 -9.393529629375844e-09
  outer loop
    vertex -0.5000000128451024 1.5999999999999999 -2.410272753194993e-09
    vertex -0.50000017554688 21.100000000000005 0.9999999569621852
    vertex -0.5000001693948011 21.100000000000005 -4.1828275073755666e-08
  endloop
endfacet
facet normal -0.8320502933911424 -7.547097983403046e-09 -0.5547001976452811
  outer loop
    vertex -1.500000178631873 21.099999994710995 2.4999999552938386
    vertex -0.5000000191931867 0.8000000185608267 0.9999999974250017
    vertex -1.500000009658343 -0.40000000769097416 2.4999999935441335
  endloop
endfacet
facet normal -0.8320502933911424 -7.547097983403046e-09 -0.5547001976452811
  outer loop
    vertex -0.5000000191931867 0.8000000185608267 0.9999999974250017
    vertex -1.500000178631873 21.099999994710995 2.4999999552938386
    vertex -0.50000017554688 21.100000000000005 0.9999999569621852
  endloop
endfacet
facet normal -2.3320789310799516e-10 -1.0 -1.5048758314191103e-09
  outer loop
    vertex 3.4999997101823546 36.1 -7.214981532034079e-08
    vertex -0.5000002981007194 36.100000001993244 0.9999999270635525
    vertex -0.5000002898176454 36.1 -7.214981532034079e-08
  endloop
endfacet
facet normal -2.3320789310799516e-10 -1.0 -1.5048758314191103e-09
  outer loop
    vertex -0.5000002981007194 36.100000001993244 0.9999999270635525
    vertex 3.4999997101823546 36.1 -7.214981532034079e-08
    vertex -1.5000002994996782 36.09999999670423 2.4999999276053906
  endloop
endfacet
facet normal 1.489861377645838e-10 1.0 2.234792063987115e-09
  outer loop
    vertex -0.50000017554688 21.100000000000005 0.9999999569621852
    vertex 3.4999998306051983 21.100000000000005 -4.1828275073755666e-08
    vertex -0.5000001693948011 21.100000000000005 -4.1828275073755666e-08
  endloop
endfacet
facet normal 1.489861377645838e-10 1.0 2.234792063987115e-09
  outer loop
    vertex 3.4999998306051983 21.100000000000005 -4.1828275073755666e-08
    vertex -0.50000017554688 21.100000000000005 0.9999999569621852
    vertex -1.500000178631873 21.099999994710995 2.4999999552938386
  endloop
endfacet
facet normal -0.4472135945996467 -5.326472318311879e-09 -0.8944271914500714
  outer loop
    vertex 3.4999997101823546 36.1 -7.214981532034079e-08
    vertex -1.500000178631873 21.099999994710995 2.4999999552938386
    vertex -1.5000002994996782 36.09999999670423 2.4999999276053906
  endloop
endfacet
facet normal -0.4472135945996467 -5.326472318311879e-09 -0.8944271914500714
  outer loop
    vertex -1.500000178631873 21.099999994710995 2.4999999552938386
    vertex 3.4999997101823546 36.1 -7.214981532034079e-08
    vertex 3.4999998306051983 21.100000000000005 -4.1828275073755666e-08
  endloop
endfacet
facet normal 1.0 7.545921435789746e-09 7.636233381886288e-09
  outer loop
    vertex 83.99999848822894 64.99999922809968 2.5000010929051464
    vertex 83.99999897158622 -0.40000039200542764 4.5000006274419615
    vertex 83.99999898298218 -0.40000039200542764 2.500000627545768
  endloop
endfacet
facet normal 1.0 7.545921435789746e-09 7.636233381886288e-09
  outer loop
    vertex 83.99999897158622 -0.40000039200542764 4.5000006274419615
    vertex 83.99999848822894 64.99999922809968 2.5000010929051464
    vertex 83.99999847675514 64.99999922809968 4.500000448356726
  endloop
endfacet
facet normal 1.0 7.404004397256087e-09 2.9447568223118197e-09
  outer loop
    vertex 82.99999898041627 1.5999999999999872 3.1452315374394003e-07
    vertex 82.99999851648552 63.9999992223484 1.000001045174024
    vertex 82.99999898222868 0.7999996090186469 1.000000620514683
  endloop
endfacet
facet normal 1.0 7.404004397256087e-09 2.9447568223118197e-09
  outer loop
    vertex 82.99999851648552 63.9999992223484 1.000001045174024
    vertex 82.99999898041627 1.5999999999999872 3.1452315374394003e-07
    vertex 82.99999851752814 63.9999992223484 3.5339531775111407e-07
  endloop
endfacet
facet normal -1.0 -5.263321809983842e-09 -9.432046185600694e-09
  outer loop
    vertex 11.429999262440486 63.99999925553245 0.999999808688212
    vertex 11.42999900233962 115.5456058433905 -8.84502509013174e-09
    vertex 11.429999270929303 63.99999925531031 -5.028928081557401e-08
  endloop
endfacet
facet normal -1.0 -5.263321809983842e-09 -9.432046185600694e-09
  outer loop
    vertex 11.42999900233962 115.5456058433905 -8.84502509013174e-09
    vertex 11.429999262440486 63.99999925553245 0.999999808688212
    vertex 11.42999899102112 115.54560584361268 0.9999999911550238
  endloop
endfacet
facet normal -0.8320502927023469 -2.5401252670494027e-09 -0.5547001986784743
  outer loop
    vertex 10.429999256980066 64.99999926123176 2.4999998142362867
    vertex 11.42999899102112 115.54560584361268 0.9999999911550238
    vertex 11.429999262440486 63.99999925553245 0.999999808688212
  endloop
endfacet
facet normal -0.8320502927023469 -2.5401252670494027e-09 -0.5547001986784743
  outer loop
    vertex 11.42999899102112 115.54560584361268 0.9999999911550238
    vertex 10.429999256980066 64.99999926123176 2.4999998142362867
    vertex 10.429998987673336 116.18186826416456 2.499999963238151
  endloop
endfacet
facet normal 1.0 7.47547682952772e-09 5.152210248608901e-09
  outer loop
    vertex 77.92999816146033 111.99999987597371 1.3677001097112118e-06
    vertex 77.92999851174996 63.99999922522388 1.0000010485336703
    vertex 77.9299985138191 63.9999992223484 3.347437777859852e-07
  endloop
endfacet
facet normal 1.0 7.47547682952772e-09 5.152210248608901e-09
  outer loop
    vertex 77.92999851174996 63.99999922522388 1.0000010485336703
    vertex 77.92999816146033 111.99999987597371 1.3677001097112118e-06
    vertex 77.92999815014196 111.99999987619576 1.000001367700112
  endloop
endfacet
facet normal 0.8320503071713172 9.894977147979764e-09 -0.5547001769750181
  outer loop
    vertex 77.92999815014196 111.99999987619576 1.000001367700112
    vertex 78.92999847593472 64.99999922485291 2.500001096485633
    vertex 77.92999851174996 63.99999922522388 1.0000010485336703
  endloop
endfacet
facet normal 0.8320503071713172 9.894977147979764e-09 -0.5547001769750181
  outer loop
    vertex 78.92999847593472 64.99999922485291 2.500001096485633
    vertex 77.92999815014196 111.99999987619576 1.000001367700112
    vertex 78.92999814270449 112.99999988286996 2.5000014366318157
  endloop
endfacet
facet normal -0.7071067485902516 -1.329247959349839e-08 0.707106813782842
  outer loop
    vertex 76.42999847303638 62.499999244808144 4.500000399289626
    vertex 73.42999816066292 107.49999984318444 1.5000010479776693
    vertex 73.42999816066292 59.49999922690822 1.5000007136417959
  endloop
endfacet
facet normal -0.7071067485902516 -1.329247959349839e-08 0.707106813782842
  outer loop
    vertex 73.42999816066292 107.49999984318444 1.5000010479776693
    vertex 76.42999847303638 62.499999244808144 4.500000399289626
    vertex 76.42999813835051 110.4999998640092 4.500001264302557
  endloop
endfacet
facet normal 0.707106763247386 3.4621024155299957e-09 0.7071067991257086
  outer loop
    vertex 12.929999231401549 62.499999244808144 4.499999891883164
    vertex 15.929998983138942 112.68242494815189 1.5000000516658327
    vertex 12.929998973095389 114.59121221060965 4.500000033030284
  endloop
endfacet
facet normal 0.707106763247386 3.4621024155299957e-09 0.7071067991257086
  outer loop
    vertex 15.929998983138942 112.68242494815189 1.5000000516658327
    vertex 12.929999231401549 62.499999244808144 4.499999891883164
    vertex 15.929999231401492 59.49999922690822 1.500000038602602
  endloop
endfacet
facet normal 2.835785012365372e-10 1.0 -1.4377419962876385e-09
  outer loop
    vertex 77.92999851174996 63.99999922522388 1.0000010485336703
    vertex 82.99999851752814 63.9999992223484 3.5339531775111407e-07
    vertex 77.9299985138191 63.9999992223484 3.347437777859852e-07
  endloop
endfacet
facet normal 2.835785012365372e-10 1.0 -1.4377419962876385e-09
  outer loop
    vertex 82.99999851752814 63.9999992223484 3.5339531775111407e-07
    vertex 77.92999851174996 63.99999922522388 1.0000010485336703
    vertex 82.99999851648552 63.9999992223484 1.000001045174024
  endloop
endfacet
facet normal -8.270211146168937e-09 -5.361767588219292e-10 1.0
  outer loop
    vertex -1.500000021962198 -0.40000000769097405 4.499999992437433
    vertex 0.9999999376353298 3.500000003199714 4.500000004239958
    vertex 0.9999994639721627 62.49999932236936 4.499999868020919
  endloop
endfacet
facet normal -8.270211146168937e-09 -5.361767588219292e-10 1.0
  outer loop
    vertex 0.9999999376353298 3.500000003199714 4.500000004239958
    vertex -1.500000021962198 -0.40000000769097405 4.499999992437433
    vertex 41.49999946261542 0.30000010852725484 4.500000310736649
  endloop
endfacet
facet normal -8.270211146168937e-09 -5.361767588219292e-10 1.0
  outer loop
    vertex 41.49999946261542 0.30000010852725484 4.500000310736649
    vertex -1.500000021962198 -0.40000000769097405 4.499999992437433
    vertex 83.99999897158622 -0.40000039200542764 4.5000006274419615
  endloop
endfacet
facet normal -8.270211146168937e-09 -5.361767588219292e-10 1.0
  outer loop
    vertex 0.9999999376353298 3.500000003199714 4.500000004239958
    vertex 41.49999946261542 0.30000010852725484 4.500000310736649
    vertex 41.189416608277064 0.34088911534473815 4.500000309695751
  endloop
endfacet
facet normal -8.270211146168937e-09 -5.361767588219292e-10 1.0
  outer loop
    vertex 0.9999999376353298 3.500000003199714 4.500000004239958
    vertex 41.189416608277064 0.34088911534473815 4.500000309695751
    vertex 40.89999946176875 0.46076962082612477 4.500000308647928
  endloop
endfacet
facet normal -8.270211146168937e-09 -5.361767588219292e-10 1.0
  outer loop
    vertex 0.9999999376353298 3.500000003199714 4.500000004239958
    vertex 40.89999946176875 0.46076962082612477 4.500000308647928
    vertex 40.651471323340594 0.6514719666347605 4.500000307664586
  endloop
endfacet
facet normal -8.270211146168937e-09 -5.361767588219292e-10 1.0
  outer loop
    vertex 0.9999999376353298 3.500000003199714 4.500000004239958
    vertex 40.651471323340594 0.6514719666347605 4.500000307664586
    vertex 40.46076897491429 0.9000001030543142 4.5000003068127405
  endloop
endfacet
facet normal -8.270211146168937e-09 -5.361767588219292e-10 1.0
  outer loop
    vertex 0.9999999376353298 3.500000003199714 4.500000004239958
    vertex 40.46076897491429 0.9000001030543142 4.5000003068127405
    vertex 40.34088846638457 1.1894172482999577 4.500000306150442
  endloop
endfacet
facet normal -8.270211146168937e-09 -5.361767588219292e-10 1.0
  outer loop
    vertex 0.9999999376353298 3.500000003199714 4.500000004239958
    vertex 40.34088846638457 1.1894172482999577 4.500000306150442
    vertex 40.299999456295815 1.5000001022076468 4.500000305722824
  endloop
endfacet
facet normal -8.270211146168937e-09 -5.361767588219292e-10 1.0
  outer loop
    vertex 41.49999946261542 0.30000010852725484 4.500000310736649
    vertex 83.99999897158622 -0.40000039200542764 4.5000006274419615
    vertex 41.81058231652311 0.34088911861600757 4.500000311699686
  endloop
endfacet
facet normal -8.270211146168937e-09 -5.361767588219292e-10 1.0
  outer loop
    vertex 41.81058231652311 0.34088911861600757 4.500000311699686
    vertex 83.99999897158622 -0.40000039200542764 4.5000006274419615
    vertex 42.09999946176875 0.46076962714573205 4.500000312519233
  endloop
endfacet
facet normal -8.270211146168937e-09 -5.361767588219292e-10 1.0
  outer loop
    vertex 42.09999946176875 0.46076962714573205 4.500000312519233
    vertex 83.99999897158622 -0.40000039200542764 4.5000006274419615
    vertex 42.348527598188305 0.6514719755720348 4.500000313139438
  endloop
endfacet
facet normal -8.270211146168937e-09 -5.361767588219292e-10 1.0
  outer loop
    vertex 42.348527598188305 0.6514719755720348 4.500000313139438
    vertex 83.99999897158622 -0.40000039200542764 4.5000006274419615
    vertex 42.539229943996936 0.9000001140001946 4.500000313518037
  endloop
endfacet
facet normal -8.270211146168937e-09 -5.361767588219292e-10 1.0
  outer loop
    vertex 42.539229943996936 0.9000001140001946 4.500000313518037
    vertex 83.99999897158622 -0.40000039200542764 4.5000006274419615
    vertex 42.659110449478334 1.1894172605085005 4.500000313629228
  endloop
endfacet
facet normal -8.270211146168937e-09 -5.361767588219292e-10 1.0
  outer loop
    vertex 42.659110449478334 1.1894172605085005 4.500000313629228
    vertex 83.99999897158622 -0.40000039200542764 4.5000006274419615
    vertex 42.699999456295814 1.50000011484686 4.500000313465434
  endloop
endfacet
facet normal -8.270211146168937e-09 -5.361767588219292e-10 1.0
  outer loop
    vertex 42.699999456295814 1.50000011484686 4.500000313465434
    vertex 83.99999897158622 -0.40000039200542764 4.5000006274419615
    vertex 81.49999893415915 3.5000002138549773 4.500000623036926
  endloop
endfacet
facet normal -8.270211146168937e-09 -5.361767588219292e-10 1.0
  outer loop
    vertex 81.49999893415915 3.5000002138549773 4.500000623036926
    vertex 83.99999897158622 -0.40000039200542764 4.5000006274419615
    vertex 83.99999847675514 64.99999922809968 4.500000448356726
  endloop
endfacet
facet normal -8.270211146168937e-09 -5.361767588219292e-10 1.0
  outer loop
    vertex 10.42999896472569 116.18186826399446 4.49999996323815
    vertex 12.929998973095389 114.59121221060965 4.500000033030284
    vertex 27.64583400622149 123.99999907183742 4.500000487374624
  endloop
endfacet
facet normal -8.270211146168937e-09 -5.361767588219292e-10 1.0
  outer loop
    vertex 12.929998973095389 114.59121221060965 4.500000033030284
    vertex 10.42999896472569 116.18186826399446 4.49999996323815
    vertex 10.429999231401494 64.99999926123176 4.500000132008523
  endloop
endfacet
facet normal -8.270211146168937e-09 -5.361767588219292e-10 1.0
  outer loop
    vertex 27.64583400622149 123.99999907183742 4.500000487374624
    vertex 12.929998973095389 114.59121221060965 4.500000033030284
    vertex 28.201578587368413 121.49999908103311 4.500000202205722
  endloop
endfacet
facet normal -8.270211146168937e-09 -5.361767588219292e-10 1.0
  outer loop
    vertex 27.64583400622149 123.99999907183742 4.500000487374624
    vertex 28.201578587368413 121.49999908103311 4.500000202205722
    vertex 48.970644124275786 123.999999424695 4.50000006251605
  endloop
endfacet
facet normal -8.270211146168937e-09 -5.361767588219292e-10 1.0
  outer loop
    vertex 48.970644124275786 123.999999424695 4.50000006251605
    vertex 28.201578587368413 121.49999908103311 4.500000202205722
    vertex 47.72655102223127 121.49999940410919 4.500000133395041
  endloop
endfacet
facet normal -8.270211146168937e-09 -5.361767588219292e-10 1.0
  outer loop
    vertex 48.970644124275786 123.999999424695 4.50000006251605
    vertex 47.72655102223127 121.49999940410919 4.500000133395041
    vertex 56.04177329686541 110.49999971158125 4.499999914514989
  endloop
endfacet
facet normal -8.270211146168937e-09 -5.361767588219292e-10 1.0
  outer loop
    vertex 48.970644124275786 123.999999424695 4.50000006251605
    vertex 56.04177329686541 110.49999971158125 4.499999914514989
    vertex 57.28586640744025 112.99999972088214 4.500000099657964
  endloop
endfacet
facet normal -8.270211146168937e-09 -5.361767588219292e-10 1.0
  outer loop
    vertex 57.28586640744025 112.99999972088214 4.500000099657964
    vertex 56.04177329686541 110.49999971158125 4.499999914514989
    vertex 76.42999813835051 110.4999998640092 4.500001264302557
  endloop
endfacet
facet normal -8.270211146168937e-09 -5.361767588219292e-10 1.0
  outer loop
    vertex 57.28586640744025 112.99999972088214 4.500000099657964
    vertex 76.42999813835051 110.4999998640092 4.500001264302557
    vertex 78.92999811975686 112.99999988269985 4.500001436631816
  endloop
endfacet
facet normal -8.270211146168937e-09 -5.361767588219292e-10 1.0
  outer loop
    vertex 78.92999811975686 112.99999988269985 4.500001436631816
    vertex 76.42999813835051 110.4999998640092 4.500001264302557
    vertex 76.42999847303638 62.499999244808144 4.500000399289626
  endloop
endfacet
facet normal -8.270211146168937e-09 -5.361767588219292e-10 1.0
  outer loop
    vertex 78.92999811975686 112.99999988269985 4.500001436631816
    vertex 76.42999847303638 62.499999244808144 4.500000399289626
    vertex 78.92999847303639 64.99999922809968 4.500000429195053
  endloop
endfacet
facet normal -8.270211146168937e-09 -5.361767588219292e-10 1.0
  outer loop
    vertex 78.92999847303639 64.99999922809968 4.500000429195053
    vertex 76.42999847303638 62.499999244808144 4.500000399289626
    vertex 81.49999849534879 62.499999244808144 4.500000408816003
  endloop
endfacet
facet normal -8.270211146168937e-09 -5.361767588219292e-10 1.0
  outer loop
    vertex 78.92999847303639 64.99999922809968 4.500000429195053
    vertex 81.49999849534879 62.499999244808144 4.500000408816003
    vertex 83.99999847675514 64.99999922809968 4.500000448356726
  endloop
endfacet
facet normal -8.270211146168937e-09 -5.361767588219292e-10 1.0
  outer loop
    vertex 83.99999847675514 64.99999922809968 4.500000448356726
    vertex 81.49999849534879 62.499999244808144 4.500000408816003
    vertex 81.49999893415915 3.5000002138549773 4.500000623036926
  endloop
endfacet
facet normal -8.270211146168937e-09 -5.361767588219292e-10 1.0
  outer loop
    vertex 0.9999999376353298 3.500000003199714 4.500000004239958
    vertex 41.49999944997621 2.700000108527252 4.50000030845161
    vertex 81.49999893415915 3.5000002138549773 4.500000623036926
  endloop
endfacet
facet normal -8.270211146168937e-09 -5.361767588219292e-10 1.0
  outer loop
    vertex 41.49999944997621 2.700000108527252 4.50000030845161
    vertex 0.9999999376353298 3.500000003199714 4.500000004239958
    vertex 41.18941659606851 2.6591110984384994 4.500000307488573
  endloop
endfacet
facet normal -8.270211146168937e-09 -5.361767588219292e-10 1.0
  outer loop
    vertex 41.18941659606851 2.6591110984384994 4.500000307488573
    vertex 0.9999999376353298 3.500000003199714 4.500000004239958
    vertex 40.899999450822875 2.539230589908775 4.500000306669026
  endloop
endfacet
facet normal -8.270211146168937e-09 -5.361767588219292e-10 1.0
  outer loop
    vertex 40.899999450822875 2.539230589908775 4.500000306669026
    vertex 0.9999999376353298 3.500000003199714 4.500000004239958
    vertex 40.65147131440332 2.348528241482472 4.50000030604882
  endloop
endfacet
facet normal -8.270211146168937e-09 -5.361767588219292e-10 1.0
  outer loop
    vertex 40.65147131440332 2.348528241482472 4.50000030604882
    vertex 0.9999999376353298 3.500000003199714 4.500000004239958
    vertex 40.46076896859468 2.1000001030543127 4.500000305670222
  endloop
endfacet
facet normal -8.270211146168937e-09 -5.361767588219292e-10 1.0
  outer loop
    vertex 40.46076896859468 2.1000001030543127 4.500000305670222
    vertex 0.9999999376353298 3.500000003199714 4.500000004239958
    vertex 40.340888463113295 1.8105829565460065 4.50000030555903
  endloop
endfacet
facet normal -8.270211146168937e-09 -5.361767588219292e-10 1.0
  outer loop
    vertex 40.340888463113295 1.8105829565460065 4.50000030555903
    vertex 0.9999999376353298 3.500000003199714 4.500000004239958
    vertex 40.299999456295815 1.5000001022076468 4.500000305722824
  endloop
endfacet
facet normal -8.270211146168937e-09 -5.361767588219292e-10 1.0
  outer loop
    vertex 81.49999893415915 3.5000002138549773 4.500000623036926
    vertex 41.49999944997621 2.700000108527252 4.50000030845161
    vertex 41.810582304314565 2.6591111017097675 4.500000309492507
  endloop
endfacet
facet normal -8.270211146168937e-09 -5.361767588219292e-10 1.0
  outer loop
    vertex 81.49999893415915 3.5000002138549773 4.500000623036926
    vertex 41.810582304314565 2.6591111017097675 4.500000309492507
    vertex 42.09999945082287 2.5392305962283808 4.500000310540331
  endloop
endfacet
facet normal -8.270211146168937e-09 -5.361767588219292e-10 1.0
  outer loop
    vertex 81.49999893415915 3.5000002138549773 4.500000623036926
    vertex 42.09999945082287 2.5392305962283808 4.500000310540331
    vertex 42.348527589251034 2.3485282504197453 4.500000311523673
  endloop
endfacet
facet normal -8.270211146168937e-09 -5.361767588219292e-10 1.0
  outer loop
    vertex 81.49999893415915 3.5000002138549773 4.500000623036926
    vertex 42.348527589251034 2.3485282504197453 4.500000311523673
    vertex 42.539229937677334 2.1000001140001916 4.5000003123755175
  endloop
endfacet
facet normal -8.270211146168937e-09 -5.361767588219292e-10 1.0
  outer loop
    vertex 81.49999893415915 3.5000002138549773 4.500000623036926
    vertex 42.539229937677334 2.1000001140001916 4.5000003123755175
    vertex 42.65911044620706 1.8105829687545487 4.500000313037817
  endloop
endfacet
facet normal -8.270211146168937e-09 -5.361767588219292e-10 1.0
  outer loop
    vertex 81.49999893415915 3.5000002138549773 4.500000623036926
    vertex 42.65911044620706 1.8105829687545487 4.500000313037817
    vertex 42.699999456295814 1.50000011484686 4.500000313465434
  endloop
endfacet
facet normal -8.270211146168937e-09 -5.361767588219292e-10 1.0
  outer loop
    vertex -1.5000005560982788 64.99999933862281 4.499999873739648
    vertex 0.9999994639721627 62.49999932236936 4.499999868020919
    vertex 10.429999231401494 64.99999926123176 4.500000132008523
  endloop
endfacet
facet normal -8.270211146168937e-09 -5.361767588219292e-10 1.0
  outer loop
    vertex 0.9999994639721627 62.49999932236936 4.499999868020919
    vertex -1.5000005560982788 64.99999933862281 4.499999873739648
    vertex -1.500000021962198 -0.40000000769097405 4.499999992437433
  endloop
endfacet
facet normal -8.270211146168937e-09 -5.361767588219292e-10 1.0
  outer loop
    vertex 10.429999231401494 64.99999926123176 4.500000132008523
    vertex 0.9999994639721627 62.49999932236936 4.499999868020919
    vertex 12.929999231401549 62.499999244808144 4.499999891883164
  endloop
endfacet
facet normal -8.270211146168937e-09 -5.361767588219292e-10 1.0
  outer loop
    vertex 10.429999231401494 64.99999926123176 4.500000132008523
    vertex 12.929999231401549 62.499999244808144 4.499999891883164
    vertex 12.929998973095389 114.59121221060965 4.500000033030284
  endloop
endfacet
facet normal -0.7071067855386592 -2.213045248847302e-09 0.7071067768344359
  outer loop
    vertex 81.49999849534879 62.499999244808144 4.500000408816003
    vertex 78.49999891308255 6.500000207559547 1.500000616617174
    vertex 81.49999893415915 3.5000002138549773 4.500000623036926
  endloop
endfacet
facet normal -0.7071067855386592 -2.213045248847302e-09 0.7071067768344359
  outer loop
    vertex 78.49999891308255 6.500000207559547 1.500000616617174
    vertex 81.49999849534879 62.499999244808144 4.500000408816003
    vertex 78.49999858439448 59.49999922690822 1.5000004093470707
  endloop
endfacet
facet normal -9.39144777586471e-09 1.5179764800754616e-09 1.0
  outer loop
    vertex 28.868472084744564 118.49999909367216 1.5000001037890554
    vertex 15.929998983138942 112.68242494815189 1.5000000516658327
    vertex 15.929999231401492 59.49999922690822 1.500000038602602
  endloop
endfacet
facet normal -9.39144777586471e-09 1.5179764800754616e-09 1.0
  outer loop
    vertex 3.9999999135507447 6.500000012703422 1.5000000192820395
    vertex 15.929999231401492 59.49999922690822 1.500000038602602
    vertex 3.9999994880566336 59.49999930446942 1.4999998604266025
  endloop
endfacet
facet normal -9.39144777586471e-09 1.5179764800754616e-09 1.0
  outer loop
    vertex 15.929999231401492 59.49999922690822 1.500000038602602
    vertex 3.9999999135507447 6.500000012703422 1.5000000192820395
    vertex 78.49999891308255 6.500000207559547 1.500000616617174
  endloop
endfacet
facet normal -9.39144777586471e-09 1.5179764800754616e-09 1.0
  outer loop
    vertex 15.929999231401492 59.49999922690822 1.500000038602602
    vertex 78.49999891308255 6.500000207559547 1.500000616617174
    vertex 28.868472084744564 118.49999909367216 1.5000001037890554
  endloop
endfacet
facet normal -9.39144777586471e-09 1.5179764800754616e-09 1.0
  outer loop
    vertex 28.868472084744564 118.49999909367216 1.5000001037890554
    vertex 78.49999891308255 6.500000207559547 1.500000616617174
    vertex 46.23363929977785 118.49999938101047 1.5000000869541135
  endloop
endfacet
facet normal -9.39144777586471e-09 1.5179764800754616e-09 1.0
  outer loop
    vertex 46.23363929977785 118.49999938101047 1.5000000869541135
    vertex 78.49999891308255 6.500000207559547 1.500000616617174
    vertex 54.54886156417556 107.49999970202383 1.4999996058460727
  endloop
endfacet
facet normal -9.39144777586471e-09 1.5179764800754616e-09 1.0
  outer loop
    vertex 54.54886156417556 107.49999970202383 1.4999996058460727
    vertex 78.49999891308255 6.500000207559547 1.500000616617174
    vertex 73.42999816066292 59.49999922690822 1.5000007136417959
  endloop
endfacet
facet normal -9.39144777586471e-09 1.5179764800754616e-09 1.0
  outer loop
    vertex 73.42999816066292 59.49999922690822 1.5000007136417959
    vertex 78.49999891308255 6.500000207559547 1.500000616617174
    vertex 78.49999858439448 59.49999922690822 1.5000004093470707
  endloop
endfacet
facet normal -9.39144777586471e-09 1.5179764800754616e-09 1.0
  outer loop
    vertex 73.42999816066292 107.49999984318444 1.5000010479776693
    vertex 54.54886156417556 107.49999970202383 1.4999996058460727
    vertex 73.42999816066292 59.49999922690822 1.5000007136417959
  endloop
endfacet
facet normal 2.055549317363476e-08 -0.7071067708000952 0.7071067915729995
  outer loop
    vertex 78.49999858439448 59.49999922690822 1.5000004093470707
    vertex 76.42999847303638 62.499999244808144 4.500000399289626
    vertex 73.42999816066292 59.49999922690822 1.5000007136417959
  endloop
endfacet
facet normal 2.055549317363476e-08 -0.7071067708000952 0.7071067915729995
  outer loop
    vertex 76.42999847303638 62.499999244808144 4.500000399289626
    vertex 78.49999858439448 59.49999922690822 1.5000004093470707
    vertex 81.49999849534879 62.499999244808144 4.500000408816003
  endloop
endfacet
facet normal -3.2018450546599616e-10 1.0 -8.098260375805734e-10
  outer loop
    vertex 78.92999847593472 64.99999922485291 2.500001096485633
    vertex 83.99999847675514 64.99999922809968 4.500000448356726
    vertex 83.99999848822894 64.99999922809968 2.5000010929051464
  endloop
endfacet
facet normal -3.2018450546599616e-10 1.0 -8.098260375805734e-10
  outer loop
    vertex 83.99999847675514 64.99999922809968 4.500000448356726
    vertex 78.92999847593472 64.99999922485291 2.500001096485633
    vertex 78.92999847303639 64.99999922809968 4.500000429195053
  endloop
endfacet
facet normal -4.101206519435201e-10 0.8320503019407631 -0.55470018482085
  outer loop
    vertex 77.92999851174996 63.99999922522388 1.0000010485336703
    vertex 83.99999848822894 64.99999922809968 2.5000010929051464
    vertex 82.99999851648552 63.9999992223484 1.000001045174024
  endloop
endfacet
facet normal -4.101206519435201e-10 0.8320503019407631 -0.55470018482085
  outer loop
    vertex 83.99999848822894 64.99999922809968 2.5000010929051464
    vertex 77.92999851174996 63.99999922522388 1.0000010485336703
    vertex 78.92999847593472 64.99999922485291 2.500001096485633
  endloop
endfacet
facet normal 0.7071067807476904 7.526761260929361e-09 0.7071067816254046
  outer loop
    vertex 0.9999999376353298 3.500000003199714 4.500000004239958
    vertex 3.9999994880566336 59.49999930446942 1.4999998604266025
    vertex 0.9999994639721627 62.49999932236936 4.499999868020919
  endloop
endfacet
facet normal 0.7071067807476904 7.526761260929361e-09 0.7071067816254046
  outer loop
    vertex 3.9999994880566336 59.49999930446942 1.4999998604266025
    vertex 0.9999999376353298 3.500000003199714 4.500000004239958
    vertex 3.9999999135507447 6.500000012703422 1.5000000192820395
  endloop
endfacet
facet normal -7.3934054829945346e-09 0.7071067804894221 0.7071067818836729
  outer loop
    vertex 81.49999893415915 3.5000002138549773 4.500000623036926
    vertex 3.9999999135507447 6.500000012703422 1.5000000192820395
    vertex 0.9999999376353298 3.500000003199714 4.500000004239958
  endloop
endfacet
facet normal -7.3934054829945346e-09 0.7071067804894221 0.7071067818836729
  outer loop
    vertex 3.9999999135507447 6.500000012703422 1.5000000192820395
    vertex 81.49999893415915 3.5000002138549773 4.500000623036926
    vertex 78.49999891308255 6.500000207559547 1.500000616617174
  endloop
endfacet
facet normal 0.9914448620629063 -0.130526186985849 3.5374481174360444e-09
  outer loop
    vertex 40.31316470097446 1.5999999999155783 1.9999999883028268
    vertex 40.299999456295815 1.5000001022076468 4.500000305722824
    vertex 40.29999946464332 1.5000000978387777 1.9999999852534343
  endloop
endfacet
facet normal 0.9914448620629063 -0.130526186985849 3.5374481174360444e-09
  outer loop
    vertex 40.299999456295815 1.5000001022076468 4.500000305722824
    vertex 40.31316470097446 1.5999999999155783 1.9999999883028268
    vertex 40.340888463113295 1.8105829565460065 4.50000030555903
  endloop
endfacet
facet normal 0.9914448620629063 -0.130526186985849 3.5374481174360444e-09
  outer loop
    vertex 40.340888463113295 1.8105829565460065 4.50000030555903
    vertex 40.31316470097446 1.5999999999155783 1.9999999883028268
    vertex 40.340888471461504 1.8105829522395176 1.9999999865343818
  endloop
endfacet
facet normal 0.9914448606864152 0.13052619744133706 3.0823359717384726e-09
  outer loop
    vertex 40.29999946464332 1.5000000978387777 1.9999999852534343
    vertex 40.34088846638457 1.1894172482999577 4.500000306150442
    vertex 40.340888474732076 1.1894172439310886 1.9999999856810518
  endloop
endfacet
facet normal 0.9914448606864152 0.13052619744133706 3.0823359717384726e-09
  outer loop
    vertex 40.34088846638457 1.1894172482999577 4.500000306150442
    vertex 40.29999946464332 1.5000000978387777 1.9999999852534343
    vertex 40.299999456295815 1.5000001022076468 4.500000305722824
  endloop
endfacet
facet normal 0.9238795304959498 0.3826834372305433 2.416078453452887e-09
  outer loop
    vertex 40.340888474732076 1.1894172439310886 1.9999999856810518
    vertex 40.46076897491429 0.9000001030543142 4.5000003068127405
    vertex 40.460768983261794 0.9000000986854452 1.9999999863433506
  endloop
endfacet
facet normal 0.9238795304959498 0.3826834372305433 2.416078453452887e-09
  outer loop
    vertex 40.46076897491429 0.9000001030543142 4.5000003068127405
    vertex 40.340888474732076 1.1894172439310886 1.9999999856810518
    vertex 40.34088846638457 1.1894172482999577 4.500000306150442
  endloop
endfacet
facet normal 0.7933533370852898 0.60876143318679 1.5851692120473605e-09
  outer loop
    vertex 40.460768983261794 0.9000000986854452 1.9999999863433506
    vertex 40.651471323340594 0.6514719666347605 4.500000307664586
    vertex 40.6514713316881 0.6514719622658918 1.9999999871951961
  endloop
endfacet
facet normal 0.7933533370852898 0.60876143318679 1.5851692120473605e-09
  outer loop
    vertex 40.651471323340594 0.6514719666347605 4.500000307664586
    vertex 40.460768983261794 0.9000000986854452 1.9999999863433506
    vertex 40.46076897491429 0.9000001030543142 4.5000003068127405
  endloop
endfacet
facet normal 0.60876142483065 0.7933533434971815 6.462333292576782e-10
  outer loop
    vertex 40.651471323340594 0.6514719666347605 4.500000307664586
    vertex 40.89999947011626 0.460769616457256 1.9999999881785375
    vertex 40.6514713316881 0.6514719622658918 1.9999999871951961
  endloop
endfacet
facet normal 0.60876142483065 0.7933533434971815 6.462333292576782e-10
  outer loop
    vertex 40.89999947011626 0.460769616457256 1.9999999881785375
    vertex 40.651471323340594 0.6514719666347605 4.500000307664586
    vertex 40.89999946176875 0.46076962082612477 4.500000308647928
  endloop
endfacet
facet normal 0.38268342749962386 0.9238795345266286 -3.3674235143386066e-10
  outer loop
    vertex 40.89999946176875 0.46076962082612477 4.500000308647928
    vertex 41.18941661662457 0.3408891109758692 1.999999989226361
    vertex 40.89999947011626 0.460769616457256 1.9999999881785375
  endloop
endfacet
facet normal 0.38268342749962386 0.9238795345266286 -3.3674235143386066e-10
  outer loop
    vertex 41.18941661662457 0.3408891109758692 1.999999989226361
    vertex 40.89999946176875 0.46076962082612477 4.500000308647928
    vertex 41.189416608277064 0.34088911534473815 4.500000309695751
  endloop
endfacet
facet normal 0.13052618699876806 0.9914448620612054 -1.2967696021927277e-09
  outer loop
    vertex 41.189416608277064 0.34088911534473815 4.500000309695751
    vertex 41.499999470962926 0.30000010415838585 1.9999999902672585
    vertex 41.18941661662457 0.3408891109758692 1.999999989226361
  endloop
endfacet
facet normal 0.13052618699876806 0.9914448620612054 -1.2967696021927277e-09
  outer loop
    vertex 41.499999470962926 0.30000010415838585 1.9999999902672585
    vertex 41.189416608277064 0.34088911534473815 4.500000309695751
    vertex 41.49999946261542 0.30000010852725484 4.500000310736649
  endloop
endfacet
facet normal -0.13052619744133592 0.9914448606864152 -2.1684241163462386e-09
  outer loop
    vertex 41.49999946261542 0.30000010852725484 4.500000310736649
    vertex 41.810582324870616 0.34088911424713864 1.9999999912302953
    vertex 41.499999470962926 0.30000010415838585 1.9999999902672585
  endloop
endfacet
facet normal -0.13052619744133592 0.9914448606864152 -2.1684241163462386e-09
  outer loop
    vertex 41.810582324870616 0.34088911424713864 1.9999999912302953
    vertex 41.49999946261542 0.30000010852725484 4.500000310736649
    vertex 41.81058231652311 0.34088911861600757 4.500000311699686
  endloop
endfacet
facet normal -0.3826834372305563 0.9238795304959446 -2.8923040777074967e-09
  outer loop
    vertex 41.81058231652311 0.34088911861600757 4.500000311699686
    vertex 42.09999947011626 0.4607696227768633 1.9999999920498426
    vertex 41.810582324870616 0.34088911424713864 1.9999999912302953
  endloop
endfacet
facet normal -0.3826834372305563 0.9238795304959446 -2.8923040777074967e-09
  outer loop
    vertex 42.09999947011626 0.4607696227768633 1.9999999920498426
    vertex 41.81058231652311 0.34088911861600757 4.500000311699686
    vertex 42.09999946176875 0.46076962714573205 4.500000312519233
  endloop
endfacet
facet normal -0.6087614331867847 0.793353337085294 -3.4190783017753612e-09
  outer loop
    vertex 42.09999946176875 0.46076962714573205 4.500000312519233
    vertex 42.34852760653582 0.651471971203166 1.9999999926700482
    vertex 42.09999947011626 0.4607696227768633 1.9999999920498426
  endloop
endfacet
facet normal -0.6087614331867847 0.793353337085294 -3.4190783017753612e-09
  outer loop
    vertex 42.34852760653582 0.651471971203166 1.9999999926700482
    vertex 42.09999946176875 0.46076962714573205 4.500000312519233
    vertex 42.348527598188305 0.6514719755720348 4.500000313139438
  endloop
endfacet
facet normal -0.7933533434971877 0.6087614248306421 -3.712848057753635e-09
  outer loop
    vertex 42.348527598188305 0.6514719755720348 4.500000313139438
    vertex 42.53922995234444 0.9000001096313256 1.9999999930486472
    vertex 42.34852760653582 0.651471971203166 1.9999999926700482
  endloop
endfacet
facet normal -0.7933533434971877 0.6087614248306421 -3.712848057753635e-09
  outer loop
    vertex 42.53922995234444 0.9000001096313256 1.9999999930486472
    vertex 42.348527598188305 0.6514719755720348 4.500000313139438
    vertex 42.539229943996936 0.9000001140001946 4.500000313518037
  endloop
endfacet
facet normal -0.9238795345266195 0.38268342749964607 -3.753593331211984e-09
  outer loop
    vertex 42.539229943996936 0.9000001140001946 4.500000313518037
    vertex 42.65911045782584 1.1894172561396315 1.9999999931598385
    vertex 42.53922995234444 0.9000001096313256 1.9999999930486472
  endloop
endfacet
facet normal -0.9238795345266195 0.38268342749964607 -3.753593331211984e-09
  outer loop
    vertex 42.65911045782584 1.1894172561396315 1.9999999931598385
    vertex 42.539229943996936 0.9000001140001946 4.500000313518037
    vertex 42.659110449478334 1.1894172605085005 4.500000313629228
  endloop
endfacet
facet normal -0.9914448620612075 0.13052618699875282 -3.5385373893604415e-09
  outer loop
    vertex 42.659110449478334 1.1894172605085005 4.500000313629228
    vertex 42.69999946464332 1.500000110477991 1.9999999929960441
    vertex 42.65911045782584 1.1894172561396315 1.9999999931598385
  endloop
endfacet
facet normal -0.9914448620612075 0.13052618699875282 -3.5385373893604415e-09
  outer loop
    vertex 42.69999946464332 1.500000110477991 1.9999999929960441
    vertex 42.659110449478334 1.1894172605085005 4.500000313629228
    vertex 42.699999456295814 1.50000011484686 4.500000313465434
  endloop
endfacet
facet normal -0.9914448606884331 -0.13052619742600918 -3.083629533640506e-09
  outer loop
    vertex 42.699999456295814 1.50000011484686 4.500000313465434
    vertex 42.68683422890463 1.5999999999155778 1.9999999941962332
    vertex 42.69999946464332 1.500000110477991 1.9999999929960441
  endloop
endfacet
facet normal -0.9914448606884331 -0.13052619742600918 -3.083629533640506e-09
  outer loop
    vertex 42.68683422890463 1.5999999999155778 1.9999999941962332
    vertex 42.699999456295814 1.50000011484686 4.500000313465434
    vertex 42.65911044620706 1.8105829687545487 4.500000313037817
  endloop
endfacet
facet normal -0.9914448606884331 -0.13052619742600918 -3.083629533640506e-09
  outer loop
    vertex 42.68683422890463 1.5999999999155778 1.9999999941962332
    vertex 42.65911044620706 1.8105829687545487 4.500000313037817
    vertex 42.65911045455527 1.8105829644480598 1.9999999940131683
  endloop
endfacet
facet normal -0.9238795304959497 -0.38268343723054393 -2.4258877229975387e-09
  outer loop
    vertex 42.65911044620706 1.8105829687545487 4.500000313037817
    vertex 42.53922994602555 2.1000001096937027 1.9999999933508696
    vertex 42.65911045455527 1.8105829644480598 1.9999999940131683
  endloop
endfacet
facet normal -0.9238795304959497 -0.38268343723054393 -2.4258877229975387e-09
  outer loop
    vertex 42.53922994602555 2.1000001096937027 1.9999999933508696
    vertex 42.65911044620706 1.8105829687545487 4.500000313037817
    vertex 42.539229937677334 2.1000001140001916 4.5000003123755175
  endloop
endfacet
facet normal -0.6087614248306491 -0.7933533434971822 -6.662007014455798e-10
  outer loop
    vertex 42.348527597599244 2.3485282461132564 1.999999992499024
    vertex 42.09999945082287 2.5392305962283808 4.500000310540331
    vertex 42.09999945917108 2.539230591921892 1.9999999915156819
  endloop
endfacet
facet normal -0.6087614248306491 -0.7933533434971822 -6.662007014455798e-10
  outer loop
    vertex 42.09999945082287 2.5392305962283808 4.500000310540331
    vertex 42.348527597599244 2.3485282461132564 1.999999992499024
    vertex 42.348527589251034 2.3485282504197453 4.500000311523673
  endloop
endfacet
facet normal -0.38268342749962425 -0.9238795345266286 3.135818137850972e-10
  outer loop
    vertex 42.09999945917108 2.539230591921892 1.9999999915156819
    vertex 41.810582304314565 2.6591111017097675 4.500000309492507
    vertex 41.810582312662774 2.6591110974032786 1.9999999904678585
  endloop
endfacet
facet normal -0.38268342749962425 -0.9238795345266286 3.135818137850972e-10
  outer loop
    vertex 41.810582304314565 2.6591111017097675 4.500000309492507
    vertex 42.09999945917108 2.539230591921892 1.9999999915156819
    vertex 42.09999945082287 2.5392305962283808 4.500000310540331
  endloop
endfacet
facet normal -0.13052618699877067 -0.9914448620612052 1.2719942509948222e-09
  outer loop
    vertex 41.810582312662774 2.6591110974032786 1.9999999904678585
    vertex 41.49999944997621 2.700000108527252 4.50000030845161
    vertex 41.49999945832442 2.700000104220763 1.999999989426961
  endloop
endfacet
facet normal -0.13052618699877067 -0.9914448620612052 1.2719942509948222e-09
  outer loop
    vertex 41.49999944997621 2.700000108527252 4.50000030845161
    vertex 41.810582312662774 2.6591110974032786 1.9999999904678585
    vertex 41.810582304314565 2.6591111017097675 4.500000309492507
  endloop
endfacet
facet normal 0.13052619744133498 -0.9914448606864155 2.1437223803884258e-09
  outer loop
    vertex 41.49999945832442 2.700000104220763 1.999999989426961
    vertex 41.18941659606851 2.6591110984384994 4.500000307488573
    vertex 41.18941660441673 2.6591110941320104 1.9999999884639241
  endloop
endfacet
facet normal 0.13052619744133498 -0.9914448606864155 2.1437223803884258e-09
  outer loop
    vertex 41.18941659606851 2.6591110984384994 4.500000307488573
    vertex 41.49999945832442 2.700000104220763 1.999999989426961
    vertex 41.49999944997621 2.700000108527252 4.50000030845161
  endloop
endfacet
facet normal 0.6087614331867843 -0.7933533370852941 3.3994542659161263e-09
  outer loop
    vertex 40.899999459171084 2.539230585602286 1.999999987644377
    vertex 40.65147131440332 2.348528241482472 4.50000030604882
    vertex 40.651471322751526 2.3485282371759832 1.9999999870241718
  endloop
endfacet
facet normal 0.6087614331867843 -0.7933533370852941 3.3994542659161263e-09
  outer loop
    vertex 40.65147131440332 2.348528241482472 4.50000030604882
    vertex 40.899999459171084 2.539230585602286 1.999999987644377
    vertex 40.899999450822875 2.539230589908775 4.500000306669026
  endloop
endfacet
facet normal 0.9238795345266262 -0.3826834274996303 3.744305129543993e-09
  outer loop
    vertex 40.460768976942894 2.100000098747824 1.999999986645573
    vertex 40.340888463113295 1.8105829565460065 4.50000030555903
    vertex 40.340888471461504 1.8105829522395176 1.9999999865343818
  endloop
endfacet
facet normal 0.9238795345266262 -0.3826834274996303 3.744305129543993e-09
  outer loop
    vertex 40.340888463113295 1.8105829565460065 4.50000030555903
    vertex 40.460768976942894 2.100000098747824 1.999999986645573
    vertex 40.46076896859468 2.1000001030543127 4.500000305670222
  endloop
endfacet
facet normal -0.79335333708529 -0.6087614331867897 -1.6005827489782377e-09
  outer loop
    vertex 42.539229937677334 2.1000001140001916 4.5000003123755175
    vertex 42.348527597599244 2.3485282461132564 1.999999992499024
    vertex 42.53922994602555 2.1000001096937027 1.9999999933508696
  endloop
endfacet
facet normal -0.79335333708529 -0.6087614331867897 -1.6005827489782377e-09
  outer loop
    vertex 42.348527597599244 2.3485282461132564 1.999999992499024
    vertex 42.539229937677334 2.1000001140001916 4.5000003123755175
    vertex 42.348527589251034 2.3485282504197453 4.500000311523673
  endloop
endfacet
facet normal 0.7933533434971789 -0.6087614248306537 3.6978819712233637e-09
  outer loop
    vertex 40.651471322751526 2.3485282371759832 1.9999999870241718
    vertex 40.46076896859468 2.1000001030543127 4.500000305670222
    vertex 40.460768976942894 2.100000098747824 1.999999986645573
  endloop
endfacet
facet normal 0.7933533434971789 -0.6087614248306537 3.6978819712233637e-09
  outer loop
    vertex 40.46076896859468 2.1000001030543127 4.500000305670222
    vertex 40.651471322751526 2.3485282371759832 1.9999999870241718
    vertex 40.65147131440332 2.348528241482472 4.50000030604882
  endloop
endfacet
facet normal 0.3826834372305558 -0.9238795304959446 2.8693593743809884e-09
  outer loop
    vertex 41.18941660441673 2.6591110941320104 1.9999999884639241
    vertex 40.899999450822875 2.539230589908775 4.500000306669026
    vertex 40.899999459171084 2.539230585602286 1.999999987644377
  endloop
endfacet
facet normal 0.3826834372305558 -0.9238795304959446 2.8693593743809884e-09
  outer loop
    vertex 40.899999450822875 2.539230589908775 4.500000306669026
    vertex 41.18941660441673 2.6591110941320104 1.9999999884639241
    vertex 41.18941659606851 2.6591110984384994 4.500000307488573
  endloop
endfacet
facet normal 7.4143379982899865e-09 3.7095341900981247e-10 -1.0
  outer loop
    vertex 11.429999270929303 63.99999925531031 -5.028928081557401e-08
    vertex -0.5000002898176454 36.1 -7.214981532034079e-08
    vertex -0.50000051380413 63.99999933287157 -1.285478788304317e-07
  endloop
endfacet
facet normal 7.4143379982899865e-09 3.7095341900981247e-10 -1.0
  outer loop
    vertex -0.5000002898176454 36.1 -7.214981532034079e-08
    vertex 11.429999270929303 63.99999925531031 -5.028928081557401e-08
    vertex 3.4999997101823546 36.1 -7.214981532034079e-08
  endloop
endfacet
facet normal 7.4143379982899865e-09 3.7095341900981247e-10 -1.0
  outer loop
    vertex 3.4999997101823546 36.1 -7.214981532034079e-08
    vertex 11.429999270929303 63.99999925531031 -5.028928081557401e-08
    vertex 3.4999998306051983 21.100000000000005 -4.1828275073755666e-08
  endloop
endfacet
facet normal 7.4143379982899865e-09 3.7095341900981247e-10 -1.0
  outer loop
    vertex 27.868131872946304 122.99999907626581 3.7330708400062914e-07
    vertex 11.429999270929303 63.99999925531031 -5.028928081557401e-08
    vertex 11.42999900233962 115.5456058433905 -8.84502509013174e-09
  endloop
endfacet
facet normal 7.4143379982899865e-09 3.7095341900981247e-10 -1.0
  outer loop
    vertex 3.4999998306051983 21.100000000000005 -4.1828275073755666e-08
    vertex -0.5000000128451024 1.5999999999999999 -2.410272753194993e-09
    vertex -0.5000001693948011 21.100000000000005 -4.1828275073755666e-08
  endloop
endfacet
facet normal 7.4143379982899865e-09 3.7095341900981247e-10 -1.0
  outer loop
    vertex -0.5000000128451024 1.5999999999999999 -2.410272753194993e-09
    vertex 3.4999998306051983 21.100000000000005 -4.1828275073755666e-08
    vertex 38.513164706848116 1.5999999999999999 2.59705792774587e-07
  endloop
endfacet
facet normal 7.4143379982899865e-09 3.7095341900981247e-10 -1.0
  outer loop
    vertex 38.513164706848116 1.5999999999999999 2.59705792774587e-07
    vertex 3.4999998306051983 21.100000000000005 -4.1828275073755666e-08
    vertex 11.429999270929303 63.99999925531031 -5.028928081557401e-08
  endloop
endfacet
facet normal 7.4143379982899865e-09 3.7095341900981247e-10 -1.0
  outer loop
    vertex 38.513164706848116 1.5999999999999999 2.59705792774587e-07
    vertex 11.429999270929303 63.99999925531031 -5.028928081557401e-08
    vertex 27.868131872946304 122.99999907626581 3.7330708400062914e-07
  endloop
endfacet
facet normal 7.4143379982899865e-09 3.7095341900981247e-10 -1.0
  outer loop
    vertex 38.513164706848116 1.5999999999999999 2.59705792774587e-07
    vertex 27.868131872946304 122.99999907626581 3.7330708400062914e-07
    vertex 48.47300691772398 122.99999941721063 9.08676502486827e-08
  endloop
endfacet
facet normal 7.4143379982899865e-09 3.7095341900981247e-10 -1.0
  outer loop
    vertex 38.513164706848116 1.5999999999999999 2.59705792774587e-07
    vertex 48.47300691772398 122.99999941721063 9.08676502486827e-08
    vertex 38.602221991945996 2.2764572395503664 2.617930925357638e-07
  endloop
endfacet
facet normal 7.4143379982899865e-09 3.7095341900981247e-10 -1.0
  outer loop
    vertex 38.602221991945996 2.2764572395503664 2.617930925357638e-07
    vertex 48.47300691772398 122.99999941721063 9.08676502486827e-08
    vertex 38.90192325945988 3.0000001042428037 2.626859442729522e-07
  endloop
endfacet
facet normal 7.4143379982899865e-09 3.7095341900981247e-10 -1.0
  outer loop
    vertex 38.90192325945988 3.0000001042428037 2.626859442729522e-07
    vertex 48.47300691772398 122.99999941721063 9.08676502486827e-08
    vertex 39.378679127253555 3.621320447802448 2.6412482634329107e-07
  endloop
endfacet
facet normal 7.4143379982899865e-09 3.7095341900981247e-10 -1.0
  outer loop
    vertex 39.378679127253555 3.621320447802448 2.6412482634329107e-07
    vertex 48.47300691772398 122.99999941721063 9.08676502486827e-08
    vertex 39.999999470813194 4.098076315596121 2.6601168131155195e-07
  endloop
endfacet
facet normal 7.4143379982899865e-09 3.7095341900981247e-10 -1.0
  outer loop
    vertex 39.999999470813194 4.098076315596121 2.6601168131155195e-07
    vertex 48.47300691772398 122.99999941721063 9.08676502486827e-08
    vertex 40.723542335505634 4.39777758311001 2.682179231298231e-07
  endloop
endfacet
facet normal 7.4143379982899865e-09 3.7095341900981247e-10 -1.0
  outer loop
    vertex 40.723542335505634 4.39777758311001 2.682179231298231e-07
    vertex 48.47300691772398 122.99999941721063 9.08676502486827e-08
    vertex 41.4999994708132 4.5000001042428055 2.7059320006417625e-07
  endloop
endfacet
facet normal 7.4143379982899865e-09 3.7095341900981247e-10 -1.0
  outer loop
    vertex 41.4999994708132 4.5000001042428055 2.7059320006417625e-07
    vertex 48.47300691772398 122.99999941721063 9.08676502486827e-08
    vertex 42.27645660612076 4.3977775831100105 2.729756409168661e-07
  endloop
endfacet
facet normal 7.4143379982899865e-09 3.7095341900981247e-10 -1.0
  outer loop
    vertex 42.27645660612076 4.3977775831100105 2.729756409168661e-07
    vertex 48.47300691772398 122.99999941721063 9.08676502486827e-08
    vertex 42.999999470813194 4.0980763155961215 2.752028862809514e-07
  endloop
endfacet
facet normal 7.4143379982899865e-09 3.7095341900981247e-10 -1.0
  outer loop
    vertex 42.999999470813194 4.0980763155961215 2.752028862809514e-07
    vertex 48.47300691772398 122.99999941721063 9.08676502486827e-08
    vertex 43.62131981437284 3.6213204478024488 2.771231530655668e-07
  endloop
endfacet
facet normal 7.4143379982899865e-09 3.7095341900981247e-10 -1.0
  outer loop
    vertex 43.62131981437284 3.6213204478024488 2.771231530655668e-07
    vertex 48.47300691772398 122.99999941721063 9.08676502486827e-08
    vertex 44.09807568216652 3.000000104242806 2.7860557826273165e-07
  endloop
endfacet
facet normal 7.4143379982899865e-09 3.7095341900981247e-10 -1.0
  outer loop
    vertex 44.09807568216652 3.000000104242806 2.7860557826273165e-07
    vertex 48.47300691772398 122.99999941721063 9.08676502486827e-08
    vertex 44.397776949680406 2.2764572395503686 2.795491370450826e-07
  endloop
endfacet
facet normal 7.4143379982899865e-09 3.7095341900981247e-10 -1.0
  outer loop
    vertex 44.397776949680406 2.2764572395503686 2.795491370450826e-07
    vertex 48.47300691772398 122.99999941721063 9.08676502486827e-08
    vertex 44.48683423477828 1.5999999999999988 2.7867292910331216e-07
  endloop
endfacet
facet normal 7.4143379982899865e-09 3.7095341900981247e-10 -1.0
  outer loop
    vertex 44.48683423477828 1.5999999999999988 2.7867292910331216e-07
    vertex 48.47300691772398 122.99999941721063 9.08676502486827e-08
    vertex 82.99999898041627 1.5999999999999872 3.1452315374394003e-07
  endloop
endfacet
facet normal 7.4143379982899865e-09 3.7095341900981247e-10 -1.0
  outer loop
    vertex 82.99999898041627 1.5999999999999872 3.1452315374394003e-07
    vertex 48.47300691772398 122.99999941721063 9.08676502486827e-08
    vertex 56.78822919747631 111.99999971791185 2.560076961533042e-08
  endloop
endfacet
facet normal 7.4143379982899865e-09 3.7095341900981247e-10 -1.0
  outer loop
    vertex 82.99999898041627 1.5999999999999872 3.1452315374394003e-07
    vertex 56.78822919747631 111.99999971791185 2.560076961533042e-08
    vertex 77.9299985138191 63.9999992223484 3.347437777859852e-07
  endloop
endfacet
facet normal 7.4143379982899865e-09 3.7095341900981247e-10 -1.0
  outer loop
    vertex 77.9299985138191 63.9999992223484 3.347437777859852e-07
    vertex 56.78822919747631 111.99999971791185 2.560076961533042e-08
    vertex 77.92999816146033 111.99999987597371 1.3677001097112118e-06
  endloop
endfacet
facet normal 7.4143379982899865e-09 3.7095341900981247e-10 -1.0
  outer loop
    vertex 82.99999898041627 1.5999999999999872 3.1452315374394003e-07
    vertex 77.9299985138191 63.9999992223484 3.347437777859852e-07
    vertex 82.99999851752814 63.9999992223484 3.5339531775111407e-07
  endloop
endfacet
facet normal 0.9914448613745229 -0.13052619221464018 3.0548985752729872e-09
  outer loop
    vertex 38.513164706848116 1.5999999999999999 2.59705792774587e-07
    vertex 38.60222198577682 2.2764572395283262 1.9999999816642504
    vertex 38.51316470067824 1.5999999999155783 1.9999999781322095
  endloop
endfacet
facet normal 0.9914448613745229 -0.13052619221464018 3.0548985752729872e-09
  outer loop
    vertex 38.60222198577682 2.2764572395283262 1.9999999816642504
    vertex 38.513164706848116 1.5999999999999999 2.59705792774587e-07
    vertex 38.602221991945996 2.2764572395503664 2.617930925357638e-07
  endloop
endfacet
facet normal 0.9238795325112873 -0.3826834323650884 2.8455769114488508e-09
  outer loop
    vertex 38.602221991945996 2.2764572395503664 2.617930925357638e-07
    vertex 38.901923253290704 3.000000104220763 1.9999999825571024
    vertex 38.60222198577682 2.2764572395283262 1.9999999816642504
  endloop
endfacet
facet normal 0.9238795325112873 -0.3826834323650884 2.8455769114488508e-09
  outer loop
    vertex 38.901923253290704 3.000000104220763 1.9999999825571024
    vertex 38.602221991945996 2.2764572395503664 2.617930925357638e-07
    vertex 38.90192325945988 3.0000001042428037 2.626859442729522e-07
  endloop
endfacet
facet normal 0.7933533402912347 -0.6087614290087211 2.4404650083228787e-09
  outer loop
    vertex 38.90192325945988 3.0000001042428037 2.626859442729522e-07
    vertex 39.37867912108438 3.6213204477804064 1.9999999839959848
    vertex 38.901923253290704 3.000000104220763 1.9999999825571024
  endloop
endfacet
facet normal 0.7933533402912347 -0.6087614290087211 2.4404650083228787e-09
  outer loop
    vertex 39.37867912108438 3.6213204477804064 1.9999999839959848
    vertex 38.90192325945988 3.0000001042428037 2.626859442729522e-07
    vertex 39.378679127253555 3.621320447802448 2.6412482634329107e-07
  endloop
endfacet
facet normal 0.6087614290087225 -0.7933533402912338 1.8690394479388283e-09
  outer loop
    vertex 39.999999470813194 4.098076315596121 2.6601168131155195e-07
    vertex 39.37867912108438 3.6213204477804064 1.9999999839959848
    vertex 39.378679127253555 3.621320447802448 2.6412482634329107e-07
  endloop
endfacet
facet normal 0.6087614290087225 -0.7933533402912338 1.8690394479388283e-09
  outer loop
    vertex 39.37867912108438 3.6213204477804064 1.9999999839959848
    vertex 39.999999470813194 4.098076315596121 2.6601168131155195e-07
    vertex 39.99999946464402 4.09807631557408 1.99999998588284
  endloop
endfacet
facet normal 0.3826834323650885 -0.9238795325112873 1.1702419379114585e-09
  outer loop
    vertex 40.723542335505634 4.39777758311001 2.682179231298231e-07
    vertex 39.99999946464402 4.09807631557408 1.99999998588284
    vertex 39.999999470813194 4.098076315596121 2.6601168131155195e-07
  endloop
endfacet
facet normal 0.3826834323650885 -0.9238795325112873 1.1702419379114585e-09
  outer loop
    vertex 39.99999946464402 4.09807631557408 1.99999998588284
    vertex 40.723542335505634 4.39777758311001 2.682179231298231e-07
    vertex 40.72354232933646 4.397777583087969 1.9999999880890815
  endloop
endfacet
facet normal 0.13052619222005254 -0.9914448613738103 3.9169437373168037e-10
  outer loop
    vertex 41.4999994708132 4.5000001042428055 2.7059320006417625e-07
    vertex 40.72354232933646 4.397777583087969 1.9999999880890815
    vertex 40.723542335505634 4.39777758311001 2.682179231298231e-07
  endloop
endfacet
facet normal 0.13052619222005254 -0.9914448613738103 3.9169437373168037e-10
  outer loop
    vertex 40.72354232933646 4.397777583087969 1.9999999880890815
    vertex 41.4999994708132 4.5000001042428055 2.7059320006417625e-07
    vertex 41.49999946464403 4.5000001042207645 1.9999999904643584
  endloop
endfacet
facet normal -0.13052619222005168 -0.9914448613738105 -4.135465147123635e-10
  outer loop
    vertex 42.27645660612076 4.3977775831100105 2.729756409168661e-07
    vertex 41.49999946464403 4.5000001042207645 1.9999999904643584
    vertex 41.4999994708132 4.5000001042428055 2.7059320006417625e-07
  endloop
endfacet
facet normal -0.13052619222005168 -0.9914448613738105 -4.135465147123635e-10
  outer loop
    vertex 41.49999946464403 4.5000001042207645 1.9999999904643584
    vertex 42.27645660612076 4.3977775831100105 2.729756409168661e-07
    vertex 42.27645659995159 4.397777583087969 1.9999999928467993
  endloop
endfacet
facet normal -0.382683432365091 -0.9238795325112862 -1.190604891596689e-09
  outer loop
    vertex 42.999999470813194 4.0980763155961215 2.752028862809514e-07
    vertex 42.27645659995159 4.397777583087969 1.9999999928467993
    vertex 42.27645660612076 4.3977775831100105 2.729756409168661e-07
  endloop
endfacet
facet normal -0.382683432365091 -0.9238795325112862 -1.190604891596689e-09
  outer loop
    vertex 42.27645659995159 4.397777583087969 1.9999999928467993
    vertex 42.999999470813194 4.0980763155961215 2.752028862809514e-07
    vertex 42.99999946464402 4.0980763155740805 1.999999995074044
  endloop
endfacet
facet normal -0.608761429008719 -0.7933533402912365 -1.886525512686301e-09
  outer loop
    vertex 43.62131981437284 3.6213204478024488 2.771231530655668e-07
    vertex 42.99999946464402 4.0980763155740805 1.999999995074044
    vertex 42.999999470813194 4.0980763155961215 2.752028862809514e-07
  endloop
endfacet
facet normal -0.608761429008719 -0.7933533402912365 -1.886525512686301e-09
  outer loop
    vertex 42.99999946464402 4.0980763155740805 1.999999995074044
    vertex 43.62131981437284 3.6213204478024488 2.771231530655668e-07
    vertex 43.621319808203666 3.621320447780407 1.9999999969943114
  endloop
endfacet
facet normal -0.793353340291234 -0.6087614290087223 -2.4538825377171676e-09
  outer loop
    vertex 43.621319808203666 3.621320447780407 1.9999999969943114
    vertex 44.09807568216652 3.000000104242806 2.7860557826273165e-07
    vertex 44.09807567599734 3.0000001042207654 1.9999999984767367
  endloop
endfacet
facet normal -0.793353340291234 -0.6087614290087223 -2.4538825377171676e-09
  outer loop
    vertex 44.09807568216652 3.000000104242806 2.7860557826273165e-07
    vertex 43.621319808203666 3.621320447780407 1.9999999969943114
    vertex 43.62131981437284 3.6213204478024488 2.771231530655668e-07
  endloop
endfacet
facet normal -0.9238795325112874 -0.3826834323650882 -2.854011523035245e-09
  outer loop
    vertex 44.09807567599734 3.0000001042207654 1.9999999984767367
    vertex 44.397776949680406 2.2764572395503686 2.795491370450826e-07
    vertex 44.39777694351123 2.276457239528328 1.9999999994202948
  endloop
endfacet
facet normal -0.9238795325112874 -0.3826834323650882 -2.854011523035245e-09
  outer loop
    vertex 44.397776949680406 2.2764572395503686 2.795491370450826e-07
    vertex 44.09807567599734 3.0000001042207654 1.9999999984767367
    vertex 44.09807568216652 3.000000104242806 2.7860557826273165e-07
  endloop
endfacet
facet normal -0.9914448613746567 -0.13052619221362396 -3.0618466268346278e-09
  outer loop
    vertex 44.39777694351123 2.276457239528328 1.9999999994202948
    vertex 44.48683423477828 1.5999999999999988 2.7867292910331216e-07
    vertex 44.4868342286084 1.5999999999155772 1.9999999970993456
  endloop
endfacet
facet normal -0.9914448613746567 -0.13052619221362396 -3.0618466268346278e-09
  outer loop
    vertex 44.48683423477828 1.5999999999999988 2.7867292910331216e-07
    vertex 44.39777694351123 2.276457239528328 1.9999999994202948
    vertex 44.397776949680406 2.2764572395503686 2.795491370450826e-07
  endloop
endfacet
facet normal 1.3483986080205938e-09 -0.7808687909676804 -0.6246950706486111
  outer loop
    vertex 82.99999898041627 1.5999999999999872 3.1452315374394003e-07
    vertex 44.49999947042759 1.5000001042375306 0.1250000883524879
    vertex 44.48683423477828 1.5999999999999988 2.7867292910331216e-07
  endloop
endfacet
facet normal 1.3483986080205938e-09 -0.7808687909676804 -0.6246950706486111
  outer loop
    vertex 44.49999947042759 1.5000001042375306 0.1250000883524879
    vertex 82.99999898041627 1.5999999999999872 3.1452315374394003e-07
    vertex 82.99999898222868 0.7999996090186469 1.000000620514683
  endloop
endfacet
facet normal 1.3483986080205938e-09 -0.7808687909676804 -0.6246950706486111
  outer loop
    vertex 44.49999947042759 1.5000001042375306 0.1250000883524879
    vertex 82.99999898222868 0.7999996090186469 1.000000620514683
    vertex 44.39777694630063 0.7235429688889987 1.0955714365979978
  endloop
endfacet
facet normal 1.3483986080205938e-09 -0.7808687909676804 -0.6246950706486111
  outer loop
    vertex 44.39777694630063 0.7235429688889987 1.0955714365979978
    vertex 82.99999898222868 0.7999996090186469 1.000000620514683
    vertex 83.99999898298218 -0.40000039200542764 2.500000627545768
  endloop
endfacet
facet normal 1.3483986080205938e-09 -0.7808687909676804 -0.6246950706486111
  outer loop
    vertex 44.39777694630063 0.7235429688889987 1.0955714365979978
    vertex 83.99999898298218 -0.40000039200542764 2.500000627545768
    vertex 44.09807567599664 1.0415838507785737e-07 1.9999999971371174
  endloop
endfacet
facet normal 1.3483986080205938e-09 -0.7808687909676804 -0.6246950706486111
  outer loop
    vertex 44.09807567599664 1.0415838507785737e-07 1.9999999971371174
    vertex 83.99999898298218 -0.40000039200542764 2.500000627545768
    vertex -1.500000009658343 -0.40000000769097416 2.4999999935441335
  endloop
endfacet
facet normal 1.3483986080205938e-09 -0.7808687909676804 -0.6246950706486111
  outer loop
    vertex 38.513164706848116 1.5999999999999999 2.59705792774587e-07
    vertex -0.5000000191931867 0.8000000185608267 0.9999999974250017
    vertex -0.5000000128451024 1.5999999999999999 -2.410272753194993e-09
  endloop
endfacet
facet normal 1.3483986080205938e-09 -0.7808687909676804 -0.6246950706486111
  outer loop
    vertex -0.5000000191931867 0.8000000185608267 0.9999999974250017
    vertex 38.513164706848116 1.5999999999999999 2.59705792774587e-07
    vertex 38.49999947042758 1.5000001042375297 0.12500007480925557
  endloop
endfacet
facet normal 1.3483986080205938e-09 -0.7808687909676804 -0.6246950706486111
  outer loop
    vertex -0.5000000191931867 0.8000000185608267 0.9999999974250017
    vertex 38.49999947042758 1.5000001042375297 0.12500007480925557
    vertex 38.60222198856622 0.7235429688889958 1.0955714235162426
  endloop
endfacet
facet normal 1.3483986080205938e-09 -0.7808687909676804 -0.6246950706486111
  outer loop
    vertex -0.5000000191931867 0.8000000185608267 0.9999999974250017
    vertex 38.60222198856622 0.7235429688889958 1.0955714235162426
    vertex -1.500000009658343 -0.40000000769097416 2.4999999935441335
  endloop
endfacet
facet normal 1.3483986080205938e-09 -0.7808687909676804 -0.6246950706486111
  outer loop
    vertex -1.500000009658343 -0.40000000769097416 2.4999999935441335
    vertex 38.60222198856622 0.7235429688889958 1.0955714235162426
    vertex 38.90192325329 1.0415838296288251e-07 1.9999999812174833
  endloop
endfacet
facet normal 1.3483986080205938e-09 -0.7808687909676804 -0.6246950706486111
  outer loop
    vertex -1.500000009658343 -0.40000000769097416 2.4999999935441335
    vertex 38.90192325329 1.0415838296288251e-07 1.9999999812174833
    vertex 44.09807567599664 1.0415838507785737e-07 1.9999999971371174
  endloop
endfacet
facet normal 0.9914448613738084 -0.13052619222006764 3.053038143109671e-09
  outer loop
    vertex 38.49999947042758 1.5000001042375297 0.12500007480925557
    vertex 38.51316470067824 1.5999999999155783 1.9999999781322095
    vertex 38.49999946464332 1.5000001041583837 1.9999999799335344
  endloop
endfacet
facet normal 0.9914448613738084 -0.13052619222006764 3.053038143109671e-09
  outer loop
    vertex 38.51316470067824 1.5999999999155783 1.9999999781322095
    vertex 38.49999947042758 1.5000001042375297 0.12500007480925557
    vertex 38.513164706848116 1.5999999999999999 2.59705792774587e-07
  endloop
endfacet
facet normal 0.9914448613738105 0.13052619222005074 3.064057375554904e-09
  outer loop
    vertex 38.60222198856622 0.7235429688889958 1.0955714235162426
    vertex 38.49999946464332 1.5000001041583837 1.9999999799335344
    vertex 38.60222198577611 0.7235429688508198 1.9999999802739248
  endloop
endfacet
facet normal 0.9914448613738105 0.13052619222005074 3.064057375554904e-09
  outer loop
    vertex 38.49999946464332 1.5000001041583837 1.9999999799335344
    vertex 38.60222198856622 0.7235429688889958 1.0955714235162426
    vertex 38.49999947042758 1.5000001042375297 0.12500007480925557
  endloop
endfacet
facet normal -0.9914448613738033 -0.13052619222010567 -3.064058127260224e-09
  outer loop
    vertex 44.4868342286084 1.5999999999155772 1.9999999970993456
    vertex 44.49999947042759 1.5000001042375306 0.1250000883524879
    vertex 44.49999946464332 1.5000001041583844 1.999999998315944
  endloop
endfacet
facet normal -0.9914448613738033 -0.13052619222010567 -3.064058127260224e-09
  outer loop
    vertex 44.49999947042759 1.5000001042375306 0.1250000883524879
    vertex 44.4868342286084 1.5999999999155772 1.9999999970993456
    vertex 44.48683423477828 1.5999999999999988 2.7867292910331216e-07
  endloop
endfacet
facet normal -0.99144486137381 0.1305261922200544 -3.0530388440902876e-09
  outer loop
    vertex 44.49999946464332 1.5000001041583844 1.999999998315944
    vertex 44.39777694630063 0.7235429688889987 1.0955714365979978
    vertex 44.39777694351052 0.7235429688508225 1.9999999980299692
  endloop
endfacet
facet normal -0.99144486137381 0.1305261922200544 -3.0530388440902876e-09
  outer loop
    vertex 44.39777694630063 0.7235429688889987 1.0955714365979978
    vertex 44.49999946464332 1.5000001041583844 1.999999998315944
    vertex 44.49999947042759 1.5000001042375306 0.1250000883524879
  endloop
endfacet
facet normal -0.9238795325112873 0.3826834323650883 -2.833960506125218e-09
  outer loop
    vertex 44.39777694630063 0.7235429688889987 1.0955714365979978
    vertex 44.09807567599664 1.0415838507785737e-07 1.9999999971371174
    vertex 44.39777694351052 0.7235429688508225 1.9999999980299692
  endloop
endfacet
facet normal 0.9238795325112873 0.3826834323650885 2.8662669280986005e-09
  outer loop
    vertex 38.60222198856622 0.7235429688889958 1.0955714235162426
    vertex 38.60222198577611 0.7235429688508198 1.9999999802739248
    vertex 38.90192325329 1.0415838296288251e-07 1.9999999812174833
  endloop
endfacet
facet normal 3.081617723090941e-09 4.459044126110966e-10 -1.0
  outer loop
    vertex 39.99999946464402 4.09807631557408 1.99999998588284
    vertex 40.340888471461504 1.8105829522395176 1.9999999865343818
    vertex 40.29999946464332 1.5000000978387777 1.9999999852534343
  endloop
endfacet
facet normal 3.081617723090941e-09 4.459044126110966e-10 -1.0
  outer loop
    vertex 40.340888471461504 1.8105829522395176 1.9999999865343818
    vertex 39.99999946464402 4.09807631557408 1.99999998588284
    vertex 40.72354232933646 4.397777583087969 1.9999999880890815
  endloop
endfacet
facet normal 3.081617723090941e-09 4.459044126110966e-10 -1.0
  outer loop
    vertex 40.29999946464332 1.5000000978387777 1.9999999852534343
    vertex 40.340888471461504 1.8105829522395176 1.9999999865343818
    vertex 40.31316470097446 1.5999999999155783 1.9999999883028268
  endloop
endfacet
facet normal 3.081617723090941e-09 4.459044126110966e-10 -1.0
  outer loop
    vertex 40.340888471461504 1.8105829522395176 1.9999999865343818
    vertex 40.72354232933646 4.397777583087969 1.9999999880890815
    vertex 40.460768976942894 2.100000098747824 1.999999986645573
  endloop
endfacet
facet normal 3.081617723090941e-09 4.459044126110966e-10 -1.0
  outer loop
    vertex 40.460768976942894 2.100000098747824 1.999999986645573
    vertex 40.72354232933646 4.397777583087969 1.9999999880890815
    vertex 40.651471322751526 2.3485282371759832 1.9999999870241718
  endloop
endfacet
facet normal 3.081617723090941e-09 4.459044126110966e-10 -1.0
  outer loop
    vertex 40.651471322751526 2.3485282371759832 1.9999999870241718
    vertex 40.72354232933646 4.397777583087969 1.9999999880890815
    vertex 40.899999459171084 2.539230585602286 1.999999987644377
  endloop
endfacet
facet normal 3.081617723090941e-09 4.459044126110966e-10 -1.0
  outer loop
    vertex 40.899999459171084 2.539230585602286 1.999999987644377
    vertex 40.72354232933646 4.397777583087969 1.9999999880890815
    vertex 41.49999946464403 4.5000001042207645 1.9999999904643584
  endloop
endfacet
facet normal 3.081617723090941e-09 4.459044126110966e-10 -1.0
  outer loop
    vertex 40.899999459171084 2.539230585602286 1.999999987644377
    vertex 41.49999946464403 4.5000001042207645 1.9999999904643584
    vertex 41.18941660441673 2.6591110941320104 1.9999999884639241
  endloop
endfacet
facet normal 3.081617723090941e-09 4.459044126110966e-10 -1.0
  outer loop
    vertex 41.18941660441673 2.6591110941320104 1.9999999884639241
    vertex 41.49999946464403 4.5000001042207645 1.9999999904643584
    vertex 41.49999945832442 2.700000104220763 1.999999989426961
  endloop
endfacet
facet normal 3.081617723090941e-09 4.459044126110966e-10 -1.0
  outer loop
    vertex 41.49999945832442 2.700000104220763 1.999999989426961
    vertex 41.49999946464403 4.5000001042207645 1.9999999904643584
    vertex 41.810582312662774 2.6591110974032786 1.9999999904678585
  endloop
endfacet
facet normal 3.081617723090941e-09 4.459044126110966e-10 -1.0
  outer loop
    vertex 41.810582312662774 2.6591110974032786 1.9999999904678585
    vertex 41.49999946464403 4.5000001042207645 1.9999999904643584
    vertex 42.27645659995159 4.397777583087969 1.9999999928467993
  endloop
endfacet
facet normal 3.081617723090941e-09 4.459044126110966e-10 -1.0
  outer loop
    vertex 41.810582312662774 2.6591110974032786 1.9999999904678585
    vertex 42.27645659995159 4.397777583087969 1.9999999928467993
    vertex 42.09999945917108 2.539230591921892 1.9999999915156819
  endloop
endfacet
facet normal 3.081617723090941e-09 4.459044126110966e-10 -1.0
  outer loop
    vertex 42.09999945917108 2.539230591921892 1.9999999915156819
    vertex 42.27645659995159 4.397777583087969 1.9999999928467993
    vertex 42.348527597599244 2.3485282461132564 1.999999992499024
  endloop
endfacet
facet normal 3.081617723090941e-09 4.459044126110966e-10 -1.0
  outer loop
    vertex 42.348527597599244 2.3485282461132564 1.999999992499024
    vertex 42.27645659995159 4.397777583087969 1.9999999928467993
    vertex 42.99999946464402 4.0980763155740805 1.999999995074044
  endloop
endfacet
facet normal 3.081617723090941e-09 4.459044126110966e-10 -1.0
  outer loop
    vertex 42.348527597599244 2.3485282461132564 1.999999992499024
    vertex 42.99999946464402 4.0980763155740805 1.999999995074044
    vertex 42.53922994602555 2.1000001096937027 1.9999999933508696
  endloop
endfacet
facet normal 3.081617723090941e-09 4.459044126110966e-10 -1.0
  outer loop
    vertex 42.53922994602555 2.1000001096937027 1.9999999933508696
    vertex 42.99999946464402 4.0980763155740805 1.999999995074044
    vertex 42.65911045455527 1.8105829644480598 1.9999999940131683
  endloop
endfacet
facet normal 3.081617723090941e-09 4.459044126110966e-10 -1.0
  outer loop
    vertex 42.65911045455527 1.8105829644480598 1.9999999940131683
    vertex 42.99999946464402 4.0980763155740805 1.999999995074044
    vertex 42.68683422890463 1.5999999999155778 1.9999999941962332
  endloop
endfacet
facet normal 3.081617723090941e-09 4.459044126110966e-10 -1.0
  outer loop
    vertex 42.68683422890463 1.5999999999155778 1.9999999941962332
    vertex 42.99999946464402 4.0980763155740805 1.999999995074044
    vertex 42.69999946464332 1.500000110477991 1.9999999929960441
  endloop
endfacet
facet normal 3.081617723090941e-09 4.459044126110966e-10 -1.0
  outer loop
    vertex 38.51316470067824 1.5999999999155783 1.9999999781322095
    vertex 38.60222198577611 0.7235429688508198 1.9999999802739248
    vertex 38.49999946464332 1.5000001041583837 1.9999999799335344
  endloop
endfacet
facet normal 3.081617723090941e-09 4.459044126110966e-10 -1.0
  outer loop
    vertex 38.60222198577611 0.7235429688508198 1.9999999802739248
    vertex 38.51316470067824 1.5999999999155783 1.9999999781322095
    vertex 38.60222198577682 2.2764572395283262 1.9999999816642504
  endloop
endfacet
facet normal 3.081617723090941e-09 4.459044126110966e-10 -1.0
  outer loop
    vertex 38.60222198577611 0.7235429688508198 1.9999999802739248
    vertex 38.60222198577682 2.2764572395283262 1.9999999816642504
    vertex 38.90192325329 1.0415838296288251e-07 1.9999999812174833
  endloop
endfacet
facet normal 3.081617723090941e-09 4.459044126110966e-10 -1.0
  outer loop
    vertex 38.90192325329 1.0415838296288251e-07 1.9999999812174833
    vertex 38.60222198577682 2.2764572395283262 1.9999999816642504
    vertex 38.901923253290704 3.000000104220763 1.9999999825571024
  endloop
endfacet
facet normal 3.081617723090941e-09 4.459044126110966e-10 -1.0
  outer loop
    vertex 38.90192325329 1.0415838296288251e-07 1.9999999812174833
    vertex 38.901923253290704 3.000000104220763 1.9999999825571024
    vertex 40.460768983261794 0.9000000986854452 1.9999999863433506
  endloop
endfacet
facet normal 3.081617723090941e-09 4.459044126110966e-10 -1.0
  outer loop
    vertex 38.90192325329 1.0415838296288251e-07 1.9999999812174833
    vertex 40.460768983261794 0.9000000986854452 1.9999999863433506
    vertex 40.6514713316881 0.6514719622658918 1.9999999871951961
  endloop
endfacet
facet normal 3.081617723090941e-09 4.459044126110966e-10 -1.0
  outer loop
    vertex 38.90192325329 1.0415838296288251e-07 1.9999999812174833
    vertex 40.6514713316881 0.6514719622658918 1.9999999871951961
    vertex 40.89999947011626 0.460769616457256 1.9999999881785375
  endloop
endfacet
facet normal 3.081617723090941e-09 4.459044126110966e-10 -1.0
  outer loop
    vertex 38.90192325329 1.0415838296288251e-07 1.9999999812174833
    vertex 40.89999947011626 0.460769616457256 1.9999999881785375
    vertex 41.18941661662457 0.3408891109758692 1.999999989226361
  endloop
endfacet
facet normal 3.081617723090941e-09 4.459044126110966e-10 -1.0
  outer loop
    vertex 38.90192325329 1.0415838296288251e-07 1.9999999812174833
    vertex 41.18941661662457 0.3408891109758692 1.999999989226361
    vertex 41.499999470962926 0.30000010415838585 1.9999999902672585
  endloop
endfacet
facet normal 3.081617723090941e-09 4.459044126110966e-10 -1.0
  outer loop
    vertex 38.90192325329 1.0415838296288251e-07 1.9999999812174833
    vertex 41.499999470962926 0.30000010415838585 1.9999999902672585
    vertex 44.09807567599664 1.0415838507785737e-07 1.9999999971371174
  endloop
endfacet
facet normal 3.081617723090941e-09 4.459044126110966e-10 -1.0
  outer loop
    vertex 40.460768983261794 0.9000000986854452 1.9999999863433506
    vertex 38.901923253290704 3.000000104220763 1.9999999825571024
    vertex 40.340888474732076 1.1894172439310886 1.9999999856810518
  endloop
endfacet
facet normal 3.081617723090941e-09 4.459044126110966e-10 -1.0
  outer loop
    vertex 40.340888474732076 1.1894172439310886 1.9999999856810518
    vertex 38.901923253290704 3.000000104220763 1.9999999825571024
    vertex 39.37867912108438 3.6213204477804064 1.9999999839959848
  endloop
endfacet
facet normal 3.081617723090941e-09 4.459044126110966e-10 -1.0
  outer loop
    vertex 40.340888474732076 1.1894172439310886 1.9999999856810518
    vertex 39.37867912108438 3.6213204477804064 1.9999999839959848
    vertex 40.29999946464332 1.5000000978387777 1.9999999852534343
  endloop
endfacet
facet normal 3.081617723090941e-09 4.459044126110966e-10 -1.0
  outer loop
    vertex 40.29999946464332 1.5000000978387777 1.9999999852534343
    vertex 39.37867912108438 3.6213204477804064 1.9999999839959848
    vertex 39.99999946464402 4.09807631557408 1.99999998588284
  endloop
endfacet
facet normal 3.081617723090941e-09 4.459044126110966e-10 -1.0
  outer loop
    vertex 44.09807567599664 1.0415838507785737e-07 1.9999999971371174
    vertex 41.499999470962926 0.30000010415838585 1.9999999902672585
    vertex 41.810582324870616 0.34088911424713864 1.9999999912302953
  endloop
endfacet
facet normal 3.081617723090941e-09 4.459044126110966e-10 -1.0
  outer loop
    vertex 44.09807567599664 1.0415838507785737e-07 1.9999999971371174
    vertex 41.810582324870616 0.34088911424713864 1.9999999912302953
    vertex 42.09999947011626 0.4607696227768633 1.9999999920498426
  endloop
endfacet
facet normal 3.081617723090941e-09 4.459044126110966e-10 -1.0
  outer loop
    vertex 44.09807567599664 1.0415838507785737e-07 1.9999999971371174
    vertex 42.09999947011626 0.4607696227768633 1.9999999920498426
    vertex 42.34852760653582 0.651471971203166 1.9999999926700482
  endloop
endfacet
facet normal 3.081617723090941e-09 4.459044126110966e-10 -1.0
  outer loop
    vertex 44.09807567599664 1.0415838507785737e-07 1.9999999971371174
    vertex 42.34852760653582 0.651471971203166 1.9999999926700482
    vertex 42.53922995234444 0.9000001096313256 1.9999999930486472
  endloop
endfacet
facet normal 3.081617723090941e-09 4.459044126110966e-10 -1.0
  outer loop
    vertex 44.09807567599664 1.0415838507785737e-07 1.9999999971371174
    vertex 42.53922995234444 0.9000001096313256 1.9999999930486472
    vertex 42.65911045782584 1.1894172561396315 1.9999999931598385
  endloop
endfacet
facet normal 3.081617723090941e-09 4.459044126110966e-10 -1.0
  outer loop
    vertex 44.09807567599664 1.0415838507785737e-07 1.9999999971371174
    vertex 42.65911045782584 1.1894172561396315 1.9999999931598385
    vertex 42.69999946464332 1.500000110477991 1.9999999929960441
  endloop
endfacet
facet normal 3.081617723090941e-09 4.459044126110966e-10 -1.0
  outer loop
    vertex 44.09807567599664 1.0415838507785737e-07 1.9999999971371174
    vertex 42.69999946464332 1.500000110477991 1.9999999929960441
    vertex 42.99999946464402 4.0980763155740805 1.999999995074044
  endloop
endfacet
facet normal 3.081617723090941e-09 4.459044126110966e-10 -1.0
  outer loop
    vertex 44.09807567599664 1.0415838507785737e-07 1.9999999971371174
    vertex 42.99999946464402 4.0980763155740805 1.999999995074044
    vertex 43.621319808203666 3.621320447780407 1.9999999969943114
  endloop
endfacet
facet normal 3.081617723090941e-09 4.459044126110966e-10 -1.0
  outer loop
    vertex 44.09807567599664 1.0415838507785737e-07 1.9999999971371174
    vertex 43.621319808203666 3.621320447780407 1.9999999969943114
    vertex 44.09807567599734 3.0000001042207654 1.9999999984767367
  endloop
endfacet
facet normal 3.081617723090941e-09 4.459044126110966e-10 -1.0
  outer loop
    vertex 44.09807567599664 1.0415838507785737e-07 1.9999999971371174
    vertex 44.09807567599734 3.0000001042207654 1.9999999984767367
    vertex 44.39777694351052 0.7235429688508225 1.9999999980299692
  endloop
endfacet
facet normal 3.081617723090941e-09 4.459044126110966e-10 -1.0
  outer loop
    vertex 44.39777694351052 0.7235429688508225 1.9999999980299692
    vertex 44.09807567599734 3.0000001042207654 1.9999999984767367
    vertex 44.39777694351123 2.276457239528328 1.9999999994202948
  endloop
endfacet
facet normal 3.081617723090941e-09 4.459044126110966e-10 -1.0
  outer loop
    vertex 44.39777694351052 0.7235429688508225 1.9999999980299692
    vertex 44.39777694351123 2.276457239528328 1.9999999994202948
    vertex 44.4868342286084 1.5999999999155772 1.9999999970993456
  endloop
endfacet
facet normal 3.081617723090941e-09 4.459044126110966e-10 -1.0
  outer loop
    vertex 44.39777694351052 0.7235429688508225 1.9999999980299692
    vertex 44.4868342286084 1.5999999999155772 1.9999999970993456
    vertex 44.49999946464332 1.5000001041583844 1.999999998315944
  endloop
endfacet
facet normal -4.494905942167034e-09 -1.0 -4.601123715846265e-18
  outer loop
    vertex 83.99999898298218 -0.40000039200542764 2.500000627545768
    vertex -1.500000021962198 -0.40000000769097405 4.499999992437433
    vertex -1.500000009658343 -0.40000000769097416 2.4999999935441335
  endloop
endfacet
facet normal -4.494905942167034e-09 -1.0 -4.601123715846265e-18
  outer loop
    vertex -1.500000021962198 -0.40000000769097405 4.499999992437433
    vertex 83.99999898298218 -0.40000039200542764 2.500000627545768
    vertex 83.99999897158622 -0.40000039200542764 4.5000006274419615
  endloop
endfacet
endsolid HandRemote-BackCover
