solid HandRemote-BatteryInsulatorPlate
facet normal -8.398244531395168e-17 6.598875338962391e-17 1.0
  outer loop
    vertex 56.64531364385072 0.0 1.000000000000003
    vertex 0.0 16.999999999999986 0.9999999999999999
    vertex 0.0 0.0 1.0000000000000018
  endloop
endfacet
facet normal -8.398244531395168e-17 6.598875338962391e-17 1.0
  outer loop
    vertex 0.0 16.999999999999986 0.9999999999999999
    vertex 56.64531364385072 0.0 1.000000000000003
    vertex 10.0 16.999999999999986 0.9999999999999999
  endloop
endfacet
facet normal -8.398244531395168e-17 6.598875338962391e-17 1.0
  outer loop
    vertex 10.0 16.999999999999986 0.9999999999999999
    vertex 56.64531364385072 0.0 1.000000000000003
    vertex 19.999999999999996 23.999999999999996 0.9999999999999981
  endloop
endfacet
facet normal -8.398244531395168e-17 6.598875338962391e-17 1.0
  outer loop
    vertex 19.999999999999996 23.999999999999996 0.9999999999999981
    vertex 56.64531364385072 0.0 1.000000000000003
    vertex 19.999999999999996 28.999999999999986 0.9999999999999986
  endloop
endfacet
facet normal -8.398244531395168e-17 6.598875338962391e-17 1.0
  outer loop
    vertex 19.999999999999996 28.999999999999986 0.9999999999999986
    vertex 56.64531364385072 0.0 1.000000000000003
    vertex 56.64531364385072 28.999999999999986 1.000000000000006
  endloop
endfacet
facet normal -8.398244531395168e-17 6.598875338962391e-17 1.0
  outer loop
    vertex 19.999999999999996 23.999999999999996 0.9999999999999981
    vertex 9.999999999999998 23.999999999999996 0.9999999999999981
    vertex 10.0 16.999999999999986 0.9999999999999999
  endloop
endfacet
facet normal 0.0 -1.0 0.0
  outer loop
    vertex 56.64531364385072 0.0 3.084338340286763e-15
    vertex 0.0 0.0 1.0000000000000018
    vertex 8.044287923426652e-17 0.0 1.674355099012814e-15
  endloop
endfacet
facet normal 0.0 -1.0 0.0
  outer loop
    vertex 0.0 0.0 1.0000000000000018
    vertex 56.64531364385072 0.0 3.084338340286763e-15
    vertex 56.64531364385072 0.0 1.000000000000003
  endloop
endfacet
facet normal 0.0 1.0 0.0
  outer loop
    vertex 19.999999999999996 28.999999999999986 0.9999999999999986
    vertex 56.64531364385072 28.999999999999986 5.9043048228346605e-15
    vertex 19.999999999999996 28.999999999999986 3.084338340286763e-15
  endloop
endfacet
facet normal 0.0 1.0 0.0
  outer loop
    vertex 56.64531364385072 28.999999999999986 5.9043048228346605e-15
    vertex 19.999999999999996 28.999999999999986 0.9999999999999986
    vertex 56.64531364385072 28.999999999999986 1.000000000000006
  endloop
endfacet
facet normal 1.0 0.0 0.0
  outer loop
    vertex 56.64531364385072 28.999999999999986 5.9043048228346605e-15
    vertex 56.64531364385072 0.0 1.000000000000003
    vertex 56.64531364385072 0.0 3.084338340286763e-15
  endloop
endfacet
facet normal 1.0 0.0 0.0
  outer loop
    vertex 56.64531364385072 0.0 1.000000000000003
    vertex 56.64531364385072 28.999999999999986 5.9043048228346605e-15
    vertex 56.64531364385072 28.999999999999986 1.000000000000006
  endloop
endfacet
facet normal 6.206195748787529e-17 5.739683134146181e-17 -1.0
  outer loop
    vertex 19.999999999999996 23.999999999999996 3.084338340286763e-15
    vertex 10.0 16.999999999999986 0.0
    vertex 10.0 23.999999999999996 3.084338340286763e-15
  endloop
endfacet
facet normal 6.206195748787529e-17 5.739683134146181e-17 -1.0
  outer loop
    vertex 56.64531364385072 28.999999999999986 5.9043048228346605e-15
    vertex 19.999999999999996 23.999999999999996 3.084338340286763e-15
    vertex 19.999999999999996 28.999999999999986 3.084338340286763e-15
  endloop
endfacet
facet normal 6.206195748787529e-17 5.739683134146181e-17 -1.0
  outer loop
    vertex 10.0 16.999999999999986 0.0
    vertex 8.044287923426652e-17 0.0 1.674355099012814e-15
    vertex 8.044287923426652e-17 16.999999999999986 0.0
  endloop
endfacet
facet normal 6.206195748787529e-17 5.739683134146181e-17 -1.0
  outer loop
    vertex 8.044287923426652e-17 0.0 1.674355099012814e-15
    vertex 10.0 16.999999999999986 0.0
    vertex 56.64531364385072 0.0 3.084338340286763e-15
  endloop
endfacet
facet normal 6.206195748787529e-17 5.739683134146181e-17 -1.0
  outer loop
    vertex 56.64531364385072 0.0 3.084338340286763e-15
    vertex 10.0 16.999999999999986 0.0
    vertex 19.999999999999996 23.999999999999996 3.084338340286763e-15
  endloop
endfacet
facet normal 6.206195748787529e-17 5.739683134146181e-17 -1.0
  outer loop
    vertex 56.64531364385072 0.0 3.084338340286763e-15
    vertex 19.999999999999996 23.999999999999996 3.084338340286763e-15
    vertex 56.64531364385072 28.999999999999986 5.9043048228346605e-15
  endloop
endfacet
facet normal -1.0 -1.007130886624247e-16 -7.049916206369745e-16
  outer loop
    vertex 9.999999999999998 23.999999999999996 0.9999999999999981
    vertex 10.0 16.999999999999986 0.0
    vertex 10.0 16.999999999999986 0.9999999999999999
  endloop
endfacet
facet normal -1.0 -1.007130886624247e-16 -7.049916206369745e-16
  outer loop
    vertex 10.0 16.999999999999986 0.0
    vertex 9.999999999999998 23.999999999999996 0.9999999999999981
    vertex 10.0 23.999999999999996 3.084338340286763e-15
  endloop
endfacet
facet normal 0.0 1.0 0.0
  outer loop
    vertex 0.0 16.999999999999986 0.9999999999999999
    vertex 10.0 16.999999999999986 0.0
    vertex 8.044287923426652e-17 16.999999999999986 0.0
  endloop
endfacet
facet normal 0.0 1.0 0.0
  outer loop
    vertex 10.0 16.999999999999986 0.0
    vertex 0.0 16.999999999999986 0.9999999999999999
    vertex 10.0 16.999999999999986 0.9999999999999999
  endloop
endfacet
facet normal -1.0 -7.63226668996185e-33 -8.04428792342665e-17
  outer loop
    vertex 0.0 16.999999999999986 0.9999999999999999
    vertex 8.044287923426652e-17 0.0 1.674355099012814e-15
    vertex 0.0 0.0 1.0000000000000018
  endloop
endfacet
facet normal -1.0 -7.63226668996185e-33 -8.04428792342665e-17
  outer loop
    vertex 8.044287923426652e-17 0.0 1.674355099012814e-15
    vertex 0.0 16.999999999999986 0.9999999999999999
    vertex 8.044287923426652e-17 16.999999999999986 0.0
  endloop
endfacet
facet normal -1.0 0.0 0.0
  outer loop
    vertex 19.999999999999996 28.999999999999986 0.9999999999999986
    vertex 19.999999999999996 23.999999999999996 3.084338340286763e-15
    vertex 19.999999999999996 23.999999999999996 0.9999999999999981
  endloop
endfacet
facet normal -1.0 0.0 0.0
  outer loop
    vertex 19.999999999999996 23.999999999999996 3.084338340286763e-15
    vertex 19.999999999999996 28.999999999999986 0.9999999999999986
    vertex 19.999999999999996 28.999999999999986 3.084338340286763e-15
  endloop
endfacet
facet normal 0.0 1.0 0.0
  outer loop
    vertex 9.999999999999998 23.999999999999996 0.9999999999999981
    vertex 19.999999999999996 23.999999999999996 3.084338340286763e-15
    vertex 10.0 23.999999999999996 3.084338340286763e-15
  endloop
endfacet
facet normal 0.0 1.0 0.0
  outer loop
    vertex 19.999999999999996 23.999999999999996 3.084338340286763e-15
    vertex 9.999999999999998 23.999999999999996 0.9999999999999981
    vertex 19.999999999999996 23.999999999999996 0.9999999999999981
  endloop
endfacet
endsolid HandRemote-BatteryInsulatorPlate
