solid HandRemote-BatteryCover
facet normal 1.2354205775323077e-16 -7.137193122287933e-17 -1.0
  outer loop
    vertex 59.39531364385071 31.500000000000004 1.463055902127576e-14
    vertex 41.39531364385073 29.500000000000014 9.983992163422465e-15
    vertex 41.39531364385073 31.500000000000014 1.0688983784059438e-14
  endloop
endfacet
facet normal 1.2354205775323077e-16 -7.137193122287933e-17 -1.0
  outer loop
    vertex 0.5000000000000056 29.500000000000004 3.1526333622809743e-16
    vertex 41.39531364385072 0.4999999999999995 1.127032290034998e-14
    vertex 0.5 0.49999999999999994 1.1091868164688397e-14
  endloop
endfacet
facet normal 1.2354205775323077e-16 -7.137193122287933e-17 -1.0
  outer loop
    vertex 41.39531364385072 0.4999999999999995 1.127032290034998e-14
    vertex 0.5000000000000056 29.500000000000004 3.1526333622809743e-16
    vertex 41.39531364385073 29.500000000000014 9.983992163422465e-15
  endloop
endfacet
facet normal 1.2354205775323077e-16 -7.137193122287933e-17 -1.0
  outer loop
    vertex 41.39531364385072 0.4999999999999995 1.127032290034998e-14
    vertex 41.39531364385073 29.500000000000014 9.983992163422465e-15
    vertex 41.39531364385072 -1.5000000000000004 1.1502776113216857e-14
  endloop
endfacet
facet normal 1.2354205775323077e-16 -7.137193122287933e-17 -1.0
  outer loop
    vertex 41.39531364385072 -1.5000000000000004 1.1502776113216857e-14
    vertex 41.39531364385073 29.500000000000014 9.983992163422465e-15
    vertex 59.39531364385071 -1.5 1.1559318584434266e-14
  endloop
endfacet
facet normal 1.2354205775323077e-16 -7.137193122287933e-17 -1.0
  outer loop
    vertex 59.39531364385071 -1.5 1.1559318584434266e-14
    vertex 41.39531364385073 29.500000000000014 9.983992163422465e-15
    vertex 59.39531364385071 31.500000000000004 1.463055902127576e-14
  endloop
endfacet
facet normal -1.2260962599501795e-16 1.0 4.0520724118275216e-16
  outer loop
    vertex 0.5000000000000037 29.500000000000004 8.0
    vertex 41.39531364385073 29.500000000000014 9.983992163422465e-15
    vertex 0.5000000000000056 29.500000000000004 3.1526333622809743e-16
  endloop
endfacet
facet normal -1.2260962599501795e-16 1.0 4.0520724118275216e-16
  outer loop
    vertex 41.39531364385073 29.500000000000014 9.983992163422465e-15
    vertex 0.5000000000000037 29.500000000000004 8.0
    vertex 41.39531364385073 29.500000000000007 6.0000000000000036
  endloop
endfacet
facet normal -1.2260962599501795e-16 1.0 4.0520724118275216e-16
  outer loop
    vertex 41.39531364385073 29.500000000000007 6.0000000000000036
    vertex 0.5000000000000037 29.500000000000004 8.0
    vertex 41.39531364385073 29.500000000000004 12.00000000000001
  endloop
endfacet
facet normal -1.2260962599501795e-16 1.0 4.0520724118275216e-16
  outer loop
    vertex 41.39531364385073 29.500000000000004 12.00000000000001
    vertex 0.5000000000000037 29.500000000000004 8.0
    vertex -1.2499999999999956 29.500000000000004 11.000000000000002
  endloop
endfacet
facet normal -1.2260962599501795e-16 1.0 4.0520724118275216e-16
  outer loop
    vertex 41.39531364385073 29.500000000000004 12.00000000000001
    vertex -1.2499999999999956 29.500000000000004 11.000000000000002
    vertex -1.2499999999999958 29.500000000000004 12.0
  endloop
endfacet
facet normal -6.4531551766647334e-18 -1.0 1.637098829278884e-17
  outer loop
    vertex 56.39531364385072 28.500000000000004 6.000000000000012
    vertex 41.39531364385072 28.50000000000001 6.0000000000000036
    vertex 56.39531364385072 28.500000000000004 1.0000000000000135
  endloop
endfacet
facet normal -6.4531551766647334e-18 -1.0 1.637098829278884e-17
  outer loop
    vertex 56.39531364385072 28.500000000000004 1.0000000000000135
    vertex 1.5000000000000155 28.500000000000004 7.999999999999996
    vertex 1.500000000000005 28.500000000000004 1.0000000000000009
  endloop
endfacet
facet normal -6.4531551766647334e-18 -1.0 1.637098829278884e-17
  outer loop
    vertex 1.5000000000000155 28.500000000000004 7.999999999999996
    vertex 56.39531364385072 28.500000000000004 1.0000000000000135
    vertex 41.39531364385072 28.50000000000001 6.0000000000000036
  endloop
endfacet
facet normal -6.4531551766647334e-18 -1.0 1.637098829278884e-17
  outer loop
    vertex 1.5000000000000155 28.500000000000004 7.999999999999996
    vertex 41.39531364385072 28.50000000000001 6.0000000000000036
    vertex 41.39531364385072 28.500000000000004 12.00000000000001
  endloop
endfacet
facet normal -6.4531551766647334e-18 -1.0 1.637098829278884e-17
  outer loop
    vertex 1.5000000000000155 28.500000000000004 7.999999999999996
    vertex 41.39531364385072 28.500000000000004 12.00000000000001
    vertex 0.5000000000000037 28.50000000000001 8.0
  endloop
endfacet
facet normal -6.4531551766647334e-18 -1.0 1.637098829278884e-17
  outer loop
    vertex 0.5000000000000037 28.50000000000001 8.0
    vertex 41.39531364385072 28.500000000000004 12.00000000000001
    vertex -1.2499999999999956 28.500000000000004 11.000000000000002
  endloop
endfacet
facet normal -6.4531551766647334e-18 -1.0 1.637098829278884e-17
  outer loop
    vertex -1.2499999999999956 28.500000000000004 11.000000000000002
    vertex 41.39531364385072 28.500000000000004 12.00000000000001
    vertex -1.2499999999999956 28.500000000000004 12.0
  endloop
endfacet
facet normal -1.0 -1.7624790515924357e-16 -4.853644386409714e-33
  outer loop
    vertex -1.250000000000001 1.5000000000000016 12.000000000000009
    vertex -1.2500000000000009 0.5000000000000017 11.000000000000002
    vertex -1.2500000000000009 0.5000000000000017 12.00000000000001
  endloop
endfacet
facet normal -1.0 -1.7624790515924357e-16 -4.853644386409714e-33
  outer loop
    vertex -1.2500000000000009 0.5000000000000017 11.000000000000002
    vertex -1.250000000000001 1.5000000000000016 12.000000000000009
    vertex -1.250000000000001 1.5000000000000016 11.000000000000009
  endloop
endfacet
facet normal -1.2200349996181304e-16 1.4360940420382812e-16 1.0
  outer loop
    vertex 56.39531364385072 1.5000000000000002 1.0000000000000113
    vertex 1.500000000000005 28.500000000000004 1.0000000000000009
    vertex 1.5 1.5000000000000002 1.0000000000000107
  endloop
endfacet
facet normal -1.2200349996181304e-16 1.4360940420382812e-16 1.0
  outer loop
    vertex 1.500000000000005 28.500000000000004 1.0000000000000009
    vertex 56.39531364385072 1.5000000000000002 1.0000000000000113
    vertex 56.39531364385072 28.500000000000004 1.0000000000000135
  endloop
endfacet
facet normal -0.0 1.0 -0.0
  outer loop
    vertex 56.39531364385072 3.250000000000001 6.000000000000008
    vertex 59.39531364385071 3.250000000000001 2.000000000000012
    vertex 56.39531364385072 3.250000000000001 2.000000000000012
  endloop
endfacet
facet normal -0.0 1.0 -0.0
  outer loop
    vertex 59.39531364385071 3.250000000000001 2.000000000000012
    vertex 56.39531364385072 3.250000000000001 6.000000000000008
    vertex 59.39531364385071 3.250000000000001 6.000000000000008
  endloop
endfacet
facet normal -0.0 -1.4099832412739488e-16 1.0
  outer loop
    vertex 59.39531364385071 4.250000000000001 12.000000000000012
    vertex 56.39531364385072 14.25 12.000000000000012
    vertex 56.39531364385072 4.250000000000001 12.000000000000012
  endloop
endfacet
facet normal -0.0 -1.4099832412739488e-16 1.0
  outer loop
    vertex 56.39531364385072 14.25 12.000000000000012
    vertex 59.39531364385071 4.250000000000001 12.000000000000012
    vertex 59.39531364385071 14.25 12.000000000000012
  endloop
endfacet
facet normal 1.0 -0.0 -0.0
  outer loop
    vertex 59.39531364385071 14.25 9.000000000000014
    vertex 59.39531364385071 4.250000000000001 12.000000000000012
    vertex 59.39531364385071 4.250000000000001 9.000000000000012
  endloop
endfacet
facet normal 1.0 -0.0 -0.0
  outer loop
    vertex 59.39531364385071 4.250000000000001 12.000000000000012
    vertex 59.39531364385071 14.25 9.000000000000014
    vertex 59.39531364385071 14.25 12.000000000000012
  endloop
endfacet
facet normal 0.8320502943378442 5.2768522504209664e-17 -0.5547001962252286
  outer loop
    vertex 57.39531364385072 14.250000000000002 6.000000000000014
    vertex 59.39531364385071 4.250000000000001 9.000000000000012
    vertex 57.39531364385072 4.250000000000001 6.000000000000014
  endloop
endfacet
facet normal 0.8320502943378442 5.2768522504209664e-17 -0.5547001962252286
  outer loop
    vertex 59.39531364385071 4.250000000000001 9.000000000000012
    vertex 57.39531364385072 14.250000000000002 6.000000000000014
    vertex 59.39531364385071 14.25 9.000000000000014
  endloop
endfacet
facet normal -2.314412029266629e-16 5.1804604522867055e-31 1.0
  outer loop
    vertex -1.2499999999999956 28.500000000000004 12.0
    vertex 41.39531364385073 29.500000000000004 12.00000000000001
    vertex -1.2499999999999958 29.500000000000004 12.0
  endloop
endfacet
facet normal -2.314412029266629e-16 5.1804604522867055e-31 1.0
  outer loop
    vertex 41.39531364385073 29.500000000000004 12.00000000000001
    vertex -1.2499999999999956 28.500000000000004 12.0
    vertex 41.39531364385072 28.500000000000004 12.00000000000001
  endloop
endfacet
facet normal -1.0 -8.812395257962197e-17 -8.812395257962183e-17
  outer loop
    vertex -1.2499999999999958 29.500000000000004 12.0
    vertex -1.2499999999999956 28.500000000000004 11.000000000000002
    vertex -1.2499999999999956 28.500000000000004 12.0
  endloop
endfacet
facet normal -1.0 -8.812395257962197e-17 -8.812395257962183e-17
  outer loop
    vertex -1.2499999999999956 28.500000000000004 11.000000000000002
    vertex -1.2499999999999958 29.500000000000004 12.0
    vertex -1.2499999999999956 29.500000000000004 11.000000000000002
  endloop
endfacet
facet normal 1.0 -1.893033055414097e-16 1.4099832412739508e-16
  outer loop
    vertex 1.500000000000005 28.500000000000004 1.0000000000000009
    vertex 1.5000000000000104 1.5000000000000009 7.999999999999996
    vertex 1.5 1.5000000000000002 1.0000000000000107
  endloop
endfacet
facet normal 1.0 -1.893033055414097e-16 1.4099832412739508e-16
  outer loop
    vertex 1.5000000000000104 1.5000000000000009 7.999999999999996
    vertex 1.500000000000005 28.500000000000004 1.0000000000000009
    vertex 1.5000000000000155 28.500000000000004 7.999999999999996
  endloop
endfacet
facet normal -0.8637789008984325 5.8808742722743235e-15 -0.503871025524088
  outer loop
    vertex -1.2500000000000009 0.5000000000000017 11.000000000000002
    vertex 0.5000000000000112 1.5000000000000007 8.000000000000007
    vertex 0.49999999999999906 0.500000000000001 8.000000000000012
  endloop
endfacet
facet normal -0.8637789008984325 5.8808742722743235e-15 -0.503871025524088
  outer loop
    vertex 0.5000000000000112 1.5000000000000007 8.000000000000007
    vertex -1.2500000000000009 0.5000000000000017 11.000000000000002
    vertex -1.250000000000001 1.5000000000000016 11.000000000000009
  endloop
endfacet
facet normal -0.8637789008984335 -1.0069990192248664e-17 -0.503871025524086
  outer loop
    vertex -1.2499999999999956 29.500000000000004 11.000000000000002
    vertex 0.5000000000000037 28.50000000000001 8.0
    vertex -1.2499999999999956 28.500000000000004 11.000000000000002
  endloop
endfacet
facet normal -0.8637789008984335 -1.0069990192248664e-17 -0.503871025524086
  outer loop
    vertex 0.5000000000000037 28.50000000000001 8.0
    vertex -1.2499999999999956 29.500000000000004 11.000000000000002
    vertex 0.5000000000000037 29.500000000000004 8.0
  endloop
endfacet
facet normal -1.0 3.596597649869263e-17 2.037866403403749e-16
  outer loop
    vertex 0.49999999999999906 0.500000000000001 8.000000000000012
    vertex 0.5000000000000056 29.500000000000004 3.1526333622809743e-16
    vertex 0.5 0.49999999999999994 1.1091868164688397e-14
  endloop
endfacet
facet normal -1.0 3.596597649869263e-17 2.037866403403749e-16
  outer loop
    vertex 0.5000000000000056 29.500000000000004 3.1526333622809743e-16
    vertex 0.49999999999999906 0.500000000000001 8.000000000000012
    vertex 0.5000000000000112 1.5000000000000007 8.000000000000007
  endloop
endfacet
facet normal -1.0 3.596597649869263e-17 2.037866403403749e-16
  outer loop
    vertex 0.5000000000000056 29.500000000000004 3.1526333622809743e-16
    vertex 0.5000000000000112 1.5000000000000007 8.000000000000007
    vertex 0.5000000000000037 28.50000000000001 8.0
  endloop
endfacet
facet normal -1.0 3.596597649869263e-17 2.037866403403749e-16
  outer loop
    vertex 0.5000000000000056 29.500000000000004 3.1526333622809743e-16
    vertex 0.5000000000000037 28.50000000000001 8.0
    vertex 0.5000000000000037 29.500000000000004 8.0
  endloop
endfacet
facet normal 8.459899447643628e-15 1.0444320305732991e-16 1.0
  outer loop
    vertex 0.5000000000000112 1.5000000000000007 8.000000000000007
    vertex 1.5000000000000155 28.500000000000004 7.999999999999996
    vertex 0.5000000000000037 28.50000000000001 8.0
  endloop
endfacet
facet normal 8.459899447643628e-15 1.0444320305732991e-16 1.0
  outer loop
    vertex 1.5000000000000155 28.500000000000004 7.999999999999996
    vertex 0.5000000000000112 1.5000000000000007 8.000000000000007
    vertex 1.5000000000000104 1.5000000000000009 7.999999999999996
  endloop
endfacet
facet normal -4.95945434842849e-17 7.049916206369732e-16 1.0
  outer loop
    vertex -1.2500000000000009 0.5000000000000017 12.00000000000001
    vertex 41.39531364385071 1.5000000000000016 12.000000000000012
    vertex -1.250000000000001 1.5000000000000016 12.000000000000009
  endloop
endfacet
facet normal -4.95945434842849e-17 7.049916206369732e-16 1.0
  outer loop
    vertex 41.39531364385071 1.5000000000000016 12.000000000000012
    vertex -1.2500000000000009 0.5000000000000017 12.00000000000001
    vertex 41.39531364385072 0.5000000000000003 12.000000000000012
  endloop
endfacet
facet normal -8.99920997453932e-18 1.0 -1.2779791910438312e-16
  outer loop
    vertex 1.5000000000000104 1.5000000000000009 7.999999999999996
    vertex 56.39531364385072 1.5000000000000002 1.0000000000000113
    vertex 1.5 1.5000000000000002 1.0000000000000107
  endloop
endfacet
facet normal -8.99920997453932e-18 1.0 -1.2779791910438312e-16
  outer loop
    vertex 56.39531364385072 1.5000000000000002 1.0000000000000113
    vertex 1.5000000000000104 1.5000000000000009 7.999999999999996
    vertex 41.39531364385071 1.5000000000000016 6.000000000000008
  endloop
endfacet
facet normal -8.99920997453932e-18 1.0 -1.2779791910438312e-16
  outer loop
    vertex 41.39531364385071 1.5000000000000016 6.000000000000008
    vertex 1.5000000000000104 1.5000000000000009 7.999999999999996
    vertex 41.39531364385071 1.5000000000000016 12.000000000000012
  endloop
endfacet
facet normal -8.99920997453932e-18 1.0 -1.2779791910438312e-16
  outer loop
    vertex 41.39531364385071 1.5000000000000016 12.000000000000012
    vertex 1.5000000000000104 1.5000000000000009 7.999999999999996
    vertex 0.5000000000000112 1.5000000000000007 8.000000000000007
  endloop
endfacet
facet normal -8.99920997453932e-18 1.0 -1.2779791910438312e-16
  outer loop
    vertex 41.39531364385071 1.5000000000000016 12.000000000000012
    vertex 0.5000000000000112 1.5000000000000007 8.000000000000007
    vertex -1.250000000000001 1.5000000000000016 11.000000000000009
  endloop
endfacet
facet normal -8.99920997453932e-18 1.0 -1.2779791910438312e-16
  outer loop
    vertex 41.39531364385071 1.5000000000000016 12.000000000000012
    vertex -1.250000000000001 1.5000000000000016 11.000000000000009
    vertex -1.250000000000001 1.5000000000000016 12.000000000000009
  endloop
endfacet
facet normal -8.99920997453932e-18 1.0 -1.2779791910438312e-16
  outer loop
    vertex 56.39531364385072 1.5000000000000018 6.000000000000016
    vertex 56.39531364385072 1.5000000000000002 1.0000000000000113
    vertex 41.39531364385071 1.5000000000000016 6.000000000000008
  endloop
endfacet
facet normal 1.0 -5.639932965095805e-15 4.934941344458863e-16
  outer loop
    vertex 41.39531364385072 28.50000000000001 6.0000000000000036
    vertex 41.39531364385073 29.500000000000004 12.00000000000001
    vertex 41.39531364385072 28.500000000000004 12.00000000000001
  endloop
endfacet
facet normal 1.0 -5.639932965095805e-15 4.934941344458863e-16
  outer loop
    vertex 41.39531364385073 29.500000000000004 12.00000000000001
    vertex 41.39531364385072 28.50000000000001 6.0000000000000036
    vertex 41.39531364385073 29.500000000000007 6.0000000000000036
  endloop
endfacet
facet normal -5.254771034880266e-16 1.6851591620149752e-16 1.0
  outer loop
    vertex 59.39531364385071 15.25 6.000000000000012
    vertex 56.39531364385072 28.500000000000004 6.000000000000012
    vertex 56.39531364385072 15.25 6.000000000000017
  endloop
endfacet
facet normal -5.254771034880266e-16 1.6851591620149752e-16 1.0
  outer loop
    vertex 56.39531364385072 28.500000000000004 6.000000000000012
    vertex 41.39531364385073 29.500000000000007 6.0000000000000036
    vertex 41.39531364385072 28.50000000000001 6.0000000000000036
  endloop
endfacet
facet normal -5.254771034880266e-16 1.6851591620149752e-16 1.0
  outer loop
    vertex 41.39531364385073 29.500000000000007 6.0000000000000036
    vertex 56.39531364385072 28.500000000000004 6.000000000000012
    vertex 41.39531364385073 31.50000000000001 6.000000000000005
  endloop
endfacet
facet normal -5.254771034880266e-16 1.6851591620149752e-16 1.0
  outer loop
    vertex 41.39531364385073 31.50000000000001 6.000000000000005
    vertex 56.39531364385072 28.500000000000004 6.000000000000012
    vertex 59.39531364385071 31.500000000000004 6.000000000000013
  endloop
endfacet
facet normal -5.254771034880266e-16 1.6851591620149752e-16 1.0
  outer loop
    vertex 59.39531364385071 31.500000000000004 6.000000000000013
    vertex 56.39531364385072 28.500000000000004 6.000000000000012
    vertex 59.39531364385071 15.25 6.000000000000012
  endloop
endfacet
facet normal 0.0 -1.0 0.0
  outer loop
    vertex 59.39531364385071 15.25 2.0000000000000147
    vertex 56.39531364385072 15.25 6.000000000000017
    vertex 56.39531364385072 15.25 2.0000000000000133
  endloop
endfacet
facet normal 0.0 -1.0 0.0
  outer loop
    vertex 56.39531364385072 15.25 6.000000000000017
    vertex 59.39531364385071 15.25 2.0000000000000147
    vertex 59.39531364385071 15.25 6.000000000000012
  endloop
endfacet
facet normal 5.287437154777308e-16 1.0 3.524958103184873e-16
  outer loop
    vertex 41.39531364385073 31.50000000000001 6.000000000000005
    vertex 59.39531364385071 31.500000000000004 1.463055902127576e-14
    vertex 41.39531364385073 31.500000000000014 1.0688983784059438e-14
  endloop
endfacet
facet normal 5.287437154777308e-16 1.0 3.524958103184873e-16
  outer loop
    vertex 59.39531364385071 31.500000000000004 1.463055902127576e-14
    vertex 41.39531364385073 31.50000000000001 6.000000000000005
    vertex 59.39531364385071 31.500000000000004 6.000000000000013
  endloop
endfacet
facet normal -1.0 5.287437154777308e-16 3.7275988887626103e-31
  outer loop
    vertex 41.39531364385073 31.50000000000001 6.000000000000005
    vertex 41.39531364385073 29.500000000000014 9.983992163422465e-15
    vertex 41.39531364385073 29.500000000000007 6.0000000000000036
  endloop
endfacet
facet normal -1.0 5.287437154777308e-16 3.7275988887626103e-31
  outer loop
    vertex 41.39531364385073 29.500000000000014 9.983992163422465e-15
    vertex 41.39531364385073 31.50000000000001 6.000000000000005
    vertex 41.39531364385073 31.500000000000014 1.0688983784059438e-14
  endloop
endfacet
facet normal -1.0 0.0 0.0
  outer loop
    vertex 56.39531364385072 14.25 12.000000000000012
    vertex 56.39531364385072 4.250000000000001 2.000000000000012
    vertex 56.39531364385072 4.250000000000001 12.000000000000012
  endloop
endfacet
facet normal -1.0 0.0 0.0
  outer loop
    vertex 56.39531364385072 28.500000000000004 6.000000000000012
    vertex 56.39531364385072 15.25 2.0000000000000133
    vertex 56.39531364385072 15.25 6.000000000000017
  endloop
endfacet
facet normal -1.0 0.0 0.0
  outer loop
    vertex 56.39531364385072 1.5000000000000002 1.0000000000000113
    vertex 56.39531364385072 3.250000000000001 2.000000000000012
    vertex 56.39531364385072 28.500000000000004 1.0000000000000135
  endloop
endfacet
facet normal -1.0 0.0 0.0
  outer loop
    vertex 56.39531364385072 3.250000000000001 2.000000000000012
    vertex 56.39531364385072 1.5000000000000002 1.0000000000000113
    vertex 56.39531364385072 1.5000000000000018 6.000000000000016
  endloop
endfacet
facet normal -1.0 0.0 0.0
  outer loop
    vertex 56.39531364385072 3.250000000000001 2.000000000000012
    vertex 56.39531364385072 1.5000000000000018 6.000000000000016
    vertex 56.39531364385072 3.250000000000001 6.000000000000008
  endloop
endfacet
facet normal -1.0 0.0 0.0
  outer loop
    vertex 56.39531364385072 28.500000000000004 1.0000000000000135
    vertex 56.39531364385072 3.250000000000001 2.000000000000012
    vertex 56.39531364385072 4.250000000000001 2.000000000000012
  endloop
endfacet
facet normal -1.0 0.0 0.0
  outer loop
    vertex 56.39531364385072 28.500000000000004 1.0000000000000135
    vertex 56.39531364385072 4.250000000000001 2.000000000000012
    vertex 56.39531364385072 14.250000000000002 2.0000000000000133
  endloop
endfacet
facet normal -1.0 0.0 0.0
  outer loop
    vertex 56.39531364385072 14.250000000000002 2.0000000000000133
    vertex 56.39531364385072 4.250000000000001 2.000000000000012
    vertex 56.39531364385072 14.25 12.000000000000012
  endloop
endfacet
facet normal -1.0 0.0 0.0
  outer loop
    vertex 56.39531364385072 28.500000000000004 1.0000000000000135
    vertex 56.39531364385072 14.250000000000002 2.0000000000000133
    vertex 56.39531364385072 15.25 2.0000000000000133
  endloop
endfacet
facet normal -1.0 0.0 0.0
  outer loop
    vertex 56.39531364385072 28.500000000000004 1.0000000000000135
    vertex 56.39531364385072 15.25 2.0000000000000133
    vertex 56.39531364385072 28.500000000000004 6.000000000000012
  endloop
endfacet
facet normal -2.7656238984676413e-16 -6.389889151694231e-17 1.0
  outer loop
    vertex 59.39531364385071 -1.4999999999999982 6.000000000000008
    vertex 41.39531364385072 0.49999999999999906 6.0000000000000036
    vertex 41.39531364385072 -1.5000000000000007 6.0000000000000036
  endloop
endfacet
facet normal -2.7656238984676413e-16 -6.389889151694231e-17 1.0
  outer loop
    vertex 41.39531364385072 0.49999999999999906 6.0000000000000036
    vertex 59.39531364385071 -1.4999999999999982 6.000000000000008
    vertex 56.39531364385072 1.5000000000000018 6.000000000000016
  endloop
endfacet
facet normal -2.7656238984676413e-16 -6.389889151694231e-17 1.0
  outer loop
    vertex 56.39531364385072 1.5000000000000018 6.000000000000016
    vertex 59.39531364385071 -1.4999999999999982 6.000000000000008
    vertex 56.39531364385072 3.250000000000001 6.000000000000008
  endloop
endfacet
facet normal -2.7656238984676413e-16 -6.389889151694231e-17 1.0
  outer loop
    vertex 56.39531364385072 3.250000000000001 6.000000000000008
    vertex 59.39531364385071 -1.4999999999999982 6.000000000000008
    vertex 59.39531364385071 3.250000000000001 6.000000000000008
  endloop
endfacet
facet normal -2.7656238984676413e-16 -6.389889151694231e-17 1.0
  outer loop
    vertex 56.39531364385072 1.5000000000000018 6.000000000000016
    vertex 41.39531364385071 1.5000000000000016 6.000000000000008
    vertex 41.39531364385072 0.49999999999999906 6.0000000000000036
  endloop
endfacet
facet normal 1.0 5.639932965095784e-15 -5.891677132516423e-31
  outer loop
    vertex 41.39531364385071 1.5000000000000016 6.000000000000008
    vertex 41.39531364385072 0.5000000000000003 12.000000000000012
    vertex 41.39531364385072 0.49999999999999906 6.0000000000000036
  endloop
endfacet
facet normal 1.0 5.639932965095784e-15 -5.891677132516423e-31
  outer loop
    vertex 41.39531364385072 0.5000000000000003 12.000000000000012
    vertex 41.39531364385071 1.5000000000000016 6.000000000000008
    vertex 41.39531364385071 1.5000000000000016 12.000000000000012
  endloop
endfacet
facet normal -2.9803889179851664e-17 -1.0 1.0680006504646834e-16
  outer loop
    vertex 41.39531364385072 0.4999999999999995 1.127032290034998e-14
    vertex 0.49999999999999906 0.500000000000001 8.000000000000012
    vertex 0.5 0.49999999999999994 1.1091868164688397e-14
  endloop
endfacet
facet normal -2.9803889179851664e-17 -1.0 1.0680006504646834e-16
  outer loop
    vertex 0.49999999999999906 0.500000000000001 8.000000000000012
    vertex 41.39531364385072 0.4999999999999995 1.127032290034998e-14
    vertex 41.39531364385072 0.49999999999999906 6.0000000000000036
  endloop
endfacet
facet normal -2.9803889179851664e-17 -1.0 1.0680006504646834e-16
  outer loop
    vertex 0.49999999999999906 0.500000000000001 8.000000000000012
    vertex 41.39531364385072 0.49999999999999906 6.0000000000000036
    vertex 41.39531364385072 0.5000000000000003 12.000000000000012
  endloop
endfacet
facet normal -2.9803889179851664e-17 -1.0 1.0680006504646834e-16
  outer loop
    vertex 0.49999999999999906 0.500000000000001 8.000000000000012
    vertex 41.39531364385072 0.5000000000000003 12.000000000000012
    vertex -1.2500000000000009 0.5000000000000017 11.000000000000002
  endloop
endfacet
facet normal -2.9803889179851664e-17 -1.0 1.0680006504646834e-16
  outer loop
    vertex -1.2500000000000009 0.5000000000000017 11.000000000000002
    vertex 41.39531364385072 0.5000000000000003 12.000000000000012
    vertex -1.2500000000000009 0.5000000000000017 12.00000000000001
  endloop
endfacet
facet normal 9.768937006516964e-17 -1.0 1.1622660643343901e-16
  outer loop
    vertex 59.39531364385071 -1.5 1.1559318584434266e-14
    vertex 41.39531364385072 -1.5000000000000007 6.0000000000000036
    vertex 41.39531364385072 -1.5000000000000004 1.1502776113216857e-14
  endloop
endfacet
facet normal 9.768937006516964e-17 -1.0 1.1622660643343901e-16
  outer loop
    vertex 41.39531364385072 -1.5000000000000007 6.0000000000000036
    vertex 59.39531364385071 -1.5 1.1559318584434266e-14
    vertex 59.39531364385071 -1.4999999999999982 6.000000000000008
  endloop
endfacet
facet normal -1.0 -9.768937006516965e-17 -7.173977845963455e-33
  outer loop
    vertex 41.39531364385072 0.49999999999999906 6.0000000000000036
    vertex 41.39531364385072 -1.5000000000000004 1.1502776113216857e-14
    vertex 41.39531364385072 -1.5000000000000007 6.0000000000000036
  endloop
endfacet
facet normal -1.0 -9.768937006516965e-17 -7.173977845963455e-33
  outer loop
    vertex 41.39531364385072 -1.5000000000000004 1.1502776113216857e-14
    vertex 41.39531364385072 0.49999999999999906 6.0000000000000036
    vertex 41.39531364385072 0.4999999999999995 1.127032290034998e-14
  endloop
endfacet
facet normal 1.0 -0.0 -0.0
  outer loop
    vertex 59.39531364385071 -1.5 1.1559318584434266e-14
    vertex 59.39531364385071 3.250000000000001 2.000000000000012
    vertex 59.39531364385071 -1.4999999999999982 6.000000000000008
  endloop
endfacet
facet normal 1.0 -0.0 -0.0
  outer loop
    vertex 59.39531364385071 3.250000000000001 2.000000000000012
    vertex 59.39531364385071 -1.5 1.1559318584434266e-14
    vertex 59.39531364385071 31.500000000000004 1.463055902127576e-14
  endloop
endfacet
facet normal 1.0 -0.0 -0.0
  outer loop
    vertex 59.39531364385071 3.250000000000001 2.000000000000012
    vertex 59.39531364385071 31.500000000000004 1.463055902127576e-14
    vertex 59.39531364385071 15.25 2.0000000000000147
  endloop
endfacet
facet normal 1.0 -0.0 -0.0
  outer loop
    vertex 59.39531364385071 15.25 2.0000000000000147
    vertex 59.39531364385071 31.500000000000004 1.463055902127576e-14
    vertex 59.39531364385071 15.25 6.000000000000012
  endloop
endfacet
facet normal 1.0 -0.0 -0.0
  outer loop
    vertex 59.39531364385071 15.25 6.000000000000012
    vertex 59.39531364385071 31.500000000000004 1.463055902127576e-14
    vertex 59.39531364385071 31.500000000000004 6.000000000000013
  endloop
endfacet
facet normal 1.0 -0.0 -0.0
  outer loop
    vertex 59.39531364385071 3.250000000000001 6.000000000000008
    vertex 59.39531364385071 -1.4999999999999982 6.000000000000008
    vertex 59.39531364385071 3.250000000000001 2.000000000000012
  endloop
endfacet
facet normal 0.0 -1.0 0.0
  outer loop
    vertex 57.39531364385072 4.250000000000001 2.400000000000012
    vertex 56.39531364385072 4.250000000000001 2.000000000000012
    vertex 57.79531364385072 4.250000000000001 2.000000000000012
  endloop
endfacet
facet normal 0.0 -1.0 0.0
  outer loop
    vertex 56.39531364385072 4.250000000000001 2.000000000000012
    vertex 57.39531364385072 4.250000000000001 2.400000000000012
    vertex 56.39531364385072 4.250000000000001 12.000000000000012
  endloop
endfacet
facet normal 0.0 -1.0 0.0
  outer loop
    vertex 56.39531364385072 4.250000000000001 12.000000000000012
    vertex 57.39531364385072 4.250000000000001 2.400000000000012
    vertex 57.39531364385072 4.250000000000001 6.000000000000014
  endloop
endfacet
facet normal 0.0 -1.0 0.0
  outer loop
    vertex 56.39531364385072 4.250000000000001 12.000000000000012
    vertex 57.39531364385072 4.250000000000001 6.000000000000014
    vertex 59.39531364385071 4.250000000000001 9.000000000000012
  endloop
endfacet
facet normal 0.0 -1.0 0.0
  outer loop
    vertex 56.39531364385072 4.250000000000001 12.000000000000012
    vertex 59.39531364385071 4.250000000000001 9.000000000000012
    vertex 59.39531364385071 4.250000000000001 12.000000000000012
  endloop
endfacet
facet normal 1.0 -0.0 -0.0
  outer loop
    vertex 57.39531364385072 14.250000000000007 2.400000000000012
    vertex 57.39531364385072 4.250000000000001 6.000000000000014
    vertex 57.39531364385072 4.250000000000001 2.400000000000012
  endloop
endfacet
facet normal 1.0 -0.0 -0.0
  outer loop
    vertex 57.39531364385072 4.250000000000001 6.000000000000014
    vertex 57.39531364385072 14.250000000000007 2.400000000000012
    vertex 57.39531364385072 14.250000000000002 6.000000000000014
  endloop
endfacet
facet normal 0.7071067811865481 -0.0 0.7071067811865469
  outer loop
    vertex 57.79531364385072 14.250000000000007 2.000000000000012
    vertex 57.39531364385072 4.250000000000001 2.400000000000012
    vertex 57.79531364385072 4.250000000000001 2.000000000000012
  endloop
endfacet
facet normal 0.7071067811865481 -0.0 0.7071067811865469
  outer loop
    vertex 57.39531364385072 4.250000000000001 2.400000000000012
    vertex 57.79531364385072 14.250000000000007 2.000000000000012
    vertex 57.39531364385072 14.250000000000007 2.400000000000012
  endloop
endfacet
facet normal -1.7086900778710475e-16 -1.586974879599022e-16 1.0
  outer loop
    vertex 59.39531364385071 3.250000000000001 2.000000000000012
    vertex 56.39531364385072 4.250000000000001 2.000000000000012
    vertex 56.39531364385072 3.250000000000001 2.000000000000012
  endloop
endfacet
facet normal -1.7086900778710475e-16 -1.586974879599022e-16 1.0
  outer loop
    vertex 56.39531364385072 4.250000000000001 2.000000000000012
    vertex 59.39531364385071 3.250000000000001 2.000000000000012
    vertex 57.79531364385072 4.250000000000001 2.000000000000012
  endloop
endfacet
facet normal -1.7086900778710475e-16 -1.586974879599022e-16 1.0
  outer loop
    vertex 57.79531364385072 4.250000000000001 2.000000000000012
    vertex 59.39531364385071 3.250000000000001 2.000000000000012
    vertex 57.79531364385072 14.250000000000007 2.000000000000012
  endloop
endfacet
facet normal -1.7086900778710475e-16 -1.586974879599022e-16 1.0
  outer loop
    vertex 57.79531364385072 14.250000000000007 2.000000000000012
    vertex 56.39531364385072 15.25 2.0000000000000133
    vertex 56.39531364385072 14.250000000000002 2.0000000000000133
  endloop
endfacet
facet normal -1.7086900778710475e-16 -1.586974879599022e-16 1.0
  outer loop
    vertex 56.39531364385072 15.25 2.0000000000000133
    vertex 57.79531364385072 14.250000000000007 2.000000000000012
    vertex 59.39531364385071 15.25 2.0000000000000147
  endloop
endfacet
facet normal -1.7086900778710475e-16 -1.586974879599022e-16 1.0
  outer loop
    vertex 59.39531364385071 15.25 2.0000000000000147
    vertex 57.79531364385072 14.250000000000007 2.000000000000012
    vertex 59.39531364385071 3.250000000000001 2.000000000000012
  endloop
endfacet
facet normal -2.1510363034699215e-16 1.0 6.207198324638698e-16
  outer loop
    vertex 56.39531364385072 14.250000000000002 2.0000000000000133
    vertex 57.39531364385072 14.250000000000007 2.400000000000012
    vertex 57.79531364385072 14.250000000000007 2.000000000000012
  endloop
endfacet
facet normal -2.1510363034699215e-16 1.0 6.207198324638698e-16
  outer loop
    vertex 57.39531364385072 14.250000000000007 2.400000000000012
    vertex 56.39531364385072 14.250000000000002 2.0000000000000133
    vertex 56.39531364385072 14.25 12.000000000000012
  endloop
endfacet
facet normal -2.1510363034699215e-16 1.0 6.207198324638698e-16
  outer loop
    vertex 57.39531364385072 14.250000000000007 2.400000000000012
    vertex 56.39531364385072 14.25 12.000000000000012
    vertex 57.39531364385072 14.250000000000002 6.000000000000014
  endloop
endfacet
facet normal -2.1510363034699215e-16 1.0 6.207198324638698e-16
  outer loop
    vertex 57.39531364385072 14.250000000000002 6.000000000000014
    vertex 56.39531364385072 14.25 12.000000000000012
    vertex 59.39531364385071 14.25 9.000000000000014
  endloop
endfacet
facet normal -2.1510363034699215e-16 1.0 6.207198324638698e-16
  outer loop
    vertex 59.39531364385071 14.25 9.000000000000014
    vertex 56.39531364385072 14.25 12.000000000000012
    vertex 59.39531364385071 14.25 12.000000000000012
  endloop
endfacet
endsolid HandRemote-BatteryCover
