solid HandRemote-BackCover
facet normal -1.147381179924573e-08 -8.506725043586602e-11 1.0
  outer loop
    vertex -1.0000000342660538 -3.383260427369805e-09 4.499999992437433
    vertex 1.4999999456635182 2.5000000031997143 4.500000006548754
    vertex 1.4999994639721617 62.49999932236936 4.499999868020919
  endloop
endfacet
facet normal -1.147381179924573e-08 -8.506725043586602e-11 1.0
  outer loop
    vertex 1.4999999456635182 2.5000000031997143 4.500000006548754
    vertex -1.0000000342660538 -3.383260427369805e-09 4.499999992437433
    vertex 41.499999461562254 0.5000001085273003 4.500000310546238
  endloop
endfacet
facet normal -1.147381179924573e-08 -8.506725043586602e-11 1.0
  outer loop
    vertex 41.499999461562254 0.5000001085273003 4.500000310546238
    vertex -1.0000000342660538 -3.383260427369805e-09 4.499999992437433
    vertex 83.99999896019027 2.2043795586679237e-07 4.5000006274419615
  endloop
endfacet
facet normal -1.147381179924573e-08 -8.506725043586602e-11 1.0
  outer loop
    vertex 1.4999999456635182 2.5000000031997143 4.500000006548754
    vertex 41.499999461562254 0.5000001085273003 4.500000310546238
    vertex 41.241180416280216 0.5340742808751758 4.500000309678877
  endloop
endfacet
facet normal -1.147381179924573e-08 -8.506725043586602e-11 1.0
  outer loop
    vertex 1.4999999456635182 2.5000000031997143 4.500000006548754
    vertex 41.241180416280216 0.5340742808751758 4.500000309678877
    vertex 40.9999994608566 0.6339747021096732 4.5000003088056975
  endloop
endfacet
facet normal -1.147381179924573e-08 -8.506725043586602e-11 1.0
  outer loop
    vertex 1.4999999456635182 2.5000000031997143 4.500000006548754
    vertex 40.9999994608566 0.6339747021096732 4.5000003088056975
    vertex 40.79289267883318 0.7928933236168537 4.5000003079862205
  endloop
endfacet
facet normal -1.147381179924573e-08 -8.506725043586602e-11 1.0
  outer loop
    vertex 1.4999999456635182 2.5000000031997143 4.500000006548754
    vertex 40.79289267883318 0.7928933236168537 4.5000003079862205
    vertex 40.633974055144485 1.000000103966545 4.500000307276325
  endloop
endfacet
facet normal -1.147381179924573e-08 -8.506725043586602e-11 1.0
  outer loop
    vertex 1.4999999456635182 2.5000000031997143 4.500000006548754
    vertex 40.633974055144485 1.000000103966545 4.500000307276325
    vertex 40.53407363136974 1.2411810583378748 4.50000030672443
  endloop
endfacet
facet normal -1.147381179924573e-08 -8.506725043586602e-11 1.0
  outer loop
    vertex 1.4999999456635182 2.5000000031997143 4.500000006548754
    vertex 40.53407363136974 1.2411810583378748 4.50000030672443
    vertex 40.499999456295704 1.50000010326087 4.5000003063680705
  endloop
endfacet
facet normal -1.147381179924573e-08 -8.506725043586602e-11 1.0
  outer loop
    vertex 41.499999461562254 0.5000001085273003 4.500000310546238
    vertex 83.99999896019027 2.2043795586679237e-07 4.5000006274419615
    vertex 41.7588185064853 0.5340742836012544 4.500000311348786
  endloop
endfacet
facet normal -1.147381179924573e-08 -8.506725043586602e-11 1.0
  outer loop
    vertex 41.7588185064853 0.5340742836012544 4.500000311348786
    vertex 83.99999896019027 2.2043795586679237e-07 4.5000006274419615
    vertex 41.99999946085652 0.6339747073760565 4.500000312031744
  endloop
endfacet
facet normal -1.147381179924573e-08 -8.506725043586602e-11 1.0
  outer loop
    vertex 41.99999946085652 0.6339747073760565 4.500000312031744
    vertex 83.99999896019027 2.2043795586679237e-07 4.5000006274419615
    vertex 42.20710624120634 0.7928933310646447 4.5000003125485915
  endloop
endfacet
facet normal -1.147381179924573e-08 -8.506725043586602e-11 1.0
  outer loop
    vertex 42.20710624120634 0.7928933310646447 4.5000003125485915
    vertex 83.99999896019027 2.2043795586679237e-07 4.5000006274419615
    vertex 42.36602486271343 1.0000001130881861 4.500000312864058
  endloop
endfacet
facet normal -1.147381179924573e-08 -8.506725043586602e-11 1.0
  outer loop
    vertex 42.36602486271343 1.0000001130881861 4.500000312864058
    vertex 83.99999896019027 2.2043795586679237e-07 4.5000006274419615
    vertex 42.465925283947826 1.2411810685117441 4.500000312956708
  endloop
endfacet
facet normal -1.147381179924573e-08 -8.506725043586602e-11 1.0
  outer loop
    vertex 42.465925283947826 1.2411810685117441 4.500000312956708
    vertex 83.99999896019027 2.2043795586679237e-07 4.5000006274419615
    vertex 42.49999945629574 1.5000001137936338 4.500000312820238
  endloop
endfacet
facet normal -1.147381179924573e-08 -8.506725043586602e-11 1.0
  outer loop
    vertex 42.49999945629574 1.5000001137936338 4.500000312820238
    vertex 83.99999896019027 2.2043795586679237e-07 4.5000006274419615
    vertex 81.4999989415966 2.5000002138549777 4.50000062666779
  endloop
endfacet
facet normal -1.147381179924573e-08 -8.506725043586602e-11 1.0
  outer loop
    vertex 81.4999989415966 2.5000002138549777 4.50000062666779
    vertex 83.99999896019027 2.2043795586679237e-07 4.5000006274419615
    vertex 83.99999811975687 112.99999988269985 4.500001436631816
  endloop
endfacet
facet normal -1.147381179924573e-08 -8.506725043586602e-11 1.0
  outer loop
    vertex 15.999998964725698 116.18186826399449 4.49999996323815
    vertex 18.499998973095398 114.59121221060967 4.500000033030284
    vertex 32.715834006221506 123.99999907183742 4.500000487374624
  endloop
endfacet
facet normal -1.147381179924573e-08 -8.506725043586602e-11 1.0
  outer loop
    vertex 18.499998973095398 114.59121221060967 4.500000033030284
    vertex 15.999998964725698 116.18186826399449 4.49999996323815
    vertex 15.999999234032384 64.99999922809968 4.499999803808305
  endloop
endfacet
facet normal -1.147381179924573e-08 -8.506725043586602e-11 1.0
  outer loop
    vertex 32.715834006221506 123.99999907183742 4.500000487374624
    vertex 18.499998973095398 114.59121221060967 4.500000033030284
    vertex 33.271578587368424 121.49999908103311 4.500000202205722
  endloop
endfacet
facet normal -1.147381179924573e-08 -8.506725043586602e-11 1.0
  outer loop
    vertex 32.715834006221506 123.99999907183742 4.500000487374624
    vertex 33.271578587368424 121.49999908103311 4.500000202205722
    vertex 54.0406441242758 123.999999424695 4.50000006251605
  endloop
endfacet
facet normal -1.147381179924573e-08 -8.506725043586602e-11 1.0
  outer loop
    vertex 54.0406441242758 123.999999424695 4.50000006251605
    vertex 33.271578587368424 121.49999908103311 4.500000202205722
    vertex 52.79655102223129 121.49999940410919 4.500000133395041
  endloop
endfacet
facet normal -1.147381179924573e-08 -8.506725043586602e-11 1.0
  outer loop
    vertex 54.0406441242758 123.999999424695 4.50000006251605
    vertex 52.79655102223129 121.49999940410919 4.500000133395041
    vertex 61.11177329686541 110.49999971158125 4.499999914514989
  endloop
endfacet
facet normal -1.147381179924573e-08 -8.506725043586602e-11 1.0
  outer loop
    vertex 54.0406441242758 123.999999424695 4.50000006251605
    vertex 61.11177329686541 110.49999971158125 4.499999914514989
    vertex 62.35586640744025 112.99999972088214 4.500000099657964
  endloop
endfacet
facet normal -1.147381179924573e-08 -8.506725043586602e-11 1.0
  outer loop
    vertex 62.35586640744025 112.99999972088214 4.500000099657964
    vertex 61.11177329686541 110.49999971158125 4.499999914514989
    vertex 81.49999813835052 110.4999998640092 4.500001264302557
  endloop
endfacet
facet normal -1.147381179924573e-08 -8.506725043586602e-11 1.0
  outer loop
    vertex 62.35586640744025 112.99999972088214 4.500000099657964
    vertex 81.49999813835052 110.4999998640092 4.500001264302557
    vertex 83.99999811975687 112.99999988269985 4.500001436631816
  endloop
endfacet
facet normal -1.147381179924573e-08 -8.506725043586602e-11 1.0
  outer loop
    vertex 83.99999811975687 112.99999988269985 4.500001436631816
    vertex 81.49999813835052 110.4999998640092 4.500001264302557
    vertex 81.4999989415966 2.5000002138549777 4.50000062666779
  endloop
endfacet
facet normal -1.147381179924573e-08 -8.506725043586602e-11 1.0
  outer loop
    vertex 41.758818496311456 2.4659259361794508 4.500000309509403
    vertex 81.4999989415966 2.5000002138549777 4.50000062666779
    vertex 41.499999451029474 2.500000108527329 4.500000308642029
  endloop
endfacet
facet normal -1.147381179924573e-08 -8.506725043586602e-11 1.0
  outer loop
    vertex 81.4999989415966 2.5000002138549777 4.50000062666779
    vertex 41.758818496311456 2.4659259361794508 4.500000309509403
    vertex 41.99999945173491 2.3660255149449476 4.500000310382606
  endloop
endfacet
facet normal -1.147381179924573e-08 -8.506725043586602e-11 1.0
  outer loop
    vertex 81.4999989415966 2.5000002138549777 4.50000062666779
    vertex 41.99999945173491 2.3660255149449476 4.500000310382606
    vertex 42.20710623375856 2.2071068934377642 4.50000031120206
  endloop
endfacet
facet normal -1.147381179924573e-08 -8.506725043586602e-11 1.0
  outer loop
    vertex 81.4999989415966 2.5000002138549777 4.50000062666779
    vertex 42.20710623375856 2.2071068934377642 4.50000031120206
    vertex 42.36602485744705 2.000000113088145 4.50000031191197
  endloop
endfacet
facet normal -1.147381179924573e-08 -8.506725043586602e-11 1.0
  outer loop
    vertex 81.4999989415966 2.5000002138549777 4.50000062666779
    vertex 42.36602485744705 2.000000113088145 4.50000031191197
    vertex 42.46592528122175 1.7588191587167221 4.500000312463854
  endloop
endfacet
facet normal -1.147381179924573e-08 -8.506725043586602e-11 1.0
  outer loop
    vertex 81.4999989415966 2.5000002138549777 4.50000062666779
    vertex 42.46592528122175 1.7588191587167221 4.500000312463854
    vertex 42.49999945629574 1.5000001137936338 4.500000312820238
  endloop
endfacet
facet normal -1.147381179924573e-08 -8.506725043586602e-11 1.0
  outer loop
    vertex 1.4999999456635182 2.5000000031997143 4.500000006548754
    vertex 41.24118040610637 2.4659259334533723 4.500000307839504
    vertex 41.499999451029474 2.500000108527329 4.500000308642029
  endloop
endfacet
facet normal -1.147381179924573e-08 -8.506725043586602e-11 1.0
  outer loop
    vertex 41.24118040610637 2.4659259334533723 4.500000307839504
    vertex 1.4999999456635182 2.5000000031997143 4.500000006548754
    vertex 40.99999945173494 2.36602550967857 4.500000307156505
  endloop
endfacet
facet normal -1.147381179924573e-08 -8.506725043586602e-11 1.0
  outer loop
    vertex 40.99999945173494 2.36602550967857 4.500000307156505
    vertex 1.4999999456635182 2.5000000031997143 4.500000006548754
    vertex 40.79289267138534 2.207106885989979 4.500000306639692
  endloop
endfacet
facet normal -1.147381179924573e-08 -8.506725043586602e-11 1.0
  outer loop
    vertex 40.79289267138534 2.207106885989979 4.500000306639692
    vertex 1.4999999456635182 2.5000000031997143 4.500000006548754
    vertex 40.63397404987807 2.000000103966504 4.5000003063242255
  endloop
endfacet
facet normal -1.147381179924573e-08 -8.506725043586602e-11 1.0
  outer loop
    vertex 40.63397404987807 2.000000103966504 4.5000003063242255
    vertex 1.4999999456635182 2.5000000031997143 4.500000006548754
    vertex 40.53407362864369 1.7588191485428526 4.50000030623157
  endloop
endfacet
facet normal -1.147381179924573e-08 -8.506725043586602e-11 1.0
  outer loop
    vertex 40.53407362864369 1.7588191485428526 4.50000030623157
    vertex 1.4999999456635182 2.5000000031997143 4.500000006548754
    vertex 40.499999456295704 1.50000010326087 4.5000003063680705
  endloop
endfacet
facet normal -1.147381179924573e-08 -8.506725043586602e-11 1.0
  outer loop
    vertex -1.0000005560982796 64.99999933862281 4.499999873739648
    vertex 1.4999994639721617 62.49999932236936 4.499999868020919
    vertex 15.999999234032384 64.99999922809968 4.499999803808305
  endloop
endfacet
facet normal -1.147381179924573e-08 -8.506725043586602e-11 1.0
  outer loop
    vertex 1.4999994639721617 62.49999932236936 4.499999868020919
    vertex -1.0000005560982796 64.99999933862281 4.499999873739648
    vertex -1.0000000342660538 -3.383260427369805e-09 4.499999992437433
  endloop
endfacet
facet normal -1.147381179924573e-08 -8.506725043586602e-11 1.0
  outer loop
    vertex 15.999999234032384 64.99999922809968 4.499999803808305
    vertex 1.4999994639721617 62.49999932236936 4.499999868020919
    vertex 18.499999247186846 62.49999921184626 4.499999785736863
  endloop
endfacet
facet normal -1.147381179924573e-08 -8.506725043586602e-11 1.0
  outer loop
    vertex 15.999999234032384 64.99999922809968 4.499999803808305
    vertex 18.499999247186846 62.49999921184626 4.499999785736863
    vertex 18.499998973095398 114.59121221060967 4.500000033030284
  endloop
endfacet
facet normal -1.6546810909395233e-08 1.0 8.503871939248847e-11
  outer loop
    vertex 32.71583402916915 123.99999907200748 2.5000004873746478
    vertex 54.0406441242758 123.999999424695 4.50000006251605
    vertex 54.04064414722345 123.99999942486511 2.500000062516061
  endloop
endfacet
facet normal -1.6546810909395233e-08 1.0 8.503871939248847e-11
  outer loop
    vertex 54.0406441242758 123.999999424695 4.50000006251605
    vertex 32.71583402916915 123.99999907200748 2.5000004873746478
    vertex 32.715834006221506 123.99999907183742 4.500000487374624
  endloop
endfacet
facet normal 0.7977238921565336 0.6030228784073051 9.204257130943384e-09
  outer loop
    vertex 62.35586643038785 112.99999972105248 2.500000099657966
    vertex 54.0406441242758 123.999999424695 4.50000006251605
    vertex 62.35586640744025 112.99999972088214 4.500000099657964
  endloop
endfacet
facet normal 0.7977238921565336 0.6030228784073051 9.204257130943384e-09
  outer loop
    vertex 54.0406441242758 123.999999424695 4.50000006251605
    vertex 62.35586643038785 112.99999972105248 2.500000099657966
    vertex 54.04064414722345 123.99999942486511 2.500000062516061
  endloop
endfacet
facet normal -7.476280291538977e-09 1.0 8.510650266189725e-11
  outer loop
    vertex 62.35586640744025 112.99999972088214 4.500000099657964
    vertex 83.99999814270448 112.99999988286996 2.5000014366318157
    vertex 62.35586643038785 112.99999972105248 2.500000099657966
  endloop
endfacet
facet normal -7.476280291538977e-09 1.0 8.510650266189725e-11
  outer loop
    vertex 83.99999814270448 112.99999988286996 2.5000014366318157
    vertex 62.35586640744025 112.99999972088214 4.500000099657964
    vertex 83.99999811975687 112.99999988269985 4.500001436631816
  endloop
endfacet
facet normal 1.0 7.437463690933787e-09 1.1473811945627925e-08
  outer loop
    vertex 83.99999898313789 2.2060809008461745e-07 2.5000006274419624
    vertex 83.99999811975687 112.99999988269985 4.500001436631816
    vertex 83.99999896019027 2.2043795586679237e-07 4.5000006274419615
  endloop
endfacet
facet normal 1.0 7.437463690933787e-09 1.1473811945627925e-08
  outer loop
    vertex 83.99999811975687 112.99999988269985 4.500001436631816
    vertex 83.99999898313789 2.2060809008461745e-07 2.5000006274419624
    vertex 83.99999814270448 112.99999988286996 2.5000014366318157
  endloop
endfacet
facet normal -1.0 -8.028188538310835e-09 -1.1473817585611228e-08
  outer loop
    vertex -1.0000005560982796 64.99999933862281 4.499999873739648
    vertex -1.0000000113183962 -3.2131262095447255e-09 2.499999992437432
    vertex -1.0000000342660538 -3.383260427369805e-09 4.499999992437433
  endloop
endfacet
facet normal -1.0 -8.028188538310835e-09 -1.1473817585611228e-08
  outer loop
    vertex -1.0000000113183962 -3.2131262095447255e-09 2.499999992437432
    vertex -1.0000005560982796 64.99999933862281 4.499999873739648
    vertex -1.000000533150667 64.99999933879297 2.4999998737396343
  endloop
endfacet
facet normal 6.50135981875735e-09 1.0 8.508974323987159e-11
  outer loop
    vertex -1.000000533150667 64.99999933879297 2.4999998737396343
    vertex 15.999999234032384 64.99999922809968 4.499999803808305
    vertex 15.999999256980075 64.99999922826987 2.4999998038082896
  endloop
endfacet
facet normal 6.50135981875735e-09 1.0 8.508974323987159e-11
  outer loop
    vertex 15.999999234032384 64.99999922809968 4.499999803808305
    vertex -1.000000533150667 64.99999933879297 2.4999998737396343
    vertex -1.0000005560982796 64.99999933862281 4.499999873739648
  endloop
endfacet
facet normal -1.0 -5.261759917877469e-09 -1.147383450517475e-08
  outer loop
    vertex 15.999998964725698 116.18186826399449 4.49999996323815
    vertex 15.999999256980075 64.99999922826987 2.4999998038082896
    vertex 15.999999234032384 64.99999922809968 4.499999803808305
  endloop
endfacet
facet normal -1.0 -5.261759917877469e-09 -1.147383450517475e-08
  outer loop
    vertex 15.999999256980075 64.99999922826987 2.4999998038082896
    vertex 15.999998964725698 116.18186826399449 4.49999996323815
    vertex 15.999998987673344 116.18186826416459 2.4999999632381513
  endloop
endfacet
facet normal -0.42365993316543366 0.9058213184896127 -4.783968953753452e-09
  outer loop
    vertex 15.999998964725698 116.18186826399449 4.49999996323815
    vertex 32.71583402916915 123.99999907200748 2.5000004873746478
    vertex 15.999998987673344 116.18186826416459 2.4999999632381513
  endloop
endfacet
facet normal -0.42365993316543366 0.9058213184896127 -4.783968953753452e-09
  outer loop
    vertex 32.71583402916915 123.99999907200748 2.5000004873746478
    vertex 15.999998964725698 116.18186826399449 4.49999996323815
    vertex 32.715834006221506 123.99999907183742 4.500000487374624
  endloop
endfacet
facet normal -0.8320502940511892 -7.742621358788211e-09 -0.5547001966552109
  outer loop
    vertex -1.000000533150667 64.99999933879297 2.4999998737396343
    vertex -1.1318431791806915e-08 2.2212593986381533e-10 0.9999999999999869
    vertex -1.0000000113183962 -3.2131262095447255e-09 2.499999992437432
  endloop
endfacet
facet normal -0.8320502940511892 -7.742621358788211e-09 -0.5547001966552109
  outer loop
    vertex -1.1318431791806915e-08 2.2212593986381533e-10 0.9999999999999869
    vertex -1.000000533150667 64.99999933879297 2.4999998737396343
    vertex -5.251224837188317e-07 63.99999933309365 0.9999998714520968
  endloop
endfacet
facet normal 0.8320502999906171 1.0019273472302919e-08 -0.5547001877460689
  outer loop
    vertex 82.99999815014196 111.99999987619576 1.000001367700112
    vertex 83.99999898313789 2.2060809008461745e-07 2.5000006274419624
    vertex 82.99999898096681 2.1877696176897388e-07 1.0000006199713178
  endloop
endfacet
facet normal 0.8320502999906171 1.0019273472302919e-08 -0.5547001877460689
  outer loop
    vertex 83.99999898313789 2.2060809008461745e-07 2.5000006274419624
    vertex 82.99999815014196 111.99999987619576 1.000001367700112
    vertex 83.99999814270448 112.99999988286996 2.5000014366318157
  endloop
endfacet
facet normal 2.85067894363888e-08 0.8320502987442489 -0.554700189615621
  outer loop
    vertex 62.35586643038785 112.99999972105248 2.500000099657966
    vertex 82.99999815014196 111.99999987619576 1.000001367700112
    vertex 61.85822918615794 111.9999997181341 1.0000000256007726
  endloop
endfacet
facet normal 2.85067894363888e-08 0.8320502987442489 -0.554700189615621
  outer loop
    vertex 82.99999815014196 111.99999987619576 1.000001367700112
    vertex 62.35586643038785 112.99999972105248 2.500000099657966
    vertex 83.99999814270448 112.99999988286996 2.5000014366318157
  endloop
endfacet
facet normal 0.6637464020692008 0.5017453662970159 -0.5547001903187562
  outer loop
    vertex 53.54300690640561 122.9999994174328 1.0000000908676836
    vertex 62.35586643038785 112.99999972105248 2.500000099657966
    vertex 61.85822918615794 111.9999997181341 1.0000000256007726
  endloop
endfacet
facet normal 0.6637464020692008 0.5017453662970159 -0.5547001903187562
  outer loop
    vertex 62.35586643038785 112.99999972105248 2.500000099657966
    vertex 53.54300690640561 122.9999994174328 1.0000000908676836
    vertex 54.04064414722345 123.99999942486511 2.500000062516061
  endloop
endfacet
facet normal -2.315441598457666e-08 0.8320503022556612 -0.5547001843485022
  outer loop
    vertex 32.93813186162791 122.99999907648784 1.0000003733070821
    vertex 54.04064414722345 123.99999942486511 2.500000062516061
    vertex 53.54300690640561 122.9999994174328 1.0000000908676836
  endloop
endfacet
facet normal -2.315441598457666e-08 0.8320503022556612 -0.5547001843485022
  outer loop
    vertex 54.04064414722345 123.99999942486511 2.500000062516061
    vertex 32.93813186162791 122.99999907648784 1.0000003733070821
    vertex 32.71583402916915 123.99999907200748 2.5000004873746478
  endloop
endfacet
facet normal -0.3525063629884462 0.7536889082286662 -0.554700183581851
  outer loop
    vertex 15.999998987673344 116.18186826416459 2.4999999632381513
    vertex 32.93813186162791 122.99999907648784 1.0000003733070821
    vertex 16.999998991021126 115.54560584361269 0.9999999911550238
  endloop
endfacet
facet normal -0.3525063629884462 0.7536889082286662 -0.554700183581851
  outer loop
    vertex 32.93813186162791 122.99999907648784 1.0000003733070821
    vertex 15.999998987673344 116.18186826416459 2.4999999632381513
    vertex 32.71583402916915 123.99999907200748 2.5000004873746478
  endloop
endfacet
facet normal -0.832050292090996 -2.4658705216983752e-09 -0.5547001995955005
  outer loop
    vertex 15.999999256980075 64.99999922826987 2.4999998038082896
    vertex 16.999998991021126 115.54560584361269 0.9999999911550238
    vertex 16.99999926224177 63.999999222570565 0.9999997965797137
  endloop
endfacet
facet normal -0.832050292090996 -2.4658705216983752e-09 -0.5547001995955005
  outer loop
    vertex 16.999998991021126 115.54560584361269 0.9999999911550238
    vertex 15.999999256980075 64.99999922826987 2.4999998038082896
    vertex 15.999998987673344 116.18186826416459 2.4999999632381513
  endloop
endfacet
facet normal 3.047026154526923e-09 0.832050294628367 -0.5547001957894444
  outer loop
    vertex -5.251224837188317e-07 63.99999933309365 0.9999998714520968
    vertex 15.999999256980075 64.99999922826987 2.4999998038082896
    vertex 16.99999926224177 63.999999222570565 0.9999997965797137
  endloop
endfacet
facet normal 3.047026154526923e-09 0.832050294628367 -0.5547001957894444
  outer loop
    vertex 15.999999256980075 64.99999922826987 2.4999998038082896
    vertex -5.251224837188317e-07 63.99999933309365 0.9999998714520968
    vertex -1.000000533150667 64.99999933879297 2.4999998737396343
  endloop
endfacet
facet normal -0.608761424830279 -0.7933533434974662 -4.767747308895131e-09
  outer loop
    vertex 42.20710626802452 2.207106894187836 3.1120205271628617e-07
    vertex 41.99999945173491 2.3660255149449476 4.500000310382606
    vertex 41.99999948600087 2.366025515695019 3.103826155759215e-07
  endloop
endfacet
facet normal -0.608761424830279 -0.7933533434974662 -4.767747308895131e-09
  outer loop
    vertex 41.99999945173491 2.3660255149449476 4.500000310382606
    vertex 42.20710626802452 2.207106894187836 3.1120205271628617e-07
    vertex 42.20710623375856 2.2071068934377642 4.50000031120206
  endloop
endfacet
facet normal -0.38268342749987905 -0.9238795345265232 -3.067999142600281e-09
  outer loop
    vertex 41.99999948600087 2.366025515695019 3.103826155759215e-07
    vertex 41.758818496311456 2.4659259361794508 4.500000309509403
    vertex 41.75881853057745 2.4659259369295223 3.095093988547681e-07
  endloop
endfacet
facet normal -0.38268342749987905 -0.9238795345265232 -3.067999142600281e-09
  outer loop
    vertex 41.758818496311456 2.4659259361794508 4.500000309509403
    vertex 41.99999948600087 2.366025515695019 3.103826155759215e-07
    vertex 41.99999945173491 2.3660255149449476 4.500000310382606
  endloop
endfacet
facet normal -0.9914448606863984 -0.1305261974414652 -7.571275809561633e-09
  outer loop
    vertex 42.46592528122175 1.7588191587167221 4.500000312463854
    vertex 42.499999490561734 1.5000001145437025 3.128202284430337e-07
    vertex 42.49999945629574 1.5000001137936338 4.500000312820238
  endloop
endfacet
facet normal -0.9914448606863984 -0.1305261974414652 -7.571275809561633e-09
  outer loop
    vertex 42.499999490561734 1.5000001145437025 3.128202284430337e-07
    vertex 42.46592528122175 1.7588191587167221 4.500000312463854
    vertex 42.46592531548774 1.7588191594667881 3.124638354390363e-07
  endloop
endfacet
facet normal -0.9238795304960672 -0.3826834372302604 -7.0988167679856245e-09
  outer loop
    vertex 42.36602485744705 2.000000113088145 4.50000031191197
    vertex 42.46592531548774 1.7588191594667881 3.124638354390363e-07
    vertex 42.46592528122175 1.7588191587167221 4.500000312463854
  endloop
endfacet
facet normal -0.9238795304960672 -0.3826834372302604 -7.0988167679856245e-09
  outer loop
    vertex 42.46592531548774 1.7588191594667881 3.124638354390363e-07
    vertex 42.36602485744705 2.000000113088145 4.50000031191197
    vertex 42.36602489171303 2.0000001138382135 3.1191193838875364e-07
  endloop
endfacet
facet normal -0.7933533370854381 -0.608761433186597 -6.142584852756451e-09
  outer loop
    vertex 42.20710623375856 2.2071068934377642 4.50000031120206
    vertex 42.36602489171303 2.0000001138382135 3.1191193838875364e-07
    vertex 42.36602485744705 2.000000113088145 4.50000031191197
  endloop
endfacet
facet normal -0.7933533370854381 -0.608761433186597 -6.142584852756451e-09
  outer loop
    vertex 42.36602489171303 2.0000001138382135 3.1191193838875364e-07
    vertex 42.20710623375856 2.2071068934377642 4.50000031120206
    vertex 42.20710626802452 2.207106894187836 3.1120205271628617e-07
  endloop
endfacet
facet normal -0.13052618699865484 -0.9914448620612204 -1.1591690224781885e-09
  outer loop
    vertex 41.75881853057745 2.4659259369295223 3.095093988547681e-07
    vertex 41.499999451029474 2.500000108527329 4.500000308642029
    vertex 41.499999485295454 2.500000109277395 3.086420251041666e-07
  endloop
endfacet
facet normal -0.13052618699865484 -0.9914448620612204 -1.1591690224781885e-09
  outer loop
    vertex 41.499999451029474 2.500000108527329 4.500000308642029
    vertex 41.75881853057745 2.4659259369295223 3.095093988547681e-07
    vertex 41.758818496311456 2.4659259361794508 4.500000309509403
  endloop
endfacet
facet normal 2.6331908194703137e-09 -1.0 -2.0758862725293197e-10
  outer loop
    vertex 82.99999899228519 2.1855483582911005e-07 6.199713175281118e-07
    vertex -1.1318431791806915e-08 2.2212593986381533e-10 0.9999999999999869
    vertex 0.0 0.0 0.0
  endloop
endfacet
facet normal 2.6331908194703137e-09 -1.0 -2.0758862725293197e-10
  outer loop
    vertex -1.1318431791806915e-08 2.2212593986381533e-10 0.9999999999999869
    vertex 82.99999899228519 2.1855483582911005e-07 6.199713175281118e-07
    vertex 82.99999898096681 2.1877696176897388e-07 1.0000006199713178
  endloop
endfacet
facet normal 2.6331908194703137e-09 -1.0 -2.0758862725293197e-10
  outer loop
    vertex -1.1318431791806915e-08 2.2212593986381533e-10 0.9999999999999869
    vertex 82.99999898096681 2.1877696176897388e-07 1.0000006199713178
    vertex -1.0000000113183962 -3.2131262095447255e-09 2.499999992437432
  endloop
endfacet
facet normal 2.6331908194703137e-09 -1.0 -2.0758862725293197e-10
  outer loop
    vertex -1.0000000113183962 -3.2131262095447255e-09 2.499999992437432
    vertex 82.99999898096681 2.1877696176897388e-07 1.0000006199713178
    vertex 83.99999898313789 2.2060809008461745e-07 2.5000006274419624
  endloop
endfacet
facet normal 2.6331908194703137e-09 -1.0 -2.0758862725293197e-10
  outer loop
    vertex -1.0000000113183962 -3.2131262095447255e-09 2.499999992437432
    vertex 83.99999898313789 2.2060809008461745e-07 2.5000006274419624
    vertex -1.0000000342660538 -3.383260427369805e-09 4.499999992437433
  endloop
endfacet
facet normal 2.6331908194703137e-09 -1.0 -2.0758862725293197e-10
  outer loop
    vertex -1.0000000342660538 -3.383260427369805e-09 4.499999992437433
    vertex 83.99999898313789 2.2060809008461745e-07 2.5000006274419624
    vertex 83.99999896019027 2.2043795586679237e-07 4.5000006274419615
  endloop
endfacet
facet normal -0.9914448620611878 0.13052618699890342 -7.527761938183236e-09
  outer loop
    vertex 42.49999945629574 1.5000001137936338 4.500000312820238
    vertex 42.4659253182138 1.2411810692618102 3.129566979009901e-07
    vertex 42.465925283947826 1.2411810685117441 4.500000312956708
  endloop
endfacet
facet normal -0.9914448620611878 0.13052618699890342 -7.527761938183236e-09
  outer loop
    vertex 42.4659253182138 1.2411810692618102 3.129566979009901e-07
    vertex 42.49999945629574 1.5000001137936338 4.500000312820238
    vertex 42.499999490561734 1.5000001145437025 3.128202284430337e-07
  endloop
endfacet
facet normal 0.7933533370851676 0.6087614331869493 6.142588523497912e-09
  outer loop
    vertex 40.79289271309917 0.7928933243669253 3.079862024191193e-07
    vertex 40.633974055144485 1.000000103966545 4.500000307276325
    vertex 40.79289267883318 0.7928933236168537 4.5000003079862205
  endloop
endfacet
facet normal 0.7933533370851676 0.6087614331869493 6.142588523497912e-09
  outer loop
    vertex 40.633974055144485 1.000000103966545 4.500000307276325
    vertex 40.79289271309917 0.7928933243669253 3.079862024191193e-07
    vertex 40.63397408941046 1.0000001047166167 3.072763548161994e-07
  endloop
endfacet
facet normal -0.92387953452675 0.3826834274993312 -6.971244653322872e-09
  outer loop
    vertex 42.465925283947826 1.2411810685117441 4.500000312956708
    vertex 42.366024896979425 1.000000113838258 3.128640281624406e-07
    vertex 42.36602486271343 1.0000001130881861 4.500000312864058
  endloop
endfacet
facet normal -0.92387953452675 0.3826834274993312 -6.971244653322872e-09
  outer loop
    vertex 42.366024896979425 1.000000113838258 3.128640281624406e-07
    vertex 42.465925283947826 1.2411810685117441 4.500000312956708
    vertex 42.4659253182138 1.2411810692618102 3.129566979009901e-07
  endloop
endfacet
facet normal 0.38268343723057874 -0.9238795304959353 2.7600141469955435e-09
  outer loop
    vertex 41.24118044037239 2.465925934203444 3.078394908428983e-07
    vertex 40.99999945173494 2.36602550967857 4.500000307156505
    vertex 40.99999948600096 2.366025510428636 3.0715652175050675e-07
  endloop
endfacet
facet normal 0.38268343723057874 -0.9238795304959353 2.7600141469955435e-09
  outer loop
    vertex 40.99999945173494 2.36602550967857 4.500000307156505
    vertex 41.24118044037239 2.465925934203444 3.078394908428983e-07
    vertex 41.24118040610637 2.4659259334533723 4.500000307839504
  endloop
endfacet
facet normal 0.9914448606863631 0.13052619744173366 7.571277714440864e-09
  outer loop
    vertex 40.53407366563575 1.2411810590879435 3.0672445212598375e-07
    vertex 40.499999456295704 1.50000010326087 4.5000003063680705
    vertex 40.53407363136974 1.2411810583378748 4.50000030672443
  endloop
endfacet
facet normal 0.9914448606863631 0.13052619744173366 7.571277714440864e-09
  outer loop
    vertex 40.499999456295704 1.50000010326087 4.5000003063680705
    vertex 40.53407366563575 1.2411810590879435 3.0672445212598375e-07
    vertex 40.499999490561684 1.5000001040109388 3.0636806476191935e-07
  endloop
endfacet
facet normal -0.6087614331864635 0.7933533370855405 -4.5032779929836216e-09
  outer loop
    vertex 41.99999946085652 0.6339747073760565 4.500000312031744
    vertex 42.20710627547233 0.7928933318147134 3.125485867117028e-07
    vertex 41.99999949512254 0.6339747081261253 3.120317446647647e-07
  endloop
endfacet
facet normal -0.6087614331864635 0.7933533370855405 -4.5032779929836216e-09
  outer loop
    vertex 42.20710627547233 0.7928933318147134 3.125485867117028e-07
    vertex 41.99999946085652 0.6339747073760565 4.500000312031744
    vertex 42.20710624120634 0.7928933310646447 4.5000003125485915
  endloop
endfacet
facet normal 0.9914448620611558 -0.13052618699914464 7.527765003981375e-09
  outer loop
    vertex 40.499999490561684 1.5000001040109388 3.0636806476191935e-07
    vertex 40.53407362864369 1.7588191485428526 4.50000030623157
    vertex 40.499999456295704 1.50000010326087 4.5000003063680705
  endloop
endfacet
facet normal 0.9914448620611558 -0.13052618699914464 7.527765003981375e-09
  outer loop
    vertex 40.53407362864369 1.7588191485428526 4.50000030623157
    vertex 40.499999490561684 1.5000001040109388 3.0636806476191935e-07
    vertex 40.534073662909705 1.7588191492929215 3.062315600543819e-07
  endloop
endfacet
facet normal 0.7933533434970875 -0.6087614248307724 5.9396538857118515e-09
  outer loop
    vertex 40.6339740841441 2.0000001047165723 3.0632421851306544e-07
    vertex 40.79289267138534 2.207106885989979 4.500000306639692
    vertex 40.63397404987807 2.000000103966504 4.5000003063242255
  endloop
endfacet
facet normal 0.7933533434970875 -0.6087614248307724 5.9396538857118515e-09
  outer loop
    vertex 40.79289267138534 2.207106885989979 4.500000306639692
    vertex 40.6339740841441 2.0000001047165723 3.0632421851306544e-07
    vertex 40.79289270565134 2.2071068867400507 3.066397135431664e-07
  endloop
endfacet
facet normal 0.13052618699864113 0.9914448620612222 1.159169823832104e-09
  outer loop
    vertex 41.241180416280216 0.5340742808751758 4.500000309678877
    vertex 41.49999949582822 0.5000001092773719 3.105462497710043e-07
    vertex 41.24118045054625 0.5340742816252446 3.0967885205068764e-07
  endloop
endfacet
facet normal 0.13052618699864113 0.9914448620612222 1.159169823832104e-09
  outer loop
    vertex 41.49999949582822 0.5000001092773719 3.105462497710043e-07
    vertex 41.241180416280216 0.5340742808751758 4.500000309678877
    vertex 41.499999461562254 0.5000001085273003 4.500000310546238
  endloop
endfacet
facet normal -0.38268343723083326 0.9238795304958299 -2.7600129477850613e-09
  outer loop
    vertex 41.7588185064853 0.5340742836012544 4.500000311348786
    vertex 41.99999949512254 0.6339747081261253 3.120317446647647e-07
    vertex 41.758818540751285 0.5340742843513232 3.1134877557237314e-07
  endloop
endfacet
facet normal -0.38268343723083326 0.9238795304958299 -2.7600129477850613e-09
  outer loop
    vertex 41.99999949512254 0.6339747081261253 3.120317446647647e-07
    vertex 41.7588185064853 0.5340742836012544 4.500000311348786
    vertex 41.99999946085652 0.6339747073760565 4.500000312031744
  endloop
endfacet
facet normal 0.6087614331868286 -0.7933533370852601 4.503278756943822e-09
  outer loop
    vertex 40.99999948600096 2.366025510428636 3.0715652175050675e-07
    vertex 40.79289267138534 2.207106885989979 4.500000306639692
    vertex 40.79289270565134 2.2071068867400507 3.066397135431664e-07
  endloop
endfacet
facet normal 0.6087614331868286 -0.7933533370852601 4.503278756943822e-09
  outer loop
    vertex 40.79289267138534 2.207106885989979 4.500000306639692
    vertex 40.99999948600096 2.366025510428636 3.0715652175050675e-07
    vertex 40.99999945173494 2.36602550967857 4.500000307156505
  endloop
endfacet
facet normal 0.3826834274995824 0.923879534526646 3.0680017314836127e-09
  outer loop
    vertex 40.9999994608566 0.6339747021096732 4.5000003088056975
    vertex 41.24118045054625 0.5340742816252446 3.0967885205068764e-07
    vertex 40.99999949512258 0.6339747028597449 3.088057044187131e-07
  endloop
endfacet
facet normal 0.3826834274995824 0.923879534526646 3.0680017314836127e-09
  outer loop
    vertex 41.24118045054625 0.5340742816252446 3.0967885205068764e-07
    vertex 40.9999994608566 0.6339747021096732 4.5000003088056975
    vertex 41.241180416280216 0.5340742808751758 4.500000309678877
  endloop
endfacet
facet normal 0.13052619744130806 -0.9914448606864189 8.286574992126949e-10
  outer loop
    vertex 41.499999485295454 2.500000109277395 3.086420251041666e-07
    vertex 41.24118040610637 2.4659259334533723 4.500000307839504
    vertex 41.24118044037239 2.465925934203444 3.078394908428983e-07
  endloop
endfacet
facet normal 0.13052619744130806 -0.9914448606864189 8.286574992126949e-10
  outer loop
    vertex 41.24118040610637 2.4659259334533723 4.500000307839504
    vertex 41.499999485295454 2.500000109277395 3.086420251041666e-07
    vertex 41.499999451029474 2.500000108527329 4.500000308642029
  endloop
endfacet
facet normal 0.6087614248307052 0.7933533434971392 4.767751504042642e-09
  outer loop
    vertex 40.79289267883318 0.7928933236168537 4.5000003079862205
    vertex 40.99999949512258 0.6339747028597449 3.088057044187131e-07
    vertex 40.79289271309917 0.7928933243669253 3.079862024191193e-07
  endloop
endfacet
facet normal 0.6087614248307052 0.7933533434971392 4.767751504042642e-09
  outer loop
    vertex 40.99999949512258 0.6339747028597449 3.088057044187131e-07
    vertex 40.79289267883318 0.7928933236168537 4.5000003079862205
    vertex 40.9999994608566 0.6339747021096732 4.5000003088056975
  endloop
endfacet
facet normal 0.9238795345268 -0.38268342749921064 6.97125217955758e-09
  outer loop
    vertex 40.534073662909705 1.7588191492929215 3.062315600543819e-07
    vertex 40.63397404987807 2.000000103966504 4.5000003063242255
    vertex 40.53407362864369 1.7588191485428526 4.50000030623157
  endloop
endfacet
facet normal 0.9238795345268 -0.38268342749921064 6.97125217955758e-09
  outer loop
    vertex 40.63397404987807 2.000000103966504 4.5000003063242255
    vertex 40.534073662909705 1.7588191492929215 3.062315600543819e-07
    vertex 40.6339740841441 2.0000001047165723 3.0632421851306544e-07
  endloop
endfacet
facet normal -0.13052619744131816 0.9914448606864178 -8.286566158683354e-10
  outer loop
    vertex 41.499999461562254 0.5000001085273003 4.500000310546238
    vertex 41.758818540751285 0.5340742843513232 3.1134877557237314e-07
    vertex 41.49999949582822 0.5000001092773719 3.105462497710043e-07
  endloop
endfacet
facet normal -0.13052619744131816 0.9914448606864178 -8.286566158683354e-10
  outer loop
    vertex 41.758818540751285 0.5340742843513232 3.1134877557237314e-07
    vertex 41.499999461562254 0.5000001085273003 4.500000310546238
    vertex 41.7588185064853 0.5340742836012544 4.500000311348786
  endloop
endfacet
facet normal 0.9238795304959867 0.3826834372304547 7.098819901796279e-09
  outer loop
    vertex 40.63397408941046 1.0000001047166167 3.072763548161994e-07
    vertex 40.53407363136974 1.2411810583378748 4.50000030672443
    vertex 40.633974055144485 1.000000103966545 4.500000307276325
  endloop
endfacet
facet normal 0.9238795304959867 0.3826834372304547 7.098819901796279e-09
  outer loop
    vertex 40.53407363136974 1.2411810583378748 4.50000030672443
    vertex 40.63397408941046 1.0000001047166167 3.072763548161994e-07
    vertex 40.53407366563575 1.2411810590879435 3.0672445212598375e-07
  endloop
endfacet
facet normal -0.7933533434974842 0.6087614248302555 -5.9396499076494e-09
  outer loop
    vertex 42.36602486271343 1.0000001130881861 4.500000312864058
    vertex 42.20710627547233 0.7928933318147134 3.125485867117028e-07
    vertex 42.20710624120634 0.7928933310646447 4.5000003125485915
  endloop
endfacet
facet normal -0.7933533434974842 0.6087614248302555 -5.9396499076494e-09
  outer loop
    vertex 42.20710627547233 0.7928933318147134 3.125485867117028e-07
    vertex 42.36602486271343 1.0000001130881861 4.500000312864058
    vertex 42.366024896979425 1.000000113838258 3.128640281624406e-07
  endloop
endfacet
facet normal 1.1318385138413043e-08 -2.2212663914359596e-10 -1.0
  outer loop
    vertex 32.93813187294632 122.99999907626581 3.7330708400062914e-07
    vertex 16.999999273560192 63.9999992223484 -2.0342028721476167e-07
    vertex 16.999999002339628 115.54560584339053 -8.84502509013174e-09
  endloop
endfacet
facet normal 1.1318385138413043e-08 -2.2212663914359596e-10 -1.0
  outer loop
    vertex 53.543006917723986 122.99999941721063 9.08676502486827e-08
    vertex 40.499999490561684 1.5000001040109388 3.0636806476191935e-07
    vertex 32.93813187294632 122.99999907626581 3.7330708400062914e-07
  endloop
endfacet
facet normal 1.1318385138413043e-08 -2.2212663914359596e-10 -1.0
  outer loop
    vertex 40.499999490561684 1.5000001040109388 3.0636806476191935e-07
    vertex 53.543006917723986 122.99999941721063 9.08676502486827e-08
    vertex 40.534073662909705 1.7588191492929215 3.062315600543819e-07
  endloop
endfacet
facet normal 1.1318385138413043e-08 -2.2212663914359596e-10 -1.0
  outer loop
    vertex 40.534073662909705 1.7588191492929215 3.062315600543819e-07
    vertex 53.543006917723986 122.99999941721063 9.08676502486827e-08
    vertex 40.6339740841441 2.0000001047165723 3.0632421851306544e-07
  endloop
endfacet
facet normal 1.1318385138413043e-08 -2.2212663914359596e-10 -1.0
  outer loop
    vertex 40.6339740841441 2.0000001047165723 3.0632421851306544e-07
    vertex 53.543006917723986 122.99999941721063 9.08676502486827e-08
    vertex 40.79289270565134 2.2071068867400507 3.066397135431664e-07
  endloop
endfacet
facet normal 1.1318385138413043e-08 -2.2212663914359596e-10 -1.0
  outer loop
    vertex 40.79289270565134 2.2071068867400507 3.066397135431664e-07
    vertex 53.543006917723986 122.99999941721063 9.08676502486827e-08
    vertex 40.99999948600096 2.366025510428636 3.0715652175050675e-07
  endloop
endfacet
facet normal 1.1318385138413043e-08 -2.2212663914359596e-10 -1.0
  outer loop
    vertex 40.99999948600096 2.366025510428636 3.0715652175050675e-07
    vertex 53.543006917723986 122.99999941721063 9.08676502486827e-08
    vertex 41.24118044037239 2.465925934203444 3.078394908428983e-07
  endloop
endfacet
facet normal 1.1318385138413043e-08 -2.2212663914359596e-10 -1.0
  outer loop
    vertex 41.24118044037239 2.465925934203444 3.078394908428983e-07
    vertex 53.543006917723986 122.99999941721063 9.08676502486827e-08
    vertex 41.499999485295454 2.500000109277395 3.086420251041666e-07
  endloop
endfacet
facet normal 1.1318385138413043e-08 -2.2212663914359596e-10 -1.0
  outer loop
    vertex 41.499999485295454 2.500000109277395 3.086420251041666e-07
    vertex 53.543006917723986 122.99999941721063 9.08676502486827e-08
    vertex 41.75881853057745 2.4659259369295223 3.095093988547681e-07
  endloop
endfacet
facet normal 1.1318385138413043e-08 -2.2212663914359596e-10 -1.0
  outer loop
    vertex 41.75881853057745 2.4659259369295223 3.095093988547681e-07
    vertex 53.543006917723986 122.99999941721063 9.08676502486827e-08
    vertex 41.99999948600087 2.366025515695019 3.103826155759215e-07
  endloop
endfacet
facet normal 1.1318385138413043e-08 -2.2212663914359596e-10 -1.0
  outer loop
    vertex 41.99999948600087 2.366025515695019 3.103826155759215e-07
    vertex 53.543006917723986 122.99999941721063 9.08676502486827e-08
    vertex 42.20710626802452 2.207106894187836 3.1120205271628617e-07
  endloop
endfacet
facet normal 1.1318385138413043e-08 -2.2212663914359596e-10 -1.0
  outer loop
    vertex 42.20710626802452 2.207106894187836 3.1120205271628617e-07
    vertex 53.543006917723986 122.99999941721063 9.08676502486827e-08
    vertex 42.36602489171303 2.0000001138382135 3.1191193838875364e-07
  endloop
endfacet
facet normal 1.1318385138413043e-08 -2.2212663914359596e-10 -1.0
  outer loop
    vertex 42.36602489171303 2.0000001138382135 3.1191193838875364e-07
    vertex 53.543006917723986 122.99999941721063 9.08676502486827e-08
    vertex 42.46592531548774 1.7588191594667881 3.124638354390363e-07
  endloop
endfacet
facet normal 1.1318385138413043e-08 -2.2212663914359596e-10 -1.0
  outer loop
    vertex 42.46592531548774 1.7588191594667881 3.124638354390363e-07
    vertex 53.543006917723986 122.99999941721063 9.08676502486827e-08
    vertex 42.499999490561734 1.5000001145437025 3.128202284430337e-07
  endloop
endfacet
facet normal 1.1318385138413043e-08 -2.2212663914359596e-10 -1.0
  outer loop
    vertex 16.999999273560192 63.9999992223484 -2.0342028721476167e-07
    vertex 0.0 0.0 0.0
    vertex -5.138041308860864e-07 63.99999933287157 -1.285478788304317e-07
  endloop
endfacet
facet normal 1.1318385138413043e-08 -2.2212663914359596e-10 -1.0
  outer loop
    vertex 0.0 0.0 0.0
    vertex 16.999999273560192 63.9999992223484 -2.0342028721476167e-07
    vertex 40.53407366563575 1.2411810590879435 3.0672445212598375e-07
  endloop
endfacet
facet normal 1.1318385138413043e-08 -2.2212663914359596e-10 -1.0
  outer loop
    vertex 0.0 0.0 0.0
    vertex 40.53407366563575 1.2411810590879435 3.0672445212598375e-07
    vertex 40.63397408941046 1.0000001047166167 3.072763548161994e-07
  endloop
endfacet
facet normal 1.1318385138413043e-08 -2.2212663914359596e-10 -1.0
  outer loop
    vertex 0.0 0.0 0.0
    vertex 40.63397408941046 1.0000001047166167 3.072763548161994e-07
    vertex 40.79289271309917 0.7928933243669253 3.079862024191193e-07
  endloop
endfacet
facet normal 1.1318385138413043e-08 -2.2212663914359596e-10 -1.0
  outer loop
    vertex 0.0 0.0 0.0
    vertex 40.79289271309917 0.7928933243669253 3.079862024191193e-07
    vertex 40.99999949512258 0.6339747028597449 3.088057044187131e-07
  endloop
endfacet
facet normal 1.1318385138413043e-08 -2.2212663914359596e-10 -1.0
  outer loop
    vertex 0.0 0.0 0.0
    vertex 40.99999949512258 0.6339747028597449 3.088057044187131e-07
    vertex 41.24118045054625 0.5340742816252446 3.0967885205068764e-07
  endloop
endfacet
facet normal 1.1318385138413043e-08 -2.2212663914359596e-10 -1.0
  outer loop
    vertex 0.0 0.0 0.0
    vertex 41.24118045054625 0.5340742816252446 3.0967885205068764e-07
    vertex 41.49999949582822 0.5000001092773719 3.105462497710043e-07
  endloop
endfacet
facet normal 1.1318385138413043e-08 -2.2212663914359596e-10 -1.0
  outer loop
    vertex 0.0 0.0 0.0
    vertex 41.49999949582822 0.5000001092773719 3.105462497710043e-07
    vertex 82.99999899228519 2.1855483582911005e-07 6.199713175281118e-07
  endloop
endfacet
facet normal 1.1318385138413043e-08 -2.2212663914359596e-10 -1.0
  outer loop
    vertex 40.53407366563575 1.2411810590879435 3.0672445212598375e-07
    vertex 16.999999273560192 63.9999992223484 -2.0342028721476167e-07
    vertex 40.499999490561684 1.5000001040109388 3.0636806476191935e-07
  endloop
endfacet
facet normal 1.1318385138413043e-08 -2.2212663914359596e-10 -1.0
  outer loop
    vertex 40.499999490561684 1.5000001040109388 3.0636806476191935e-07
    vertex 16.999999273560192 63.9999992223484 -2.0342028721476167e-07
    vertex 32.93813187294632 122.99999907626581 3.7330708400062914e-07
  endloop
endfacet
facet normal 1.1318385138413043e-08 -2.2212663914359596e-10 -1.0
  outer loop
    vertex 82.99999899228519 2.1855483582911005e-07 6.199713175281118e-07
    vertex 41.49999949582822 0.5000001092773719 3.105462497710043e-07
    vertex 41.758818540751285 0.5340742843513232 3.1134877557237314e-07
  endloop
endfacet
facet normal 1.1318385138413043e-08 -2.2212663914359596e-10 -1.0
  outer loop
    vertex 82.99999899228519 2.1855483582911005e-07 6.199713175281118e-07
    vertex 41.758818540751285 0.5340742843513232 3.1134877557237314e-07
    vertex 41.99999949512254 0.6339747081261253 3.120317446647647e-07
  endloop
endfacet
facet normal 1.1318385138413043e-08 -2.2212663914359596e-10 -1.0
  outer loop
    vertex 82.99999899228519 2.1855483582911005e-07 6.199713175281118e-07
    vertex 41.99999949512254 0.6339747081261253 3.120317446647647e-07
    vertex 42.20710627547233 0.7928933318147134 3.125485867117028e-07
  endloop
endfacet
facet normal 1.1318385138413043e-08 -2.2212663914359596e-10 -1.0
  outer loop
    vertex 82.99999899228519 2.1855483582911005e-07 6.199713175281118e-07
    vertex 42.20710627547233 0.7928933318147134 3.125485867117028e-07
    vertex 42.366024896979425 1.000000113838258 3.128640281624406e-07
  endloop
endfacet
facet normal 1.1318385138413043e-08 -2.2212663914359596e-10 -1.0
  outer loop
    vertex 82.99999899228519 2.1855483582911005e-07 6.199713175281118e-07
    vertex 42.366024896979425 1.000000113838258 3.128640281624406e-07
    vertex 42.4659253182138 1.2411810692618102 3.129566979009901e-07
  endloop
endfacet
facet normal 1.1318385138413043e-08 -2.2212663914359596e-10 -1.0
  outer loop
    vertex 82.99999899228519 2.1855483582911005e-07 6.199713175281118e-07
    vertex 42.4659253182138 1.2411810692618102 3.129566979009901e-07
    vertex 42.499999490561734 1.5000001145437025 3.128202284430337e-07
  endloop
endfacet
facet normal 1.1318385138413043e-08 -2.2212663914359596e-10 -1.0
  outer loop
    vertex 82.99999899228519 2.1855483582911005e-07 6.199713175281118e-07
    vertex 42.499999490561734 1.5000001145437025 3.128202284430337e-07
    vertex 53.543006917723986 122.99999941721063 9.08676502486827e-08
  endloop
endfacet
facet normal 1.1318385138413043e-08 -2.2212663914359596e-10 -1.0
  outer loop
    vertex 82.99999899228519 2.1855483582911005e-07 6.199713175281118e-07
    vertex 53.543006917723986 122.99999941721063 9.08676502486827e-08
    vertex 61.85822919747631 111.99999971791185 2.560076961533042e-08
  endloop
endfacet
facet normal 1.1318385138413043e-08 -2.2212663914359596e-10 -1.0
  outer loop
    vertex 82.99999899228519 2.1855483582911005e-07 6.199713175281118e-07
    vertex 61.85822919747631 111.99999971791185 2.560076961533042e-08
    vertex 82.99999816146034 111.99999987597371 1.3677001097112118e-06
  endloop
endfacet
facet normal 1.0 7.418078942244018e-09 1.131838103076281e-08
  outer loop
    vertex 82.99999816146034 111.99999987597371 1.3677001097112118e-06
    vertex 82.99999898096681 2.1877696176897388e-07 1.0000006199713178
    vertex 82.99999899228519 2.1855483582911005e-07 6.199713175281118e-07
  endloop
endfacet
facet normal 1.0 7.418078942244018e-09 1.131838103076281e-08
  outer loop
    vertex 82.99999898096681 2.1877696176897388e-07 1.0000006199713178
    vertex 82.99999816146034 111.99999987597371 1.3677001097112118e-06
    vertex 82.99999815014196 111.99999987619576 1.000001367700112
  endloop
endfacet
facet normal -1.0 -8.028189034646005e-09 -1.1318392310493314e-08
  outer loop
    vertex -1.1318431791806915e-08 2.2212593986381533e-10 0.9999999999999869
    vertex -5.138041308860864e-07 63.99999933287157 -1.285478788304317e-07
    vertex 0.0 0.0 0.0
  endloop
endfacet
facet normal -1.0 -8.028189034646005e-09 -1.1318392310493314e-08
  outer loop
    vertex -5.138041308860864e-07 63.99999933287157 -1.285478788304317e-07
    vertex -1.1318431791806915e-08 2.2212593986381533e-10 0.9999999999999869
    vertex -5.251224837188317e-07 63.99999933309365 0.9999998714520968
  endloop
endfacet
facet normal 6.501360482008539e-09 1.0 -2.221230463124222e-10
  outer loop
    vertex -5.138041308860864e-07 63.99999933287157 -1.285478788304317e-07
    vertex 16.99999926224177 63.999999222570565 0.9999997965797137
    vertex 16.999999273560192 63.9999992223484 -2.0342028721476167e-07
  endloop
endfacet
facet normal 6.501360482008539e-09 1.0 -2.221230463124222e-10
  outer loop
    vertex 16.99999926224177 63.999999222570565 0.9999997965797137
    vertex -5.138041308860864e-07 63.99999933287157 -1.285478788304317e-07
    vertex -5.251224837188317e-07 63.99999933309365 0.9999998714520968
  endloop
endfacet
facet normal -1.0 -5.2617598036627224e-09 -1.1318459990302477e-08
  outer loop
    vertex 16.99999926224177 63.999999222570565 0.9999997965797137
    vertex 16.999999002339628 115.54560584339053 -8.84502509013174e-09
    vertex 16.999999273560192 63.9999992223484 -2.0342028721476167e-07
  endloop
endfacet
facet normal -1.0 -5.2617598036627224e-09 -1.1318459990302477e-08
  outer loop
    vertex 16.999999002339628 115.54560584339053 -8.84502509013174e-09
    vertex 16.99999926224177 63.999999222570565 0.9999997965797137
    vertex 16.999998991021126 115.54560584361269 0.9999999911550238
  endloop
endfacet
facet normal -0.42365993316543477 0.9058213184896121 -4.996360004824952e-09
  outer loop
    vertex 16.999998991021126 115.54560584361269 0.9999999911550238
    vertex 32.93813187294632 122.99999907626581 3.7330708400062914e-07
    vertex 16.999999002339628 115.54560584339053 -8.84502509013174e-09
  endloop
endfacet
facet normal -0.42365993316543477 0.9058213184896121 -4.996360004824952e-09
  outer loop
    vertex 32.93813187294632 122.99999907626581 3.7330708400062914e-07
    vertex 16.999998991021126 115.54560584361269 0.9999999911550238
    vertex 32.93813186162791 122.99999907648784 1.0000003733070821
  endloop
endfacet
facet normal -1.654680693436846e-08 1.0 -2.2210074744877305e-10
  outer loop
    vertex 32.93813187294632 122.99999907626581 3.7330708400062914e-07
    vertex 53.54300690640561 122.9999994174328 1.0000000908676836
    vertex 53.543006917723986 122.99999941721063 9.08676502486827e-08
  endloop
endfacet
facet normal -1.654680693436846e-08 1.0 -2.2210074744877305e-10
  outer loop
    vertex 53.54300690640561 122.9999994174328 1.0000000908676836
    vertex 32.93813187294632 122.99999907626581 3.7330708400062914e-07
    vertex 32.93813186162791 122.99999907648784 1.0000003733070821
  endloop
endfacet
facet normal 0.7977238921565276 0.6030228784073127 8.894938616386246e-09
  outer loop
    vertex 53.543006917723986 122.99999941721063 9.08676502486827e-08
    vertex 61.85822918615794 111.9999997181341 1.0000000256007726
    vertex 61.85822919747631 111.99999971791185 2.560076961533042e-08
  endloop
endfacet
facet normal 0.7977238921565276 0.6030228784073127 8.894938616386246e-09
  outer loop
    vertex 61.85822918615794 111.9999997181341 1.0000000256007726
    vertex 53.543006917723986 122.99999941721063 9.08676502486827e-08
    vertex 53.54300690640561 122.9999994174328 1.0000000908676836
  endloop
endfacet
facet normal -7.476278867986927e-09 1.0 -2.221457642485774e-10
  outer loop
    vertex 61.85822918615794 111.9999997181341 1.0000000256007726
    vertex 82.99999816146034 111.99999987597371 1.3677001097112118e-06
    vertex 61.85822919747631 111.99999971791185 2.560076961533042e-08
  endloop
endfacet
facet normal -7.476278867986927e-09 1.0 -2.221457642485774e-10
  outer loop
    vertex 82.99999816146034 111.99999987597371 1.3677001097112118e-06
    vertex 61.85822918615794 111.9999997181341 1.0000000256007726
    vertex 82.99999815014196 111.99999987619576 1.000001367700112
  endloop
endfacet
facet normal -1.0310770590946012e-08 1.8625965143944226e-09 1.0
  outer loop
    vertex 4.499999921578935 5.500000012703423 1.500000022279312
    vertex 21.499999262972054 59.49999919394634 1.499999756974175
    vertex 4.499999488056632 59.49999930446942 1.4999998604266025
  endloop
endfacet
facet normal -1.0310770590946012e-08 1.8625965143944226e-09 1.0
  outer loop
    vertex 21.499999262972054 59.49999919394634 1.499999756974175
    vertex 4.499999921578935 5.500000012703423 1.500000022279312
    vertex 41.49999944312986 5.500000110131471 1.5000003061990224
  endloop
endfacet
facet normal -1.0310770590946012e-08 1.8625965143944226e-09 1.0
  outer loop
    vertex 21.499999262972054 59.49999919394634 1.499999756974175
    vertex 41.49999944312986 5.500000110131471 1.5000003061990224
    vertex 33.938472084744575 118.49999909367216 1.5000001037890558
  endloop
endfacet
facet normal -1.0310770590946012e-08 1.8625965143944226e-09 1.0
  outer loop
    vertex 33.938472084744575 118.49999909367216 1.5000001037890558
    vertex 41.49999944312986 5.500000110131471 1.5000003061990224
    vertex 51.30363929977787 118.49999938101047 1.500000086954114
  endloop
endfacet
facet normal -1.0310770590946012e-08 1.8625965143944226e-09 1.0
  outer loop
    vertex 51.30363929977787 118.49999938101047 1.500000086954114
    vertex 41.49999944312986 5.500000110131471 1.5000003061990224
    vertex 78.49999891928421 5.500000207559548 1.5000006205279306
  endloop
endfacet
facet normal -1.0310770590946012e-08 1.8625965143944226e-09 1.0
  outer loop
    vertex 51.30363929977787 118.49999938101047 1.500000086954114
    vertex 78.49999891928421 5.500000207559548 1.5000006205279306
    vertex 59.61886156417557 107.49999970202383 1.4999996058460732
  endloop
endfacet
facet normal -1.0310770590946012e-08 1.8625965143944226e-09 1.0
  outer loop
    vertex 59.61886156417557 107.49999970202383 1.4999996058460732
    vertex 78.49999891928421 5.500000207559548 1.5000006205279306
    vertex 78.49999816066293 107.49999984318444 1.5000010479776698
  endloop
endfacet
facet normal -1.0310770590946012e-08 1.8625965143944226e-09 1.0
  outer loop
    vertex 33.938472084744575 118.49999909367216 1.5000001037890558
    vertex 21.49999898313895 112.6824249481519 1.500000051665833
    vertex 21.499999262972054 59.49999919394634 1.499999756974175
  endloop
endfacet
facet normal -0.7071067942954089 -8.862686306541969e-09 0.7071067680776859
  outer loop
    vertex 81.49999813835052 110.4999998640092 4.500001264302557
    vertex 78.49999891928421 5.500000207559548 1.5000006205279306
    vertex 81.4999989415966 2.5000002138549777 4.50000062666779
  endloop
endfacet
facet normal -0.7071067942954089 -8.862686306541969e-09 0.7071067680776859
  outer loop
    vertex 78.49999891928421 5.500000207559548 1.5000006205279306
    vertex 81.49999813835052 110.4999998640092 4.500001264302557
    vertex 78.49999816066293 107.49999984318444 1.5000010479776698
  endloop
endfacet
facet normal -4.4848722609193895e-08 -0.7071067935400371 0.7071067688330562
  outer loop
    vertex 78.49999816066293 107.49999984318444 1.5000010479776698
    vertex 61.11177329686541 110.49999971158125 4.499999914514989
    vertex 59.61886156417557 107.49999970202383 1.4999996058460732
  endloop
endfacet
facet normal -4.4848722609193895e-08 -0.7071067935400371 0.7071067688330562
  outer loop
    vertex 61.11177329686541 110.49999971158125 4.499999914514989
    vertex 78.49999816066293 107.49999984318444 1.5000010479776698
    vertex 81.49999813835052 110.4999998640092 4.500001264302557
  endloop
endfacet
facet normal -0.5640759760565762 -0.426401590843756 0.7071067646131913
  outer loop
    vertex 59.61886156417557 107.49999970202383 1.4999996058460732
    vertex 52.79655102223129 121.49999940410919 4.500000133395041
    vertex 51.30363929977787 118.49999938101047 1.500000086954114
  endloop
endfacet
facet normal -0.5640759760565762 -0.426401590843756 0.7071067646131913
  outer loop
    vertex 52.79655102223129 121.49999940410919 4.500000133395041
    vertex 59.61886156417557 107.49999970202383 1.4999996058460732
    vertex 61.11177329686541 110.49999971158125 4.499999914514989
  endloop
endfacet
facet normal 1.3394534593616357e-08 -0.7071067900280315 0.7071067723450634
  outer loop
    vertex 52.79655102223129 121.49999940410919 4.500000133395041
    vertex 33.938472084744575 118.49999909367216 1.5000001037890558
    vertex 51.30363929977787 118.49999938101047 1.500000086954114
  endloop
endfacet
facet normal 1.3394534593616357e-08 -0.7071067900280315 0.7071067723450634
  outer loop
    vertex 33.938472084744575 118.49999909367216 1.5000001037890558
    vertex 52.79655102223129 121.49999940410919 4.500000133395041
    vertex 33.271578587368424 121.49999908103311 4.500000202205722
  endloop
endfacet
facet normal 0.29957280906289274 -0.6405124040578338 0.7071067757547101
  outer loop
    vertex 21.49999898313895 112.6824249481519 1.500000051665833
    vertex 33.271578587368424 121.49999908103311 4.500000202205722
    vertex 18.499998973095398 114.59121221060967 4.500000033030284
  endloop
endfacet
facet normal 0.29957280906289274 -0.6405124040578338 0.7071067757547101
  outer loop
    vertex 33.271578587368424 121.49999908103311 4.500000202205722
    vertex 21.49999898313895 112.6824249481519 1.500000051665833
    vertex 33.938472084744575 118.49999909367216 1.5000001037890558
  endloop
endfacet
facet normal 0.707106780292936 7.72869939761532e-11 0.707106782080159
  outer loop
    vertex 18.499999247186846 62.49999921184626 4.499999785736863
    vertex 21.49999898313895 112.6824249481519 1.500000051665833
    vertex 18.499998973095398 114.59121221060967 4.500000033030284
  endloop
endfacet
facet normal 0.707106780292936 7.72869939761532e-11 0.707106782080159
  outer loop
    vertex 21.49999898313895 112.6824249481519 1.500000051665833
    vertex 18.499999247186846 62.49999921184626 4.499999785736863
    vertex 21.499999262972054 59.49999919394634 1.499999756974175
  endloop
endfacet
facet normal -7.343450296785701e-10 -0.7071067815865496 0.7071067807865455
  outer loop
    vertex 18.499999247186846 62.49999921184626 4.499999785736863
    vertex 4.499999488056632 59.49999930446942 1.4999998604266025
    vertex 21.499999262972054 59.49999919394634 1.499999756974175
  endloop
endfacet
facet normal -7.343450296785701e-10 -0.7071067815865496 0.7071067807865455
  outer loop
    vertex 4.499999488056632 59.49999930446942 1.4999998604266025
    vertex 18.499999247186846 62.49999921184626 4.499999785736863
    vertex 1.4999994639721617 62.49999932236936 4.499999868020919
  endloop
endfacet
facet normal 0.7071067807071217 7.527214954621038e-09 0.7071067816659734
  outer loop
    vertex 1.4999999456635182 2.5000000031997143 4.500000006548754
    vertex 4.499999488056632 59.49999930446942 1.4999998604266025
    vertex 1.4999994639721617 62.49999932236936 4.499999868020919
  endloop
endfacet
facet normal 0.7071067807071217 7.527214954621038e-09 0.7071067816659734
  outer loop
    vertex 4.499999488056632 59.49999930446942 1.4999998604266025
    vertex 1.4999999456635182 2.5000000031997143 4.500000006548754
    vertex 4.499999921578935 5.500000012703423 1.500000022279312
  endloop
endfacet
facet normal -7.451634668359272e-09 0.7071067807167098 0.7071067816563852
  outer loop
    vertex 41.499999451029474 2.500000108527329 4.500000308642029
    vertex 4.499999921578935 5.500000012703423 1.500000022279312
    vertex 1.4999999456635182 2.5000000031997143 4.500000006548754
  endloop
endfacet
facet normal -7.451634668359272e-09 0.7071067807167098 0.7071067816563852
  outer loop
    vertex 4.499999921578935 5.500000012703423 1.500000022279312
    vertex 41.499999451029474 2.500000108527329 4.500000308642029
    vertex 41.49999944312986 5.500000110131471 1.5000003061990224
  endloop
endfacet
facet normal -7.451634668359272e-09 0.7071067807167098 0.7071067816563852
  outer loop
    vertex 41.49999944312986 5.500000110131471 1.5000003061990224
    vertex 41.499999451029474 2.500000108527329 4.500000308642029
    vertex 78.49999891928421 5.500000207559548 1.5000006205279306
  endloop
endfacet
facet normal -7.451634668359272e-09 0.7071067807167098 0.7071067816563852
  outer loop
    vertex 78.49999891928421 5.500000207559548 1.5000006205279306
    vertex 41.499999451029474 2.500000108527329 4.500000308642029
    vertex 81.4999989415966 2.5000002138549777 4.50000062666779
  endloop
endfacet
endsolid HandRemote-BackCover
