solid HandRemote-BackCover
facet normal -1.6546810909395233e-08 1.0 8.503871939248847e-11
  outer loop
    vertex 32.71583402916915 123.99999907200748 2.5000004873746478
    vertex 54.0406441242758 123.999999424695 4.50000006251605
    vertex 54.04064414722345 123.99999942486511 2.500000062516061
  endloop
endfacet
facet normal -1.6546810909395233e-08 1.0 8.503871939248847e-11
  outer loop
    vertex 54.0406441242758 123.999999424695 4.50000006251605
    vertex 32.71583402916915 123.99999907200748 2.5000004873746478
    vertex 32.715834006221506 123.99999907183742 4.500000487374624
  endloop
endfacet
facet normal 0.7977238921565334 0.603022878407305 9.204257130943383e-09
  outer loop
    vertex 62.35586643038785 112.99999972105248 2.500000099657966
    vertex 54.0406441242758 123.999999424695 4.50000006251605
    vertex 62.35586640744025 112.99999972088214 4.500000099657964
  endloop
endfacet
facet normal 0.7977238921565334 0.603022878407305 9.204257130943383e-09
  outer loop
    vertex 54.0406441242758 123.999999424695 4.50000006251605
    vertex 62.35586643038785 112.99999972105248 2.500000099657966
    vertex 54.04064414722345 123.99999942486511 2.500000062516061
  endloop
endfacet
facet normal -7.476280291538977e-09 1.0 8.510650266189725e-11
  outer loop
    vertex 62.35586640744025 112.99999972088214 4.500000099657964
    vertex 83.99999814270448 112.99999988286996 2.5000014366318157
    vertex 62.35586643038785 112.99999972105248 2.500000099657966
  endloop
endfacet
facet normal -7.476280291538977e-09 1.0 8.510650266189725e-11
  outer loop
    vertex 83.99999814270448 112.99999988286996 2.5000014366318157
    vertex 62.35586640744025 112.99999972088214 4.500000099657964
    vertex 83.99999811975687 112.99999988269985 4.500001436631816
  endloop
endfacet
facet normal 1.0 7.437463690933787e-09 1.1473811945627925e-08
  outer loop
    vertex 83.99999898313789 2.2060809008461745e-07 2.5000006274419624
    vertex 83.99999811975687 112.99999988269985 4.500001436631816
    vertex 83.99999896019027 2.2043795586679237e-07 4.5000006274419615
  endloop
endfacet
facet normal 1.0 7.437463690933787e-09 1.1473811945627925e-08
  outer loop
    vertex 83.99999811975687 112.99999988269985 4.500001436631816
    vertex 83.99999898313789 2.2060809008461745e-07 2.5000006274419624
    vertex 83.99999814270448 112.99999988286996 2.5000014366318157
  endloop
endfacet
facet normal -1.0 -8.03012388702675e-09 -1.1786446874863082e-08
  outer loop
    vertex -1.5000005560982788 64.99999933862281 4.499999873739648
    vertex -1.500000011318395 -3.2131262095447255e-09 2.499999992437432
    vertex -1.5000000342660529 -3.383260427369805e-09 4.499999992437433
  endloop
endfacet
facet normal -1.0 -8.03012388702675e-09 -1.1786446874863082e-08
  outer loop
    vertex -1.500000011318395 -3.2131262095447255e-09 2.499999992437432
    vertex -1.5000005560982788 64.99999933862281 4.499999873739648
    vertex -1.500000178631873 21.099999994710995 2.4999999552938386
  endloop
endfacet
facet normal -1.0 -8.03012388702675e-09 -1.1786446874863082e-08
  outer loop
    vertex -1.500000178631873 21.099999994710995 2.4999999552938386
    vertex -1.5000005560982788 64.99999933862281 4.499999873739648
    vertex -1.5000002994996782 36.09999999670423 2.4999999276053906
  endloop
endfacet
facet normal -1.0 -8.03012388702675e-09 -1.1786446874863082e-08
  outer loop
    vertex -1.5000002994996782 36.09999999670423 2.4999999276053906
    vertex -1.5000005560982788 64.99999933862281 4.499999873739648
    vertex -1.500000533150666 64.99999933879297 2.4999998737396343
  endloop
endfacet
facet normal 6.501359818757352e-09 1.0 8.50897432398716e-11
  outer loop
    vertex -1.500000533150666 64.99999933879297 2.4999998737396343
    vertex 15.499999234032376 64.99999922809968 4.499999803808305
    vertex 15.499999256980068 64.99999922826987 2.4999998038082896
  endloop
endfacet
facet normal 6.501359818757352e-09 1.0 8.50897432398716e-11
  outer loop
    vertex 15.499999234032376 64.99999922809968 4.499999803808305
    vertex -1.500000533150666 64.99999933879297 2.4999998737396343
    vertex -1.5000005560982788 64.99999933862281 4.499999873739648
  endloop
endfacet
facet normal -1.0 -5.261759917877471e-09 -1.1473834505174748e-08
  outer loop
    vertex 15.49999896472569 116.18186826399446 4.49999996323815
    vertex 15.499999256980068 64.99999922826987 2.4999998038082896
    vertex 15.499999234032376 64.99999922809968 4.499999803808305
  endloop
endfacet
facet normal -1.0 -5.261759917877471e-09 -1.1473834505174748e-08
  outer loop
    vertex 15.499999256980068 64.99999922826987 2.4999998038082896
    vertex 15.49999896472569 116.18186826399446 4.49999996323815
    vertex 15.499998987673337 116.18186826416456 2.4999999632381513
  endloop
endfacet
facet normal -0.8320502945750765 -7.816415294777548e-09 -0.5547001958693797
  outer loop
    vertex -1.500000533150666 64.99999933879297 2.4999998737396343
    vertex -0.5000002981007194 36.100000001993244 0.9999999270635525
    vertex -1.5000002994996782 36.09999999670423 2.4999999276053906
  endloop
endfacet
facet normal -0.8320502945750765 -7.816415294777548e-09 -0.5547001958693797
  outer loop
    vertex -0.5000002981007194 36.100000001993244 0.9999999270635525
    vertex -1.500000533150666 64.99999933879297 2.4999998737396343
    vertex -0.5000005251224828 63.99999933309365 0.9999998714520968
  endloop
endfacet
facet normal 0.8320502999009747 1.0026951337791163e-08 -0.5547001878805328
  outer loop
    vertex 82.99999898222868 0.7999996090186469 1.000000620514683
    vertex 83.99999898313789 2.2060809008461745e-07 2.5000006274419624
    vertex 83.66666523244636 1.0855294981200676e-07 1.9999999999999998
  endloop
endfacet
facet normal 0.8320502999009747 1.0026951337791163e-08 -0.5547001878805328
  outer loop
    vertex 83.99999898313789 2.2060809008461745e-07 2.5000006274419624
    vertex 82.99999898222868 0.7999996090186469 1.000000620514683
    vertex 83.99999814270448 112.99999988286996 2.5000014366318157
  endloop
endfacet
facet normal 0.8320502999009747 1.0026951337791163e-08 -0.5547001878805328
  outer loop
    vertex 83.99999814270448 112.99999988286996 2.5000014366318157
    vertex 82.99999898222868 0.7999996090186469 1.000000620514683
    vertex 82.99999815014196 111.99999987619576 1.000001367700112
  endloop
endfacet
facet normal 2.8506789436388794e-08 0.8320502987442486 -0.5547001896156208
  outer loop
    vertex 62.35586643038785 112.99999972105248 2.500000099657966
    vertex 82.99999815014196 111.99999987619576 1.000001367700112
    vertex 61.85822918615794 111.9999997181341 1.0000000256007726
  endloop
endfacet
facet normal 2.8506789436388794e-08 0.8320502987442486 -0.5547001896156208
  outer loop
    vertex 82.99999815014196 111.99999987619576 1.000001367700112
    vertex 62.35586643038785 112.99999972105248 2.500000099657966
    vertex 83.99999814270448 112.99999988286996 2.5000014366318157
  endloop
endfacet
facet normal 0.6637464020692008 0.5017453662970159 -0.5547001903187562
  outer loop
    vertex 53.54300690640561 122.9999994174328 1.0000000908676836
    vertex 62.35586643038785 112.99999972105248 2.500000099657966
    vertex 61.85822918615794 111.9999997181341 1.0000000256007726
  endloop
endfacet
facet normal 0.6637464020692008 0.5017453662970159 -0.5547001903187562
  outer loop
    vertex 62.35586643038785 112.99999972105248 2.500000099657966
    vertex 53.54300690640561 122.9999994174328 1.0000000908676836
    vertex 54.04064414722345 123.99999942486511 2.500000062516061
  endloop
endfacet
facet normal -2.315441598457666e-08 0.8320503022556612 -0.5547001843485022
  outer loop
    vertex 32.93813186162791 122.99999907648784 1.0000003733070821
    vertex 54.04064414722345 123.99999942486511 2.500000062516061
    vertex 53.54300690640561 122.9999994174328 1.0000000908676836
  endloop
endfacet
facet normal -2.315441598457666e-08 0.8320503022556612 -0.5547001843485022
  outer loop
    vertex 54.04064414722345 123.99999942486511 2.500000062516061
    vertex 32.93813186162791 122.99999907648784 1.0000003733070821
    vertex 32.71583402916915 123.99999907200748 2.5000004873746478
  endloop
endfacet
facet normal -0.832050292090996 -2.4658705240210144e-09 -0.5547001995955005
  outer loop
    vertex 15.499999256980068 64.99999922826987 2.4999998038082896
    vertex 16.49999899102112 115.54560584361268 0.9999999911550238
    vertex 16.49999926224176 63.999999222570565 0.9999997965797137
  endloop
endfacet
facet normal -0.832050292090996 -2.4658705240210144e-09 -0.5547001995955005
  outer loop
    vertex 16.49999899102112 115.54560584361268 0.9999999911550238
    vertex 15.499999256980068 64.99999922826987 2.4999998038082896
    vertex 15.499998987673337 116.18186826416456 2.4999999632381513
  endloop
endfacet
facet normal 3.047026154526926e-09 0.832050294628367 -0.5547001957894443
  outer loop
    vertex -0.5000005251224828 63.99999933309365 0.9999998714520968
    vertex 15.499999256980068 64.99999922826987 2.4999998038082896
    vertex 16.49999926224176 63.999999222570565 0.9999997965797137
  endloop
endfacet
facet normal 3.047026154526926e-09 0.832050294628367 -0.5547001957894443
  outer loop
    vertex 15.499999256980068 64.99999922826987 2.4999998038082896
    vertex -0.5000005251224828 63.99999933309365 0.9999998714520968
    vertex -1.500000533150666 64.99999933879297 2.4999998737396343
  endloop
endfacet
facet normal 1.0 7.450670169638002e-09 7.733253607387547e-09
  outer loop
    vertex 82.99999898041627 1.5999999999999872 3.1452315374394003e-07
    vertex 82.99999815014196 111.99999987619576 1.000001367700112
    vertex 82.99999898222868 0.7999996090186469 1.000000620514683
  endloop
endfacet
facet normal 1.0 7.450670169638002e-09 7.733253607387547e-09
  outer loop
    vertex 82.99999815014196 111.99999987619576 1.000001367700112
    vertex 82.99999898041627 1.5999999999999872 3.1452315374394003e-07
    vertex 82.99999816146034 111.99999987597371 1.3677001097112118e-06
  endloop
endfacet
facet normal -1.0 -8.08258530118557e-09 -9.800713444983338e-09
  outer loop
    vertex -0.5000002981007194 36.100000001993244 0.9999999270635525
    vertex -0.50000051380413 63.99999933287157 -1.285478788304317e-07
    vertex -0.5000002898176454 36.1 -7.214981532034079e-08
  endloop
endfacet
facet normal -1.0 -8.08258530118557e-09 -9.800713444983338e-09
  outer loop
    vertex -0.50000051380413 63.99999933287157 -1.285478788304317e-07
    vertex -0.5000002981007194 36.100000001993244 0.9999999270635525
    vertex -0.5000005251224828 63.99999933309365 0.9999998714520968
  endloop
endfacet
facet normal 6.501360482008543e-09 1.0 -2.2212304631242582e-10
  outer loop
    vertex -0.50000051380413 63.99999933287157 -1.285478788304317e-07
    vertex 16.49999926224176 63.999999222570565 0.9999997965797137
    vertex 16.49999927356018 63.9999992223484 -2.0342028721476167e-07
  endloop
endfacet
facet normal 6.501360482008543e-09 1.0 -2.2212304631242582e-10
  outer loop
    vertex 16.49999926224176 63.999999222570565 0.9999997965797137
    vertex -0.50000051380413 63.99999933287157 -1.285478788304317e-07
    vertex -0.5000005251224828 63.99999933309365 0.9999998714520968
  endloop
endfacet
facet normal -1.0 -5.261759803662724e-09 -1.1318459990302479e-08
  outer loop
    vertex 16.49999926224176 63.999999222570565 0.9999997965797137
    vertex 16.49999900233962 115.5456058433905 -8.84502509013174e-09
    vertex 16.49999927356018 63.9999992223484 -2.0342028721476167e-07
  endloop
endfacet
facet normal -1.0 -5.261759803662724e-09 -1.1318459990302479e-08
  outer loop
    vertex 16.49999900233962 115.5456058433905 -8.84502509013174e-09
    vertex 16.49999926224176 63.999999222570565 0.9999997965797137
    vertex 16.49999899102112 115.54560584361268 0.9999999911550238
  endloop
endfacet
facet normal -1.654680693436846e-08 1.0 -2.2210074744877305e-10
  outer loop
    vertex 32.93813187294632 122.99999907626581 3.7330708400062914e-07
    vertex 53.54300690640561 122.9999994174328 1.0000000908676836
    vertex 53.543006917723986 122.99999941721063 9.08676502486827e-08
  endloop
endfacet
facet normal -1.654680693436846e-08 1.0 -2.2210074744877305e-10
  outer loop
    vertex 53.54300690640561 122.9999994174328 1.0000000908676836
    vertex 32.93813187294632 122.99999907626581 3.7330708400062914e-07
    vertex 32.93813186162791 122.99999907648784 1.0000003733070821
  endloop
endfacet
facet normal 0.7977238921565276 0.6030228784073127 8.894938616386246e-09
  outer loop
    vertex 53.543006917723986 122.99999941721063 9.08676502486827e-08
    vertex 61.85822918615794 111.9999997181341 1.0000000256007726
    vertex 61.85822919747631 111.99999971791185 2.560076961533042e-08
  endloop
endfacet
facet normal 0.7977238921565276 0.6030228784073127 8.894938616386246e-09
  outer loop
    vertex 61.85822918615794 111.9999997181341 1.0000000256007726
    vertex 53.543006917723986 122.99999941721063 9.08676502486827e-08
    vertex 53.54300690640561 122.9999994174328 1.0000000908676836
  endloop
endfacet
facet normal -7.476278867986927e-09 1.0 -2.221457642485774e-10
  outer loop
    vertex 61.85822918615794 111.9999997181341 1.0000000256007726
    vertex 82.99999816146034 111.99999987597371 1.3677001097112118e-06
    vertex 61.85822919747631 111.99999971791185 2.560076961533042e-08
  endloop
endfacet
facet normal -7.476278867986927e-09 1.0 -2.221457642485774e-10
  outer loop
    vertex 82.99999816146034 111.99999987597371 1.3677001097112118e-06
    vertex 61.85822918615794 111.9999997181341 1.0000000256007726
    vertex 82.99999815014196 111.99999987619576 1.000001367700112
  endloop
endfacet
facet normal -0.7071067942954089 -8.862686306541969e-09 0.7071067680776859
  outer loop
    vertex 81.49999813835052 110.4999998640092 4.500001264302557
    vertex 78.49999891928421 5.500000207559548 1.5000006205279306
    vertex 81.4999989415966 2.5000002138549777 4.50000062666779
  endloop
endfacet
facet normal -0.7071067942954089 -8.862686306541969e-09 0.7071067680776859
  outer loop
    vertex 78.49999891928421 5.500000207559548 1.5000006205279306
    vertex 81.49999813835052 110.4999998640092 4.500001264302557
    vertex 78.49999816066293 107.49999984318444 1.5000010479776698
  endloop
endfacet
facet normal -4.4848722609193895e-08 -0.7071067935400371 0.7071067688330562
  outer loop
    vertex 78.49999816066293 107.49999984318444 1.5000010479776698
    vertex 61.11177329686541 110.49999971158125 4.499999914514989
    vertex 59.61886156417557 107.49999970202383 1.4999996058460732
  endloop
endfacet
facet normal -4.4848722609193895e-08 -0.7071067935400371 0.7071067688330562
  outer loop
    vertex 61.11177329686541 110.49999971158125 4.499999914514989
    vertex 78.49999816066293 107.49999984318444 1.5000010479776698
    vertex 81.49999813835052 110.4999998640092 4.500001264302557
  endloop
endfacet
facet normal -0.5640759760565762 -0.426401590843756 0.7071067646131913
  outer loop
    vertex 59.61886156417557 107.49999970202383 1.4999996058460732
    vertex 52.79655102223129 121.49999940410919 4.500000133395041
    vertex 51.30363929977787 118.49999938101047 1.500000086954114
  endloop
endfacet
facet normal -0.5640759760565762 -0.426401590843756 0.7071067646131913
  outer loop
    vertex 52.79655102223129 121.49999940410919 4.500000133395041
    vertex 59.61886156417557 107.49999970202383 1.4999996058460732
    vertex 61.11177329686541 110.49999971158125 4.499999914514989
  endloop
endfacet
facet normal 1.3394534593616357e-08 -0.7071067900280315 0.7071067723450634
  outer loop
    vertex 52.79655102223129 121.49999940410919 4.500000133395041
    vertex 33.938472084744575 118.49999909367216 1.5000001037890558
    vertex 51.30363929977787 118.49999938101047 1.500000086954114
  endloop
endfacet
facet normal 1.3394534593616357e-08 -0.7071067900280315 0.7071067723450634
  outer loop
    vertex 33.938472084744575 118.49999909367216 1.5000001037890558
    vertex 52.79655102223129 121.49999940410919 4.500000133395041
    vertex 33.271578587368424 121.49999908103311 4.500000202205722
  endloop
endfacet
facet normal 0.707106780292936 7.728698917779178e-11 0.707106782080159
  outer loop
    vertex 17.999999247186835 62.49999921184626 4.499999785736863
    vertex 20.99999898313894 112.68242494815189 1.500000051665833
    vertex 17.999998973095387 114.59121221060965 4.500000033030284
  endloop
endfacet
facet normal 0.707106780292936 7.728698917779178e-11 0.707106782080159
  outer loop
    vertex 20.99999898313894 112.68242494815189 1.500000051665833
    vertex 17.999999247186835 62.49999921184626 4.499999785736863
    vertex 20.999999262972043 59.49999919394634 1.499999756974175
  endloop
endfacet
facet normal -7.343450296785711e-10 -0.7071067815865496 0.7071067807865455
  outer loop
    vertex 17.999999247186835 62.49999921184626 4.499999785736863
    vertex 3.9999994880566336 59.49999930446942 1.4999998604266025
    vertex 20.999999262972043 59.49999919394634 1.499999756974175
  endloop
endfacet
facet normal -7.343450296785711e-10 -0.7071067815865496 0.7071067807865455
  outer loop
    vertex 3.9999994880566336 59.49999930446942 1.4999998604266025
    vertex 17.999999247186835 62.49999921184626 4.499999785736863
    vertex 0.9999994639721627 62.49999932236936 4.499999868020919
  endloop
endfacet
facet normal 0.7071067807071217 7.527214954621038e-09 0.7071067816659734
  outer loop
    vertex 0.9999999456635191 2.5000000031997143 4.500000006548754
    vertex 3.9999994880566336 59.49999930446942 1.4999998604266025
    vertex 0.9999994639721627 62.49999932236936 4.499999868020919
  endloop
endfacet
facet normal 0.7071067807071217 7.527214954621038e-09 0.7071067816659734
  outer loop
    vertex 3.9999994880566336 59.49999930446942 1.4999998604266025
    vertex 0.9999999456635191 2.5000000031997143 4.500000006548754
    vertex 3.9999999215789357 5.500000012703423 1.500000022279312
  endloop
endfacet
facet normal -0.41348519288086943 0.910510843026194 -4.666827176051665e-09
  outer loop
    vertex 15.49999896472569 116.18186826399446 4.49999996323815
    vertex 32.71583402916915 123.99999907200748 2.5000004873746478
    vertex 15.499998987673337 116.18186826416456 2.4999999632381513
  endloop
endfacet
facet normal -0.41348519288086943 0.910510843026194 -4.666827176051665e-09
  outer loop
    vertex 32.71583402916915 123.99999907200748 2.5000004873746478
    vertex 15.49999896472569 116.18186826399446 4.49999996323815
    vertex 32.715834006221506 123.99999907183742 4.500000487374624
  endloop
endfacet
facet normal -0.4129999149579287 0.9107310636212778 -4.876795551901724e-09
  outer loop
    vertex 16.49999899102112 115.54560584361268 0.9999999911550238
    vertex 32.93813187294632 122.99999907626581 3.7330708400062914e-07
    vertex 16.49999900233962 115.5456058433905 -8.84502509013174e-09
  endloop
endfacet
facet normal -0.4129999149579287 0.9107310636212778 -4.876795551901724e-09
  outer loop
    vertex 32.93813187294632 122.99999907626581 3.7330708400062914e-07
    vertex 16.49999899102112 115.54560584361268 0.9999999911550238
    vertex 32.93813186162791 122.99999907648784 1.0000003733070821
  endloop
endfacet
facet normal -1.0221458968997585e-08 1.864758145601307e-09 1.0
  outer loop
    vertex 3.9999999215789357 5.500000012703423 1.500000022279312
    vertex 20.999999262972043 59.49999919394634 1.499999756974175
    vertex 3.9999994880566336 59.49999930446942 1.4999998604266025
  endloop
endfacet
facet normal -1.0221458968997585e-08 1.864758145601307e-09 1.0
  outer loop
    vertex 20.999999262972043 59.49999919394634 1.499999756974175
    vertex 3.9999999215789357 5.500000012703423 1.500000022279312
    vertex 41.49999944312986 5.500000110131471 1.5000003061990224
  endloop
endfacet
facet normal -1.0221458968997585e-08 1.864758145601307e-09 1.0
  outer loop
    vertex 20.999999262972043 59.49999919394634 1.499999756974175
    vertex 41.49999944312986 5.500000110131471 1.5000003061990224
    vertex 33.938472084744575 118.49999909367216 1.5000001037890558
  endloop
endfacet
facet normal -1.0221458968997585e-08 1.864758145601307e-09 1.0
  outer loop
    vertex 33.938472084744575 118.49999909367216 1.5000001037890558
    vertex 41.49999944312986 5.500000110131471 1.5000003061990224
    vertex 51.30363929977787 118.49999938101047 1.500000086954114
  endloop
endfacet
facet normal -1.0221458968997585e-08 1.864758145601307e-09 1.0
  outer loop
    vertex 51.30363929977787 118.49999938101047 1.500000086954114
    vertex 41.49999944312986 5.500000110131471 1.5000003061990224
    vertex 78.49999891928421 5.500000207559548 1.5000006205279306
  endloop
endfacet
facet normal -1.0221458968997585e-08 1.864758145601307e-09 1.0
  outer loop
    vertex 51.30363929977787 118.49999938101047 1.500000086954114
    vertex 78.49999891928421 5.500000207559548 1.5000006205279306
    vertex 59.61886156417557 107.49999970202383 1.4999996058460732
  endloop
endfacet
facet normal -1.0221458968997585e-08 1.864758145601307e-09 1.0
  outer loop
    vertex 59.61886156417557 107.49999970202383 1.4999996058460732
    vertex 78.49999891928421 5.500000207559548 1.5000006205279306
    vertex 78.49999816066293 107.49999984318444 1.5000010479776698
  endloop
endfacet
facet normal -1.0221458968997585e-08 1.864758145601307e-09 1.0
  outer loop
    vertex 33.938472084744575 118.49999909367216 1.5000001037890558
    vertex 20.99999898313894 112.68242494815189 1.500000051665833
    vertex 20.999999262972043 59.49999919394634 1.499999756974175
  endloop
endfacet
facet normal -7.403104275001746e-09 0.70710678071671 0.7071067816563852
  outer loop
    vertex 41.499999451029474 2.500000108527329 4.500000308642029
    vertex 3.9999999215789357 5.500000012703423 1.500000022279312
    vertex 0.9999999456635191 2.5000000031997143 4.500000006548754
  endloop
endfacet
facet normal -7.403104275001746e-09 0.70710678071671 0.7071067816563852
  outer loop
    vertex 3.9999999215789357 5.500000012703423 1.500000022279312
    vertex 41.499999451029474 2.500000108527329 4.500000308642029
    vertex 41.49999944312986 5.500000110131471 1.5000003061990224
  endloop
endfacet
facet normal -7.403104275001746e-09 0.70710678071671 0.7071067816563852
  outer loop
    vertex 41.49999944312986 5.500000110131471 1.5000003061990224
    vertex 41.499999451029474 2.500000108527329 4.500000308642029
    vertex 78.49999891928421 5.500000207559548 1.5000006205279306
  endloop
endfacet
facet normal -7.403104275001746e-09 0.70710678071671 0.7071067816563852
  outer loop
    vertex 78.49999891928421 5.500000207559548 1.5000006205279306
    vertex 41.499999451029474 2.500000108527329 4.500000308642029
    vertex 81.4999989415966 2.5000002138549777 4.50000062666779
  endloop
endfacet
facet normal -0.3441057619849494 0.758246342489359 -0.5537632243750639
  outer loop
    vertex 15.499998987673337 116.18186826416456 2.4999999632381513
    vertex 32.93813186162791 122.99999907648784 1.0000003733070821
    vertex 16.49999899102112 115.54560584361268 0.9999999911550238
  endloop
endfacet
facet normal -0.3441057619849494 0.758246342489359 -0.5537632243750639
  outer loop
    vertex 32.93813186162791 122.99999907648784 1.0000003733070821
    vertex 15.499998987673337 116.18186826416456 2.4999999632381513
    vertex 32.71583402916915 123.99999907200748 2.5000004873746478
  endloop
endfacet
facet normal 0.29125525607731184 -0.6454521079795423 0.7060891955780833
  outer loop
    vertex 20.99999898313894 112.68242494815189 1.500000051665833
    vertex 33.271578587368424 121.49999908103311 4.500000202205722
    vertex 17.999998973095387 114.59121221060965 4.500000033030284
  endloop
endfacet
facet normal 0.29125525607731184 -0.6454521079795423 0.7060891955780833
  outer loop
    vertex 33.271578587368424 121.49999908103311 4.500000202205722
    vertex 20.99999898313894 112.68242494815189 1.500000051665833
    vertex 33.938472084744575 118.49999909367216 1.5000001037890558
  endloop
endfacet
facet normal -1.0 -7.858620185931803e-09 -9.393529629375844e-09
  outer loop
    vertex -0.50000017554688 21.100000000000005 0.9999999569621852
    vertex -0.5000000128451024 1.5999999999999999 -2.410272753194993e-09
    vertex -0.5000000191931867 0.8000000185608267 0.9999999974250017
  endloop
endfacet
facet normal -1.0 -7.858620185931803e-09 -9.393529629375844e-09
  outer loop
    vertex -0.5000000128451024 1.5999999999999999 -2.410272753194993e-09
    vertex -0.50000017554688 21.100000000000005 0.9999999569621852
    vertex -0.5000001693948011 21.100000000000005 -4.1828275073755666e-08
  endloop
endfacet
facet normal -0.8320502934775845 -7.557436309864567e-09 -0.5547001975156177
  outer loop
    vertex -1.500000178631873 21.099999994710995 2.4999999552938386
    vertex -1.1666666813462176 -2.479927881883213e-09 1.9999999999999998
    vertex -1.500000011318395 -3.2131262095447255e-09 2.499999992437432
  endloop
endfacet
facet normal -0.8320502934775845 -7.557436309864567e-09 -0.5547001975156177
  outer loop
    vertex -1.1666666813462176 -2.479927881883213e-09 1.9999999999999998
    vertex -1.500000178631873 21.099999994710995 2.4999999552938386
    vertex -0.5000000191931867 0.8000000185608267 0.9999999974250017
  endloop
endfacet
facet normal -0.8320502934775845 -7.557436309864567e-09 -0.5547001975156177
  outer loop
    vertex -0.5000000191931867 0.8000000185608267 0.9999999974250017
    vertex -1.500000178631873 21.099999994710995 2.4999999552938386
    vertex -0.50000017554688 21.100000000000005 0.9999999569621852
  endloop
endfacet
facet normal -2.3320789310799516e-10 -1.0 -1.5048758314191103e-09
  outer loop
    vertex 3.4999997101823546 36.1 -7.214981532034079e-08
    vertex -0.5000002981007194 36.100000001993244 0.9999999270635525
    vertex -0.5000002898176454 36.1 -7.214981532034079e-08
  endloop
endfacet
facet normal -2.3320789310799516e-10 -1.0 -1.5048758314191103e-09
  outer loop
    vertex -0.5000002981007194 36.100000001993244 0.9999999270635525
    vertex 3.4999997101823546 36.1 -7.214981532034079e-08
    vertex -1.5000002994996782 36.09999999670423 2.4999999276053906
  endloop
endfacet
facet normal 1.489861377645838e-10 1.0 2.234792063987115e-09
  outer loop
    vertex -0.50000017554688 21.100000000000005 0.9999999569621852
    vertex 3.4999998306051983 21.100000000000005 -4.1828275073755666e-08
    vertex -0.5000001693948011 21.100000000000005 -4.1828275073755666e-08
  endloop
endfacet
facet normal 1.489861377645838e-10 1.0 2.234792063987115e-09
  outer loop
    vertex 3.4999998306051983 21.100000000000005 -4.1828275073755666e-08
    vertex -0.50000017554688 21.100000000000005 0.9999999569621852
    vertex -1.500000178631873 21.099999994710995 2.4999999552938386
  endloop
endfacet
facet normal -0.4472135945996467 -5.326472318311879e-09 -0.8944271914500714
  outer loop
    vertex 3.4999997101823546 36.1 -7.214981532034079e-08
    vertex -1.500000178631873 21.099999994710995 2.4999999552938386
    vertex -1.5000002994996782 36.09999999670423 2.4999999276053906
  endloop
endfacet
facet normal -0.4472135945996467 -5.326472318311879e-09 -0.8944271914500714
  outer loop
    vertex -1.500000178631873 21.099999994710995 2.4999999552938386
    vertex 3.4999997101823546 36.1 -7.214981532034079e-08
    vertex 3.4999998306051983 21.100000000000005 -4.1828275073755666e-08
  endloop
endfacet
facet normal 9.197841617993769e-09 -1.2731522685870517e-10 -1.0
  outer loop
    vertex 16.49999927356018 63.9999992223484 -2.0342028721476167e-07
    vertex -0.5000002898176454 36.1 -7.214981532034079e-08
    vertex -0.50000051380413 63.99999933287157 -1.285478788304317e-07
  endloop
endfacet
facet normal 9.197841617993769e-09 -1.2731522685870517e-10 -1.0
  outer loop
    vertex -0.5000002898176454 36.1 -7.214981532034079e-08
    vertex 16.49999927356018 63.9999992223484 -2.0342028721476167e-07
    vertex 3.4999997101823546 36.1 -7.214981532034079e-08
  endloop
endfacet
facet normal 9.197841617993769e-09 -1.2731522685870517e-10 -1.0
  outer loop
    vertex 3.4999997101823546 36.1 -7.214981532034079e-08
    vertex 16.49999927356018 63.9999992223484 -2.0342028721476167e-07
    vertex 3.4999998306051983 21.100000000000005 -4.1828275073755666e-08
  endloop
endfacet
facet normal 9.197841617993769e-09 -1.2731522685870517e-10 -1.0
  outer loop
    vertex 32.93813187294632 122.99999907626581 3.7330708400062914e-07
    vertex 16.49999927356018 63.9999992223484 -2.0342028721476167e-07
    vertex 16.49999900233962 115.5456058433905 -8.84502509013174e-09
  endloop
endfacet
facet normal 9.197841617993769e-09 -1.2731522685870517e-10 -1.0
  outer loop
    vertex 3.4999998306051983 21.100000000000005 -4.1828275073755666e-08
    vertex -0.5000000128451024 1.5999999999999999 -2.410272753194993e-09
    vertex -0.5000001693948011 21.100000000000005 -4.1828275073755666e-08
  endloop
endfacet
facet normal 9.197841617993769e-09 -1.2731522685870517e-10 -1.0
  outer loop
    vertex -0.5000000128451024 1.5999999999999999 -2.410272753194993e-09
    vertex 3.4999998306051983 21.100000000000005 -4.1828275073755666e-08
    vertex 39.51316472593392 1.5999999999999999 2.6780018144919907e-07
  endloop
endfacet
facet normal 9.197841617993769e-09 -1.2731522685870517e-10 -1.0
  outer loop
    vertex 39.51316472593392 1.5999999999999999 2.6780018144919907e-07
    vertex 3.4999998306051983 21.100000000000005 -4.1828275073755666e-08
    vertex 16.49999927356018 63.9999992223484 -2.0342028721476167e-07
  endloop
endfacet
facet normal 9.197841617993769e-09 -1.2731522685870517e-10 -1.0
  outer loop
    vertex 39.51316472593392 1.5999999999999999 2.6780018144919907e-07
    vertex 16.49999927356018 63.9999992223484 -2.0342028721476167e-07
    vertex 32.93813187294632 122.99999907626581 3.7330708400062914e-07
  endloop
endfacet
facet normal 9.197841617993769e-09 -1.2731522685870517e-10 -1.0
  outer loop
    vertex 39.51316472593392 1.5999999999999999 2.6780018144919907e-07
    vertex 32.93813187294632 122.99999907626581 3.7330708400062914e-07
    vertex 53.543006917723986 122.99999941721063 9.08676502486827e-08
  endloop
endfacet
facet normal 9.197841617993769e-09 -1.2731522685870517e-10 -1.0
  outer loop
    vertex 39.51316472593392 1.5999999999999999 2.6780018144919907e-07
    vertex 53.543006917723986 122.99999941721063 9.08676502486827e-08
    vertex 39.56814783798368 2.0176381994823642 3.0959412051778655e-07
  endloop
endfacet
facet normal 9.197841617993769e-09 -1.2731522685870517e-10 -1.0
  outer loop
    vertex 39.56814783798368 2.0176381994823642 3.0959412051778655e-07
    vertex 53.543006917723986 122.99999941721063 9.08676502486827e-08
    vertex 39.76794868299294 2.500000109277322 3.0959412051778655e-07
  endloop
endfacet
facet normal 9.197841617993769e-09 -1.2731522685870517e-10 -1.0
  outer loop
    vertex 39.76794868299294 2.500000109277322 3.0959412051778655e-07
    vertex 53.543006917723986 122.99999941721063 9.08676502486827e-08
    vertex 40.08578592818873 2.9142136716504172 3.0959412051778655e-07
  endloop
endfacet
facet normal 9.197841617993769e-09 -1.2731522685870517e-10 -1.0
  outer loop
    vertex 40.08578592818873 2.9142136716504172 3.0959412051778655e-07
    vertex 53.543006917723986 122.99999941721063 9.08676502486827e-08
    vertex 40.49999949056182 3.232050916846199 3.0959412051778655e-07
  endloop
endfacet
facet normal 9.197841617993769e-09 -1.2731522685870517e-10 -1.0
  outer loop
    vertex 40.49999949056182 3.232050916846199 3.0959412051778655e-07
    vertex 53.543006917723986 122.99999941721063 9.08676502486827e-08
    vertex 40.98236140035678 3.431851761855458 3.0959412051778655e-07
  endloop
endfacet
facet normal 9.197841617993769e-09 -1.2731522685870517e-10 -1.0
  outer loop
    vertex 40.98236140035678 3.431851761855458 3.0959412051778655e-07
    vertex 53.543006917723986 122.99999941721063 9.08676502486827e-08
    vertex 41.49999949056182 3.5000001092773214 3.0959412051778655e-07
  endloop
endfacet
facet normal 9.197841617993769e-09 -1.2731522685870517e-10 -1.0
  outer loop
    vertex 41.49999949056182 3.5000001092773214 3.0959412051778655e-07
    vertex 53.543006917723986 122.99999941721063 9.08676502486827e-08
    vertex 42.017637580766866 3.431851761855458 3.0959412051778655e-07
  endloop
endfacet
facet normal 9.197841617993769e-09 -1.2731522685870517e-10 -1.0
  outer loop
    vertex 42.017637580766866 3.431851761855458 3.0959412051778655e-07
    vertex 53.543006917723986 122.99999941721063 9.08676502486827e-08
    vertex 42.49999949056181 3.232050916846198 3.0959412051778655e-07
  endloop
endfacet
facet normal 9.197841617993769e-09 -1.2731522685870517e-10 -1.0
  outer loop
    vertex 42.49999949056181 3.232050916846198 3.0959412051778655e-07
    vertex 53.543006917723986 122.99999941721063 9.08676502486827e-08
    vertex 42.91421305293491 2.9142136716504163 3.0959412051778655e-07
  endloop
endfacet
facet normal 9.197841617993769e-09 -1.2731522685870517e-10 -1.0
  outer loop
    vertex 42.91421305293491 2.9142136716504163 3.0959412051778655e-07
    vertex 53.543006917723986 122.99999941721063 9.08676502486827e-08
    vertex 43.232050298130694 2.50000010927732 3.0959412051778655e-07
  endloop
endfacet
facet normal 9.197841617993769e-09 -1.2731522685870517e-10 -1.0
  outer loop
    vertex 43.232050298130694 2.50000010927732 3.0959412051778655e-07
    vertex 53.543006917723986 122.99999941721063 9.08676502486827e-08
    vertex 43.43185114313996 2.017638199482363 3.0959412051778655e-07
  endloop
endfacet
facet normal 9.197841617993769e-09 -1.2731522685870517e-10 -1.0
  outer loop
    vertex 43.43185114313996 2.017638199482363 3.0959412051778655e-07
    vertex 53.543006917723986 122.99999941721063 9.08676502486827e-08
    vertex 43.486834255189706 1.5999999999999999 2.7251306010956396e-07
  endloop
endfacet
facet normal 9.197841617993769e-09 -1.2731522685870517e-10 -1.0
  outer loop
    vertex 43.486834255189706 1.5999999999999999 2.7251306010956396e-07
    vertex 53.543006917723986 122.99999941721063 9.08676502486827e-08
    vertex 82.99999898041627 1.5999999999999872 3.1452315374394003e-07
  endloop
endfacet
facet normal 9.197841617993769e-09 -1.2731522685870517e-10 -1.0
  outer loop
    vertex 82.99999898041627 1.5999999999999872 3.1452315374394003e-07
    vertex 53.543006917723986 122.99999941721063 9.08676502486827e-08
    vertex 61.85822919747631 111.99999971791185 2.560076961533042e-08
  endloop
endfacet
facet normal 9.197841617993769e-09 -1.2731522685870517e-10 -1.0
  outer loop
    vertex 82.99999898041627 1.5999999999999872 3.1452315374394003e-07
    vertex 61.85822919747631 111.99999971791185 2.560076961533042e-08
    vertex 82.99999816146034 111.99999987597371 1.3677001097112118e-06
  endloop
endfacet
facet normal -1.139781612367047e-08 -7.331248933625631e-11 1.0
  outer loop
    vertex 0.9999999456635191 2.5000000031997143 4.500000006548754
    vertex 41.24118040610637 2.4659259334533723 4.500000307839504
    vertex 41.499999451029474 2.500000108527329 4.500000308642029
  endloop
endfacet
facet normal -1.139781612367047e-08 -7.331248933625631e-11 1.0
  outer loop
    vertex 41.24118040610637 2.4659259334533723 4.500000307839504
    vertex 0.9999999456635191 2.5000000031997143 4.500000006548754
    vertex 40.99999945173494 2.36602550967857 4.500000307156505
  endloop
endfacet
facet normal -1.139781612367047e-08 -7.331248933625631e-11 1.0
  outer loop
    vertex 40.99999945173494 2.36602550967857 4.500000307156505
    vertex 0.9999999456635191 2.5000000031997143 4.500000006548754
    vertex 40.79289267138534 2.207106885989979 4.500000306639692
  endloop
endfacet
facet normal -1.139781612367047e-08 -7.331248933625631e-11 1.0
  outer loop
    vertex 40.79289267138534 2.207106885989979 4.500000306639692
    vertex 0.9999999456635191 2.5000000031997143 4.500000006548754
    vertex 40.63397404987807 2.000000103966504 4.5000003063242255
  endloop
endfacet
facet normal -1.139781612367047e-08 -7.331248933625631e-11 1.0
  outer loop
    vertex 40.63397404987807 2.000000103966504 4.5000003063242255
    vertex 0.9999999456635191 2.5000000031997143 4.500000006548754
    vertex 40.53407362864369 1.7588191485428526 4.50000030623157
  endloop
endfacet
facet normal -1.139781612367047e-08 -7.331248933625631e-11 1.0
  outer loop
    vertex 40.53407362864369 1.7588191485428526 4.50000030623157
    vertex 0.9999999456635191 2.5000000031997143 4.500000006548754
    vertex 40.499999456295704 1.50000010326087 4.5000003063680705
  endloop
endfacet
facet normal -1.139781612367047e-08 -7.331248933625631e-11 1.0
  outer loop
    vertex -1.5000000342660529 -3.383260427369805e-09 4.499999992437433
    vertex 0.9999999456635191 2.5000000031997143 4.500000006548754
    vertex 0.9999994639721627 62.49999932236936 4.499999868020919
  endloop
endfacet
facet normal -1.139781612367047e-08 -7.331248933625631e-11 1.0
  outer loop
    vertex 0.9999999456635191 2.5000000031997143 4.500000006548754
    vertex -1.5000000342660529 -3.383260427369805e-09 4.499999992437433
    vertex 41.499999461562254 0.5000001085273003 4.500000310546238
  endloop
endfacet
facet normal -1.139781612367047e-08 -7.331248933625631e-11 1.0
  outer loop
    vertex 41.499999461562254 0.5000001085273003 4.500000310546238
    vertex -1.5000000342660529 -3.383260427369805e-09 4.499999992437433
    vertex 83.99999896019027 2.2043795586679237e-07 4.5000006274419615
  endloop
endfacet
facet normal -1.139781612367047e-08 -7.331248933625631e-11 1.0
  outer loop
    vertex 0.9999999456635191 2.5000000031997143 4.500000006548754
    vertex 41.499999461562254 0.5000001085273003 4.500000310546238
    vertex 41.241180416280216 0.5340742808751758 4.500000309678877
  endloop
endfacet
facet normal -1.139781612367047e-08 -7.331248933625631e-11 1.0
  outer loop
    vertex 0.9999999456635191 2.5000000031997143 4.500000006548754
    vertex 41.241180416280216 0.5340742808751758 4.500000309678877
    vertex 40.9999994608566 0.6339747021096732 4.5000003088056975
  endloop
endfacet
facet normal -1.139781612367047e-08 -7.331248933625631e-11 1.0
  outer loop
    vertex 0.9999999456635191 2.5000000031997143 4.500000006548754
    vertex 40.9999994608566 0.6339747021096732 4.5000003088056975
    vertex 40.79289267883318 0.7928933236168537 4.5000003079862205
  endloop
endfacet
facet normal -1.139781612367047e-08 -7.331248933625631e-11 1.0
  outer loop
    vertex 0.9999999456635191 2.5000000031997143 4.500000006548754
    vertex 40.79289267883318 0.7928933236168537 4.5000003079862205
    vertex 40.633974055144485 1.000000103966545 4.500000307276325
  endloop
endfacet
facet normal -1.139781612367047e-08 -7.331248933625631e-11 1.0
  outer loop
    vertex 0.9999999456635191 2.5000000031997143 4.500000006548754
    vertex 40.633974055144485 1.000000103966545 4.500000307276325
    vertex 40.53407363136974 1.2411810583378748 4.50000030672443
  endloop
endfacet
facet normal -1.139781612367047e-08 -7.331248933625631e-11 1.0
  outer loop
    vertex 0.9999999456635191 2.5000000031997143 4.500000006548754
    vertex 40.53407363136974 1.2411810583378748 4.50000030672443
    vertex 40.499999456295704 1.50000010326087 4.5000003063680705
  endloop
endfacet
facet normal -1.139781612367047e-08 -7.331248933625631e-11 1.0
  outer loop
    vertex 41.499999461562254 0.5000001085273003 4.500000310546238
    vertex 83.99999896019027 2.2043795586679237e-07 4.5000006274419615
    vertex 41.7588185064853 0.5340742836012544 4.500000311348786
  endloop
endfacet
facet normal -1.139781612367047e-08 -7.331248933625631e-11 1.0
  outer loop
    vertex 41.7588185064853 0.5340742836012544 4.500000311348786
    vertex 83.99999896019027 2.2043795586679237e-07 4.5000006274419615
    vertex 41.99999946085652 0.6339747073760565 4.500000312031744
  endloop
endfacet
facet normal -1.139781612367047e-08 -7.331248933625631e-11 1.0
  outer loop
    vertex 41.99999946085652 0.6339747073760565 4.500000312031744
    vertex 83.99999896019027 2.2043795586679237e-07 4.5000006274419615
    vertex 42.20710624120634 0.7928933310646447 4.5000003125485915
  endloop
endfacet
facet normal -1.139781612367047e-08 -7.331248933625631e-11 1.0
  outer loop
    vertex 42.20710624120634 0.7928933310646447 4.5000003125485915
    vertex 83.99999896019027 2.2043795586679237e-07 4.5000006274419615
    vertex 42.36602486271343 1.0000001130881861 4.500000312864058
  endloop
endfacet
facet normal -1.139781612367047e-08 -7.331248933625631e-11 1.0
  outer loop
    vertex 42.36602486271343 1.0000001130881861 4.500000312864058
    vertex 83.99999896019027 2.2043795586679237e-07 4.5000006274419615
    vertex 42.465925283947826 1.2411810685117441 4.500000312956708
  endloop
endfacet
facet normal -1.139781612367047e-08 -7.331248933625631e-11 1.0
  outer loop
    vertex 42.465925283947826 1.2411810685117441 4.500000312956708
    vertex 83.99999896019027 2.2043795586679237e-07 4.5000006274419615
    vertex 42.49999945629574 1.5000001137936338 4.500000312820238
  endloop
endfacet
facet normal -1.139781612367047e-08 -7.331248933625631e-11 1.0
  outer loop
    vertex 42.49999945629574 1.5000001137936338 4.500000312820238
    vertex 83.99999896019027 2.2043795586679237e-07 4.5000006274419615
    vertex 81.4999989415966 2.5000002138549777 4.50000062666779
  endloop
endfacet
facet normal -1.139781612367047e-08 -7.331248933625631e-11 1.0
  outer loop
    vertex 81.4999989415966 2.5000002138549777 4.50000062666779
    vertex 83.99999896019027 2.2043795586679237e-07 4.5000006274419615
    vertex 83.99999811975687 112.99999988269985 4.500001436631816
  endloop
endfacet
facet normal -1.139781612367047e-08 -7.331248933625631e-11 1.0
  outer loop
    vertex 15.49999896472569 116.18186826399446 4.49999996323815
    vertex 17.999998973095387 114.59121221060965 4.500000033030284
    vertex 32.715834006221506 123.99999907183742 4.500000487374624
  endloop
endfacet
facet normal -1.139781612367047e-08 -7.331248933625631e-11 1.0
  outer loop
    vertex 17.999998973095387 114.59121221060965 4.500000033030284
    vertex 15.49999896472569 116.18186826399446 4.49999996323815
    vertex 15.499999234032376 64.99999922809968 4.499999803808305
  endloop
endfacet
facet normal -1.139781612367047e-08 -7.331248933625631e-11 1.0
  outer loop
    vertex 32.715834006221506 123.99999907183742 4.500000487374624
    vertex 17.999998973095387 114.59121221060965 4.500000033030284
    vertex 33.271578587368424 121.49999908103311 4.500000202205722
  endloop
endfacet
facet normal -1.139781612367047e-08 -7.331248933625631e-11 1.0
  outer loop
    vertex 32.715834006221506 123.99999907183742 4.500000487374624
    vertex 33.271578587368424 121.49999908103311 4.500000202205722
    vertex 54.0406441242758 123.999999424695 4.50000006251605
  endloop
endfacet
facet normal -1.139781612367047e-08 -7.331248933625631e-11 1.0
  outer loop
    vertex 54.0406441242758 123.999999424695 4.50000006251605
    vertex 33.271578587368424 121.49999908103311 4.500000202205722
    vertex 52.79655102223129 121.49999940410919 4.500000133395041
  endloop
endfacet
facet normal -1.139781612367047e-08 -7.331248933625631e-11 1.0
  outer loop
    vertex 54.0406441242758 123.999999424695 4.50000006251605
    vertex 52.79655102223129 121.49999940410919 4.500000133395041
    vertex 61.11177329686541 110.49999971158125 4.499999914514989
  endloop
endfacet
facet normal -1.139781612367047e-08 -7.331248933625631e-11 1.0
  outer loop
    vertex 54.0406441242758 123.999999424695 4.50000006251605
    vertex 61.11177329686541 110.49999971158125 4.499999914514989
    vertex 62.35586640744025 112.99999972088214 4.500000099657964
  endloop
endfacet
facet normal -1.139781612367047e-08 -7.331248933625631e-11 1.0
  outer loop
    vertex 62.35586640744025 112.99999972088214 4.500000099657964
    vertex 61.11177329686541 110.49999971158125 4.499999914514989
    vertex 81.49999813835052 110.4999998640092 4.500001264302557
  endloop
endfacet
facet normal -1.139781612367047e-08 -7.331248933625631e-11 1.0
  outer loop
    vertex 62.35586640744025 112.99999972088214 4.500000099657964
    vertex 81.49999813835052 110.4999998640092 4.500001264302557
    vertex 83.99999811975687 112.99999988269985 4.500001436631816
  endloop
endfacet
facet normal -1.139781612367047e-08 -7.331248933625631e-11 1.0
  outer loop
    vertex 83.99999811975687 112.99999988269985 4.500001436631816
    vertex 81.49999813835052 110.4999998640092 4.500001264302557
    vertex 81.4999989415966 2.5000002138549777 4.50000062666779
  endloop
endfacet
facet normal -1.139781612367047e-08 -7.331248933625631e-11 1.0
  outer loop
    vertex 41.758818496311456 2.4659259361794508 4.500000309509403
    vertex 81.4999989415966 2.5000002138549777 4.50000062666779
    vertex 41.499999451029474 2.500000108527329 4.500000308642029
  endloop
endfacet
facet normal -1.139781612367047e-08 -7.331248933625631e-11 1.0
  outer loop
    vertex 81.4999989415966 2.5000002138549777 4.50000062666779
    vertex 41.758818496311456 2.4659259361794508 4.500000309509403
    vertex 41.99999945173491 2.3660255149449476 4.500000310382606
  endloop
endfacet
facet normal -1.139781612367047e-08 -7.331248933625631e-11 1.0
  outer loop
    vertex 81.4999989415966 2.5000002138549777 4.50000062666779
    vertex 41.99999945173491 2.3660255149449476 4.500000310382606
    vertex 42.20710623375856 2.2071068934377642 4.50000031120206
  endloop
endfacet
facet normal -1.139781612367047e-08 -7.331248933625631e-11 1.0
  outer loop
    vertex 81.4999989415966 2.5000002138549777 4.50000062666779
    vertex 42.20710623375856 2.2071068934377642 4.50000031120206
    vertex 42.36602485744705 2.000000113088145 4.50000031191197
  endloop
endfacet
facet normal -1.139781612367047e-08 -7.331248933625631e-11 1.0
  outer loop
    vertex 81.4999989415966 2.5000002138549777 4.50000062666779
    vertex 42.36602485744705 2.000000113088145 4.50000031191197
    vertex 42.46592528122175 1.7588191587167221 4.500000312463854
  endloop
endfacet
facet normal -1.139781612367047e-08 -7.331248933625631e-11 1.0
  outer loop
    vertex 81.4999989415966 2.5000002138549777 4.50000062666779
    vertex 42.46592528122175 1.7588191587167221 4.500000312463854
    vertex 42.49999945629574 1.5000001137936338 4.500000312820238
  endloop
endfacet
facet normal -1.139781612367047e-08 -7.331248933625631e-11 1.0
  outer loop
    vertex -1.5000005560982788 64.99999933862281 4.499999873739648
    vertex 0.9999994639721627 62.49999932236936 4.499999868020919
    vertex 15.499999234032376 64.99999922809968 4.499999803808305
  endloop
endfacet
facet normal -1.139781612367047e-08 -7.331248933625631e-11 1.0
  outer loop
    vertex 0.9999994639721627 62.49999932236936 4.499999868020919
    vertex -1.5000005560982788 64.99999933862281 4.499999873739648
    vertex -1.5000000342660529 -3.383260427369805e-09 4.499999992437433
  endloop
endfacet
facet normal -1.139781612367047e-08 -7.331248933625631e-11 1.0
  outer loop
    vertex 15.499999234032376 64.99999922809968 4.499999803808305
    vertex 0.9999994639721627 62.49999932236936 4.499999868020919
    vertex 17.999999247186835 62.49999921184626 4.499999785736863
  endloop
endfacet
facet normal -1.139781612367047e-08 -7.331248933625631e-11 1.0
  outer loop
    vertex 15.499999234032376 64.99999922809968 4.499999803808305
    vertex 17.999999247186835 62.49999921184626 4.499999785736863
    vertex 17.999998973095387 114.59121221060965 4.500000033030284
  endloop
endfacet
facet normal 0.7933533369026795 0.6087614334247723 7.049636395871988e-09
  outer loop
    vertex 40.79289271033565 0.7928933300900394 2.000000007936671
    vertex 40.633974055144485 1.000000103966545 4.500000307276325
    vertex 40.79289267883318 0.7928933236168537 4.5000003079862205
  endloop
endfacet
facet normal 0.7933533369026795 0.6087614334247723 7.049636395871988e-09
  outer loop
    vertex 40.633974055144485 1.000000103966545 4.500000307276325
    vertex 40.79289271033565 0.7928933300900394 2.000000007936671
    vertex 40.633974086647044 1.0000001104396787 2.000000007936671
  endloop
endfacet
facet normal 0.9914448606657122 0.13052619759859044 7.954612273879156e-09
  outer loop
    vertex 40.53407366287227 1.2411810648110637 2.000000007936671
    vertex 40.499999456295704 1.50000010326087 4.5000003063680705
    vertex 40.53407363136974 1.2411810583378748 4.50000030672443
  endloop
endfacet
facet normal 0.9914448606657122 0.13052619759859044 7.954612273879156e-09
  outer loop
    vertex 40.499999456295704 1.50000010326087 4.5000003063680705
    vertex 40.53407366287227 1.2411810648110637 2.000000007936671
    vertex 40.4999994877983 1.5000001097341564 2.000000007936671
  endloop
endfacet
facet normal -0.13052619741492819 0.9914448606898921 -3.388740933977111e-10
  outer loop
    vertex 41.499999461562254 0.5000001085273003 4.500000310546238
    vertex 41.75881853798782 0.5340742900744134 2.000000007936671
    vertex 41.49999949306473 0.5000001150004448 2.000000007936671
  endloop
endfacet
facet normal -0.13052619741492819 0.9914448606898921 -3.388740933977111e-10
  outer loop
    vertex 41.75881853798782 0.5340742900744134 2.000000007936671
    vertex 41.499999461562254 0.5000001085273003 4.500000310546238
    vertex 41.7588185064853 0.5340742836012544 4.500000311348786
  endloop
endfacet
facet normal 0.3826834273426795 0.9238795345916374 4.133231961008164e-09
  outer loop
    vertex 40.9999994608566 0.6339747021096732 4.5000003088056975
    vertex 41.241180447782746 0.5340742873483446 2.000000007936671
    vertex 40.99999949235914 0.6339747085828358 2.000000007936671
  endloop
endfacet
facet normal 0.3826834273426795 0.9238795345916374 4.133231961008164e-09
  outer loop
    vertex 41.241180447782746 0.5340742873483446 2.000000007936671
    vertex 40.9999994608566 0.6339747021096732 4.5000003088056975
    vertex 41.241180416280216 0.5340742808751758 4.500000309678877
  endloop
endfacet
facet normal 0.6087614246146769 0.7933533436629036 5.841113560733842e-09
  outer loop
    vertex 40.79289267883318 0.7928933236168537 4.5000003079862205
    vertex 40.99999949235914 0.6339747085828358 2.000000007936671
    vertex 40.79289271033565 0.7928933300900394 2.000000007936671
  endloop
endfacet
facet normal 0.6087614246146769 0.7933533436629036 5.841113560733842e-09
  outer loop
    vertex 40.99999949235914 0.6339747085828358 2.000000007936671
    vertex 40.79289267883318 0.7928933236168537 4.5000003079862205
    vertex 40.9999994608566 0.6339747021096732 4.5000003088056975
  endloop
endfacet
facet normal 0.13052618695263074 0.9914448620672796 2.0130559093980357e-09
  outer loop
    vertex 41.241180416280216 0.5340742808751758 4.500000309678877
    vertex 41.49999949306473 0.5000001150004448 2.000000007936671
    vertex 41.241180447782746 0.5340742873483446 2.000000007936671
  endloop
endfacet
facet normal 0.13052618695263074 0.9914448620672796 2.0130559093980357e-09
  outer loop
    vertex 41.49999949306473 0.5000001150004448 2.000000007936671
    vertex 41.241180416280216 0.5340742808751758 4.500000309678877
    vertex 41.499999461562254 0.5000001085273003 4.500000310546238
  endloop
endfacet
facet normal 0.9238795304005261 0.38268343746091665 7.74670366847246e-09
  outer loop
    vertex 40.633974086647044 1.0000001104396787 2.000000007936671
    vertex 40.53407363136974 1.2411810583378748 4.50000030672443
    vertex 40.633974055144485 1.000000103966545 4.500000307276325
  endloop
endfacet
facet normal 0.9238795304005261 0.38268343746091665 7.74670366847246e-09
  outer loop
    vertex 40.53407363136974 1.2411810583378748 4.50000030672443
    vertex 40.633974086647044 1.0000001104396787 2.000000007936671
    vertex 40.53407366287227 1.2411810648110637 2.000000007936671
  endloop
endfacet
facet normal -0.9238795345901698 0.38268342734622196 -7.402054585136564e-09
  outer loop
    vertex 42.465925283947826 1.2411810685117441 4.500000312956708
    vertex 42.366024894216054 1.0000001195612824 2.000000007936671
    vertex 42.36602486271343 1.0000001130881861 4.500000312864058
  endloop
endfacet
facet normal -0.9238795345901698 0.38268342734622196 -7.402054585136564e-09
  outer loop
    vertex 42.366024894216054 1.0000001195612824 2.000000007936671
    vertex 42.465925283947826 1.2411810685117441 4.500000312956708
    vertex 42.46592531545054 1.2411810749848906 2.000000007936671
  endloop
endfacet
facet normal -0.7933533435807862 0.6087614247216943 -6.354059482589459e-09
  outer loop
    vertex 42.36602486271343 1.0000001130881861 4.500000312864058
    vertex 42.20710627270885 0.7928933375377978 2.000000007936671
    vertex 42.20710624120634 0.7928933310646447 4.5000003125485915
  endloop
endfacet
facet normal -0.7933533435807862 0.6087614247216943 -6.354059482589459e-09
  outer loop
    vertex 42.20710627270885 0.7928933375377978 2.000000007936671
    vertex 42.36602486271343 1.0000001130881861 4.500000312864058
    vertex 42.366024894216054 1.0000001195612824 2.000000007936671
  endloop
endfacet
facet normal -0.6087614332350885 0.7933533370482293 -4.744377129315731e-09
  outer loop
    vertex 41.99999946085652 0.6339747073760565 4.500000312031744
    vertex 42.20710627270885 0.7928933375377978 2.000000007936671
    vertex 41.99999949235921 0.6339747138491962 2.000000007936671
  endloop
endfacet
facet normal -0.6087614332350885 0.7933533370482293 -4.744377129315731e-09
  outer loop
    vertex 42.20710627270885 0.7928933375377978 2.000000007936671
    vertex 41.99999946085652 0.6339747073760565 4.500000312031744
    vertex 42.20710624120634 0.7928933310646447 4.5000003125485915
  endloop
endfacet
facet normal -0.38268343721826675 0.9238795305010351 -2.675241054925763e-09
  outer loop
    vertex 41.7588185064853 0.5340742836012544 4.500000311348786
    vertex 41.99999949235921 0.6339747138491962 2.000000007936671
    vertex 41.75881853798782 0.5340742900744134 2.000000007936671
  endloop
endfacet
facet normal -0.38268343721826675 0.9238795305010351 -2.675241054925763e-09
  outer loop
    vertex 41.99999949235921 0.6339747138491962 2.000000007936671
    vertex 41.7588185064853 0.5340742836012544 4.500000311348786
    vertex 41.99999946085652 0.6339747073760565 4.500000312031744
  endloop
endfacet
facet normal -0.99144486207938 0.13052618686071787 -7.865009804959075e-09
  outer loop
    vertex 42.49999945629574 1.5000001137936338 4.500000312820238
    vertex 42.46592531545054 1.2411810749848906 2.000000007936671
    vertex 42.465925283947826 1.2411810685117441 4.500000312956708
  endloop
endfacet
facet normal -0.99144486207938 0.13052618686071787 -7.865009804959075e-09
  outer loop
    vertex 42.46592531545054 1.2411810749848906 2.000000007936671
    vertex 42.49999945629574 1.5000001137936338 4.500000312820238
    vertex 42.49999948779844 1.5000001202668776 2.000000007936671
  endloop
endfacet
facet normal -0.608761424830277 -0.7933533434974679 -4.970923418672346e-09
  outer loop
    vertex 42.20710626526107 2.2071068999110306 2.0000000095446033
    vertex 41.99999945173491 2.3660255149449476 4.500000310382606
    vertex 41.99999948323742 2.366025521418214 2.0000000087251664
  endloop
endfacet
facet normal -0.608761424830277 -0.7933533434974679 -4.970923418672346e-09
  outer loop
    vertex 41.99999945173491 2.3660255149449476 4.500000310382606
    vertex 42.20710626526107 2.2071068999110306 2.0000000095446033
    vertex 42.20710623375856 2.2071068934377642 4.50000031120206
  endloop
endfacet
facet normal -0.3826834274998862 -0.9238795345265203 -3.2379339970855315e-09
  outer loop
    vertex 41.99999948323742 2.366025521418214 2.0000000087251664
    vertex 41.758818496311456 2.4659259361794508 4.500000309509403
    vertex 41.758818527814 2.4659259426527167 2.0000000078519493
  endloop
endfacet
facet normal -0.3826834274998862 -0.9238795345265203 -3.2379339970855315e-09
  outer loop
    vertex 41.758818496311456 2.4659259361794508 4.500000309509403
    vertex 41.99999948323742 2.366025521418214 2.0000000087251664
    vertex 41.99999945173491 2.3660255149449476 4.500000310382606
  endloop
endfacet
facet normal -0.9914448606863644 -0.13052619744172225 -1.2831201038634229e-08
  outer loop
    vertex 42.46592528122175 1.7588191587167221 4.500000312463854
    vertex 42.49999948779844 1.5000001202668776 2.000000007936671
    vertex 42.49999945629574 1.5000001137936338 4.500000312820238
  endloop
endfacet
facet normal -0.9914448606863644 -0.13052619744172225 -1.2831201038634229e-08
  outer loop
    vertex 42.49999948779844 1.5000001202668776 2.000000007936671
    vertex 42.46592528122175 1.7588191587167221 4.500000312463854
    vertex 42.48683425258373 1.6000000057231945 1.9999998538803907
  endloop
endfacet
facet normal -0.9914448606863644 -0.13052619744172225 -1.2831201038634229e-08
  outer loop
    vertex 42.48683425258373 1.6000000057231945 1.9999998538803907
    vertex 42.46592528122175 1.7588191587167221 4.500000312463854
    vertex 42.46592531272429 1.7588191651899827 2.000000010806386
  endloop
endfacet
facet normal -0.9238795304960666 -0.3826834372302616 -7.325615553691648e-09
  outer loop
    vertex 42.36602485744705 2.000000113088145 4.50000031191197
    vertex 42.46592531272429 1.7588191651899827 2.000000010806386
    vertex 42.46592528122175 1.7588191587167221 4.500000312463854
  endloop
endfacet
facet normal -0.9238795304960666 -0.3826834372302616 -7.325615553691648e-09
  outer loop
    vertex 42.46592531272429 1.7588191651899827 2.000000010806386
    vertex 42.36602485744705 2.000000113088145 4.50000031191197
    vertex 42.36602488894958 2.0000001195614083 2.000000010254489
  endloop
endfacet
facet normal -0.7933533370854324 -0.6087614331866041 -6.365156213256926e-09
  outer loop
    vertex 42.20710623375856 2.2071068934377642 4.50000031120206
    vertex 42.36602488894958 2.0000001195614083 2.000000010254489
    vertex 42.36602485744705 2.000000113088145 4.50000031191197
  endloop
endfacet
facet normal -0.7933533370854324 -0.6087614331866041 -6.365156213256926e-09
  outer loop
    vertex 42.36602488894958 2.0000001195614083 2.000000010254489
    vertex 42.20710623375856 2.2071068934377642 4.50000031120206
    vertex 42.20710626526107 2.2071068999110306 2.0000000095446033
  endloop
endfacet
facet normal -0.13052618699865487 -0.9914448620612204 -4.21191551101903e-09
  outer loop
    vertex 41.758818527814 2.4659259426527167 2.0000000078519493
    vertex 41.499999451029474 2.500000108527329 4.500000308642029
    vertex 41.49999948253201 2.5000001150005895 2.0000000069845756
  endloop
endfacet
facet normal -0.13052618699865487 -0.9914448620612204 -4.21191551101903e-09
  outer loop
    vertex 41.499999451029474 2.500000108527329 4.500000308642029
    vertex 41.758818527814 2.4659259426527167 2.0000000078519493
    vertex 41.758818496311456 2.4659259361794508 4.500000309509403
  endloop
endfacet
facet normal 0.9238795345267998 -0.3826834274992105 1.0650946463915538e-08
  outer loop
    vertex 40.534073660146255 1.758819155016116 2.0000000045741104
    vertex 40.63397404987807 2.000000103966504 4.5000003063242255
    vertex 40.53407362864369 1.7588191485428526 4.50000030623157
  endloop
endfacet
facet normal 0.9238795345267998 -0.3826834274992105 1.0650946463915538e-08
  outer loop
    vertex 40.63397404987807 2.000000103966504 4.5000003063242255
    vertex 40.534073660146255 1.758819155016116 2.0000000045741104
    vertex 40.63397408138065 2.000000110439767 2.000000004666769
  endloop
endfacet
facet normal 0.13052619744130803 -0.9914448606864189 -9.223901176972839e-10
  outer loop
    vertex 41.49999948253201 2.5000001150005895 2.0000000069845756
    vertex 41.24118040610637 2.4659259334533723 4.500000307839504
    vertex 41.24118043760894 2.465925939926638 2.0000000061820415
  endloop
endfacet
facet normal 0.13052619744130803 -0.9914448606864189 -9.223901176972839e-10
  outer loop
    vertex 41.24118040610637 2.4659259334533723 4.500000307839504
    vertex 41.49999948253201 2.5000001150005895 2.0000000069845756
    vertex 41.499999451029474 2.500000108527329 4.500000308642029
  endloop
endfacet
facet normal 0.6087614331868286 -0.7933533370852603 5.616782475457276e-09
  outer loop
    vertex 40.99999948323751 2.3660255161518307 2.0000000054990723
    vertex 40.79289267138534 2.207106885989979 4.500000306639692
    vertex 40.79289270288789 2.207106892463245 2.000000004982264
  endloop
endfacet
facet normal 0.6087614331868286 -0.7933533370852603 5.616782475457276e-09
  outer loop
    vertex 40.79289267138534 2.207106885989979 4.500000306639692
    vertex 40.99999948323751 2.3660255161518307 2.0000000054990723
    vertex 40.99999945173494 2.36602550967857 4.500000307156505
  endloop
endfacet
facet normal 0.7933533434970876 -0.6087614248307726 8.420795428371136e-09
  outer loop
    vertex 40.63397408138065 2.000000110439767 2.000000004666769
    vertex 40.79289267138534 2.207106885989979 4.500000306639692
    vertex 40.63397404987807 2.000000103966504 4.5000003063242255
  endloop
endfacet
facet normal 0.7933533434970876 -0.6087614248307726 8.420795428371136e-09
  outer loop
    vertex 40.79289267138534 2.207106885989979 4.500000306639692
    vertex 40.63397408138065 2.000000110439767 2.000000004666769
    vertex 40.79289270288789 2.207106892463245 2.000000004982264
  endloop
endfacet
facet normal 0.9914448620611693 -0.1305261869990431 1.2155249279452369e-08
  outer loop
    vertex 40.4999994877983 1.5000001097341564 2.000000007936671
    vertex 40.53407362864369 1.7588191485428526 4.50000030623157
    vertex 40.499999456295704 1.50000010326087 4.5000003063680705
  endloop
endfacet
facet normal 0.9914448620611693 -0.1305261869990431 1.2155249279452369e-08
  outer loop
    vertex 40.53407362864369 1.7588191485428526 4.50000030623157
    vertex 40.4999994877983 1.5000001097341564 2.000000007936671
    vertex 40.51316472332796 1.6000000057231945 1.999999850696788
  endloop
endfacet
facet normal 0.9914448620611693 -0.1305261869990431 1.2155249279452369e-08
  outer loop
    vertex 40.53407362864369 1.7588191485428526 4.50000030623157
    vertex 40.51316472332796 1.6000000057231945 1.999999850696788
    vertex 40.534073660146255 1.758819155016116 2.0000000045741104
  endloop
endfacet
facet normal 0.3826834372305789 -0.9238795304959353 2.4299978186382546e-09
  outer loop
    vertex 41.24118043760894 2.465925939926638 2.0000000061820415
    vertex 40.99999945173494 2.36602550967857 4.500000307156505
    vertex 40.99999948323751 2.3660255161518307 2.0000000054990723
  endloop
endfacet
facet normal 0.3826834372305789 -0.9238795304959353 2.4299978186382546e-09
  outer loop
    vertex 40.99999945173494 2.36602550967857 4.500000307156505
    vertex 41.24118043760894 2.465925939926638 2.0000000061820415
    vertex 41.24118040610637 2.4659259334533723 4.500000307839504
  endloop
endfacet
facet normal 2.1849052449201786e-09 -1.0 1.936298986633677e-08
  outer loop
    vertex 83.99999898313789 2.2060809008461745e-07 2.5000006274419624
    vertex 42.802413922532054 5.535543468451791e-08 1.9999999999999998
    vertex 83.66666523244636 1.0855294981200676e-07 1.9999999999999998
  endloop
endfacet
facet normal 2.1849052449201786e-09 -1.0 1.936298986633677e-08
  outer loop
    vertex 42.802413922532054 5.535543468451791e-08 1.9999999999999998
    vertex 83.99999898313789 2.2060809008461745e-07 2.5000006274419624
    vertex 40.19758505605905 5.421277368252318e-08 1.9999999999999998
  endloop
endfacet
facet normal 2.1849052449201786e-09 -1.0 1.936298986633677e-08
  outer loop
    vertex 40.19758505605905 5.421277368252318e-08 1.9999999999999998
    vertex 83.99999898313789 2.2060809008461745e-07 2.5000006274419624
    vertex -1.1666666813462176 -2.479927881883213e-09 1.9999999999999998
  endloop
endfacet
facet normal 2.1849052449201786e-09 -1.0 1.936298986633677e-08
  outer loop
    vertex -1.1666666813462176 -2.479927881883213e-09 1.9999999999999998
    vertex 83.99999898313789 2.2060809008461745e-07 2.5000006274419624
    vertex -1.500000011318395 -3.2131262095447255e-09 2.499999992437432
  endloop
endfacet
facet normal 2.1849052449201786e-09 -1.0 1.936298986633677e-08
  outer loop
    vertex -1.500000011318395 -3.2131262095447255e-09 2.499999992437432
    vertex 83.99999898313789 2.2060809008461745e-07 2.5000006274419624
    vertex -1.5000000342660529 -3.383260427369805e-09 4.499999992437433
  endloop
endfacet
facet normal 2.1849052449201786e-09 -1.0 1.936298986633677e-08
  outer loop
    vertex -1.5000000342660529 -3.383260427369805e-09 4.499999992437433
    vertex 83.99999898313789 2.2060809008461745e-07 2.5000006274419624
    vertex 83.99999896019027 2.2043795586679237e-07 4.5000006274419615
  endloop
endfacet
facet normal 1.9744342326454595e-09 -0.7808687928835143 -0.6246950682538187
  outer loop
    vertex 39.51316472593392 1.5999999999999999 2.6780018144919907e-07
    vertex -0.5000000191931867 0.8000000185608267 0.9999999974250017
    vertex -0.5000000128451024 1.5999999999999999 -2.410272753194993e-09
  endloop
endfacet
facet normal 1.9744342326454595e-09 -0.7808687928835143 -0.6246950682538187
  outer loop
    vertex -0.5000000191931867 0.8000000185608267 0.9999999974250017
    vertex 39.51316472593392 1.5999999999999999 2.6780018144919907e-07
    vertex 39.49999949056181 1.5000001092773223 0.12500003420696965
  endloop
endfacet
facet normal 1.9744342326454595e-09 -0.7808687928835143 -0.6246950682538187
  outer loop
    vertex -0.5000000191931867 0.8000000185608267 0.9999999974250017
    vertex 39.49999949056181 1.5000001092773223 0.12500003420696965
    vertex 39.56814783798368 0.9823620190722809 0.7720476069529884
  endloop
endfacet
facet normal 1.9744342326454595e-09 -0.7808687928835143 -0.6246950682538187
  outer loop
    vertex -0.5000000191931867 0.8000000185608267 0.9999999974250017
    vertex 39.56814783798368 0.9823620190722809 0.7720476069529884
    vertex 39.76794868299294 0.5000001092773229 1.3749999572865974
  endloop
endfacet
facet normal 1.9744342326454595e-09 -0.7808687928835143 -0.6246950682538187
  outer loop
    vertex -0.5000000191931867 0.8000000185608267 0.9999999974250017
    vertex 39.76794868299294 0.5000001092773229 1.3749999572865974
    vertex -1.1666666813462176 -2.479927881883213e-09 1.9999999999999998
  endloop
endfacet
facet normal 1.9744342326454595e-09 -0.7808687928835143 -0.6246950682538187
  outer loop
    vertex -1.1666666813462176 -2.479927881883213e-09 1.9999999999999998
    vertex 39.76794868299294 0.5000001092773229 1.3749999572865974
    vertex 40.08578592818873 0.0857865469042274 1.8927668789584342
  endloop
endfacet
facet normal 1.9744342326454595e-09 -0.7808687928835143 -0.6246950682538187
  outer loop
    vertex -1.1666666813462176 -2.479927881883213e-09 1.9999999999999998
    vertex 40.08578592818873 0.0857865469042274 1.8927668789584342
    vertex 40.19758505605905 5.421277368252318e-08 1.9999999999999998
  endloop
endfacet
facet normal 8.724357143721851e-10 -0.7808687808249627 -0.6246950833270072
  outer loop
    vertex 82.99999898041627 1.5999999999999872 3.1452315374394003e-07
    vertex 43.49999949056182 1.5000001092773219 0.12500006319068258
    vertex 43.486834255189706 1.5999999999999999 2.7251306010956396e-07
  endloop
endfacet
facet normal 8.724357143721851e-10 -0.7808687808249627 -0.6246950833270072
  outer loop
    vertex 43.49999949056182 1.5000001092773219 0.12500006319068258
    vertex 82.99999898041627 1.5999999999999872 3.1452315374394003e-07
    vertex 82.99999898222868 0.7999996090186469 1.000000620514683
  endloop
endfacet
facet normal 8.724357143721851e-10 -0.7808687808249627 -0.6246950833270072
  outer loop
    vertex 43.49999949056182 1.5000001092773219 0.12500006319068258
    vertex 82.99999898222868 0.7999996090186469 1.000000620514683
    vertex 43.43185114313996 0.9823620190722793 0.7720476185297971
  endloop
endfacet
facet normal 8.724357143721851e-10 -0.7808687808249627 -0.6246950833270072
  outer loop
    vertex 43.43185114313996 0.9823620190722793 0.7720476185297971
    vertex 82.99999898222868 0.7999996090186469 1.000000620514683
    vertex 43.232050298130694 0.5000001092773215 1.3749999520230771
  endloop
endfacet
facet normal 8.724357143721851e-10 -0.7808687808249627 -0.6246950833270072
  outer loop
    vertex 43.232050298130694 0.5000001092773215 1.3749999520230771
    vertex 82.99999898222868 0.7999996090186469 1.000000620514683
    vertex 83.66666523244636 1.0855294981200676e-07 1.9999999999999998
  endloop
endfacet
facet normal 8.724357143721851e-10 -0.7808687808249627 -0.6246950833270072
  outer loop
    vertex 43.232050298130694 0.5000001092773215 1.3749999520230771
    vertex 83.66666523244636 1.0855294981200676e-07 1.9999999999999998
    vertex 42.91421305293491 0.08578654690422653 1.8927668585688022
  endloop
endfacet
facet normal 8.724357143721851e-10 -0.7808687808249627 -0.6246950833270072
  outer loop
    vertex 42.91421305293491 0.08578654690422653 1.8927668585688022
    vertex 83.66666523244636 1.0855294981200676e-07 1.9999999999999998
    vertex 42.802413922532054 5.535543468451791e-08 1.9999999999999998
  endloop
endfacet
facet normal 1.6499441035288511e-10 2.1977899017210804e-08 -0.9999999999999998
  outer loop
    vertex 39.51316472441023 1.5999999548072312 2.0000000248446392
    vertex 39.5681478840804 0.9823620391710123 2.000000007936671
    vertex 39.499999538714334 1.500000116240276 2.000000007936671
  endloop
endfacet
facet normal 1.6499441035288511e-10 2.1977899017210804e-08 -0.9999999999999998
  outer loop
    vertex 39.5681478840804 0.9823620391710123 2.000000007936671
    vertex 39.51316472441023 1.5999999548072312 2.0000000248446392
    vertex 39.56814783645999 2.0176381542895956 2.0000000666385787
  endloop
endfacet
facet normal 1.6499441035288511e-10 2.1977899017210804e-08 -0.9999999999999998
  outer loop
    vertex 39.5681478840804 0.9823620391710123 2.000000007936671
    vertex 39.56814783645999 2.0176381542895956 2.0000000666385787
    vertex 39.76794868146925 2.500000064084553 2.0000000666385787
  endloop
endfacet
facet normal 1.6499441035288511e-10 2.1977899017210804e-08 -0.9999999999999998
  outer loop
    vertex 39.5681478840804 0.9823620391710123 2.000000007936671
    vertex 39.76794868146925 2.500000064084553 2.0000000666385787
    vertex 39.76794872370413 0.5000001415321624 2.000000007936671
  endloop
endfacet
facet normal 1.6499441035288511e-10 2.1977899017210804e-08 -0.9999999999999998
  outer loop
    vertex 39.76794872370413 0.5000001415321624 2.000000007936671
    vertex 39.76794868146925 2.500000064084553 2.0000000666385787
    vertex 40.08578592666503 2.9142136264576486 2.0000000666385787
  endloop
endfacet
facet normal 1.6499441035288511e-10 2.1977899017210804e-08 -0.9999999999999998
  outer loop
    vertex 39.76794872370413 0.5000001415321624 2.000000007936671
    vertex 40.08578592666503 2.9142136264576486 2.0000000666385787
    vertex 40.08578596055166 0.08578658950708783 2.000000007936671
  endloop
endfacet
facet normal 1.6499441035288511e-10 2.1977899017210804e-08 -0.9999999999999998
  outer loop
    vertex 40.08578596055166 0.08578658950708783 2.000000007936671
    vertex 40.08578592666503 2.9142136264576486 2.0000000666385787
    vertex 40.49999948903813 3.2320508716534304 2.0000000666385787
  endloop
endfacet
facet normal 1.6499441035288511e-10 2.1977899017210804e-08 -0.9999999999999998
  outer loop
    vertex 40.08578596055166 0.08578658950708783 2.000000007936671
    vertex 40.49999948903813 3.2320508716534304 2.0000000666385787
    vertex 40.19758505605905 5.421277368252318e-08 1.9999999999999998
  endloop
endfacet
facet normal 1.6499441035288511e-10 2.1977899017210804e-08 -0.9999999999999998
  outer loop
    vertex 40.19758505605905 5.421277368252318e-08 1.9999999999999998
    vertex 40.49999948903813 3.2320508716534304 2.0000000666385787
    vertex 40.4999994877983 1.5000001097341564 2.000000007936671
  endloop
endfacet
facet normal 1.6499441035288511e-10 2.1977899017210804e-08 -0.9999999999999998
  outer loop
    vertex 40.4999994877983 1.5000001097341564 2.000000007936671
    vertex 40.49999948903813 3.2320508716534304 2.0000000666385787
    vertex 40.51316472332796 1.6000000057231945 1.999999850696788
  endloop
endfacet
facet normal 1.6499441035288511e-10 2.1977899017210804e-08 -0.9999999999999998
  outer loop
    vertex 40.51316472332796 1.6000000057231945 1.999999850696788
    vertex 40.49999948903813 3.2320508716534304 2.0000000666385787
    vertex 40.534073660146255 1.758819155016116 2.0000000045741104
  endloop
endfacet
facet normal 1.6499441035288511e-10 2.1977899017210804e-08 -0.9999999999999998
  outer loop
    vertex 40.534073660146255 1.758819155016116 2.0000000045741104
    vertex 40.49999948903813 3.2320508716534304 2.0000000666385787
    vertex 40.982361398833085 3.431851716662689 2.0000000666385787
  endloop
endfacet
facet normal 1.6499441035288511e-10 2.1977899017210804e-08 -0.9999999999999998
  outer loop
    vertex 40.534073660146255 1.758819155016116 2.0000000045741104
    vertex 40.982361398833085 3.431851716662689 2.0000000666385787
    vertex 40.63397408138065 2.000000110439767 2.000000004666769
  endloop
endfacet
facet normal 1.6499441035288511e-10 2.1977899017210804e-08 -0.9999999999999998
  outer loop
    vertex 40.63397408138065 2.000000110439767 2.000000004666769
    vertex 40.982361398833085 3.431851716662689 2.0000000666385787
    vertex 40.79289270288789 2.207106892463245 2.000000004982264
  endloop
endfacet
facet normal 1.6499441035288511e-10 2.1977899017210804e-08 -0.9999999999999998
  outer loop
    vertex 40.79289270288789 2.207106892463245 2.000000004982264
    vertex 40.982361398833085 3.431851716662689 2.0000000666385787
    vertex 40.99999948323751 2.3660255161518307 2.0000000054990723
  endloop
endfacet
facet normal 1.6499441035288511e-10 2.1977899017210804e-08 -0.9999999999999998
  outer loop
    vertex 40.99999948323751 2.3660255161518307 2.0000000054990723
    vertex 40.982361398833085 3.431851716662689 2.0000000666385787
    vertex 41.499999489038125 3.5000000640845523 2.0000000666385787
  endloop
endfacet
facet normal 1.6499441035288511e-10 2.1977899017210804e-08 -0.9999999999999998
  outer loop
    vertex 40.99999948323751 2.3660255161518307 2.0000000054990723
    vertex 41.499999489038125 3.5000000640845523 2.0000000666385787
    vertex 41.24118043760894 2.465925939926638 2.0000000061820415
  endloop
endfacet
facet normal 1.6499441035288511e-10 2.1977899017210804e-08 -0.9999999999999998
  outer loop
    vertex 41.24118043760894 2.465925939926638 2.0000000061820415
    vertex 41.499999489038125 3.5000000640845523 2.0000000666385787
    vertex 41.49999948253201 2.5000001150005895 2.0000000069845756
  endloop
endfacet
facet normal 1.6499441035288511e-10 2.1977899017210804e-08 -0.9999999999999998
  outer loop
    vertex 41.49999948253201 2.5000001150005895 2.0000000069845756
    vertex 41.499999489038125 3.5000000640845523 2.0000000666385787
    vertex 41.758818527814 2.4659259426527167 2.0000000078519493
  endloop
endfacet
facet normal 1.6499441035288511e-10 2.1977899017210804e-08 -0.9999999999999998
  outer loop
    vertex 41.758818527814 2.4659259426527167 2.0000000078519493
    vertex 41.499999489038125 3.5000000640845523 2.0000000666385787
    vertex 42.01763757924317 3.431851716662689 2.0000000666385787
  endloop
endfacet
facet normal 1.6499441035288511e-10 2.1977899017210804e-08 -0.9999999999999998
  outer loop
    vertex 41.758818527814 2.4659259426527167 2.0000000078519493
    vertex 42.01763757924317 3.431851716662689 2.0000000666385787
    vertex 41.99999948323742 2.366025521418214 2.0000000087251664
  endloop
endfacet
facet normal 1.6499441035288511e-10 2.1977899017210804e-08 -0.9999999999999998
  outer loop
    vertex 41.99999948323742 2.366025521418214 2.0000000087251664
    vertex 42.01763757924317 3.431851716662689 2.0000000666385787
    vertex 42.20710626526107 2.2071068999110306 2.0000000095446033
  endloop
endfacet
facet normal 1.6499441035288511e-10 2.1977899017210804e-08 -0.9999999999999998
  outer loop
    vertex 42.20710626526107 2.2071068999110306 2.0000000095446033
    vertex 42.01763757924317 3.431851716662689 2.0000000666385787
    vertex 42.499999489038125 3.2320508716534295 2.0000000666385787
  endloop
endfacet
facet normal 1.6499441035288511e-10 2.1977899017210804e-08 -0.9999999999999998
  outer loop
    vertex 42.20710626526107 2.2071068999110306 2.0000000095446033
    vertex 42.499999489038125 3.2320508716534295 2.0000000666385787
    vertex 42.36602488894958 2.0000001195614083 2.000000010254489
  endloop
endfacet
facet normal 1.6499441035288511e-10 2.1977899017210804e-08 -0.9999999999999998
  outer loop
    vertex 42.36602488894958 2.0000001195614083 2.000000010254489
    vertex 42.499999489038125 3.2320508716534295 2.0000000666385787
    vertex 42.46592531272429 1.7588191651899827 2.000000010806386
  endloop
endfacet
facet normal 1.6499441035288511e-10 2.1977899017210804e-08 -0.9999999999999998
  outer loop
    vertex 42.46592531272429 1.7588191651899827 2.000000010806386
    vertex 42.499999489038125 3.2320508716534295 2.0000000666385787
    vertex 42.48683425258373 1.6000000057231945 1.9999998538803907
  endloop
endfacet
facet normal 1.6499441035288511e-10 2.1977899017210804e-08 -0.9999999999999998
  outer loop
    vertex 42.48683425258373 1.6000000057231945 1.9999998538803907
    vertex 42.499999489038125 3.2320508716534295 2.0000000666385787
    vertex 42.49999948779844 1.5000001202668776 2.000000007936671
  endloop
endfacet
facet normal 1.6499441035288511e-10 2.1977899017210804e-08 -0.9999999999999998
  outer loop
    vertex 40.19758505605905 5.421277368252318e-08 1.9999999999999998
    vertex 41.241180447782746 0.5340742873483446 2.000000007936671
    vertex 42.802413922532054 5.535543468451791e-08 1.9999999999999998
  endloop
endfacet
facet normal 1.6499441035288511e-10 2.1977899017210804e-08 -0.9999999999999998
  outer loop
    vertex 41.241180447782746 0.5340742873483446 2.000000007936671
    vertex 40.19758505605905 5.421277368252318e-08 1.9999999999999998
    vertex 40.99999949235914 0.6339747085828358 2.000000007936671
  endloop
endfacet
facet normal 1.6499441035288511e-10 2.1977899017210804e-08 -0.9999999999999998
  outer loop
    vertex 40.99999949235914 0.6339747085828358 2.000000007936671
    vertex 40.19758505605905 5.421277368252318e-08 1.9999999999999998
    vertex 40.79289271033565 0.7928933300900394 2.000000007936671
  endloop
endfacet
facet normal 1.6499441035288511e-10 2.1977899017210804e-08 -0.9999999999999998
  outer loop
    vertex 40.79289271033565 0.7928933300900394 2.000000007936671
    vertex 40.19758505605905 5.421277368252318e-08 1.9999999999999998
    vertex 40.633974086647044 1.0000001104396787 2.000000007936671
  endloop
endfacet
facet normal 1.6499441035288511e-10 2.1977899017210804e-08 -0.9999999999999998
  outer loop
    vertex 40.633974086647044 1.0000001104396787 2.000000007936671
    vertex 40.19758505605905 5.421277368252318e-08 1.9999999999999998
    vertex 40.53407366287227 1.2411810648110637 2.000000007936671
  endloop
endfacet
facet normal 1.6499441035288511e-10 2.1977899017210804e-08 -0.9999999999999998
  outer loop
    vertex 40.53407366287227 1.2411810648110637 2.000000007936671
    vertex 40.19758505605905 5.421277368252318e-08 1.9999999999999998
    vertex 40.4999994877983 1.5000001097341564 2.000000007936671
  endloop
endfacet
facet normal 1.6499441035288511e-10 2.1977899017210804e-08 -0.9999999999999998
  outer loop
    vertex 42.802413922532054 5.535543468451791e-08 1.9999999999999998
    vertex 41.241180447782746 0.5340742873483446 2.000000007936671
    vertex 41.49999949306473 0.5000001150004448 2.000000007936671
  endloop
endfacet
facet normal 1.6499441035288511e-10 2.1977899017210804e-08 -0.9999999999999998
  outer loop
    vertex 42.802413922532054 5.535543468451791e-08 1.9999999999999998
    vertex 41.49999949306473 0.5000001150004448 2.000000007936671
    vertex 41.75881853798782 0.5340742900744134 2.000000007936671
  endloop
endfacet
facet normal 1.6499441035288511e-10 2.1977899017210804e-08 -0.9999999999999998
  outer loop
    vertex 42.802413922532054 5.535543468451791e-08 1.9999999999999998
    vertex 41.75881853798782 0.5340742900744134 2.000000007936671
    vertex 41.99999949235921 0.6339747138491962 2.000000007936671
  endloop
endfacet
facet normal 1.6499441035288511e-10 2.1977899017210804e-08 -0.9999999999999998
  outer loop
    vertex 42.802413922532054 5.535543468451791e-08 1.9999999999999998
    vertex 41.99999949235921 0.6339747138491962 2.000000007936671
    vertex 42.20710627270885 0.7928933375377978 2.000000007936671
  endloop
endfacet
facet normal 1.6499441035288511e-10 2.1977899017210804e-08 -0.9999999999999998
  outer loop
    vertex 42.802413922532054 5.535543468451791e-08 1.9999999999999998
    vertex 42.20710627270885 0.7928933375377978 2.000000007936671
    vertex 42.366024894216054 1.0000001195612824 2.000000007936671
  endloop
endfacet
facet normal 1.6499441035288511e-10 2.1977899017210804e-08 -0.9999999999999998
  outer loop
    vertex 42.802413922532054 5.535543468451791e-08 1.9999999999999998
    vertex 42.366024894216054 1.0000001195612824 2.000000007936671
    vertex 42.46592531545054 1.2411810749848906 2.000000007936671
  endloop
endfacet
facet normal 1.6499441035288511e-10 2.1977899017210804e-08 -0.9999999999999998
  outer loop
    vertex 42.802413922532054 5.535543468451791e-08 1.9999999999999998
    vertex 42.46592531545054 1.2411810749848906 2.000000007936671
    vertex 42.49999948779844 1.5000001202668776 2.000000007936671
  endloop
endfacet
facet normal 1.6499441035288511e-10 2.1977899017210804e-08 -0.9999999999999998
  outer loop
    vertex 42.802413922532054 5.535543468451791e-08 1.9999999999999998
    vertex 42.49999948779844 1.5000001202668776 2.000000007936671
    vertex 42.499999489038125 3.2320508716534295 2.0000000666385787
  endloop
endfacet
facet normal 1.6499441035288511e-10 2.1977899017210804e-08 -0.9999999999999998
  outer loop
    vertex 42.802413922532054 5.535543468451791e-08 1.9999999999999998
    vertex 42.499999489038125 3.2320508716534295 2.0000000666385787
    vertex 42.914213051411224 2.9142136264576477 2.0000000666385787
  endloop
endfacet
facet normal 1.6499441035288511e-10 2.1977899017210804e-08 -0.9999999999999998
  outer loop
    vertex 42.802413922532054 5.535543468451791e-08 1.9999999999999998
    vertex 42.914213051411224 2.9142136264576477 2.0000000666385787
    vertex 42.9142130132918 0.0857865877538031 2.000000007936671
  endloop
endfacet
facet normal 1.6499441035288511e-10 2.1977899017210804e-08 -0.9999999999999998
  outer loop
    vertex 42.9142130132918 0.0857865877538031 2.000000007936671
    vertex 42.914213051411224 2.9142136264576477 2.0000000666385787
    vertex 43.23205025065285 0.5000001393848359 2.000000007936671
  endloop
endfacet
facet normal 1.6499441035288511e-10 2.1977899017210804e-08 -0.9999999999999998
  outer loop
    vertex 43.23205025065285 0.5000001393848359 2.000000007936671
    vertex 42.914213051411224 2.9142136264576477 2.0000000666385787
    vertex 43.23205029660701 2.5000000640845514 2.0000000666385787
  endloop
endfacet
facet normal 1.6499441035288511e-10 2.1977899017210804e-08 -0.9999999999999998
  outer loop
    vertex 43.23205025065285 0.5000001393848359 2.000000007936671
    vertex 43.23205029660701 2.5000000640845514 2.0000000666385787
    vertex 43.43185109087459 0.9823620367759803 2.000000007936671
  endloop
endfacet
facet normal 1.6499441035288511e-10 2.1977899017210804e-08 -0.9999999999999998
  outer loop
    vertex 43.43185109087459 0.9823620367759803 2.000000007936671
    vertex 43.23205029660701 2.5000000640845514 2.0000000666385787
    vertex 43.431851141616264 2.017638154289594 2.0000000666385787
  endloop
endfacet
facet normal 1.6499441035288511e-10 2.1977899017210804e-08 -0.9999999999999998
  outer loop
    vertex 43.43185109087459 0.9823620367759803 2.000000007936671
    vertex 43.431851141616264 2.017638154289594 2.0000000666385787
    vertex 43.499999436882405 1.500000113760758 2.000000007936671
  endloop
endfacet
facet normal 1.6499441035288511e-10 2.1977899017210804e-08 -0.9999999999999998
  outer loop
    vertex 43.499999436882405 1.500000113760758 2.000000007936671
    vertex 43.431851141616264 2.017638154289594 2.0000000666385787
    vertex 43.48683425366602 1.5999999548072312 2.000000029557518
  endloop
endfacet
facet normal 0.99144486137381 -0.13052619222005432 -2.1940930010673107e-09
  outer loop
    vertex 39.51316472593392 1.5999999999999999 2.6780018144919907e-07
    vertex 39.56814783645999 2.0176381542895956 2.0000000666385787
    vertex 39.51316472441023 1.5999999548072312 2.0000000248446392
  endloop
endfacet
facet normal 0.99144486137381 -0.13052619222005432 -2.1940930010673107e-09
  outer loop
    vertex 39.56814783645999 2.0176381542895956 2.0000000666385787
    vertex 39.51316472593392 1.5999999999999999 2.6780018144919907e-07
    vertex 39.56814783798368 2.0176381994823642 3.0959412051778655e-07
  endloop
endfacet
facet normal 0.923879532511286 -0.3826834323650915 -7.943409926935982e-09
  outer loop
    vertex 39.56814783798368 2.0176381994823642 3.0959412051778655e-07
    vertex 39.76794868146925 2.500000064084553 2.0000000666385787
    vertex 39.56814783645999 2.0176381542895956 2.0000000666385787
  endloop
endfacet
facet normal 0.923879532511286 -0.3826834323650915 -7.943409926935982e-09
  outer loop
    vertex 39.76794868146925 2.500000064084553 2.0000000666385787
    vertex 39.56814783798368 2.0176381994823642 3.0959412051778655e-07
    vertex 39.76794868299294 2.500000109277322 3.0959412051778655e-07
  endloop
endfacet
facet normal 0.7933533402912322 -0.6087614290087244 -1.3151396592737998e-08
  outer loop
    vertex 39.76794868299294 2.500000109277322 3.0959412051778655e-07
    vertex 40.08578592666503 2.9142136264576486 2.0000000666385787
    vertex 39.76794868146925 2.500000064084553 2.0000000666385787
  endloop
endfacet
facet normal 0.7933533402912322 -0.6087614290087244 -1.3151396592737998e-08
  outer loop
    vertex 40.08578592666503 2.9142136264576486 2.0000000666385787
    vertex 39.76794868299294 2.500000109277322 3.0959412051778655e-07
    vertex 40.08578592818873 2.9142136716504172 3.0959412051778655e-07
  endloop
endfacet
facet normal 0.6087614290087204 -0.7933533402912354 -1.7463137314455264e-08
  outer loop
    vertex 40.49999948903813 3.2320508716534304 2.0000000666385787
    vertex 40.08578592818873 2.9142136716504172 3.0959412051778655e-07
    vertex 40.49999949056182 3.232050916846199 3.0959412051778655e-07
  endloop
endfacet
facet normal 0.6087614290087204 -0.7933533402912354 -1.7463137314455264e-08
  outer loop
    vertex 40.08578592818873 2.9142136716504172 3.0959412051778655e-07
    vertex 40.49999948903813 3.2320508716534304 2.0000000666385787
    vertex 40.08578592666503 2.9142136264576486 2.0000000666385787
  endloop
endfacet
facet normal 0.382683432365089 -0.9238795325112868 -2.0584794087391416e-08
  outer loop
    vertex 40.982361398833085 3.431851716662689 2.0000000666385787
    vertex 40.49999949056182 3.232050916846199 3.0959412051778655e-07
    vertex 40.98236140035678 3.431851761855458 3.0959412051778655e-07
  endloop
endfacet
facet normal 0.382683432365089 -0.9238795325112868 -2.0584794087391416e-08
  outer loop
    vertex 40.49999949056182 3.232050916846199 3.0959412051778655e-07
    vertex 40.982361398833085 3.431851716662689 2.0000000666385787
    vertex 40.49999948903813 3.2320508716534304 2.0000000666385787
  endloop
endfacet
facet normal 0.13052619222005213 -0.9914448613738103 -2.230363116125249e-08
  outer loop
    vertex 41.499999489038125 3.5000000640845523 2.0000000666385787
    vertex 40.98236140035678 3.431851761855458 3.0959412051778655e-07
    vertex 41.49999949056182 3.5000001092773214 3.0959412051778655e-07
  endloop
endfacet
facet normal 0.13052619222005213 -0.9914448613738103 -2.230363116125249e-08
  outer loop
    vertex 40.98236140035678 3.431851761855458 3.0959412051778655e-07
    vertex 41.499999489038125 3.5000000640845523 2.0000000666385787
    vertex 40.982361398833085 3.431851716662689 2.0000000666385787
  endloop
endfacet
facet normal -0.13052619222005074 -0.9914448613738103 -2.250251262996743e-08
  outer loop
    vertex 42.01763757924317 3.431851716662689 2.0000000666385787
    vertex 41.49999949056182 3.5000001092773214 3.0959412051778655e-07
    vertex 42.017637580766866 3.431851761855458 3.0959412051778655e-07
  endloop
endfacet
facet normal -0.13052619222005074 -0.9914448613738103 -2.250251262996743e-08
  outer loop
    vertex 41.49999949056182 3.5000001092773214 3.0959412051778655e-07
    vertex 42.01763757924317 3.431851716662689 2.0000000666385787
    vertex 41.499999489038125 3.5000000640845523 2.0000000666385787
  endloop
endfacet
facet normal -0.3826834323650939 -0.9238795325112849 -2.1167885050110447e-08
  outer loop
    vertex 42.499999489038125 3.2320508716534295 2.0000000666385787
    vertex 42.017637580766866 3.431851761855458 3.0959412051778655e-07
    vertex 42.49999949056181 3.232050916846198 3.0959412051778655e-07
  endloop
endfacet
facet normal -0.3826834323650939 -0.9238795325112849 -2.1167885050110447e-08
  outer loop
    vertex 42.017637580766866 3.431851761855458 3.0959412051778655e-07
    vertex 42.499999489038125 3.2320508716534295 2.0000000666385787
    vertex 42.01763757924317 3.431851716662689 2.0000000666385787
  endloop
endfacet
facet normal -0.6087614290087203 -0.7933533402912353 -1.8390701085672545e-08
  outer loop
    vertex 42.914213051411224 2.9142136264576477 2.0000000666385787
    vertex 42.49999949056181 3.232050916846198 3.0959412051778655e-07
    vertex 42.91421305293491 2.9142136716504163 3.0959412051778655e-07
  endloop
endfacet
facet normal -0.6087614290087203 -0.7933533402912353 -1.8390701085672545e-08
  outer loop
    vertex 42.49999949056181 3.232050916846198 3.0959412051778655e-07
    vertex 42.914213051411224 2.9142136264576477 2.0000000666385787
    vertex 42.499999489038125 3.2320508716534295 2.0000000666385787
  endloop
endfacet
facet normal -0.7933533402912331 -0.6087614290087234 -1.4360221234316609e-08
  outer loop
    vertex 42.914213051411224 2.9142136264576477 2.0000000666385787
    vertex 43.232050298130694 2.50000010927732 3.0959412051778655e-07
    vertex 43.23205029660701 2.5000000640845514 2.0000000666385787
  endloop
endfacet
facet normal -0.7933533402912331 -0.6087614290087234 -1.4360221234316609e-08
  outer loop
    vertex 43.232050298130694 2.50000010927732 3.0959412051778655e-07
    vertex 42.914213051411224 2.9142136264576477 2.0000000666385787
    vertex 42.91421305293491 2.9142136716504163 3.0959412051778655e-07
  endloop
endfacet
facet normal -0.923879532511286 -0.3826834323650917 -9.351116037229569e-09
  outer loop
    vertex 43.23205029660701 2.5000000640845514 2.0000000666385787
    vertex 43.43185114313996 2.017638199482363 3.0959412051778655e-07
    vertex 43.431851141616264 2.017638154289594 2.0000000666385787
  endloop
endfacet
facet normal -0.923879532511286 -0.3826834323650917 -9.351116037229569e-09
  outer loop
    vertex 43.43185114313996 2.017638199482363 3.0959412051778655e-07
    vertex 43.23205029660701 2.5000000640845514 2.0000000666385787
    vertex 43.232050298130694 2.50000010927732 3.0959412051778655e-07
  endloop
endfacet
facet normal -0.9914448613738118 -0.1305261922200415 -3.7047477348648275e-09
  outer loop
    vertex 43.431851141616264 2.017638154289594 2.0000000666385787
    vertex 43.486834255189706 1.5999999999999999 2.7251306010956396e-07
    vertex 43.48683425366602 1.5999999548072312 2.000000029557518
  endloop
endfacet
facet normal -0.9914448613738118 -0.1305261922200415 -3.7047477348648275e-09
  outer loop
    vertex 43.486834255189706 1.5999999999999999 2.7251306010956396e-07
    vertex 43.431851141616264 2.017638154289594 2.0000000666385787
    vertex 43.43185114313996 2.017638199482363 3.0959412051778655e-07
  endloop
endfacet
facet normal 0.9914448877973815 -0.13052599151294636 -1.2851338740145374e-08
  outer loop
    vertex 39.51316472593392 1.5999999999999999 2.6780018144919907e-07
    vertex 39.499999538714334 1.500000116240276 2.000000007936671
    vertex 39.49999949056181 1.5000001092773223 0.12500003420696965
  endloop
endfacet
facet normal 0.9914448877973815 -0.13052599151294636 -1.2851338740145374e-08
  outer loop
    vertex 39.499999538714334 1.500000116240276 2.000000007936671
    vertex 39.51316472593392 1.5999999999999999 2.6780018144919907e-07
    vertex 39.51316472441023 1.5999999548072312 2.0000000248446392
  endloop
endfacet
facet normal 0.9914448638383534 0.13052617349998463 -2.9971063180004025e-08
  outer loop
    vertex 39.49999949056181 1.5000001092773223 0.12500003420696965
    vertex 39.5681478840804 0.9823620391710123 2.000000007936671
    vertex 39.56814783798368 0.9823620190722809 0.7720476069529884
  endloop
endfacet
facet normal 0.9914448638383534 0.13052617349998463 -2.9971063180004025e-08
  outer loop
    vertex 39.5681478840804 0.9823620391710123 2.000000007936671
    vertex 39.49999949056181 1.5000001092773223 0.12500003420696965
    vertex 39.499999538714334 1.500000116240276 2.000000007936671
  endloop
endfacet
facet normal 0.9238795434500989 0.3826834059564574 -4.8966660503517923e-08
  outer loop
    vertex 39.56814783798368 0.9823620190722809 0.7720476069529884
    vertex 39.76794872370413 0.5000001415321624 2.000000007936671
    vertex 39.76794868299294 0.5000001092773229 1.3749999572865974
  endloop
endfacet
facet normal 0.9238795434500989 0.3826834059564574 -4.8966660503517923e-08
  outer loop
    vertex 39.76794872370413 0.5000001415321624 2.000000007936671
    vertex 39.56814783798368 0.9823620190722809 0.7720476069529884
    vertex 39.5681478840804 0.9823620391710123 2.000000007936671
  endloop
endfacet
facet normal 0.7933533689991052 0.6087613915958868 -9.448078564571983e-08
  outer loop
    vertex 39.76794868299294 0.5000001092773229 1.3749999572865974
    vertex 40.08578596055166 0.08578658950708783 2.000000007936671
    vertex 40.08578592818873 0.0857865469042274 1.8927668789584342
  endloop
endfacet
facet normal 0.7933533689991052 0.6087613915958868 -9.448078564571983e-08
  outer loop
    vertex 40.08578596055166 0.08578658950708783 2.000000007936671
    vertex 39.76794868299294 0.5000001092773229 1.3749999572865974
    vertex 39.76794872370413 0.5000001415321624 2.000000007936671
  endloop
endfacet
facet normal 0.6087617509489648 0.7933530932575369 -4.989169647158313e-07
  outer loop
    vertex 40.08578596055166 0.08578658950708783 2.000000007936671
    vertex 40.19758505605905 5.421277368252318e-08 1.9999999999999998
    vertex 40.08578592818873 0.0857865469042274 1.8927668789584342
  endloop
endfacet
facet normal 0.9914448894152977 0.13052597922363246 1.510314395921631e-08
  outer loop
    vertex 43.486834255189706 1.5999999999999999 2.7251306010956396e-07
    vertex 43.499999436882405 1.500000113760758 2.000000007936671
    vertex 43.49999949056182 1.5000001092773219 0.12500006319068258
  endloop
endfacet
facet normal 0.9914448894152977 0.13052597922363246 1.510314395921631e-08
  outer loop
    vertex 43.499999436882405 1.500000113760758 2.000000007936671
    vertex 43.486834255189706 1.5999999999999999 2.7251306010956396e-07
    vertex 43.48683425366602 1.5999999548072312 2.000000029557518
  endloop
endfacet
facet normal -0.9914448640278278 0.13052617206078204 -3.331407197586413e-08
  outer loop
    vertex 43.43185109087459 0.9823620367759803 2.000000007936671
    vertex 43.49999949056182 1.5000001092773219 0.12500006319068258
    vertex 43.43185114313996 0.9823620190722793 0.7720476185297971
  endloop
endfacet
facet normal -0.9914448640278278 0.13052617206078204 -3.331407197586413e-08
  outer loop
    vertex 43.49999949056182 1.5000001092773219 0.12500006319068258
    vertex 43.43185109087459 0.9823620367759803 2.000000007936671
    vertex 43.499999436882405 1.500000113760758 2.000000007936671
  endloop
endfacet
facet normal -0.9238795442914232 0.38268340392531985 -5.384758038071576e-08
  outer loop
    vertex 43.23205025065285 0.5000001393848359 2.000000007936671
    vertex 43.43185114313996 0.9823620190722793 0.7720476185297971
    vertex 43.232050298130694 0.5000001092773215 1.3749999520230771
  endloop
endfacet
facet normal -0.9238795442914232 0.38268340392531985 -5.384758038071576e-08
  outer loop
    vertex 43.43185114313996 0.9823620190722793 0.7720476185297971
    vertex 43.23205025065285 0.5000001393848359 2.000000007936671
    vertex 43.43185109087459 0.9823620367759803 2.000000007936671
  endloop
endfacet
facet normal -0.7933533709060392 0.6087613891107208 -1.0204838267151999e-07
  outer loop
    vertex 42.9142130132918 0.0857865877538031 2.000000007936671
    vertex 43.232050298130694 0.5000001092773215 1.3749999520230771
    vertex 42.91421305293491 0.08578654690422653 1.8927668585688022
  endloop
endfacet
facet normal -0.7933533709060392 0.6087613891107208 -1.0204838267151999e-07
  outer loop
    vertex 43.232050298130694 0.5000001092773215 1.3749999520230771
    vertex 42.9142130132918 0.0857865877538031 2.000000007936671
    vertex 43.23205025065285 0.5000001393848359 2.000000007936671
  endloop
endfacet
facet normal -0.6087617542856023 0.7933530906972242 -5.272748975026139e-07
  outer loop
    vertex 42.9142130132918 0.0857865877538031 2.000000007936671
    vertex 42.91421305293491 0.08578654690422653 1.8927668585688022
    vertex 42.802413922532054 5.535543468451791e-08 1.9999999999999998
  endloop
endfacet
endsolid HandRemote-BackCover
