solid HandRemote-V2SideCover
facet normal -3.2553067124362603e-09 -0.999999999999998 -6.561464005121409e-08
  outer loop
    vertex 16.99999938564912 -2.0500001332270985 2.2999998659034477
    vertex 2.5756998984100464e-09 -2.0500000516410353 1.8999999389999493
    vertex 16.999999385649122 -2.050000071311359 1.8999999389999493
  endloop
endfacet
facet normal -3.2553067124362603e-09 -0.999999999999998 -6.561464005121409e-08
  outer loop
    vertex 2.5756998984100464e-09 -2.0500000516410353 1.8999999389999493
    vertex 16.99999938564912 -2.0500001332270985 2.2999998659034477
    vertex 2.5756998984100464e-09 -2.0500000422169977 2.299999865903558
  endloop
endfacet
facet normal 5.992428805612306e-15 2.3132076590417724e-08 0.9999999999999998
  outer loop
    vertex 21.428175299016594 -2.450000893024124 3.000054611815876
    vertex 20.428175405420287 41.94999996291228 3.000053594052481
    vertex 20.428175299016594 -2.450000893024124 3.0000546118158877
  endloop
endfacet
facet normal 5.992428805612306e-15 2.3132076590417724e-08 0.9999999999999998
  outer loop
    vertex 20.428175405420287 41.94999996291228 3.000053594052481
    vertex 21.428175299016594 -2.450000893024124 3.000054611815876
    vertex 21.428175405420287 41.94999996291228 3.0000535940524804
  endloop
endfacet
facet normal -0.5735885429526144 2.957116279269028e-09 0.8191435670219824
  outer loop
    vertex 20.428175299016594 -2.450000893024124 3.0000546118158877
    vertex 19.42842784104266 41.94999945425465 2.300001703401273
    vertex 19.428426268217738 -2.4500002169880846 2.2999998730096456
  endloop
endfacet
facet normal -0.5735885429526144 2.957116279269028e-09 0.8191435670219824
  outer loop
    vertex 19.42842784104266 41.94999945425465 2.300001703401273
    vertex 20.428175299016594 -2.450000893024124 3.0000546118158877
    vertex 20.428175405420287 41.94999996291228 3.000053594052481
  endloop
endfacet
facet normal 1.0 -1.6777222346185637e-09 -1.513719715969685e-17
  outer loop
    vertex 21.428175299016594 -2.4500008782366147 1.6000000572829998
    vertex 21.428175405420287 41.94999996291228 3.0000535940524804
    vertex 21.428175299016594 -2.450000893024124 3.000054611815876
  endloop
endfacet
facet normal 1.0 -1.6777222346185637e-09 -1.513719715969685e-17
  outer loop
    vertex 21.428175405420287 41.94999996291228 3.0000535940524804
    vertex 21.428175299016594 -2.4500008782366147 1.6000000572829998
    vertex 21.428175405420287 41.949999973388664 1.5999998865720109
  endloop
endfacet
facet normal 0.6246950496017253 -3.925910308499077e-09 -0.7808688078051896
  outer loop
    vertex 19.428175405420266 41.95000000900644 -1.1342799665682569e-07
    vertex 21.428175299016594 -2.4500008782366147 1.6000000572829998
    vertex 19.428175299016598 -2.4500006518344835 4.0083824908155844e-08
  endloop
endfacet
facet normal 0.6246950496017253 -3.925910308499077e-09 -0.7808688078051896
  outer loop
    vertex 21.428175299016594 -2.4500008782366147 1.6000000572829998
    vertex 19.428175405420266 41.95000000900644 -1.1342799665682569e-07
    vertex 21.428175405420287 41.949999973388664 1.5999998865720109
  endloop
endfacet
facet normal 7.478409687498907e-10 -3.26561140796869e-09 -1.0
  outer loop
    vertex 5.373901414775832e-08 39.300000000000004 -1.2413738815497677e-07
    vertex 16.999999420368237 0.19999997675327352 5.730498509049201e-09
    vertex 5.652475088590616e-09 0.19999999999999998 5.73052861829737e-09
  endloop
endfacet
facet normal 7.478409687498907e-10 -3.26561140796869e-09 -1.0
  outer loop
    vertex 16.999999420368237 0.19999997675327352 5.730498509049201e-09
    vertex 5.373901414775832e-08 39.300000000000004 -1.2413738815497677e-07
    vertex 16.999999413756566 39.300000000000004 -1.2413739570449305e-07
  endloop
endfacet
facet normal 7.478409687498907e-10 -3.26561140796869e-09 -1.0
  outer loop
    vertex 16.999999420368237 0.19999997675327352 5.730498509049201e-09
    vertex 16.999999413756566 39.300000000000004 -1.2413739570449305e-07
    vertex 17.000000054787638 41.950000037713764 -1.1342799557849921e-07
  endloop
endfacet
facet normal 7.478409687498907e-10 -3.26561140796869e-09 -1.0
  outer loop
    vertex 16.999999420368237 0.19999997675327352 5.730498509049201e-09
    vertex 19.428175299016598 -2.4500006518344835 4.0083824908155844e-08
    vertex 16.99999934558394 -2.450000397479671 1.9202526896645994e-08
  endloop
endfacet
facet normal 7.478409687498907e-10 -3.26561140796869e-09 -1.0
  outer loop
    vertex 19.428175299016598 -2.4500006518344835 4.0083824908155844e-08
    vertex 16.999999420368237 0.19999997675327352 5.730498509049201e-09
    vertex 17.000000054787638 41.950000037713764 -1.1342799557849921e-07
  endloop
endfacet
facet normal 7.478409687498907e-10 -3.26561140796869e-09 -1.0
  outer loop
    vertex 19.428175299016598 -2.4500006518344835 4.0083824908155844e-08
    vertex 17.000000054787638 41.950000037713764 -1.1342799557849921e-07
    vertex 19.428175405420266 41.95000000900644 -1.1342799665682569e-07
  endloop
endfacet
facet normal -1.0 1.240405499195101e-09 4.113401869342296e-11
  outer loop
    vertex 2.5756998984100464e-09 -2.0500000422169977 2.299999865903558
    vertex 5.179125067636329e-09 0.20000000165404921 0.5846153595571701
    vertex 2.5756998984100464e-09 -2.0500000516410353 1.8999999389999493
  endloop
endfacet
facet normal -1.0 1.240405499195101e-09 4.113401869342296e-11
  outer loop
    vertex 5.179125067636329e-09 0.20000000165404921 0.5846153595571701
    vertex 2.5756998984100464e-09 -2.0500000422169977 2.299999865903558
    vertex 5.6815789337938895e-08 41.55000007797734 2.2999998694966686
  endloop
endfacet
facet normal -1.0 1.240405499195101e-09 4.113401869342296e-11
  outer loop
    vertex 5.179125067636329e-09 0.20000000165404921 0.5846153595571701
    vertex 5.6815789337938895e-08 41.55000007797734 2.2999998694966686
    vertex 5.3739014437059386e-08 39.30000000165405 0.5846152481759662
  endloop
endfacet
facet normal -1.0 1.240405499195101e-09 4.113401869342296e-11
  outer loop
    vertex 5.179125067636329e-09 0.20000000165404921 0.5846153595571701
    vertex 5.3739014437059386e-08 39.30000000165405 0.5846152481759662
    vertex 5.373901414775832e-08 39.300000000000004 -1.2413738815497677e-07
  endloop
endfacet
facet normal -1.0 1.240405499195101e-09 4.113401869342296e-11
  outer loop
    vertex 5.3739014437059386e-08 39.30000000165405 0.5846152481759662
    vertex 5.6815789337938895e-08 41.55000007797734 2.2999998694966686
    vertex 5.6815789337938895e-08 41.55000007376514 1.899999869496647
  endloop
endfacet
facet normal -1.0 1.240405499195101e-09 4.113401869342296e-11
  outer loop
    vertex 5.373901414775832e-08 39.300000000000004 -1.2413738815497677e-07
    vertex 5.652475088590616e-09 0.19999999999999998 5.73052861829737e-09
    vertex 5.179125067636329e-09 0.20000000165404921 0.5846153595571701
  endloop
endfacet
facet normal 6.837277720551474e-10 1.0 1.7052794810216966e-08
  outer loop
    vertex 5.373901414775832e-08 39.300000000000004 -1.2413738815497677e-07
    vertex 16.999999413756566 39.29999997840731 0.5846152481759717
    vertex 16.999999413756566 39.300000000000004 -1.2413739570449305e-07
  endloop
endfacet
facet normal 6.837277720551474e-10 1.0 1.7052794810216966e-08
  outer loop
    vertex 16.999999413756566 39.29999997840731 0.5846152481759717
    vertex 5.373901414775832e-08 39.300000000000004 -1.2413738815497677e-07
    vertex 5.3739014437059386e-08 39.30000000165405 0.5846152481759662
  endloop
endfacet
facet normal -1.4134199578045467e-09 -1.0 1.4926690248043526e-09
  outer loop
    vertex 16.999999420282712 0.19999997684449874 0.5846153507663849
    vertex 5.652475088590616e-09 0.19999999999999998 5.73052861829737e-09
    vertex 16.999999420368237 0.19999997675327352 5.730498509049201e-09
  endloop
endfacet
facet normal -1.4134199578045467e-09 -1.0 1.4926690248043526e-09
  outer loop
    vertex 5.652475088590616e-09 0.19999999999999998 5.73052861829737e-09
    vertex 16.999999420282712 0.19999997684449874 0.5846153507663849
    vertex 5.179125067636329e-09 0.20000000165404921 0.5846153595571701
  endloop
endfacet
facet normal 1.0998760402833726e-21 -3.8351544162651344e-14 1.0
  outer loop
    vertex 15.799999939572915 14.999999969064074 2.7999998609660475
    vertex 16.79999965278486 24.999999997742883 2.7999998609664307
    vertex 15.799999652784873 24.999999969064117 2.7999998609664534
  endloop
endfacet
facet normal 1.0998760402833726e-21 -3.8351544162651344e-14 1.0
  outer loop
    vertex 16.79999965278486 24.999999997742883 2.7999998609664307
    vertex 15.799999939572915 14.999999969064074 2.7999998609660475
    vertex 16.799999939572903 14.999999997742897 2.79999986096607
  endloop
endfacet
facet normal 0.9999999999999998 2.867880645851531e-08 2.2559732666384297e-14
  outer loop
    vertex 16.799999939572945 14.999999997742899 2.2999998609660373
    vertex 16.79999965278486 24.999999997742883 2.7999998609664307
    vertex 16.799999939572903 14.999999997742897 2.79999986096607
  endloop
endfacet
facet normal 0.9999999999999998 2.867880645851531e-08 2.2559732666384297e-14
  outer loop
    vertex 16.79999965278486 24.999999997742883 2.7999998609664307
    vertex 16.799999939572945 14.999999997742899 2.2999998609660373
    vertex 16.79999965278486 24.999999997742897 2.2999998609664205
  endloop
endfacet
facet normal -8.834675796577565e-10 -0.5046965698303213 -0.8632968043503391
  outer loop
    vertex 5.179125067636329e-09 0.20000000165404921 0.5846153595571701
    vertex 16.999999385649122 -2.050000071311359 1.8999999389999493
    vertex 2.5756998984100464e-09 -2.0500000516410353 1.8999999389999493
  endloop
endfacet
facet normal -8.834675796577565e-10 -0.5046965698303213 -0.8632968043503391
  outer loop
    vertex 16.999999385649122 -2.050000071311359 1.8999999389999493
    vertex 5.179125067636329e-09 0.20000000165404921 0.5846153595571701
    vertex 16.999999420282712 0.19999997684449874 0.5846153507663849
  endloop
endfacet
facet normal -0.9999999999999474 2.0344558964783404e-07 -2.5273122395286506e-07
  outer loop
    vertex 16.999999414805174 41.949999791367176 2.3000014763093057
    vertex 16.99999941683331 41.550000050518385 1.899999869496647
    vertex 16.999999416833305 41.54999979136718 2.3000014592339895
  endloop
endfacet
facet normal -0.9999999999999474 2.0344558964783404e-07 -2.5273122395286506e-07
  outer loop
    vertex 16.99999941683331 41.550000050518385 1.899999869496647
    vertex 16.999999413756566 39.300000000000004 -1.2413739570449305e-07
    vertex 16.999999413756566 39.29999997840731 0.5846152481759717
  endloop
endfacet
facet normal -0.9999999999999474 2.0344558964783404e-07 -2.5273122395286506e-07
  outer loop
    vertex 16.999999413756566 39.300000000000004 -1.2413739570449305e-07
    vertex 16.99999941683331 41.550000050518385 1.899999869496647
    vertex 17.000000054787638 41.950000037713764 -1.1342799557849921e-07
  endloop
endfacet
facet normal -0.9999999999999474 2.0344558964783404e-07 -2.5273122395286506e-07
  outer loop
    vertex 17.000000054787638 41.950000037713764 -1.1342799557849921e-07
    vertex 16.99999941683331 41.550000050518385 1.899999869496647
    vertex 16.999999414805174 41.949999791367176 2.3000014763093057
  endloop
endfacet
facet normal 6.901505235271998e-10 0.504696576973522 -0.8632968001743144
  outer loop
    vertex 5.6815789337938895e-08 41.55000007376514 1.899999869496647
    vertex 16.999999413756566 39.29999997840731 0.5846152481759717
    vertex 5.3739014437059386e-08 39.30000000165405 0.5846152481759662
  endloop
endfacet
facet normal 6.901505235271998e-10 0.504696576973522 -0.8632968001743144
  outer loop
    vertex 16.999999413756566 39.29999997840731 0.5846152481759717
    vertex 5.6815789337938895e-08 41.55000007376514 1.899999869496647
    vertex 16.99999941683331 41.550000050518385 1.899999869496647
  endloop
endfacet
facet normal -4.724269290852274e-08 -2.867554336955973e-08 0.9999999999999984
  outer loop
    vertex 16.99999938564912 -2.0500001332270985 2.2999998659034477
    vertex 5.6815789337938895e-08 41.55000007797734 2.2999998694966686
    vertex 2.5756998984100464e-09 -2.0500000422169977 2.299999865903558
  endloop
endfacet
facet normal -4.724269290852274e-08 -2.867554336955973e-08 0.9999999999999984
  outer loop
    vertex 5.6815789337938895e-08 41.55000007797734 2.2999998694966686
    vertex 16.99999938564912 -2.0500001332270985 2.2999998659034477
    vertex 13.799999939572892 14.999999911706501 2.299999860966061
  endloop
endfacet
facet normal -4.724269290852274e-08 -2.867554336955973e-08 0.9999999999999984
  outer loop
    vertex 5.6815789337938895e-08 41.55000007797734 2.2999998694966686
    vertex 13.799999939572892 14.999999911706501 2.299999860966061
    vertex 13.799999652784873 24.999999911706475 2.2999998609664334
  endloop
endfacet
facet normal -4.724269290852274e-08 -2.867554336955973e-08 0.9999999999999984
  outer loop
    vertex 13.799999939572892 14.999999911706501 2.299999860966061
    vertex 16.99999938564912 -2.0500001332270985 2.2999998659034477
    vertex 16.799999939572945 14.999999997742899 2.2999998609660373
  endloop
endfacet
facet normal -4.724269290852274e-08 -2.867554336955973e-08 0.9999999999999984
  outer loop
    vertex 19.428426268217738 -2.4500002169880846 2.2999998730096456
    vertex 16.99999938564912 -2.0500001332270985 2.2999998659034477
    vertex 16.999999345110584 -2.4500001332270953 2.299999873009661
  endloop
endfacet
facet normal -4.724269290852274e-08 -2.867554336955973e-08 0.9999999999999984
  outer loop
    vertex 16.99999938564912 -2.0500001332270985 2.2999998659034477
    vertex 19.428426268217738 -2.4500002169880846 2.2999998730096456
    vertex 16.999999416833305 41.54999979136718 2.3000014592339895
  endloop
endfacet
facet normal -4.724269290852274e-08 -2.867554336955973e-08 0.9999999999999984
  outer loop
    vertex 16.999999416833305 41.54999979136718 2.3000014592339895
    vertex 19.42842784104266 41.94999945425465 2.300001703401273
    vertex 16.999999414805174 41.949999791367176 2.3000014763093057
  endloop
endfacet
facet normal -4.724269290852274e-08 -2.867554336955973e-08 0.9999999999999984
  outer loop
    vertex 19.42842784104266 41.94999945425465 2.300001703401273
    vertex 16.999999416833305 41.54999979136718 2.3000014592339895
    vertex 19.428426268217738 -2.4500002169880846 2.2999998730096456
  endloop
endfacet
facet normal -4.724269290852274e-08 -2.867554336955973e-08 0.9999999999999984
  outer loop
    vertex 13.799999652784873 24.999999911706475 2.2999998609664334
    vertex 16.999999416833305 41.54999979136718 2.3000014592339895
    vertex 5.6815789337938895e-08 41.55000007797734 2.2999998694966686
  endloop
endfacet
facet normal -4.724269290852274e-08 -2.867554336955973e-08 0.9999999999999984
  outer loop
    vertex 16.999999416833305 41.54999979136718 2.3000014592339895
    vertex 13.799999652784873 24.999999911706475 2.2999998609664334
    vertex 16.79999965278486 24.999999997742897 2.2999998609664205
  endloop
endfacet
facet normal -4.724269290852274e-08 -2.867554336955973e-08 0.9999999999999984
  outer loop
    vertex 16.999999416833305 41.54999979136718 2.3000014592339895
    vertex 16.79999965278486 24.999999997742897 2.2999998609664205
    vertex 16.799999939572945 14.999999997742899 2.2999998609660373
  endloop
endfacet
facet normal -4.724269290852274e-08 -2.867554336955973e-08 0.9999999999999984
  outer loop
    vertex 16.999999416833305 41.54999979136718 2.3000014592339895
    vertex 16.799999939572945 14.999999997742899 2.2999998609660373
    vertex 16.99999938564912 -2.0500001332270985 2.2999998659034477
  endloop
endfacet
facet normal 9.11342423210217e-09 0.9999999999999492 3.186737806926039e-07
  outer loop
    vertex 5.6815789337938895e-08 41.55000007797734 2.2999998694966686
    vertex 16.99999941683331 41.550000050518385 1.899999869496647
    vertex 5.6815789337938895e-08 41.55000007376514 1.899999869496647
  endloop
endfacet
facet normal 9.11342423210217e-09 0.9999999999999492 3.186737806926039e-07
  outer loop
    vertex 16.99999941683331 41.550000050518385 1.899999869496647
    vertex 5.6815789337938895e-08 41.55000007797734 2.2999998694966686
    vertex 16.999999416833305 41.54999979136718 2.3000014592339895
  endloop
endfacet
facet normal -1.1510739605335837e-08 0.999999999999998 6.442365365265515e-08
  outer loop
    vertex 17.000000054787638 41.950000037713764 -1.1342799557849921e-07
    vertex 21.428175405420287 41.949999973388664 1.5999998865720109
    vertex 19.428175405420266 41.95000000900644 -1.1342799665682569e-07
  endloop
endfacet
facet normal -1.1510739605335837e-08 0.999999999999998 6.442365365265515e-08
  outer loop
    vertex 21.428175405420287 41.949999973388664 1.5999998865720109
    vertex 17.000000054787638 41.950000037713764 -1.1342799557849921e-07
    vertex 16.999999414805174 41.949999791367176 2.3000014763093057
  endloop
endfacet
facet normal -1.1510739605335837e-08 0.999999999999998 6.442365365265515e-08
  outer loop
    vertex 21.428175405420287 41.949999973388664 1.5999998865720109
    vertex 16.999999414805174 41.949999791367176 2.3000014763093057
    vertex 19.42842784104266 41.94999945425465 2.300001703401273
  endloop
endfacet
facet normal -1.1510739605335837e-08 0.999999999999998 6.442365365265515e-08
  outer loop
    vertex 21.428175405420287 41.949999973388664 1.5999998865720109
    vertex 19.42842784104266 41.94999945425465 2.300001703401273
    vertex 21.428175405420287 41.94999996291228 3.0000535940524804
  endloop
endfacet
facet normal -1.1510739605335837e-08 0.999999999999998 6.442365365265515e-08
  outer loop
    vertex 21.428175405420287 41.94999996291228 3.0000535940524804
    vertex 19.42842784104266 41.94999945425465 2.300001703401273
    vertex 20.428175405420287 41.94999996291228 3.000053594052481
  endloop
endfacet
facet normal -1.744302900188039e-07 -0.9999999999999829 6.418371054229328e-08
  outer loop
    vertex 21.428175299016594 -2.450000893024124 3.000054611815876
    vertex 19.428426268217738 -2.4500002169880846 2.2999998730096456
    vertex 21.428175299016594 -2.4500008782366147 1.6000000572829998
  endloop
endfacet
facet normal -1.744302900188039e-07 -0.9999999999999829 6.418371054229328e-08
  outer loop
    vertex 19.428426268217738 -2.4500002169880846 2.2999998730096456
    vertex 21.428175299016594 -2.450000893024124 3.000054611815876
    vertex 20.428175299016594 -2.450000893024124 3.0000546118158877
  endloop
endfacet
facet normal -1.744302900188039e-07 -0.9999999999999829 6.418371054229328e-08
  outer loop
    vertex 19.428175299016598 -2.4500006518344835 4.0083824908155844e-08
    vertex 16.999999345110584 -2.4500001332270953 2.299999873009661
    vertex 16.99999934558394 -2.450000397479671 1.9202526896645994e-08
  endloop
endfacet
facet normal -1.744302900188039e-07 -0.9999999999999829 6.418371054229328e-08
  outer loop
    vertex 16.999999345110584 -2.4500001332270953 2.299999873009661
    vertex 19.428175299016598 -2.4500006518344835 4.0083824908155844e-08
    vertex 21.428175299016594 -2.4500008782366147 1.6000000572829998
  endloop
endfacet
facet normal -1.744302900188039e-07 -0.9999999999999829 6.418371054229328e-08
  outer loop
    vertex 16.999999345110584 -2.4500001332270953 2.299999873009661
    vertex 21.428175299016594 -2.4500008782366147 1.6000000572829998
    vertex 19.428426268217738 -2.4500002169880846 2.2999998730096456
  endloop
endfacet
facet normal -0.9999999999999996 2.797628955068414e-08 8.34451061647159e-09
  outer loop
    vertex 16.99999934558394 -2.450000397479671 1.9202526896645994e-08
    vertex 16.999999385649122 -2.050000071311359 1.8999999389999493
    vertex 16.999999420368237 0.19999997675327352 5.730498509049201e-09
  endloop
endfacet
facet normal -0.9999999999999996 2.797628955068414e-08 8.34451061647159e-09
  outer loop
    vertex 16.999999385649122 -2.050000071311359 1.8999999389999493
    vertex 16.99999934558394 -2.450000397479671 1.9202526896645994e-08
    vertex 16.999999345110584 -2.4500001332270953 2.299999873009661
  endloop
endfacet
facet normal -0.9999999999999996 2.797628955068414e-08 8.34451061647159e-09
  outer loop
    vertex 16.999999385649122 -2.050000071311359 1.8999999389999493
    vertex 16.999999345110584 -2.4500001332270953 2.299999873009661
    vertex 16.99999938564912 -2.0500001332270985 2.2999998659034477
  endloop
endfacet
facet normal -0.9999999999999996 2.797628955068414e-08 8.34451061647159e-09
  outer loop
    vertex 16.999999420368237 0.19999997675327352 5.730498509049201e-09
    vertex 16.999999385649122 -2.050000071311359 1.8999999389999493
    vertex 16.999999420282712 0.19999997684449874 0.5846153507663849
  endloop
endfacet
facet normal 2.8678800418328606e-08 -0.9999999999999998 -1.4372731161165034e-14
  outer loop
    vertex 16.799999939572903 14.999999997742897 2.79999986096607
    vertex 13.799999939572892 14.999999911706501 2.299999860966061
    vertex 16.799999939572945 14.999999997742899 2.2999998609660373
  endloop
endfacet
facet normal 2.8678800418328606e-08 -0.9999999999999998 -1.4372731161165034e-14
  outer loop
    vertex 13.799999939572892 14.999999911706501 2.299999860966061
    vertex 16.799999939572903 14.999999997742897 2.79999986096607
    vertex 15.799999939572915 14.999999969064074 2.7999998609660475
  endloop
endfacet
facet normal -2.867880351119562e-08 0.9999999999999998 -1.619206549550177e-14
  outer loop
    vertex 13.799999652784873 24.999999911706475 2.2999998609664334
    vertex 16.79999965278486 24.999999997742883 2.7999998609664307
    vertex 16.79999965278486 24.999999997742897 2.2999998609664205
  endloop
endfacet
facet normal -2.867880351119562e-08 0.9999999999999998 -1.619206549550177e-14
  outer loop
    vertex 16.79999965278486 24.999999997742883 2.7999998609664307
    vertex 13.799999652784873 24.999999911706475 2.2999998609664334
    vertex 15.799999652784873 24.999999969064117 2.7999998609664534
  endloop
endfacet
facet normal -0.24253562503633308 -6.955669179990493e-09 0.9701425001453319
  outer loop
    vertex 13.799999939572892 14.999999911706501 2.299999860966061
    vertex 15.799999652784873 24.999999969064117 2.7999998609664534
    vertex 13.799999652784873 24.999999911706475 2.2999998609664334
  endloop
endfacet
facet normal -0.24253562503633308 -6.955669179990493e-09 0.9701425001453319
  outer loop
    vertex 15.799999652784873 24.999999969064117 2.7999998609664534
    vertex 13.799999939572892 14.999999911706501 2.299999860966061
    vertex 15.799999939572915 14.999999969064074 2.7999998609660475
  endloop
endfacet
endsolid HandRemote-V2SideCover
