solid HandRemote-BatteryInsulatorPlate
facet normal -8.340309165156478e-17 5.450648423536501e-17 1.0
  outer loop
    vertex 56.64531364385072 0.0 1.000000000000003
    vertex 0.0 16.999999999999986 0.9999999999999999
    vertex 0.0 0.0 1.0000000000000018
  endloop
endfacet
facet normal -8.340309165156478e-17 5.450648423536501e-17 1.0
  outer loop
    vertex 0.0 16.999999999999986 0.9999999999999999
    vertex 56.64531364385072 0.0 1.000000000000003
    vertex 10.0 16.999999999999986 0.9999999999999999
  endloop
endfacet
facet normal -8.340309165156478e-17 5.450648423536501e-17 1.0
  outer loop
    vertex 10.0 16.999999999999986 0.9999999999999999
    vertex 56.64531364385072 0.0 1.000000000000003
    vertex 24.99999999999999 24.0 0.9999999999999443
  endloop
endfacet
facet normal -8.340309165156478e-17 5.450648423536501e-17 1.0
  outer loop
    vertex 24.99999999999999 24.0 0.9999999999999443
    vertex 56.64531364385072 0.0 1.000000000000003
    vertex 42.999999999999986 23.999999999999957 0.9999999999999477
  endloop
endfacet
facet normal -8.340309165156478e-17 5.450648423536501e-17 1.0
  outer loop
    vertex 42.999999999999986 23.999999999999957 0.9999999999999477
    vertex 56.64531364385072 0.0 1.000000000000003
    vertex 43.0 28.999999999999957 1.0000000000000042
  endloop
endfacet
facet normal -8.340309165156478e-17 5.450648423536501e-17 1.0
  outer loop
    vertex 43.0 28.999999999999957 1.0000000000000042
    vertex 56.64531364385072 0.0 1.000000000000003
    vertex 56.64531364385072 28.999999999999986 1.000000000000006
  endloop
endfacet
facet normal -8.340309165156478e-17 5.450648423536501e-17 1.0
  outer loop
    vertex 10.0 16.999999999999986 0.9999999999999999
    vertex 24.999999999999996 28.999999999999996 1.0000000000000007
    vertex 9.999999999999998 28.999999999999996 0.9999999999999981
  endloop
endfacet
facet normal -8.340309165156478e-17 5.450648423536501e-17 1.0
  outer loop
    vertex 24.999999999999996 28.999999999999996 1.0000000000000007
    vertex 10.0 16.999999999999986 0.9999999999999999
    vertex 24.99999999999999 24.0 0.9999999999999443
  endloop
endfacet
facet normal 0.0 -1.0 0.0
  outer loop
    vertex 56.64531364385072 0.0 3.084338340286763e-15
    vertex 0.0 0.0 1.0000000000000018
    vertex 8.044287923426652e-17 0.0 1.674355099012814e-15
  endloop
endfacet
facet normal 0.0 -1.0 0.0
  outer loop
    vertex 0.0 0.0 1.0000000000000018
    vertex 56.64531364385072 0.0 3.084338340286763e-15
    vertex 56.64531364385072 0.0 1.000000000000003
  endloop
endfacet
facet normal 1.0 0.0 0.0
  outer loop
    vertex 56.64531364385072 28.999999999999986 5.9043048228346605e-15
    vertex 56.64531364385072 0.0 1.000000000000003
    vertex 56.64531364385072 0.0 3.084338340286763e-15
  endloop
endfacet
facet normal 1.0 0.0 0.0
  outer loop
    vertex 56.64531364385072 0.0 1.000000000000003
    vertex 56.64531364385072 28.999999999999986 5.9043048228346605e-15
    vertex 56.64531364385072 28.999999999999986 1.000000000000006
  endloop
endfacet
facet normal 6.317091649018823e-17 5.655259830464982e-17 -1.0
  outer loop
    vertex 24.999999999999996 29.000000000000004 4.0260522296133426e-15
    vertex 10.0 16.999999999999986 0.0
    vertex 10.0 28.999999999999996 3.084338340286763e-15
  endloop
endfacet
facet normal 6.317091649018823e-17 5.655259830464982e-17 -1.0
  outer loop
    vertex 10.0 16.999999999999986 0.0
    vertex 24.999999999999996 29.000000000000004 4.0260522296133426e-15
    vertex 24.99999999999999 24.000000000000004 -5.2373277421344763e-14
  endloop
endfacet
facet normal 6.317091649018823e-17 5.655259830464982e-17 -1.0
  outer loop
    vertex 10.0 16.999999999999986 0.0
    vertex 8.044287923426652e-17 0.0 1.674355099012814e-15
    vertex 8.044287923426652e-17 16.999999999999986 0.0
  endloop
endfacet
facet normal 6.317091649018823e-17 5.655259830464982e-17 -1.0
  outer loop
    vertex 8.044287923426652e-17 0.0 1.674355099012814e-15
    vertex 10.0 16.999999999999986 0.0
    vertex 56.64531364385072 0.0 3.084338340286763e-15
  endloop
endfacet
facet normal 6.317091649018823e-17 5.655259830464982e-17 -1.0
  outer loop
    vertex 56.64531364385072 0.0 3.084338340286763e-15
    vertex 10.0 16.999999999999986 0.0
    vertex 24.99999999999999 24.000000000000004 -5.2373277421344763e-14
  endloop
endfacet
facet normal 6.317091649018823e-17 5.655259830464982e-17 -1.0
  outer loop
    vertex 56.64531364385072 0.0 3.084338340286763e-15
    vertex 24.99999999999999 24.000000000000004 -5.2373277421344763e-14
    vertex 42.999999999999986 23.999999999999975 -5.1304049850061236e-14
  endloop
endfacet
facet normal 6.317091649018823e-17 5.655259830464982e-17 -1.0
  outer loop
    vertex 56.64531364385072 0.0 3.084338340286763e-15
    vertex 42.999999999999986 23.999999999999975 -5.1304049850061236e-14
    vertex 43.0 28.999999999999975 5.095279800896868e-15
  endloop
endfacet
facet normal 6.317091649018823e-17 5.655259830464982e-17 -1.0
  outer loop
    vertex 56.64531364385072 0.0 3.084338340286763e-15
    vertex 43.0 28.999999999999975 5.095279800896868e-15
    vertex 56.64531364385072 28.999999999999986 5.9043048228346605e-15
  endloop
endfacet
facet normal -1.0 -1.007130886624247e-16 -7.049916206369745e-16
  outer loop
    vertex 9.999999999999998 28.999999999999996 0.9999999999999981
    vertex 10.0 16.999999999999986 0.0
    vertex 10.0 16.999999999999986 0.9999999999999999
  endloop
endfacet
facet normal -1.0 -1.007130886624247e-16 -7.049916206369745e-16
  outer loop
    vertex 10.0 16.999999999999986 0.0
    vertex 9.999999999999998 28.999999999999996 0.9999999999999981
    vertex 10.0 28.999999999999996 3.084338340286763e-15
  endloop
endfacet
facet normal 0.0 1.0 0.0
  outer loop
    vertex 0.0 16.999999999999986 0.9999999999999999
    vertex 10.0 16.999999999999986 0.0
    vertex 8.044287923426652e-17 16.999999999999986 0.0
  endloop
endfacet
facet normal 0.0 1.0 0.0
  outer loop
    vertex 10.0 16.999999999999986 0.0
    vertex 0.0 16.999999999999986 0.9999999999999999
    vertex 10.0 16.999999999999986 0.9999999999999999
  endloop
endfacet
facet normal -1.0 -7.63226668996185e-33 -8.04428792342665e-17
  outer loop
    vertex 0.0 16.999999999999986 0.9999999999999999
    vertex 8.044287923426652e-17 0.0 1.674355099012814e-15
    vertex 0.0 0.0 1.0000000000000018
  endloop
endfacet
facet normal -1.0 -7.63226668996185e-33 -8.04428792342665e-17
  outer loop
    vertex 8.044287923426652e-17 0.0 1.674355099012814e-15
    vertex 0.0 16.999999999999986 0.9999999999999999
    vertex 8.044287923426652e-17 16.999999999999986 0.0
  endloop
endfacet
facet normal -1.8799776550319352e-16 1.0 2.8199664825479117e-15
  outer loop
    vertex 9.999999999999998 28.999999999999996 0.9999999999999981
    vertex 24.999999999999996 29.000000000000004 4.0260522296133426e-15
    vertex 10.0 28.999999999999996 3.084338340286763e-15
  endloop
endfacet
facet normal -1.8799776550319352e-16 1.0 2.8199664825479117e-15
  outer loop
    vertex 24.999999999999996 29.000000000000004 4.0260522296133426e-15
    vertex 9.999999999999998 28.999999999999996 0.9999999999999981
    vertex 24.999999999999996 28.999999999999996 1.0000000000000007
  endloop
endfacet
facet normal -1.4466333199113417e-15 1.0 8.459899447643695e-15
  outer loop
    vertex 43.0 28.999999999999957 1.0000000000000042
    vertex 56.64531364385072 28.999999999999986 5.9043048228346605e-15
    vertex 43.0 28.999999999999975 5.095279800896868e-15
  endloop
endfacet
facet normal -1.4466333199113417e-15 1.0 8.459899447643695e-15
  outer loop
    vertex 56.64531364385072 28.999999999999986 5.9043048228346605e-15
    vertex 43.0 28.999999999999957 1.0000000000000042
    vertex 56.64531364385072 28.999999999999986 1.000000000000006
  endloop
endfacet
facet normal 1.8799776550319298e-15 1.0 1.1279865930191621e-14
  outer loop
    vertex 24.99999999999999 24.0 0.9999999999999443
    vertex 42.999999999999986 23.999999999999975 -5.1304049850061236e-14
    vertex 24.99999999999999 24.000000000000004 -5.2373277421344763e-14
  endloop
endfacet
facet normal 1.8799776550319298e-15 1.0 1.1279865930191621e-14
  outer loop
    vertex 42.999999999999986 23.999999999999975 -5.1304049850061236e-14
    vertex 24.99999999999999 24.0 0.9999999999999443
    vertex 42.999999999999986 23.999999999999957 0.9999999999999477
  endloop
endfacet
facet normal 1.0 -1.87997765503193e-15 -1.060294795025811e-29
  outer loop
    vertex 24.99999999999999 24.000000000000004 -5.2373277421344763e-14
    vertex 24.999999999999996 28.999999999999996 1.0000000000000007
    vertex 24.99999999999999 24.0 0.9999999999999443
  endloop
endfacet
facet normal 1.0 -1.87997765503193e-15 -1.060294795025811e-29
  outer loop
    vertex 24.999999999999996 28.999999999999996 1.0000000000000007
    vertex 24.99999999999999 24.000000000000004 -5.2373277421344763e-14
    vertex 24.999999999999996 29.000000000000004 4.0260522296133426e-15
  endloop
endfacet
facet normal -1.0 1.8799776550319298e-15 3.1808843850774247e-29
  outer loop
    vertex 43.0 28.999999999999957 1.0000000000000042
    vertex 42.999999999999986 23.999999999999975 -5.1304049850061236e-14
    vertex 42.999999999999986 23.999999999999957 0.9999999999999477
  endloop
endfacet
facet normal -1.0 1.8799776550319298e-15 3.1808843850774247e-29
  outer loop
    vertex 42.999999999999986 23.999999999999975 -5.1304049850061236e-14
    vertex 43.0 28.999999999999957 1.0000000000000042
    vertex 43.0 28.999999999999975 5.095279800896868e-15
  endloop
endfacet
endsolid HandRemote-BatteryInsulatorPlate
