solid WL-HandRemote-BackCover
facet normal -1.2982434586637964e-16 -6.970905867286808e-17 1.0
  outer loop
    vertex -85.99999999999999 -1.361244447520191e-16 2.0000000000000377
    vertex -44.299038105676665 1.7499999999999996 2.000000000000041
    vertex -85.99999999999999 63.99999999999999 2.0000000000000377
  endloop
endfacet
facet normal -1.2982434586637964e-16 -6.970905867286808e-17 1.0
  outer loop
    vertex -44.299038105676665 1.7499999999999996 2.000000000000041
    vertex -85.99999999999999 -1.361244447520191e-16 2.0000000000000377
    vertex -44.060660171779816 1.4393398282201786 2.000000000000041
  endloop
endfacet
facet normal -1.2982434586637964e-16 -6.970905867286808e-17 1.0
  outer loop
    vertex -44.060660171779816 1.4393398282201786 2.000000000000041
    vertex -85.99999999999999 -1.361244447520191e-16 2.0000000000000377
    vertex -43.75 1.2009618943233416 2.000000000000041
  endloop
endfacet
facet normal -1.2982434586637964e-16 -6.970905867286808e-17 1.0
  outer loop
    vertex -43.75 1.2009618943233416 2.000000000000041
    vertex -85.99999999999999 -1.361244447520191e-16 2.0000000000000377
    vertex -43.38822856765379 1.0511112605663973 2.000000000000041
  endloop
endfacet
facet normal -1.2982434586637964e-16 -6.970905867286808e-17 1.0
  outer loop
    vertex -43.38822856765379 1.0511112605663973 2.000000000000041
    vertex -85.99999999999999 -1.361244447520191e-16 2.0000000000000377
    vertex -42.99999999999999 0.9999999999999996 2.000000000000041
  endloop
endfacet
facet normal -1.2982434586637964e-16 -6.970905867286808e-17 1.0
  outer loop
    vertex -42.99999999999999 0.9999999999999996 2.000000000000041
    vertex -85.99999999999999 -1.361244447520191e-16 2.0000000000000377
    vertex -2.4419205815757444e-16 -1.361244447520191e-16 2.000000000000042
  endloop
endfacet
facet normal -1.2982434586637964e-16 -6.970905867286808e-17 1.0
  outer loop
    vertex -85.99999999999999 63.99999999999999 2.0000000000000377
    vertex -44.299038105676665 1.7499999999999996 2.000000000000041
    vertex -44.44888873943359 2.111771432346219 2.000000000000041
  endloop
endfacet
facet normal -1.2982434586637964e-16 -6.970905867286808e-17 1.0
  outer loop
    vertex -85.99999999999999 63.99999999999999 2.0000000000000377
    vertex -44.44888873943359 2.111771432346219 2.000000000000041
    vertex -68.99999999999994 63.99999999999999 2.000000000000041
  endloop
endfacet
facet normal -1.2982434586637964e-16 -6.970905867286808e-17 1.0
  outer loop
    vertex -68.99999999999994 63.99999999999999 2.000000000000041
    vertex -44.44888873943359 2.111771432346219 2.000000000000041
    vertex -68.99999999999994 114.99999999999997 2.000000000000041
  endloop
endfacet
facet normal -1.2982434586637964e-16 -6.970905867286808e-17 1.0
  outer loop
    vertex -68.99999999999994 114.99999999999997 2.000000000000041
    vertex -44.44888873943359 2.111771432346219 2.000000000000041
    vertex -44.499999999999986 2.4999999999999996 2.000000000000041
  endloop
endfacet
facet normal -1.2982434586637964e-16 -6.970905867286808e-17 1.0
  outer loop
    vertex -68.99999999999994 114.99999999999997 2.000000000000041
    vertex -44.499999999999986 2.4999999999999996 2.000000000000041
    vertex -56.35816950629729 114.99999999999997 2.0000000000000435
  endloop
endfacet
facet normal -1.2982434586637964e-16 -6.970905867286808e-17 1.0
  outer loop
    vertex -56.35816950629729 114.99999999999997 2.0000000000000435
    vertex -44.499999999999986 2.4999999999999996 2.000000000000041
    vertex -51.895313643850706 120.99999999999999 2.0000000000000377
  endloop
endfacet
facet normal -1.2982434586637964e-16 -6.970905867286808e-17 1.0
  outer loop
    vertex -42.99999999999999 0.9999999999999996 2.000000000000041
    vertex -2.4419205815757444e-16 -1.361244447520191e-16 2.000000000000042
    vertex -42.61177143234622 1.0511112605663966 2.000000000000041
  endloop
endfacet
facet normal -1.2982434586637964e-16 -6.970905867286808e-17 1.0
  outer loop
    vertex -42.61177143234622 1.0511112605663966 2.000000000000041
    vertex -2.4419205815757444e-16 -1.361244447520191e-16 2.000000000000042
    vertex -42.249999999999986 1.2009618943233416 2.000000000000041
  endloop
endfacet
facet normal -1.2982434586637964e-16 -6.970905867286808e-17 1.0
  outer loop
    vertex -42.249999999999986 1.2009618943233416 2.000000000000041
    vertex -2.4419205815757444e-16 -1.361244447520191e-16 2.000000000000042
    vertex -41.93933982822017 1.4393398282201786 2.000000000000041
  endloop
endfacet
facet normal -1.2982434586637964e-16 -6.970905867286808e-17 1.0
  outer loop
    vertex -41.93933982822017 1.4393398282201786 2.000000000000041
    vertex -2.4419205815757444e-16 -1.361244447520191e-16 2.000000000000042
    vertex -41.700961894323335 1.749999999999999 2.000000000000041
  endloop
endfacet
facet normal -1.2982434586637964e-16 -6.970905867286808e-17 1.0
  outer loop
    vertex -41.700961894323335 1.749999999999999 2.000000000000041
    vertex -2.4419205815757444e-16 -1.361244447520191e-16 2.000000000000042
    vertex -41.551111260566394 2.1117714323462176 2.000000000000041
  endloop
endfacet
facet normal -1.2982434586637964e-16 -6.970905867286808e-17 1.0
  outer loop
    vertex -41.551111260566394 2.1117714323462176 2.000000000000041
    vertex -2.4419205815757444e-16 -1.361244447520191e-16 2.000000000000042
    vertex -41.5 2.4999999999999982 2.000000000000041
  endloop
endfacet
facet normal -1.2982434586637964e-16 -6.970905867286808e-17 1.0
  outer loop
    vertex -41.5 2.4999999999999982 2.000000000000041
    vertex -2.4419205815757444e-16 -1.361244447520191e-16 2.000000000000042
    vertex -30.21053587466985 120.99999999999999 2.000000000000066
  endloop
endfacet
facet normal -1.2982434586637964e-16 -6.970905867286808e-17 1.0
  outer loop
    vertex -30.21053587466985 120.99999999999999 2.000000000000066
    vertex -2.4419205815757444e-16 -1.361244447520191e-16 2.000000000000042
    vertex -21.895313643850717 111.99999999999997 2.000000000000054
  endloop
endfacet
facet normal -1.2982434586637964e-16 -6.970905867286808e-17 1.0
  outer loop
    vertex -21.895313643850717 111.99999999999997 2.000000000000054
    vertex -2.4419205815757444e-16 -1.361244447520191e-16 2.000000000000042
    vertex -1.434402447089707e-14 111.99999999999997 2.000000000000048
  endloop
endfacet
facet normal -1.2982434586637964e-16 -6.970905867286808e-17 1.0
  outer loop
    vertex -44.499999999999986 2.4999999999999996 2.000000000000041
    vertex -30.21053587466985 120.99999999999999 2.000000000000066
    vertex -51.895313643850706 120.99999999999999 2.0000000000000377
  endloop
endfacet
facet normal -1.2982434586637964e-16 -6.970905867286808e-17 1.0
  outer loop
    vertex -30.21053587466985 120.99999999999999 2.000000000000066
    vertex -44.499999999999986 2.4999999999999996 2.000000000000041
    vertex -44.44888873943359 2.8882285676537798 2.000000000000041
  endloop
endfacet
facet normal -1.2982434586637964e-16 -6.970905867286808e-17 1.0
  outer loop
    vertex -30.21053587466985 120.99999999999999 2.000000000000066
    vertex -44.44888873943359 2.8882285676537798 2.000000000000041
    vertex -44.299038105676665 3.2499999999999996 2.000000000000041
  endloop
endfacet
facet normal -1.2982434586637964e-16 -6.970905867286808e-17 1.0
  outer loop
    vertex -30.21053587466985 120.99999999999999 2.000000000000066
    vertex -44.299038105676665 3.2499999999999996 2.000000000000041
    vertex -44.060660171779816 3.5606601717798223 2.000000000000041
  endloop
endfacet
facet normal -1.2982434586637964e-16 -6.970905867286808e-17 1.0
  outer loop
    vertex -30.21053587466985 120.99999999999999 2.000000000000066
    vertex -44.060660171779816 3.5606601717798223 2.000000000000041
    vertex -43.75 3.79903810567666 2.000000000000041
  endloop
endfacet
facet normal -1.2982434586637964e-16 -6.970905867286808e-17 1.0
  outer loop
    vertex -30.21053587466985 120.99999999999999 2.000000000000066
    vertex -43.75 3.79903810567666 2.000000000000041
    vertex -43.38822856765379 3.9488887394336034 2.000000000000041
  endloop
endfacet
facet normal -1.2982434586637964e-16 -6.970905867286808e-17 1.0
  outer loop
    vertex -30.21053587466985 120.99999999999999 2.000000000000066
    vertex -43.38822856765379 3.9488887394336034 2.000000000000041
    vertex -42.99999999999999 4.000000000000001 2.000000000000041
  endloop
endfacet
facet normal -1.2982434586637964e-16 -6.970905867286808e-17 1.0
  outer loop
    vertex -30.21053587466985 120.99999999999999 2.000000000000066
    vertex -42.99999999999999 4.000000000000001 2.000000000000041
    vertex -42.61177143234622 3.9488887394336034 2.000000000000041
  endloop
endfacet
facet normal -1.2982434586637964e-16 -6.970905867286808e-17 1.0
  outer loop
    vertex -30.21053587466985 120.99999999999999 2.000000000000066
    vertex -42.61177143234622 3.9488887394336034 2.000000000000041
    vertex -42.249999999999986 3.799038105676657 2.000000000000041
  endloop
endfacet
facet normal -1.2982434586637964e-16 -6.970905867286808e-17 1.0
  outer loop
    vertex -30.21053587466985 120.99999999999999 2.000000000000066
    vertex -42.249999999999986 3.799038105676657 2.000000000000041
    vertex -41.93933982822017 3.5606601717798223 2.000000000000041
  endloop
endfacet
facet normal -1.2982434586637964e-16 -6.970905867286808e-17 1.0
  outer loop
    vertex -30.21053587466985 120.99999999999999 2.000000000000066
    vertex -41.93933982822017 3.5606601717798223 2.000000000000041
    vertex -41.700961894323335 3.2499999999999996 2.000000000000041
  endloop
endfacet
facet normal -1.2982434586637964e-16 -6.970905867286808e-17 1.0
  outer loop
    vertex -30.21053587466985 120.99999999999999 2.000000000000066
    vertex -41.700961894323335 3.2499999999999996 2.000000000000041
    vertex -41.551111260566394 2.8882285676537798 2.000000000000041
  endloop
endfacet
facet normal -1.2982434586637964e-16 -6.970905867286808e-17 1.0
  outer loop
    vertex -30.21053587466985 120.99999999999999 2.000000000000066
    vertex -41.551111260566394 2.8882285676537798 2.000000000000041
    vertex -41.5 2.4999999999999982 2.000000000000041
  endloop
endfacet
facet normal -1.0 0.0 -1.2209602907878724e-16
  outer loop
    vertex -85.99999999999999 63.99999999999999 2.0000000000000377
    vertex -85.99999999999999 0.0 3.810088468990279e-14
    vertex -85.99999999999999 -1.361244447520191e-16 2.0000000000000377
  endloop
endfacet
facet normal -1.0 0.0 -1.2209602907878724e-16
  outer loop
    vertex -85.99999999999999 0.0 3.810088468990279e-14
    vertex -85.99999999999999 63.99999999999999 2.0000000000000377
    vertex -85.99999999999999 63.99999999999999 3.810088468990279e-14
  endloop
endfacet
facet normal -1.1290187401651058e-32 1.0 6.806222237600958e-17
  outer loop
    vertex -85.99999999999999 63.99999999999999 2.0000000000000377
    vertex -68.99999999999994 63.99999999999999 4.092085117245068e-14
    vertex -85.99999999999999 63.99999999999999 3.810088468990279e-14
  endloop
endfacet
facet normal -1.1290187401651058e-32 1.0 6.806222237600958e-17
  outer loop
    vertex -68.99999999999994 63.99999999999999 4.092085117245068e-14
    vertex -85.99999999999999 63.99999999999999 2.0000000000000377
    vertex -68.99999999999994 63.99999999999999 2.000000000000041
  endloop
endfacet
facet normal -1.0 0.0 -1.2209602907878722e-16
  outer loop
    vertex -68.99999999999994 114.99999999999997 2.000000000000041
    vertex -68.99999999999994 63.99999999999999 4.092085117245068e-14
    vertex -68.99999999999994 63.99999999999999 2.000000000000041
  endloop
endfacet
facet normal -1.0 0.0 -1.2209602907878722e-16
  outer loop
    vertex -68.99999999999994 63.99999999999999 4.092085117245068e-14
    vertex -68.99999999999994 114.99999999999997 2.000000000000041
    vertex -68.99999999999994 114.99999999999997 4.092085117245068e-14
  endloop
endfacet
facet normal -1.518238881020255e-32 1.0 6.806222237600959e-17
  outer loop
    vertex -68.99999999999994 114.99999999999997 2.000000000000041
    vertex -56.35816950629729 114.99999999999997 4.3740817654998583e-14
    vertex -68.99999999999994 114.99999999999997 4.092085117245068e-14
  endloop
endfacet
facet normal -1.518238881020255e-32 1.0 6.806222237600959e-17
  outer loop
    vertex -56.35816950629729 114.99999999999997 4.3740817654998583e-14
    vertex -68.99999999999994 114.99999999999997 2.000000000000041
    vertex -56.35816950629729 114.99999999999997 2.0000000000000435
  endloop
endfacet
facet normal -0.8023779745104592 0.5968162079070015 -5.73465270478343e-17
  outer loop
    vertex -51.895313643850706 120.99999999999999 2.0000000000000377
    vertex -56.35816950629729 114.99999999999997 4.3740817654998583e-14
    vertex -56.35816950629729 114.99999999999997 2.0000000000000435
  endloop
endfacet
facet normal -0.8023779745104592 0.5968162079070015 -5.73465270478343e-17
  outer loop
    vertex -56.35816950629729 114.99999999999997 4.3740817654998583e-14
    vertex -51.895313643850706 120.99999999999999 2.0000000000000377
    vertex -51.895313643850706 120.99999999999999 3.810088468990279e-14
  endloop
endfacet
facet normal -8.85105615888997e-32 1.0 6.806222237600958e-17
  outer loop
    vertex -51.895313643850706 120.99999999999999 2.0000000000000377
    vertex -30.21053587466985 120.99999999999999 6.630054951538176e-14
    vertex -51.895313643850706 120.99999999999999 3.810088468990279e-14
  endloop
endfacet
facet normal -8.85105615888997e-32 1.0 6.806222237600958e-17
  outer loop
    vertex -30.21053587466985 120.99999999999999 6.630054951538176e-14
    vertex -51.895313643850706 120.99999999999999 2.0000000000000377
    vertex -30.21053587466985 120.99999999999999 2.000000000000066
  endloop
endfacet
facet normal 0.7344970899010033 0.6786118367129752 1.358670077841883e-16
  outer loop
    vertex -30.21053587466985 120.99999999999999 6.630054951538176e-14
    vertex -21.895313643850717 111.99999999999997 2.000000000000054
    vertex -21.895313643850717 111.99999999999997 5.43156919645532e-14
  endloop
endfacet
facet normal 0.7344970899010033 0.6786118367129752 1.358670077841883e-16
  outer loop
    vertex -21.895313643850717 111.99999999999997 2.000000000000054
    vertex -30.21053587466985 120.99999999999999 6.630054951538176e-14
    vertex -30.21053587466985 120.99999999999999 2.000000000000066
  endloop
endfacet
facet normal 1.9820796037921707e-32 1.0 6.806222237600958e-17
  outer loop
    vertex -21.895313643850717 111.99999999999997 5.43156919645532e-14
    vertex -1.434402447089707e-14 111.99999999999997 2.000000000000048
    vertex -1.4099832412739494e-14 111.99999999999997 4.7939430203314286e-14
  endloop
endfacet
facet normal 1.9820796037921707e-32 1.0 6.806222237600958e-17
  outer loop
    vertex -1.434402447089707e-14 111.99999999999997 2.000000000000048
    vertex -21.895313643850717 111.99999999999997 5.43156919645532e-14
    vertex -21.895313643850717 111.99999999999997 2.000000000000054
  endloop
endfacet
facet normal 1.0 1.2589136082803121e-16 1.2209602907878722e-16
  outer loop
    vertex 0.0 0.0 4.2299497238218464e-14
    vertex -1.434402447089707e-14 111.99999999999997 2.000000000000048
    vertex -2.4419205815757444e-16 -1.361244447520191e-16 2.000000000000042
  endloop
endfacet
facet normal 1.0 1.2589136082803121e-16 1.2209602907878722e-16
  outer loop
    vertex -1.434402447089707e-14 111.99999999999997 2.000000000000048
    vertex 0.0 0.0 4.2299497238218464e-14
    vertex -1.4099832412739494e-14 111.99999999999997 4.7939430203314286e-14
  endloop
endfacet
facet normal 3.3228709410949516e-33 -1.0 -6.806222237600959e-17
  outer loop
    vertex 0.0 0.0 4.2299497238218464e-14
    vertex -85.99999999999999 -1.361244447520191e-16 2.0000000000000377
    vertex -85.99999999999999 0.0 3.810088468990279e-14
  endloop
endfacet
facet normal 3.3228709410949516e-33 -1.0 -6.806222237600959e-17
  outer loop
    vertex -85.99999999999999 -1.361244447520191e-16 2.0000000000000377
    vertex 0.0 0.0 4.2299497238218464e-14
    vertex -2.4419205815757444e-16 -1.361244447520191e-16 2.000000000000042
  endloop
endfacet
facet normal -1.2980975988483516e-16 -6.882016311698407e-17 1.0
  outer loop
    vertex -85.99999999999999 0.0 3.810088468990279e-14
    vertex -44.299038105676665 1.7499999999999996 4.0200190964060626e-14
    vertex -85.99999999999999 63.99999999999999 3.810088468990279e-14
  endloop
endfacet
facet normal -1.2980975988483516e-16 -6.882016311698407e-17 1.0
  outer loop
    vertex -44.299038105676665 1.7499999999999996 4.0200190964060626e-14
    vertex -85.99999999999999 0.0 3.810088468990279e-14
    vertex -44.060660171779816 1.4393398282201786 4.0200190964060626e-14
  endloop
endfacet
facet normal -1.2980975988483516e-16 -6.882016311698407e-17 1.0
  outer loop
    vertex -44.060660171779816 1.4393398282201786 4.0200190964060626e-14
    vertex -85.99999999999999 0.0 3.810088468990279e-14
    vertex -43.75 1.2009618943233416 4.0200190964060626e-14
  endloop
endfacet
facet normal -1.2980975988483516e-16 -6.882016311698407e-17 1.0
  outer loop
    vertex -43.75 1.2009618943233416 4.0200190964060626e-14
    vertex -85.99999999999999 0.0 3.810088468990279e-14
    vertex -43.38822856765379 1.0511112605663973 4.0200190964060626e-14
  endloop
endfacet
facet normal -1.2980975988483516e-16 -6.882016311698407e-17 1.0
  outer loop
    vertex -43.38822856765379 1.0511112605663973 4.0200190964060626e-14
    vertex -85.99999999999999 0.0 3.810088468990279e-14
    vertex -42.99999999999999 0.9999999999999996 4.0200190964060626e-14
  endloop
endfacet
facet normal -1.2980975988483516e-16 -6.882016311698407e-17 1.0
  outer loop
    vertex -42.99999999999999 0.9999999999999996 4.0200190964060626e-14
    vertex -85.99999999999999 0.0 3.810088468990279e-14
    vertex 0.0 0.0 4.2299497238218464e-14
  endloop
endfacet
facet normal -1.2980975988483516e-16 -6.882016311698407e-17 1.0
  outer loop
    vertex -85.99999999999999 63.99999999999999 3.810088468990279e-14
    vertex -44.299038105676665 1.7499999999999996 4.0200190964060626e-14
    vertex -44.44888873943359 2.111771432346219 4.0200190964060626e-14
  endloop
endfacet
facet normal -1.2980975988483516e-16 -6.882016311698407e-17 1.0
  outer loop
    vertex -85.99999999999999 63.99999999999999 3.810088468990279e-14
    vertex -44.44888873943359 2.111771432346219 4.0200190964060626e-14
    vertex -68.99999999999994 63.99999999999999 4.092085117245068e-14
  endloop
endfacet
facet normal -1.2980975988483516e-16 -6.882016311698407e-17 1.0
  outer loop
    vertex -68.99999999999994 63.99999999999999 4.092085117245068e-14
    vertex -44.44888873943359 2.111771432346219 4.0200190964060626e-14
    vertex -68.99999999999994 114.99999999999997 4.092085117245068e-14
  endloop
endfacet
facet normal -1.2980975988483516e-16 -6.882016311698407e-17 1.0
  outer loop
    vertex -68.99999999999994 114.99999999999997 4.092085117245068e-14
    vertex -44.44888873943359 2.111771432346219 4.0200190964060626e-14
    vertex -44.499999999999986 2.4999999999999996 4.0200190964060626e-14
  endloop
endfacet
facet normal -1.2980975988483516e-16 -6.882016311698407e-17 1.0
  outer loop
    vertex -68.99999999999994 114.99999999999997 4.092085117245068e-14
    vertex -44.499999999999986 2.4999999999999996 4.0200190964060626e-14
    vertex -56.35816950629729 114.99999999999997 4.3740817654998583e-14
  endloop
endfacet
facet normal -1.2980975988483516e-16 -6.882016311698407e-17 1.0
  outer loop
    vertex -56.35816950629729 114.99999999999997 4.3740817654998583e-14
    vertex -44.499999999999986 2.4999999999999996 4.0200190964060626e-14
    vertex -51.895313643850706 120.99999999999999 3.810088468990279e-14
  endloop
endfacet
facet normal -1.2980975988483516e-16 -6.882016311698407e-17 1.0
  outer loop
    vertex -42.99999999999999 0.9999999999999996 4.0200190964060626e-14
    vertex 0.0 0.0 4.2299497238218464e-14
    vertex -42.61177143234622 1.0511112605663966 4.0200190964060626e-14
  endloop
endfacet
facet normal -1.2980975988483516e-16 -6.882016311698407e-17 1.0
  outer loop
    vertex -42.61177143234622 1.0511112605663966 4.0200190964060626e-14
    vertex 0.0 0.0 4.2299497238218464e-14
    vertex -42.249999999999986 1.2009618943233416 4.0200190964060626e-14
  endloop
endfacet
facet normal -1.2980975988483516e-16 -6.882016311698407e-17 1.0
  outer loop
    vertex -42.249999999999986 1.2009618943233416 4.0200190964060626e-14
    vertex 0.0 0.0 4.2299497238218464e-14
    vertex -41.93933982822017 1.4393398282201786 4.0200190964060626e-14
  endloop
endfacet
facet normal -1.2980975988483516e-16 -6.882016311698407e-17 1.0
  outer loop
    vertex -41.93933982822017 1.4393398282201786 4.0200190964060626e-14
    vertex 0.0 0.0 4.2299497238218464e-14
    vertex -41.700961894323335 1.749999999999999 4.0200190964060626e-14
  endloop
endfacet
facet normal -1.2980975988483516e-16 -6.882016311698407e-17 1.0
  outer loop
    vertex -41.700961894323335 1.749999999999999 4.0200190964060626e-14
    vertex 0.0 0.0 4.2299497238218464e-14
    vertex -41.551111260566394 2.1117714323462176 4.0200190964060626e-14
  endloop
endfacet
facet normal -1.2980975988483516e-16 -6.882016311698407e-17 1.0
  outer loop
    vertex -41.551111260566394 2.1117714323462176 4.0200190964060626e-14
    vertex 0.0 0.0 4.2299497238218464e-14
    vertex -41.5 2.4999999999999982 4.0200190964060626e-14
  endloop
endfacet
facet normal -1.2980975988483516e-16 -6.882016311698407e-17 1.0
  outer loop
    vertex -41.5 2.4999999999999982 4.0200190964060626e-14
    vertex 0.0 0.0 4.2299497238218464e-14
    vertex -30.21053587466985 120.99999999999999 6.630054951538176e-14
  endloop
endfacet
facet normal -1.2980975988483516e-16 -6.882016311698407e-17 1.0
  outer loop
    vertex -30.21053587466985 120.99999999999999 6.630054951538176e-14
    vertex 0.0 0.0 4.2299497238218464e-14
    vertex -21.895313643850717 111.99999999999997 5.43156919645532e-14
  endloop
endfacet
facet normal -1.2980975988483516e-16 -6.882016311698407e-17 1.0
  outer loop
    vertex -21.895313643850717 111.99999999999997 5.43156919645532e-14
    vertex 0.0 0.0 4.2299497238218464e-14
    vertex -1.4099832412739494e-14 111.99999999999997 4.7939430203314286e-14
  endloop
endfacet
facet normal -1.2980975988483516e-16 -6.882016311698407e-17 1.0
  outer loop
    vertex -44.499999999999986 2.4999999999999996 4.0200190964060626e-14
    vertex -30.21053587466985 120.99999999999999 6.630054951538176e-14
    vertex -51.895313643850706 120.99999999999999 3.810088468990279e-14
  endloop
endfacet
facet normal -1.2980975988483516e-16 -6.882016311698407e-17 1.0
  outer loop
    vertex -30.21053587466985 120.99999999999999 6.630054951538176e-14
    vertex -44.499999999999986 2.4999999999999996 4.0200190964060626e-14
    vertex -44.44888873943359 2.8882285676537798 4.0200190964060626e-14
  endloop
endfacet
facet normal -1.2980975988483516e-16 -6.882016311698407e-17 1.0
  outer loop
    vertex -30.21053587466985 120.99999999999999 6.630054951538176e-14
    vertex -44.44888873943359 2.8882285676537798 4.0200190964060626e-14
    vertex -44.299038105676665 3.2499999999999996 4.0200190964060626e-14
  endloop
endfacet
facet normal -1.2980975988483516e-16 -6.882016311698407e-17 1.0
  outer loop
    vertex -30.21053587466985 120.99999999999999 6.630054951538176e-14
    vertex -44.299038105676665 3.2499999999999996 4.0200190964060626e-14
    vertex -44.060660171779816 3.5606601717798223 4.0200190964060626e-14
  endloop
endfacet
facet normal -1.2980975988483516e-16 -6.882016311698407e-17 1.0
  outer loop
    vertex -30.21053587466985 120.99999999999999 6.630054951538176e-14
    vertex -44.060660171779816 3.5606601717798223 4.0200190964060626e-14
    vertex -43.75 3.79903810567666 4.0200190964060626e-14
  endloop
endfacet
facet normal -1.2980975988483516e-16 -6.882016311698407e-17 1.0
  outer loop
    vertex -30.21053587466985 120.99999999999999 6.630054951538176e-14
    vertex -43.75 3.79903810567666 4.0200190964060626e-14
    vertex -43.38822856765379 3.9488887394336034 4.0200190964060626e-14
  endloop
endfacet
facet normal -1.2980975988483516e-16 -6.882016311698407e-17 1.0
  outer loop
    vertex -30.21053587466985 120.99999999999999 6.630054951538176e-14
    vertex -43.38822856765379 3.9488887394336034 4.0200190964060626e-14
    vertex -42.99999999999999 4.000000000000001 4.0200190964060626e-14
  endloop
endfacet
facet normal -1.2980975988483516e-16 -6.882016311698407e-17 1.0
  outer loop
    vertex -30.21053587466985 120.99999999999999 6.630054951538176e-14
    vertex -42.99999999999999 4.000000000000001 4.0200190964060626e-14
    vertex -42.61177143234622 3.9488887394336034 4.0200190964060626e-14
  endloop
endfacet
facet normal -1.2980975988483516e-16 -6.882016311698407e-17 1.0
  outer loop
    vertex -30.21053587466985 120.99999999999999 6.630054951538176e-14
    vertex -42.61177143234622 3.9488887394336034 4.0200190964060626e-14
    vertex -42.249999999999986 3.799038105676657 4.0200190964060626e-14
  endloop
endfacet
facet normal -1.2980975988483516e-16 -6.882016311698407e-17 1.0
  outer loop
    vertex -30.21053587466985 120.99999999999999 6.630054951538176e-14
    vertex -42.249999999999986 3.799038105676657 4.0200190964060626e-14
    vertex -41.93933982822017 3.5606601717798223 4.0200190964060626e-14
  endloop
endfacet
facet normal -1.2980975988483516e-16 -6.882016311698407e-17 1.0
  outer loop
    vertex -30.21053587466985 120.99999999999999 6.630054951538176e-14
    vertex -41.93933982822017 3.5606601717798223 4.0200190964060626e-14
    vertex -41.700961894323335 3.2499999999999996 4.0200190964060626e-14
  endloop
endfacet
facet normal -1.2980975988483516e-16 -6.882016311698407e-17 1.0
  outer loop
    vertex -30.21053587466985 120.99999999999999 6.630054951538176e-14
    vertex -41.700961894323335 3.2499999999999996 4.0200190964060626e-14
    vertex -41.551111260566394 2.8882285676537798 4.0200190964060626e-14
  endloop
endfacet
facet normal -1.2980975988483516e-16 -6.882016311698407e-17 1.0
  outer loop
    vertex -30.21053587466985 120.99999999999999 6.630054951538176e-14
    vertex -41.551111260566394 2.8882285676537798 4.0200190964060626e-14
    vertex -41.5 2.4999999999999982 4.0200190964060626e-14
  endloop
endfacet
facet normal -0.13052619222004702 -0.991444861373811 -6.483849420762058e-46
  outer loop
    vertex -42.99999999999999 0.9999999999999996 2.000000000000041
    vertex -43.38822856765379 1.0511112605663973 4.0200190964060626e-14
    vertex -42.99999999999999 0.9999999999999996 4.0200190964060626e-14
  endloop
endfacet
facet normal -0.13052619222004702 -0.991444861373811 -6.483849420762058e-46
  outer loop
    vertex -43.38822856765379 1.0511112605663973 4.0200190964060626e-14
    vertex -42.99999999999999 0.9999999999999996 2.000000000000041
    vertex -43.38822856765379 1.0511112605663973 2.000000000000041
  endloop
endfacet
facet normal 0.13052619222005085 -0.9914448613738106 -6.483849420762055e-46
  outer loop
    vertex -42.61177143234622 1.0511112605663966 2.000000000000041
    vertex -42.99999999999999 0.9999999999999996 4.0200190964060626e-14
    vertex -42.61177143234622 1.0511112605663966 4.0200190964060626e-14
  endloop
endfacet
facet normal 0.13052619222005085 -0.9914448613738106 -6.483849420762055e-46
  outer loop
    vertex -42.99999999999999 0.9999999999999996 4.0200190964060626e-14
    vertex -42.61177143234622 1.0511112605663966 2.000000000000041
    vertex -42.99999999999999 0.9999999999999996 2.000000000000041
  endloop
endfacet
facet normal 0.38268343236507996 -0.9238795325112911 -6.041985797804941e-46
  outer loop
    vertex -42.249999999999986 1.2009618943233416 2.000000000000041
    vertex -42.61177143234622 1.0511112605663966 4.0200190964060626e-14
    vertex -42.249999999999986 1.2009618943233416 4.0200190964060626e-14
  endloop
endfacet
facet normal 0.38268343236507996 -0.9238795325112911 -6.041985797804941e-46
  outer loop
    vertex -42.61177143234622 1.0511112605663966 4.0200190964060626e-14
    vertex -42.249999999999986 1.2009618943233416 2.000000000000041
    vertex -42.61177143234622 1.0511112605663966 2.000000000000041
  endloop
endfacet
facet normal 0.60876142900873 -0.793353340291228 -5.18837082758095e-46
  outer loop
    vertex -41.93933982822017 1.4393398282201786 2.000000000000041
    vertex -42.249999999999986 1.2009618943233416 4.0200190964060626e-14
    vertex -41.93933982822017 1.4393398282201786 4.0200190964060626e-14
  endloop
endfacet
facet normal 0.60876142900873 -0.793353340291228 -5.18837082758095e-46
  outer loop
    vertex -42.249999999999986 1.2009618943233416 4.0200190964060626e-14
    vertex -41.93933982822017 1.4393398282201786 2.000000000000041
    vertex -42.249999999999986 1.2009618943233416 2.000000000000041
  endloop
endfacet
facet normal 0.7933533402912332 -0.6087614290087233 -3.981176959645651e-46
  outer loop
    vertex -41.700961894323335 1.749999999999999 4.0200190964060626e-14
    vertex -41.93933982822017 1.4393398282201786 2.000000000000041
    vertex -41.93933982822017 1.4393398282201786 4.0200190964060626e-14
  endloop
endfacet
facet normal 0.7933533402912332 -0.6087614290087233 -3.981176959645651e-46
  outer loop
    vertex -41.93933982822017 1.4393398282201786 2.000000000000041
    vertex -41.700961894323335 1.749999999999999 4.0200190964060626e-14
    vertex -41.700961894323335 1.749999999999999 2.000000000000041
  endloop
endfacet
facet normal 0.92387953251129 -0.3826834323650821 -2.5026724611163682e-46
  outer loop
    vertex -41.551111260566394 2.1117714323462176 4.0200190964060626e-14
    vertex -41.700961894323335 1.749999999999999 2.000000000000041
    vertex -41.700961894323335 1.749999999999999 4.0200190964060626e-14
  endloop
endfacet
facet normal 0.92387953251129 -0.3826834323650821 -2.5026724611163682e-46
  outer loop
    vertex -41.700961894323335 1.749999999999999 2.000000000000041
    vertex -41.551111260566394 2.1117714323462176 4.0200190964060626e-14
    vertex -41.551111260566394 2.1117714323462176 2.000000000000041
  endloop
endfacet
facet normal 0.9914448613738113 -0.13052619222004483 -8.536149702238681e-47
  outer loop
    vertex -41.5 2.4999999999999982 4.0200190964060626e-14
    vertex -41.551111260566394 2.1117714323462176 2.000000000000041
    vertex -41.551111260566394 2.1117714323462176 4.0200190964060626e-14
  endloop
endfacet
facet normal 0.9914448613738113 -0.13052619222004483 -8.536149702238681e-47
  outer loop
    vertex -41.551111260566394 2.1117714323462176 2.000000000000041
    vertex -41.5 2.4999999999999982 4.0200190964060626e-14
    vertex -41.5 2.4999999999999982 2.000000000000041
  endloop
endfacet
facet normal 0.9914448613738114 0.1305261922200446 8.536149702238706e-47
  outer loop
    vertex -41.551111260566394 2.8882285676537798 4.0200190964060626e-14
    vertex -41.5 2.4999999999999982 2.000000000000041
    vertex -41.5 2.4999999999999982 4.0200190964060626e-14
  endloop
endfacet
facet normal 0.9914448613738114 0.1305261922200446 8.536149702238706e-47
  outer loop
    vertex -41.5 2.4999999999999982 2.000000000000041
    vertex -41.551111260566394 2.8882285676537798 4.0200190964060626e-14
    vertex -41.551111260566394 2.8882285676537798 2.000000000000041
  endloop
endfacet
facet normal 0.9238795325112904 0.38268343236508073 2.5026724611163635e-46
  outer loop
    vertex -41.700961894323335 3.2499999999999996 4.0200190964060626e-14
    vertex -41.551111260566394 2.8882285676537798 2.000000000000041
    vertex -41.551111260566394 2.8882285676537798 4.0200190964060626e-14
  endloop
endfacet
facet normal 0.9238795325112904 0.38268343236508073 2.5026724611163635e-46
  outer loop
    vertex -41.551111260566394 2.8882285676537798 2.000000000000041
    vertex -41.700961894323335 3.2499999999999996 4.0200190964060626e-14
    vertex -41.700961894323335 3.2499999999999996 2.000000000000041
  endloop
endfacet
facet normal 0.7933533402912353 0.6087614290087208 3.9811769596456375e-46
  outer loop
    vertex -41.93933982822017 3.5606601717798223 4.0200190964060626e-14
    vertex -41.700961894323335 3.2499999999999996 2.000000000000041
    vertex -41.700961894323335 3.2499999999999996 4.0200190964060626e-14
  endloop
endfacet
facet normal 0.7933533402912353 0.6087614290087208 3.9811769596456375e-46
  outer loop
    vertex -41.700961894323335 3.2499999999999996 2.000000000000041
    vertex -41.93933982822017 3.5606601717798223 4.0200190964060626e-14
    vertex -41.93933982822017 3.5606601717798223 2.000000000000041
  endloop
endfacet
facet normal 0.6087614290087267 0.7933533402912307 5.188370827580971e-46
  outer loop
    vertex -42.249999999999986 3.799038105676657 2.000000000000041
    vertex -41.93933982822017 3.5606601717798223 4.0200190964060626e-14
    vertex -42.249999999999986 3.799038105676657 4.0200190964060626e-14
  endloop
endfacet
facet normal 0.6087614290087267 0.7933533402912307 5.188370827580971e-46
  outer loop
    vertex -41.93933982822017 3.5606601717798223 4.0200190964060626e-14
    vertex -42.249999999999986 3.799038105676657 2.000000000000041
    vertex -41.93933982822017 3.5606601717798223 2.000000000000041
  endloop
endfacet
facet normal 0.38268343236508295 0.9238795325112896 6.0419857978049336e-46
  outer loop
    vertex -42.61177143234622 3.9488887394336034 2.000000000000041
    vertex -42.249999999999986 3.799038105676657 4.0200190964060626e-14
    vertex -42.61177143234622 3.9488887394336034 4.0200190964060626e-14
  endloop
endfacet
facet normal 0.38268343236508295 0.9238795325112896 6.0419857978049336e-46
  outer loop
    vertex -42.249999999999986 3.799038105676657 4.0200190964060626e-14
    vertex -42.61177143234622 3.9488887394336034 2.000000000000041
    vertex -42.249999999999986 3.799038105676657 2.000000000000041
  endloop
endfacet
facet normal 0.13052619222005263 0.9914448613738104 6.483849420762054e-46
  outer loop
    vertex -42.99999999999999 4.000000000000001 2.000000000000041
    vertex -42.61177143234622 3.9488887394336034 4.0200190964060626e-14
    vertex -42.99999999999999 4.000000000000001 4.0200190964060626e-14
  endloop
endfacet
facet normal 0.13052619222005263 0.9914448613738104 6.483849420762054e-46
  outer loop
    vertex -42.61177143234622 3.9488887394336034 4.0200190964060626e-14
    vertex -42.99999999999999 4.000000000000001 2.000000000000041
    vertex -42.61177143234622 3.9488887394336034 2.000000000000041
  endloop
endfacet
facet normal -0.13052619222004702 0.991444861373811 6.483849420762058e-46
  outer loop
    vertex -43.38822856765379 3.9488887394336034 2.000000000000041
    vertex -42.99999999999999 4.000000000000001 4.0200190964060626e-14
    vertex -43.38822856765379 3.9488887394336034 4.0200190964060626e-14
  endloop
endfacet
facet normal -0.13052619222004702 0.991444861373811 6.483849420762058e-46
  outer loop
    vertex -42.99999999999999 4.000000000000001 4.0200190964060626e-14
    vertex -43.38822856765379 3.9488887394336034 2.000000000000041
    vertex -42.99999999999999 4.000000000000001 2.000000000000041
  endloop
endfacet
facet normal -0.3826834323650972 0.9238795325112839 6.041985797804894e-46
  outer loop
    vertex -43.75 3.79903810567666 2.000000000000041
    vertex -43.38822856765379 3.9488887394336034 4.0200190964060626e-14
    vertex -43.75 3.79903810567666 4.0200190964060626e-14
  endloop
endfacet
facet normal -0.3826834323650972 0.9238795325112839 6.041985797804894e-46
  outer loop
    vertex -43.38822856765379 3.9488887394336034 4.0200190964060626e-14
    vertex -43.75 3.79903810567666 2.000000000000041
    vertex -43.38822856765379 3.9488887394336034 2.000000000000041
  endloop
endfacet
facet normal -0.6087614290087312 0.7933533402912273 5.188370827580946e-46
  outer loop
    vertex -44.060660171779816 3.5606601717798223 2.000000000000041
    vertex -43.75 3.79903810567666 4.0200190964060626e-14
    vertex -44.060660171779816 3.5606601717798223 4.0200190964060626e-14
  endloop
endfacet
facet normal -0.6087614290087312 0.7933533402912273 5.188370827580946e-46
  outer loop
    vertex -43.75 3.79903810567666 4.0200190964060626e-14
    vertex -44.060660171779816 3.5606601717798223 2.000000000000041
    vertex -43.75 3.79903810567666 2.000000000000041
  endloop
endfacet
facet normal -0.7933533402912212 0.6087614290087389 3.981176959645751e-46
  outer loop
    vertex -44.060660171779816 3.5606601717798223 2.000000000000041
    vertex -44.299038105676665 3.2499999999999996 4.0200190964060626e-14
    vertex -44.299038105676665 3.2499999999999996 2.000000000000041
  endloop
endfacet
facet normal -0.7933533402912212 0.6087614290087389 3.981176959645751e-46
  outer loop
    vertex -44.299038105676665 3.2499999999999996 4.0200190964060626e-14
    vertex -44.060660171779816 3.5606601717798223 2.000000000000041
    vertex -44.060660171779816 3.5606601717798223 4.0200190964060626e-14
  endloop
endfacet
facet normal -0.9238795325113007 0.38268343236505625 2.502672461116199e-46
  outer loop
    vertex -44.299038105676665 3.2499999999999996 2.000000000000041
    vertex -44.44888873943359 2.8882285676537798 4.0200190964060626e-14
    vertex -44.44888873943359 2.8882285676537798 2.000000000000041
  endloop
endfacet
facet normal -0.9238795325113007 0.38268343236505625 2.502672461116199e-46
  outer loop
    vertex -44.44888873943359 2.8882285676537798 4.0200190964060626e-14
    vertex -44.299038105676665 3.2499999999999996 2.000000000000041
    vertex -44.299038105676665 3.2499999999999996 4.0200190964060626e-14
  endloop
endfacet
facet normal -0.9914448613738114 0.13052619222004508 8.536149702238698e-47
  outer loop
    vertex -44.44888873943359 2.8882285676537798 2.000000000000041
    vertex -44.499999999999986 2.4999999999999996 4.0200190964060626e-14
    vertex -44.499999999999986 2.4999999999999996 2.000000000000041
  endloop
endfacet
facet normal -0.9914448613738114 0.13052619222004508 8.536149702238698e-47
  outer loop
    vertex -44.499999999999986 2.4999999999999996 4.0200190964060626e-14
    vertex -44.44888873943359 2.8882285676537798 2.000000000000041
    vertex -44.44888873943359 2.8882285676537798 4.0200190964060626e-14
  endloop
endfacet
facet normal -0.9914448613738113 -0.13052619222004483 -8.53614970223872e-47
  outer loop
    vertex -44.499999999999986 2.4999999999999996 2.000000000000041
    vertex -44.44888873943359 2.111771432346219 4.0200190964060626e-14
    vertex -44.44888873943359 2.111771432346219 2.000000000000041
  endloop
endfacet
facet normal -0.9914448613738113 -0.13052619222004483 -8.53614970223872e-47
  outer loop
    vertex -44.44888873943359 2.111771432346219 4.0200190964060626e-14
    vertex -44.499999999999986 2.4999999999999996 2.000000000000041
    vertex -44.499999999999986 2.4999999999999996 4.0200190964060626e-14
  endloop
endfacet
facet normal -0.9238795325113005 -0.3826834323650569 -2.502672461116207e-46
  outer loop
    vertex -44.44888873943359 2.111771432346219 2.000000000000041
    vertex -44.299038105676665 1.7499999999999996 4.0200190964060626e-14
    vertex -44.299038105676665 1.7499999999999996 2.000000000000041
  endloop
endfacet
facet normal -0.9238795325113005 -0.3826834323650569 -2.502672461116207e-46
  outer loop
    vertex -44.299038105676665 1.7499999999999996 4.0200190964060626e-14
    vertex -44.44888873943359 2.111771432346219 2.000000000000041
    vertex -44.44888873943359 2.111771432346219 4.0200190964060626e-14
  endloop
endfacet
facet normal -0.7933533402912201 -0.6087614290087406 -3.981176959645767e-46
  outer loop
    vertex -44.299038105676665 1.7499999999999996 2.000000000000041
    vertex -44.060660171779816 1.4393398282201786 4.0200190964060626e-14
    vertex -44.060660171779816 1.4393398282201786 2.000000000000041
  endloop
endfacet
facet normal -0.7933533402912201 -0.6087614290087406 -3.981176959645767e-46
  outer loop
    vertex -44.060660171779816 1.4393398282201786 4.0200190964060626e-14
    vertex -44.299038105676665 1.7499999999999996 2.000000000000041
    vertex -44.299038105676665 1.7499999999999996 4.0200190964060626e-14
  endloop
endfacet
facet normal -0.60876142900873 -0.793353340291228 -5.1883708275809535e-46
  outer loop
    vertex -43.75 1.2009618943233416 2.000000000000041
    vertex -44.060660171779816 1.4393398282201786 4.0200190964060626e-14
    vertex -43.75 1.2009618943233416 4.0200190964060626e-14
  endloop
endfacet
facet normal -0.60876142900873 -0.793353340291228 -5.1883708275809535e-46
  outer loop
    vertex -44.060660171779816 1.4393398282201786 4.0200190964060626e-14
    vertex -43.75 1.2009618943233416 2.000000000000041
    vertex -44.060660171779816 1.4393398282201786 2.000000000000041
  endloop
endfacet
facet normal -0.38268343236509866 -0.9238795325112831 -6.04198579780489e-46
  outer loop
    vertex -43.38822856765379 1.0511112605663973 2.000000000000041
    vertex -43.75 1.2009618943233416 4.0200190964060626e-14
    vertex -43.38822856765379 1.0511112605663973 4.0200190964060626e-14
  endloop
endfacet
facet normal -0.38268343236509866 -0.9238795325112831 -6.04198579780489e-46
  outer loop
    vertex -43.75 1.2009618943233416 4.0200190964060626e-14
    vertex -43.38822856765379 1.0511112605663973 2.000000000000041
    vertex -43.75 1.2009618943233416 2.000000000000041
  endloop
endfacet
endsolid WL-HandRemote-BackCover
