solid WL-HandRemote-BatteryCover
facet normal 1.2726557072490436e-16 -1.4099832412739488e-16 -1.0
  outer loop
    vertex 0.5000000000000056 29.500000000000004 3.1526333622809743e-16
    vertex 55.39531364385072 0.49999999999999994 1.1326865371567388e-14
    vertex 0.5 0.49999999999999994 1.1091868164688397e-14
  endloop
endfacet
facet normal 1.2726557072490436e-16 -1.4099832412739488e-16 -1.0
  outer loop
    vertex 55.39531364385072 0.49999999999999994 1.1326865371567388e-14
    vertex 0.5000000000000056 29.500000000000004 3.1526333622809743e-16
    vertex 55.39531364385072 29.500000000000004 1.3925567400638785e-14
  endloop
endfacet
facet normal -1.1991510353784186e-18 -1.0 1.314446993617536e-16
  outer loop
    vertex 55.39531364385072 0.49999999999999994 1.1326865371567388e-14
    vertex 0.49999999999999933 0.5000000000000008 6.0000000000000115
    vertex 0.5 0.49999999999999994 1.1091868164688397e-14
  endloop
endfacet
facet normal -1.1991510353784186e-18 -1.0 1.314446993617536e-16
  outer loop
    vertex 0.49999999999999933 0.5000000000000008 6.0000000000000115
    vertex 55.39531364385072 0.49999999999999994 1.1326865371567388e-14
    vertex 55.39531364385072 0.5000000000000016 12.000000000000012
  endloop
endfacet
facet normal -1.1991510353784186e-18 -1.0 1.314446993617536e-16
  outer loop
    vertex 0.49999999999999933 0.5000000000000008 6.0000000000000115
    vertex 55.39531364385072 0.5000000000000016 12.000000000000012
    vertex 0.49999999999999845 0.5000000000000016 12.000000000000012
  endloop
endfacet
facet normal -0.0 1.0 -0.0
  outer loop
    vertex 0.5000000000000047 29.500000000000004 6.0
    vertex 55.39531364385072 29.500000000000004 1.3925567400638785e-14
    vertex 0.5000000000000056 29.500000000000004 3.1526333622809743e-16
  endloop
endfacet
facet normal -0.0 1.0 -0.0
  outer loop
    vertex 55.39531364385072 29.500000000000004 1.3925567400638785e-14
    vertex 0.5000000000000047 29.500000000000004 6.0
    vertex 55.39531364385072 29.500000000000004 12.000000000000014
  endloop
endfacet
facet normal -0.0 1.0 -0.0
  outer loop
    vertex 55.39531364385072 29.500000000000004 12.000000000000014
    vertex 0.5000000000000047 29.500000000000004 6.0
    vertex -1.2499999999999956 29.500000000000004 11.000000000000002
  endloop
endfacet
facet normal -0.0 1.0 -0.0
  outer loop
    vertex 55.39531364385072 29.500000000000004 12.000000000000014
    vertex -1.2499999999999956 29.500000000000004 11.000000000000002
    vertex -1.2499999999999958 29.500000000000004 12.0
  endloop
endfacet
facet normal 1.8706343245320712e-19 1.0 -1.3117502700177786e-16
  outer loop
    vertex 1.4999999999999991 1.5000000000000009 6.0
    vertex 54.39531364385072 1.5000000000000002 1.0000000000000113
    vertex 1.5 1.5000000000000002 1.0000000000000107
  endloop
endfacet
facet normal 1.8706343245320712e-19 1.0 -1.3117502700177786e-16
  outer loop
    vertex 54.39531364385072 1.5000000000000002 1.0000000000000113
    vertex 1.4999999999999991 1.5000000000000009 6.0
    vertex 54.39531364385072 1.5000000000000016 12.000000000000012
  endloop
endfacet
facet normal 1.8706343245320712e-19 1.0 -1.3117502700177786e-16
  outer loop
    vertex 54.39531364385072 1.5000000000000016 12.000000000000012
    vertex 1.4999999999999991 1.5000000000000009 6.0
    vertex 0.49999999999999933 1.5000000000000007 6.0000000000000115
  endloop
endfacet
facet normal 1.8706343245320712e-19 1.0 -1.3117502700177786e-16
  outer loop
    vertex 54.39531364385072 1.5000000000000016 12.000000000000012
    vertex 0.49999999999999933 1.5000000000000007 6.0000000000000115
    vertex -1.250000000000001 1.5000000000000016 11.000000000000009
  endloop
endfacet
facet normal 1.8706343245320712e-19 1.0 -1.3117502700177786e-16
  outer loop
    vertex 54.39531364385072 1.5000000000000016 12.000000000000012
    vertex -1.250000000000001 1.5000000000000016 11.000000000000009
    vertex -1.250000000000001 1.5000000000000016 12.000000000000009
  endloop
endfacet
facet normal -1.0 0.0 0.0
  outer loop
    vertex 54.39531364385072 25.750000000000004 12.000000000000014
    vertex 54.39531364385072 4.250000000000001 2.000000000000012
    vertex 54.39531364385072 4.250000000000001 12.000000000000012
  endloop
endfacet
facet normal -1.0 0.0 0.0
  outer loop
    vertex 54.39531364385072 28.500000000000004 12.000000000000014
    vertex 54.39531364385072 26.75 2.0000000000000147
    vertex 54.39531364385072 26.75 12.000000000000014
  endloop
endfacet
facet normal -1.0 0.0 0.0
  outer loop
    vertex 54.39531364385072 1.5000000000000002 1.0000000000000113
    vertex 54.39531364385072 3.250000000000001 2.000000000000012
    vertex 54.39531364385072 28.500000000000004 1.0000000000000135
  endloop
endfacet
facet normal -1.0 0.0 0.0
  outer loop
    vertex 54.39531364385072 3.250000000000001 2.000000000000012
    vertex 54.39531364385072 1.5000000000000002 1.0000000000000113
    vertex 54.39531364385072 1.5000000000000016 12.000000000000012
  endloop
endfacet
facet normal -1.0 0.0 0.0
  outer loop
    vertex 54.39531364385072 3.250000000000001 2.000000000000012
    vertex 54.39531364385072 1.5000000000000016 12.000000000000012
    vertex 54.39531364385072 3.250000000000001 12.000000000000012
  endloop
endfacet
facet normal -1.0 0.0 0.0
  outer loop
    vertex 54.39531364385072 28.500000000000004 1.0000000000000135
    vertex 54.39531364385072 3.250000000000001 2.000000000000012
    vertex 54.39531364385072 4.250000000000001 2.000000000000012
  endloop
endfacet
facet normal -1.0 0.0 0.0
  outer loop
    vertex 54.39531364385072 28.500000000000004 1.0000000000000135
    vertex 54.39531364385072 4.250000000000001 2.000000000000012
    vertex 54.39531364385072 25.750000000000004 2.0000000000000147
  endloop
endfacet
facet normal -1.0 0.0 0.0
  outer loop
    vertex 54.39531364385072 25.750000000000004 2.0000000000000147
    vertex 54.39531364385072 4.250000000000001 2.000000000000012
    vertex 54.39531364385072 25.750000000000004 12.000000000000014
  endloop
endfacet
facet normal -1.0 0.0 0.0
  outer loop
    vertex 54.39531364385072 28.500000000000004 1.0000000000000135
    vertex 54.39531364385072 25.750000000000004 2.0000000000000147
    vertex 54.39531364385072 26.75 2.0000000000000147
  endloop
endfacet
facet normal -1.0 0.0 0.0
  outer loop
    vertex 54.39531364385072 28.500000000000004 1.0000000000000135
    vertex 54.39531364385072 26.75 2.0000000000000147
    vertex 54.39531364385072 28.500000000000004 12.000000000000014
  endloop
endfacet
facet normal 0.0 -1.0 0.0
  outer loop
    vertex 54.39531364385072 28.500000000000004 1.0000000000000135
    vertex 1.5000000000000042 28.500000000000004 6.0
    vertex 1.500000000000005 28.500000000000004 1.0000000000000009
  endloop
endfacet
facet normal 0.0 -1.0 0.0
  outer loop
    vertex 1.5000000000000042 28.500000000000004 6.0
    vertex 54.39531364385072 28.500000000000004 1.0000000000000135
    vertex 54.39531364385072 28.500000000000004 12.000000000000014
  endloop
endfacet
facet normal 0.0 -1.0 0.0
  outer loop
    vertex 1.5000000000000042 28.500000000000004 6.0
    vertex 54.39531364385072 28.500000000000004 12.000000000000014
    vertex 0.5000000000000044 28.500000000000004 6.000000000000001
  endloop
endfacet
facet normal 0.0 -1.0 0.0
  outer loop
    vertex 0.5000000000000044 28.500000000000004 6.000000000000001
    vertex 54.39531364385072 28.500000000000004 12.000000000000014
    vertex -1.2499999999999956 28.500000000000004 11.000000000000002
  endloop
endfacet
facet normal 0.0 -1.0 0.0
  outer loop
    vertex -1.2499999999999956 28.500000000000004 11.000000000000002
    vertex 54.39531364385072 28.500000000000004 12.000000000000014
    vertex -1.2499999999999956 28.500000000000004 12.0
  endloop
endfacet
facet normal -1.0 1.853641761157561e-16 -1.3218592886943268e-16
  outer loop
    vertex 0.49999999999999933 0.5000000000000008 6.0000000000000115
    vertex 0.5000000000000056 29.500000000000004 3.1526333622809743e-16
    vertex 0.5 0.49999999999999994 1.1091868164688397e-14
  endloop
endfacet
facet normal -1.0 1.853641761157561e-16 -1.3218592886943268e-16
  outer loop
    vertex 0.5000000000000056 29.500000000000004 3.1526333622809743e-16
    vertex 0.49999999999999933 0.5000000000000008 6.0000000000000115
    vertex 0.49999999999999933 1.5000000000000007 6.0000000000000115
  endloop
endfacet
facet normal -1.0 1.853641761157561e-16 -1.3218592886943268e-16
  outer loop
    vertex 0.5000000000000056 29.500000000000004 3.1526333622809743e-16
    vertex 0.49999999999999933 1.5000000000000007 6.0000000000000115
    vertex 0.5000000000000044 28.500000000000004 6.000000000000001
  endloop
endfacet
facet normal -1.0 1.853641761157561e-16 -1.3218592886943268e-16
  outer loop
    vertex 0.5000000000000056 29.500000000000004 3.1526333622809743e-16
    vertex 0.5000000000000044 28.500000000000004 6.000000000000001
    vertex 0.5000000000000047 29.500000000000004 6.0
  endloop
endfacet
facet normal -1.0 -1.7624790515924357e-16 -4.853644386409714e-33
  outer loop
    vertex -1.250000000000001 1.5000000000000016 12.000000000000009
    vertex -1.2500000000000009 0.5000000000000017 11.000000000000002
    vertex -1.2500000000000009 0.5000000000000017 12.00000000000001
  endloop
endfacet
facet normal -1.0 -1.7624790515924357e-16 -4.853644386409714e-33
  outer loop
    vertex -1.2500000000000009 0.5000000000000017 11.000000000000002
    vertex -1.250000000000001 1.5000000000000016 12.000000000000009
    vertex -1.250000000000001 1.5000000000000016 11.000000000000009
  endloop
endfacet
facet normal 1.278247982553548e-16 -1.4360940420382812e-16 -1.0
  outer loop
    vertex 1.500000000000005 28.500000000000004 1.0000000000000009
    vertex 54.39531364385072 1.5000000000000002 1.0000000000000113
    vertex 1.5 1.5000000000000002 1.0000000000000107
  endloop
endfacet
facet normal 1.278247982553548e-16 -1.4360940420382812e-16 -1.0
  outer loop
    vertex 54.39531364385072 1.5000000000000002 1.0000000000000113
    vertex 1.500000000000005 28.500000000000004 1.0000000000000009
    vertex 54.39531364385072 28.500000000000004 1.0000000000000135
  endloop
endfacet
facet normal -0.0 1.0 -0.0
  outer loop
    vertex 54.39531364385072 25.750000000000004 12.000000000000014
    vertex 55.39531364385072 25.750000000000004 2.0000000000000147
    vertex 54.39531364385072 25.750000000000004 2.0000000000000147
  endloop
endfacet
facet normal -0.0 1.0 -0.0
  outer loop
    vertex 55.39531364385072 25.750000000000004 2.0000000000000147
    vertex 54.39531364385072 25.750000000000004 12.000000000000014
    vertex 55.39531364385072 25.750000000000004 6.000000000000014
  endloop
endfacet
facet normal -0.0 1.0 -0.0
  outer loop
    vertex 55.39531364385072 25.750000000000004 6.000000000000014
    vertex 54.39531364385072 25.750000000000004 12.000000000000014
    vertex 57.39531364385072 25.750000000000004 9.000000000000014
  endloop
endfacet
facet normal -0.0 1.0 -0.0
  outer loop
    vertex 57.39531364385072 25.750000000000004 9.000000000000014
    vertex 54.39531364385072 25.750000000000004 12.000000000000014
    vertex 57.39531364385072 25.750000000000004 12.000000000000014
  endloop
endfacet
facet normal -3.0509079321038076e-17 2.223964191117376e-16 1.0
  outer loop
    vertex -1.2500000000000009 0.5000000000000017 12.00000000000001
    vertex 54.39531364385072 1.5000000000000016 12.000000000000012
    vertex -1.250000000000001 1.5000000000000016 12.000000000000009
  endloop
endfacet
facet normal -3.0509079321038076e-17 2.223964191117376e-16 1.0
  outer loop
    vertex 54.39531364385072 1.5000000000000016 12.000000000000012
    vertex -1.2500000000000009 0.5000000000000017 12.00000000000001
    vertex 0.49999999999999845 0.5000000000000016 12.000000000000012
  endloop
endfacet
facet normal -3.0509079321038076e-17 2.223964191117376e-16 1.0
  outer loop
    vertex 54.39531364385072 1.5000000000000016 12.000000000000012
    vertex 0.49999999999999845 0.5000000000000016 12.000000000000012
    vertex 55.39531364385072 0.5000000000000016 12.000000000000012
  endloop
endfacet
facet normal -3.0509079321038076e-17 2.223964191117376e-16 1.0
  outer loop
    vertex 54.39531364385072 1.5000000000000016 12.000000000000012
    vertex 55.39531364385072 0.5000000000000016 12.000000000000012
    vertex 54.39531364385072 3.250000000000001 12.000000000000012
  endloop
endfacet
facet normal -3.0509079321038076e-17 2.223964191117376e-16 1.0
  outer loop
    vertex 54.39531364385072 3.250000000000001 12.000000000000012
    vertex 55.39531364385072 0.5000000000000016 12.000000000000012
    vertex 55.39531364385072 3.250000000000001 12.000000000000012
  endloop
endfacet
facet normal 0.0 0.0 1.0
  outer loop
    vertex 55.39531364385072 25.750000000000004 2.0000000000000147
    vertex 54.39531364385072 26.75 2.0000000000000147
    vertex 54.39531364385072 25.750000000000004 2.0000000000000147
  endloop
endfacet
facet normal 0.0 0.0 1.0
  outer loop
    vertex 54.39531364385072 26.75 2.0000000000000147
    vertex 55.39531364385072 25.750000000000004 2.0000000000000147
    vertex 55.39531364385072 26.75 2.0000000000000147
  endloop
endfacet
facet normal -0.0 -1.0 -0.0
  outer loop
    vertex 55.39531364385072 26.75 12.000000000000014
    vertex 54.39531364385072 26.75 2.0000000000000147
    vertex 55.39531364385072 26.75 2.0000000000000147
  endloop
endfacet
facet normal -0.0 -1.0 -0.0
  outer loop
    vertex 54.39531364385072 26.75 2.0000000000000147
    vertex 55.39531364385072 26.75 12.000000000000014
    vertex 54.39531364385072 26.75 12.000000000000014
  endloop
endfacet
facet normal 0.0 0.0 1.0
  outer loop
    vertex 55.39531364385072 3.250000000000001 2.000000000000012
    vertex 54.39531364385072 4.250000000000001 2.000000000000012
    vertex 54.39531364385072 3.250000000000001 2.000000000000012
  endloop
endfacet
facet normal 0.0 0.0 1.0
  outer loop
    vertex 54.39531364385072 4.250000000000001 2.000000000000012
    vertex 55.39531364385072 3.250000000000001 2.000000000000012
    vertex 55.39531364385072 4.250000000000001 2.000000000000012
  endloop
endfacet
facet normal -0.0 1.0 -0.0
  outer loop
    vertex 54.39531364385072 3.250000000000001 12.000000000000012
    vertex 55.39531364385072 3.250000000000001 2.000000000000012
    vertex 54.39531364385072 3.250000000000001 2.000000000000012
  endloop
endfacet
facet normal -0.0 1.0 -0.0
  outer loop
    vertex 55.39531364385072 3.250000000000001 2.000000000000012
    vertex 54.39531364385072 3.250000000000001 12.000000000000012
    vertex 55.39531364385072 3.250000000000001 12.000000000000012
  endloop
endfacet
facet normal -2.3499720687899187e-16 -9.837092380981034e-17 1.0
  outer loop
    vertex 57.39531364385072 4.250000000000001 12.000000000000012
    vertex 54.39531364385072 25.750000000000004 12.000000000000014
    vertex 54.39531364385072 4.250000000000001 12.000000000000012
  endloop
endfacet
facet normal -2.3499720687899187e-16 -9.837092380981034e-17 1.0
  outer loop
    vertex 54.39531364385072 25.750000000000004 12.000000000000014
    vertex 57.39531364385072 4.250000000000001 12.000000000000012
    vertex 57.39531364385072 25.750000000000004 12.000000000000014
  endloop
endfacet
facet normal 0.0 -1.0 0.0
  outer loop
    vertex 55.39531364385072 4.250000000000001 6.000000000000014
    vertex 54.39531364385072 4.250000000000001 2.000000000000012
    vertex 55.39531364385072 4.250000000000001 2.000000000000012
  endloop
endfacet
facet normal 0.0 -1.0 0.0
  outer loop
    vertex 54.39531364385072 4.250000000000001 2.000000000000012
    vertex 55.39531364385072 4.250000000000001 6.000000000000014
    vertex 54.39531364385072 4.250000000000001 12.000000000000012
  endloop
endfacet
facet normal 0.0 -1.0 0.0
  outer loop
    vertex 54.39531364385072 4.250000000000001 12.000000000000012
    vertex 55.39531364385072 4.250000000000001 6.000000000000014
    vertex 57.39531364385072 4.250000000000001 9.000000000000012
  endloop
endfacet
facet normal 0.0 -1.0 0.0
  outer loop
    vertex 54.39531364385072 4.250000000000001 12.000000000000012
    vertex 57.39531364385072 4.250000000000001 9.000000000000012
    vertex 57.39531364385072 4.250000000000001 12.000000000000012
  endloop
endfacet
facet normal -0.9438583563660174 -6.602136992413407e-18 -0.33035042472810605
  outer loop
    vertex -1.2499999999999956 29.500000000000004 11.000000000000002
    vertex 0.5000000000000044 28.500000000000004 6.000000000000001
    vertex -1.2499999999999956 28.500000000000004 11.000000000000002
  endloop
endfacet
facet normal -0.9438583563660174 -6.602136992413407e-18 -0.33035042472810605
  outer loop
    vertex 0.5000000000000044 28.500000000000004 6.000000000000001
    vertex -1.2499999999999956 29.500000000000004 11.000000000000002
    vertex 0.5000000000000047 29.500000000000004 6.0
  endloop
endfacet
facet normal 1.0 0.0 0.0
  outer loop
    vertex 57.39531364385072 25.750000000000004 9.000000000000014
    vertex 57.39531364385072 4.250000000000001 12.000000000000012
    vertex 57.39531364385072 4.250000000000001 9.000000000000012
  endloop
endfacet
facet normal 1.0 0.0 0.0
  outer loop
    vertex 57.39531364385072 4.250000000000001 12.000000000000012
    vertex 57.39531364385072 25.750000000000004 9.000000000000014
    vertex 57.39531364385072 25.750000000000004 12.000000000000014
  endloop
endfacet
facet normal 1.0 0.0 0.0
  outer loop
    vertex 55.39531364385072 0.49999999999999994 1.1326865371567388e-14
    vertex 55.39531364385072 3.250000000000001 2.000000000000012
    vertex 55.39531364385072 0.5000000000000016 12.000000000000012
  endloop
endfacet
facet normal 1.0 0.0 0.0
  outer loop
    vertex 55.39531364385072 3.250000000000001 2.000000000000012
    vertex 55.39531364385072 0.49999999999999994 1.1326865371567388e-14
    vertex 55.39531364385072 29.500000000000004 1.3925567400638785e-14
  endloop
endfacet
facet normal 1.0 0.0 0.0
  outer loop
    vertex 55.39531364385072 3.250000000000001 2.000000000000012
    vertex 55.39531364385072 29.500000000000004 1.3925567400638785e-14
    vertex 55.39531364385072 4.250000000000001 2.000000000000012
  endloop
endfacet
facet normal 1.0 0.0 0.0
  outer loop
    vertex 55.39531364385072 4.250000000000001 2.000000000000012
    vertex 55.39531364385072 29.500000000000004 1.3925567400638785e-14
    vertex 55.39531364385072 4.250000000000001 6.000000000000014
  endloop
endfacet
facet normal 1.0 0.0 0.0
  outer loop
    vertex 55.39531364385072 4.250000000000001 6.000000000000014
    vertex 55.39531364385072 29.500000000000004 1.3925567400638785e-14
    vertex 55.39531364385072 25.750000000000004 2.0000000000000147
  endloop
endfacet
facet normal 1.0 0.0 0.0
  outer loop
    vertex 55.39531364385072 25.750000000000004 2.0000000000000147
    vertex 55.39531364385072 29.500000000000004 1.3925567400638785e-14
    vertex 55.39531364385072 26.75 2.0000000000000147
  endloop
endfacet
facet normal 1.0 0.0 0.0
  outer loop
    vertex 55.39531364385072 26.75 2.0000000000000147
    vertex 55.39531364385072 29.500000000000004 1.3925567400638785e-14
    vertex 55.39531364385072 26.75 12.000000000000014
  endloop
endfacet
facet normal 1.0 0.0 0.0
  outer loop
    vertex 55.39531364385072 26.75 12.000000000000014
    vertex 55.39531364385072 29.500000000000004 1.3925567400638785e-14
    vertex 55.39531364385072 29.500000000000004 12.000000000000014
  endloop
endfacet
facet normal 1.0 0.0 0.0
  outer loop
    vertex 55.39531364385072 25.750000000000004 6.000000000000014
    vertex 55.39531364385072 4.250000000000001 6.000000000000014
    vertex 55.39531364385072 25.750000000000004 2.0000000000000147
  endloop
endfacet
facet normal 1.0 0.0 0.0
  outer loop
    vertex 55.39531364385072 3.250000000000001 12.000000000000012
    vertex 55.39531364385072 0.5000000000000016 12.000000000000012
    vertex 55.39531364385072 3.250000000000001 2.000000000000012
  endloop
endfacet
facet normal 0.8320502943378442 1.8802133173643863e-17 -0.5547001962252287
  outer loop
    vertex 55.39531364385072 25.750000000000004 6.000000000000014
    vertex 57.39531364385072 4.250000000000001 9.000000000000012
    vertex 55.39531364385072 4.250000000000001 6.000000000000014
  endloop
endfacet
facet normal 0.8320502943378442 1.8802133173643863e-17 -0.5547001962252287
  outer loop
    vertex 57.39531364385072 4.250000000000001 9.000000000000012
    vertex 55.39531364385072 25.750000000000004 6.000000000000014
    vertex 57.39531364385072 25.750000000000004 9.000000000000014
  endloop
endfacet
facet normal 8.044287923426653e-17 -4.218255602323247e-17 -1.0
  outer loop
    vertex 56.64531364385072 58.99641000000002 5.639932761128885e-15
    vertex 10.0 46.996410000000004 -2.1302110863636264e-16
    vertex 9.999999999999998 58.99641000000002 -3.091888543043528e-15
  endloop
endfacet
facet normal 8.044287923426653e-17 -4.218255602323247e-17 -1.0
  outer loop
    vertex 10.0 46.996410000000004 -2.1302110863636264e-16
    vertex 0.0 29.99641 1.4099830413868454e-15
    vertex 0.0 46.996410000000004 -2.1302110863636264e-16
  endloop
endfacet
facet normal 8.044287923426653e-17 -4.218255602323247e-17 -1.0
  outer loop
    vertex 0.0 29.99641 1.4099830413868454e-15
    vertex 10.0 46.996410000000004 -2.1302110863636264e-16
    vertex 56.64531364385072 29.99641 2.8199662785809874e-15
  endloop
endfacet
facet normal 8.044287923426653e-17 -4.218255602323247e-17 -1.0
  outer loop
    vertex 56.64531364385072 29.99641 2.8199662785809874e-15
    vertex 10.0 46.996410000000004 -2.1302110863636264e-16
    vertex 56.64531364385072 58.99641000000002 5.639932761128885e-15
  endloop
endfacet
facet normal -8.044287923426653e-17 4.218255602323247e-17 1.0
  outer loop
    vertex 56.64531364385072 29.99641 1.0000000000000027
    vertex -8.044287923426652e-17 46.996410000000004 0.9999999999999998
    vertex -8.044287923426652e-17 29.99641 1.0000000000000013
  endloop
endfacet
facet normal -8.044287923426653e-17 4.218255602323247e-17 1.0
  outer loop
    vertex -8.044287923426652e-17 46.996410000000004 0.9999999999999998
    vertex 56.64531364385072 29.99641 1.0000000000000027
    vertex 10.0 46.996410000000004 0.9999999999999998
  endloop
endfacet
facet normal -8.044287923426653e-17 4.218255602323247e-17 1.0
  outer loop
    vertex 10.0 46.996410000000004 0.9999999999999998
    vertex 56.64531364385072 58.99641000000002 1.0000000000000056
    vertex 9.999999999999998 58.99641000000002 0.9999999999999968
  endloop
endfacet
facet normal -8.044287923426653e-17 4.218255602323247e-17 1.0
  outer loop
    vertex 56.64531364385072 58.99641000000002 1.0000000000000056
    vertex 10.0 46.996410000000004 0.9999999999999998
    vertex 56.64531364385072 29.99641 1.0000000000000027
  endloop
endfacet
facet normal 7.896410433862841e-33 1.0 -4.218255602323247e-17
  outer loop
    vertex 9.999999999999998 58.99641000000002 0.9999999999999968
    vertex 56.64531364385072 58.99641000000002 5.639932761128885e-15
    vertex 9.999999999999998 58.99641000000002 -3.091888543043528e-15
  endloop
endfacet
facet normal 7.896410433862841e-33 1.0 -4.218255602323247e-17
  outer loop
    vertex 56.64531364385072 58.99641000000002 5.639932761128885e-15
    vertex 9.999999999999998 58.99641000000002 0.9999999999999968
    vertex 56.64531364385072 58.99641000000002 1.0000000000000056
  endloop
endfacet
facet normal -1.0 -1.1749860343949564e-16 -8.044287923426653e-17
  outer loop
    vertex 9.999999999999998 58.99641000000002 0.9999999999999968
    vertex 10.0 46.996410000000004 -2.1302110863636264e-16
    vertex 10.0 46.996410000000004 0.9999999999999998
  endloop
endfacet
facet normal -1.0 -1.1749860343949564e-16 -8.044287923426653e-17
  outer loop
    vertex 10.0 46.996410000000004 -2.1302110863636264e-16
    vertex 9.999999999999998 58.99641000000002 0.9999999999999968
    vertex 9.999999999999998 58.99641000000002 -3.091888543043528e-15
  endloop
endfacet
facet normal 0.0 1.0 -4.2182556023232477e-17
  outer loop
    vertex -8.044287923426652e-17 46.996410000000004 0.9999999999999998
    vertex 10.0 46.996410000000004 -2.1302110863636264e-16
    vertex 0.0 46.996410000000004 -2.1302110863636264e-16
  endloop
endfacet
facet normal 0.0 1.0 -4.2182556023232477e-17
  outer loop
    vertex 10.0 46.996410000000004 -2.1302110863636264e-16
    vertex -8.044287923426652e-17 46.996410000000004 0.9999999999999998
    vertex 10.0 46.996410000000004 0.9999999999999998
  endloop
endfacet
facet normal -1.0 -7.606729120893726e-33 -8.044287923426653e-17
  outer loop
    vertex -8.044287923426652e-17 46.996410000000004 0.9999999999999998
    vertex 0.0 29.99641 1.4099830413868454e-15
    vertex -8.044287923426652e-17 29.99641 1.0000000000000013
  endloop
endfacet
facet normal -1.0 -7.606729120893726e-33 -8.044287923426653e-17
  outer loop
    vertex 0.0 29.99641 1.4099830413868454e-15
    vertex -8.044287923426652e-17 46.996410000000004 0.9999999999999998
    vertex 0.0 46.996410000000004 -2.1302110863636264e-16
  endloop
endfacet
facet normal -1.0499844218131047e-33 -1.0 4.218255602323247e-17
  outer loop
    vertex 56.64531364385072 29.99641 2.8199662785809874e-15
    vertex -8.044287923426652e-17 29.99641 1.0000000000000013
    vertex 0.0 29.99641 1.4099830413868454e-15
  endloop
endfacet
facet normal -1.0499844218131047e-33 -1.0 4.218255602323247e-17
  outer loop
    vertex -8.044287923426652e-17 29.99641 1.0000000000000013
    vertex 56.64531364385072 29.99641 2.8199662785809874e-15
    vertex 56.64531364385072 29.99641 1.0000000000000027
  endloop
endfacet
facet normal 1.0 -7.822283558630337e-33 8.044287923426653e-17
  outer loop
    vertex 56.64531364385072 58.99641000000002 5.639932761128885e-15
    vertex 56.64531364385072 29.99641 1.0000000000000027
    vertex 56.64531364385072 29.99641 2.8199662785809874e-15
  endloop
endfacet
facet normal 1.0 -7.822283558630337e-33 8.044287923426653e-17
  outer loop
    vertex 56.64531364385072 29.99641 1.0000000000000027
    vertex 56.64531364385072 58.99641000000002 5.639932761128885e-15
    vertex 56.64531364385072 58.99641000000002 1.0000000000000056
  endloop
endfacet
facet normal -2.5497283236109117e-16 1.6607215165451677e-17 1.0
  outer loop
    vertex 55.39531364385072 26.75 12.000000000000014
    vertex 54.39531364385072 28.500000000000004 12.000000000000014
    vertex 54.39531364385072 26.75 12.000000000000014
  endloop
endfacet
facet normal -2.5497283236109117e-16 1.6607215165451677e-17 1.0
  outer loop
    vertex -1.2499999999999956 28.500000000000004 12.0
    vertex 55.39531364385072 29.500000000000004 12.000000000000014
    vertex -1.2499999999999958 29.500000000000004 12.0
  endloop
endfacet
facet normal -2.5497283236109117e-16 1.6607215165451677e-17 1.0
  outer loop
    vertex 55.39531364385072 29.500000000000004 12.000000000000014
    vertex -1.2499999999999956 28.500000000000004 12.0
    vertex 54.39531364385072 28.500000000000004 12.000000000000014
  endloop
endfacet
facet normal -2.5497283236109117e-16 1.6607215165451677e-17 1.0
  outer loop
    vertex 55.39531364385072 29.500000000000004 12.000000000000014
    vertex 54.39531364385072 28.500000000000004 12.000000000000014
    vertex 55.39531364385072 26.75 12.000000000000014
  endloop
endfacet
facet normal -1.0 -8.812395257962197e-17 -8.812395257962183e-17
  outer loop
    vertex -1.2499999999999958 29.500000000000004 12.0
    vertex -1.2499999999999956 28.500000000000004 11.000000000000002
    vertex -1.2499999999999956 28.500000000000004 12.0
  endloop
endfacet
facet normal -1.0 -8.812395257962197e-17 -8.812395257962183e-17
  outer loop
    vertex -1.2499999999999956 28.500000000000004 11.000000000000002
    vertex -1.2499999999999958 29.500000000000004 12.0
    vertex -1.2499999999999956 29.500000000000004 11.000000000000002
  endloop
endfacet
facet normal -9.322765639697496e-17 -1.0 1.2861333619728577e-16
  outer loop
    vertex 0.49999999999999845 0.5000000000000016 12.000000000000012
    vertex -1.2500000000000009 0.5000000000000017 11.000000000000002
    vertex 0.49999999999999933 0.5000000000000008 6.0000000000000115
  endloop
endfacet
facet normal -9.322765639697496e-17 -1.0 1.2861333619728577e-16
  outer loop
    vertex -1.2500000000000009 0.5000000000000017 11.000000000000002
    vertex 0.49999999999999845 0.5000000000000016 12.000000000000012
    vertex -1.2500000000000009 0.5000000000000017 12.00000000000001
  endloop
endfacet
facet normal -0.9438583563660174 1.2808145765281983e-15 -0.3303504247281066
  outer loop
    vertex -1.2500000000000009 0.5000000000000017 11.000000000000002
    vertex 0.49999999999999933 1.5000000000000007 6.0000000000000115
    vertex 0.49999999999999933 0.5000000000000008 6.0000000000000115
  endloop
endfacet
facet normal -0.9438583563660174 1.2808145765281983e-15 -0.3303504247281066
  outer loop
    vertex 0.49999999999999933 1.5000000000000007 6.0000000000000115
    vertex -1.2500000000000009 0.5000000000000017 11.000000000000002
    vertex -1.250000000000001 1.5000000000000016 11.000000000000009
  endloop
endfacet
facet normal 1.0 -1.893033055414097e-16 1.4099832412739508e-16
  outer loop
    vertex 1.500000000000005 28.500000000000004 1.0000000000000009
    vertex 1.4999999999999991 1.5000000000000009 6.0
    vertex 1.5 1.5000000000000002 1.0000000000000107
  endloop
endfacet
facet normal 1.0 -1.893033055414097e-16 1.4099832412739508e-16
  outer loop
    vertex 1.4999999999999991 1.5000000000000009 6.0
    vertex 1.500000000000005 28.500000000000004 1.0000000000000009
    vertex 1.5000000000000042 28.500000000000004 6.0
  endloop
endfacet
facet normal 5.992428775414283e-15 1.9583100573249177e-16 1.0
  outer loop
    vertex 1.4999999999999991 1.5000000000000009 6.0
    vertex 0.5000000000000044 28.500000000000004 6.000000000000001
    vertex 0.49999999999999933 1.5000000000000007 6.0000000000000115
  endloop
endfacet
facet normal 5.992428775414283e-15 1.9583100573249177e-16 1.0
  outer loop
    vertex 0.5000000000000044 28.500000000000004 6.000000000000001
    vertex 1.4999999999999991 1.5000000000000009 6.0
    vertex 1.5000000000000042 28.500000000000004 6.0
  endloop
endfacet
endsolid WL-HandRemote-BatteryCover
