solid PumpController-LCDCase
facet normal 3.5249581031848767e-16 4.3387931219586143e-17 1.0
  outer loop
    vertex 2.5000000000000004 2.0000000000000018 22.500000000000004
    vertex -1.4992665694990182 36.497129802500254 22.499766378704535
    vertex -1.499999999999994 2.0000000000000013 22.500000000000004
  endloop
endfacet
facet normal 3.5249581031848767e-16 4.3387931219586143e-17 1.0
  outer loop
    vertex -1.4992665694990182 36.497129802500254 22.499766378704535
    vertex 2.5000000000000004 2.0000000000000018 22.500000000000004
    vertex 2.500733430500982 36.497129802500254 22.499766378704535
  endloop
endfacet
facet normal 0.0 -9.39988827515966e-17 -1.0
  outer loop
    vertex 2.5000000000000004 33.5 21.5
    vertex -3.0 3.000000000000002 21.500000000000004
    vertex -3.0 33.5 21.5
  endloop
endfacet
facet normal 0.0 -9.39988827515966e-17 -1.0
  outer loop
    vertex -3.0 3.000000000000002 21.500000000000004
    vertex 2.5000000000000004 33.5 21.5
    vertex 2.5000000000000004 3.000000000000002 21.500000000000004
  endloop
endfacet
facet normal 0.0 1.0 0.0
  outer loop
    vertex -3.0 3.000000000000002 21.500000000000004
    vertex 2.5000000000000004 3.000000000000002 13.5
    vertex -3.0 3.000000000000002 13.5
  endloop
endfacet
facet normal 0.0 1.0 0.0
  outer loop
    vertex 2.5000000000000004 3.000000000000002 13.5
    vertex -3.0 3.000000000000002 21.500000000000004
    vertex 2.5000000000000004 3.000000000000002 21.500000000000004
  endloop
endfacet
facet normal 1.0 0.0 0.0
  outer loop
    vertex 2.5000000000000004 2.0000000000000018 12.500000000000002
    vertex 2.5000000000000004 3.000000000000002 13.5
    vertex 2.5000000000000004 2.0000000000000018 22.500000000000004
  endloop
endfacet
facet normal 1.0 0.0 0.0
  outer loop
    vertex 2.5000000000000004 3.000000000000002 13.5
    vertex 2.5000000000000004 2.0000000000000018 12.500000000000002
    vertex 2.500733430500982 36.497129802500254 12.499766378704532
  endloop
endfacet
facet normal 1.0 0.0 0.0
  outer loop
    vertex 2.5000000000000004 3.000000000000002 13.5
    vertex 2.500733430500982 36.497129802500254 12.499766378704532
    vertex 2.5000000000000004 33.5 13.5
  endloop
endfacet
facet normal 1.0 0.0 0.0
  outer loop
    vertex 2.5000000000000004 33.5 13.5
    vertex 2.500733430500982 36.497129802500254 12.499766378704532
    vertex 2.5000000000000004 33.5 21.5
  endloop
endfacet
facet normal 1.0 0.0 0.0
  outer loop
    vertex 2.5000000000000004 2.0000000000000018 22.500000000000004
    vertex 2.5000000000000004 3.000000000000002 21.500000000000004
    vertex 2.500733430500982 36.497129802500254 22.499766378704535
  endloop
endfacet
facet normal 1.0 0.0 0.0
  outer loop
    vertex 2.5000000000000004 3.000000000000002 21.500000000000004
    vertex 2.5000000000000004 2.0000000000000018 22.500000000000004
    vertex 2.5000000000000004 3.000000000000002 13.5
  endloop
endfacet
facet normal 1.0 0.0 0.0
  outer loop
    vertex 2.500733430500982 36.497129802500254 22.499766378704535
    vertex 2.5000000000000004 3.000000000000002 21.500000000000004
    vertex 2.5000000000000004 33.5 21.5
  endloop
endfacet
facet normal 1.0 0.0 0.0
  outer loop
    vertex 2.500733430500982 36.497129802500254 22.499766378704535
    vertex 2.5000000000000004 33.5 21.5
    vertex 2.500733430500982 36.497129802500254 12.499766378704532
  endloop
endfacet
facet normal 0.0 1.0 0.0
  outer loop
    vertex -83.99999999999999 -25.500000000000004 19.499999999999996
    vertex -2.9999999999999947 -25.500000000000004 13.5
    vertex -83.99999999999999 -25.500000000000004 13.5
  endloop
endfacet
facet normal 0.0 1.0 0.0
  outer loop
    vertex -2.9999999999999947 -25.500000000000004 13.5
    vertex -83.99999999999999 -25.500000000000004 19.499999999999996
    vertex -2.9999999999999947 -25.500000000000004 19.499999999999996
  endloop
endfacet
facet normal 0.0 -1.0 0.0
  outer loop
    vertex -1.499999999999995 -32.00000000000001 19.499999999999996
    vertex -85.5 -32.00000000000001 12.500000000000002
    vertex -1.4999999999999944 -32.00000000000001 12.500000000000002
  endloop
endfacet
facet normal 0.0 -1.0 0.0
  outer loop
    vertex -85.5 -32.00000000000001 12.500000000000002
    vertex -1.499999999999995 -32.00000000000001 19.499999999999996
    vertex -85.5 -32.00000000000001 19.499999999999996
  endloop
endfacet
facet normal 0.0 -1.0 0.0
  outer loop
    vertex -85.5 -32.00000000000001 19.499999999999996
    vertex -1.499999999999995 -32.00000000000001 19.499999999999996
    vertex -2.9999999999999947 -32.00000000000001 19.499999999999996
  endloop
endfacet
facet normal 0.0 -1.0 0.0
  outer loop
    vertex -85.5 -32.00000000000001 19.499999999999996
    vertex -2.9999999999999947 -32.00000000000001 19.499999999999996
    vertex -83.99999999999999 -32.00000000000001 19.499999999999996
  endloop
endfacet
facet normal 8.812395257962188e-17 -1.0 1.762479051592435e-17
  outer loop
    vertex 2.5000000000000004 2.0000000000000018 22.500000000000004
    vertex -1.4999999999999942 2.0000000000000013 12.500000000000002
    vertex 2.5000000000000004 2.0000000000000018 12.500000000000002
  endloop
endfacet
facet normal 8.812395257962188e-17 -1.0 1.762479051592435e-17
  outer loop
    vertex -1.4999999999999942 2.0000000000000013 12.500000000000002
    vertex 2.5000000000000004 2.0000000000000018 22.500000000000004
    vertex -1.499999999999994 2.0000000000000013 22.500000000000004
  endloop
endfacet
facet normal 1.0 1.1630719276795928e-18 8.543310949177436e-17
  outer loop
    vertex -1.4999999999999942 2.0000000000000013 12.500000000000002
    vertex -1.499999999999995 -32.00000000000001 19.499999999999996
    vertex -1.4999999999999944 -32.00000000000001 12.500000000000002
  endloop
endfacet
facet normal 1.0 1.1630719276795928e-18 8.543310949177436e-17
  outer loop
    vertex -1.499999999999995 -32.00000000000001 19.499999999999996
    vertex -1.4999999999999942 2.0000000000000013 12.500000000000002
    vertex -1.4999999999999953 -25.500000000000004 37.5
  endloop
endfacet
facet normal 1.0 1.1630719276795928e-18 8.543310949177436e-17
  outer loop
    vertex -1.4999999999999953 -25.500000000000004 37.5
    vertex -1.4999999999999942 2.0000000000000013 12.500000000000002
    vertex -1.4999999999999991 1.9999999999999973 37.5
  endloop
endfacet
facet normal 1.0 1.1630719276795928e-18 8.543310949177436e-17
  outer loop
    vertex -1.4999999999999991 1.9999999999999973 37.5
    vertex -1.4999999999999942 2.0000000000000013 12.500000000000002
    vertex -1.4999999999999944 2.000000000000001 26.000000000000004
  endloop
endfacet
facet normal 1.0 1.1630719276795928e-18 8.543310949177436e-17
  outer loop
    vertex -1.4999999999999944 2.000000000000001 26.000000000000004
    vertex -1.4999999999999942 2.0000000000000013 12.500000000000002
    vertex -1.499999999999994 2.0000000000000013 22.500000000000004
  endloop
endfacet
facet normal 1.0 1.1630719276795928e-18 8.543310949177436e-17
  outer loop
    vertex -1.4999999999999944 2.000000000000001 26.000000000000004
    vertex -1.499999999999994 2.0000000000000013 22.500000000000004
    vertex -1.4992665694990066 36.49999980250024 25.999766378704535
  endloop
endfacet
facet normal 1.0 1.1630719276795928e-18 8.543310949177436e-17
  outer loop
    vertex -1.4992665694990066 36.49999980250024 25.999766378704535
    vertex -1.499999999999994 2.0000000000000013 22.500000000000004
    vertex -1.4992665694990182 36.497129802500254 22.499766378704535
  endloop
endfacet
facet normal -0.00035874997691465454 -0.999999935649225 -2.1665303998541278e-16
  outer loop
    vertex 2.4881612515236635 1.9985692471510126 30.087504882492183
    vertex 0.7588190096180558 1.9992846235755057 32.827826614957026
    vertex 0.4999999645155352 1.9992846235755057 32.79375244124609
  endloop
endfacet
facet normal -0.00035874997691465454 -0.999999935649225 -2.1665303998541278e-16
  outer loop
    vertex 0.7588190096180558 1.9992846235755057 32.827826614957026
    vertex 2.4881612515236635 1.9985692471510126 30.087504882492183
    vertex 0.9999999645155349 1.9992846235755057 32.92772703746165
  endloop
endfacet
facet normal -0.00035874997691465454 -0.999999935649225 -2.1665303998541278e-16
  outer loop
    vertex 0.9999999645155349 1.9992846235755057 32.92772703746165
    vertex 2.4881612515236635 1.9985692471510126 30.087504882492183
    vertex 1.2071067457020825 1.9992846235755057 33.08664566005954
  endloop
endfacet
facet normal -0.00035874997691465454 -0.999999935649225 -2.1665303998541278e-16
  outer loop
    vertex 1.2071067457020825 1.9992846235755057 33.08664566005954
    vertex 2.4881612515236635 1.9985692471510126 30.087504882492183
    vertex 1.3660253682999737 1.9992846235755057 33.29375244124609
  endloop
endfacet
facet normal -0.00035874997691465454 -0.999999935649225 -2.1665303998541278e-16
  outer loop
    vertex 1.3660253682999737 1.9992846235755057 33.29375244124609
    vertex 2.4881612515236635 1.9985692471510126 30.087504882492183
    vertex 1.4659257908046033 1.9992846235755057 33.534933396143565
  endloop
endfacet
facet normal -0.00035874997691465454 -0.999999935649225 -2.1665303998541278e-16
  outer loop
    vertex 1.4659257908046033 1.9992846235755057 33.534933396143565
    vertex 2.4881612515236635 1.9985692471510126 30.087504882492183
    vertex 2.4881612515236635 1.9985692471510126 37.5
  endloop
endfacet
facet normal -0.00035874997691465454 -0.999999935649225 -2.1665303998541278e-16
  outer loop
    vertex 1.4659257908046033 1.9992846235755057 33.534933396143565
    vertex 2.4881612515236635 1.9985692471510126 37.5
    vertex 1.499999964515535 1.9992846235755057 33.79375244124609
  endloop
endfacet
facet normal -0.00035874997691465454 -0.999999935649225 -2.1665303998541278e-16
  outer loop
    vertex 1.499999964515535 1.9992846235755057 33.79375244124609
    vertex 2.4881612515236635 1.9985692471510126 37.5
    vertex 1.4659257908046035 1.9992846235755057 34.05257148634861
  endloop
endfacet
facet normal -0.00035874997691465454 -0.999999935649225 -2.1665303998541278e-16
  outer loop
    vertex 1.4659257908046035 1.9992846235755057 34.05257148634861
    vertex 2.4881612515236635 1.9985692471510126 37.5
    vertex 1.366025368299974 1.9992846235755057 34.29375244124609
  endloop
endfacet
facet normal -0.00035874997691465454 -0.999999935649225 -2.1665303998541278e-16
  outer loop
    vertex 1.366025368299974 1.9992846235755057 34.29375244124609
    vertex 2.4881612515236635 1.9985692471510126 37.5
    vertex 1.207106745702083 1.9992846235755057 34.50085922243264
  endloop
endfacet
facet normal -0.00035874997691465454 -0.999999935649225 -2.1665303998541278e-16
  outer loop
    vertex 1.207106745702083 1.9992846235755057 34.50085922243264
    vertex 2.4881612515236635 1.9985692471510126 37.5
    vertex 0.9999999645155356 1.9992846235755057 34.65977784503053
  endloop
endfacet
facet normal -0.00035874997691465454 -0.999999935649225 -2.1665303998541278e-16
  outer loop
    vertex 0.9999999645155356 1.9992846235755057 34.65977784503053
    vertex 2.4881612515236635 1.9985692471510126 37.5
    vertex 0.9733005981583999 1.9992846235755057 34.670837084682425
  endloop
endfacet
facet normal -0.00035874997691465454 -0.999999935649225 -2.1665303998541278e-16
  outer loop
    vertex 0.9733005981583999 1.9992846235755057 34.670837084682425
    vertex 2.4881612515236635 1.9985692471510126 37.5
    vertex 0.7588190096180567 1.9992846235755057 34.75967826753516
  endloop
endfacet
facet normal -0.00035874997691465454 -0.999999935649225 -2.1665303998541278e-16
  outer loop
    vertex 0.7588190096180567 1.9992846235755057 34.75967826753516
    vertex 2.4881612515236635 1.9985692471510126 37.5
    vertex 0.49999996451553547 1.9992846235755057 34.79375244124609
  endloop
endfacet
facet normal -0.00035874997691465454 -0.999999935649225 -2.1665303998541278e-16
  outer loop
    vertex -1.4999999999999944 2.000000000000001 26.000000000000004
    vertex -0.46592586177353273 1.9992846235755057 33.534933396143565
    vertex -1.4999999999999991 1.9999999999999973 37.5
  endloop
endfacet
facet normal -0.00035874997691465454 -0.999999935649225 -2.1665303998541278e-16
  outer loop
    vertex -0.46592586177353273 1.9992846235755057 33.534933396143565
    vertex -1.4999999999999944 2.000000000000001 26.000000000000004
    vertex -0.3660254392689032 1.9992846235755057 33.29375244124609
  endloop
endfacet
facet normal -0.00035874997691465454 -0.999999935649225 -2.1665303998541278e-16
  outer loop
    vertex -0.3660254392689032 1.9992846235755057 33.29375244124609
    vertex -1.4999999999999944 2.000000000000001 26.000000000000004
    vertex -0.20710681667101216 1.9992846235755057 33.08664566005954
  endloop
endfacet
facet normal -0.00035874997691465454 -0.999999935649225 -2.1665303998541278e-16
  outer loop
    vertex -0.20710681667101216 1.9992846235755057 33.08664566005954
    vertex -1.4999999999999944 2.000000000000001 26.000000000000004
    vertex 2.4881612515236635 1.9985692471510126 30.087504882492183
  endloop
endfacet
facet normal -0.00035874997691465454 -0.999999935649225 -2.1665303998541278e-16
  outer loop
    vertex -0.20710681667101216 1.9992846235755057 33.08664566005954
    vertex 2.4881612515236635 1.9985692471510126 30.087504882492183
    vertex -3.5484464676327483e-08 1.9992846235755057 32.92772703746165
  endloop
endfacet
facet normal -0.00035874997691465454 -0.999999935649225 -2.1665303998541278e-16
  outer loop
    vertex -3.5484464676327483e-08 1.9992846235755057 32.92772703746165
    vertex 2.4881612515236635 1.9985692471510126 30.087504882492183
    vertex 0.24118091941301437 1.9992846235755057 32.827826614957026
  endloop
endfacet
facet normal -0.00035874997691465454 -0.999999935649225 -2.1665303998541278e-16
  outer loop
    vertex 0.24118091941301437 1.9992846235755057 32.827826614957026
    vertex 2.4881612515236635 1.9985692471510126 30.087504882492183
    vertex 0.4999999645155352 1.9992846235755057 32.79375244124609
  endloop
endfacet
facet normal -0.00035874997691465454 -0.999999935649225 -2.1665303998541278e-16
  outer loop
    vertex -3.5484464676327483e-08 1.9992846235755057 32.92772703746165
    vertex 0.24118091941301437 1.9992846235755057 32.827826614957026
    vertex 0.02669933087267073 1.9992846235755057 32.91666779780976
  endloop
endfacet
facet normal -0.00035874997691465454 -0.999999935649225 -2.1665303998541278e-16
  outer loop
    vertex -1.4999999999999991 1.9999999999999973 37.5
    vertex -0.46592586177353273 1.9992846235755057 33.534933396143565
    vertex -0.5000000354844645 1.9992846235755057 33.79375244124609
  endloop
endfacet
facet normal -0.00035874997691465454 -0.999999935649225 -2.1665303998541278e-16
  outer loop
    vertex -1.4999999999999991 1.9999999999999973 37.5
    vertex -0.5000000354844645 1.9992846235755057 33.79375244124609
    vertex -0.4659258617735325 1.9992846235755057 34.05257148634861
  endloop
endfacet
facet normal -0.00035874997691465454 -0.999999935649225 -2.1665303998541278e-16
  outer loop
    vertex -1.4999999999999991 1.9999999999999973 37.5
    vertex -0.4659258617735325 1.9992846235755057 34.05257148634861
    vertex -0.3660254392689028 1.9992846235755057 34.29375244124609
  endloop
endfacet
facet normal -0.00035874997691465454 -0.999999935649225 -2.1665303998541278e-16
  outer loop
    vertex -1.4999999999999991 1.9999999999999973 37.5
    vertex -0.3660254392689028 1.9992846235755057 34.29375244124609
    vertex -0.20710681667101188 1.9992846235755057 34.50085922243264
  endloop
endfacet
facet normal -0.00035874997691465454 -0.999999935649225 -2.1665303998541278e-16
  outer loop
    vertex -1.4999999999999991 1.9999999999999973 37.5
    vertex -0.20710681667101188 1.9992846235755057 34.50085922243264
    vertex -3.548446388321191e-08 1.9992846235755057 34.65977784503053
  endloop
endfacet
facet normal -0.00035874997691465454 -0.999999935649225 -2.1665303998541278e-16
  outer loop
    vertex -1.4999999999999991 1.9999999999999973 37.5
    vertex -3.548446388321191e-08 1.9992846235755057 34.65977784503053
    vertex 0.2411809194130151 1.9992846235755057 34.75967826753516
  endloop
endfacet
facet normal -0.00035874997691465454 -0.999999935649225 -2.1665303998541278e-16
  outer loop
    vertex -1.4999999999999991 1.9999999999999973 37.5
    vertex 0.2411809194130151 1.9992846235755057 34.75967826753516
    vertex 0.49999996451553547 1.9992846235755057 34.79375244124609
  endloop
endfacet
facet normal -0.00035874997691465454 -0.999999935649225 -2.1665303998541278e-16
  outer loop
    vertex -1.4999999999999991 1.9999999999999973 37.5
    vertex 0.49999996451553547 1.9992846235755057 34.79375244124609
    vertex 2.4881612515236635 1.9985692471510126 37.5
  endloop
endfacet
facet normal 0.7152332167733253 -0.00012829494174704812 -0.6988858484505817
  outer loop
    vertex -1.4999999999999944 2.000000000000001 26.000000000000004
    vertex 2.500733430500982 36.49856480250025 30.087271261196715
    vertex 2.4881612515236635 1.9985692471510126 30.087504882492183
  endloop
endfacet
facet normal 0.7152332167733253 -0.00012829494174704812 -0.6988858484505817
  outer loop
    vertex 2.500733430500982 36.49856480250025 30.087271261196715
    vertex -1.4999999999999944 2.000000000000001 26.000000000000004
    vertex -1.4992665694990066 36.49999980250024 25.999766378704535
  endloop
endfacet
facet normal 0.999999935649225 -0.0003587499769142342 -5.845891051234391e-20
  outer loop
    vertex 2.500733430500982 36.49856480250025 30.087271261196715
    vertex 2.4881612515236635 1.9985692471510126 37.5
    vertex 2.4881612515236635 1.9985692471510126 30.087504882492183
  endloop
endfacet
facet normal 0.999999935649225 -0.0003587499769142342 -5.845891051234391e-20
  outer loop
    vertex 2.4881612515236635 1.9985692471510126 37.5
    vertex 2.500733430500982 36.49856480250025 30.087271261196715
    vertex 2.500733430500982 36.49856480250025 37.49976637870453
  endloop
endfacet
facet normal -0.3826834323650844 -0.0 -0.9238795325112892
  outer loop
    vertex 0.7595524401190382 36.49856480250025 34.75944464623969
    vertex 0.9733005981583999 1.9992846235755057 34.670837084682425
    vertex 0.7588190096180567 1.9992846235755057 34.75967826753516
  endloop
endfacet
facet normal -0.3826834323650844 -0.0 -0.9238795325112892
  outer loop
    vertex 0.9733005981583999 1.9992846235755057 34.670837084682425
    vertex 0.7595524401190382 36.49856480250025 34.75944464623969
    vertex 0.9740340286593814 36.49856480250025 34.67060346338695
  endloop
endfacet
facet normal -0.3826834323650676 -0.0 -0.923879532511296
  outer loop
    vertex 0.9740340286593814 36.49856480250025 34.67060346338695
    vertex 0.9999999645155356 1.9992846235755057 34.65977784503053
    vertex 0.9733005981583999 1.9992846235755057 34.670837084682425
  endloop
endfacet
facet normal -0.3826834323650676 -0.0 -0.923879532511296
  outer loop
    vertex 0.9999999645155356 1.9992846235755057 34.65977784503053
    vertex 0.9740340286593814 36.49856480250025 34.67060346338695
    vertex 1.0007333950165171 36.49856480250025 34.65954422373506
  endloop
endfacet
facet normal -0.6087614290087179 -0.0 -0.7933533402912372
  outer loop
    vertex 1.0007333950165171 36.49856480250025 34.65954422373506
    vertex 1.207106745702083 1.9992846235755057 34.50085922243264
    vertex 0.9999999645155356 1.9992846235755057 34.65977784503053
  endloop
endfacet
facet normal -0.6087614290087179 -0.0 -0.7933533402912372
  outer loop
    vertex 1.207106745702083 1.9992846235755057 34.50085922243264
    vertex 1.0007333950165171 36.49856480250025 34.65954422373506
    vertex 1.2078401762030646 36.49856480250025 34.50062560113717
  endloop
endfacet
facet normal -0.7933533402912394 -0.0 -0.6087614290087153
  outer loop
    vertex 1.2078401762030646 36.49856480250025 34.50062560113717
    vertex 1.366025368299974 1.9992846235755057 34.29375244124609
    vertex 1.207106745702083 1.9992846235755057 34.50085922243264
  endloop
endfacet
facet normal -0.7933533402912394 -0.0 -0.6087614290087153
  outer loop
    vertex 1.366025368299974 1.9992846235755057 34.29375244124609
    vertex 1.2078401762030646 36.49856480250025 34.50062560113717
    vertex 1.3667587988009555 36.49856480250025 34.29351881995062
  endloop
endfacet
facet normal -0.9238795325112854 -0.0 -0.3826834323650935
  outer loop
    vertex 1.3667587988009555 36.49856480250025 34.29351881995062
    vertex 1.4659257908046035 1.9992846235755057 34.05257148634861
    vertex 1.366025368299974 1.9992846235755057 34.29375244124609
  endloop
endfacet
facet normal -0.9238795325112854 -0.0 -0.3826834323650935
  outer loop
    vertex 1.4659257908046035 1.9992846235755057 34.05257148634861
    vertex 1.3667587988009555 36.49856480250025 34.29351881995062
    vertex 1.466659221305585 36.49856480250025 34.05233786505315
  endloop
endfacet
facet normal -0.9914448613738106 -0.0 -0.13052619222005007
  outer loop
    vertex 1.466659221305585 36.49856480250025 34.05233786505315
    vertex 1.499999964515535 1.9992846235755057 33.79375244124609
    vertex 1.4659257908046035 1.9992846235755057 34.05257148634861
  endloop
endfacet
facet normal -0.9914448613738106 -0.0 -0.13052619222005007
  outer loop
    vertex 1.499999964515535 1.9992846235755057 33.79375244124609
    vertex 1.466659221305585 36.49856480250025 34.05233786505315
    vertex 1.5007333950165165 36.49856480250025 33.79351881995063
  endloop
endfacet
facet normal -0.9914448613738106 -0.0 0.13052619222005077
  outer loop
    vertex 1.5007333950165165 36.49856480250025 33.79351881995063
    vertex 1.4659257908046033 1.9992846235755057 33.534933396143565
    vertex 1.499999964515535 1.9992846235755057 33.79375244124609
  endloop
endfacet
facet normal -0.9914448613738106 -0.0 0.13052619222005077
  outer loop
    vertex 1.4659257908046033 1.9992846235755057 33.534933396143565
    vertex 1.5007333950165165 36.49856480250025 33.79351881995063
    vertex 1.466659221305585 36.49856480250025 33.5346997748481
  endloop
endfacet
facet normal -0.9238795325112852 -0.0 0.38268343236509406
  outer loop
    vertex 1.466659221305585 36.49856480250025 33.5346997748481
    vertex 1.3660253682999737 1.9992846235755057 33.29375244124609
    vertex 1.4659257908046033 1.9992846235755057 33.534933396143565
  endloop
endfacet
facet normal -0.9238795325112852 -0.0 0.38268343236509406
  outer loop
    vertex 1.3660253682999737 1.9992846235755057 33.29375244124609
    vertex 1.466659221305585 36.49856480250025 33.5346997748481
    vertex 1.366758798800955 36.49856480250025 33.29351881995063
  endloop
endfacet
facet normal -0.793353340291239 -0.0 0.6087614290087157
  outer loop
    vertex 1.366758798800955 36.49856480250025 33.29351881995063
    vertex 1.2071067457020825 1.9992846235755057 33.08664566005954
    vertex 1.3660253682999737 1.9992846235755057 33.29375244124609
  endloop
endfacet
facet normal -0.793353340291239 -0.0 0.6087614290087157
  outer loop
    vertex 1.2071067457020825 1.9992846235755057 33.08664566005954
    vertex 1.366758798800955 36.49856480250025 33.29351881995063
    vertex 1.207840176203064 36.49856480250025 33.086412038764074
  endloop
endfacet
facet normal -0.6087614290087177 -0.0 0.7933533402912377
  outer loop
    vertex 1.2071067457020825 1.9992846235755057 33.08664566005954
    vertex 1.0007333950165165 36.49856480250025 32.927493416166186
    vertex 0.9999999645155349 1.9992846235755057 32.92772703746165
  endloop
endfacet
facet normal -0.6087614290087177 -0.0 0.7933533402912377
  outer loop
    vertex 1.0007333950165165 36.49856480250025 32.927493416166186
    vertex 1.2071067457020825 1.9992846235755057 33.08664566005954
    vertex 1.207840176203064 36.49856480250025 33.086412038764074
  endloop
endfacet
facet normal -0.3826834323650823 -0.0 0.9238795325112901
  outer loop
    vertex 0.9999999645155349 1.9992846235755057 32.92772703746165
    vertex 0.7595524401190373 36.49856480250025 32.827592993661554
    vertex 0.7588190096180558 1.9992846235755057 32.827826614957026
  endloop
endfacet
facet normal -0.3826834323650823 -0.0 0.9238795325112901
  outer loop
    vertex 0.7595524401190373 36.49856480250025 32.827592993661554
    vertex 0.9999999645155349 1.9992846235755057 32.92772703746165
    vertex 1.0007333950165165 36.49856480250025 32.927493416166186
  endloop
endfacet
facet normal -0.1305261922200518 -0.0 0.9914448613738104
  outer loop
    vertex 0.7588190096180558 1.9992846235755057 32.827826614957026
    vertex 0.5007333950165167 36.49856480250025 32.79351881995063
    vertex 0.4999999645155352 1.9992846235755057 32.79375244124609
  endloop
endfacet
facet normal -0.1305261922200518 -0.0 0.9914448613738104
  outer loop
    vertex 0.5007333950165167 36.49856480250025 32.79351881995063
    vertex 0.7588190096180558 1.9992846235755057 32.827826614957026
    vertex 0.7595524401190373 36.49856480250025 32.827592993661554
  endloop
endfacet
facet normal 0.1305261922200517 0.0 0.9914448613738105
  outer loop
    vertex 0.4999999645155352 1.9992846235755057 32.79375244124609
    vertex 0.2419143499139959 36.49856480250025 32.827592993661554
    vertex 0.24118091941301437 1.9992846235755057 32.827826614957026
  endloop
endfacet
facet normal 0.1305261922200517 0.0 0.9914448613738105
  outer loop
    vertex 0.2419143499139959 36.49856480250025 32.827592993661554
    vertex 0.4999999645155352 1.9992846235755057 32.79375244124609
    vertex 0.5007333950165167 36.49856480250025 32.79351881995063
  endloop
endfacet
facet normal 0.3826834323650836 0.0 0.9238795325112895
  outer loop
    vertex 0.24118091941301437 1.9992846235755057 32.827826614957026
    vertex 0.027432761373652245 36.49856480250025 32.916434176514294
    vertex 0.02669933087267073 1.9992846235755057 32.91666779780976
  endloop
endfacet
facet normal 0.3826834323650836 0.0 0.9238795325112895
  outer loop
    vertex 0.027432761373652245 36.49856480250025 32.916434176514294
    vertex 0.24118091941301437 1.9992846235755057 32.827826614957026
    vertex 0.2419143499139959 36.49856480250025 32.827592993661554
  endloop
endfacet
facet normal 0.38268343236507124 0.0 0.9238795325112945
  outer loop
    vertex 0.02669933087267073 1.9992846235755057 32.91666779780976
    vertex 0.0007333950165168373 36.49856480250025 32.927493416166186
    vertex -3.5484464676327483e-08 1.9992846235755057 32.92772703746165
  endloop
endfacet
facet normal 0.38268343236507124 0.0 0.9238795325112945
  outer loop
    vertex 0.0007333950165168373 36.49856480250025 32.927493416166186
    vertex 0.02669933087267073 1.9992846235755057 32.91666779780976
    vertex 0.027432761373652245 36.49856480250025 32.916434176514294
  endloop
endfacet
facet normal 0.6087614290087178 0.0 0.7933533402912375
  outer loop
    vertex -3.5484464676327483e-08 1.9992846235755057 32.92772703746165
    vertex -0.20637338617003062 36.49856480250025 33.086412038764074
    vertex -0.20710681667101216 1.9992846235755057 33.08664566005954
  endloop
endfacet
facet normal 0.6087614290087178 0.0 0.7933533402912375
  outer loop
    vertex -0.20637338617003062 36.49856480250025 33.086412038764074
    vertex -3.5484464676327483e-08 1.9992846235755057 32.92772703746165
    vertex 0.0007333950165168373 36.49856480250025 32.927493416166186
  endloop
endfacet
facet normal 0.7933533402912392 0.0 0.6087614290087154
  outer loop
    vertex -0.20637338617003062 36.49856480250025 33.086412038764074
    vertex -0.3660254392689032 1.9992846235755057 33.29375244124609
    vertex -0.20710681667101216 1.9992846235755057 33.08664566005954
  endloop
endfacet
facet normal 0.7933533402912392 0.0 0.6087614290087154
  outer loop
    vertex -0.3660254392689032 1.9992846235755057 33.29375244124609
    vertex -0.20637338617003062 36.49856480250025 33.086412038764074
    vertex -0.36529200876792167 36.49856480250025 33.29351881995063
  endloop
endfacet
facet normal 0.9238795325112854 0.0 0.3826834323650935
  outer loop
    vertex -0.36529200876792167 36.49856480250025 33.29351881995063
    vertex -0.46592586177353273 1.9992846235755057 33.534933396143565
    vertex -0.3660254392689032 1.9992846235755057 33.29375244124609
  endloop
endfacet
facet normal 0.9238795325112854 0.0 0.3826834323650935
  outer loop
    vertex -0.46592586177353273 1.9992846235755057 33.534933396143565
    vertex -0.36529200876792167 36.49856480250025 33.29351881995063
    vertex -0.46519243127255117 36.49856480250025 33.5346997748481
  endloop
endfacet
facet normal 0.9914448613738106 0.0 0.13052619222005077
  outer loop
    vertex -0.46519243127255117 36.49856480250025 33.5346997748481
    vertex -0.5000000354844645 1.9992846235755057 33.79375244124609
    vertex -0.46592586177353273 1.9992846235755057 33.534933396143565
  endloop
endfacet
facet normal 0.9914448613738106 0.0 0.13052619222005077
  outer loop
    vertex -0.5000000354844645 1.9992846235755057 33.79375244124609
    vertex -0.46519243127255117 36.49856480250025 33.5346997748481
    vertex -0.49926660498348296 36.49856480250025 33.79351881995063
  endloop
endfacet
facet normal 0.9914448613738105 -0.0 -0.1305261922200514
  outer loop
    vertex -0.49926660498348296 36.49856480250025 33.79351881995063
    vertex -0.4659258617735325 1.9992846235755057 34.05257148634861
    vertex -0.5000000354844645 1.9992846235755057 33.79375244124609
  endloop
endfacet
facet normal 0.9914448613738105 -0.0 -0.1305261922200514
  outer loop
    vertex -0.4659258617735325 1.9992846235755057 34.05257148634861
    vertex -0.49926660498348296 36.49856480250025 33.79351881995063
    vertex -0.465192431272551 36.49856480250025 34.05233786505315
  endloop
endfacet
facet normal 0.9238795325112852 -0.0 -0.38268343236509406
  outer loop
    vertex -0.465192431272551 36.49856480250025 34.05233786505315
    vertex -0.3660254392689028 1.9992846235755057 34.29375244124609
    vertex -0.4659258617735325 1.9992846235755057 34.05257148634861
  endloop
endfacet
facet normal 0.9238795325112852 -0.0 -0.38268343236509406
  outer loop
    vertex -0.3660254392689028 1.9992846235755057 34.29375244124609
    vertex -0.465192431272551 36.49856480250025 34.05233786505315
    vertex -0.3652920087679213 36.49856480250025 34.29351881995062
  endloop
endfacet
facet normal 0.7933533402912394 -0.0 -0.6087614290087153
  outer loop
    vertex -0.3652920087679213 36.49856480250025 34.29351881995062
    vertex -0.20710681667101188 1.9992846235755057 34.50085922243264
    vertex -0.3660254392689028 1.9992846235755057 34.29375244124609
  endloop
endfacet
facet normal 0.7933533402912394 -0.0 -0.6087614290087153
  outer loop
    vertex -0.20710681667101188 1.9992846235755057 34.50085922243264
    vertex -0.3652920087679213 36.49856480250025 34.29351881995062
    vertex -0.20637338617003037 36.49856480250025 34.50062560113717
  endloop
endfacet
facet normal 0.6087614290087169 -0.0 -0.7933533402912383
  outer loop
    vertex -0.20637338617003037 36.49856480250025 34.50062560113717
    vertex -3.548446388321191e-08 1.9992846235755057 34.65977784503053
    vertex -0.20710681667101188 1.9992846235755057 34.50085922243264
  endloop
endfacet
facet normal 0.6087614290087169 -0.0 -0.7933533402912383
  outer loop
    vertex -3.548446388321191e-08 1.9992846235755057 34.65977784503053
    vertex -0.20637338617003037 36.49856480250025 34.50062560113717
    vertex 0.0007333950165176304 36.49856480250025 34.65954422373506
  endloop
endfacet
facet normal 0.3826834323650823 -0.0 -0.9238795325112898
  outer loop
    vertex 0.0007333950165176304 36.49856480250025 34.65954422373506
    vertex 0.2411809194130151 1.9992846235755057 34.75967826753516
    vertex -3.548446388321191e-08 1.9992846235755057 34.65977784503053
  endloop
endfacet
facet normal 0.3826834323650823 -0.0 -0.9238795325112898
  outer loop
    vertex 0.2411809194130151 1.9992846235755057 34.75967826753516
    vertex 0.0007333950165176304 36.49856480250025 34.65954422373506
    vertex 0.2419143499139966 36.49856480250025 34.75944464623969
  endloop
endfacet
facet normal 0.13052619222005193 -0.0 -0.9914448613738104
  outer loop
    vertex 0.2419143499139966 36.49856480250025 34.75944464623969
    vertex 0.49999996451553547 1.9992846235755057 34.79375244124609
    vertex 0.2411809194130151 1.9992846235755057 34.75967826753516
  endloop
endfacet
facet normal 0.13052619222005193 -0.0 -0.9914448613738104
  outer loop
    vertex 0.49999996451553547 1.9992846235755057 34.79375244124609
    vertex 0.2419143499139966 36.49856480250025 34.75944464623969
    vertex 0.500733395016517 36.49856480250025 34.79351881995062
  endloop
endfacet
facet normal -0.13052619222005152 -0.0 -0.9914448613738106
  outer loop
    vertex 0.500733395016517 36.49856480250025 34.79351881995062
    vertex 0.7588190096180567 1.9992846235755057 34.75967826753516
    vertex 0.49999996451553547 1.9992846235755057 34.79375244124609
  endloop
endfacet
facet normal -0.13052619222005152 -0.0 -0.9914448613738106
  outer loop
    vertex 0.7588190096180567 1.9992846235755057 34.75967826753516
    vertex 0.500733395016517 36.49856480250025 34.79351881995062
    vertex 0.7595524401190382 36.49856480250025 34.75944464623969
  endloop
endfacet
facet normal -4.839319009702459e-33 -2.0065670637211305e-48 1.0
  outer loop
    vertex -83.99999999999999 -32.00000000000001 19.499999999999996
    vertex -43.49999999999999 -29.750000000000004 19.499999999999996
    vertex -83.99999999999999 -25.500000000000004 19.499999999999996
  endloop
endfacet
facet normal -4.839319009702459e-33 -2.0065670637211305e-48 1.0
  outer loop
    vertex -43.49999999999999 -29.750000000000004 19.499999999999996
    vertex -83.99999999999999 -32.00000000000001 19.499999999999996
    vertex -2.9999999999999947 -32.00000000000001 19.499999999999996
  endloop
endfacet
facet normal -4.839319009702459e-33 -2.0065670637211305e-48 1.0
  outer loop
    vertex -83.99999999999999 -25.500000000000004 19.499999999999996
    vertex -43.49999999999999 -29.750000000000004 19.499999999999996
    vertex -43.75881904510252 -29.71592582628907 19.499999999999996
  endloop
endfacet
facet normal -4.839319009702459e-33 -2.0065670637211305e-48 1.0
  outer loop
    vertex -83.99999999999999 -25.500000000000004 19.499999999999996
    vertex -43.75881904510252 -29.71592582628907 19.499999999999996
    vertex -43.99999999999999 -29.616025403784445 19.499999999999996
  endloop
endfacet
facet normal -4.839319009702459e-33 -2.0065670637211305e-48 1.0
  outer loop
    vertex -83.99999999999999 -25.500000000000004 19.499999999999996
    vertex -43.99999999999999 -29.616025403784445 19.499999999999996
    vertex -44.20710678118654 -29.457106781186546 19.499999999999996
  endloop
endfacet
facet normal -4.839319009702459e-33 -2.0065670637211305e-48 1.0
  outer loop
    vertex -83.99999999999999 -25.500000000000004 19.499999999999996
    vertex -44.20710678118654 -29.457106781186546 19.499999999999996
    vertex -44.366025403784434 -29.250000000000004 19.499999999999996
  endloop
endfacet
facet normal -4.839319009702459e-33 -2.0065670637211305e-48 1.0
  outer loop
    vertex -83.99999999999999 -25.500000000000004 19.499999999999996
    vertex -44.366025403784434 -29.250000000000004 19.499999999999996
    vertex -44.46592582628906 -29.008819045102527 19.499999999999996
  endloop
endfacet
facet normal -4.839319009702459e-33 -2.0065670637211305e-48 1.0
  outer loop
    vertex -83.99999999999999 -25.500000000000004 19.499999999999996
    vertex -44.46592582628906 -29.008819045102527 19.499999999999996
    vertex -44.49999999999999 -28.750000000000004 19.499999999999996
  endloop
endfacet
facet normal -4.839319009702459e-33 -2.0065670637211305e-48 1.0
  outer loop
    vertex -43.49999999999999 -29.750000000000004 19.499999999999996
    vertex -2.9999999999999947 -32.00000000000001 19.499999999999996
    vertex -43.24118095489747 -29.71592582628907 19.499999999999996
  endloop
endfacet
facet normal -4.839319009702459e-33 -2.0065670637211305e-48 1.0
  outer loop
    vertex -43.24118095489747 -29.71592582628907 19.499999999999996
    vertex -2.9999999999999947 -32.00000000000001 19.499999999999996
    vertex -42.99999999999999 -29.616025403784445 19.499999999999996
  endloop
endfacet
facet normal -4.839319009702459e-33 -2.0065670637211305e-48 1.0
  outer loop
    vertex -42.99999999999999 -29.616025403784445 19.499999999999996
    vertex -2.9999999999999947 -32.00000000000001 19.499999999999996
    vertex -42.79289321881345 -29.457106781186546 19.499999999999996
  endloop
endfacet
facet normal -4.839319009702459e-33 -2.0065670637211305e-48 1.0
  outer loop
    vertex -42.79289321881345 -29.457106781186546 19.499999999999996
    vertex -2.9999999999999947 -32.00000000000001 19.499999999999996
    vertex -42.63397459621555 -29.250000000000004 19.499999999999996
  endloop
endfacet
facet normal -4.839319009702459e-33 -2.0065670637211305e-48 1.0
  outer loop
    vertex -42.63397459621555 -29.250000000000004 19.499999999999996
    vertex -2.9999999999999947 -32.00000000000001 19.499999999999996
    vertex -42.53407417371093 -29.008819045102527 19.499999999999996
  endloop
endfacet
facet normal -4.839319009702459e-33 -2.0065670637211305e-48 1.0
  outer loop
    vertex -42.53407417371093 -29.008819045102527 19.499999999999996
    vertex -2.9999999999999947 -32.00000000000001 19.499999999999996
    vertex -42.49999999999999 -28.750000000000004 19.499999999999996
  endloop
endfacet
facet normal -4.839319009702459e-33 -2.0065670637211305e-48 1.0
  outer loop
    vertex -83.99999999999999 -25.500000000000004 19.499999999999996
    vertex -43.49999999999999 -27.750000000000007 19.499999999999996
    vertex -2.9999999999999947 -25.500000000000004 19.499999999999996
  endloop
endfacet
facet normal -4.839319009702459e-33 -2.0065670637211305e-48 1.0
  outer loop
    vertex -43.49999999999999 -27.750000000000007 19.499999999999996
    vertex -83.99999999999999 -25.500000000000004 19.499999999999996
    vertex -43.75881904510252 -27.784074173710938 19.499999999999996
  endloop
endfacet
facet normal -4.839319009702459e-33 -2.0065670637211305e-48 1.0
  outer loop
    vertex -43.75881904510252 -27.784074173710938 19.499999999999996
    vertex -83.99999999999999 -25.500000000000004 19.499999999999996
    vertex -43.99999999999999 -27.883974596215566 19.499999999999996
  endloop
endfacet
facet normal -4.839319009702459e-33 -2.0065670637211305e-48 1.0
  outer loop
    vertex -43.99999999999999 -27.883974596215566 19.499999999999996
    vertex -83.99999999999999 -25.500000000000004 19.499999999999996
    vertex -44.207106781186546 -28.04289321881346 19.499999999999996
  endloop
endfacet
facet normal -4.839319009702459e-33 -2.0065670637211305e-48 1.0
  outer loop
    vertex -44.207106781186546 -28.04289321881346 19.499999999999996
    vertex -83.99999999999999 -25.500000000000004 19.499999999999996
    vertex -44.366025403784434 -28.250000000000004 19.499999999999996
  endloop
endfacet
facet normal -4.839319009702459e-33 -2.0065670637211305e-48 1.0
  outer loop
    vertex -44.366025403784434 -28.250000000000004 19.499999999999996
    vertex -83.99999999999999 -25.500000000000004 19.499999999999996
    vertex -44.46592582628906 -28.491180954897487 19.499999999999996
  endloop
endfacet
facet normal -4.839319009702459e-33 -2.0065670637211305e-48 1.0
  outer loop
    vertex -44.46592582628906 -28.491180954897487 19.499999999999996
    vertex -83.99999999999999 -25.500000000000004 19.499999999999996
    vertex -44.49999999999999 -28.750000000000004 19.499999999999996
  endloop
endfacet
facet normal -4.839319009702459e-33 -2.0065670637211305e-48 1.0
  outer loop
    vertex -2.9999999999999947 -25.500000000000004 19.499999999999996
    vertex -43.49999999999999 -27.750000000000007 19.499999999999996
    vertex -43.24118095489747 -27.784074173710938 19.499999999999996
  endloop
endfacet
facet normal -4.839319009702459e-33 -2.0065670637211305e-48 1.0
  outer loop
    vertex -2.9999999999999947 -25.500000000000004 19.499999999999996
    vertex -43.24118095489747 -27.784074173710938 19.499999999999996
    vertex -42.99999999999999 -27.883974596215566 19.499999999999996
  endloop
endfacet
facet normal -4.839319009702459e-33 -2.0065670637211305e-48 1.0
  outer loop
    vertex -2.9999999999999947 -25.500000000000004 19.499999999999996
    vertex -42.99999999999999 -27.883974596215566 19.499999999999996
    vertex -42.79289321881345 -28.04289321881346 19.499999999999996
  endloop
endfacet
facet normal -4.839319009702459e-33 -2.0065670637211305e-48 1.0
  outer loop
    vertex -2.9999999999999947 -25.500000000000004 19.499999999999996
    vertex -42.79289321881345 -28.04289321881346 19.499999999999996
    vertex -42.63397459621555 -28.250000000000004 19.499999999999996
  endloop
endfacet
facet normal -4.839319009702459e-33 -2.0065670637211305e-48 1.0
  outer loop
    vertex -2.9999999999999947 -25.500000000000004 19.499999999999996
    vertex -42.63397459621555 -28.250000000000004 19.499999999999996
    vertex -42.53407417371093 -28.49118095489748 19.499999999999996
  endloop
endfacet
facet normal -4.839319009702459e-33 -2.0065670637211305e-48 1.0
  outer loop
    vertex -2.9999999999999947 -25.500000000000004 19.499999999999996
    vertex -42.53407417371093 -28.49118095489748 19.499999999999996
    vertex -42.49999999999999 -28.750000000000004 19.499999999999996
  endloop
endfacet
facet normal -4.839319009702459e-33 -2.0065670637211305e-48 1.0
  outer loop
    vertex -2.9999999999999947 -25.500000000000004 19.499999999999996
    vertex -42.49999999999999 -28.750000000000004 19.499999999999996
    vertex -2.9999999999999947 -32.00000000000001 19.499999999999996
  endloop
endfacet
facet normal -1.0 -9.758097129041029e-17 4.8868053996643216e-17
  outer loop
    vertex -2.9999999999999947 -25.500000000000004 37.5
    vertex -2.9999999999999947 -25.500000000000004 19.499999999999996
    vertex -2.9999999999999947 -32.00000000000001 19.499999999999996
  endloop
endfacet
facet normal -1.0 -9.758097129041029e-17 4.8868053996643216e-17
  outer loop
    vertex -2.9999999999999947 -25.500000000000004 19.499999999999996
    vertex -2.9999999999999947 -25.500000000000004 37.5
    vertex -3.0 33.5 37.5
  endloop
endfacet
facet normal -1.0 -9.758097129041029e-17 4.8868053996643216e-17
  outer loop
    vertex -2.9999999999999947 -25.500000000000004 19.499999999999996
    vertex -3.0 33.5 37.5
    vertex -2.9999999999999947 -25.500000000000004 13.5
  endloop
endfacet
facet normal -1.0 -9.758097129041029e-17 4.8868053996643216e-17
  outer loop
    vertex -2.9999999999999947 -25.500000000000004 13.5
    vertex -3.0 33.5 37.5
    vertex -3.0 3.000000000000002 21.500000000000004
  endloop
endfacet
facet normal -1.0 -9.758097129041029e-17 4.8868053996643216e-17
  outer loop
    vertex -3.0 3.000000000000002 21.500000000000004
    vertex -3.0 33.5 37.5
    vertex -3.0 33.5 21.5
  endloop
endfacet
facet normal -1.0 -9.758097129041029e-17 4.8868053996643216e-17
  outer loop
    vertex -3.0 3.000000000000002 13.5
    vertex -2.9999999999999947 -25.500000000000004 13.5
    vertex -3.0 3.000000000000002 21.500000000000004
  endloop
endfacet
facet normal 1.0 9.385926013191038e-17 -2.7824949080322177e-18
  outer loop
    vertex -84.0 35.0 13.5
    vertex -83.99999999999999 -25.500000000000004 19.499999999999996
    vertex -83.99999999999999 -25.500000000000004 13.5
  endloop
endfacet
facet normal 1.0 9.385926013191038e-17 -2.7824949080322177e-18
  outer loop
    vertex -83.99999999999999 -25.500000000000004 19.499999999999996
    vertex -84.0 35.0 13.5
    vertex -83.99999999999999 -25.500000000000004 37.5
  endloop
endfacet
facet normal 1.0 9.385926013191038e-17 -2.7824949080322177e-18
  outer loop
    vertex -83.99999999999999 -25.500000000000004 37.5
    vertex -84.0 35.0 13.5
    vertex -84.0 35.0 37.5
  endloop
endfacet
facet normal 1.0 9.385926013191038e-17 -2.7824949080322177e-18
  outer loop
    vertex -83.99999999999999 -25.500000000000004 37.5
    vertex -83.99999999999999 -32.00000000000001 19.499999999999996
    vertex -83.99999999999999 -25.500000000000004 19.499999999999996
  endloop
endfacet
facet normal 0.13052619222005077 0.9914448613738106 0.0
  outer loop
    vertex -43.75881904510252 -29.71592582628907 19.499999999999996
    vertex -43.49999999999999 -29.750000000000004 12.499999999999988
    vertex -43.75881904510252 -29.71592582628907 12.499999999999988
  endloop
endfacet
facet normal 0.13052619222005077 0.9914448613738106 0.0
  outer loop
    vertex -43.49999999999999 -29.750000000000004 12.499999999999988
    vertex -43.75881904510252 -29.71592582628907 19.499999999999996
    vertex -43.49999999999999 -29.750000000000004 19.499999999999996
  endloop
endfacet
facet normal -0.13052619222005077 0.9914448613738106 -0.0
  outer loop
    vertex -43.49999999999999 -29.750000000000004 19.499999999999996
    vertex -43.24118095489747 -29.71592582628907 12.499999999999988
    vertex -43.49999999999999 -29.750000000000004 12.499999999999988
  endloop
endfacet
facet normal -0.13052619222005077 0.9914448613738106 -0.0
  outer loop
    vertex -43.24118095489747 -29.71592582628907 12.499999999999988
    vertex -43.49999999999999 -29.750000000000004 19.499999999999996
    vertex -43.24118095489747 -29.71592582628907 19.499999999999996
  endloop
endfacet
facet normal -0.38268343236508595 0.9238795325112884 -0.0
  outer loop
    vertex -43.24118095489747 -29.71592582628907 19.499999999999996
    vertex -42.99999999999999 -29.616025403784445 12.499999999999988
    vertex -43.24118095489747 -29.71592582628907 12.499999999999988
  endloop
endfacet
facet normal -0.38268343236508595 0.9238795325112884 -0.0
  outer loop
    vertex -42.99999999999999 -29.616025403784445 12.499999999999988
    vertex -43.24118095489747 -29.71592582628907 19.499999999999996
    vertex -42.99999999999999 -29.616025403784445 19.499999999999996
  endloop
endfacet
facet normal -0.6087614290087368 0.7933533402912228 -0.0
  outer loop
    vertex -42.99999999999999 -29.616025403784445 19.499999999999996
    vertex -42.79289321881345 -29.457106781186546 12.499999999999988
    vertex -42.99999999999999 -29.616025403784445 12.499999999999988
  endloop
endfacet
facet normal -0.6087614290087368 0.7933533402912228 -0.0
  outer loop
    vertex -42.79289321881345 -29.457106781186546 12.499999999999988
    vertex -42.99999999999999 -29.616025403784445 19.499999999999996
    vertex -42.79289321881345 -29.457106781186546 19.499999999999996
  endloop
endfacet
facet normal -0.7933533402912228 0.6087614290087368 -0.0
  outer loop
    vertex -42.63397459621555 -29.250000000000004 19.499999999999996
    vertex -42.79289321881345 -29.457106781186546 12.499999999999988
    vertex -42.79289321881345 -29.457106781186546 19.499999999999996
  endloop
endfacet
facet normal -0.7933533402912228 0.6087614290087368 -0.0
  outer loop
    vertex -42.79289321881345 -29.457106781186546 12.499999999999988
    vertex -42.63397459621555 -29.250000000000004 19.499999999999996
    vertex -42.63397459621555 -29.250000000000004 12.499999999999988
  endloop
endfacet
facet normal -0.9238795325112884 0.38268343236508595 -0.0
  outer loop
    vertex -42.53407417371093 -29.008819045102527 19.499999999999996
    vertex -42.63397459621555 -29.250000000000004 12.499999999999988
    vertex -42.63397459621555 -29.250000000000004 19.499999999999996
  endloop
endfacet
facet normal -0.9238795325112884 0.38268343236508595 -0.0
  outer loop
    vertex -42.63397459621555 -29.250000000000004 12.499999999999988
    vertex -42.53407417371093 -29.008819045102527 19.499999999999996
    vertex -42.53407417371093 -29.008819045102527 12.499999999999988
  endloop
endfacet
facet normal -0.9914448613738106 0.13052619222005077 -0.0
  outer loop
    vertex -42.49999999999999 -28.750000000000004 19.499999999999996
    vertex -42.53407417371093 -29.008819045102527 12.499999999999988
    vertex -42.53407417371093 -29.008819045102527 19.499999999999996
  endloop
endfacet
facet normal -0.9914448613738106 0.13052619222005077 -0.0
  outer loop
    vertex -42.53407417371093 -29.008819045102527 12.499999999999988
    vertex -42.49999999999999 -28.750000000000004 19.499999999999996
    vertex -42.49999999999999 -28.750000000000004 12.499999999999988
  endloop
endfacet
facet normal -0.9914448613738106 -0.13052619222005077 -0.0
  outer loop
    vertex -42.53407417371093 -28.49118095489748 19.499999999999996
    vertex -42.49999999999999 -28.750000000000004 12.499999999999988
    vertex -42.49999999999999 -28.750000000000004 19.499999999999996
  endloop
endfacet
facet normal -0.9914448613738106 -0.13052619222005077 -0.0
  outer loop
    vertex -42.49999999999999 -28.750000000000004 12.499999999999988
    vertex -42.53407417371093 -28.49118095489748 19.499999999999996
    vertex -42.53407417371093 -28.49118095489748 12.499999999999988
  endloop
endfacet
facet normal -0.9238795325112884 -0.38268343236508595 -0.0
  outer loop
    vertex -42.63397459621555 -28.250000000000004 19.499999999999996
    vertex -42.53407417371093 -28.49118095489748 12.499999999999988
    vertex -42.53407417371093 -28.49118095489748 19.499999999999996
  endloop
endfacet
facet normal -0.9238795325112884 -0.38268343236508595 -0.0
  outer loop
    vertex -42.53407417371093 -28.49118095489748 12.499999999999988
    vertex -42.63397459621555 -28.250000000000004 19.499999999999996
    vertex -42.63397459621555 -28.250000000000004 12.499999999999988
  endloop
endfacet
facet normal -0.7933533402912228 -0.6087614290087368 -0.0
  outer loop
    vertex -42.79289321881345 -28.04289321881346 19.499999999999996
    vertex -42.63397459621555 -28.250000000000004 12.499999999999988
    vertex -42.63397459621555 -28.250000000000004 19.499999999999996
  endloop
endfacet
facet normal -0.7933533402912228 -0.6087614290087368 -0.0
  outer loop
    vertex -42.63397459621555 -28.250000000000004 12.499999999999988
    vertex -42.79289321881345 -28.04289321881346 19.499999999999996
    vertex -42.79289321881345 -28.04289321881346 12.499999999999988
  endloop
endfacet
facet normal -0.6087614290087368 -0.7933533402912228 -0.0
  outer loop
    vertex -42.79289321881345 -28.04289321881346 19.499999999999996
    vertex -42.99999999999999 -27.883974596215566 12.499999999999988
    vertex -42.79289321881345 -28.04289321881346 12.499999999999988
  endloop
endfacet
facet normal -0.6087614290087368 -0.7933533402912228 -0.0
  outer loop
    vertex -42.99999999999999 -27.883974596215566 12.499999999999988
    vertex -42.79289321881345 -28.04289321881346 19.499999999999996
    vertex -42.99999999999999 -27.883974596215566 19.499999999999996
  endloop
endfacet
facet normal -0.38268343236507835 -0.9238795325112916 -0.0
  outer loop
    vertex -42.99999999999999 -27.883974596215566 19.499999999999996
    vertex -43.24118095489747 -27.784074173710938 12.499999999999988
    vertex -42.99999999999999 -27.883974596215566 12.499999999999988
  endloop
endfacet
facet normal -0.38268343236507835 -0.9238795325112916 -0.0
  outer loop
    vertex -43.24118095489747 -27.784074173710938 12.499999999999988
    vertex -42.99999999999999 -27.883974596215566 19.499999999999996
    vertex -43.24118095489747 -27.784074173710938 19.499999999999996
  endloop
endfacet
facet normal -0.13052619222005354 -0.9914448613738103 -0.0
  outer loop
    vertex -43.24118095489747 -27.784074173710938 19.499999999999996
    vertex -43.49999999999999 -27.750000000000007 12.499999999999988
    vertex -43.24118095489747 -27.784074173710938 12.499999999999988
  endloop
endfacet
facet normal -0.13052619222005354 -0.9914448613738103 -0.0
  outer loop
    vertex -43.49999999999999 -27.750000000000007 12.499999999999988
    vertex -43.24118095489747 -27.784074173710938 19.499999999999996
    vertex -43.49999999999999 -27.750000000000007 19.499999999999996
  endloop
endfacet
facet normal 0.13052619222005077 -0.9914448613738106 -0.0
  outer loop
    vertex -43.49999999999999 -27.750000000000007 19.499999999999996
    vertex -43.75881904510252 -27.784074173710938 12.499999999999988
    vertex -43.49999999999999 -27.750000000000007 12.499999999999988
  endloop
endfacet
facet normal 0.13052619222005077 -0.9914448613738106 -0.0
  outer loop
    vertex -43.75881904510252 -27.784074173710938 12.499999999999988
    vertex -43.49999999999999 -27.750000000000007 19.499999999999996
    vertex -43.75881904510252 -27.784074173710938 19.499999999999996
  endloop
endfacet
facet normal 0.38268343236508595 -0.9238795325112884 -0.0
  outer loop
    vertex -43.75881904510252 -27.784074173710938 19.499999999999996
    vertex -43.99999999999999 -27.883974596215566 12.499999999999988
    vertex -43.75881904510252 -27.784074173710938 12.499999999999988
  endloop
endfacet
facet normal 0.38268343236508595 -0.9238795325112884 -0.0
  outer loop
    vertex -43.99999999999999 -27.883974596215566 12.499999999999988
    vertex -43.75881904510252 -27.784074173710938 19.499999999999996
    vertex -43.99999999999999 -27.883974596215566 19.499999999999996
  endloop
endfacet
facet normal 0.6087614290087263 -0.793353340291231 -0.0
  outer loop
    vertex -43.99999999999999 -27.883974596215566 19.499999999999996
    vertex -44.207106781186546 -28.04289321881346 12.499999999999988
    vertex -43.99999999999999 -27.883974596215566 12.499999999999988
  endloop
endfacet
facet normal 0.6087614290087263 -0.793353340291231 -0.0
  outer loop
    vertex -44.207106781186546 -28.04289321881346 12.499999999999988
    vertex -43.99999999999999 -27.883974596215566 19.499999999999996
    vertex -44.207106781186546 -28.04289321881346 19.499999999999996
  endloop
endfacet
facet normal 0.7933533402912333 -0.6087614290087231 -0.0
  outer loop
    vertex -44.207106781186546 -28.04289321881346 12.499999999999988
    vertex -44.366025403784434 -28.250000000000004 19.499999999999996
    vertex -44.366025403784434 -28.250000000000004 12.499999999999988
  endloop
endfacet
facet normal 0.7933533402912333 -0.6087614290087231 -0.0
  outer loop
    vertex -44.366025403784434 -28.250000000000004 19.499999999999996
    vertex -44.207106781186546 -28.04289321881346 12.499999999999988
    vertex -44.207106781186546 -28.04289321881346 19.499999999999996
  endloop
endfacet
facet normal 0.9238795325112916 -0.38268343236507835 -0.0
  outer loop
    vertex -44.366025403784434 -28.250000000000004 12.499999999999988
    vertex -44.46592582628906 -28.491180954897487 19.499999999999996
    vertex -44.46592582628906 -28.491180954897487 12.499999999999988
  endloop
endfacet
facet normal 0.9238795325112916 -0.38268343236507835 -0.0
  outer loop
    vertex -44.46592582628906 -28.491180954897487 19.499999999999996
    vertex -44.366025403784434 -28.250000000000004 12.499999999999988
    vertex -44.366025403784434 -28.250000000000004 19.499999999999996
  endloop
endfacet
facet normal 0.9914448613738103 -0.13052619222005354 -0.0
  outer loop
    vertex -44.46592582628906 -28.491180954897487 12.499999999999988
    vertex -44.49999999999999 -28.750000000000004 19.499999999999996
    vertex -44.49999999999999 -28.750000000000004 12.499999999999988
  endloop
endfacet
facet normal 0.9914448613738103 -0.13052619222005354 -0.0
  outer loop
    vertex -44.49999999999999 -28.750000000000004 19.499999999999996
    vertex -44.46592582628906 -28.491180954897487 12.499999999999988
    vertex -44.46592582628906 -28.491180954897487 19.499999999999996
  endloop
endfacet
facet normal 0.9914448613738106 0.13052619222005077 0.0
  outer loop
    vertex -44.49999999999999 -28.750000000000004 12.499999999999988
    vertex -44.46592582628906 -29.008819045102527 19.499999999999996
    vertex -44.46592582628906 -29.008819045102527 12.499999999999988
  endloop
endfacet
facet normal 0.9914448613738106 0.13052619222005077 0.0
  outer loop
    vertex -44.46592582628906 -29.008819045102527 19.499999999999996
    vertex -44.49999999999999 -28.750000000000004 12.499999999999988
    vertex -44.49999999999999 -28.750000000000004 19.499999999999996
  endloop
endfacet
facet normal 0.9238795325112884 0.38268343236508595 0.0
  outer loop
    vertex -44.46592582628906 -29.008819045102527 12.499999999999988
    vertex -44.366025403784434 -29.250000000000004 19.499999999999996
    vertex -44.366025403784434 -29.250000000000004 12.499999999999988
  endloop
endfacet
facet normal 0.9238795325112884 0.38268343236508595 0.0
  outer loop
    vertex -44.366025403784434 -29.250000000000004 19.499999999999996
    vertex -44.46592582628906 -29.008819045102527 12.499999999999988
    vertex -44.46592582628906 -29.008819045102527 19.499999999999996
  endloop
endfacet
facet normal 0.7933533402912228 0.6087614290087368 0.0
  outer loop
    vertex -44.366025403784434 -29.250000000000004 12.499999999999988
    vertex -44.20710678118654 -29.457106781186546 19.499999999999996
    vertex -44.20710678118654 -29.457106781186546 12.499999999999988
  endloop
endfacet
facet normal 0.7933533402912228 0.6087614290087368 0.0
  outer loop
    vertex -44.20710678118654 -29.457106781186546 19.499999999999996
    vertex -44.366025403784434 -29.250000000000004 12.499999999999988
    vertex -44.366025403784434 -29.250000000000004 19.499999999999996
  endloop
endfacet
facet normal 0.6087614290087368 0.7933533402912228 0.0
  outer loop
    vertex -44.20710678118654 -29.457106781186546 19.499999999999996
    vertex -43.99999999999999 -29.616025403784445 12.499999999999988
    vertex -44.20710678118654 -29.457106781186546 12.499999999999988
  endloop
endfacet
facet normal 0.6087614290087368 0.7933533402912228 0.0
  outer loop
    vertex -43.99999999999999 -29.616025403784445 12.499999999999988
    vertex -44.20710678118654 -29.457106781186546 19.499999999999996
    vertex -43.99999999999999 -29.616025403784445 19.499999999999996
  endloop
endfacet
facet normal 0.38268343236508595 0.9238795325112884 0.0
  outer loop
    vertex -43.99999999999999 -29.616025403784445 19.499999999999996
    vertex -43.75881904510252 -29.71592582628907 12.499999999999988
    vertex -43.99999999999999 -29.616025403784445 12.499999999999988
  endloop
endfacet
facet normal 0.38268343236508595 0.9238795325112884 0.0
  outer loop
    vertex -43.75881904510252 -29.71592582628907 12.499999999999988
    vertex -43.99999999999999 -29.616025403784445 19.499999999999996
    vertex -43.75881904510252 -29.71592582628907 19.499999999999996
  endloop
endfacet
facet normal 2.659371744758185e-29 -0.9405538996916954 0.3396444637775569
  outer loop
    vertex -83.99999999999999 -25.500000000000004 37.5
    vertex -85.5 -32.00000000000001 19.499999999999996
    vertex -83.99999999999999 -32.00000000000001 19.499999999999996
  endloop
endfacet
facet normal 2.659371744758185e-29 -0.9405538996916954 0.3396444637775569
  outer loop
    vertex -85.5 -32.00000000000001 19.499999999999996
    vertex -83.99999999999999 -25.500000000000004 37.5
    vertex -85.5 -25.500000000000004 37.5
  endloop
endfacet
facet normal -2.0792961108910965e-16 -0.9405538996916954 0.33964446377755697
  outer loop
    vertex -1.4999999999999953 -25.500000000000004 37.5
    vertex -2.9999999999999947 -32.00000000000001 19.499999999999996
    vertex -1.499999999999995 -32.00000000000001 19.499999999999996
  endloop
endfacet
facet normal -2.0792961108910965e-16 -0.9405538996916954 0.33964446377755697
  outer loop
    vertex -2.9999999999999947 -32.00000000000001 19.499999999999996
    vertex -1.4999999999999953 -25.500000000000004 37.5
    vertex -2.9999999999999947 -25.500000000000004 37.5
  endloop
endfacet
facet normal 1.0593054452087143e-05 -8.414288647359606e-06 0.9999999999084936
  outer loop
    vertex -83.99999999999999 -25.500000000000004 37.5
    vertex -85.49888394531214 36.51642406414244 37.50295585830571
    vertex -85.5 -25.500000000000004 37.5
  endloop
endfacet
facet normal 1.0593054452087143e-05 -8.414288647359606e-06 0.9999999999084936
  outer loop
    vertex -85.49888394531214 36.51642406414244 37.50295585830571
    vertex -83.99999999999999 -25.500000000000004 37.5
    vertex -84.0 35.0 37.5
  endloop
endfacet
facet normal 1.0593054452087143e-05 -8.414288647359606e-06 0.9999999999084936
  outer loop
    vertex -1.4999999999999953 -25.500000000000004 37.5
    vertex -1.4999999999999991 1.9999999999999973 37.5
    vertex -2.9999999999999947 -25.500000000000004 37.5
  endloop
endfacet
facet normal 1.0593054452087143e-05 -8.414288647359606e-06 0.9999999999084936
  outer loop
    vertex -84.0 35.0 37.5
    vertex 2.500733430500982 36.49856480250025 37.49976637870453
    vertex -85.49888394531214 36.51642406414244 37.50295585830571
  endloop
endfacet
facet normal 1.0593054452087143e-05 -8.414288647359606e-06 0.9999999999084936
  outer loop
    vertex 2.500733430500982 36.49856480250025 37.49976637870453
    vertex -84.0 35.0 37.5
    vertex -7.999999999999999 35.0 37.5
  endloop
endfacet
facet normal 1.0593054452087143e-05 -8.414288647359606e-06 0.9999999999084936
  outer loop
    vertex 2.500733430500982 36.49856480250025 37.49976637870453
    vertex -7.999999999999999 35.0 37.5
    vertex -3.0 33.5 37.5
  endloop
endfacet
facet normal 1.0593054452087143e-05 -8.414288647359606e-06 0.9999999999084936
  outer loop
    vertex 2.500733430500982 36.49856480250025 37.49976637870453
    vertex -3.0 33.5 37.5
    vertex -1.4999999999999991 1.9999999999999973 37.5
  endloop
endfacet
facet normal 1.0593054452087143e-05 -8.414288647359606e-06 0.9999999999084936
  outer loop
    vertex -1.4999999999999991 1.9999999999999973 37.5
    vertex -3.0 33.5 37.5
    vertex -2.9999999999999947 -25.500000000000004 37.5
  endloop
endfacet
facet normal 1.0593054452087143e-05 -8.414288647359606e-06 0.9999999999084936
  outer loop
    vertex 2.500733430500982 36.49856480250025 37.49976637870453
    vertex -1.4999999999999991 1.9999999999999973 37.5
    vertex 2.4881612515236635 1.9985692471510126 37.5
  endloop
endfacet
facet normal -0.9999999999527569 5.910698613733091e-06 7.716871593075081e-06
  outer loop
    vertex -85.5 -25.500000000000004 37.5
    vertex -85.5 -32.00000000000001 12.500000000000002
    vertex -85.5 -32.00000000000001 19.499999999999996
  endloop
endfacet
facet normal -0.9999999999527569 5.910698613733091e-06 7.716871593075081e-06
  outer loop
    vertex -85.5 -32.00000000000001 12.500000000000002
    vertex -85.5 -25.500000000000004 37.5
    vertex -85.49951972498732 36.51642406414244 12.502955665843086
  endloop
endfacet
facet normal -0.9999999999527569 5.910698613733091e-06 7.716871593075081e-06
  outer loop
    vertex -85.49951972498732 36.51642406414244 12.502955665843086
    vertex -85.5 -25.500000000000004 37.5
    vertex -85.49888394531214 36.51642406414244 37.50295585830571
  endloop
endfacet
facet normal 0.0002070890136271806 0.9999999757865602 -7.443802578459086e-05
  outer loop
    vertex -85.49951972498732 36.51642406414244 12.502955665843086
    vertex 2.500733430500982 36.497129802500254 22.499766378704535
    vertex 2.500733430500982 36.497129802500254 12.499766378704532
  endloop
endfacet
facet normal 0.0002070890136271806 0.9999999757865602 -7.443802578459086e-05
  outer loop
    vertex 2.500733430500982 36.497129802500254 22.499766378704535
    vertex -85.49951972498732 36.51642406414244 12.502955665843086
    vertex -1.4992665694990182 36.497129802500254 22.499766378704535
  endloop
endfacet
facet normal 0.0002070890136271806 0.9999999757865602 -7.443802578459086e-05
  outer loop
    vertex -1.4992665694990182 36.497129802500254 22.499766378704535
    vertex -85.49951972498732 36.51642406414244 12.502955665843086
    vertex -85.49888394531214 36.51642406414244 37.50295585830571
  endloop
endfacet
facet normal 0.0002070890136271806 0.9999999757865602 -7.443802578459086e-05
  outer loop
    vertex -1.4992665694990182 36.497129802500254 22.499766378704535
    vertex -85.49888394531214 36.51642406414244 37.50295585830571
    vertex -1.4992665694990066 36.49999980250024 25.999766378704535
  endloop
endfacet
facet normal 0.0002070890136271806 0.9999999757865602 -7.443802578459086e-05
  outer loop
    vertex -1.4992665694990066 36.49999980250024 25.999766378704535
    vertex -85.49888394531214 36.51642406414244 37.50295585830571
    vertex 2.500733430500982 36.49856480250025 30.087271261196715
  endloop
endfacet
facet normal 0.0002070890136271806 0.9999999757865602 -7.443802578459086e-05
  outer loop
    vertex 2.500733430500982 36.49856480250025 30.087271261196715
    vertex -85.49888394531214 36.51642406414244 37.50295585830571
    vertex 0.5007333950165167 36.49856480250025 32.79351881995063
  endloop
endfacet
facet normal 0.0002070890136271806 0.9999999757865602 -7.443802578459086e-05
  outer loop
    vertex 0.5007333950165167 36.49856480250025 32.79351881995063
    vertex -85.49888394531214 36.51642406414244 37.50295585830571
    vertex 0.2419143499139959 36.49856480250025 32.827592993661554
  endloop
endfacet
facet normal 0.0002070890136271806 0.9999999757865602 -7.443802578459086e-05
  outer loop
    vertex 0.2419143499139959 36.49856480250025 32.827592993661554
    vertex -85.49888394531214 36.51642406414244 37.50295585830571
    vertex 0.027432761373652245 36.49856480250025 32.916434176514294
  endloop
endfacet
facet normal 0.0002070890136271806 0.9999999757865602 -7.443802578459086e-05
  outer loop
    vertex 0.027432761373652245 36.49856480250025 32.916434176514294
    vertex -85.49888394531214 36.51642406414244 37.50295585830571
    vertex 0.0007333950165168373 36.49856480250025 32.927493416166186
  endloop
endfacet
facet normal 0.0002070890136271806 0.9999999757865602 -7.443802578459086e-05
  outer loop
    vertex 0.0007333950165168373 36.49856480250025 32.927493416166186
    vertex -85.49888394531214 36.51642406414244 37.50295585830571
    vertex -0.20637338617003062 36.49856480250025 33.086412038764074
  endloop
endfacet
facet normal 0.0002070890136271806 0.9999999757865602 -7.443802578459086e-05
  outer loop
    vertex -0.20637338617003062 36.49856480250025 33.086412038764074
    vertex -85.49888394531214 36.51642406414244 37.50295585830571
    vertex -0.36529200876792167 36.49856480250025 33.29351881995063
  endloop
endfacet
facet normal 0.0002070890136271806 0.9999999757865602 -7.443802578459086e-05
  outer loop
    vertex -0.36529200876792167 36.49856480250025 33.29351881995063
    vertex -85.49888394531214 36.51642406414244 37.50295585830571
    vertex -0.46519243127255117 36.49856480250025 33.5346997748481
  endloop
endfacet
facet normal 0.0002070890136271806 0.9999999757865602 -7.443802578459086e-05
  outer loop
    vertex -0.46519243127255117 36.49856480250025 33.5346997748481
    vertex -85.49888394531214 36.51642406414244 37.50295585830571
    vertex -0.49926660498348296 36.49856480250025 33.79351881995063
  endloop
endfacet
facet normal 0.0002070890136271806 0.9999999757865602 -7.443802578459086e-05
  outer loop
    vertex -0.49926660498348296 36.49856480250025 33.79351881995063
    vertex -85.49888394531214 36.51642406414244 37.50295585830571
    vertex -0.465192431272551 36.49856480250025 34.05233786505315
  endloop
endfacet
facet normal 0.0002070890136271806 0.9999999757865602 -7.443802578459086e-05
  outer loop
    vertex -0.465192431272551 36.49856480250025 34.05233786505315
    vertex -85.49888394531214 36.51642406414244 37.50295585830571
    vertex -0.3652920087679213 36.49856480250025 34.29351881995062
  endloop
endfacet
facet normal 0.0002070890136271806 0.9999999757865602 -7.443802578459086e-05
  outer loop
    vertex -0.3652920087679213 36.49856480250025 34.29351881995062
    vertex -85.49888394531214 36.51642406414244 37.50295585830571
    vertex -0.20637338617003037 36.49856480250025 34.50062560113717
  endloop
endfacet
facet normal 0.0002070890136271806 0.9999999757865602 -7.443802578459086e-05
  outer loop
    vertex -0.20637338617003037 36.49856480250025 34.50062560113717
    vertex -85.49888394531214 36.51642406414244 37.50295585830571
    vertex 0.0007333950165176304 36.49856480250025 34.65954422373506
  endloop
endfacet
facet normal 0.0002070890136271806 0.9999999757865602 -7.443802578459086e-05
  outer loop
    vertex 0.0007333950165176304 36.49856480250025 34.65954422373506
    vertex -85.49888394531214 36.51642406414244 37.50295585830571
    vertex 0.2419143499139966 36.49856480250025 34.75944464623969
  endloop
endfacet
facet normal 0.0002070890136271806 0.9999999757865602 -7.443802578459086e-05
  outer loop
    vertex 0.2419143499139966 36.49856480250025 34.75944464623969
    vertex -85.49888394531214 36.51642406414244 37.50295585830571
    vertex 0.500733395016517 36.49856480250025 34.79351881995062
  endloop
endfacet
facet normal 0.0002070890136271806 0.9999999757865602 -7.443802578459086e-05
  outer loop
    vertex 0.500733395016517 36.49856480250025 34.79351881995062
    vertex -85.49888394531214 36.51642406414244 37.50295585830571
    vertex 2.500733430500982 36.49856480250025 37.49976637870453
  endloop
endfacet
facet normal 0.0002070890136271806 0.9999999757865602 -7.443802578459086e-05
  outer loop
    vertex 2.500733430500982 36.49856480250025 30.087271261196715
    vertex 1.466659221305585 36.49856480250025 33.5346997748481
    vertex 2.500733430500982 36.49856480250025 37.49976637870453
  endloop
endfacet
facet normal 0.0002070890136271806 0.9999999757865602 -7.443802578459086e-05
  outer loop
    vertex 1.466659221305585 36.49856480250025 33.5346997748481
    vertex 2.500733430500982 36.49856480250025 30.087271261196715
    vertex 1.366758798800955 36.49856480250025 33.29351881995063
  endloop
endfacet
facet normal 0.0002070890136271806 0.9999999757865602 -7.443802578459086e-05
  outer loop
    vertex 1.366758798800955 36.49856480250025 33.29351881995063
    vertex 2.500733430500982 36.49856480250025 30.087271261196715
    vertex 1.207840176203064 36.49856480250025 33.086412038764074
  endloop
endfacet
facet normal 0.0002070890136271806 0.9999999757865602 -7.443802578459086e-05
  outer loop
    vertex 1.207840176203064 36.49856480250025 33.086412038764074
    vertex 2.500733430500982 36.49856480250025 30.087271261196715
    vertex 1.0007333950165165 36.49856480250025 32.927493416166186
  endloop
endfacet
facet normal 0.0002070890136271806 0.9999999757865602 -7.443802578459086e-05
  outer loop
    vertex 1.0007333950165165 36.49856480250025 32.927493416166186
    vertex 2.500733430500982 36.49856480250025 30.087271261196715
    vertex 0.7595524401190373 36.49856480250025 32.827592993661554
  endloop
endfacet
facet normal 0.0002070890136271806 0.9999999757865602 -7.443802578459086e-05
  outer loop
    vertex 0.7595524401190373 36.49856480250025 32.827592993661554
    vertex 2.500733430500982 36.49856480250025 30.087271261196715
    vertex 0.5007333950165167 36.49856480250025 32.79351881995063
  endloop
endfacet
facet normal 0.0002070890136271806 0.9999999757865602 -7.443802578459086e-05
  outer loop
    vertex 2.500733430500982 36.49856480250025 37.49976637870453
    vertex 1.466659221305585 36.49856480250025 33.5346997748481
    vertex 1.5007333950165165 36.49856480250025 33.79351881995063
  endloop
endfacet
facet normal 0.0002070890136271806 0.9999999757865602 -7.443802578459086e-05
  outer loop
    vertex 2.500733430500982 36.49856480250025 37.49976637870453
    vertex 1.5007333950165165 36.49856480250025 33.79351881995063
    vertex 1.466659221305585 36.49856480250025 34.05233786505315
  endloop
endfacet
facet normal 0.0002070890136271806 0.9999999757865602 -7.443802578459086e-05
  outer loop
    vertex 2.500733430500982 36.49856480250025 37.49976637870453
    vertex 1.466659221305585 36.49856480250025 34.05233786505315
    vertex 1.3667587988009555 36.49856480250025 34.29351881995062
  endloop
endfacet
facet normal 0.0002070890136271806 0.9999999757865602 -7.443802578459086e-05
  outer loop
    vertex 2.500733430500982 36.49856480250025 37.49976637870453
    vertex 1.3667587988009555 36.49856480250025 34.29351881995062
    vertex 1.2078401762030646 36.49856480250025 34.50062560113717
  endloop
endfacet
facet normal 0.0002070890136271806 0.9999999757865602 -7.443802578459086e-05
  outer loop
    vertex 2.500733430500982 36.49856480250025 37.49976637870453
    vertex 1.2078401762030646 36.49856480250025 34.50062560113717
    vertex 1.0007333950165171 36.49856480250025 34.65954422373506
  endloop
endfacet
facet normal 0.0002070890136271806 0.9999999757865602 -7.443802578459086e-05
  outer loop
    vertex 2.500733430500982 36.49856480250025 37.49976637870453
    vertex 1.0007333950165171 36.49856480250025 34.65954422373506
    vertex 0.9740340286593814 36.49856480250025 34.67060346338695
  endloop
endfacet
facet normal 0.0002070890136271806 0.9999999757865602 -7.443802578459086e-05
  outer loop
    vertex 2.500733430500982 36.49856480250025 37.49976637870453
    vertex 0.9740340286593814 36.49856480250025 34.67060346338695
    vertex 0.7595524401190382 36.49856480250025 34.75944464623969
  endloop
endfacet
facet normal 0.0002070890136271806 0.9999999757865602 -7.443802578459086e-05
  outer loop
    vertex 2.500733430500982 36.49856480250025 37.49976637870453
    vertex 0.7595524401190382 36.49856480250025 34.75944464623969
    vertex 0.500733395016517 36.49856480250025 34.79351881995062
  endloop
endfacet
facet normal 0.0 -1.0 0.0
  outer loop
    vertex 2.5000000000000004 33.5 21.5
    vertex -3.0 33.5 13.500000000000004
    vertex 2.5000000000000004 33.5 13.5
  endloop
endfacet
facet normal 0.0 -1.0 0.0
  outer loop
    vertex -3.0 33.5 13.500000000000004
    vertex 2.5000000000000004 33.5 21.5
    vertex -3.0 33.5 21.5
  endloop
endfacet
facet normal -0.28731253656843664 -0.9578368891803906 7.472813926176121e-06
  outer loop
    vertex -3.0 33.5 13.500000000000004
    vertex -7.999999999999999 35.0 37.5
    vertex -8.001271559350352 35.0 13.5
  endloop
endfacet
facet normal -0.28731253656843664 -0.9578368891803906 7.472813926176121e-06
  outer loop
    vertex -7.999999999999999 35.0 37.5
    vertex -3.0 33.5 13.500000000000004
    vertex -3.0 33.5 21.5
  endloop
endfacet
facet normal -0.28731253656843664 -0.9578368891803906 7.472813926176121e-06
  outer loop
    vertex -7.999999999999999 35.0 37.5
    vertex -3.0 33.5 21.5
    vertex -3.0 33.5 37.5
  endloop
endfacet
facet normal 0.0 -1.0 0.0
  outer loop
    vertex -7.999999999999999 35.0 37.5
    vertex -84.0 35.0 13.5
    vertex -8.001271559350352 35.0 13.5
  endloop
endfacet
facet normal 0.0 -1.0 0.0
  outer loop
    vertex -84.0 35.0 13.5
    vertex -7.999999999999999 35.0 37.5
    vertex -84.0 35.0 37.5
  endloop
endfacet
facet normal -5.606732470418682e-18 -1.0398961916268157e-17 1.0
  outer loop
    vertex -83.99999999999999 -25.500000000000004 13.5
    vertex -8.001271559350352 35.0 13.5
    vertex -84.0 35.0 13.5
  endloop
endfacet
facet normal -5.606732470418682e-18 -1.0398961916268157e-17 1.0
  outer loop
    vertex -8.001271559350352 35.0 13.5
    vertex -83.99999999999999 -25.500000000000004 13.5
    vertex -2.9999999999999947 -25.500000000000004 13.5
  endloop
endfacet
facet normal -5.606732470418682e-18 -1.0398961916268157e-17 1.0
  outer loop
    vertex -8.001271559350352 35.0 13.5
    vertex -2.9999999999999947 -25.500000000000004 13.5
    vertex -3.0 3.000000000000002 13.5
  endloop
endfacet
facet normal -5.606732470418682e-18 -1.0398961916268157e-17 1.0
  outer loop
    vertex -8.001271559350352 35.0 13.5
    vertex -3.0 3.000000000000002 13.5
    vertex -3.0 33.5 13.500000000000004
  endloop
endfacet
facet normal -5.606732470418682e-18 -1.0398961916268157e-17 1.0
  outer loop
    vertex -3.0 3.000000000000002 13.5
    vertex 2.5000000000000004 33.5 13.5
    vertex -3.0 33.5 13.500000000000004
  endloop
endfacet
facet normal -5.606732470418682e-18 -1.0398961916268157e-17 1.0
  outer loop
    vertex 2.5000000000000004 33.5 13.5
    vertex -3.0 3.000000000000002 13.5
    vertex 2.5000000000000004 3.000000000000002 13.5
  endloop
endfacet
endsolid PumpController-LCDCase
