solid WL-HandRemote-BuzzCover
facet normal 0.0 0.0 -1.0
  outer loop
    vertex 30.0 15.999999999999998 0.0
    vertex 0.0 0.0 0.0
    vertex 0.0 15.999999999999998 0.0
  endloop
endfacet
facet normal 0.0 0.0 -1.0
  outer loop
    vertex 0.0 0.0 0.0
    vertex 30.0 15.999999999999998 0.0
    vertex 30.0 0.0 0.0
  endloop
endfacet
facet normal -0.0 -0.0 1.0
  outer loop
    vertex 30.0 0.0 0.9999999999999999
    vertex 0.0 15.999999999999998 0.9999999999999999
    vertex 0.0 0.0 0.9999999999999999
  endloop
endfacet
facet normal -0.0 -0.0 1.0
  outer loop
    vertex 0.0 15.999999999999998 0.9999999999999999
    vertex 30.0 0.0 0.9999999999999999
    vertex 30.0 15.999999999999998 0.9999999999999999
  endloop
endfacet
facet normal -1.0 0.0 0.0
  outer loop
    vertex 0.0 15.999999999999998 0.9999999999999999
    vertex 0.0 0.0 0.0
    vertex 0.0 0.0 0.9999999999999999
  endloop
endfacet
facet normal -1.0 0.0 0.0
  outer loop
    vertex 0.0 0.0 0.0
    vertex 0.0 15.999999999999998 0.9999999999999999
    vertex 0.0 15.999999999999998 0.0
  endloop
endfacet
facet normal -0.0 1.0 0.0
  outer loop
    vertex 0.0 15.999999999999998 0.9999999999999999
    vertex 30.0 15.999999999999998 0.0
    vertex 0.0 15.999999999999998 0.0
  endloop
endfacet
facet normal -0.0 1.0 0.0
  outer loop
    vertex 30.0 15.999999999999998 0.0
    vertex 0.0 15.999999999999998 0.9999999999999999
    vertex 30.0 15.999999999999998 0.9999999999999999
  endloop
endfacet
facet normal 1.0 0.0 0.0
  outer loop
    vertex 30.0 15.999999999999998 0.0
    vertex 30.0 0.0 0.9999999999999999
    vertex 30.0 0.0 0.0
  endloop
endfacet
facet normal 1.0 0.0 0.0
  outer loop
    vertex 30.0 0.0 0.9999999999999999
    vertex 30.0 15.999999999999998 0.0
    vertex 30.0 15.999999999999998 0.9999999999999999
  endloop
endfacet
facet normal -0.0 -1.0 -0.0
  outer loop
    vertex 30.0 0.0 0.9999999999999999
    vertex 0.0 0.0 0.0
    vertex 30.0 0.0 0.0
  endloop
endfacet
facet normal -0.0 -1.0 -0.0
  outer loop
    vertex 0.0 0.0 0.0
    vertex 30.0 0.0 0.9999999999999999
    vertex 0.0 0.0 0.9999999999999999
  endloop
endfacet
endsolid WL-HandRemote-BuzzCover
