solid Cover
facet normal -1.799423113950495e-06 4.3540604909871827e-07 -0.9999999999982863
  outer loop
    vertex 1.4991057559115333 59.99991520919206 -0.0020310095011499443
    vertex 0.0 0.0 0.0
    vertex -0.0008942255427637812 59.999935660723445 -0.0017960225980419473
  endloop
endfacet
facet normal -1.799423113950495e-06 4.3540604909871827e-07 -0.9999999999982863
  outer loop
    vertex 0.0 0.0 0.0
    vertex 1.4991057559115333 59.99991520919206 -0.0020310095011499443
    vertex 1.000145241266608 4.5000285840893355 8.134420055494473e-05
  endloop
endfacet
facet normal -1.799423113950495e-06 4.3540604909871827e-07 -0.9999999999982863
  outer loop
    vertex 1.000145241266608 4.5000285840893355 8.134420055494473e-05
    vertex 1.4991057559115333 59.99991520919206 -0.0020310095011499443
    vertex 1.0512565018329578 4.888257151742992 8.131599917557963e-05
  endloop
endfacet
facet normal -1.799423113950495e-06 4.3540604909871827e-07 -0.9999999999982863
  outer loop
    vertex 1.0512565018329578 4.888257151742992 8.131599917557963e-05
    vertex 1.4991057559115333 59.99991520919206 -0.0020310095011499443
    vertex 1.2011071355896166 5.250028584089093 8.123243933029211e-05
  endloop
endfacet
facet normal -1.799423113950495e-06 4.3540604909871827e-07 -0.9999999999982863
  outer loop
    vertex 1.2011071355896166 5.250028584089093 8.123243933029211e-05
    vertex 1.4991057559115333 59.99991520919206 -0.0020310095011499443
    vertex 1.4394850694866008 5.560688755868814 8.109921514616314e-05
  endloop
endfacet
facet normal -1.799423113950495e-06 4.3540604909871827e-07 -0.9999999999982863
  outer loop
    vertex 1.4394850694866008 5.560688755868814 8.109921514616314e-05
    vertex 1.4991057559115333 59.99991520919206 -0.0020310095011499443
    vertex 1.750145241266268 5.7990666897655725 8.092540570832085e-05
  endloop
endfacet
facet normal -1.799423113950495e-06 4.3540604909871827e-07 -0.9999999999982863
  outer loop
    vertex 1.750145241266268 5.7990666897655725 8.092540570832085e-05
    vertex 1.4991057559115333 59.99991520919206 -0.0020310095011499443
    vertex 1.5001670105722749 122.99991516419574 0.00010048558797307101
  endloop
endfacet
facet normal -1.799423113950495e-06 4.3540604909871827e-07 -0.9999999999982863
  outer loop
    vertex 1.750145241266268 5.7990666897655725 8.092540570832085e-05
    vertex 1.5001670105722749 122.99991516419574 0.00010048558797307101
    vertex 41.97492284224614 122.99991904601418 -1.3858456651999473e-05
  endloop
endfacet
facet normal -1.799423113950495e-06 4.3540604909871827e-07 -0.9999999999982863
  outer loop
    vertex 1.750145241266268 5.7990666897655725 8.092540570832085e-05
    vertex 41.97492284224614 122.99991904601418 -1.3858456651999473e-05
    vertex 2.111916673612251 5.948917323522471 8.072285618304642e-05
  endloop
endfacet
facet normal -1.799423113950495e-06 4.3540604909871827e-07 -0.9999999999982863
  outer loop
    vertex 2.111916673612251 5.948917323522471 8.072285618304642e-05
    vertex 41.97492284224614 122.99991904601418 -1.3858456651999473e-05
    vertex 2.500145241265793 6.000028584088851 8.050536954065101e-05
  endloop
endfacet
facet normal -1.799423113950495e-06 4.3540604909871827e-07 -0.9999999999982863
  outer loop
    vertex 2.500145241265793 6.000028584088851 8.050536954065101e-05
    vertex 41.97492284224614 122.99991904601418 -1.3858456651999473e-05
    vertex 2.8883738089194133 5.948917323522471 8.028776722323049e-05
  endloop
endfacet
facet normal -1.799423113950495e-06 4.3540604909871827e-07 -0.9999999999982863
  outer loop
    vertex 2.8883738089194133 5.948917323522471 8.028776722323049e-05
    vertex 41.97492284224614 122.99991904601418 -1.3858456651999473e-05
    vertex 3.2501452412654874 5.799066689765574 8.008487905523109e-05
  endloop
endfacet
facet normal -1.799423113950495e-06 4.3540604909871827e-07 -0.9999999999982863
  outer loop
    vertex 3.2501452412654874 5.799066689765574 8.008487905523109e-05
    vertex 41.97492284224614 122.99991904601418 -1.3858456651999473e-05
    vertex 3.5608054130449176 5.5606887558688145 7.991053056528585e-05
  endloop
endfacet
facet normal -1.799423113950495e-06 4.3540604909871827e-07 -0.9999999999982863
  outer loop
    vertex 3.5608054130449176 5.5606887558688145 7.991053056528585e-05
    vertex 41.97492284224614 122.99991904601418 -1.3858456651999473e-05
    vertex 3.7991833469419594 5.250028584089095 7.977660396416563e-05
  endloop
endfacet
facet normal -1.799423113950495e-06 4.3540604909871827e-07 -0.9999999999982863
  outer loop
    vertex 3.7991833469419594 5.250028584089095 7.977660396416563e-05
    vertex 41.97492284224614 122.99991904601418 -1.3858456651999473e-05
    vertex 3.9490339806987307 4.888257151742993 7.969222593239288e-05
  endloop
endfacet
facet normal -1.799423113950495e-06 4.3540604909871827e-07 -0.9999999999982863
  outer loop
    vertex 3.9490339806987307 4.888257151742993 7.969222593239288e-05
    vertex 41.97492284224614 122.99991904601418 -1.3858456651999473e-05
    vertex 4.00014524126516 4.500028584089338 7.966314686524978e-05
  endloop
endfacet
facet normal -1.799423113950495e-06 4.3540604909871827e-07 -0.9999999999982863
  outer loop
    vertex 97.47492284224418 122.9999190431616 -5.871240115526421e-06
    vertex 93.97492355504478 4.499915731300821 8.546223151245647e-07
    vertex 71.97492284224347 122.99991904601508 -1.0183586486531282e-05
  endloop
endfacet
facet normal -1.799423113950495e-06 4.3540604909871827e-07 -0.9999999999982863
  outer loop
    vertex 93.97492355504478 4.499915731300821 8.546223151245647e-07
    vertex 97.47492284224418 122.9999190431616 -5.871240115526421e-06
    vertex 94.02603481561096 4.888144298953704 1.5886434458711739e-06
  endloop
endfacet
facet normal -1.799423113950495e-06 4.3540604909871827e-07 -0.9999999999982863
  outer loop
    vertex 94.02603481561096 4.888144298953704 1.5886434458711739e-06
    vertex 97.47492284224418 122.9999190431616 -5.871240115526421e-06
    vertex 94.17588544936756 5.249915731299308 2.185543698296488e-06
  endloop
endfacet
facet normal -1.799423113950495e-06 4.3540604909871827e-07 -0.9999999999982863
  outer loop
    vertex 94.17588544936756 5.249915731299308 2.185543698296488e-06
    vertex 97.47492284224418 122.9999190431616 -5.871240115526421e-06
    vertex 94.41426338326401 5.560575903078843 2.6046452850120303e-06
  endloop
endfacet
facet normal -1.799423113950495e-06 4.3540604909871827e-07 -0.9999999999982863
  outer loop
    vertex 94.41426338326401 5.560575903078843 2.6046452850120303e-06
    vertex 97.47492284224418 122.9999190431616 -5.871240115526421e-06
    vertex 94.72492355504343 5.798953836975741 2.817387171652474e-06
  endloop
endfacet
facet normal -1.799423113950495e-06 4.3540604909871827e-07 -0.9999999999982863
  outer loop
    vertex 94.72492355504343 5.798953836975741 2.817387171652474e-06
    vertex 97.47492284224418 122.9999190431616 -5.871240115526421e-06
    vertex 95.08669498738924 5.948804470733089 2.8092713063532223e-06
  endloop
endfacet
facet normal -1.799423113950495e-06 4.3540604909871827e-07 -0.9999999999982863
  outer loop
    vertex 95.08669498738924 5.948804470733089 2.8092713063532223e-06
    vertex 97.47492284224418 122.9999190431616 -5.871240115526421e-06
    vertex 95.47492355504261 5.999915731300207 2.5808507807728586e-06
  endloop
endfacet
facet normal -1.799423113950495e-06 4.3540604909871827e-07 -0.9999999999982863
  outer loop
    vertex 95.47492355504261 5.999915731300207 2.5808507807728586e-06
    vertex 97.47492284224418 122.9999190431616 -5.871240115526421e-06
    vertex 95.86315212269604 5.948804470734795 2.147692080611829e-06
  endloop
endfacet
facet normal -1.799423113950495e-06 4.3540604909871827e-07 -0.9999999999982863
  outer loop
    vertex 95.86315212269604 5.948804470734795 2.147692080611829e-06
    vertex 97.47492284224418 122.9999190431616 -5.871240115526421e-06
    vertex 96.22492355504197 5.7989538369790345 1.5393142720310225e-06
  endloop
endfacet
facet normal -1.799423113950495e-06 4.3540604909871827e-07 -0.9999999999982863
  outer loop
    vertex 96.22492355504197 5.7989538369790345 1.5393142720310225e-06
    vertex 97.47492284224418 122.9999190431616 -5.871240115526421e-06
    vertex 96.53558372682161 5.560575903083503 7.971772833875734e-07
  endloop
endfacet
facet normal -1.799423113950495e-06 4.3540604909871827e-07 -0.9999999999982863
  outer loop
    vertex 96.53558372682161 5.560575903083503 7.971772833875734e-07
    vertex 97.47492284224418 122.9999190431616 -5.871240115526421e-06
    vertex 96.77396166071838 5.249915731305015 -2.814347840329745e-08
  endloop
endfacet
facet normal -1.799423113950495e-06 4.3540604909871827e-07 -0.9999999999982863
  outer loop
    vertex 96.77396166071838 5.249915731305015 -2.814347840329745e-08
    vertex 97.47492284224418 122.9999190431616 -5.871240115526421e-06
    vertex 96.92381229447537 4.88814429896007 -8.804037804371889e-07
  endloop
endfacet
facet normal -1.799423113950495e-06 4.3540604909871827e-07 -0.9999999999982863
  outer loop
    vertex 96.92381229447537 4.88814429896007 -8.804037804371889e-07
    vertex 97.47492284224418 122.9999190431616 -5.871240115526421e-06
    vertex 96.97492355504188 4.499915731307413 -1.7015234583861449e-06
  endloop
endfacet
facet normal -1.799423113950495e-06 4.3540604909871827e-07 -0.9999999999982863
  outer loop
    vertex 0.0 0.0 0.0
    vertex 2.500145241265838 3.0000285840898235 8.05019777018856e-05
    vertex 97.47492353648643 -7.972168085524366e-05 4.6684768248428377e-07
  endloop
endfacet
facet normal -1.799423113950495e-06 4.3540604909871827e-07 -0.9999999999982863
  outer loop
    vertex 2.500145241265838 3.0000285840898235 8.05019777018856e-05
    vertex 0.0 0.0 0.0
    vertex 2.111916673612206 3.051139844656204 8.07195798698479e-05
  endloop
endfacet
facet normal -1.799423113950495e-06 4.3540604909871827e-07 -0.9999999999982863
  outer loop
    vertex 2.111916673612206 3.051139844656204 8.07195798698479e-05
    vertex 0.0 0.0 0.0
    vertex 1.7501452412662566 3.2009904784131 8.092246823242498e-05
  endloop
endfacet
facet normal -1.799423113950495e-06 4.3540604909871827e-07 -0.9999999999982863
  outer loop
    vertex 1.7501452412662566 3.2009904784131 8.092246823242498e-05
    vertex 0.0 0.0 0.0
    vertex 1.4394850694865782 3.4393684123098587 8.109681676043978e-05
  endloop
endfacet
facet normal -1.799423113950495e-06 4.3540604909871827e-07 -0.9999999999982863
  outer loop
    vertex 1.4394850694865782 3.4393684123098587 8.109681676043978e-05
    vertex 0.0 0.0 0.0
    vertex 1.201107135589673 3.750028584089579 8.12307433686099e-05
  endloop
endfacet
facet normal -1.799423113950495e-06 4.3540604909871827e-07 -0.9999999999982863
  outer loop
    vertex 1.201107135589673 3.750028584089579 8.12307433686099e-05
    vertex 0.0 0.0 0.0
    vertex 1.0512565018329803 4.111800016435681 8.131512131155371e-05
  endloop
endfacet
facet normal -1.799423113950495e-06 4.3540604909871827e-07 -0.9999999999982863
  outer loop
    vertex 1.0512565018329803 4.111800016435681 8.131512131155371e-05
    vertex 0.0 0.0 0.0
    vertex 1.000145241266608 4.5000285840893355 8.134420055494473e-05
  endloop
endfacet
facet normal -1.799423113950495e-06 4.3540604909871827e-07 -0.9999999999982863
  outer loop
    vertex 97.47492353648643 -7.972168085524366e-05 4.6684768248428377e-07
    vertex 2.500145241265838 3.0000285840898235 8.05019777018856e-05
    vertex 2.8883738089193796 3.051139844656205 8.028449097066125e-05
  endloop
endfacet
facet normal -1.799423113950495e-06 4.3540604909871827e-07 -0.9999999999982863
  outer loop
    vertex 97.47492353648643 -7.972168085524366e-05 4.6684768248428377e-07
    vertex 2.8883738089193796 3.051139844656205 8.028449097066125e-05
    vertex 3.2501452412655323 3.200990478413101 8.008194163150462e-05
  endloop
endfacet
facet normal -1.799423113950495e-06 4.3540604909871827e-07 -0.9999999999982863
  outer loop
    vertex 97.47492353648643 -7.972168085524366e-05 4.6684768248428377e-07
    vertex 3.2501452412655323 3.200990478413101 8.008194163150462e-05
    vertex 3.560805413045008 3.439368412309861 7.99081321626427e-05
  endloop
endfacet
facet normal -1.799423113950495e-06 4.3540604909871827e-07 -0.9999999999982863
  outer loop
    vertex 97.47492353648643 -7.972168085524366e-05 4.6684768248428377e-07
    vertex 3.560805413045008 3.439368412309861 7.99081321626427e-05
    vertex 3.7991833469419367 3.750028584089581 7.9774908039143e-05
  endloop
endfacet
facet normal -1.799423113950495e-06 4.3540604909871827e-07 -0.9999999999982863
  outer loop
    vertex 97.47492353648643 -7.972168085524366e-05 4.6684768248428377e-07
    vertex 3.7991833469419367 3.750028584089581 7.9774908039143e-05
    vertex 3.949033980698708 4.111800016435683 7.969134803734733e-05
  endloop
endfacet
facet normal -1.799423113950495e-06 4.3540604909871827e-07 -0.9999999999982863
  outer loop
    vertex 97.47492353648643 -7.972168085524366e-05 4.6684768248428377e-07
    vertex 3.949033980698708 4.111800016435683 7.969134803734733e-05
    vertex 4.00014524126516 4.500028584089338 7.966314686524978e-05
  endloop
endfacet
facet normal -1.799423113950495e-06 4.3540604909871827e-07 -0.9999999999982863
  outer loop
    vertex 97.47492353648643 -7.972168085524366e-05 4.6684768248428377e-07
    vertex 4.00014524126516 4.500028584089338 7.966314686524978e-05
    vertex 94.41426338326507 3.439255559524731 -1.6440784273541452e-06
  endloop
endfacet
facet normal -1.799423113950495e-06 4.3540604909871827e-07 -0.9999999999982863
  outer loop
    vertex 94.41426338326507 3.439255559524731 -1.6440784273541452e-06
    vertex 4.00014524126516 4.500028584089338 7.966314686524978e-05
    vertex 94.17588544936831 3.749915731303219 -8.187576504059545e-07
  endloop
endfacet
facet normal -1.799423113950495e-06 4.3540604909871827e-07 -0.9999999999982863
  outer loop
    vertex 94.17588544936831 3.749915731303219 -8.187576504059545e-07
    vertex 4.00014524126516 4.500028584089338 7.966314686524978e-05
    vertex 41.97492284224614 122.99991904601418 -1.3858456651999473e-05
  endloop
endfacet
facet normal -1.799423113950495e-06 4.3540604909871827e-07 -0.9999999999982863
  outer loop
    vertex 94.17588544936831 3.749915731303219 -8.187576504059545e-07
    vertex 41.97492284224614 122.99991904601418 -1.3858456651999473e-05
    vertex 94.02603481561134 4.111687163648165 3.350263611812121e-08
  endloop
endfacet
facet normal -1.799423113950495e-06 4.3540604909871827e-07 -0.9999999999982863
  outer loop
    vertex 94.02603481561134 4.111687163648165 3.350263611812121e-08
    vertex 41.97492284224614 122.99991904601418 -1.3858456651999473e-05
    vertex 46.974922842245974 127.99991904601417 -1.263349993710916e-05
  endloop
endfacet
facet normal -1.799423113950495e-06 4.3540604909871827e-07 -0.9999999999982863
  outer loop
    vertex 94.02603481561134 4.111687163648165 3.350263611812121e-08
    vertex 46.974922842245974 127.99991904601417 -1.263349993710916e-05
    vertex 66.9749228422454 127.99991904601417 -7.733673044413303e-06
  endloop
endfacet
facet normal -1.799423113950495e-06 4.3540604909871827e-07 -0.9999999999982863
  outer loop
    vertex 94.02603481561134 4.111687163648165 3.350263611812121e-08
    vertex 66.9749228422454 127.99991904601417 -7.733673044413303e-06
    vertex 71.97492284224347 122.99991904601508 -1.0183586486531282e-05
  endloop
endfacet
facet normal -1.799423113950495e-06 4.3540604909871827e-07 -0.9999999999982863
  outer loop
    vertex 94.02603481561134 4.111687163648165 3.350263611812121e-08
    vertex 71.97492284224347 122.99991904601508 -1.0183586486531282e-05
    vertex 93.97492355504478 4.499915731300821 8.546223151245647e-07
  endloop
endfacet
facet normal -1.799423113950495e-06 4.3540604909871827e-07 -0.9999999999982863
  outer loop
    vertex 97.47492353648643 -7.972168085524366e-05 4.6684768248428377e-07
    vertex 94.41426338326507 3.439255559524731 -1.6440784273541452e-06
    vertex 94.72492355504471 3.2008776256291984 -2.386215406832703e-06
  endloop
endfacet
facet normal -1.799423113950495e-06 4.3540604909871827e-07 -0.9999999999982863
  outer loop
    vertex 97.47492353648643 -7.972168085524366e-05 4.6684768248428377e-07
    vertex 94.72492355504471 3.2008776256291984 -2.386215406832703e-06
    vertex 95.08669498739066 3.05102699187344 -2.9945932259883845e-06
  endloop
endfacet
facet normal -1.799423113950495e-06 4.3540604909871827e-07 -0.9999999999982863
  outer loop
    vertex 97.47492353648643 -7.972168085524366e-05 4.6684768248428377e-07
    vertex 95.08669498739066 3.05102699187344 -2.9945932259883845e-06
    vertex 95.47492355504409 2.9999157313080285 -3.4277519282643883e-06
  endloop
endfacet
facet normal -1.799423113950495e-06 4.3540604909871827e-07 -0.9999999999982863
  outer loop
    vertex 97.47492353648643 -7.972168085524366e-05 4.6684768248428377e-07
    vertex 95.47492355504409 2.9999157313080285 -3.4277519282643883e-06
    vertex 95.86315212269747 3.0510269918751463 -3.656172441507399e-06
  endloop
endfacet
facet normal -1.799423113950495e-06 4.3540604909871827e-07 -0.9999999999982863
  outer loop
    vertex 97.47492353648643 -7.972168085524366e-05 4.6684768248428377e-07
    vertex 95.86315212269747 3.0510269918751463 -3.656172441507399e-06
    vertex 96.22492355504325 3.2008776256324944 -3.6642883057491634e-06
  endloop
endfacet
facet normal -1.799423113950495e-06 4.3540604909871827e-07 -0.9999999999982863
  outer loop
    vertex 97.47492353648643 -7.972168085524366e-05 4.6684768248428377e-07
    vertex 96.22492355504325 3.2008776256324944 -3.6642883057491634e-06
    vertex 96.53558372682267 3.439255559529392 -3.4515464335610476e-06
  endloop
endfacet
facet normal -1.799423113950495e-06 4.3540604909871827e-07 -0.9999999999982863
  outer loop
    vertex 97.47492353648643 -7.972168085524366e-05 4.6684768248428377e-07
    vertex 96.53558372682267 3.439255559529392 -3.4515464335610476e-06
    vertex 96.77396166071911 3.749915731308927 -3.0324448302782022e-06
  endloop
endfacet
facet normal -1.799423113950495e-06 4.3540604909871827e-07 -0.9999999999982863
  outer loop
    vertex 97.47492353648643 -7.972168085524366e-05 4.6684768248428377e-07
    vertex 96.77396166071911 3.749915731308927 -3.0324448302782022e-06
    vertex 96.92381229447575 4.111687163654532 -2.4355445958301743e-06
  endloop
endfacet
facet normal -1.799423113950495e-06 4.3540604909871827e-07 -0.9999999999982863
  outer loop
    vertex 97.47492353648643 -7.972168085524366e-05 4.6684768248428377e-07
    vertex 96.92381229447575 4.111687163654532 -2.4355445958301743e-06
    vertex 96.97492355504188 4.499915731307413 -1.7015234583861449e-06
  endloop
endfacet
facet normal -1.799423113950495e-06 4.3540604909871827e-07 -0.9999999999982863
  outer loop
    vertex 97.47492353648643 -7.972168085524366e-05 4.6684768248428377e-07
    vertex 96.97492355504188 4.499915731307413 -1.7015234583861449e-06
    vertex 97.47492284224418 122.9999190431616 -5.871240115526421e-06
  endloop
endfacet
facet normal -0.7071067811865538 0.7071067811864556 3.4831457258466877e-07
  outer loop
    vertex 41.97492471788368 122.9999199364694 1.999986141542348
    vertex 46.974922842245974 127.99991904601417 -1.263349993710916e-05
    vertex 41.97492284224614 122.99991904601418 -1.3858456651999473e-05
  endloop
endfacet
facet normal -0.7071067811865538 0.7071067811864556 3.4831457258466877e-07
  outer loop
    vertex 46.974922842245974 127.99991904601417 -1.263349993710916e-05
    vertex 41.97492471788368 122.9999199364694 1.999986141542348
    vertex 46.974924717883646 127.9999199364694 1.9999873664989989
  endloop
endfacet
facet normal 1.0907691076825533e-13 0.999999999999901 -4.4522761069062157e-07
  outer loop
    vertex 46.974924717883646 127.9999199364694 1.9999873664989989
    vertex 66.9749228422454 127.99991904601417 -7.733673044413303e-06
    vertex 46.974922842245974 127.99991904601417 -1.263349993710916e-05
  endloop
endfacet
facet normal 1.0907691076825533e-13 0.999999999999901 -4.4522761069062157e-07
  outer loop
    vertex 66.9749228422454 127.99991904601417 -7.733673044413303e-06
    vertex 46.974924717883646 127.9999199364694 1.9999873664989989
    vertex 66.9749247178831 127.9999199364694 1.9999922663258698
  endloop
endfacet
facet normal 0.9999999999995604 5.644197589848503e-09 -9.378188200628997e-07
  outer loop
    vertex 97.47492284224418 122.9999190431616 -5.871240115526421e-06
    vertex 97.47492541212405 -7.883122561976318e-05 2.0000004668466107
    vertex 97.47492353648643 -7.972168085524366e-05 4.6684768248428377e-07
  endloop
endfacet
facet normal 0.9999999999995604 5.644197589848503e-09 -9.378188200628997e-07
  outer loop
    vertex 97.47492541212405 -7.883122561976318e-05 2.0000004668466107
    vertex 97.47492284224418 122.9999190431616 -5.871240115526421e-06
    vertex 97.4749247178818 122.99991993361681 1.9999941154443823
  endloop
endfacet
facet normal -8.178686186219148e-07 -0.9999999999995666 4.4522838475284165e-07
  outer loop
    vertex 97.47492353648643 -7.972168085524366e-05 4.6684768248428377e-07
    vertex 1.8756375611772568e-06 8.904552354804806e-07 1.999999999999005
    vertex 0.0 0.0 0.0
  endloop
endfacet
facet normal -8.178686186219148e-07 -0.9999999999995666 4.4522838475284165e-07
  outer loop
    vertex 1.8756375611772568e-06 8.904552354804806e-07 1.999999999999005
    vertex 97.47492353648643 -7.972168085524366e-05 4.6684768248428377e-07
    vertex 97.47492541212405 -7.883122561976318e-05 2.0000004668466107
  endloop
endfacet
facet normal 0.6087614290051859 0.7933533402934092 -9.24130734198109e-07
  outer loop
    vertex 94.41426338326507 3.439255559524731 -1.6440784273541452e-06
    vertex 94.72492543068232 3.200878516084434 1.9999976137834887
    vertex 94.72492355504471 3.2008776256291984 -2.386215406832703e-06
  endloop
endfacet
facet normal 0.6087614290051859 0.7933533402934092 -9.24130734198109e-07
  outer loop
    vertex 94.72492543068232 3.200878516084434 1.9999976137834887
    vertex 94.41426338326507 3.439255559524731 -1.6440784273541452e-06
    vertex 94.41426525890267 3.439256449979967 1.9999983559205052
  endloop
endfacet
facet normal 0.3826834323615291 0.9238795325124407 -7.702244040189657e-07
  outer loop
    vertex 94.72492355504471 3.2008776256291984 -2.386215406832703e-06
    vertex 95.08669686302828 3.0510278823286754 1.999997005405702
    vertex 95.08669498739066 3.05102699187344 -2.9945932259883845e-06
  endloop
endfacet
facet normal 0.3826834323615291 0.9238795325124407 -7.702244040189657e-07
  outer loop
    vertex 95.08669686302828 3.0510278823286754 1.999997005405702
    vertex 94.72492355504471 3.2008776256291984 -2.386215406832703e-06
    vertex 94.72492543068232 3.200878516084434 1.9999976137834887
  endloop
endfacet
facet normal 0.13052619221705508 0.9914448613740445 -5.6382855148393e-07
  outer loop
    vertex 95.08669498739066 3.05102699187344 -2.9945932259883845e-06
    vertex 95.4749254306817 2.9999166217632642 1.999996572247014
    vertex 95.47492355504409 2.9999157313080285 -3.4277519282643883e-06
  endloop
endfacet
facet normal 0.13052619221705508 0.9914448613740445 -5.6382855148393e-07
  outer loop
    vertex 95.4749254306817 2.9999166217632642 1.999996572247014
    vertex 95.08669498739066 3.05102699187344 -2.9945932259883845e-06
    vertex 95.08669686302828 3.0510278823286754 1.999997005405702
  endloop
endfacet
facet normal -0.1305261922221641 0.991444861373481 -3.190087156464238e-07
  outer loop
    vertex 95.47492355504409 2.9999157313080285 -3.4277519282643883e-06
    vertex 95.8631539983351 3.0510278823303816 1.9999963438264763
    vertex 95.86315212269747 3.0510269918751463 -3.656172441507399e-06
  endloop
endfacet
facet normal -0.1305261922221641 0.991444861373481 -3.190087156464238e-07
  outer loop
    vertex 95.8631539983351 3.0510278823303816 1.9999963438264763
    vertex 95.47492355504409 2.9999157313080285 -3.4277519282643883e-06
    vertex 95.4749254306817 2.9999166217632642 1.999996572247014
  endloop
endfacet
facet normal -0.38268343236637176 0.9238795325107543 -5.244896157354859e-08
  outer loop
    vertex 95.86315212269747 3.0510269918751463 -3.656172441507399e-06
    vertex 96.22492543068087 3.2008785160877298 1.9999963357106323
    vertex 96.22492355504325 3.2008776256324944 -3.6642883057491634e-06
  endloop
endfacet
facet normal -0.38268343236637176 0.9238795325107543 -5.244896157354859e-08
  outer loop
    vertex 96.22492543068087 3.2008785160877298 1.9999963357106323
    vertex 95.86315212269747 3.0510269918751463 -3.656172441507399e-06
    vertex 95.8631539983351 3.0510278823303816 1.9999963438264763
  endloop
endfacet
facet normal -0.6087614290094008 0.7933533402906834 2.1768509874960493e-07
  outer loop
    vertex 96.22492543068087 3.2008785160877298 1.9999963357106323
    vertex 96.53558372682267 3.439255559529392 -3.4515464335610476e-06
    vertex 96.22492355504325 3.2008776256324944 -3.6642883057491634e-06
  endloop
endfacet
facet normal -0.6087614290094008 0.7933533402906834 2.1768509874960493e-07
  outer loop
    vertex 96.53558372682267 3.439255559529392 -3.4515464335610476e-06
    vertex 96.22492543068087 3.2008785160877298 1.9999963357106323
    vertex 96.53558560246027 3.4392564499846277 1.9999965484524902
  endloop
endfacet
facet normal -0.7933533402916554 0.6087614290079894 4.7298428373288024e-07
  outer loop
    vertex 96.53558560246027 3.4392564499846277 1.9999965484524902
    vertex 96.77396166071911 3.749915731308927 -3.0324448302782022e-06
    vertex 96.53558372682267 3.439255559529392 -3.4515464335610476e-06
  endloop
endfacet
facet normal -0.7933533402916554 0.6087614290079894 4.7298428373288024e-07
  outer loop
    vertex 96.77396166071911 3.749915731308927 -3.0324448302782022e-06
    vertex 96.53558560246027 3.4392564499846277 1.9999965484524902
    vertex 96.77396353635675 3.749916621764162 1.999996967554092
  endloop
endfacet
facet normal -0.9238795325115278 0.3826834323638751 6.960503697007711e-07
  outer loop
    vertex 96.77396353635675 3.749916621764162 1.999996967554092
    vertex 96.92381229447575 4.111687163654532 -2.4355445958301743e-06
    vertex 96.77396166071911 3.749915731308927 -3.0324448302782022e-06
  endloop
endfacet
facet normal -0.9238795325115278 0.3826834323638751 6.960503697007711e-07
  outer loop
    vertex 96.92381229447575 4.111687163654532 -2.4355445958301743e-06
    vertex 96.77396353635675 3.749916621764162 1.999996967554092
    vertex 96.92381417011336 4.111688054109767 1.9999975644543424
  endloop
endfacet
facet normal -0.9914448613736889 0.13052619221806352 8.716817760549909e-07
  outer loop
    vertex 96.92381417011336 4.111688054109767 1.9999975644543424
    vertex 96.97492355504188 4.499915731307413 -1.7015234583861449e-06
    vertex 96.92381229447575 4.111687163654532 -2.4355445958301743e-06
  endloop
endfacet
facet normal -0.9914448613736889 0.13052619221806352 8.716817760549909e-07
  outer loop
    vertex 96.97492355504188 4.499915731307413 -1.7015234583861449e-06
    vertex 96.92381417011336 4.111688054109767 1.9999975644543424
    vertex 96.97492543067952 4.499916621762648 1.999998298475472
  endloop
endfacet
facet normal -0.9914448613729617 -0.1305261922227606 9.87909507285077e-07
  outer loop
    vertex 96.97492543067952 4.499916621762648 1.999998298475472
    vertex 96.92381229447537 4.88814429896007 -8.804037804371889e-07
    vertex 96.97492355504188 4.499915731307413 -1.7015234583861449e-06
  endloop
endfacet
facet normal -0.9914448613729617 -0.1305261922227606 9.87909507285077e-07
  outer loop
    vertex 96.92381229447537 4.88814429896007 -8.804037804371889e-07
    vertex 96.97492543067952 4.499916621762648 1.999998298475472
    vertex 96.92381417011298 4.8881451894153045 1.99999911959516
  endloop
endfacet
facet normal -0.9238795325094183 -0.38268343236819624 1.0368128329776962e-06
  outer loop
    vertex 96.92381417011298 4.8881451894153045 1.99999911959516
    vertex 96.77396166071838 5.249915731305015 -2.814347840329745e-08
    vertex 96.92381229447537 4.88814429896007 -8.804037804371889e-07
  endloop
endfacet
facet normal -0.9238795325094183 -0.38268343236819624 1.0368128329776962e-06
  outer loop
    vertex 96.77396166071838 5.249915731305015 -2.814347840329745e-08
    vertex 96.92381417011298 4.8881451894153045 1.99999911959516
    vertex 96.77396353635599 5.249916621760251 1.9999999718554442
  endloop
endfacet
facet normal -0.7933533402883578 -0.6087614290116243 1.0150590853518735e-06
  outer loop
    vertex 96.77396353635599 5.249916621760251 1.9999999718554442
    vertex 96.53558372682161 5.560575903083503 7.971772833875734e-07
    vertex 96.77396166071838 5.249915731305015 -2.814347840329745e-08
  endloop
endfacet
facet normal -0.7933533402883578 -0.6087614290116243 1.0150590853518735e-06
  outer loop
    vertex 96.53558372682161 5.560575903083503 7.971772833875734e-07
    vertex 96.77396353635599 5.249916621760251 1.9999999718554442
    vertex 96.53558560245924 5.560576793538738 2.0000007971762077
  endloop
endfacet
facet normal -0.6087614290051918 -0.7933533402934049 9.241307359092681e-07
  outer loop
    vertex 96.53558560245924 5.560576793538738 2.0000007971762077
    vertex 96.22492355504197 5.7989538369790345 1.5393142720310225e-06
    vertex 96.53558372682161 5.560575903083503 7.971772833875734e-07
  endloop
endfacet
facet normal -0.6087614290051918 -0.7933533402934049 9.241307359092681e-07
  outer loop
    vertex 96.22492355504197 5.7989538369790345 1.5393142720310225e-06
    vertex 96.53558560245924 5.560576793538738 2.0000007971762077
    vertex 96.22492543067959 5.79895472743427 2.000001539313214
  endloop
endfacet
facet normal -0.38268343236154745 -0.9238795325124329 7.702244050936453e-07
  outer loop
    vertex 96.22492543067959 5.79895472743427 2.000001539313214
    vertex 95.86315212269604 5.948804470734795 2.147692080611829e-06
    vertex 96.22492355504197 5.7989538369790345 1.5393142720310225e-06
  endloop
endfacet
facet normal -0.38268343236154745 -0.9238795325124329 7.702244050936453e-07
  outer loop
    vertex 95.86315212269604 5.948804470734795 2.147692080611829e-06
    vertex 96.22492543067959 5.79895472743427 2.000001539313214
    vertex 95.86315399833367 5.94880536119003 2.000002147691004
  endloop
endfacet
facet normal -0.13052619221705125 -0.9914448613740452 5.638285518508694e-07
  outer loop
    vertex 95.86315399833367 5.94880536119003 2.000002147691004
    vertex 95.47492355504261 5.999915731300207 2.5808507807728586e-06
    vertex 95.86315212269604 5.948804470734795 2.147692080611829e-06
  endloop
endfacet
facet normal -0.13052619221705125 -0.9914448613740452 5.638285518508694e-07
  outer loop
    vertex 95.47492355504261 5.999915731300207 2.5808507807728586e-06
    vertex 95.86315399833367 5.94880536119003 2.000002147691004
    vertex 95.47492543068022 5.9999166217554425 2.0000025808497193
  endloop
endfacet
facet normal 0.1305261922221752 -0.9914448613734796 3.190087160136315e-07
  outer loop
    vertex 95.47492543068022 5.9999166217554425 2.0000025808497193
    vertex 95.08669498738924 5.948804470733089 2.8092713063532223e-06
    vertex 95.47492355504261 5.999915731300207 2.5808507807728586e-06
  endloop
endfacet
facet normal 0.1305261922221752 -0.9914448613734796 3.190087160136315e-07
  outer loop
    vertex 95.08669498738924 5.948804470733089 2.8092713063532223e-06
    vertex 95.47492543068022 5.9999166217554425 2.0000025808497193
    vertex 95.08669686302686 5.948805361188324 2.0000028092702338
  endloop
endfacet
facet normal 0.3826834323663397 -0.9238795325107676 5.244896373320771e-08
  outer loop
    vertex 95.08669686302686 5.948805361188324 2.0000028092702338
    vertex 94.72492355504343 5.798953836975741 2.817387171652474e-06
    vertex 95.08669498738924 5.948804470733089 2.8092713063532223e-06
  endloop
endfacet
facet normal 0.3826834323663397 -0.9238795325107676 5.244896373320771e-08
  outer loop
    vertex 94.72492355504343 5.798953836975741 2.817387171652474e-06
    vertex 95.08669686302686 5.948805361188324 2.0000028092702338
    vertex 94.72492543068104 5.798954727430977 2.0000028173860755
  endloop
endfacet
facet normal 0.608761429009402 -0.7933533402906825 -2.1768509874835559e-07
  outer loop
    vertex 94.72492355504343 5.798953836975741 2.817387171652474e-06
    vertex 94.41426525890164 5.560576793534079 2.00000260464422
    vertex 94.41426338326401 5.560575903078843 2.6046452850120303e-06
  endloop
endfacet
facet normal 0.608761429009402 -0.7933533402906825 -2.1768509874835559e-07
  outer loop
    vertex 94.41426525890164 5.560576793534079 2.00000260464422
    vertex 94.72492355504343 5.798953836975741 2.817387171652474e-06
    vertex 94.72492543068104 5.798954727430977 2.0000028173860755
  endloop
endfacet
facet normal 0.7933533402916554 -0.6087614290079892 -4.7298428373181123e-07
  outer loop
    vertex 94.41426338326401 5.560575903078843 2.6046452850120303e-06
    vertex 94.17588732500518 5.249916621754544 2.0000021855426287
    vertex 94.17588544936756 5.249915731299308 2.185543698296488e-06
  endloop
endfacet
facet normal 0.7933533402916554 -0.6087614290079892 -4.7298428373181123e-07
  outer loop
    vertex 94.17588732500518 5.249916621754544 2.0000021855426287
    vertex 94.41426338326401 5.560575903078843 2.6046452850120303e-06
    vertex 94.41426525890164 5.560576793534079 2.00000260464422
  endloop
endfacet
facet normal 0.9238795325115479 -0.38268343236382657 -6.960503697071814e-07
  outer loop
    vertex 94.17588544936756 5.249915731299308 2.185543698296488e-06
    vertex 94.02603669124858 4.88814518940894 2.0000015886423537
    vertex 94.02603481561096 4.888144298953704 1.5886434458711739e-06
  endloop
endfacet
facet normal 0.9238795325115479 -0.38268343236382657 -6.960503697071814e-07
  outer loop
    vertex 94.02603669124858 4.88814518940894 2.0000015886423537
    vertex 94.17588544936756 5.249915731299308 2.185543698296488e-06
    vertex 94.17588732500518 5.249916621754544 2.0000021855426287
  endloop
endfacet
facet normal 0.9914448613736835 -0.1305261922181058 -8.716817732600371e-07
  outer loop
    vertex 94.02603481561096 4.888144298953704 1.5886434458711739e-06
    vertex 93.9749254306824 4.499916621756057 2.0000008546212467
    vertex 93.97492355504478 4.499915731300821 8.546223151245647e-07
  endloop
endfacet
facet normal 0.9914448613736835 -0.1305261922181058 -8.716817732600371e-07
  outer loop
    vertex 93.9749254306824 4.499916621756057 2.0000008546212467
    vertex 94.02603481561096 4.888144298953704 1.5886434458711739e-06
    vertex 94.02603669124858 4.88814518940894 2.0000015886423537
  endloop
endfacet
facet normal 0.9914448613729561 0.13052619222280282 -9.879095044895716e-07
  outer loop
    vertex 93.97492355504478 4.499915731300821 8.546223151245647e-07
    vertex 94.02603669124896 4.1116880541034 2.000000033501539
    vertex 94.02603481561134 4.111687163648165 3.350263611812121e-08
  endloop
endfacet
facet normal 0.9914448613729561 0.13052619222280282 -9.879095044895716e-07
  outer loop
    vertex 94.02603669124896 4.1116880541034 2.000000033501539
    vertex 93.97492355504478 4.499915731300821 8.546223151245647e-07
    vertex 93.9749254306824 4.499916621756057 2.0000008546212467
  endloop
endfacet
facet normal 0.9238795325094333 0.3826834323681601 -1.0368128355824044e-06
  outer loop
    vertex 94.02603481561134 4.111687163648165 3.350263611812121e-08
    vertex 94.17588732500592 3.7499166217584547 1.9999991812412807
    vertex 94.17588544936831 3.749915731303219 -8.187576504059545e-07
  endloop
endfacet
facet normal 0.9238795325094333 0.3826834323681601 -1.0368128355824044e-06
  outer loop
    vertex 94.17588732500592 3.7499166217584547 1.9999991812412807
    vertex 94.02603481561134 4.111687163648165 3.350263611812121e-08
    vertex 94.02603669124896 4.1116880541034 2.000000033501539
  endloop
endfacet
facet normal 0.7933533402883653 0.6087614290116145 -1.0150590831110479e-06
  outer loop
    vertex 94.17588544936831 3.749915731303219 -8.187576504059545e-07
    vertex 94.41426525890267 3.439256449979967 1.9999983559205052
    vertex 94.41426338326507 3.439255559524731 -1.6440784273541452e-06
  endloop
endfacet
facet normal 0.7933533402883653 0.6087614290116145 -1.0150590831110479e-06
  outer loop
    vertex 94.41426525890267 3.439256449979967 1.9999983559205052
    vertex 94.17588544936831 3.749915731303219 -8.187576504059545e-07
    vertex 94.17588732500592 3.7499166217584547 1.9999991812412807
  endloop
endfacet
facet normal 0.991444861373335 0.13052619221992548 -9.879094709379492e-07
  outer loop
    vertex 1.000145241266608 4.5000285840893355 8.134420055494473e-05
    vertex 1.0512583774704851 4.111800906890916 2.0000813151203687
    vertex 1.0512565018329803 4.111800016435681 8.131512131155371e-05
  endloop
endfacet
facet normal 0.991444861373335 0.13052619221992548 -9.879094709379492e-07
  outer loop
    vertex 1.0512583774704851 4.111800906890916 2.0000813151203687
    vertex 1.000145241266608 4.5000285840893355 8.134420055494473e-05
    vertex 1.000147116904203 4.500029474544571 2.0000813441994247
  endloop
endfacet
facet normal 0.9238795325107915 0.3826834323648811 -1.0368128329802572e-06
  outer loop
    vertex 1.0512565018329803 4.111800016435681 8.131512131155371e-05
    vertex 1.201109011227392 3.750029474544814 2.000081230742289
    vertex 1.201107135589673 3.750028584089579 8.12307433686099e-05
  endloop
endfacet
facet normal 0.9238795325107915 0.3826834323648811 -1.0368128329802572e-06
  outer loop
    vertex 1.201109011227392 3.750029474544814 2.000081230742289
    vertex 1.0512565018329803 4.111800016435681 8.131512131155371e-05
    vertex 1.0512583774704851 4.111800906890916 2.0000813151203687
  endloop
endfacet
facet normal 0.793353340290623 0.6087614290086723 -1.0150590652094406e-06
  outer loop
    vertex 1.201107135589673 3.750028584089579 8.12307433686099e-05
    vertex 1.4394869451239927 3.439369302765094 2.0000810968155442
    vertex 1.4394850694865782 3.4393684123098587 8.109681676043978e-05
  endloop
endfacet
facet normal 0.793353340290623 0.6087614290086723 -1.0150590652094406e-06
  outer loop
    vertex 1.4394869451239927 3.439369302765094 2.0000810968155442
    vertex 1.201107135589673 3.750028584089579 8.12307433686099e-05
    vertex 1.201109011227392 3.750029474544814 2.000081230742289
  endloop
endfacet
facet normal 0.6087614290080667 0.7933533402911986 -9.241307032951567e-07
  outer loop
    vertex 1.4394850694865782 3.4393684123098587 8.109681676043978e-05
    vertex 1.750147116903863 3.2009913688683356 2.0000809224673137
    vertex 1.7501452412662566 3.2009904784131 8.092246823242498e-05
  endloop
endfacet
facet normal 0.6087614290080667 0.7933533402911986 -9.241307032951567e-07
  outer loop
    vertex 1.750147116903863 3.2009913688683356 2.0000809224673137
    vertex 1.4394850694865782 3.4393684123098587 8.109681676043978e-05
    vertex 1.4394869451239927 3.439369302765094 2.0000810968155442
  endloop
endfacet
facet normal 0.38268343236465807 0.9238795325111445 -7.702244202064881e-07
  outer loop
    vertex 1.7501452412662566 3.2009904784131 8.092246823242498e-05
    vertex 2.1119185492500043 3.0511407351114395 2.000080719578889
    vertex 2.111916673612206 3.051139844656204 8.07195798698479e-05
  endloop
endfacet
facet normal 0.38268343236465807 0.9238795325111445 -7.702244202064881e-07
  outer loop
    vertex 2.1119185492500043 3.0511407351114395 2.000080719578889
    vertex 1.7501452412662566 3.2009904784131 8.092246823242498e-05
    vertex 1.750147116903863 3.2009913688683356 2.0000809224673137
  endloop
endfacet
facet normal 0.1305261922197831 0.9914448613736855 -5.638285525892776e-07
  outer loop
    vertex 2.111916673612206 3.051139844656204 8.07195798698479e-05
    vertex 2.5001471169032974 3.000029474545059 2.0000805019766155
    vertex 2.500145241265838 3.0000285840898235 8.05019777018856e-05
  endloop
endfacet
facet normal 0.1305261922197831 0.9914448613736855 -5.638285525892776e-07
  outer loop
    vertex 2.5001471169032974 3.000029474545059 2.0000805019766155
    vertex 2.111916673612206 3.051139844656204 8.07195798698479e-05
    vertex 2.1119185492500043 3.0511407351114395 2.000080719578889
  endloop
endfacet
facet normal -0.1305261922202499 0.991444861373733 -3.1900872411335246e-07
  outer loop
    vertex 2.500145241265838 3.0000285840898235 8.05019777018856e-05
    vertex 2.8883756845568955 3.0511407351114403 2.000080284490076
    vertex 2.8883738089193796 3.051139844656205 8.028449097066125e-05
  endloop
endfacet
facet normal -0.1305261922202499 0.991444861373733 -3.1900872411335246e-07
  outer loop
    vertex 2.8883756845568955 3.0511407351114403 2.000080284490076
    vertex 2.500145241265838 3.0000285840898235 8.05019777018856e-05
    vertex 2.5001471169032974 3.000029474545059 2.0000805019766155
  endloop
endfacet
facet normal -0.3826834323650235 0.9238795325113127 -5.244897236849305e-08
  outer loop
    vertex 2.8883738089193796 3.051139844656205 8.028449097066125e-05
    vertex 3.25014711690315 3.200991368868337 2.00008008194061
    vertex 3.2501452412655323 3.200990478413101 8.008194163150462e-05
  endloop
endfacet
facet normal -0.3826834323650235 0.9238795325113127 -5.244897236849305e-08
  outer loop
    vertex 3.25014711690315 3.200991368868337 2.00008008194061
    vertex 2.8883738089193796 3.051139844656205 8.028449097066125e-05
    vertex 2.8883756845568955 3.0511407351114403 2.000080284490076
  endloop
endfacet
facet normal -0.6087614290089665 0.7933533402910167 2.1768509188215106e-07
  outer loop
    vertex 3.2501452412655323 3.200990478413101 8.008194163150462e-05
    vertex 3.560807288682569 3.4393693027650962 2.000079908131062
    vertex 3.560805413045008 3.439368412309861 7.99081321626427e-05
  endloop
endfacet
facet normal -0.6087614290089665 0.7933533402910167 2.1768509188215106e-07
  outer loop
    vertex 3.560807288682569 3.4393693027650962 2.000079908131062
    vertex 3.2501452412655323 3.200990478413101 8.008194163150462e-05
    vertex 3.25014711690315 3.200991368868337 2.00008008194061
  endloop
endfacet
facet normal -0.7933533402907909 0.608761429009116 4.7298427701725543e-07
  outer loop
    vertex 3.560807288682569 3.4393693027650962 2.000079908131062
    vertex 3.7991833469419367 3.750028584089581 7.9774908039143e-05
    vertex 3.560805413045008 3.439368412309861 7.99081321626427e-05
  endloop
endfacet
facet normal -0.7933533402907909 0.608761429009116 4.7298427701725543e-07
  outer loop
    vertex 3.7991833469419367 3.750028584089581 7.9774908039143e-05
    vertex 3.560807288682569 3.4393693027650962 2.000079908131062
    vertex 3.7991852225795766 3.7500294745448164 2.000079774907102
  endloop
endfacet
facet normal -0.9238795325111133 0.3826834323648758 6.960503827322765e-07
  outer loop
    vertex 3.7991852225795766 3.7500294745448164 2.000079774907102
    vertex 3.949033980698708 4.111800016435683 7.969134803734733e-05
    vertex 3.7991833469419367 3.750028584089581 7.9774908039143e-05
  endloop
endfacet
facet normal -0.9238795325111133 0.3826834323648758 6.960503827322765e-07
  outer loop
    vertex 3.949033980698708 4.111800016435683 7.969134803734733e-05
    vertex 3.7991852225795766 3.7500294745448164 2.000079774907102
    vertex 3.9490358563363595 4.1118009068909185 2.0000796913469565
  endloop
endfacet
facet normal -0.9914448613733987 0.13052619222026865 8.716817956242157e-07
  outer loop
    vertex 3.9490358563363595 4.1118009068909185 2.0000796913469565
    vertex 4.00014524126516 4.500028584089338 7.966314686524978e-05
    vertex 3.949033980698708 4.111800016435683 7.969134803734733e-05
  endloop
endfacet
facet normal -0.9914448613733987 0.13052619222026865 8.716817956242157e-07
  outer loop
    vertex 4.00014524126516 4.500028584089338 7.966314686524978e-05
    vertex 3.9490358563363595 4.1118009068909185 2.0000796913469565
    vertex 4.000147116902833 4.500029474544574 2.0000796631457436
  endloop
endfacet
facet normal -0.9914448613732882 -0.13052619222027964 9.879095128769227e-07
  outer loop
    vertex 4.000147116902833 4.500029474544574 2.0000796631457436
    vertex 3.9490339806987307 4.888257151742993 7.969222593239288e-05
    vertex 4.00014524126516 4.500028584089338 7.966314686524978e-05
  endloop
endfacet
facet normal -0.9914448613732882 -0.13052619222027964 9.879095128769227e-07
  outer loop
    vertex 3.9490339806987307 4.888257151742993 7.969222593239288e-05
    vertex 4.000147116902833 4.500029474544574 2.0000796631457436
    vertex 3.9490358563363257 4.8882580421982285 2.0000796922248925
  endloop
endfacet
facet normal -0.9238795325107813 -0.3826834323649057 1.0368128069237996e-06
  outer loop
    vertex 3.9490358563363257 4.8882580421982285 2.0000796922248925
    vertex 3.7991833469419594 5.250028584089095 7.977660396416563e-05
    vertex 3.9490339806987307 4.888257151742993 7.969222593239288e-05
  endloop
endfacet
facet normal -0.9238795325107813 -0.3826834323649057 1.0368128069237996e-06
  outer loop
    vertex 3.7991833469419594 5.250028584089095 7.977660396416563e-05
    vertex 3.9490358563363257 4.8882580421982285 2.0000796922248925
    vertex 3.7991852225794753 5.25002947454433 2.000079776602978
  endloop
endfacet
facet normal -0.7933533402903574 -0.6087614290090182 1.0150590741616817e-06
  outer loop
    vertex 3.7991852225794753 5.25002947454433 2.000079776602978
    vertex 3.5608054130449176 5.5606887558688145 7.991053056528585e-05
    vertex 3.7991833469419594 5.250028584089095 7.977660396416563e-05
  endloop
endfacet
facet normal -0.7933533402903574 -0.6087614290090182 1.0150590741616817e-06
  outer loop
    vertex 3.5608054130449176 5.5606887558688145 7.991053056528585e-05
    vertex 3.7991852225794753 5.25002947454433 2.000079776602978
    vertex 3.5608072886825806 5.56068964632405 2.00007991052937
  endloop
endfacet
facet normal -0.6087614290085408 -0.793353340290835 9.241307616627662e-07
  outer loop
    vertex 3.5608072886825806 5.56068964632405 2.00007991052937
    vertex 3.2501452412654874 5.799066689765574 8.008487905523109e-05
    vertex 3.5608054130449176 5.5606887558688145 7.991053056528585e-05
  endloop
endfacet
facet normal -0.6087614290085408 -0.793353340290835 9.241307616627662e-07
  outer loop
    vertex 3.2501452412654874 5.799066689765574 8.008487905523109e-05
    vertex 3.5608072886825806 5.56068964632405 2.00007991052937
    vertex 3.250147116903229 5.79906758022081 2.0000800848780123
  endloop
endfacet
facet normal -0.38268343236454216 -0.9238795325111925 7.702244083382948e-07
  outer loop
    vertex 3.250147116903229 5.79906758022081 2.0000800848780123
    vertex 2.8883738089194133 5.948917323522471 8.028776722323049e-05
    vertex 3.2501452412654874 5.799066689765574 8.008487905523109e-05
  endloop
endfacet
facet normal -0.38268343236454216 -0.9238795325111925 7.702244083382948e-07
  outer loop
    vertex 2.8883738089194133 5.948917323522471 8.028776722323049e-05
    vertex 3.250147116903229 5.79906758022081 2.0000800848780123
    vertex 2.888375684556952 5.948918213977707 2.000080287766371
  endloop
endfacet
facet normal -0.1305261922197272 -0.9914448613736929 5.638285459626025e-07
  outer loop
    vertex 2.888375684556952 5.948918213977707 2.000080287766371
    vertex 2.500145241265793 6.000028584088851 8.050536954065101e-05
    vertex 2.8883738089194133 5.948917323522471 8.028776722323049e-05
  endloop
endfacet
facet normal -0.1305261922197272 -0.9914448613736929 5.638285459626025e-07
  outer loop
    vertex 2.500145241265793 6.000028584088851 8.050536954065101e-05
    vertex 2.888375684556952 5.948918213977707 2.000080287766371
    vertex 2.500147116903309 6.000029474544087 2.0000805053685133
  endloop
endfacet
facet normal 0.130526192220291 -0.9914448613737276 3.1900871564568103e-07
  outer loop
    vertex 2.500147116903309 6.000029474544087 2.0000805053685133
    vertex 2.111916673612251 5.948917323522471 8.072285618304642e-05
    vertex 2.500145241265793 6.000028584088851 8.050536954065101e-05
  endloop
endfacet
facet normal 0.130526192220291 -0.9914448613737276 3.1900871564568103e-07
  outer loop
    vertex 2.111916673612251 5.948917323522471 8.072285618304642e-05
    vertex 2.500147116903309 6.000029474544087 2.0000805053685133
    vertex 2.11191854924997 5.948918213977707 2.000080722855194
  endloop
endfacet
facet normal 0.3826834323651695 -0.9238795325112524 5.244895510148939e-08
  outer loop
    vertex 2.11191854924997 5.948918213977707 2.000080722855194
    vertex 1.750145241266268 5.7990666897655725 8.092540570832085e-05
    vertex 2.111916673612251 5.948917323522471 8.072285618304642e-05
  endloop
endfacet
facet normal 0.3826834323651695 -0.9238795325112524 5.244895510148939e-08
  outer loop
    vertex 1.750145241266268 5.7990666897655725 8.092540570832085e-05
    vertex 2.11191854924997 5.948918213977707 2.000080722855194
    vertex 1.750147116903863 5.799067580220808 2.000080925404718
  endloop
endfacet
facet normal 0.6087614290085771 -0.7933533402913155 -2.1768506441529086e-07
  outer loop
    vertex 1.750147116903863 5.799067580220808 2.000080925404718
    vertex 1.4394850694866008 5.560688755868814 8.109921514616314e-05
    vertex 1.750145241266268 5.7990666897655725 8.092540570832085e-05
  endloop
endfacet
facet normal 0.6087614290085771 -0.7933533402913155 -2.1768506441529086e-07
  outer loop
    vertex 1.4394850694866008 5.560688755868814 8.109921514616314e-05
    vertex 1.750147116903863 5.799067580220808 2.000080925404718
    vertex 1.439486945124004 5.560689646324049 2.0000810992139737
  endloop
endfacet
facet normal 0.7933533402910492 -0.608761429008779 -4.7298428820304013e-07
  outer loop
    vertex 1.4394850694866008 5.560688755868814 8.109921514616314e-05
    vertex 1.2011090112274712 5.250029474544329 2.0000812324381845
    vertex 1.2011071355896166 5.250028584089093 8.123243933029211e-05
  endloop
endfacet
facet normal 0.7933533402910492 -0.608761429008779 -4.7298428820304013e-07
  outer loop
    vertex 1.2011090112274712 5.250029474544329 2.0000812324381845
    vertex 1.4394850694866008 5.560688755868814 8.109921514616314e-05
    vertex 1.439486945124004 5.560689646324049 2.0000810992139737
  endloop
endfacet
facet normal 0.9238795325110772 -0.3826834323649625 -6.960504061787904e-07
  outer loop
    vertex 1.2011071355896166 5.250028584089093 8.123243933029211e-05
    vertex 1.0512583774704964 4.888258042198228 2.000081315998261
    vertex 1.0512565018329578 4.888257151742992 8.131599917557963e-05
  endloop
endfacet
facet normal 0.9238795325110772 -0.3826834323649625 -6.960504061787904e-07
  outer loop
    vertex 1.0512583774704964 4.888258042198228 2.000081315998261
    vertex 1.2011071355896166 5.250028584089093 8.123243933029211e-05
    vertex 1.2011090112274712 5.250029474544329 2.0000812324381845
  endloop
endfacet
facet normal 0.9914448613734453 -0.13052619221991443 -8.71681748095426e-07
  outer loop
    vertex 1.0512565018329578 4.888257151742992 8.131599917557963e-05
    vertex 1.000147116904203 4.500029474544571 2.0000813441994247
    vertex 1.000145241266608 4.5000285840893355 8.134420055494473e-05
  endloop
endfacet
facet normal 0.9914448613734453 -0.13052619221991443 -8.71681748095426e-07
  outer loop
    vertex 1.000147116904203 4.500029474544571 2.0000813441994247
    vertex 1.0512565018329578 4.888257151742992 8.131599917557963e-05
    vertex 1.0512583774704964 4.888258042198228 2.000081315998261
  endloop
endfacet
facet normal 4.33042513982775e-07 0.9999999999991263 -1.2489767146108876e-06
  outer loop
    vertex 1.5001670105722749 122.99991516419574 0.00010048558797307101
    vertex 41.97492471788368 122.9999199364694 1.999986141542348
    vertex 41.97492284224614 122.99991904601418 -1.3858456651999473e-05
  endloop
endfacet
facet normal 4.33042513982775e-07 0.9999999999991263 -1.2489767146108876e-06
  outer loop
    vertex 41.97492471788368 122.9999199364694 1.999986141542348
    vertex 1.5001670105722749 122.99991516419574 0.00010048558797307101
    vertex 1.5002782340352185 122.99991926950779 1.9998968968481097
  endloop
endfacet
facet normal 0.7071067811860435 0.7071067811863754 -9.779615238717655e-07
  outer loop
    vertex 66.9749228422454 127.99991904601417 -7.733673044413303e-06
    vertex 71.97492471788114 122.9999199364703 1.9999898164124732
    vertex 71.97492284224347 122.99991904601508 -1.0183586486531282e-05
  endloop
endfacet
facet normal 0.7071067811860435 0.7071067811863754 -9.779615238717655e-07
  outer loop
    vertex 71.97492471788114 122.9999199364703 1.9999898164124732
    vertex 66.9749228422454 127.99991904601417 -7.733673044413303e-06
    vertex 66.9749247178831 127.9999199364694 1.9999922663258698
  endloop
endfacet
facet normal 1.1197675512890579e-10 0.999999999999901 -4.452276122775171e-07
  outer loop
    vertex 71.97492471788114 122.9999199364703 1.9999898164124732
    vertex 97.47492284224418 122.9999190431616 -5.871240115526421e-06
    vertex 71.97492284224347 122.99991904601508 -1.0183586486531282e-05
  endloop
endfacet
facet normal 1.1197675512890579e-10 0.999999999999901 -4.452276122775171e-07
  outer loop
    vertex 97.47492284224418 122.9999190431616 -5.871240115526421e-06
    vertex 71.97492471788114 122.9999199364703 1.9999898164124732
    vertex 97.4749247178818 122.99991993361681 1.9999941154443823
  endloop
endfacet
facet normal 7.930359165177648e-07 -1.1237153633424179e-07 0.9999999999996794
  outer loop
    vertex 1.8756375611772568e-06 8.904552354804806e-07 1.999999999999005
    vertex 1.0512583774704851 4.111800906890916 2.0000813151203687
    vertex 1.000147116904203 4.500029474544571 2.0000813441994247
  endloop
endfacet
facet normal 7.930359165177648e-07 -1.1237153633424179e-07 0.9999999999996794
  outer loop
    vertex 1.0512583774704851 4.111800906890916 2.0000813151203687
    vertex 1.8756375611772568e-06 8.904552354804806e-07 1.999999999999005
    vertex 1.201109011227392 3.750029474544814 2.000081230742289
  endloop
endfacet
facet normal 7.930359165177648e-07 -1.1237153633424179e-07 0.9999999999996794
  outer loop
    vertex 1.201109011227392 3.750029474544814 2.000081230742289
    vertex 1.8756375611772568e-06 8.904552354804806e-07 1.999999999999005
    vertex 1.4394869451239927 3.439369302765094 2.0000810968155442
  endloop
endfacet
facet normal 7.930359165177648e-07 -1.1237153633424179e-07 0.9999999999996794
  outer loop
    vertex 1.4394869451239927 3.439369302765094 2.0000810968155442
    vertex 1.8756375611772568e-06 8.904552354804806e-07 1.999999999999005
    vertex 1.750147116903863 3.2009913688683356 2.0000809224673137
  endloop
endfacet
facet normal 7.930359165177648e-07 -1.1237153633424179e-07 0.9999999999996794
  outer loop
    vertex 1.750147116903863 3.2009913688683356 2.0000809224673137
    vertex 1.8756375611772568e-06 8.904552354804806e-07 1.999999999999005
    vertex 2.1119185492500043 3.0511407351114395 2.000080719578889
  endloop
endfacet
facet normal 7.930359165177648e-07 -1.1237153633424179e-07 0.9999999999996794
  outer loop
    vertex 2.1119185492500043 3.0511407351114395 2.000080719578889
    vertex 1.8756375611772568e-06 8.904552354804806e-07 1.999999999999005
    vertex 2.5001471169032974 3.000029474545059 2.0000805019766155
  endloop
endfacet
facet normal 7.930359165177648e-07 -1.1237153633424179e-07 0.9999999999996794
  outer loop
    vertex 2.5001471169032974 3.000029474545059 2.0000805019766155
    vertex 1.8756375611772568e-06 8.904552354804806e-07 1.999999999999005
    vertex 97.47492541212405 -7.883122561976318e-05 2.0000004668466107
  endloop
endfacet
facet normal 7.930359165177648e-07 -1.1237153633424179e-07 0.9999999999996794
  outer loop
    vertex 2.5001471169032974 3.000029474545059 2.0000805019766155
    vertex 97.47492541212405 -7.883122561976318e-05 2.0000004668466107
    vertex 2.8883756845568955 3.0511407351114403 2.000080284490076
  endloop
endfacet
facet normal 7.930359165177648e-07 -1.1237153633424179e-07 0.9999999999996794
  outer loop
    vertex 2.8883756845568955 3.0511407351114403 2.000080284490076
    vertex 97.47492541212405 -7.883122561976318e-05 2.0000004668466107
    vertex 3.25014711690315 3.200991368868337 2.00008008194061
  endloop
endfacet
facet normal 7.930359165177648e-07 -1.1237153633424179e-07 0.9999999999996794
  outer loop
    vertex 3.25014711690315 3.200991368868337 2.00008008194061
    vertex 97.47492541212405 -7.883122561976318e-05 2.0000004668466107
    vertex 3.560807288682569 3.4393693027650962 2.000079908131062
  endloop
endfacet
facet normal 7.930359165177648e-07 -1.1237153633424179e-07 0.9999999999996794
  outer loop
    vertex 3.560807288682569 3.4393693027650962 2.000079908131062
    vertex 97.47492541212405 -7.883122561976318e-05 2.0000004668466107
    vertex 3.7991852225795766 3.7500294745448164 2.000079774907102
  endloop
endfacet
facet normal 7.930359165177648e-07 -1.1237153633424179e-07 0.9999999999996794
  outer loop
    vertex 3.7991852225795766 3.7500294745448164 2.000079774907102
    vertex 97.47492541212405 -7.883122561976318e-05 2.0000004668466107
    vertex 3.9490358563363595 4.1118009068909185 2.0000796913469565
  endloop
endfacet
facet normal 7.930359165177648e-07 -1.1237153633424179e-07 0.9999999999996794
  outer loop
    vertex 3.9490358563363595 4.1118009068909185 2.0000796913469565
    vertex 97.47492541212405 -7.883122561976318e-05 2.0000004668466107
    vertex 4.000147116902833 4.500029474544574 2.0000796631457436
  endloop
endfacet
facet normal 7.930359165177648e-07 -1.1237153633424179e-07 0.9999999999996794
  outer loop
    vertex 4.000147116902833 4.500029474544574 2.0000796631457436
    vertex 97.47492541212405 -7.883122561976318e-05 2.0000004668466107
    vertex 94.41426525890267 3.439256449979967 1.9999983559205052
  endloop
endfacet
facet normal 7.930359165177648e-07 -1.1237153633424179e-07 0.9999999999996794
  outer loop
    vertex 4.000147116902833 4.500029474544574 2.0000796631457436
    vertex 94.41426525890267 3.439256449979967 1.9999983559205052
    vertex 94.17588732500592 3.7499166217584547 1.9999991812412807
  endloop
endfacet
facet normal 7.930359165177648e-07 -1.1237153633424179e-07 0.9999999999996794
  outer loop
    vertex 4.000147116902833 4.500029474544574 2.0000796631457436
    vertex 94.17588732500592 3.7499166217584547 1.9999991812412807
    vertex 41.97492471788368 122.9999199364694 1.999986141542348
  endloop
endfacet
facet normal 7.930359165177648e-07 -1.1237153633424179e-07 0.9999999999996794
  outer loop
    vertex 41.97492471788368 122.9999199364694 1.999986141542348
    vertex 94.17588732500592 3.7499166217584547 1.9999991812412807
    vertex 94.02603669124896 4.1116880541034 2.000000033501539
  endloop
endfacet
facet normal 7.930359165177648e-07 -1.1237153633424179e-07 0.9999999999996794
  outer loop
    vertex 41.97492471788368 122.9999199364694 1.999986141542348
    vertex 94.02603669124896 4.1116880541034 2.000000033501539
    vertex 46.974924717883646 127.9999199364694 1.9999873664989989
  endloop
endfacet
facet normal 7.930359165177648e-07 -1.1237153633424179e-07 0.9999999999996794
  outer loop
    vertex 46.974924717883646 127.9999199364694 1.9999873664989989
    vertex 94.02603669124896 4.1116880541034 2.000000033501539
    vertex 66.9749247178831 127.9999199364694 1.9999922663258698
  endloop
endfacet
facet normal 7.930359165177648e-07 -1.1237153633424179e-07 0.9999999999996794
  outer loop
    vertex 66.9749247178831 127.9999199364694 1.9999922663258698
    vertex 94.02603669124896 4.1116880541034 2.000000033501539
    vertex 71.97492471788114 122.9999199364703 1.9999898164124732
  endloop
endfacet
facet normal 7.930359165177648e-07 -1.1237153633424179e-07 0.9999999999996794
  outer loop
    vertex 71.97492471788114 122.9999199364703 1.9999898164124732
    vertex 94.02603669124896 4.1116880541034 2.000000033501539
    vertex 93.9749254306824 4.499916621756057 2.0000008546212467
  endloop
endfacet
facet normal 7.930359165177648e-07 -1.1237153633424179e-07 0.9999999999996794
  outer loop
    vertex 94.41426525890267 3.439256449979967 1.9999983559205052
    vertex 97.47492541212405 -7.883122561976318e-05 2.0000004668466107
    vertex 94.72492543068232 3.200878516084434 1.9999976137834887
  endloop
endfacet
facet normal 7.930359165177648e-07 -1.1237153633424179e-07 0.9999999999996794
  outer loop
    vertex 94.72492543068232 3.200878516084434 1.9999976137834887
    vertex 97.47492541212405 -7.883122561976318e-05 2.0000004668466107
    vertex 95.08669686302828 3.0510278823286754 1.999997005405702
  endloop
endfacet
facet normal 7.930359165177648e-07 -1.1237153633424179e-07 0.9999999999996794
  outer loop
    vertex 95.08669686302828 3.0510278823286754 1.999997005405702
    vertex 97.47492541212405 -7.883122561976318e-05 2.0000004668466107
    vertex 95.4749254306817 2.9999166217632642 1.999996572247014
  endloop
endfacet
facet normal 7.930359165177648e-07 -1.1237153633424179e-07 0.9999999999996794
  outer loop
    vertex 95.4749254306817 2.9999166217632642 1.999996572247014
    vertex 97.47492541212405 -7.883122561976318e-05 2.0000004668466107
    vertex 95.8631539983351 3.0510278823303816 1.9999963438264763
  endloop
endfacet
facet normal 7.930359165177648e-07 -1.1237153633424179e-07 0.9999999999996794
  outer loop
    vertex 95.8631539983351 3.0510278823303816 1.9999963438264763
    vertex 97.47492541212405 -7.883122561976318e-05 2.0000004668466107
    vertex 96.22492543068087 3.2008785160877298 1.9999963357106323
  endloop
endfacet
facet normal 7.930359165177648e-07 -1.1237153633424179e-07 0.9999999999996794
  outer loop
    vertex 96.22492543068087 3.2008785160877298 1.9999963357106323
    vertex 97.47492541212405 -7.883122561976318e-05 2.0000004668466107
    vertex 96.53558560246027 3.4392564499846277 1.9999965484524902
  endloop
endfacet
facet normal 7.930359165177648e-07 -1.1237153633424179e-07 0.9999999999996794
  outer loop
    vertex 96.53558560246027 3.4392564499846277 1.9999965484524902
    vertex 97.47492541212405 -7.883122561976318e-05 2.0000004668466107
    vertex 96.77396353635675 3.749916621764162 1.999996967554092
  endloop
endfacet
facet normal 7.930359165177648e-07 -1.1237153633424179e-07 0.9999999999996794
  outer loop
    vertex 96.77396353635675 3.749916621764162 1.999996967554092
    vertex 97.47492541212405 -7.883122561976318e-05 2.0000004668466107
    vertex 96.92381417011336 4.111688054109767 1.9999975644543424
  endloop
endfacet
facet normal 7.930359165177648e-07 -1.1237153633424179e-07 0.9999999999996794
  outer loop
    vertex 96.92381417011336 4.111688054109767 1.9999975644543424
    vertex 97.47492541212405 -7.883122561976318e-05 2.0000004668466107
    vertex 96.97492543067952 4.499916621762648 1.999998298475472
  endloop
endfacet
facet normal 7.930359165177648e-07 -1.1237153633424179e-07 0.9999999999996794
  outer loop
    vertex 96.97492543067952 4.499916621762648 1.999998298475472
    vertex 97.47492541212405 -7.883122561976318e-05 2.0000004668466107
    vertex 97.4749247178818 122.99991993361681 1.9999941154443823
  endloop
endfacet
facet normal 7.930359165177648e-07 -1.1237153633424179e-07 0.9999999999996794
  outer loop
    vertex 93.9749254306824 4.499916621756057 2.0000008546212467
    vertex 97.4749247178818 122.99991993361681 1.9999941154443823
    vertex 71.97492471788114 122.9999199364703 1.9999898164124732
  endloop
endfacet
facet normal 7.930359165177648e-07 -1.1237153633424179e-07 0.9999999999996794
  outer loop
    vertex 97.4749247178818 122.99991993361681 1.9999941154443823
    vertex 93.9749254306824 4.499916621756057 2.0000008546212467
    vertex 94.02603669124858 4.88814518940894 2.0000015886423537
  endloop
endfacet
facet normal 7.930359165177648e-07 -1.1237153633424179e-07 0.9999999999996794
  outer loop
    vertex 97.4749247178818 122.99991993361681 1.9999941154443823
    vertex 94.02603669124858 4.88814518940894 2.0000015886423537
    vertex 94.17588732500518 5.249916621754544 2.0000021855426287
  endloop
endfacet
facet normal 7.930359165177648e-07 -1.1237153633424179e-07 0.9999999999996794
  outer loop
    vertex 97.4749247178818 122.99991993361681 1.9999941154443823
    vertex 94.17588732500518 5.249916621754544 2.0000021855426287
    vertex 94.41426525890164 5.560576793534079 2.00000260464422
  endloop
endfacet
facet normal 7.930359165177648e-07 -1.1237153633424179e-07 0.9999999999996794
  outer loop
    vertex 97.4749247178818 122.99991993361681 1.9999941154443823
    vertex 94.41426525890164 5.560576793534079 2.00000260464422
    vertex 94.72492543068104 5.798954727430977 2.0000028173860755
  endloop
endfacet
facet normal 7.930359165177648e-07 -1.1237153633424179e-07 0.9999999999996794
  outer loop
    vertex 97.4749247178818 122.99991993361681 1.9999941154443823
    vertex 94.72492543068104 5.798954727430977 2.0000028173860755
    vertex 95.08669686302686 5.948805361188324 2.0000028092702338
  endloop
endfacet
facet normal 7.930359165177648e-07 -1.1237153633424179e-07 0.9999999999996794
  outer loop
    vertex 97.4749247178818 122.99991993361681 1.9999941154443823
    vertex 95.08669686302686 5.948805361188324 2.0000028092702338
    vertex 95.47492543068022 5.9999166217554425 2.0000025808497193
  endloop
endfacet
facet normal 7.930359165177648e-07 -1.1237153633424179e-07 0.9999999999996794
  outer loop
    vertex 97.4749247178818 122.99991993361681 1.9999941154443823
    vertex 95.47492543068022 5.9999166217554425 2.0000025808497193
    vertex 95.86315399833367 5.94880536119003 2.000002147691004
  endloop
endfacet
facet normal 7.930359165177648e-07 -1.1237153633424179e-07 0.9999999999996794
  outer loop
    vertex 97.4749247178818 122.99991993361681 1.9999941154443823
    vertex 95.86315399833367 5.94880536119003 2.000002147691004
    vertex 96.22492543067959 5.79895472743427 2.000001539313214
  endloop
endfacet
facet normal 7.930359165177648e-07 -1.1237153633424179e-07 0.9999999999996794
  outer loop
    vertex 97.4749247178818 122.99991993361681 1.9999941154443823
    vertex 96.22492543067959 5.79895472743427 2.000001539313214
    vertex 96.53558560245924 5.560576793538738 2.0000007971762077
  endloop
endfacet
facet normal 7.930359165177648e-07 -1.1237153633424179e-07 0.9999999999996794
  outer loop
    vertex 97.4749247178818 122.99991993361681 1.9999941154443823
    vertex 96.53558560245924 5.560576793538738 2.0000007971762077
    vertex 96.77396353635599 5.249916621760251 1.9999999718554442
  endloop
endfacet
facet normal 7.930359165177648e-07 -1.1237153633424179e-07 0.9999999999996794
  outer loop
    vertex 97.4749247178818 122.99991993361681 1.9999941154443823
    vertex 96.77396353635599 5.249916621760251 1.9999999718554442
    vertex 96.92381417011298 4.8881451894153045 1.99999911959516
  endloop
endfacet
facet normal 7.930359165177648e-07 -1.1237153633424179e-07 0.9999999999996794
  outer loop
    vertex 97.4749247178818 122.99991993361681 1.9999941154443823
    vertex 96.92381417011298 4.8881451894153045 1.99999911959516
    vertex 96.97492543067952 4.499916621762648 1.999998298475472
  endloop
endfacet
facet normal 7.930359165177648e-07 -1.1237153633424179e-07 0.9999999999996794
  outer loop
    vertex 1.8756375611772568e-06 8.904552354804806e-07 1.999999999999005
    vertex 1.4996212154725075 59.99991520803383 1.9998293465956123
    vertex -0.0003787659817893965 59.99993565956522 2.0000643334987203
  endloop
endfacet
facet normal 7.930359165177648e-07 -1.1237153633424179e-07 0.9999999999996794
  outer loop
    vertex 1.4996212154725075 59.99991520803383 1.9998293465956123
    vertex 1.8756375611772568e-06 8.904552354804806e-07 1.999999999999005
    vertex 1.000147116904203 4.500029474544571 2.0000813441994247
  endloop
endfacet
facet normal 7.930359165177648e-07 -1.1237153633424179e-07 0.9999999999996794
  outer loop
    vertex 1.4996212154725075 59.99991520803383 1.9998293465956123
    vertex 1.000147116904203 4.500029474544571 2.0000813441994247
    vertex 1.0512583774704964 4.888258042198228 2.000081315998261
  endloop
endfacet
facet normal 7.930359165177648e-07 -1.1237153633424179e-07 0.9999999999996794
  outer loop
    vertex 1.4996212154725075 59.99991520803383 1.9998293465956123
    vertex 1.0512583774704964 4.888258042198228 2.000081315998261
    vertex 1.2011090112274712 5.250029474544329 2.0000812324381845
  endloop
endfacet
facet normal 7.930359165177648e-07 -1.1237153633424179e-07 0.9999999999996794
  outer loop
    vertex 1.4996212154725075 59.99991520803383 1.9998293465956123
    vertex 1.2011090112274712 5.250029474544329 2.0000812324381845
    vertex 1.439486945124004 5.560689646324049 2.0000810992139737
  endloop
endfacet
facet normal 7.930359165177648e-07 -1.1237153633424179e-07 0.9999999999996794
  outer loop
    vertex 1.4996212154725075 59.99991520803383 1.9998293465956123
    vertex 1.439486945124004 5.560689646324049 2.0000810992139737
    vertex 1.750147116903863 5.799067580220808 2.000080925404718
  endloop
endfacet
facet normal 7.930359165177648e-07 -1.1237153633424179e-07 0.9999999999996794
  outer loop
    vertex 1.4996212154725075 59.99991520803383 1.9998293465956123
    vertex 1.750147116903863 5.799067580220808 2.000080925404718
    vertex 1.5002782340352185 122.99991926950779 1.9998968968481097
  endloop
endfacet
facet normal 7.930359165177648e-07 -1.1237153633424179e-07 0.9999999999996794
  outer loop
    vertex 1.5002782340352185 122.99991926950779 1.9998968968481097
    vertex 1.750147116903863 5.799067580220808 2.000080925404718
    vertex 41.97492471788368 122.9999199364694 1.999986141542348
  endloop
endfacet
facet normal 7.930359165177648e-07 -1.1237153633424179e-07 0.9999999999996794
  outer loop
    vertex 41.97492471788368 122.9999199364694 1.999986141542348
    vertex 1.750147116903863 5.799067580220808 2.000080925404718
    vertex 2.11191854924997 5.948918213977707 2.000080722855194
  endloop
endfacet
facet normal 7.930359165177648e-07 -1.1237153633424179e-07 0.9999999999996794
  outer loop
    vertex 41.97492471788368 122.9999199364694 1.999986141542348
    vertex 2.11191854924997 5.948918213977707 2.000080722855194
    vertex 2.500147116903309 6.000029474544087 2.0000805053685133
  endloop
endfacet
facet normal 7.930359165177648e-07 -1.1237153633424179e-07 0.9999999999996794
  outer loop
    vertex 41.97492471788368 122.9999199364694 1.999986141542348
    vertex 2.500147116903309 6.000029474544087 2.0000805053685133
    vertex 2.888375684556952 5.948918213977707 2.000080287766371
  endloop
endfacet
facet normal 7.930359165177648e-07 -1.1237153633424179e-07 0.9999999999996794
  outer loop
    vertex 41.97492471788368 122.9999199364694 1.999986141542348
    vertex 2.888375684556952 5.948918213977707 2.000080287766371
    vertex 3.250147116903229 5.79906758022081 2.0000800848780123
  endloop
endfacet
facet normal 7.930359165177648e-07 -1.1237153633424179e-07 0.9999999999996794
  outer loop
    vertex 41.97492471788368 122.9999199364694 1.999986141542348
    vertex 3.250147116903229 5.79906758022081 2.0000800848780123
    vertex 3.5608072886825806 5.56068964632405 2.00007991052937
  endloop
endfacet
facet normal 7.930359165177648e-07 -1.1237153633424179e-07 0.9999999999996794
  outer loop
    vertex 41.97492471788368 122.9999199364694 1.999986141542348
    vertex 3.5608072886825806 5.56068964632405 2.00007991052937
    vertex 3.7991852225794753 5.25002947454433 2.000079776602978
  endloop
endfacet
facet normal 7.930359165177648e-07 -1.1237153633424179e-07 0.9999999999996794
  outer loop
    vertex 41.97492471788368 122.9999199364694 1.999986141542348
    vertex 3.7991852225794753 5.25002947454433 2.000079776602978
    vertex 3.9490358563363257 4.8882580421982285 2.0000796922248925
  endloop
endfacet
facet normal 7.930359165177648e-07 -1.1237153633424179e-07 0.9999999999996794
  outer loop
    vertex 41.97492471788368 122.9999199364694 1.999986141542348
    vertex 3.9490358563363257 4.8882580421982285 2.0000796922248925
    vertex 4.000147116902833 4.500029474544574 2.0000796631457436
  endloop
endfacet
facet normal -0.9999999915800336 -1.062203805344638e-05 0.00012933330924040428
  outer loop
    vertex 1.8756375611772568e-06 8.904552354804806e-07 1.999999999999005
    vertex -0.0008942255427637812 59.999935660723445 -0.0017960225980419473
    vertex 0.0 0.0 0.0
  endloop
endfacet
facet normal -0.9999999915800336 -1.062203805344638e-05 0.00012933330924040428
  outer loop
    vertex -0.0008942255427637812 59.999935660723445 -0.0017960225980419473
    vertex 1.8756375611772568e-06 8.904552354804806e-07 1.999999999999005
    vertex -0.0003787659817893965 59.99993565956522 2.0000643334987203
  endloop
endfacet
facet normal -0.9999999876361979 1.3634354256924053e-05 0.00015665793540533133
  outer loop
    vertex 1.5002782340352185 122.99991926950779 1.9998968968481097
    vertex 1.4991057559115333 59.99991520919206 -0.0020310095011499443
    vertex 1.4996212154725075 59.99991520803383 1.9998293465956123
  endloop
endfacet
facet normal -0.9999999876361979 1.3634354256924053e-05 0.00015665793540533133
  outer loop
    vertex 1.4991057559115333 59.99991520919206 -0.0020310095011499443
    vertex 1.5002782340352185 122.99991926950779 1.9998968968481097
    vertex 1.5001670105722749 122.99991516419574 0.00010048558797307101
  endloop
endfacet
facet normal 1.3634353964886592e-05 0.9999999999070522 -2.932137687607883e-09
  outer loop
    vertex -0.0008942255427637812 59.999935660723445 -0.0017960225980419473
    vertex 1.4996212154725075 59.99991520803383 1.9998293465956123
    vertex 1.4991057559115333 59.99991520919206 -0.0020310095011499443
  endloop
endfacet
facet normal 1.3634353964886592e-05 0.9999999999070522 -2.932137687607883e-09
  outer loop
    vertex 1.4996212154725075 59.99991520803383 1.9998293465956123
    vertex -0.0008942255427637812 59.999935660723445 -0.0017960225980419473
    vertex -0.0003787659817893965 59.99993565956522 2.0000643334987203
  endloop
endfacet
endsolid Cover
