solid PumpController-AntennaCover
facet normal -0.0 1.0 -0.0
  outer loop
    vertex 3.86664625894172e-15 15.199999999999987 1.7999999999999963
    vertex 26.500000000000057 15.199999999999987 1.4575701756669445e-13
    vertex 1.126905827562995e-14 15.199999999999987 -5.111189249618064e-15
  endloop
endfacet
facet normal -0.0 1.0 -0.0
  outer loop
    vertex 26.500000000000057 15.199999999999987 1.4575701756669445e-13
    vertex 3.86664625894172e-15 15.199999999999987 1.7999999999999963
    vertex 26.500000000000057 15.199999999999987 1.0000000000001457
  endloop
endfacet
facet normal -0.0 1.0 -0.0
  outer loop
    vertex 26.500000000000057 15.199999999999987 1.0000000000001457
    vertex 3.86664625894172e-15 15.199999999999987 1.7999999999999963
    vertex 22.499999999999982 15.199999999999987 1.800000000000121
  endloop
endfacet
facet normal -1.0 4.522150198164802e-16 -1.664563548726192e-15
  outer loop
    vertex 3.86664625894172e-15 15.199999999999987 1.7999999999999963
    vertex -1.0807654561639135e-17 0.0 0.0
    vertex 1.3991755867123096e-15 -5.639932965095795e-15 1.7999999999999974
  endloop
endfacet
facet normal -1.0 4.522150198164802e-16 -1.664563548726192e-15
  outer loop
    vertex -1.0807654561639135e-17 0.0 0.0
    vertex 3.86664625894172e-15 15.199999999999987 1.7999999999999963
    vertex 1.126905827562995e-14 15.199999999999987 -5.111189249618064e-15
  endloop
endfacet
facet normal -5.538100842114904e-15 5.797628459185705e-17 1.0
  outer loop
    vertex 1.3991755867123096e-15 -5.639932965095795e-15 1.7999999999999974
    vertex 7.7999999999999226 4.2999999999999865 1.8000000000000818
    vertex 3.86664625894172e-15 15.199999999999987 1.7999999999999963
  endloop
endfacet
facet normal -5.538100842114904e-15 5.797628459185705e-17 1.0
  outer loop
    vertex 7.7999999999999226 4.2999999999999865 1.8000000000000818
    vertex 1.3991755867123096e-15 -5.639932965095795e-15 1.7999999999999974
    vertex 22.499999999999982 0.0 1.800000000000122
  endloop
endfacet
facet normal -5.538100842114904e-15 5.797628459185705e-17 1.0
  outer loop
    vertex 7.7999999999999226 4.2999999999999865 1.8000000000000818
    vertex 22.499999999999982 0.0 1.800000000000122
    vertex 10.356279817244793 4.2999999999999865 1.8000000000000818
  endloop
endfacet
facet normal -5.538100842114904e-15 5.797628459185705e-17 1.0
  outer loop
    vertex 10.356279817244793 4.2999999999999865 1.8000000000000818
    vertex 22.499999999999982 0.0 1.800000000000122
    vertex 12.643720182755057 4.2999999999999865 1.8000000000000844
  endloop
endfacet
facet normal -5.538100842114904e-15 5.797628459185705e-17 1.0
  outer loop
    vertex 12.643720182755057 4.2999999999999865 1.8000000000000844
    vertex 22.499999999999982 0.0 1.800000000000122
    vertex 15.799999999999928 4.2999999999999865 1.8000000000000826
  endloop
endfacet
facet normal -5.538100842114904e-15 5.797628459185705e-17 1.0
  outer loop
    vertex 15.799999999999928 4.2999999999999865 1.8000000000000826
    vertex 22.499999999999982 0.0 1.800000000000122
    vertex 16.230736434326104 4.328231957466413 1.8000000000000826
  endloop
endfacet
facet normal -5.538100842114904e-15 5.797628459185705e-17 1.0
  outer loop
    vertex 16.230736434326104 4.328231957466413 1.8000000000000826
    vertex 22.499999999999982 0.0 1.800000000000122
    vertex 16.654102848838257 4.4124447732460625 1.8000000000000826
  endloop
endfacet
facet normal -5.538100842114904e-15 5.797628459185705e-17 1.0
  outer loop
    vertex 16.654102848838257 4.4124447732460625 1.8000000000000826
    vertex 22.499999999999982 0.0 1.800000000000122
    vertex 17.062855326804737 4.551197542712743 1.8000000000000826
  endloop
endfacet
facet normal -5.538100842114904e-15 5.797628459185705e-17 1.0
  outer loop
    vertex 17.062855326804737 4.551197542712743 1.8000000000000826
    vertex 22.499999999999982 0.0 1.800000000000122
    vertex 17.449999999999942 4.742116167511343 1.8000000000000826
  endloop
endfacet
facet normal -5.538100842114904e-15 5.797628459185705e-17 1.0
  outer loop
    vertex 17.449999999999942 4.742116167511343 1.8000000000000826
    vertex 22.499999999999982 0.0 1.800000000000122
    vertex 17.808912715728724 4.981933977038916 1.8000000000000826
  endloop
endfacet
facet normal -5.538100842114904e-15 5.797628459185705e-17 1.0
  outer loop
    vertex 17.808912715728724 4.981933977038916 1.8000000000000826
    vertex 22.499999999999982 0.0 1.800000000000122
    vertex 18.133452377915553 5.266547622084388 1.8000000000000826
  endloop
endfacet
facet normal -5.538100842114904e-15 5.797628459185705e-17 1.0
  outer loop
    vertex 18.133452377915553 5.266547622084388 1.8000000000000826
    vertex 22.499999999999982 0.0 1.800000000000122
    vertex 18.418066022961025 5.591087284271219 1.8000000000000826
  endloop
endfacet
facet normal -5.538100842114904e-15 5.797628459185705e-17 1.0
  outer loop
    vertex 18.418066022961025 5.591087284271219 1.8000000000000826
    vertex 22.499999999999982 0.0 1.800000000000122
    vertex 18.6578838324886 5.949999999999999 1.8000000000000826
  endloop
endfacet
facet normal -5.538100842114904e-15 5.797628459185705e-17 1.0
  outer loop
    vertex 18.6578838324886 5.949999999999999 1.8000000000000826
    vertex 22.499999999999982 0.0 1.800000000000122
    vertex 18.8488024572872 6.337144673195205 1.8000000000000826
  endloop
endfacet
facet normal -5.538100842114904e-15 5.797628459185705e-17 1.0
  outer loop
    vertex 18.8488024572872 6.337144673195205 1.8000000000000826
    vertex 22.499999999999982 0.0 1.800000000000122
    vertex 18.98755522675388 6.745897151161686 1.8000000000000826
  endloop
endfacet
facet normal -5.538100842114904e-15 5.797628459185705e-17 1.0
  outer loop
    vertex 18.98755522675388 6.745897151161686 1.8000000000000826
    vertex 22.499999999999982 0.0 1.800000000000122
    vertex 19.071768042533527 7.169263565673839 1.8000000000000826
  endloop
endfacet
facet normal -5.538100842114904e-15 5.797628459185705e-17 1.0
  outer loop
    vertex 19.071768042533527 7.169263565673839 1.8000000000000826
    vertex 22.499999999999982 0.0 1.800000000000122
    vertex 19.099999999999955 7.600000000000013 1.8000000000000826
  endloop
endfacet
facet normal -5.538100842114904e-15 5.797628459185705e-17 1.0
  outer loop
    vertex 3.86664625894172e-15 15.199999999999987 1.7999999999999963
    vertex 7.7999999999999226 10.90000000000004 1.8000000000000818
    vertex 22.499999999999982 15.199999999999987 1.800000000000121
  endloop
endfacet
facet normal -5.538100842114904e-15 5.797628459185705e-17 1.0
  outer loop
    vertex 7.7999999999999226 10.90000000000004 1.8000000000000818
    vertex 3.86664625894172e-15 15.199999999999987 1.7999999999999963
    vertex 7.7999999999999226 4.2999999999999865 1.8000000000000818
  endloop
endfacet
facet normal -5.538100842114904e-15 5.797628459185705e-17 1.0
  outer loop
    vertex 22.499999999999982 15.199999999999987 1.800000000000121
    vertex 7.7999999999999226 10.90000000000004 1.8000000000000818
    vertex 10.356279817244795 10.90000000000004 1.8000000000000818
  endloop
endfacet
facet normal -5.538100842114904e-15 5.797628459185705e-17 1.0
  outer loop
    vertex 22.499999999999982 15.199999999999987 1.800000000000121
    vertex 10.356279817244795 10.90000000000004 1.8000000000000818
    vertex 12.643720182755056 10.90000000000004 1.8000000000000844
  endloop
endfacet
facet normal -5.538100842114904e-15 5.797628459185705e-17 1.0
  outer loop
    vertex 22.499999999999982 15.199999999999987 1.800000000000121
    vertex 12.643720182755056 10.90000000000004 1.8000000000000844
    vertex 15.799999999999928 10.90000000000004 1.8000000000000826
  endloop
endfacet
facet normal -5.538100842114904e-15 5.797628459185705e-17 1.0
  outer loop
    vertex 22.499999999999982 15.199999999999987 1.800000000000121
    vertex 15.799999999999928 10.90000000000004 1.8000000000000826
    vertex 16.230736434326104 10.871768042533613 1.8000000000000826
  endloop
endfacet
facet normal -5.538100842114904e-15 5.797628459185705e-17 1.0
  outer loop
    vertex 22.499999999999982 15.199999999999987 1.800000000000121
    vertex 16.230736434326104 10.871768042533613 1.8000000000000826
    vertex 16.654102848838253 10.787555226753964 1.8000000000000826
  endloop
endfacet
facet normal -5.538100842114904e-15 5.797628459185705e-17 1.0
  outer loop
    vertex 22.499999999999982 15.199999999999987 1.800000000000121
    vertex 16.654102848838253 10.787555226753964 1.8000000000000826
    vertex 17.062855326804737 10.648802457287283 1.8000000000000826
  endloop
endfacet
facet normal -5.538100842114904e-15 5.797628459185705e-17 1.0
  outer loop
    vertex 22.499999999999982 15.199999999999987 1.800000000000121
    vertex 17.062855326804737 10.648802457287283 1.8000000000000826
    vertex 17.449999999999942 10.457883832488683 1.8000000000000826
  endloop
endfacet
facet normal -5.538100842114904e-15 5.797628459185705e-17 1.0
  outer loop
    vertex 22.499999999999982 15.199999999999987 1.800000000000121
    vertex 17.449999999999942 10.457883832488683 1.8000000000000826
    vertex 17.808912715728724 10.21806602296111 1.8000000000000826
  endloop
endfacet
facet normal -5.538100842114904e-15 5.797628459185705e-17 1.0
  outer loop
    vertex 22.499999999999982 15.199999999999987 1.800000000000121
    vertex 17.808912715728724 10.21806602296111 1.8000000000000826
    vertex 18.133452377915553 9.93345237791564 1.8000000000000826
  endloop
endfacet
facet normal -5.538100842114904e-15 5.797628459185705e-17 1.0
  outer loop
    vertex 22.499999999999982 15.199999999999987 1.800000000000121
    vertex 18.133452377915553 9.93345237791564 1.8000000000000826
    vertex 18.418066022961025 9.608912715728808 1.8000000000000826
  endloop
endfacet
facet normal -5.538100842114904e-15 5.797628459185705e-17 1.0
  outer loop
    vertex 22.499999999999982 15.199999999999987 1.800000000000121
    vertex 18.418066022961025 9.608912715728808 1.8000000000000826
    vertex 18.6578838324886 9.250000000000027 1.8000000000000826
  endloop
endfacet
facet normal -5.538100842114904e-15 5.797628459185705e-17 1.0
  outer loop
    vertex 22.499999999999982 15.199999999999987 1.800000000000121
    vertex 18.6578838324886 9.250000000000027 1.8000000000000826
    vertex 18.8488024572872 8.86285532680482 1.8000000000000826
  endloop
endfacet
facet normal -5.538100842114904e-15 5.797628459185705e-17 1.0
  outer loop
    vertex 22.499999999999982 15.199999999999987 1.800000000000121
    vertex 18.8488024572872 8.86285532680482 1.8000000000000826
    vertex 18.98755522675388 8.454102848838339 1.8000000000000826
  endloop
endfacet
facet normal -5.538100842114904e-15 5.797628459185705e-17 1.0
  outer loop
    vertex 22.499999999999982 15.199999999999987 1.800000000000121
    vertex 18.98755522675388 8.454102848838339 1.8000000000000826
    vertex 19.071768042533527 8.030736434326187 1.8000000000000826
  endloop
endfacet
facet normal -5.538100842114904e-15 5.797628459185705e-17 1.0
  outer loop
    vertex 22.499999999999982 15.199999999999987 1.800000000000121
    vertex 19.071768042533527 8.030736434326187 1.8000000000000826
    vertex 19.099999999999955 7.600000000000013 1.8000000000000826
  endloop
endfacet
facet normal -5.538100842114904e-15 5.797628459185705e-17 1.0
  outer loop
    vertex 22.499999999999982 15.199999999999987 1.800000000000121
    vertex 19.099999999999955 7.600000000000013 1.8000000000000826
    vertex 22.499999999999982 0.0 1.800000000000122
  endloop
endfacet
facet normal 1.0587937018755949e-16 -1.0 -1.4478687680489293e-15
  outer loop
    vertex 26.500000000000057 0.0 1.462857612821722e-13
    vertex 1.3991755867123096e-15 -5.639932965095795e-15 1.7999999999999974
    vertex -1.0807654561639135e-17 0.0 0.0
  endloop
endfacet
facet normal 1.0587937018755949e-16 -1.0 -1.4478687680489293e-15
  outer loop
    vertex 1.3991755867123096e-15 -5.639932965095795e-15 1.7999999999999974
    vertex 26.500000000000057 0.0 1.462857612821722e-13
    vertex 26.500000000000057 0.0 1.000000000000146
  endloop
endfacet
facet normal 1.0587937018755949e-16 -1.0 -1.4478687680489293e-15
  outer loop
    vertex 1.3991755867123096e-15 -5.639932965095795e-15 1.7999999999999974
    vertex 26.500000000000057 0.0 1.000000000000146
    vertex 22.499999999999982 0.0 1.800000000000122
  endloop
endfacet
facet normal 0.19611613513817472 4.0375021745067687e-17 0.9805806756909222
  outer loop
    vertex 26.500000000000057 0.0 1.000000000000146
    vertex 22.499999999999982 15.199999999999987 1.800000000000121
    vertex 22.499999999999982 0.0 1.800000000000122
  endloop
endfacet
facet normal 0.19611613513817472 4.0375021745067687e-17 0.9805806756909222
  outer loop
    vertex 22.499999999999982 15.199999999999987 1.800000000000121
    vertex 26.500000000000057 0.0 1.000000000000146
    vertex 26.500000000000057 15.199999999999987 1.0000000000001457
  endloop
endfacet
facet normal 5.606678643367625e-15 -1.8552411069394337e-16 -1.0
  outer loop
    vertex 1.126905827562995e-14 15.199999999999987 -5.111189249618064e-15
    vertex 8.029942985191585 8.05684167277019 4.5824455341403335e-15
    vertex 7.999999999999922 7.6000000000000085 4.5824455341403335e-15
  endloop
endfacet
facet normal 5.606678643367625e-15 -1.8552411069394337e-16 -1.0
  outer loop
    vertex 8.029942985191585 8.05684167277019 4.5824455341403335e-15
    vertex 1.126905827562995e-14 15.199999999999987 -5.111189249618064e-15
    vertex 8.119259607988184 8.505866657858826 4.5824455341403335e-15
  endloop
endfacet
facet normal 5.606678643367625e-15 -1.8552411069394337e-16 -1.0
  outer loop
    vertex 8.119259607988184 8.505866657858826 4.5824455341403335e-15
    vertex 1.126905827562995e-14 15.199999999999987 -5.111189249618064e-15
    vertex 8.266421636210417 8.939392013277827 4.5824455341403335e-15
  endloop
endfacet
facet normal 5.606678643367625e-15 -1.8552411069394337e-16 -1.0
  outer loop
    vertex 8.266421636210417 8.939392013277827 4.5824455341403335e-15
    vertex 1.126905827562995e-14 15.199999999999987 -5.111189249618064e-15
    vertex 8.468911086754387 9.350000000000009 4.5824455341403335e-15
  endloop
endfacet
facet normal 5.606678643367625e-15 -1.8552411069394337e-16 -1.0
  outer loop
    vertex 8.468911086754387 9.350000000000009 4.5824455341403335e-15
    vertex 1.126905827562995e-14 15.199999999999987 -5.111189249618064e-15
    vertex 8.723263308980599 9.730665001530532 4.5824455341403335e-15
  endloop
endfacet
facet normal 5.606678643367625e-15 -1.8552411069394337e-16 -1.0
  outer loop
    vertex 8.723263308980599 9.730665001530532 4.5824455341403335e-15
    vertex 1.126905827562995e-14 15.199999999999987 -5.111189249618064e-15
    vertex 9.025126265847005 10.074873734152929 4.5824455341403335e-15
  endloop
endfacet
facet normal 5.606678643367625e-15 -1.8552411069394337e-16 -1.0
  outer loop
    vertex 9.025126265847005 10.074873734152929 4.5824455341403335e-15
    vertex 1.126905827562995e-14 15.199999999999987 -5.111189249618064e-15
    vertex 9.3693349984694 10.376736691019337 4.5824455341403335e-15
  endloop
endfacet
facet normal 5.606678643367625e-15 -1.8552411069394337e-16 -1.0
  outer loop
    vertex 9.3693349984694 10.376736691019337 4.5824455341403335e-15
    vertex 1.126905827562995e-14 15.199999999999987 -5.111189249618064e-15
    vertex 9.749999999999922 10.631088913245549 4.5824455341403335e-15
  endloop
endfacet
facet normal 5.606678643367625e-15 -1.8552411069394337e-16 -1.0
  outer loop
    vertex 9.749999999999922 10.631088913245549 4.5824455341403335e-15
    vertex 1.126905827562995e-14 15.199999999999987 -5.111189249618064e-15
    vertex 10.160607986722106 10.83357836378952 4.5824455341403335e-15
  endloop
endfacet
facet normal 5.606678643367625e-15 -1.8552411069394337e-16 -1.0
  outer loop
    vertex 10.160607986722106 10.83357836378952 4.5824455341403335e-15
    vertex 1.126905827562995e-14 15.199999999999987 -5.111189249618064e-15
    vertex 10.356279817244795 10.90000000000004 4.5824455341403335e-15
  endloop
endfacet
facet normal 5.606678643367625e-15 -1.8552411069394337e-16 -1.0
  outer loop
    vertex 10.356279817244795 10.90000000000004 4.5824455341403335e-15
    vertex 1.126905827562995e-14 15.199999999999987 -5.111189249618064e-15
    vertex 26.500000000000057 15.199999999999987 1.4575701756669445e-13
  endloop
endfacet
facet normal 5.606678643367625e-15 -1.8552411069394337e-16 -1.0
  outer loop
    vertex 10.356279817244795 10.90000000000004 4.5824455341403335e-15
    vertex 26.500000000000057 15.199999999999987 1.4575701756669445e-13
    vertex 12.643720182755056 10.90000000000004 4.5824455341403335e-15
  endloop
endfacet
facet normal 5.606678643367625e-15 -1.8552411069394337e-16 -1.0
  outer loop
    vertex 12.643720182755056 10.90000000000004 4.5824455341403335e-15
    vertex 26.500000000000057 15.199999999999987 1.4575701756669445e-13
    vertex 12.839392013277743 10.83357836378952 4.5824455341403335e-15
  endloop
endfacet
facet normal 5.606678643367625e-15 -1.8552411069394337e-16 -1.0
  outer loop
    vertex 12.839392013277743 10.83357836378952 4.5824455341403335e-15
    vertex 26.500000000000057 15.199999999999987 1.4575701756669445e-13
    vertex 13.249999999999927 10.631088913245549 4.5824455341403335e-15
  endloop
endfacet
facet normal 5.606678643367625e-15 -1.8552411069394337e-16 -1.0
  outer loop
    vertex 13.249999999999927 10.631088913245549 4.5824455341403335e-15
    vertex 26.500000000000057 15.199999999999987 1.4575701756669445e-13
    vertex 13.630665001530451 10.376736691019337 4.5824455341403335e-15
  endloop
endfacet
facet normal 5.606678643367625e-15 -1.8552411069394337e-16 -1.0
  outer loop
    vertex 13.630665001530451 10.376736691019337 4.5824455341403335e-15
    vertex 26.500000000000057 15.199999999999987 1.4575701756669445e-13
    vertex 13.974873734152846 10.074873734152929 4.5824455341403335e-15
  endloop
endfacet
facet normal 5.606678643367625e-15 -1.8552411069394337e-16 -1.0
  outer loop
    vertex 13.974873734152846 10.074873734152929 4.5824455341403335e-15
    vertex 26.500000000000057 15.199999999999987 1.4575701756669445e-13
    vertex 14.276736691019254 9.730665001530532 4.5824455341403335e-15
  endloop
endfacet
facet normal 5.606678643367625e-15 -1.8552411069394337e-16 -1.0
  outer loop
    vertex 14.276736691019254 9.730665001530532 4.5824455341403335e-15
    vertex 26.500000000000057 15.199999999999987 1.4575701756669445e-13
    vertex 14.531088913245465 9.350000000000009 4.5824455341403335e-15
  endloop
endfacet
facet normal 5.606678643367625e-15 -1.8552411069394337e-16 -1.0
  outer loop
    vertex 14.531088913245465 9.350000000000009 4.5824455341403335e-15
    vertex 26.500000000000057 15.199999999999987 1.4575701756669445e-13
    vertex 14.733578363789436 8.939392013277827 4.5824455341403335e-15
  endloop
endfacet
facet normal 5.606678643367625e-15 -1.8552411069394337e-16 -1.0
  outer loop
    vertex 14.733578363789436 8.939392013277827 4.5824455341403335e-15
    vertex 26.500000000000057 15.199999999999987 1.4575701756669445e-13
    vertex 14.880740392011669 8.505866657858833 4.5824455341403335e-15
  endloop
endfacet
facet normal 5.606678643367625e-15 -1.8552411069394337e-16 -1.0
  outer loop
    vertex 14.880740392011669 8.505866657858833 4.5824455341403335e-15
    vertex 26.500000000000057 15.199999999999987 1.4575701756669445e-13
    vertex 14.970057014808267 8.05684167277019 4.5824455341403335e-15
  endloop
endfacet
facet normal 5.606678643367625e-15 -1.8552411069394337e-16 -1.0
  outer loop
    vertex 14.970057014808267 8.05684167277019 4.5824455341403335e-15
    vertex 26.500000000000057 15.199999999999987 1.4575701756669445e-13
    vertex 14.99999999999993 7.6000000000000085 4.5824455341403335e-15
  endloop
endfacet
facet normal 5.606678643367625e-15 -1.8552411069394337e-16 -1.0
  outer loop
    vertex -1.0807654561639135e-17 0.0 0.0
    vertex 10.356279817244793 4.2999999999999865 4.5824455341403335e-15
    vertex 26.500000000000057 0.0 1.462857612821722e-13
  endloop
endfacet
facet normal 5.606678643367625e-15 -1.8552411069394337e-16 -1.0
  outer loop
    vertex 10.356279817244793 4.2999999999999865 4.5824455341403335e-15
    vertex -1.0807654561639135e-17 0.0 0.0
    vertex 10.160607986722109 4.366421636210502 4.5824455341403335e-15
  endloop
endfacet
facet normal 5.606678643367625e-15 -1.8552411069394337e-16 -1.0
  outer loop
    vertex 10.160607986722109 4.366421636210502 4.5824455341403335e-15
    vertex -1.0807654561639135e-17 0.0 0.0
    vertex 9.749999999999924 4.568911086754471 4.5824455341403335e-15
  endloop
endfacet
facet normal 5.606678643367625e-15 -1.8552411069394337e-16 -1.0
  outer loop
    vertex 9.749999999999924 4.568911086754471 4.5824455341403335e-15
    vertex -1.0807654561639135e-17 0.0 0.0
    vertex 9.369334998469403 4.823263308980683 4.5824455341403335e-15
  endloop
endfacet
facet normal 5.606678643367625e-15 -1.8552411069394337e-16 -1.0
  outer loop
    vertex 9.369334998469403 4.823263308980683 4.5824455341403335e-15
    vertex -1.0807654561639135e-17 0.0 0.0
    vertex 9.025126265847007 5.125126265847092 4.5824455341403335e-15
  endloop
endfacet
facet normal 5.606678643367625e-15 -1.8552411069394337e-16 -1.0
  outer loop
    vertex 9.025126265847007 5.125126265847092 4.5824455341403335e-15
    vertex -1.0807654561639135e-17 0.0 0.0
    vertex 1.126905827562995e-14 15.199999999999987 -5.111189249618064e-15
  endloop
endfacet
facet normal 5.606678643367625e-15 -1.8552411069394337e-16 -1.0
  outer loop
    vertex 9.025126265847007 5.125126265847092 4.5824455341403335e-15
    vertex 1.126905827562995e-14 15.199999999999987 -5.111189249618064e-15
    vertex 8.723263308980599 5.469334998469485 4.5824455341403335e-15
  endloop
endfacet
facet normal 5.606678643367625e-15 -1.8552411069394337e-16 -1.0
  outer loop
    vertex 8.723263308980599 5.469334998469485 4.5824455341403335e-15
    vertex 1.126905827562995e-14 15.199999999999987 -5.111189249618064e-15
    vertex 8.468911086754387 5.850000000000006 4.5824455341403335e-15
  endloop
endfacet
facet normal 5.606678643367625e-15 -1.8552411069394337e-16 -1.0
  outer loop
    vertex 8.468911086754387 5.850000000000006 4.5824455341403335e-15
    vertex 1.126905827562995e-14 15.199999999999987 -5.111189249618064e-15
    vertex 8.26642163621042 6.26060798672219 4.5824455341403335e-15
  endloop
endfacet
facet normal 5.606678643367625e-15 -1.8552411069394337e-16 -1.0
  outer loop
    vertex 8.26642163621042 6.26060798672219 4.5824455341403335e-15
    vertex 1.126905827562995e-14 15.199999999999987 -5.111189249618064e-15
    vertex 8.119259607988184 6.694133342141182 4.5824455341403335e-15
  endloop
endfacet
facet normal 5.606678643367625e-15 -1.8552411069394337e-16 -1.0
  outer loop
    vertex 8.119259607988184 6.694133342141182 4.5824455341403335e-15
    vertex 1.126905827562995e-14 15.199999999999987 -5.111189249618064e-15
    vertex 8.029942985191585 7.143158327229825 4.5824455341403335e-15
  endloop
endfacet
facet normal 5.606678643367625e-15 -1.8552411069394337e-16 -1.0
  outer loop
    vertex 8.029942985191585 7.143158327229825 4.5824455341403335e-15
    vertex 1.126905827562995e-14 15.199999999999987 -5.111189249618064e-15
    vertex 7.999999999999922 7.6000000000000085 4.5824455341403335e-15
  endloop
endfacet
facet normal 5.606678643367625e-15 -1.8552411069394337e-16 -1.0
  outer loop
    vertex 26.500000000000057 0.0 1.462857612821722e-13
    vertex 10.356279817244793 4.2999999999999865 4.5824455341403335e-15
    vertex 12.643720182755057 4.2999999999999865 4.5824455341403335e-15
  endloop
endfacet
facet normal 5.606678643367625e-15 -1.8552411069394337e-16 -1.0
  outer loop
    vertex 26.500000000000057 0.0 1.462857612821722e-13
    vertex 12.643720182755057 4.2999999999999865 4.5824455341403335e-15
    vertex 12.839392013277747 4.366421636210505 4.5824455341403335e-15
  endloop
endfacet
facet normal 5.606678643367625e-15 -1.8552411069394337e-16 -1.0
  outer loop
    vertex 26.500000000000057 0.0 1.462857612821722e-13
    vertex 12.839392013277747 4.366421636210505 4.5824455341403335e-15
    vertex 13.24999999999993 4.568911086754475 4.5824455341403335e-15
  endloop
endfacet
facet normal 5.606678643367625e-15 -1.8552411069394337e-16 -1.0
  outer loop
    vertex 26.500000000000057 0.0 1.462857612821722e-13
    vertex 13.24999999999993 4.568911086754475 4.5824455341403335e-15
    vertex 13.630665001530451 4.823263308980685 4.5824455341403335e-15
  endloop
endfacet
facet normal 5.606678643367625e-15 -1.8552411069394337e-16 -1.0
  outer loop
    vertex 26.500000000000057 0.0 1.462857612821722e-13
    vertex 13.630665001530451 4.823263308980685 4.5824455341403335e-15
    vertex 13.974873734152848 5.125126265847092 4.5824455341403335e-15
  endloop
endfacet
facet normal 5.606678643367625e-15 -1.8552411069394337e-16 -1.0
  outer loop
    vertex 26.500000000000057 0.0 1.462857612821722e-13
    vertex 13.974873734152848 5.125126265847092 4.5824455341403335e-15
    vertex 14.276736691019254 5.469334998469488 4.5824455341403335e-15
  endloop
endfacet
facet normal 5.606678643367625e-15 -1.8552411069394337e-16 -1.0
  outer loop
    vertex 26.500000000000057 0.0 1.462857612821722e-13
    vertex 14.276736691019254 5.469334998469488 4.5824455341403335e-15
    vertex 14.531088913245465 5.850000000000009 4.5824455341403335e-15
  endloop
endfacet
facet normal 5.606678643367625e-15 -1.8552411069394337e-16 -1.0
  outer loop
    vertex 26.500000000000057 0.0 1.462857612821722e-13
    vertex 14.531088913245465 5.850000000000009 4.5824455341403335e-15
    vertex 14.733578363789436 6.260607986722196 4.5824455341403335e-15
  endloop
endfacet
facet normal 5.606678643367625e-15 -1.8552411069394337e-16 -1.0
  outer loop
    vertex 26.500000000000057 0.0 1.462857612821722e-13
    vertex 14.733578363789436 6.260607986722196 4.5824455341403335e-15
    vertex 14.880740392011669 6.694133342141187 4.5824455341403335e-15
  endloop
endfacet
facet normal 5.606678643367625e-15 -1.8552411069394337e-16 -1.0
  outer loop
    vertex 26.500000000000057 0.0 1.462857612821722e-13
    vertex 14.880740392011669 6.694133342141187 4.5824455341403335e-15
    vertex 14.970057014808267 7.143158327229828 4.5824455341403335e-15
  endloop
endfacet
facet normal 5.606678643367625e-15 -1.8552411069394337e-16 -1.0
  outer loop
    vertex 26.500000000000057 0.0 1.462857612821722e-13
    vertex 14.970057014808267 7.143158327229828 4.5824455341403335e-15
    vertex 14.99999999999993 7.6000000000000085 4.5824455341403335e-15
  endloop
endfacet
facet normal 5.606678643367625e-15 -1.8552411069394337e-16 -1.0
  outer loop
    vertex 26.500000000000057 0.0 1.462857612821722e-13
    vertex 14.99999999999993 7.6000000000000085 4.5824455341403335e-15
    vertex 26.500000000000057 15.199999999999987 1.4575701756669445e-13
  endloop
endfacet
facet normal 1.0 -0.0 -0.0
  outer loop
    vertex 26.500000000000057 15.199999999999987 1.4575701756669445e-13
    vertex 26.500000000000057 0.0 1.000000000000146
    vertex 26.500000000000057 0.0 1.462857612821722e-13
  endloop
endfacet
facet normal 1.0 -0.0 -0.0
  outer loop
    vertex 26.500000000000057 0.0 1.000000000000146
    vertex 26.500000000000057 15.199999999999987 1.4575701756669445e-13
    vertex 26.500000000000057 15.199999999999987 1.0000000000001457
  endloop
endfacet
facet normal -0.0 1.0 -0.0
  outer loop
    vertex 7.7999999999999226 10.90000000000004 3.3000000000000815
    vertex 10.356279817244795 10.90000000000004 1.8000000000000818
    vertex 7.7999999999999226 10.90000000000004 1.8000000000000818
  endloop
endfacet
facet normal -0.0 1.0 -0.0
  outer loop
    vertex 10.356279817244795 10.90000000000004 1.8000000000000818
    vertex 7.7999999999999226 10.90000000000004 3.3000000000000815
    vertex 10.356279817244795 10.90000000000004 3.3000000000000815
  endloop
endfacet
facet normal -1.0 0.0 0.0
  outer loop
    vertex 7.7999999999999226 10.90000000000004 3.3000000000000815
    vertex 7.7999999999999226 4.2999999999999865 1.8000000000000818
    vertex 7.7999999999999226 4.2999999999999865 3.3000000000000815
  endloop
endfacet
facet normal -1.0 0.0 0.0
  outer loop
    vertex 7.7999999999999226 4.2999999999999865 1.8000000000000818
    vertex 7.7999999999999226 10.90000000000004 3.3000000000000815
    vertex 7.7999999999999226 10.90000000000004 1.8000000000000818
  endloop
endfacet
facet normal -0.0 -0.0 1.0
  outer loop
    vertex 7.7999999999999226 4.2999999999999865 3.3000000000000815
    vertex 7.999999999999922 7.6000000000000085 3.3000000000000815
    vertex 7.7999999999999226 10.90000000000004 3.3000000000000815
  endloop
endfacet
facet normal -0.0 -0.0 1.0
  outer loop
    vertex 7.999999999999922 7.6000000000000085 3.3000000000000815
    vertex 7.7999999999999226 4.2999999999999865 3.3000000000000815
    vertex 8.029942985191585 7.143158327229825 3.3000000000000815
  endloop
endfacet
facet normal -0.0 -0.0 1.0
  outer loop
    vertex 8.029942985191585 7.143158327229825 3.3000000000000815
    vertex 7.7999999999999226 4.2999999999999865 3.3000000000000815
    vertex 8.119259607988184 6.694133342141182 3.3000000000000815
  endloop
endfacet
facet normal -0.0 -0.0 1.0
  outer loop
    vertex 8.119259607988184 6.694133342141182 3.3000000000000815
    vertex 7.7999999999999226 4.2999999999999865 3.3000000000000815
    vertex 8.26642163621042 6.26060798672219 3.3000000000000815
  endloop
endfacet
facet normal -0.0 -0.0 1.0
  outer loop
    vertex 8.26642163621042 6.26060798672219 3.3000000000000815
    vertex 7.7999999999999226 4.2999999999999865 3.3000000000000815
    vertex 8.468911086754387 5.850000000000006 3.3000000000000815
  endloop
endfacet
facet normal -0.0 -0.0 1.0
  outer loop
    vertex 8.468911086754387 5.850000000000006 3.3000000000000815
    vertex 7.7999999999999226 4.2999999999999865 3.3000000000000815
    vertex 8.723263308980599 5.469334998469485 3.3000000000000815
  endloop
endfacet
facet normal -0.0 -0.0 1.0
  outer loop
    vertex 8.723263308980599 5.469334998469485 3.3000000000000815
    vertex 7.7999999999999226 4.2999999999999865 3.3000000000000815
    vertex 9.025126265847007 5.125126265847092 3.3000000000000815
  endloop
endfacet
facet normal -0.0 -0.0 1.0
  outer loop
    vertex 9.025126265847007 5.125126265847092 3.3000000000000815
    vertex 7.7999999999999226 4.2999999999999865 3.3000000000000815
    vertex 9.369334998469403 4.823263308980683 3.3000000000000815
  endloop
endfacet
facet normal -0.0 -0.0 1.0
  outer loop
    vertex 9.369334998469403 4.823263308980683 3.3000000000000815
    vertex 7.7999999999999226 4.2999999999999865 3.3000000000000815
    vertex 9.749999999999924 4.568911086754471 3.3000000000000815
  endloop
endfacet
facet normal -0.0 -0.0 1.0
  outer loop
    vertex 9.749999999999924 4.568911086754471 3.3000000000000815
    vertex 7.7999999999999226 4.2999999999999865 3.3000000000000815
    vertex 10.160607986722109 4.366421636210502 3.3000000000000815
  endloop
endfacet
facet normal -0.0 -0.0 1.0
  outer loop
    vertex 10.160607986722109 4.366421636210502 3.3000000000000815
    vertex 7.7999999999999226 4.2999999999999865 3.3000000000000815
    vertex 10.356279817244793 4.2999999999999865 3.3000000000000815
  endloop
endfacet
facet normal -0.0 -0.0 1.0
  outer loop
    vertex 7.7999999999999226 10.90000000000004 3.3000000000000815
    vertex 10.160607986722106 10.83357836378952 3.3000000000000815
    vertex 10.356279817244795 10.90000000000004 3.3000000000000815
  endloop
endfacet
facet normal -0.0 -0.0 1.0
  outer loop
    vertex 10.160607986722106 10.83357836378952 3.3000000000000815
    vertex 7.7999999999999226 10.90000000000004 3.3000000000000815
    vertex 9.749999999999922 10.631088913245549 3.3000000000000815
  endloop
endfacet
facet normal -0.0 -0.0 1.0
  outer loop
    vertex 9.749999999999922 10.631088913245549 3.3000000000000815
    vertex 7.7999999999999226 10.90000000000004 3.3000000000000815
    vertex 9.3693349984694 10.376736691019337 3.3000000000000815
  endloop
endfacet
facet normal -0.0 -0.0 1.0
  outer loop
    vertex 9.3693349984694 10.376736691019337 3.3000000000000815
    vertex 7.7999999999999226 10.90000000000004 3.3000000000000815
    vertex 9.025126265847005 10.074873734152929 3.3000000000000815
  endloop
endfacet
facet normal -0.0 -0.0 1.0
  outer loop
    vertex 9.025126265847005 10.074873734152929 3.3000000000000815
    vertex 7.7999999999999226 10.90000000000004 3.3000000000000815
    vertex 8.723263308980599 9.730665001530532 3.3000000000000815
  endloop
endfacet
facet normal -0.0 -0.0 1.0
  outer loop
    vertex 8.723263308980599 9.730665001530532 3.3000000000000815
    vertex 7.7999999999999226 10.90000000000004 3.3000000000000815
    vertex 8.468911086754387 9.350000000000009 3.3000000000000815
  endloop
endfacet
facet normal -0.0 -0.0 1.0
  outer loop
    vertex 8.468911086754387 9.350000000000009 3.3000000000000815
    vertex 7.7999999999999226 10.90000000000004 3.3000000000000815
    vertex 8.266421636210417 8.939392013277827 3.3000000000000815
  endloop
endfacet
facet normal -0.0 -0.0 1.0
  outer loop
    vertex 8.266421636210417 8.939392013277827 3.3000000000000815
    vertex 7.7999999999999226 10.90000000000004 3.3000000000000815
    vertex 8.119259607988184 8.505866657858826 3.3000000000000815
  endloop
endfacet
facet normal -0.0 -0.0 1.0
  outer loop
    vertex 8.119259607988184 8.505866657858826 3.3000000000000815
    vertex 7.7999999999999226 10.90000000000004 3.3000000000000815
    vertex 8.029942985191585 8.05684167277019 3.3000000000000815
  endloop
endfacet
facet normal -0.0 -0.0 1.0
  outer loop
    vertex 8.029942985191585 8.05684167277019 3.3000000000000815
    vertex 7.7999999999999226 10.90000000000004 3.3000000000000815
    vertex 7.999999999999922 7.6000000000000085 3.3000000000000815
  endloop
endfacet
facet normal 0.32143946530315576 -0.9469301294951078 2.033478750701764e-19
  outer loop
    vertex 10.356279817244795 10.90000000000004 1.8000000000000818
    vertex 10.160607986722106 10.83357836378952 4.5824455341403335e-15
    vertex 10.356279817244795 10.90000000000004 4.5824455341403335e-15
  endloop
endfacet
facet normal 0.32143946530315576 -0.9469301294951078 2.033478750701764e-19
  outer loop
    vertex 10.160607986722106 10.83357836378952 4.5824455341403335e-15
    vertex 10.356279817244795 10.90000000000004 1.8000000000000818
    vertex 10.160607986722106 10.83357836378952 3.3000000000000815
  endloop
endfacet
facet normal 0.32143946530315576 -0.9469301294951078 2.033478750701764e-19
  outer loop
    vertex 10.160607986722106 10.83357836378952 3.3000000000000815
    vertex 10.356279817244795 10.90000000000004 1.8000000000000818
    vertex 10.356279817244795 10.90000000000004 3.3000000000000815
  endloop
endfacet
facet normal 0.4422886902190095 -0.8968727415326843 -8.186548722861464e-32
  outer loop
    vertex 10.160607986722106 10.83357836378952 3.3000000000000815
    vertex 9.749999999999922 10.631088913245549 4.5824455341403335e-15
    vertex 10.160607986722106 10.83357836378952 4.5824455341403335e-15
  endloop
endfacet
facet normal 0.4422886902190095 -0.8968727415326843 -8.186548722861464e-32
  outer loop
    vertex 9.749999999999922 10.631088913245549 4.5824455341403335e-15
    vertex 10.160607986722106 10.83357836378952 3.3000000000000815
    vertex 9.749999999999922 10.631088913245549 3.3000000000000815
  endloop
endfacet
facet normal 0.5555702330196022 -0.8314696123025452 0.0
  outer loop
    vertex 9.749999999999922 10.631088913245549 3.3000000000000815
    vertex 9.3693349984694 10.376736691019337 4.5824455341403335e-15
    vertex 9.749999999999922 10.631088913245549 4.5824455341403335e-15
  endloop
endfacet
facet normal 0.5555702330196022 -0.8314696123025452 0.0
  outer loop
    vertex 9.3693349984694 10.376736691019337 4.5824455341403335e-15
    vertex 9.749999999999922 10.631088913245549 3.3000000000000815
    vertex 9.3693349984694 10.376736691019337 3.3000000000000815
  endloop
endfacet
facet normal 0.6593458151000693 -0.7518398074789773 0.0
  outer loop
    vertex 9.3693349984694 10.376736691019337 3.3000000000000815
    vertex 9.025126265847005 10.074873734152929 4.5824455341403335e-15
    vertex 9.3693349984694 10.376736691019337 4.5824455341403335e-15
  endloop
endfacet
facet normal 0.6593458151000693 -0.7518398074789773 0.0
  outer loop
    vertex 9.025126265847005 10.074873734152929 4.5824455341403335e-15
    vertex 9.3693349984694 10.376736691019337 3.3000000000000815
    vertex 9.025126265847005 10.074873734152929 3.3000000000000815
  endloop
endfacet
facet normal 0.7518398074789802 -0.6593458151000657 -0.0
  outer loop
    vertex 9.025126265847005 10.074873734152929 4.5824455341403335e-15
    vertex 8.723263308980599 9.730665001530532 3.3000000000000815
    vertex 8.723263308980599 9.730665001530532 4.5824455341403335e-15
  endloop
endfacet
facet normal 0.7518398074789802 -0.6593458151000657 -0.0
  outer loop
    vertex 8.723263308980599 9.730665001530532 3.3000000000000815
    vertex 9.025126265847005 10.074873734152929 4.5824455341403335e-15
    vertex 9.025126265847005 10.074873734152929 3.3000000000000815
  endloop
endfacet
facet normal 0.8314696123025472 -0.5555702330195994 -0.0
  outer loop
    vertex 8.723263308980599 9.730665001530532 4.5824455341403335e-15
    vertex 8.468911086754387 9.350000000000009 3.3000000000000815
    vertex 8.468911086754387 9.350000000000009 4.5824455341403335e-15
  endloop
endfacet
facet normal 0.8314696123025472 -0.5555702330195994 -0.0
  outer loop
    vertex 8.468911086754387 9.350000000000009 3.3000000000000815
    vertex 8.723263308980599 9.730665001530532 4.5824455341403335e-15
    vertex 8.723263308980599 9.730665001530532 3.3000000000000815
  endloop
endfacet
facet normal 0.8968727415326857 -0.442288690219007 -0.0
  outer loop
    vertex 8.468911086754387 9.350000000000009 4.5824455341403335e-15
    vertex 8.266421636210417 8.939392013277827 3.3000000000000815
    vertex 8.266421636210417 8.939392013277827 4.5824455341403335e-15
  endloop
endfacet
facet normal 0.8968727415326857 -0.442288690219007 -0.0
  outer loop
    vertex 8.266421636210417 8.939392013277827 3.3000000000000815
    vertex 8.468911086754387 9.350000000000009 4.5824455341403335e-15
    vertex 8.468911086754387 9.350000000000009 3.3000000000000815
  endloop
endfacet
facet normal 0.9469301294951082 -0.3214394653031541 2.0646622802423304e-18
  outer loop
    vertex 8.266421636210417 8.939392013277827 4.5824455341403335e-15
    vertex 8.119259607988184 8.505866657858826 3.3000000000000815
    vertex 8.119259607988184 8.505866657858826 4.5824455341403335e-15
  endloop
endfacet
facet normal 0.9469301294951082 -0.3214394653031541 2.0646622802423304e-18
  outer loop
    vertex 8.119259607988184 8.505866657858826 3.3000000000000815
    vertex 8.266421636210417 8.939392013277827 4.5824455341403335e-15
    vertex 8.266421636210417 8.939392013277827 3.3000000000000815
  endloop
endfacet
facet normal 0.98078528040323 -0.19509032201613097 -0.0
  outer loop
    vertex 8.119259607988184 8.505866657858826 4.5824455341403335e-15
    vertex 8.029942985191585 8.05684167277019 3.3000000000000815
    vertex 8.029942985191585 8.05684167277019 4.5824455341403335e-15
  endloop
endfacet
facet normal 0.98078528040323 -0.19509032201613097 -0.0
  outer loop
    vertex 8.029942985191585 8.05684167277019 3.3000000000000815
    vertex 8.119259607988184 8.505866657858826 4.5824455341403335e-15
    vertex 8.119259607988184 8.505866657858826 3.3000000000000815
  endloop
endfacet
facet normal 0.9978589232386036 -0.06540312923014249 -0.0
  outer loop
    vertex 8.029942985191585 8.05684167277019 4.5824455341403335e-15
    vertex 7.999999999999922 7.6000000000000085 3.3000000000000815
    vertex 7.999999999999922 7.6000000000000085 4.5824455341403335e-15
  endloop
endfacet
facet normal 0.9978589232386036 -0.06540312923014249 -0.0
  outer loop
    vertex 7.999999999999922 7.6000000000000085 3.3000000000000815
    vertex 8.029942985191585 8.05684167277019 4.5824455341403335e-15
    vertex 8.029942985191585 8.05684167277019 3.3000000000000815
  endloop
endfacet
facet normal 0.9978589232386036 0.06540312923014208 -0.0
  outer loop
    vertex 7.999999999999922 7.6000000000000085 4.5824455341403335e-15
    vertex 8.029942985191585 7.143158327229825 3.3000000000000815
    vertex 8.029942985191585 7.143158327229825 4.5824455341403335e-15
  endloop
endfacet
facet normal 0.9978589232386036 0.06540312923014208 -0.0
  outer loop
    vertex 8.029942985191585 7.143158327229825 3.3000000000000815
    vertex 7.999999999999922 7.6000000000000085 4.5824455341403335e-15
    vertex 7.999999999999922 7.6000000000000085 3.3000000000000815
  endloop
endfacet
facet normal 0.9807852804032304 0.19509032201612864 -0.0
  outer loop
    vertex 8.029942985191585 7.143158327229825 4.5824455341403335e-15
    vertex 8.119259607988184 6.694133342141182 3.3000000000000815
    vertex 8.119259607988184 6.694133342141182 4.5824455341403335e-15
  endloop
endfacet
facet normal 0.9807852804032304 0.19509032201612864 -0.0
  outer loop
    vertex 8.119259607988184 6.694133342141182 3.3000000000000815
    vertex 8.029942985191585 7.143158327229825 4.5824455341403335e-15
    vertex 8.029942985191585 7.143158327229825 3.3000000000000815
  endloop
endfacet
facet normal 0.9469301294951045 0.3214394653031653 -0.0
  outer loop
    vertex 8.119259607988184 6.694133342141182 4.5824455341403335e-15
    vertex 8.26642163621042 6.26060798672219 3.3000000000000815
    vertex 8.26642163621042 6.26060798672219 4.5824455341403335e-15
  endloop
endfacet
facet normal 0.9469301294951045 0.3214394653031653 -0.0
  outer loop
    vertex 8.26642163621042 6.26060798672219 3.3000000000000815
    vertex 8.119259607988184 6.694133342141182 4.5824455341403335e-15
    vertex 8.119259607988184 6.694133342141182 3.3000000000000815
  endloop
endfacet
facet normal 0.8968727415326893 0.44228869021899964 -0.0
  outer loop
    vertex 8.26642163621042 6.26060798672219 4.5824455341403335e-15
    vertex 8.468911086754387 5.850000000000006 3.3000000000000815
    vertex 8.468911086754387 5.850000000000006 4.5824455341403335e-15
  endloop
endfacet
facet normal 0.8968727415326893 0.44228869021899964 -0.0
  outer loop
    vertex 8.468911086754387 5.850000000000006 3.3000000000000815
    vertex 8.26642163621042 6.26060798672219 4.5824455341403335e-15
    vertex 8.26642163621042 6.26060798672219 3.3000000000000815
  endloop
endfacet
facet normal 0.8314696123025452 0.5555702330196022 -0.0
  outer loop
    vertex 8.468911086754387 5.850000000000006 4.5824455341403335e-15
    vertex 8.723263308980599 5.469334998469485 3.3000000000000815
    vertex 8.723263308980599 5.469334998469485 4.5824455341403335e-15
  endloop
endfacet
facet normal 0.8314696123025452 0.5555702330196022 -0.0
  outer loop
    vertex 8.723263308980599 5.469334998469485 3.3000000000000815
    vertex 8.468911086754387 5.850000000000006 4.5824455341403335e-15
    vertex 8.468911086754387 5.850000000000006 3.3000000000000815
  endloop
endfacet
facet normal 0.7518398074789746 0.6593458151000723 -0.0
  outer loop
    vertex 8.723263308980599 5.469334998469485 4.5824455341403335e-15
    vertex 9.025126265847007 5.125126265847092 3.3000000000000815
    vertex 9.025126265847007 5.125126265847092 4.5824455341403335e-15
  endloop
endfacet
facet normal 0.7518398074789746 0.6593458151000723 -0.0
  outer loop
    vertex 9.025126265847007 5.125126265847092 3.3000000000000815
    vertex 8.723263308980599 5.469334998469485 4.5824455341403335e-15
    vertex 8.723263308980599 5.469334998469485 3.3000000000000815
  endloop
endfacet
facet normal 0.6593458151000693 0.7518398074789773 -0.0
  outer loop
    vertex 9.025126265847007 5.125126265847092 3.3000000000000815
    vertex 9.369334998469403 4.823263308980683 4.5824455341403335e-15
    vertex 9.025126265847007 5.125126265847092 4.5824455341403335e-15
  endloop
endfacet
facet normal 0.6593458151000693 0.7518398074789773 -0.0
  outer loop
    vertex 9.369334998469403 4.823263308980683 4.5824455341403335e-15
    vertex 9.025126265847007 5.125126265847092 3.3000000000000815
    vertex 9.369334998469403 4.823263308980683 3.3000000000000815
  endloop
endfacet
facet normal 0.5555702330196022 0.8314696123025452 -0.0
  outer loop
    vertex 9.369334998469403 4.823263308980683 3.3000000000000815
    vertex 9.749999999999924 4.568911086754471 4.5824455341403335e-15
    vertex 9.369334998469403 4.823263308980683 4.5824455341403335e-15
  endloop
endfacet
facet normal 0.5555702330196022 0.8314696123025452 -0.0
  outer loop
    vertex 9.749999999999924 4.568911086754471 4.5824455341403335e-15
    vertex 9.369334998469403 4.823263308980683 3.3000000000000815
    vertex 9.749999999999924 4.568911086754471 3.3000000000000815
  endloop
endfacet
facet normal 0.4422886902190045 0.8968727415326868 -0.0
  outer loop
    vertex 9.749999999999924 4.568911086754471 3.3000000000000815
    vertex 10.160607986722109 4.366421636210502 4.5824455341403335e-15
    vertex 9.749999999999924 4.568911086754471 4.5824455341403335e-15
  endloop
endfacet
facet normal 0.4422886902190045 0.8968727415326868 -0.0
  outer loop
    vertex 10.160607986722109 4.366421636210502 4.5824455341403335e-15
    vertex 9.749999999999924 4.568911086754471 3.3000000000000815
    vertex 10.160607986722109 4.366421636210502 3.3000000000000815
  endloop
endfacet
facet normal 0.3214394653031519 0.946930129495109 -7.727219252667158e-19
  outer loop
    vertex 10.160607986722109 4.366421636210502 3.3000000000000815
    vertex 10.356279817244793 4.2999999999999865 4.5824455341403335e-15
    vertex 10.160607986722109 4.366421636210502 4.5824455341403335e-15
  endloop
endfacet
facet normal 0.3214394653031519 0.946930129495109 -7.727219252667158e-19
  outer loop
    vertex 10.356279817244793 4.2999999999999865 4.5824455341403335e-15
    vertex 10.160607986722109 4.366421636210502 3.3000000000000815
    vertex 10.356279817244793 4.2999999999999865 1.8000000000000818
  endloop
endfacet
facet normal 0.3214394653031519 0.946930129495109 -7.727219252667158e-19
  outer loop
    vertex 10.356279817244793 4.2999999999999865 1.8000000000000818
    vertex 10.160607986722109 4.366421636210502 3.3000000000000815
    vertex 10.356279817244793 4.2999999999999865 3.3000000000000815
  endloop
endfacet
facet normal -0.0 1.0 -0.0
  outer loop
    vertex 10.356279817244793 4.2999999999999865 1.8000000000000818
    vertex 12.643720182755057 4.2999999999999865 4.5824455341403335e-15
    vertex 10.356279817244793 4.2999999999999865 4.5824455341403335e-15
  endloop
endfacet
facet normal -0.0 1.0 -0.0
  outer loop
    vertex 12.643720182755057 4.2999999999999865 4.5824455341403335e-15
    vertex 10.356279817244793 4.2999999999999865 1.8000000000000818
    vertex 12.643720182755057 4.2999999999999865 1.8000000000000844
  endloop
endfacet
facet normal -0.32143946530315776 0.946930129495107 -3.753954304544249e-19
  outer loop
    vertex 12.643720182755057 4.2999999999999865 1.8000000000000844
    vertex 12.839392013277747 4.366421636210505 4.5824455341403335e-15
    vertex 12.643720182755057 4.2999999999999865 4.5824455341403335e-15
  endloop
endfacet
facet normal -0.32143946530315776 0.946930129495107 -3.753954304544249e-19
  outer loop
    vertex 12.839392013277747 4.366421636210505 4.5824455341403335e-15
    vertex 12.643720182755057 4.2999999999999865 1.8000000000000844
    vertex 12.839392013277747 4.366421636210505 3.3000000000000798
  endloop
endfacet
facet normal -0.32143946530315776 0.946930129495107 -3.753954304544249e-19
  outer loop
    vertex 12.839392013277747 4.366421636210505 3.3000000000000798
    vertex 12.643720182755057 4.2999999999999865 1.8000000000000844
    vertex 12.643720182755057 4.2999999999999865 3.3000000000000815
  endloop
endfacet
facet normal -0.44228869021900463 0.8968727415326868 4.0371590576615946e-32
  outer loop
    vertex 12.839392013277747 4.366421636210505 3.3000000000000798
    vertex 13.24999999999993 4.568911086754475 4.5824455341403335e-15
    vertex 12.839392013277747 4.366421636210505 4.5824455341403335e-15
  endloop
endfacet
facet normal -0.44228869021900463 0.8968727415326868 4.0371590576615946e-32
  outer loop
    vertex 13.24999999999993 4.568911086754475 4.5824455341403335e-15
    vertex 12.839392013277747 4.366421636210505 3.3000000000000798
    vertex 13.24999999999993 4.568911086754475 3.3000000000000798
  endloop
endfacet
facet normal -0.5555702330196022 0.8314696123025452 -5.071179634486331e-32
  outer loop
    vertex 13.24999999999993 4.568911086754475 3.3000000000000798
    vertex 13.630665001530451 4.823263308980685 4.5824455341403335e-15
    vertex 13.24999999999993 4.568911086754475 4.5824455341403335e-15
  endloop
endfacet
facet normal -0.5555702330196022 0.8314696123025452 -5.071179634486331e-32
  outer loop
    vertex 13.630665001530451 4.823263308980685 4.5824455341403335e-15
    vertex 13.24999999999993 4.568911086754475 3.3000000000000798
    vertex 13.630665001530451 4.823263308980685 3.3000000000000798
  endloop
endfacet
facet normal -0.6593458151000657 0.7518398074789802 -0.0
  outer loop
    vertex 13.630665001530451 4.823263308980685 3.3000000000000798
    vertex 13.974873734152848 5.125126265847092 4.5824455341403335e-15
    vertex 13.630665001530451 4.823263308980685 4.5824455341403335e-15
  endloop
endfacet
facet normal -0.6593458151000657 0.7518398074789802 -0.0
  outer loop
    vertex 13.974873734152848 5.125126265847092 4.5824455341403335e-15
    vertex 13.630665001530451 4.823263308980685 3.3000000000000798
    vertex 13.974873734152848 5.125126265847092 3.3000000000000798
  endloop
endfacet
facet normal -0.7518398074789802 0.6593458151000657 0.0
  outer loop
    vertex 14.276736691019254 5.469334998469488 3.3000000000000798
    vertex 13.974873734152848 5.125126265847092 4.5824455341403335e-15
    vertex 13.974873734152848 5.125126265847092 3.3000000000000798
  endloop
endfacet
facet normal -0.7518398074789802 0.6593458151000657 0.0
  outer loop
    vertex 13.974873734152848 5.125126265847092 4.5824455341403335e-15
    vertex 14.276736691019254 5.469334998469488 3.3000000000000798
    vertex 14.276736691019254 5.469334998469488 4.5824455341403335e-15
  endloop
endfacet
facet normal -0.8314696123025452 0.5555702330196022 0.0
  outer loop
    vertex 14.531088913245465 5.850000000000009 3.3000000000000798
    vertex 14.276736691019254 5.469334998469488 4.5824455341403335e-15
    vertex 14.276736691019254 5.469334998469488 3.3000000000000798
  endloop
endfacet
facet normal -0.8314696123025452 0.5555702330196022 0.0
  outer loop
    vertex 14.276736691019254 5.469334998469488 4.5824455341403335e-15
    vertex 14.531088913245465 5.850000000000009 3.3000000000000798
    vertex 14.531088913245465 5.850000000000009 4.5824455341403335e-15
  endloop
endfacet
facet normal -0.896872741532688 0.4422886902190022 0.0
  outer loop
    vertex 14.733578363789436 6.260607986722196 3.3000000000000798
    vertex 14.531088913245465 5.850000000000009 4.5824455341403335e-15
    vertex 14.531088913245465 5.850000000000009 3.3000000000000798
  endloop
endfacet
facet normal -0.896872741532688 0.4422886902190022 0.0
  outer loop
    vertex 14.531088913245465 5.850000000000009 4.5824455341403335e-15
    vertex 14.733578363789436 6.260607986722196 3.3000000000000798
    vertex 14.733578363789436 6.260607986722196 4.5824455341403335e-15
  endloop
endfacet
facet normal -0.9469301294951065 0.3214394653031598 1.5205747360156713e-18
  outer loop
    vertex 14.880740392011669 6.694133342141187 3.3000000000000798
    vertex 14.733578363789436 6.260607986722196 4.5824455341403335e-15
    vertex 14.733578363789436 6.260607986722196 3.3000000000000798
  endloop
endfacet
facet normal -0.9469301294951065 0.3214394653031598 1.5205747360156713e-18
  outer loop
    vertex 14.733578363789436 6.260607986722196 4.5824455341403335e-15
    vertex 14.880740392011669 6.694133342141187 3.3000000000000798
    vertex 14.880740392011669 6.694133342141187 4.5824455341403335e-15
  endloop
endfacet
facet normal -0.9807852804032302 0.19509032201612983 -8.95249249181667e-32
  outer loop
    vertex 14.970057014808267 7.143158327229828 3.3000000000000798
    vertex 14.880740392011669 6.694133342141187 4.5824455341403335e-15
    vertex 14.880740392011669 6.694133342141187 3.3000000000000798
  endloop
endfacet
facet normal -0.9807852804032302 0.19509032201612983 -8.95249249181667e-32
  outer loop
    vertex 14.880740392011669 6.694133342141187 4.5824455341403335e-15
    vertex 14.970057014808267 7.143158327229828 3.3000000000000798
    vertex 14.970057014808267 7.143158327229828 4.5824455341403335e-15
  endloop
endfacet
facet normal -0.9978589232386036 0.06540312923014249 0.0
  outer loop
    vertex 14.99999999999993 7.6000000000000085 3.3000000000000798
    vertex 14.970057014808267 7.143158327229828 4.5824455341403335e-15
    vertex 14.970057014808267 7.143158327229828 3.3000000000000798
  endloop
endfacet
facet normal -0.9978589232386036 0.06540312923014249 0.0
  outer loop
    vertex 14.970057014808267 7.143158327229828 4.5824455341403335e-15
    vertex 14.99999999999993 7.6000000000000085 3.3000000000000798
    vertex 14.99999999999993 7.6000000000000085 4.5824455341403335e-15
  endloop
endfacet
facet normal -0.9978589232386036 -0.06540312923014249 0.0
  outer loop
    vertex 14.970057014808267 8.05684167277019 3.3000000000000798
    vertex 14.99999999999993 7.6000000000000085 4.5824455341403335e-15
    vertex 14.99999999999993 7.6000000000000085 3.3000000000000798
  endloop
endfacet
facet normal -0.9978589232386036 -0.06540312923014249 0.0
  outer loop
    vertex 14.99999999999993 7.6000000000000085 4.5824455341403335e-15
    vertex 14.970057014808267 8.05684167277019 3.3000000000000798
    vertex 14.970057014808267 8.05684167277019 4.5824455341403335e-15
  endloop
endfacet
facet normal -0.9807852804032304 -0.19509032201612864 -8.952492491816671e-32
  outer loop
    vertex 14.880740392011669 8.505866657858833 3.3000000000000798
    vertex 14.970057014808267 8.05684167277019 4.5824455341403335e-15
    vertex 14.970057014808267 8.05684167277019 3.3000000000000798
  endloop
endfacet
facet normal -0.9807852804032304 -0.19509032201612864 -8.952492491816671e-32
  outer loop
    vertex 14.970057014808267 8.05684167277019 4.5824455341403335e-15
    vertex 14.880740392011669 8.505866657858833 3.3000000000000798
    vertex 14.880740392011669 8.505866657858833 4.5824455341403335e-15
  endloop
endfacet
facet normal -0.946930129495107 -0.32143946530315787 1.5205747360156723e-18
  outer loop
    vertex 14.733578363789436 8.939392013277827 3.3000000000000798
    vertex 14.880740392011669 8.505866657858833 4.5824455341403335e-15
    vertex 14.880740392011669 8.505866657858833 3.3000000000000798
  endloop
endfacet
facet normal -0.946930129495107 -0.32143946530315787 1.5205747360156723e-18
  outer loop
    vertex 14.880740392011669 8.505866657858833 4.5824455341403335e-15
    vertex 14.733578363789436 8.939392013277827 3.3000000000000798
    vertex 14.733578363789436 8.939392013277827 4.5824455341403335e-15
  endloop
endfacet
facet normal -0.8968727415326857 -0.442288690219007 0.0
  outer loop
    vertex 14.531088913245465 9.350000000000009 3.3000000000000798
    vertex 14.733578363789436 8.939392013277827 4.5824455341403335e-15
    vertex 14.733578363789436 8.939392013277827 3.3000000000000798
  endloop
endfacet
facet normal -0.8968727415326857 -0.442288690219007 0.0
  outer loop
    vertex 14.733578363789436 8.939392013277827 4.5824455341403335e-15
    vertex 14.531088913245465 9.350000000000009 3.3000000000000798
    vertex 14.531088913245465 9.350000000000009 4.5824455341403335e-15
  endloop
endfacet
facet normal -0.8314696123025472 -0.5555702330195994 0.0
  outer loop
    vertex 14.276736691019254 9.730665001530532 3.3000000000000798
    vertex 14.531088913245465 9.350000000000009 4.5824455341403335e-15
    vertex 14.531088913245465 9.350000000000009 3.3000000000000798
  endloop
endfacet
facet normal -0.8314696123025472 -0.5555702330195994 0.0
  outer loop
    vertex 14.531088913245465 9.350000000000009 4.5824455341403335e-15
    vertex 14.276736691019254 9.730665001530532 3.3000000000000798
    vertex 14.276736691019254 9.730665001530532 4.5824455341403335e-15
  endloop
endfacet
facet normal -0.7518398074789773 -0.6593458151000693 -6.862705187354752e-32
  outer loop
    vertex 13.974873734152846 10.074873734152929 3.3000000000000798
    vertex 14.276736691019254 9.730665001530532 4.5824455341403335e-15
    vertex 14.276736691019254 9.730665001530532 3.3000000000000798
  endloop
endfacet
facet normal -0.7518398074789773 -0.6593458151000693 -6.862705187354752e-32
  outer loop
    vertex 14.276736691019254 9.730665001530532 4.5824455341403335e-15
    vertex 13.974873734152846 10.074873734152929 3.3000000000000798
    vertex 13.974873734152846 10.074873734152929 4.5824455341403335e-15
  endloop
endfacet
facet normal -0.6593458151000723 -0.7518398074789745 8.442742655862807e-33
  outer loop
    vertex 13.974873734152846 10.074873734152929 3.3000000000000798
    vertex 13.630665001530451 10.376736691019337 4.5824455341403335e-15
    vertex 13.974873734152846 10.074873734152929 4.5824455341403335e-15
  endloop
endfacet
facet normal -0.6593458151000723 -0.7518398074789745 8.442742655862807e-33
  outer loop
    vertex 13.630665001530451 10.376736691019337 4.5824455341403335e-15
    vertex 13.974873734152846 10.074873734152929 3.3000000000000798
    vertex 13.630665001530451 10.376736691019337 3.3000000000000798
  endloop
endfacet
facet normal -0.5555702330195994 -0.8314696123025472 0.0
  outer loop
    vertex 13.630665001530451 10.376736691019337 3.3000000000000798
    vertex 13.249999999999927 10.631088913245549 4.5824455341403335e-15
    vertex 13.630665001530451 10.376736691019337 4.5824455341403335e-15
  endloop
endfacet
facet normal -0.5555702330195994 -0.8314696123025472 0.0
  outer loop
    vertex 13.249999999999927 10.631088913245549 4.5824455341403335e-15
    vertex 13.630665001530451 10.376736691019337 3.3000000000000798
    vertex 13.249999999999927 10.631088913245549 3.3000000000000798
  endloop
endfacet
facet normal -0.4422886902190095 -0.8968727415326843 -4.037159057661639e-32
  outer loop
    vertex 13.249999999999927 10.631088913245549 3.3000000000000798
    vertex 12.839392013277743 10.83357836378952 4.5824455341403335e-15
    vertex 13.249999999999927 10.631088913245549 4.5824455341403335e-15
  endloop
endfacet
facet normal -0.4422886902190095 -0.8968727415326843 -4.037159057661639e-32
  outer loop
    vertex 12.839392013277743 10.83357836378952 4.5824455341403335e-15
    vertex 13.249999999999927 10.631088913245549 3.3000000000000798
    vertex 12.839392013277743 10.83357836378952 3.3000000000000798
  endloop
endfacet
facet normal -0.32143946530315776 -0.946930129495107 -3.753954304544249e-19
  outer loop
    vertex 12.839392013277743 10.83357836378952 3.3000000000000798
    vertex 12.643720182755056 10.90000000000004 4.5824455341403335e-15
    vertex 12.839392013277743 10.83357836378952 4.5824455341403335e-15
  endloop
endfacet
facet normal -0.32143946530315776 -0.946930129495107 -3.753954304544249e-19
  outer loop
    vertex 12.643720182755056 10.90000000000004 4.5824455341403335e-15
    vertex 12.839392013277743 10.83357836378952 3.3000000000000798
    vertex 12.643720182755056 10.90000000000004 1.8000000000000844
  endloop
endfacet
facet normal -0.32143946530315776 -0.946930129495107 -3.753954304544249e-19
  outer loop
    vertex 12.643720182755056 10.90000000000004 1.8000000000000844
    vertex 12.839392013277743 10.83357836378952 3.3000000000000798
    vertex 12.643720182755056 10.90000000000004 3.3000000000000815
  endloop
endfacet
facet normal 0.0 -1.0 0.0
  outer loop
    vertex 12.643720182755056 10.90000000000004 1.8000000000000844
    vertex 10.356279817244795 10.90000000000004 4.5824455341403335e-15
    vertex 12.643720182755056 10.90000000000004 4.5824455341403335e-15
  endloop
endfacet
facet normal 0.0 -1.0 0.0
  outer loop
    vertex 10.356279817244795 10.90000000000004 4.5824455341403335e-15
    vertex 12.643720182755056 10.90000000000004 1.8000000000000844
    vertex 10.356279817244795 10.90000000000004 1.8000000000000818
  endloop
endfacet
facet normal 0.0 -1.0 0.0
  outer loop
    vertex 10.356279817244793 4.2999999999999865 3.3000000000000815
    vertex 7.7999999999999226 4.2999999999999865 1.8000000000000818
    vertex 10.356279817244793 4.2999999999999865 1.8000000000000818
  endloop
endfacet
facet normal 0.0 -1.0 0.0
  outer loop
    vertex 7.7999999999999226 4.2999999999999865 1.8000000000000818
    vertex 10.356279817244793 4.2999999999999865 3.3000000000000815
    vertex 7.7999999999999226 4.2999999999999865 3.3000000000000815
  endloop
endfacet
facet normal -3.413781809830957e-18 -1.0752081622389967e-31 1.0
  outer loop
    vertex 15.799999999999928 4.2999999999999865 3.3000000000000798
    vertex 12.839392013277747 4.366421636210505 3.3000000000000798
    vertex 12.643720182755057 4.2999999999999865 3.3000000000000815
  endloop
endfacet
facet normal -3.413781809830957e-18 -1.0752081622389967e-31 1.0
  outer loop
    vertex 12.839392013277747 4.366421636210505 3.3000000000000798
    vertex 15.799999999999928 4.2999999999999865 3.3000000000000798
    vertex 13.24999999999993 4.568911086754475 3.3000000000000798
  endloop
endfacet
facet normal -3.413781809830957e-18 -1.0752081622389967e-31 1.0
  outer loop
    vertex 13.24999999999993 4.568911086754475 3.3000000000000798
    vertex 15.799999999999928 4.2999999999999865 3.3000000000000798
    vertex 13.630665001530451 4.823263308980685 3.3000000000000798
  endloop
endfacet
facet normal -3.413781809830957e-18 -1.0752081622389967e-31 1.0
  outer loop
    vertex 13.630665001530451 4.823263308980685 3.3000000000000798
    vertex 15.799999999999928 4.2999999999999865 3.3000000000000798
    vertex 13.974873734152848 5.125126265847092 3.3000000000000798
  endloop
endfacet
facet normal -3.413781809830957e-18 -1.0752081622389967e-31 1.0
  outer loop
    vertex 13.974873734152848 5.125126265847092 3.3000000000000798
    vertex 15.799999999999928 4.2999999999999865 3.3000000000000798
    vertex 14.276736691019254 5.469334998469488 3.3000000000000798
  endloop
endfacet
facet normal -3.413781809830957e-18 -1.0752081622389967e-31 1.0
  outer loop
    vertex 14.276736691019254 5.469334998469488 3.3000000000000798
    vertex 15.799999999999928 4.2999999999999865 3.3000000000000798
    vertex 14.531088913245465 5.850000000000009 3.3000000000000798
  endloop
endfacet
facet normal -3.413781809830957e-18 -1.0752081622389967e-31 1.0
  outer loop
    vertex 14.531088913245465 5.850000000000009 3.3000000000000798
    vertex 15.799999999999928 4.2999999999999865 3.3000000000000798
    vertex 14.733578363789436 6.260607986722196 3.3000000000000798
  endloop
endfacet
facet normal -3.413781809830957e-18 -1.0752081622389967e-31 1.0
  outer loop
    vertex 14.733578363789436 6.260607986722196 3.3000000000000798
    vertex 15.799999999999928 4.2999999999999865 3.3000000000000798
    vertex 14.880740392011669 6.694133342141187 3.3000000000000798
  endloop
endfacet
facet normal -3.413781809830957e-18 -1.0752081622389967e-31 1.0
  outer loop
    vertex 14.880740392011669 6.694133342141187 3.3000000000000798
    vertex 15.799999999999928 4.2999999999999865 3.3000000000000798
    vertex 14.970057014808267 7.143158327229828 3.3000000000000798
  endloop
endfacet
facet normal -3.413781809830957e-18 -1.0752081622389967e-31 1.0
  outer loop
    vertex 14.970057014808267 7.143158327229828 3.3000000000000798
    vertex 15.799999999999928 4.2999999999999865 3.3000000000000798
    vertex 14.99999999999993 7.6000000000000085 3.3000000000000798
  endloop
endfacet
facet normal -3.413781809830957e-18 -1.0752081622389967e-31 1.0
  outer loop
    vertex 12.839392013277743 10.83357836378952 3.3000000000000798
    vertex 15.799999999999928 10.90000000000004 3.3000000000000798
    vertex 12.643720182755056 10.90000000000004 3.3000000000000815
  endloop
endfacet
facet normal -3.413781809830957e-18 -1.0752081622389967e-31 1.0
  outer loop
    vertex 15.799999999999928 10.90000000000004 3.3000000000000798
    vertex 12.839392013277743 10.83357836378952 3.3000000000000798
    vertex 13.249999999999927 10.631088913245549 3.3000000000000798
  endloop
endfacet
facet normal -3.413781809830957e-18 -1.0752081622389967e-31 1.0
  outer loop
    vertex 15.799999999999928 10.90000000000004 3.3000000000000798
    vertex 13.249999999999927 10.631088913245549 3.3000000000000798
    vertex 13.630665001530451 10.376736691019337 3.3000000000000798
  endloop
endfacet
facet normal -3.413781809830957e-18 -1.0752081622389967e-31 1.0
  outer loop
    vertex 15.799999999999928 10.90000000000004 3.3000000000000798
    vertex 13.630665001530451 10.376736691019337 3.3000000000000798
    vertex 13.974873734152846 10.074873734152929 3.3000000000000798
  endloop
endfacet
facet normal -3.413781809830957e-18 -1.0752081622389967e-31 1.0
  outer loop
    vertex 15.799999999999928 10.90000000000004 3.3000000000000798
    vertex 13.974873734152846 10.074873734152929 3.3000000000000798
    vertex 14.276736691019254 9.730665001530532 3.3000000000000798
  endloop
endfacet
facet normal -3.413781809830957e-18 -1.0752081622389967e-31 1.0
  outer loop
    vertex 15.799999999999928 10.90000000000004 3.3000000000000798
    vertex 14.276736691019254 9.730665001530532 3.3000000000000798
    vertex 14.531088913245465 9.350000000000009 3.3000000000000798
  endloop
endfacet
facet normal -3.413781809830957e-18 -1.0752081622389967e-31 1.0
  outer loop
    vertex 15.799999999999928 10.90000000000004 3.3000000000000798
    vertex 14.531088913245465 9.350000000000009 3.3000000000000798
    vertex 14.733578363789436 8.939392013277827 3.3000000000000798
  endloop
endfacet
facet normal -3.413781809830957e-18 -1.0752081622389967e-31 1.0
  outer loop
    vertex 15.799999999999928 10.90000000000004 3.3000000000000798
    vertex 14.733578363789436 8.939392013277827 3.3000000000000798
    vertex 14.880740392011669 8.505866657858833 3.3000000000000798
  endloop
endfacet
facet normal -3.413781809830957e-18 -1.0752081622389967e-31 1.0
  outer loop
    vertex 15.799999999999928 10.90000000000004 3.3000000000000798
    vertex 14.880740392011669 8.505866657858833 3.3000000000000798
    vertex 14.970057014808267 8.05684167277019 3.3000000000000798
  endloop
endfacet
facet normal -3.413781809830957e-18 -1.0752081622389967e-31 1.0
  outer loop
    vertex 15.799999999999928 10.90000000000004 3.3000000000000798
    vertex 14.970057014808267 8.05684167277019 3.3000000000000798
    vertex 14.99999999999993 7.6000000000000085 3.3000000000000798
  endloop
endfacet
facet normal -3.413781809830957e-18 -1.0752081622389967e-31 1.0
  outer loop
    vertex 15.799999999999928 10.90000000000004 3.3000000000000798
    vertex 14.99999999999993 7.6000000000000085 3.3000000000000798
    vertex 15.799999999999928 4.2999999999999865 3.3000000000000798
  endloop
endfacet
facet normal -3.413781809830957e-18 -1.0752081622389967e-31 1.0
  outer loop
    vertex 15.799999999999928 10.90000000000004 3.3000000000000798
    vertex 15.799999999999928 4.2999999999999865 3.3000000000000798
    vertex 16.230736434326104 4.328231957466413 3.3000000000000798
  endloop
endfacet
facet normal -3.413781809830957e-18 -1.0752081622389967e-31 1.0
  outer loop
    vertex 15.799999999999928 10.90000000000004 3.3000000000000798
    vertex 16.230736434326104 4.328231957466413 3.3000000000000798
    vertex 16.230736434326104 10.871768042533613 3.3000000000000798
  endloop
endfacet
facet normal -3.413781809830957e-18 -1.0752081622389967e-31 1.0
  outer loop
    vertex 16.230736434326104 10.871768042533613 3.3000000000000798
    vertex 16.230736434326104 4.328231957466413 3.3000000000000798
    vertex 16.654102848838253 10.787555226753964 3.3000000000000798
  endloop
endfacet
facet normal -3.413781809830957e-18 -1.0752081622389967e-31 1.0
  outer loop
    vertex 16.654102848838253 10.787555226753964 3.3000000000000798
    vertex 16.230736434326104 4.328231957466413 3.3000000000000798
    vertex 16.654102848838257 4.4124447732460625 3.3000000000000798
  endloop
endfacet
facet normal -3.413781809830957e-18 -1.0752081622389967e-31 1.0
  outer loop
    vertex 16.654102848838253 10.787555226753964 3.3000000000000798
    vertex 16.654102848838257 4.4124447732460625 3.3000000000000798
    vertex 17.062855326804737 10.648802457287283 3.3000000000000798
  endloop
endfacet
facet normal -3.413781809830957e-18 -1.0752081622389967e-31 1.0
  outer loop
    vertex 17.062855326804737 10.648802457287283 3.3000000000000798
    vertex 16.654102848838257 4.4124447732460625 3.3000000000000798
    vertex 17.062855326804737 4.551197542712743 3.3000000000000798
  endloop
endfacet
facet normal -3.413781809830957e-18 -1.0752081622389967e-31 1.0
  outer loop
    vertex 17.062855326804737 10.648802457287283 3.3000000000000798
    vertex 17.062855326804737 4.551197542712743 3.3000000000000798
    vertex 17.449999999999942 4.742116167511343 3.3000000000000798
  endloop
endfacet
facet normal -3.413781809830957e-18 -1.0752081622389967e-31 1.0
  outer loop
    vertex 17.062855326804737 10.648802457287283 3.3000000000000798
    vertex 17.449999999999942 4.742116167511343 3.3000000000000798
    vertex 17.449999999999942 10.457883832488683 3.3000000000000798
  endloop
endfacet
facet normal -3.413781809830957e-18 -1.0752081622389967e-31 1.0
  outer loop
    vertex 17.449999999999942 10.457883832488683 3.3000000000000798
    vertex 17.449999999999942 4.742116167511343 3.3000000000000798
    vertex 17.808912715728724 4.981933977038916 3.3000000000000798
  endloop
endfacet
facet normal -3.413781809830957e-18 -1.0752081622389967e-31 1.0
  outer loop
    vertex 17.449999999999942 10.457883832488683 3.3000000000000798
    vertex 17.808912715728724 4.981933977038916 3.3000000000000798
    vertex 17.808912715728724 10.21806602296111 3.3000000000000798
  endloop
endfacet
facet normal -3.413781809830957e-18 -1.0752081622389967e-31 1.0
  outer loop
    vertex 17.808912715728724 10.21806602296111 3.3000000000000798
    vertex 17.808912715728724 4.981933977038916 3.3000000000000798
    vertex 18.133452377915553 5.266547622084388 3.3000000000000798
  endloop
endfacet
facet normal -3.413781809830957e-18 -1.0752081622389967e-31 1.0
  outer loop
    vertex 17.808912715728724 10.21806602296111 3.3000000000000798
    vertex 18.133452377915553 5.266547622084388 3.3000000000000798
    vertex 18.133452377915553 9.93345237791564 3.3000000000000798
  endloop
endfacet
facet normal -3.413781809830957e-18 -1.0752081622389967e-31 1.0
  outer loop
    vertex 18.133452377915553 9.93345237791564 3.3000000000000798
    vertex 18.133452377915553 5.266547622084388 3.3000000000000798
    vertex 18.418066022961025 5.591087284271219 3.3000000000000798
  endloop
endfacet
facet normal -3.413781809830957e-18 -1.0752081622389967e-31 1.0
  outer loop
    vertex 18.133452377915553 9.93345237791564 3.3000000000000798
    vertex 18.418066022961025 5.591087284271219 3.3000000000000798
    vertex 18.418066022961025 9.608912715728808 3.3000000000000798
  endloop
endfacet
facet normal -3.413781809830957e-18 -1.0752081622389967e-31 1.0
  outer loop
    vertex 18.418066022961025 9.608912715728808 3.3000000000000798
    vertex 18.418066022961025 5.591087284271219 3.3000000000000798
    vertex 18.6578838324886 5.949999999999999 3.3000000000000798
  endloop
endfacet
facet normal -3.413781809830957e-18 -1.0752081622389967e-31 1.0
  outer loop
    vertex 18.418066022961025 9.608912715728808 3.3000000000000798
    vertex 18.6578838324886 5.949999999999999 3.3000000000000798
    vertex 18.6578838324886 9.250000000000027 3.3000000000000798
  endloop
endfacet
facet normal -3.413781809830957e-18 -1.0752081622389967e-31 1.0
  outer loop
    vertex 18.6578838324886 9.250000000000027 3.3000000000000798
    vertex 18.6578838324886 5.949999999999999 3.3000000000000798
    vertex 18.8488024572872 6.337144673195205 3.3000000000000798
  endloop
endfacet
facet normal -3.413781809830957e-18 -1.0752081622389967e-31 1.0
  outer loop
    vertex 18.6578838324886 9.250000000000027 3.3000000000000798
    vertex 18.8488024572872 6.337144673195205 3.3000000000000798
    vertex 18.8488024572872 8.86285532680482 3.3000000000000798
  endloop
endfacet
facet normal -3.413781809830957e-18 -1.0752081622389967e-31 1.0
  outer loop
    vertex 18.8488024572872 8.86285532680482 3.3000000000000798
    vertex 18.8488024572872 6.337144673195205 3.3000000000000798
    vertex 18.98755522675388 6.745897151161686 3.3000000000000798
  endloop
endfacet
facet normal -3.413781809830957e-18 -1.0752081622389967e-31 1.0
  outer loop
    vertex 18.8488024572872 8.86285532680482 3.3000000000000798
    vertex 18.98755522675388 6.745897151161686 3.3000000000000798
    vertex 18.98755522675388 8.454102848838339 3.3000000000000798
  endloop
endfacet
facet normal -3.413781809830957e-18 -1.0752081622389967e-31 1.0
  outer loop
    vertex 18.98755522675388 8.454102848838339 3.3000000000000798
    vertex 18.98755522675388 6.745897151161686 3.3000000000000798
    vertex 19.071768042533527 7.169263565673839 3.3000000000000798
  endloop
endfacet
facet normal -3.413781809830957e-18 -1.0752081622389967e-31 1.0
  outer loop
    vertex 18.98755522675388 8.454102848838339 3.3000000000000798
    vertex 19.071768042533527 7.169263565673839 3.3000000000000798
    vertex 19.071768042533527 8.030736434326187 3.3000000000000798
  endloop
endfacet
facet normal -3.413781809830957e-18 -1.0752081622389967e-31 1.0
  outer loop
    vertex 19.071768042533527 8.030736434326187 3.3000000000000798
    vertex 19.071768042533527 7.169263565673839 3.3000000000000798
    vertex 19.099999999999955 7.600000000000013 3.3000000000000798
  endloop
endfacet
facet normal 0.06540312923014142 0.9978589232386038 2.2327201287198744e-19
  outer loop
    vertex 15.799999999999928 10.90000000000004 3.3000000000000798
    vertex 16.230736434326104 10.871768042533613 1.8000000000000826
    vertex 15.799999999999928 10.90000000000004 1.8000000000000826
  endloop
endfacet
facet normal 0.06540312923014142 0.9978589232386038 2.2327201287198744e-19
  outer loop
    vertex 16.230736434326104 10.871768042533613 1.8000000000000826
    vertex 15.799999999999928 10.90000000000004 3.3000000000000798
    vertex 16.230736434326104 10.871768042533613 3.3000000000000798
  endloop
endfacet
facet normal 6.004004624981609e-47 1.0 1.0752081622389967e-31
  outer loop
    vertex 12.643720182755056 10.90000000000004 1.8000000000000844
    vertex 15.799999999999928 10.90000000000004 3.3000000000000798
    vertex 15.799999999999928 10.90000000000004 1.8000000000000826
  endloop
endfacet
facet normal 6.004004624981609e-47 1.0 1.0752081622389967e-31
  outer loop
    vertex 15.799999999999928 10.90000000000004 3.3000000000000798
    vertex 12.643720182755056 10.90000000000004 1.8000000000000844
    vertex 12.643720182755056 10.90000000000004 3.3000000000000815
  endloop
endfacet
facet normal -6.004004624981615e-47 -1.0 -1.075208162238997e-31
  outer loop
    vertex 15.799999999999928 4.2999999999999865 3.3000000000000798
    vertex 12.643720182755057 4.2999999999999865 1.8000000000000844
    vertex 15.799999999999928 4.2999999999999865 1.8000000000000826
  endloop
endfacet
facet normal -6.004004624981615e-47 -1.0 -1.075208162238997e-31
  outer loop
    vertex 12.643720182755057 4.2999999999999865 1.8000000000000844
    vertex 15.799999999999928 4.2999999999999865 3.3000000000000798
    vertex 12.643720182755057 4.2999999999999865 3.3000000000000815
  endloop
endfacet
facet normal 0.06540312923014424 -0.9978589232386036 2.232720128717825e-19
  outer loop
    vertex 16.230736434326104 4.328231957466413 3.3000000000000798
    vertex 15.799999999999928 4.2999999999999865 1.8000000000000826
    vertex 16.230736434326104 4.328231957466413 1.8000000000000826
  endloop
endfacet
facet normal 0.06540312923014424 -0.9978589232386036 2.232720128717825e-19
  outer loop
    vertex 15.799999999999928 4.2999999999999865 1.8000000000000826
    vertex 16.230736434326104 4.328231957466413 3.3000000000000798
    vertex 15.799999999999928 4.2999999999999865 3.3000000000000798
  endloop
endfacet
facet normal 0.19509032201612841 -0.9807852804032304 6.659957925726176e-19
  outer loop
    vertex 16.654102848838257 4.4124447732460625 3.3000000000000798
    vertex 16.230736434326104 4.328231957466413 1.8000000000000826
    vertex 16.654102848838257 4.4124447732460625 1.8000000000000826
  endloop
endfacet
facet normal 0.19509032201612841 -0.9807852804032304 6.659957925726176e-19
  outer loop
    vertex 16.230736434326104 4.328231957466413 1.8000000000000826
    vertex 16.654102848838257 4.4124447732460625 3.3000000000000798
    vertex 16.230736434326104 4.328231957466413 3.3000000000000798
  endloop
endfacet
facet normal 0.3214394653031631 -0.9469301294951052 1.0973241996136253e-18
  outer loop
    vertex 17.062855326804737 4.551197542712743 3.3000000000000798
    vertex 16.654102848838257 4.4124447732460625 1.8000000000000826
    vertex 17.062855326804737 4.551197542712743 1.8000000000000826
  endloop
endfacet
facet normal 0.3214394653031631 -0.9469301294951052 1.0973241996136253e-18
  outer loop
    vertex 16.654102848838257 4.4124447732460625 1.8000000000000826
    vertex 17.062855326804737 4.551197542712743 3.3000000000000798
    vertex 16.654102848838257 4.4124447732460625 3.3000000000000798
  endloop
endfacet
facet normal 0.44228869021900136 -0.8968727415326885 1.5098770853634894e-18
  outer loop
    vertex 17.449999999999942 4.742116167511343 3.3000000000000798
    vertex 17.062855326804737 4.551197542712743 1.8000000000000826
    vertex 17.449999999999942 4.742116167511343 1.8000000000000826
  endloop
endfacet
facet normal 0.44228869021900136 -0.8968727415326885 1.5098770853634894e-18
  outer loop
    vertex 17.062855326804737 4.551197542712743 1.8000000000000826
    vertex 17.449999999999942 4.742116167511343 3.3000000000000798
    vertex 17.062855326804737 4.551197542712743 3.3000000000000798
  endloop
endfacet
facet normal 0.5555702330196023 -0.8314696123025453 1.8965955555657755e-18
  outer loop
    vertex 17.808912715728724 4.981933977038916 3.3000000000000798
    vertex 17.449999999999942 4.742116167511343 1.8000000000000826
    vertex 17.808912715728724 4.981933977038916 1.8000000000000826
  endloop
endfacet
facet normal 0.5555702330196023 -0.8314696123025453 1.8965955555657755e-18
  outer loop
    vertex 17.449999999999942 4.742116167511343 1.8000000000000826
    vertex 17.808912715728724 4.981933977038916 3.3000000000000798
    vertex 17.449999999999942 4.742116167511343 3.3000000000000798
  endloop
endfacet
facet normal 0.65934581510007 -0.7518398074789765 2.2508627499767037e-18
  outer loop
    vertex 18.133452377915553 5.266547622084388 3.3000000000000798
    vertex 17.808912715728724 4.981933977038916 1.8000000000000826
    vertex 18.133452377915553 5.266547622084388 1.8000000000000826
  endloop
endfacet
facet normal 0.65934581510007 -0.7518398074789765 2.2508627499767037e-18
  outer loop
    vertex 17.808912715728724 4.981933977038916 1.8000000000000826
    vertex 18.133452377915553 5.266547622084388 3.3000000000000798
    vertex 17.808912715728724 4.981933977038916 3.3000000000000798
  endloop
endfacet
facet normal 0.7518398074789765 -0.6593458151000702 2.5666170586784675e-18
  outer loop
    vertex 18.418066022961025 5.591087284271219 1.8000000000000826
    vertex 18.133452377915553 5.266547622084388 3.3000000000000798
    vertex 18.133452377915553 5.266547622084388 1.8000000000000826
  endloop
endfacet
facet normal 0.7518398074789765 -0.6593458151000702 2.5666170586784675e-18
  outer loop
    vertex 18.133452377915553 5.266547622084388 3.3000000000000798
    vertex 18.418066022961025 5.591087284271219 1.8000000000000826
    vertex 18.418066022961025 5.591087284271219 3.3000000000000798
  endloop
endfacet
facet normal 0.8314696123025439 -0.5555702330196042 2.8384558379055625e-18
  outer loop
    vertex 18.6578838324886 5.949999999999999 1.8000000000000826
    vertex 18.418066022961025 5.591087284271219 3.3000000000000798
    vertex 18.418066022961025 5.591087284271219 1.8000000000000826
  endloop
endfacet
facet normal 0.8314696123025439 -0.5555702330196042 2.8384558379055625e-18
  outer loop
    vertex 18.418066022961025 5.591087284271219 3.3000000000000798
    vertex 18.6578838324886 5.949999999999999 1.8000000000000826
    vertex 18.6578838324886 5.949999999999999 3.3000000000000798
  endloop
endfacet
facet normal 0.8968727415326885 -0.44228869021900136 3.061727850777466e-18
  outer loop
    vertex 18.8488024572872 6.337144673195205 1.8000000000000826
    vertex 18.6578838324886 5.949999999999999 3.3000000000000798
    vertex 18.6578838324886 5.949999999999999 1.8000000000000826
  endloop
endfacet
facet normal 0.8968727415326885 -0.44228869021900136 3.061727850777466e-18
  outer loop
    vertex 18.6578838324886 5.949999999999999 3.3000000000000798
    vertex 18.8488024572872 6.337144673195205 1.8000000000000826
    vertex 18.8488024572872 6.337144673195205 3.3000000000000798
  endloop
endfacet
facet normal 0.946930129495106 -0.32143946530316064 3.232612851251231e-18
  outer loop
    vertex 18.98755522675388 6.745897151161686 1.8000000000000826
    vertex 18.8488024572872 6.337144673195205 3.3000000000000798
    vertex 18.8488024572872 6.337144673195205 1.8000000000000826
  endloop
endfacet
facet normal 0.946930129495106 -0.32143946530316064 3.232612851251231e-18
  outer loop
    vertex 18.8488024572872 6.337144673195205 3.3000000000000798
    vertex 18.98755522675388 6.745897151161686 1.8000000000000826
    vertex 18.98755522675388 6.745897151161686 3.3000000000000798
  endloop
endfacet
facet normal 0.9807852804032309 -0.19509032201612622 3.348186949590483e-18
  outer loop
    vertex 19.071768042533527 7.169263565673839 1.8000000000000826
    vertex 18.98755522675388 6.745897151161686 3.3000000000000798
    vertex 18.98755522675388 6.745897151161686 1.8000000000000826
  endloop
endfacet
facet normal 0.9807852804032309 -0.19509032201612622 3.348186949590483e-18
  outer loop
    vertex 18.98755522675388 6.745897151161686 3.3000000000000798
    vertex 19.071768042533527 7.169263565673839 1.8000000000000826
    vertex 19.071768042533527 7.169263565673839 3.3000000000000798
  endloop
endfacet
facet normal 0.9978589232386038 -0.06540312923014142 3.406472640929444e-18
  outer loop
    vertex 19.099999999999955 7.600000000000013 1.8000000000000826
    vertex 19.071768042533527 7.169263565673839 3.3000000000000798
    vertex 19.071768042533527 7.169263565673839 1.8000000000000826
  endloop
endfacet
facet normal 0.9978589232386038 -0.06540312923014142 3.406472640929444e-18
  outer loop
    vertex 19.071768042533527 7.169263565673839 3.3000000000000798
    vertex 19.099999999999955 7.600000000000013 1.8000000000000826
    vertex 19.099999999999955 7.600000000000013 3.3000000000000798
  endloop
endfacet
facet normal 0.9978589232386038 0.06540312923014142 3.406472640929458e-18
  outer loop
    vertex 19.071768042533527 8.030736434326187 1.8000000000000826
    vertex 19.099999999999955 7.600000000000013 3.3000000000000798
    vertex 19.099999999999955 7.600000000000013 1.8000000000000826
  endloop
endfacet
facet normal 0.9978589232386038 0.06540312923014142 3.406472640929458e-18
  outer loop
    vertex 19.099999999999955 7.600000000000013 3.3000000000000798
    vertex 19.071768042533527 8.030736434326187 1.8000000000000826
    vertex 19.071768042533527 8.030736434326187 3.3000000000000798
  endloop
endfacet
facet normal 0.9807852804032308 0.19509032201612686 3.348186949590525e-18
  outer loop
    vertex 18.98755522675388 8.454102848838339 1.8000000000000826
    vertex 19.071768042533527 8.030736434326187 3.3000000000000798
    vertex 19.071768042533527 8.030736434326187 1.8000000000000826
  endloop
endfacet
facet normal 0.9807852804032308 0.19509032201612686 3.348186949590525e-18
  outer loop
    vertex 19.071768042533527 8.030736434326187 3.3000000000000798
    vertex 18.98755522675388 8.454102848838339 1.8000000000000826
    vertex 18.98755522675388 8.454102848838339 3.3000000000000798
  endloop
endfacet
facet normal 0.946930129495106 0.32143946530316064 3.2326128512513006e-18
  outer loop
    vertex 18.8488024572872 8.86285532680482 1.8000000000000826
    vertex 18.98755522675388 8.454102848838339 3.3000000000000798
    vertex 18.98755522675388 8.454102848838339 1.8000000000000826
  endloop
endfacet
facet normal 0.946930129495106 0.32143946530316064 3.2326128512513006e-18
  outer loop
    vertex 18.98755522675388 8.454102848838339 3.3000000000000798
    vertex 18.8488024572872 8.86285532680482 1.8000000000000826
    vertex 18.8488024572872 8.86285532680482 3.3000000000000798
  endloop
endfacet
facet normal 0.8968727415326889 0.44228869021899997 3.0617278507775626e-18
  outer loop
    vertex 18.6578838324886 9.250000000000027 1.8000000000000826
    vertex 18.8488024572872 8.86285532680482 3.3000000000000798
    vertex 18.8488024572872 8.86285532680482 1.8000000000000826
  endloop
endfacet
facet normal 0.8968727415326889 0.44228869021899997 3.0617278507775626e-18
  outer loop
    vertex 18.8488024572872 8.86285532680482 3.3000000000000798
    vertex 18.6578838324886 9.250000000000027 1.8000000000000826
    vertex 18.6578838324886 9.250000000000027 3.3000000000000798
  endloop
endfacet
facet normal 0.8314696123025443 0.5555702330196034 2.8384558379056834e-18
  outer loop
    vertex 18.418066022961025 9.608912715728808 1.8000000000000826
    vertex 18.6578838324886 9.250000000000027 3.3000000000000798
    vertex 18.6578838324886 9.250000000000027 1.8000000000000826
  endloop
endfacet
facet normal 0.8314696123025443 0.5555702330196034 2.8384558379056834e-18
  outer loop
    vertex 18.6578838324886 9.250000000000027 3.3000000000000798
    vertex 18.418066022961025 9.608912715728808 1.8000000000000826
    vertex 18.418066022961025 9.608912715728808 3.3000000000000798
  endloop
endfacet
facet normal 0.7518398074789769 0.6593458151000693 2.5666170586786115e-18
  outer loop
    vertex 18.133452377915553 9.93345237791564 1.8000000000000826
    vertex 18.418066022961025 9.608912715728808 3.3000000000000798
    vertex 18.418066022961025 9.608912715728808 1.8000000000000826
  endloop
endfacet
facet normal 0.7518398074789769 0.6593458151000693 2.5666170586786115e-18
  outer loop
    vertex 18.418066022961025 9.608912715728808 3.3000000000000798
    vertex 18.133452377915553 9.93345237791564 1.8000000000000826
    vertex 18.133452377915553 9.93345237791564 3.3000000000000798
  endloop
endfacet
facet normal 0.6593458151000691 0.7518398074789773 2.250862749976862e-18
  outer loop
    vertex 17.808912715728724 10.21806602296111 3.3000000000000798
    vertex 18.133452377915553 9.93345237791564 1.8000000000000826
    vertex 17.808912715728724 10.21806602296111 1.8000000000000826
  endloop
endfacet
facet normal 0.6593458151000691 0.7518398074789773 2.250862749976862e-18
  outer loop
    vertex 18.133452377915553 9.93345237791564 1.8000000000000826
    vertex 17.808912715728724 10.21806602296111 3.3000000000000798
    vertex 18.133452377915553 9.93345237791564 3.3000000000000798
  endloop
endfacet
facet normal 0.5555702330196012 0.831469612302546 1.8965955555659496e-18
  outer loop
    vertex 17.449999999999942 10.457883832488683 3.3000000000000798
    vertex 17.808912715728724 10.21806602296111 1.8000000000000826
    vertex 17.449999999999942 10.457883832488683 1.8000000000000826
  endloop
endfacet
facet normal 0.5555702330196012 0.831469612302546 1.8965955555659496e-18
  outer loop
    vertex 17.808912715728724 10.21806602296111 1.8000000000000826
    vertex 17.449999999999942 10.457883832488683 3.3000000000000798
    vertex 17.808912715728724 10.21806602296111 3.3000000000000798
  endloop
endfacet
facet normal 0.44228869021900136 0.8968727415326885 1.5098770853636824e-18
  outer loop
    vertex 17.062855326804737 10.648802457287283 3.3000000000000798
    vertex 17.449999999999942 10.457883832488683 1.8000000000000826
    vertex 17.062855326804737 10.648802457287283 1.8000000000000826
  endloop
endfacet
facet normal 0.44228869021900136 0.8968727415326885 1.5098770853636824e-18
  outer loop
    vertex 17.449999999999942 10.457883832488683 1.8000000000000826
    vertex 17.062855326804737 10.648802457287283 3.3000000000000798
    vertex 17.449999999999942 10.457883832488683 3.3000000000000798
  endloop
endfacet
facet normal 0.3214394653031626 0.9469301294951054 1.0973241996138274e-18
  outer loop
    vertex 16.654102848838253 10.787555226753964 3.3000000000000798
    vertex 17.062855326804737 10.648802457287283 1.8000000000000826
    vertex 16.654102848838253 10.787555226753964 1.8000000000000826
  endloop
endfacet
facet normal 0.3214394653031626 0.9469301294951054 1.0973241996138274e-18
  outer loop
    vertex 17.062855326804737 10.648802457287283 1.8000000000000826
    vertex 16.654102848838253 10.787555226753964 3.3000000000000798
    vertex 17.062855326804737 10.648802457287283 3.3000000000000798
  endloop
endfacet
facet normal 0.19509032201613 0.9807852804032302 6.65995792572834e-19
  outer loop
    vertex 16.230736434326104 10.871768042533613 3.3000000000000798
    vertex 16.654102848838253 10.787555226753964 1.8000000000000826
    vertex 16.230736434326104 10.871768042533613 1.8000000000000826
  endloop
endfacet
facet normal 0.19509032201613 0.9807852804032302 6.65995792572834e-19
  outer loop
    vertex 16.654102848838253 10.787555226753964 1.8000000000000826
    vertex 16.230736434326104 10.871768042533613 3.3000000000000798
    vertex 16.654102848838253 10.787555226753964 3.3000000000000798
  endloop
endfacet
endsolid PumpController-AntennaCover
