solid PumpController-Cover
facet normal -0.0 -0.0 1.0
  outer loop
    vertex 25.2 0.0 1.75
    vertex 32.568148347421875 2.4823619097949425 1.75
    vertex 32.50000000000001 2.999999999999983 1.75
  endloop
endfacet
facet normal -0.0 -0.0 1.0
  outer loop
    vertex 32.568148347421875 2.4823619097949425 1.75
    vertex 25.2 0.0 1.75
    vertex 32.767949192431125 1.9999999999999845 1.75
  endloop
endfacet
facet normal -0.0 -0.0 1.0
  outer loop
    vertex 32.767949192431125 1.9999999999999845 1.75
    vertex 25.2 0.0 1.75
    vertex 33.085786437626915 1.58578643762689 1.75
  endloop
endfacet
facet normal -0.0 -0.0 1.0
  outer loop
    vertex 33.085786437626915 1.58578643762689 1.75
    vertex 25.2 0.0 1.75
    vertex 33.50000000000001 1.2679491924311084 1.75
  endloop
endfacet
facet normal -0.0 -0.0 1.0
  outer loop
    vertex 33.50000000000001 1.2679491924311084 1.75
    vertex 25.2 0.0 1.75
    vertex 33.98236190979497 1.0681483474218487 1.75
  endloop
endfacet
facet normal -0.0 -0.0 1.0
  outer loop
    vertex 33.98236190979497 1.0681483474218487 1.75
    vertex 25.2 0.0 1.75
    vertex 34.50000000000001 0.9999999999999863 1.75
  endloop
endfacet
facet normal -0.0 -0.0 1.0
  outer loop
    vertex 34.50000000000001 0.9999999999999863 1.75
    vertex 25.2 0.0 1.75
    vertex 68.80000000000003 0.0 1.75
  endloop
endfacet
facet normal -0.0 -0.0 1.0
  outer loop
    vertex 34.50000000000001 0.9999999999999863 1.75
    vertex 68.80000000000003 0.0 1.75
    vertex 35.01763809020505 1.0681483474218505 1.75
  endloop
endfacet
facet normal -0.0 -0.0 1.0
  outer loop
    vertex 35.01763809020505 1.0681483474218505 1.75
    vertex 68.80000000000003 0.0 1.75
    vertex 35.5 1.2679491924311102 1.75
  endloop
endfacet
facet normal -0.0 -0.0 1.0
  outer loop
    vertex 35.5 1.2679491924311102 1.75
    vertex 68.80000000000003 0.0 1.75
    vertex 35.91421356237311 1.5857864376268922 1.75
  endloop
endfacet
facet normal -0.0 -0.0 1.0
  outer loop
    vertex 35.91421356237311 1.5857864376268922 1.75
    vertex 68.80000000000003 0.0 1.75
    vertex 36.23205080756888 1.9999999999999865 1.75
  endloop
endfacet
facet normal -0.0 -0.0 1.0
  outer loop
    vertex 36.23205080756888 1.9999999999999865 1.75
    vertex 68.80000000000003 0.0 1.75
    vertex 36.431851652578146 2.482361909794944 1.75
  endloop
endfacet
facet normal -0.0 -0.0 1.0
  outer loop
    vertex 36.431851652578146 2.482361909794944 1.75
    vertex 68.80000000000003 0.0 1.75
    vertex 36.5 2.9999999999999845 1.75
  endloop
endfacet
facet normal -0.0 -0.0 1.0
  outer loop
    vertex 10.2 0.0 1.75
    vertex 4.2 95.79999999999998 1.75
    vertex 4.2 0.0 1.75
  endloop
endfacet
facet normal -0.0 -0.0 1.0
  outer loop
    vertex 4.2 95.79999999999998 1.75
    vertex 10.2 0.0 1.75
    vertex 68.80000000000003 95.79999999999998 1.75
  endloop
endfacet
facet normal -0.0 -0.0 1.0
  outer loop
    vertex 68.80000000000003 95.79999999999998 1.75
    vertex 10.2 0.0 1.75
    vertex 25.2 0.0 1.75
  endloop
endfacet
facet normal -0.0 -0.0 1.0
  outer loop
    vertex 68.80000000000003 95.79999999999998 1.75
    vertex 25.2 0.0 1.75
    vertex 32.56814834742187 3.5176380902050237 1.75
  endloop
endfacet
facet normal -0.0 -0.0 1.0
  outer loop
    vertex 32.56814834742187 3.5176380902050237 1.75
    vertex 25.2 0.0 1.75
    vertex 32.50000000000001 2.999999999999983 1.75
  endloop
endfacet
facet normal -0.0 -0.0 1.0
  outer loop
    vertex 68.80000000000003 95.79999999999998 1.75
    vertex 32.56814834742187 3.5176380902050237 1.75
    vertex 32.767949192431125 3.9999999999999822 1.75
  endloop
endfacet
facet normal -0.0 -0.0 1.0
  outer loop
    vertex 68.80000000000003 95.79999999999998 1.75
    vertex 32.767949192431125 3.9999999999999822 1.75
    vertex 33.085786437626915 4.414213562373076 1.75
  endloop
endfacet
facet normal -0.0 -0.0 1.0
  outer loop
    vertex 68.80000000000003 95.79999999999998 1.75
    vertex 33.085786437626915 4.414213562373076 1.75
    vertex 33.50000000000001 4.732050807568859 1.75
  endloop
endfacet
facet normal -0.0 -0.0 1.0
  outer loop
    vertex 68.80000000000003 95.79999999999998 1.75
    vertex 33.50000000000001 4.732050807568859 1.75
    vertex 33.98236190979496 4.931851652578119 1.75
  endloop
endfacet
facet normal -0.0 -0.0 1.0
  outer loop
    vertex 68.80000000000003 95.79999999999998 1.75
    vertex 33.98236190979496 4.931851652578119 1.75
    vertex 34.50000000000001 4.999999999999982 1.75
  endloop
endfacet
facet normal -0.0 -0.0 1.0
  outer loop
    vertex 68.80000000000003 95.79999999999998 1.75
    vertex 34.50000000000001 4.999999999999982 1.75
    vertex 35.01763809020505 4.931851652578119 1.75
  endloop
endfacet
facet normal -0.0 -0.0 1.0
  outer loop
    vertex 68.80000000000003 95.79999999999998 1.75
    vertex 35.01763809020505 4.931851652578119 1.75
    vertex 35.5 4.73205080756886 1.75
  endloop
endfacet
facet normal -0.0 -0.0 1.0
  outer loop
    vertex 68.80000000000003 95.79999999999998 1.75
    vertex 35.5 4.73205080756886 1.75
    vertex 35.9142135623731 4.414213562373078 1.75
  endloop
endfacet
facet normal -0.0 -0.0 1.0
  outer loop
    vertex 68.80000000000003 95.79999999999998 1.75
    vertex 35.9142135623731 4.414213562373078 1.75
    vertex 36.23205080756888 3.9999999999999827 1.75
  endloop
endfacet
facet normal -0.0 -0.0 1.0
  outer loop
    vertex 68.80000000000003 95.79999999999998 1.75
    vertex 36.23205080756888 3.9999999999999827 1.75
    vertex 36.43185165257814 3.517638090205025 1.75
  endloop
endfacet
facet normal -0.0 -0.0 1.0
  outer loop
    vertex 68.80000000000003 95.79999999999998 1.75
    vertex 36.43185165257814 3.517638090205025 1.75
    vertex 36.5 2.9999999999999845 1.75
  endloop
endfacet
facet normal -0.0 -0.0 1.0
  outer loop
    vertex 68.80000000000003 95.79999999999998 1.75
    vertex 36.5 2.9999999999999845 1.75
    vertex 68.80000000000003 0.0 1.75
  endloop
endfacet
facet normal 0.0 1.0 0.0
  outer loop
    vertex 4.2 95.79999999999998 1.75
    vertex 68.80000000000003 95.79999999999998 0.0
    vertex 4.2 95.79999999999998 0.0
  endloop
endfacet
facet normal 0.0 1.0 0.0
  outer loop
    vertex 68.80000000000003 95.79999999999998 0.0
    vertex 4.2 95.79999999999998 1.75
    vertex 68.80000000000003 95.79999999999998 1.75
  endloop
endfacet
facet normal 1.0 -0.0 -0.0
  outer loop
    vertex 68.80000000000003 -1.9999999999999998 0.0
    vertex 68.80000000000003 0.0 1.75
    vertex 68.80000000000003 -1.9999999999999998 3.75
  endloop
endfacet
facet normal 1.0 -0.0 -0.0
  outer loop
    vertex 68.80000000000003 0.0 1.75
    vertex 68.80000000000003 -1.9999999999999998 0.0
    vertex 68.80000000000003 95.79999999999998 0.0
  endloop
endfacet
facet normal 1.0 -0.0 -0.0
  outer loop
    vertex 68.80000000000003 0.0 1.75
    vertex 68.80000000000003 95.79999999999998 0.0
    vertex 68.80000000000003 95.79999999999998 1.75
  endloop
endfacet
facet normal 1.0 -0.0 -0.0
  outer loop
    vertex 68.80000000000003 0.0 3.75
    vertex 68.80000000000003 -1.9999999999999998 3.75
    vertex 68.80000000000003 0.0 1.75
  endloop
endfacet
facet normal 0.0 -1.0 0.0
  outer loop
    vertex 68.80000000000003 -1.9999999999999998 0.0
    vertex 54.800000000000026 -1.9999999999999998 2.75
    vertex 4.2 -1.9999999999999998 0.0
  endloop
endfacet
facet normal 0.0 -1.0 0.0
  outer loop
    vertex 54.800000000000026 -1.9999999999999998 2.75
    vertex 68.80000000000003 -1.9999999999999998 0.0
    vertex 68.80000000000003 -1.9999999999999998 3.75
  endloop
endfacet
facet normal 0.0 -1.0 0.0
  outer loop
    vertex 54.800000000000026 -1.9999999999999998 2.75
    vertex 68.80000000000003 -1.9999999999999998 3.75
    vertex 54.800000000000026 -1.9999999999999998 3.75
  endloop
endfacet
facet normal 0.0 -1.0 0.0
  outer loop
    vertex 4.2 -1.9999999999999998 0.0
    vertex 46.80000000000003 -1.9999999999999913 2.75
    vertex 4.2 -1.9999999999999998 3.75
  endloop
endfacet
facet normal 0.0 -1.0 0.0
  outer loop
    vertex 46.80000000000003 -1.9999999999999913 2.75
    vertex 4.2 -1.9999999999999998 0.0
    vertex 54.800000000000026 -1.9999999999999998 2.75
  endloop
endfacet
facet normal 0.0 -1.0 0.0
  outer loop
    vertex 4.2 -1.9999999999999998 3.75
    vertex 46.80000000000003 -1.9999999999999913 2.75
    vertex 46.80000000000003 -1.9999999999999913 3.75
  endloop
endfacet
facet normal -1.0 0.0 0.0
  outer loop
    vertex 4.2 0.0 3.75
    vertex 4.2 -1.9999999999999998 0.0
    vertex 4.2 -1.9999999999999998 3.75
  endloop
endfacet
facet normal -1.0 0.0 0.0
  outer loop
    vertex 4.2 -1.9999999999999998 0.0
    vertex 4.2 0.0 3.75
    vertex 4.2 0.0 1.75
  endloop
endfacet
facet normal -1.0 0.0 0.0
  outer loop
    vertex 4.2 -1.9999999999999998 0.0
    vertex 4.2 0.0 1.75
    vertex 4.2 95.79999999999998 0.0
  endloop
endfacet
facet normal -1.0 0.0 0.0
  outer loop
    vertex 4.2 95.79999999999998 0.0
    vertex 4.2 0.0 1.75
    vertex 4.2 95.79999999999998 1.75
  endloop
endfacet
facet normal -0.0 -0.0 1.0
  outer loop
    vertex 46.80000000000003 -1.9999999999999913 2.75
    vertex 54.800000000000026 0.0 2.75
    vertex 46.800000000000026 8.459899447643692e-15 2.75
  endloop
endfacet
facet normal -0.0 -0.0 1.0
  outer loop
    vertex 54.800000000000026 0.0 2.75
    vertex 46.80000000000003 -1.9999999999999913 2.75
    vertex 54.800000000000026 -1.9999999999999998 2.75
  endloop
endfacet
facet normal -0.0 1.0 -0.0
  outer loop
    vertex 43.800000000000026 0.0 2.75
    vertex 25.2 0.0 1.75
    vertex 10.2 0.0 1.75
  endloop
endfacet
facet normal -0.0 1.0 -0.0
  outer loop
    vertex 25.2 0.0 1.75
    vertex 43.800000000000026 0.0 2.75
    vertex 58.800000000000026 0.0 2.75
  endloop
endfacet
facet normal -0.0 1.0 -0.0
  outer loop
    vertex 58.800000000000026 0.0 2.75
    vertex 43.800000000000026 0.0 2.75
    vertex 46.800000000000026 8.459899447643692e-15 2.75
  endloop
endfacet
facet normal -0.0 1.0 -0.0
  outer loop
    vertex 58.800000000000026 0.0 2.75
    vertex 46.800000000000026 8.459899447643692e-15 2.75
    vertex 54.800000000000026 0.0 2.75
  endloop
endfacet
facet normal -0.0 1.0 -0.0
  outer loop
    vertex 4.2 0.0 3.75
    vertex 10.2 0.0 1.75
    vertex 4.2 0.0 1.75
  endloop
endfacet
facet normal -0.0 1.0 -0.0
  outer loop
    vertex 10.2 0.0 1.75
    vertex 4.2 0.0 3.75
    vertex 43.800000000000026 0.0 2.75
  endloop
endfacet
facet normal -0.0 1.0 -0.0
  outer loop
    vertex 43.800000000000026 0.0 2.75
    vertex 4.2 0.0 3.75
    vertex 46.800000000000026 8.459899447643692e-15 2.75
  endloop
endfacet
facet normal -0.0 1.0 -0.0
  outer loop
    vertex 46.800000000000026 8.459899447643692e-15 2.75
    vertex 4.2 0.0 3.75
    vertex 46.800000000000026 8.459899447643692e-15 3.75
  endloop
endfacet
facet normal -0.0 -0.0 1.0
  outer loop
    vertex 46.80000000000003 -1.9999999999999913 3.75
    vertex 4.2 0.0 3.75
    vertex 4.2 -1.9999999999999998 3.75
  endloop
endfacet
facet normal -0.0 -0.0 1.0
  outer loop
    vertex 4.2 0.0 3.75
    vertex 46.80000000000003 -1.9999999999999913 3.75
    vertex 46.800000000000026 8.459899447643692e-15 3.75
  endloop
endfacet
facet normal -0.0 1.0 -0.0
  outer loop
    vertex 54.800000000000026 0.0 3.75
    vertex 58.800000000000026 0.0 2.75
    vertex 54.800000000000026 0.0 2.75
  endloop
endfacet
facet normal -0.0 1.0 -0.0
  outer loop
    vertex 58.800000000000026 0.0 2.75
    vertex 68.80000000000003 0.0 1.75
    vertex 25.2 0.0 1.75
  endloop
endfacet
facet normal -0.0 1.0 -0.0
  outer loop
    vertex 68.80000000000003 0.0 1.75
    vertex 58.800000000000026 0.0 2.75
    vertex 68.80000000000003 0.0 3.75
  endloop
endfacet
facet normal -0.0 1.0 -0.0
  outer loop
    vertex 68.80000000000003 0.0 3.75
    vertex 58.800000000000026 0.0 2.75
    vertex 54.800000000000026 0.0 3.75
  endloop
endfacet
facet normal -0.0 -0.0 1.0
  outer loop
    vertex 68.80000000000003 -1.9999999999999998 3.75
    vertex 54.800000000000026 0.0 3.75
    vertex 54.800000000000026 -1.9999999999999998 3.75
  endloop
endfacet
facet normal -0.0 -0.0 1.0
  outer loop
    vertex 54.800000000000026 0.0 3.75
    vertex 68.80000000000003 -1.9999999999999998 3.75
    vertex 68.80000000000003 0.0 3.75
  endloop
endfacet
facet normal 0.9914448613738105 0.130526192220052 0.0
  outer loop
    vertex 32.50000000000001 2.999999999999983 2.8199664825478975e-15
    vertex 32.568148347421875 2.4823619097949425 1.75
    vertex 32.568148347421875 2.4823619097949425 2.8199664825478975e-15
  endloop
endfacet
facet normal 0.9914448613738105 0.130526192220052 0.0
  outer loop
    vertex 32.568148347421875 2.4823619097949425 1.75
    vertex 32.50000000000001 2.999999999999983 2.8199664825478975e-15
    vertex 32.50000000000001 2.999999999999983 1.75
  endloop
endfacet
facet normal 0.92387953251129 0.38268343236508207 0.0
  outer loop
    vertex 32.568148347421875 2.4823619097949425 2.8199664825478975e-15
    vertex 32.767949192431125 1.9999999999999845 1.75
    vertex 32.767949192431125 1.9999999999999845 2.8199664825478975e-15
  endloop
endfacet
facet normal 0.92387953251129 0.38268343236508207 0.0
  outer loop
    vertex 32.767949192431125 1.9999999999999845 1.75
    vertex 32.568148347421875 2.4823619097949425 2.8199664825478975e-15
    vertex 32.568148347421875 2.4823619097949425 1.75
  endloop
endfacet
facet normal 0.7933533402912318 0.6087614290087251 0.0
  outer loop
    vertex 32.767949192431125 1.9999999999999845 2.8199664825478975e-15
    vertex 33.085786437626915 1.58578643762689 1.75
    vertex 33.085786437626915 1.58578643762689 2.8199664825478975e-15
  endloop
endfacet
facet normal 0.7933533402912318 0.6087614290087251 0.0
  outer loop
    vertex 33.085786437626915 1.58578643762689 1.75
    vertex 32.767949192431125 1.9999999999999845 2.8199664825478975e-15
    vertex 32.767949192431125 1.9999999999999845 1.75
  endloop
endfacet
facet normal 0.6087614290087201 0.7933533402912357 0.0
  outer loop
    vertex 33.085786437626915 1.58578643762689 1.75
    vertex 33.50000000000001 1.2679491924311084 2.8199664825478975e-15
    vertex 33.085786437626915 1.58578643762689 2.8199664825478975e-15
  endloop
endfacet
facet normal 0.6087614290087201 0.7933533402912357 0.0
  outer loop
    vertex 33.50000000000001 1.2679491924311084 2.8199664825478975e-15
    vertex 33.085786437626915 1.58578643762689 1.75
    vertex 33.50000000000001 1.2679491924311084 1.75
  endloop
endfacet
facet normal 0.38268343236509045 0.9238795325112865 0.0
  outer loop
    vertex 33.50000000000001 1.2679491924311084 1.75
    vertex 33.98236190979497 1.0681483474218487 2.8199664825478975e-15
    vertex 33.50000000000001 1.2679491924311084 2.8199664825478975e-15
  endloop
endfacet
facet normal 0.38268343236509045 0.9238795325112865 0.0
  outer loop
    vertex 33.98236190979497 1.0681483474218487 2.8199664825478975e-15
    vertex 33.50000000000001 1.2679491924311084 1.75
    vertex 33.98236190979497 1.0681483474218487 1.75
  endloop
endfacet
facet normal 0.13052619222004874 0.9914448613738108 0.0
  outer loop
    vertex 33.98236190979497 1.0681483474218487 1.75
    vertex 34.50000000000001 0.9999999999999863 2.8199664825478975e-15
    vertex 33.98236190979497 1.0681483474218487 2.8199664825478975e-15
  endloop
endfacet
facet normal 0.13052619222004874 0.9914448613738108 0.0
  outer loop
    vertex 34.50000000000001 0.9999999999999863 2.8199664825478975e-15
    vertex 33.98236190979497 1.0681483474218487 1.75
    vertex 34.50000000000001 0.9999999999999863 1.75
  endloop
endfacet
facet normal -0.13052619222005316 0.9914448613738104 -0.0
  outer loop
    vertex 34.50000000000001 0.9999999999999863 1.75
    vertex 35.01763809020505 1.0681483474218505 2.8199664825478975e-15
    vertex 34.50000000000001 0.9999999999999863 2.8199664825478975e-15
  endloop
endfacet
facet normal -0.13052619222005316 0.9914448613738104 -0.0
  outer loop
    vertex 35.01763809020505 1.0681483474218505 2.8199664825478975e-15
    vertex 34.50000000000001 0.9999999999999863 1.75
    vertex 35.01763809020505 1.0681483474218505 1.75
  endloop
endfacet
facet normal -0.38268343236509456 0.9238795325112849 -0.0
  outer loop
    vertex 35.01763809020505 1.0681483474218505 1.75
    vertex 35.5 1.2679491924311102 2.8199664825478975e-15
    vertex 35.01763809020505 1.0681483474218505 2.8199664825478975e-15
  endloop
endfacet
facet normal -0.38268343236509456 0.9238795325112849 -0.0
  outer loop
    vertex 35.5 1.2679491924311102 2.8199664825478975e-15
    vertex 35.01763809020505 1.0681483474218505 1.75
    vertex 35.5 1.2679491924311102 1.75
  endloop
endfacet
facet normal -0.6087614290087154 0.7933533402912392 -0.0
  outer loop
    vertex 35.5 1.2679491924311102 1.75
    vertex 35.91421356237311 1.5857864376268922 2.8199664825478975e-15
    vertex 35.5 1.2679491924311102 2.8199664825478975e-15
  endloop
endfacet
facet normal -0.6087614290087154 0.7933533402912392 -0.0
  outer loop
    vertex 35.91421356237311 1.5857864376268922 2.8199664825478975e-15
    vertex 35.5 1.2679491924311102 1.75
    vertex 35.91421356237311 1.5857864376268922 1.75
  endloop
endfacet
facet normal -0.7933533402912369 0.6087614290087184 -0.0
  outer loop
    vertex 36.23205080756888 1.9999999999999865 1.75
    vertex 35.91421356237311 1.5857864376268922 2.8199664825478975e-15
    vertex 35.91421356237311 1.5857864376268922 1.75
  endloop
endfacet
facet normal -0.7933533402912369 0.6087614290087184 -0.0
  outer loop
    vertex 35.91421356237311 1.5857864376268922 2.8199664825478975e-15
    vertex 36.23205080756888 1.9999999999999865 1.75
    vertex 36.23205080756888 1.9999999999999865 2.8199664825478975e-15
  endloop
endfacet
facet normal -0.9238795325112859 0.3826834323650917 -0.0
  outer loop
    vertex 36.431851652578146 2.482361909794944 1.75
    vertex 36.23205080756888 1.9999999999999865 2.8199664825478975e-15
    vertex 36.23205080756888 1.9999999999999865 1.75
  endloop
endfacet
facet normal -0.9238795325112859 0.3826834323650917 -0.0
  outer loop
    vertex 36.23205080756888 1.9999999999999865 2.8199664825478975e-15
    vertex 36.431851652578146 2.482361909794944 1.75
    vertex 36.431851652578146 2.482361909794944 2.8199664825478975e-15
  endloop
endfacet
facet normal -0.9914448613738117 0.13052619222004133 -0.0
  outer loop
    vertex 36.5 2.9999999999999845 1.75
    vertex 36.431851652578146 2.482361909794944 2.8199664825478975e-15
    vertex 36.431851652578146 2.482361909794944 1.75
  endloop
endfacet
facet normal -0.9914448613738117 0.13052619222004133 -0.0
  outer loop
    vertex 36.431851652578146 2.482361909794944 2.8199664825478975e-15
    vertex 36.5 2.9999999999999845 1.75
    vertex 36.5 2.9999999999999845 2.8199664825478975e-15
  endloop
endfacet
facet normal -0.9914448613738105 -0.130526192220052 -0.0
  outer loop
    vertex 36.43185165257814 3.517638090205025 1.75
    vertex 36.5 2.9999999999999845 2.8199664825478975e-15
    vertex 36.5 2.9999999999999845 1.75
  endloop
endfacet
facet normal -0.9914448613738105 -0.130526192220052 -0.0
  outer loop
    vertex 36.5 2.9999999999999845 2.8199664825478975e-15
    vertex 36.43185165257814 3.517638090205025 1.75
    vertex 36.43185165257814 3.517638090205025 2.8199664825478975e-15
  endloop
endfacet
facet normal -0.9238795325112898 -0.3826834323650826 -0.0
  outer loop
    vertex 36.23205080756888 3.9999999999999827 1.75
    vertex 36.43185165257814 3.517638090205025 2.8199664825478975e-15
    vertex 36.43185165257814 3.517638090205025 1.75
  endloop
endfacet
facet normal -0.9238795325112898 -0.3826834323650826 -0.0
  outer loop
    vertex 36.43185165257814 3.517638090205025 2.8199664825478975e-15
    vertex 36.23205080756888 3.9999999999999827 1.75
    vertex 36.23205080756888 3.9999999999999827 2.8199664825478975e-15
  endloop
endfacet
facet normal -0.7933533402912326 -0.6087614290087241 -0.0
  outer loop
    vertex 35.9142135623731 4.414213562373078 1.75
    vertex 36.23205080756888 3.9999999999999827 2.8199664825478975e-15
    vertex 36.23205080756888 3.9999999999999827 1.75
  endloop
endfacet
facet normal -0.7933533402912326 -0.6087614290087241 -0.0
  outer loop
    vertex 36.23205080756888 3.9999999999999827 2.8199664825478975e-15
    vertex 35.9142135623731 4.414213562373078 1.75
    vertex 35.9142135623731 4.414213562373078 2.8199664825478975e-15
  endloop
endfacet
facet normal -0.6087614290087205 -0.7933533402912354 -0.0
  outer loop
    vertex 35.9142135623731 4.414213562373078 1.75
    vertex 35.5 4.73205080756886 2.8199664825478975e-15
    vertex 35.9142135623731 4.414213562373078 2.8199664825478975e-15
  endloop
endfacet
facet normal -0.6087614290087205 -0.7933533402912354 -0.0
  outer loop
    vertex 35.5 4.73205080756886 2.8199664825478975e-15
    vertex 35.9142135623731 4.414213562373078 1.75
    vertex 35.5 4.73205080756886 1.75
  endloop
endfacet
facet normal -0.38268343236508895 -0.9238795325112871 -0.0
  outer loop
    vertex 35.5 4.73205080756886 1.75
    vertex 35.01763809020505 4.931851652578119 2.8199664825478975e-15
    vertex 35.5 4.73205080756886 2.8199664825478975e-15
  endloop
endfacet
facet normal -0.38268343236508895 -0.9238795325112871 -0.0
  outer loop
    vertex 35.01763809020505 4.931851652578119 2.8199664825478975e-15
    vertex 35.5 4.73205080756886 1.75
    vertex 35.01763809020505 4.931851652578119 1.75
  endloop
endfacet
facet normal -0.13052619222005216 -0.9914448613738104 -0.0
  outer loop
    vertex 35.01763809020505 4.931851652578119 1.75
    vertex 34.50000000000001 4.999999999999982 2.8199664825478975e-15
    vertex 35.01763809020505 4.931851652578119 2.8199664825478975e-15
  endloop
endfacet
facet normal -0.13052619222005216 -0.9914448613738104 -0.0
  outer loop
    vertex 34.50000000000001 4.999999999999982 2.8199664825478975e-15
    vertex 35.01763809020505 4.931851652578119 1.75
    vertex 34.50000000000001 4.999999999999982 1.75
  endloop
endfacet
facet normal 0.13052619222005077 -0.9914448613738106 -0.0
  outer loop
    vertex 34.50000000000001 4.999999999999982 1.75
    vertex 33.98236190979496 4.931851652578119 2.8199664825478975e-15
    vertex 34.50000000000001 4.999999999999982 2.8199664825478975e-15
  endloop
endfacet
facet normal 0.13052619222005077 -0.9914448613738106 -0.0
  outer loop
    vertex 33.98236190979496 4.931851652578119 2.8199664825478975e-15
    vertex 34.50000000000001 4.999999999999982 1.75
    vertex 33.98236190979496 4.931851652578119 1.75
  endloop
endfacet
facet normal 0.3826834323650951 -0.9238795325112845 -0.0
  outer loop
    vertex 33.98236190979496 4.931851652578119 1.75
    vertex 33.50000000000001 4.732050807568859 2.8199664825478975e-15
    vertex 33.98236190979496 4.931851652578119 2.8199664825478975e-15
  endloop
endfacet
facet normal 0.3826834323650951 -0.9238795325112845 -0.0
  outer loop
    vertex 33.50000000000001 4.732050807568859 2.8199664825478975e-15
    vertex 33.98236190979496 4.931851652578119 1.75
    vertex 33.50000000000001 4.732050807568859 1.75
  endloop
endfacet
facet normal 0.6087614290087213 -0.7933533402912347 -0.0
  outer loop
    vertex 33.50000000000001 4.732050807568859 1.75
    vertex 33.085786437626915 4.414213562373076 2.8199664825478975e-15
    vertex 33.50000000000001 4.732050807568859 2.8199664825478975e-15
  endloop
endfacet
facet normal 0.6087614290087213 -0.7933533402912347 -0.0
  outer loop
    vertex 33.085786437626915 4.414213562373076 2.8199664825478975e-15
    vertex 33.50000000000001 4.732050807568859 1.75
    vertex 33.085786437626915 4.414213562373076 1.75
  endloop
endfacet
facet normal 0.7933533402912316 -0.6087614290087254 -0.0
  outer loop
    vertex 33.085786437626915 4.414213562373076 2.8199664825478975e-15
    vertex 32.767949192431125 3.9999999999999822 1.75
    vertex 32.767949192431125 3.9999999999999822 2.8199664825478975e-15
  endloop
endfacet
facet normal 0.7933533402912316 -0.6087614290087254 -0.0
  outer loop
    vertex 32.767949192431125 3.9999999999999822 1.75
    vertex 33.085786437626915 4.414213562373076 2.8199664825478975e-15
    vertex 33.085786437626915 4.414213562373076 1.75
  endloop
endfacet
facet normal 0.9238795325112863 -0.3826834323650914 -0.0
  outer loop
    vertex 32.767949192431125 3.9999999999999822 2.8199664825478975e-15
    vertex 32.56814834742187 3.5176380902050237 1.75
    vertex 32.56814834742187 3.5176380902050237 2.8199664825478975e-15
  endloop
endfacet
facet normal 0.9238795325112863 -0.3826834323650914 -0.0
  outer loop
    vertex 32.56814834742187 3.5176380902050237 1.75
    vertex 32.767949192431125 3.9999999999999822 2.8199664825478975e-15
    vertex 32.767949192431125 3.9999999999999822 1.75
  endloop
endfacet
facet normal 0.9914448613738117 -0.13052619222004133 -0.0
  outer loop
    vertex 32.56814834742187 3.5176380902050237 2.8199664825478975e-15
    vertex 32.50000000000001 2.999999999999983 1.75
    vertex 32.50000000000001 2.999999999999983 2.8199664825478975e-15
  endloop
endfacet
facet normal 0.9914448613738117 -0.13052619222004133 -0.0
  outer loop
    vertex 32.50000000000001 2.999999999999983 1.75
    vertex 32.56814834742187 3.5176380902050237 2.8199664825478975e-15
    vertex 32.56814834742187 3.5176380902050237 1.75
  endloop
endfacet
facet normal 1.0 2.8199664825478975e-15 0.0
  outer loop
    vertex 46.800000000000026 8.459899447643692e-15 2.75
    vertex 46.80000000000003 -1.9999999999999913 3.75
    vertex 46.80000000000003 -1.9999999999999913 2.75
  endloop
endfacet
facet normal 1.0 2.8199664825478975e-15 0.0
  outer loop
    vertex 46.80000000000003 -1.9999999999999913 3.75
    vertex 46.800000000000026 8.459899447643692e-15 2.75
    vertex 46.800000000000026 8.459899447643692e-15 3.75
  endloop
endfacet
facet normal -1.0 0.0 0.0
  outer loop
    vertex 54.800000000000026 0.0 3.75
    vertex 54.800000000000026 -1.9999999999999998 2.75
    vertex 54.800000000000026 -1.9999999999999998 3.75
  endloop
endfacet
facet normal -1.0 0.0 0.0
  outer loop
    vertex 54.800000000000026 -1.9999999999999998 2.75
    vertex 54.800000000000026 0.0 3.75
    vertex 54.800000000000026 0.0 2.75
  endloop
endfacet
endsolid PumpController-Cover
