solid ScrewTerminal-PCB-Cover
facet normal -3.191891195797325e-16 0.0 1.0
  outer loop
    vertex -7.999999999999996 18.0 3.524958103184872e-15
    vertex -9.99999999999999 38.99999999999999 4.229949723821846e-15
    vertex -9.99999999999999 18.0 4.229949723821846e-15
  endloop
endfacet
facet normal -3.191891195797325e-16 0.0 1.0
  outer loop
    vertex -70.0 0.0 1.2689849171465539e-14
    vertex -67.00000000000003 10.0 -8.459899447643692e-15
    vertex -70.0 50.0 1.2689849171465539e-14
  endloop
endfacet
facet normal -3.191891195797325e-16 0.0 1.0
  outer loop
    vertex -67.00000000000003 10.0 -8.459899447643692e-15
    vertex -70.0 0.0 1.2689849171465539e-14
    vertex 0.0 0.0 0.0
  endloop
endfacet
facet normal -3.191891195797325e-16 0.0 1.0
  outer loop
    vertex -67.00000000000003 10.0 -8.459899447643692e-15
    vertex 0.0 0.0 0.0
    vertex -36.0 10.0 -1.3394840792102513e-14
  endloop
endfacet
facet normal -3.191891195797325e-16 0.0 1.0
  outer loop
    vertex -36.0 10.0 -1.3394840792102513e-14
    vertex 0.0 0.0 0.0
    vertex -28.999999999999996 10.0 8.459899447643692e-15
  endloop
endfacet
facet normal -3.191891195797325e-16 0.0 1.0
  outer loop
    vertex -36.0 10.0 -1.3394840792102513e-14
    vertex -28.999999999999996 10.0 8.459899447643692e-15
    vertex -36.0 18.0 -1.3394840792102513e-14
  endloop
endfacet
facet normal -3.191891195797325e-16 0.0 1.0
  outer loop
    vertex -36.0 18.0 -1.3394840792102513e-14
    vertex -28.999999999999996 10.0 8.459899447643692e-15
    vertex -36.0 35.0 -1.3394840792102513e-14
  endloop
endfacet
facet normal -3.191891195797325e-16 0.0 1.0
  outer loop
    vertex -36.0 35.0 -1.3394840792102513e-14
    vertex -28.999999999999996 10.0 8.459899447643692e-15
    vertex -36.0 43.0 -1.3394840792102513e-14
  endloop
endfacet
facet normal -3.191891195797325e-16 0.0 1.0
  outer loop
    vertex -28.999999999999996 10.0 8.459899447643692e-15
    vertex 0.0 0.0 0.0
    vertex -7.999999999999996 10.0 3.524958103184872e-15
  endloop
endfacet
facet normal -3.191891195797325e-16 0.0 1.0
  outer loop
    vertex -7.999999999999996 10.0 3.524958103184872e-15
    vertex 0.0 0.0 0.0
    vertex -7.999999999999996 18.0 3.524958103184872e-15
  endloop
endfacet
facet normal -3.191891195797325e-16 0.0 1.0
  outer loop
    vertex -70.0 50.0 1.2689849171465539e-14
    vertex -67.00000000000003 43.0 -8.459899447643692e-15
    vertex 0.0 50.0 0.0
  endloop
endfacet
facet normal -3.191891195797325e-16 0.0 1.0
  outer loop
    vertex -67.00000000000003 43.0 -8.459899447643692e-15
    vertex -70.0 50.0 1.2689849171465539e-14
    vertex -67.00000000000003 10.0 -8.459899447643692e-15
  endloop
endfacet
facet normal -3.191891195797325e-16 0.0 1.0
  outer loop
    vertex -67.00000000000003 43.0 -8.459899447643692e-15
    vertex -67.00000000000003 10.0 -8.459899447643692e-15
    vertex -67.00000000000003 18.0 -8.459899447643692e-15
  endloop
endfacet
facet normal -3.191891195797325e-16 0.0 1.0
  outer loop
    vertex -67.00000000000003 43.0 -8.459899447643692e-15
    vertex -67.00000000000003 18.0 -8.459899447643692e-15
    vertex -67.00000000000003 35.0 -8.459899447643692e-15
  endloop
endfacet
facet normal -3.191891195797325e-16 0.0 1.0
  outer loop
    vertex 0.0 50.0 0.0
    vertex -67.00000000000003 43.0 -8.459899447643692e-15
    vertex -36.0 43.0 -1.3394840792102513e-14
  endloop
endfacet
facet normal -3.191891195797325e-16 0.0 1.0
  outer loop
    vertex 0.0 50.0 0.0
    vertex -36.0 43.0 -1.3394840792102513e-14
    vertex -27.99999999999997 38.99999999999999 1.127986593019159e-14
  endloop
endfacet
facet normal -3.191891195797325e-16 0.0 1.0
  outer loop
    vertex -27.99999999999997 38.99999999999999 1.127986593019159e-14
    vertex -36.0 43.0 -1.3394840792102513e-14
    vertex -28.999999999999996 18.0 8.459899447643692e-15
  endloop
endfacet
facet normal -3.191891195797325e-16 0.0 1.0
  outer loop
    vertex -28.999999999999996 18.0 8.459899447643692e-15
    vertex -36.0 43.0 -1.3394840792102513e-14
    vertex -28.999999999999996 10.0 8.459899447643692e-15
  endloop
endfacet
facet normal -3.191891195797325e-16 0.0 1.0
  outer loop
    vertex -27.99999999999997 38.99999999999999 1.127986593019159e-14
    vertex -28.999999999999996 18.0 8.459899447643692e-15
    vertex -27.999999999999975 18.0 8.459899447643692e-15
  endloop
endfacet
facet normal -3.191891195797325e-16 0.0 1.0
  outer loop
    vertex 0.0 50.0 0.0
    vertex -27.99999999999997 38.99999999999999 1.127986593019159e-14
    vertex -9.99999999999999 38.99999999999999 4.229949723821846e-15
  endloop
endfacet
facet normal -3.191891195797325e-16 0.0 1.0
  outer loop
    vertex 0.0 50.0 0.0
    vertex -9.99999999999999 38.99999999999999 4.229949723821846e-15
    vertex -7.999999999999996 18.0 3.524958103184872e-15
  endloop
endfacet
facet normal -3.191891195797325e-16 0.0 1.0
  outer loop
    vertex 0.0 50.0 0.0
    vertex -7.999999999999996 18.0 3.524958103184872e-15
    vertex 0.0 0.0 0.0
  endloop
endfacet
facet normal -3.191891195797325e-16 0.0 1.0
  outer loop
    vertex -36.0 18.0 -1.3394840792102513e-14
    vertex -67.00000000000003 35.0 -8.459899447643692e-15
    vertex -67.00000000000003 18.0 -8.459899447643692e-15
  endloop
endfacet
facet normal -3.191891195797325e-16 0.0 1.0
  outer loop
    vertex -67.00000000000003 35.0 -8.459899447643692e-15
    vertex -36.0 18.0 -1.3394840792102513e-14
    vertex -36.0 35.0 -1.3394840792102513e-14
  endloop
endfacet
facet normal 3.191891195797325e-16 0.0 -1.0
  outer loop
    vertex -28.000000000000018 18.0 -0.4999999999999899
    vertex -28.999999999999964 18.0 -0.49999999999999417
    vertex -28.000000000000018 38.99999999999999 -0.4999999999999899
  endloop
endfacet
facet normal 3.191891195797325e-16 0.0 -1.0
  outer loop
    vertex -70.00000000000003 50.0 -0.5000000000000061
    vertex -66.99999999999993 43.0 -0.49999999999996525
    vertex -70.00000000000003 0.0 -0.5000000000000061
  endloop
endfacet
facet normal 3.191891195797325e-16 0.0 -1.0
  outer loop
    vertex -66.99999999999993 43.0 -0.49999999999996525
    vertex -70.00000000000003 50.0 -0.5000000000000061
    vertex -2.203098814490545e-16 50.0 -0.4999999999999997
  endloop
endfacet
facet normal 3.191891195797325e-16 0.0 -1.0
  outer loop
    vertex -66.99999999999993 43.0 -0.49999999999996525
    vertex -2.203098814490545e-16 50.0 -0.4999999999999997
    vertex -35.999999999999964 43.0 -0.5000000000000033
  endloop
endfacet
facet normal 3.191891195797325e-16 0.0 -1.0
  outer loop
    vertex -35.999999999999964 43.0 -0.5000000000000033
    vertex -2.203098814490545e-16 50.0 -0.4999999999999997
    vertex -28.000000000000018 38.99999999999999 -0.4999999999999899
  endloop
endfacet
facet normal 3.191891195797325e-16 0.0 -1.0
  outer loop
    vertex -35.999999999999964 43.0 -0.5000000000000033
    vertex -28.000000000000018 38.99999999999999 -0.4999999999999899
    vertex -35.999999999999964 35.0 -0.5000000000000033
  endloop
endfacet
facet normal 3.191891195797325e-16 0.0 -1.0
  outer loop
    vertex -35.999999999999964 35.0 -0.5000000000000033
    vertex -28.000000000000018 38.99999999999999 -0.4999999999999899
    vertex -35.999999999999964 18.0 -0.5000000000000033
  endloop
endfacet
facet normal 3.191891195797325e-16 0.0 -1.0
  outer loop
    vertex -35.999999999999964 18.0 -0.5000000000000033
    vertex -28.000000000000018 38.99999999999999 -0.4999999999999899
    vertex -35.999999999999964 10.0 -0.5000000000000033
  endloop
endfacet
facet normal 3.191891195797325e-16 0.0 -1.0
  outer loop
    vertex -35.999999999999964 10.0 -0.5000000000000033
    vertex -28.000000000000018 38.99999999999999 -0.4999999999999899
    vertex -28.999999999999964 18.0 -0.49999999999999417
  endloop
endfacet
facet normal 3.191891195797325e-16 0.0 -1.0
  outer loop
    vertex -28.000000000000018 38.99999999999999 -0.4999999999999899
    vertex -2.203098814490545e-16 50.0 -0.4999999999999997
    vertex -9.99999999999999 38.99999999999999 -0.49999999999999434
  endloop
endfacet
facet normal 3.191891195797325e-16 0.0 -1.0
  outer loop
    vertex -9.99999999999999 38.99999999999999 -0.49999999999999434
    vertex -2.203098814490545e-16 50.0 -0.4999999999999997
    vertex -9.99999999999999 18.0 -0.49999999999999434
  endloop
endfacet
facet normal 3.191891195797325e-16 0.0 -1.0
  outer loop
    vertex -9.99999999999999 18.0 -0.49999999999999434
    vertex -2.203098814490545e-16 50.0 -0.4999999999999997
    vertex -7.999999999999989 18.0 -0.5000000000000013
  endloop
endfacet
facet normal 3.191891195797325e-16 0.0 -1.0
  outer loop
    vertex -7.999999999999989 18.0 -0.5000000000000013
    vertex -2.203098814490545e-16 50.0 -0.4999999999999997
    vertex -7.999999999999989 10.0 -0.5000000000000013
  endloop
endfacet
facet normal 3.191891195797325e-16 0.0 -1.0
  outer loop
    vertex -70.00000000000003 0.0 -0.5000000000000061
    vertex -66.99999999999993 10.0 -0.49999999999996525
    vertex -2.203098814490545e-16 0.0 -0.4999999999999997
  endloop
endfacet
facet normal 3.191891195797325e-16 0.0 -1.0
  outer loop
    vertex -66.99999999999993 10.0 -0.49999999999996525
    vertex -70.00000000000003 0.0 -0.5000000000000061
    vertex -66.99999999999993 43.0 -0.49999999999996525
  endloop
endfacet
facet normal 3.191891195797325e-16 0.0 -1.0
  outer loop
    vertex -66.99999999999993 10.0 -0.49999999999996525
    vertex -66.99999999999993 43.0 -0.49999999999996525
    vertex -66.99999999999993 35.0 -0.49999999999996525
  endloop
endfacet
facet normal 3.191891195797325e-16 0.0 -1.0
  outer loop
    vertex -66.99999999999993 10.0 -0.49999999999996525
    vertex -66.99999999999993 35.0 -0.49999999999996525
    vertex -66.99999999999993 18.0 -0.49999999999996525
  endloop
endfacet
facet normal 3.191891195797325e-16 0.0 -1.0
  outer loop
    vertex -2.203098814490545e-16 0.0 -0.4999999999999997
    vertex -66.99999999999993 10.0 -0.49999999999996525
    vertex -35.999999999999964 10.0 -0.5000000000000033
  endloop
endfacet
facet normal 3.191891195797325e-16 0.0 -1.0
  outer loop
    vertex -2.203098814490545e-16 0.0 -0.4999999999999997
    vertex -35.999999999999964 10.0 -0.5000000000000033
    vertex -28.999999999999964 10.0 -0.49999999999999417
  endloop
endfacet
facet normal 3.191891195797325e-16 0.0 -1.0
  outer loop
    vertex -28.999999999999964 10.0 -0.49999999999999417
    vertex -35.999999999999964 10.0 -0.5000000000000033
    vertex -28.999999999999964 18.0 -0.49999999999999417
  endloop
endfacet
facet normal 3.191891195797325e-16 0.0 -1.0
  outer loop
    vertex -2.203098814490545e-16 0.0 -0.4999999999999997
    vertex -28.999999999999964 10.0 -0.49999999999999417
    vertex -7.999999999999989 10.0 -0.5000000000000013
  endloop
endfacet
facet normal 3.191891195797325e-16 0.0 -1.0
  outer loop
    vertex -2.203098814490545e-16 0.0 -0.4999999999999997
    vertex -7.999999999999989 10.0 -0.5000000000000013
    vertex -2.203098814490545e-16 50.0 -0.4999999999999997
  endloop
endfacet
facet normal 3.191891195797325e-16 0.0 -1.0
  outer loop
    vertex -35.999999999999964 35.0 -0.5000000000000033
    vertex -66.99999999999993 18.0 -0.49999999999996525
    vertex -66.99999999999993 35.0 -0.49999999999996525
  endloop
endfacet
facet normal 3.191891195797325e-16 0.0 -1.0
  outer loop
    vertex -66.99999999999993 18.0 -0.49999999999996525
    vertex -35.999999999999964 35.0 -0.5000000000000033
    vertex -35.999999999999964 18.0 -0.5000000000000033
  endloop
endfacet
facet normal 1.0 0.0 3.191891195797325e-16
  outer loop
    vertex -2.203098814490545e-16 50.0 -0.4999999999999997
    vertex 0.0 0.0 0.0
    vertex -2.203098814490545e-16 0.0 -0.4999999999999997
  endloop
endfacet
facet normal 1.0 0.0 3.191891195797325e-16
  outer loop
    vertex 0.0 0.0 0.0
    vertex -2.203098814490545e-16 50.0 -0.4999999999999997
    vertex 0.0 50.0 0.0
  endloop
endfacet
facet normal 0.0 1.0 0.0
  outer loop
    vertex -70.0 50.0 1.2689849171465539e-14
    vertex -2.203098814490545e-16 50.0 -0.4999999999999997
    vertex -70.00000000000003 50.0 -0.5000000000000061
  endloop
endfacet
facet normal 0.0 1.0 0.0
  outer loop
    vertex -2.203098814490545e-16 50.0 -0.4999999999999997
    vertex -70.0 50.0 1.2689849171465539e-14
    vertex 0.0 50.0 0.0
  endloop
endfacet
facet normal -1.0 0.0 -3.191891195797325e-16
  outer loop
    vertex -70.0 50.0 1.2689849171465539e-14
    vertex -70.00000000000003 0.0 -0.5000000000000061
    vertex -70.0 0.0 1.2689849171465539e-14
  endloop
endfacet
facet normal -1.0 0.0 -3.191891195797325e-16
  outer loop
    vertex -70.00000000000003 0.0 -0.5000000000000061
    vertex -70.0 50.0 1.2689849171465539e-14
    vertex -70.00000000000003 50.0 -0.5000000000000061
  endloop
endfacet
facet normal 0.0 -1.0 0.0
  outer loop
    vertex -2.203098814490545e-16 0.0 -0.4999999999999997
    vertex -70.0 0.0 1.2689849171465539e-14
    vertex -70.00000000000003 0.0 -0.5000000000000061
  endloop
endfacet
facet normal 0.0 -1.0 0.0
  outer loop
    vertex -70.0 0.0 1.2689849171465539e-14
    vertex -2.203098814490545e-16 0.0 -0.4999999999999997
    vertex 0.0 0.0 0.0
  endloop
endfacet
facet normal 1.0 -2.685682364331332e-16 3.191891195797325e-16
  outer loop
    vertex -28.000000000000018 38.99999999999999 -0.4999999999999899
    vertex -27.999999999999975 18.0 8.459899447643692e-15
    vertex -28.000000000000018 18.0 -0.4999999999999899
  endloop
endfacet
facet normal 1.0 -2.685682364331332e-16 3.191891195797325e-16
  outer loop
    vertex -27.999999999999975 18.0 8.459899447643692e-15
    vertex -28.000000000000018 38.99999999999999 -0.4999999999999899
    vertex -27.99999999999997 38.99999999999999 1.127986593019159e-14
  endloop
endfacet
facet normal 0.0 -1.0 0.0
  outer loop
    vertex -9.99999999999999 38.99999999999999 4.229949723821846e-15
    vertex -28.000000000000018 38.99999999999999 -0.4999999999999899
    vertex -9.99999999999999 38.99999999999999 -0.49999999999999434
  endloop
endfacet
facet normal 0.0 -1.0 0.0
  outer loop
    vertex -28.000000000000018 38.99999999999999 -0.4999999999999899
    vertex -9.99999999999999 38.99999999999999 4.229949723821846e-15
    vertex -27.99999999999997 38.99999999999999 1.127986593019159e-14
  endloop
endfacet
facet normal -1.0 0.0 -3.191891195797325e-16
  outer loop
    vertex -9.99999999999999 38.99999999999999 4.229949723821846e-15
    vertex -9.99999999999999 18.0 -0.49999999999999434
    vertex -9.99999999999999 18.0 4.229949723821846e-15
  endloop
endfacet
facet normal -1.0 0.0 -3.191891195797325e-16
  outer loop
    vertex -9.99999999999999 18.0 -0.49999999999999434
    vertex -9.99999999999999 38.99999999999999 4.229949723821846e-15
    vertex -9.99999999999999 38.99999999999999 -0.49999999999999434
  endloop
endfacet
facet normal 0.0 -1.0 0.0
  outer loop
    vertex -7.999999999999996 18.0 3.524958103184872e-15
    vertex -9.99999999999999 18.0 -0.49999999999999434
    vertex -7.999999999999989 18.0 -0.5000000000000013
  endloop
endfacet
facet normal 0.0 -1.0 0.0
  outer loop
    vertex -9.99999999999999 18.0 -0.49999999999999434
    vertex -7.999999999999996 18.0 3.524958103184872e-15
    vertex -9.99999999999999 18.0 4.229949723821846e-15
  endloop
endfacet
facet normal -1.0 0.0 -3.191891195797325e-16
  outer loop
    vertex -7.999999999999996 18.0 3.524958103184872e-15
    vertex -7.999999999999989 10.0 -0.5000000000000013
    vertex -7.999999999999996 10.0 3.524958103184872e-15
  endloop
endfacet
facet normal -1.0 0.0 -3.191891195797325e-16
  outer loop
    vertex -7.999999999999989 10.0 -0.5000000000000013
    vertex -7.999999999999996 18.0 3.524958103184872e-15
    vertex -7.999999999999989 18.0 -0.5000000000000013
  endloop
endfacet
facet normal 0.0 1.0 0.0
  outer loop
    vertex -28.999999999999964 10.0 -0.49999999999999417
    vertex -7.999999999999996 10.0 3.524958103184872e-15
    vertex -7.999999999999989 10.0 -0.5000000000000013
  endloop
endfacet
facet normal 0.0 1.0 0.0
  outer loop
    vertex -7.999999999999996 10.0 3.524958103184872e-15
    vertex -28.999999999999964 10.0 -0.49999999999999417
    vertex -28.999999999999996 10.0 8.459899447643692e-15
  endloop
endfacet
facet normal 0.0 1.0 0.0
  outer loop
    vertex -66.99999999999993 10.0 -0.49999999999996525
    vertex -36.0 10.0 -1.3394840792102513e-14
    vertex -35.999999999999964 10.0 -0.5000000000000033
  endloop
endfacet
facet normal 0.0 1.0 0.0
  outer loop
    vertex -36.0 10.0 -1.3394840792102513e-14
    vertex -66.99999999999993 10.0 -0.49999999999996525
    vertex -67.00000000000003 10.0 -8.459899447643692e-15
  endloop
endfacet
facet normal 1.0 0.0 3.191891195797325e-16
  outer loop
    vertex -66.99999999999993 18.0 -0.49999999999996525
    vertex -67.00000000000003 10.0 -8.459899447643692e-15
    vertex -66.99999999999993 10.0 -0.49999999999996525
  endloop
endfacet
facet normal 1.0 0.0 3.191891195797325e-16
  outer loop
    vertex -67.00000000000003 10.0 -8.459899447643692e-15
    vertex -66.99999999999993 18.0 -0.49999999999996525
    vertex -67.00000000000003 18.0 -8.459899447643692e-15
  endloop
endfacet
facet normal 0.0 -1.0 0.0
  outer loop
    vertex -36.0 18.0 -1.3394840792102513e-14
    vertex -66.99999999999993 18.0 -0.49999999999996525
    vertex -35.999999999999964 18.0 -0.5000000000000033
  endloop
endfacet
facet normal 0.0 -1.0 0.0
  outer loop
    vertex -66.99999999999993 18.0 -0.49999999999996525
    vertex -36.0 18.0 -1.3394840792102513e-14
    vertex -67.00000000000003 18.0 -8.459899447643692e-15
  endloop
endfacet
facet normal -1.0 0.0 -3.191891195797325e-16
  outer loop
    vertex -36.0 18.0 -1.3394840792102513e-14
    vertex -35.999999999999964 10.0 -0.5000000000000033
    vertex -36.0 10.0 -1.3394840792102513e-14
  endloop
endfacet
facet normal -1.0 0.0 -3.191891195797325e-16
  outer loop
    vertex -35.999999999999964 10.0 -0.5000000000000033
    vertex -36.0 18.0 -1.3394840792102513e-14
    vertex -35.999999999999964 18.0 -0.5000000000000033
  endloop
endfacet
facet normal 0.0 1.0 0.0
  outer loop
    vertex -66.99999999999993 35.0 -0.49999999999996525
    vertex -36.0 35.0 -1.3394840792102513e-14
    vertex -35.999999999999964 35.0 -0.5000000000000033
  endloop
endfacet
facet normal 0.0 1.0 0.0
  outer loop
    vertex -36.0 35.0 -1.3394840792102513e-14
    vertex -66.99999999999993 35.0 -0.49999999999996525
    vertex -67.00000000000003 35.0 -8.459899447643692e-15
  endloop
endfacet
facet normal 1.0 0.0 3.191891195797325e-16
  outer loop
    vertex -66.99999999999993 43.0 -0.49999999999996525
    vertex -67.00000000000003 35.0 -8.459899447643692e-15
    vertex -66.99999999999993 35.0 -0.49999999999996525
  endloop
endfacet
facet normal 1.0 0.0 3.191891195797325e-16
  outer loop
    vertex -67.00000000000003 35.0 -8.459899447643692e-15
    vertex -66.99999999999993 43.0 -0.49999999999996525
    vertex -67.00000000000003 43.0 -8.459899447643692e-15
  endloop
endfacet
facet normal 0.0 -1.0 0.0
  outer loop
    vertex -36.0 43.0 -1.3394840792102513e-14
    vertex -66.99999999999993 43.0 -0.49999999999996525
    vertex -35.999999999999964 43.0 -0.5000000000000033
  endloop
endfacet
facet normal 0.0 -1.0 0.0
  outer loop
    vertex -66.99999999999993 43.0 -0.49999999999996525
    vertex -36.0 43.0 -1.3394840792102513e-14
    vertex -67.00000000000003 43.0 -8.459899447643692e-15
  endloop
endfacet
facet normal -1.0 0.0 -3.191891195797325e-16
  outer loop
    vertex -36.0 43.0 -1.3394840792102513e-14
    vertex -35.999999999999964 35.0 -0.5000000000000033
    vertex -36.0 35.0 -1.3394840792102513e-14
  endloop
endfacet
facet normal -1.0 0.0 -3.191891195797325e-16
  outer loop
    vertex -35.999999999999964 35.0 -0.5000000000000033
    vertex -36.0 43.0 -1.3394840792102513e-14
    vertex -35.999999999999964 43.0 -0.5000000000000033
  endloop
endfacet
facet normal 1.0 0.0 3.191891195797325e-16
  outer loop
    vertex -28.999999999999964 18.0 -0.49999999999999417
    vertex -28.999999999999996 10.0 8.459899447643692e-15
    vertex -28.999999999999964 10.0 -0.49999999999999417
  endloop
endfacet
facet normal 1.0 0.0 3.191891195797325e-16
  outer loop
    vertex -28.999999999999996 10.0 8.459899447643692e-15
    vertex -28.999999999999964 18.0 -0.49999999999999417
    vertex -28.999999999999996 18.0 8.459899447643692e-15
  endloop
endfacet
facet normal 0.0 -1.0 0.0
  outer loop
    vertex -28.000000000000018 18.0 -0.4999999999999899
    vertex -28.999999999999996 18.0 8.459899447643692e-15
    vertex -28.999999999999964 18.0 -0.49999999999999417
  endloop
endfacet
facet normal 0.0 -1.0 0.0
  outer loop
    vertex -28.999999999999996 18.0 8.459899447643692e-15
    vertex -28.000000000000018 18.0 -0.4999999999999899
    vertex -27.999999999999975 18.0 8.459899447643692e-15
  endloop
endfacet
endsolid ScrewTerminal-PCB-Cover
