solid SideCover
facet normal -1.6494136323699934e-15 -0.999999999999901 4.4507558638330405e-07
  outer loop
    vertex 56.00000017547455 5.856351137325377 3.9999977555958286
    vertex 3.0000001694903946 5.856350023417097 1.5229239428927102
    vertex 56.00000016949056 5.85635002341701 1.5229239428926222
  endloop
endfacet
facet normal -1.6494136323699934e-15 -0.999999999999901 4.4507558638330405e-07
  outer loop
    vertex 3.0000001694903946 5.856350023417097 1.5229239428927102
    vertex 56.00000017547455 5.856351137325377 3.9999977555958286
    vertex 3.0000001754743835 5.856351137325465 3.999997755595913
  endloop
endfacet
facet normal 1.596207442951635e-15 -1.5473051991248987e-31 1.0
  outer loop
    vertex 56.00000017547455 5.856351137325377 3.9999977555958286
    vertex 3.0000001754743835 9.856351137325468 3.999997755595913
    vertex 3.0000001754743835 5.856351137325465 3.999997755595913
  endloop
endfacet
facet normal 1.596207442951635e-15 -1.5473051991248987e-31 1.0
  outer loop
    vertex 3.0000001754743835 9.856351137325468 3.999997755595913
    vertex 56.00000017547455 5.856351137325377 3.9999977555958286
    vertex 56.00000017547455 9.856351137325376 3.9999977555958286
  endloop
endfacet
facet normal 1.0 -1.7735644167828463e-15 -1.7026206571226862e-15
  outer loop
    vertex 56.00000017547455 9.856351137325376 1.4999977555958288
    vertex 56.00000017547455 5.856351137325377 3.9999977555958286
    vertex 56.00000016949056 5.85635002341701 1.5229239428926222
  endloop
endfacet
facet normal 1.0 -1.7735644167828463e-15 -1.7026206571226862e-15
  outer loop
    vertex 56.00000017547455 5.856351137325377 3.9999977555958286
    vertex 56.00000017547455 9.856351137325376 1.4999977555958288
    vertex 56.00000017547455 9.856351137325376 3.9999977555958286
  endloop
endfacet
facet normal 1.7558281872467986e-15 1.0 1.1715257206887539e-30
  outer loop
    vertex 3.0000001754743835 9.856351137325468 1.4999977555959179
    vertex 56.00000017547455 9.856351137325376 3.9999977555958286
    vertex 56.00000017547455 9.856351137325376 1.4999977555958288
  endloop
endfacet
facet normal 1.7558281872467986e-15 1.0 1.1715257206887539e-30
  outer loop
    vertex 56.00000017547455 9.856351137325376 3.9999977555958286
    vertex 3.0000001754743835 9.856351137325468 1.4999977555959179
    vertex 3.0000001754743835 9.856351137325468 3.999997755595913
  endloop
endfacet
facet normal -1.0 9.399896030601076e-16 3.2179681282083394e-22
  outer loop
    vertex 3.0000001754743835 5.856351137325465 3.999997755595913
    vertex 3.0000001754743835 9.856351137325468 1.4999977555959179
    vertex 3.0000001694903946 5.856350023417097 1.5229239428927102
  endloop
endfacet
facet normal -1.0 9.399896030601076e-16 3.2179681282083394e-22
  outer loop
    vertex 3.0000001754743835 9.856351137325468 1.4999977555959179
    vertex 3.0000001754743835 5.856351137325465 3.999997755595913
    vertex 3.0000001754743835 9.856351137325468 3.999997755595913
  endloop
endfacet
facet normal 9.715602194027567e-09 3.643585776847961e-08 0.9999999999999993
  outer loop
    vertex 57.99999898515454 3.856348835806081 1.5229246095678548
    vertex 1.77001935272621e-07 47.85635116569344 1.522923433059636
    vertex 1.684046467880972e-07 3.8563506659073137 1.522925636732947
  endloop
endfacet
facet normal 9.715602194027567e-09 3.643585776847961e-08 0.9999999999999993
  outer loop
    vertex 1.77001935272621e-07 47.85635116569344 1.522923433059636
    vertex 57.99999898515454 3.856348835806081 1.5229246095678548
    vertex 61.00000017700192 47.85635116569344 1.522923433059636
  endloop
endfacet
facet normal 9.715602194027567e-09 3.643585776847961e-08 0.9999999999999993
  outer loop
    vertex 61.00000017700192 47.85635116569344 1.522923433059636
    vertex 57.99999898515454 3.856348835806081 1.5229246095678548
    vertex 60.99999892776572 3.85634883580608 1.5229245952325146
  endloop
endfacet
facet normal 0.0 0.9999999999999997 -2.7365705888501242e-08
  outer loop
    vertex 1.77001935272621e-07 47.85635116569344 1.522923433059636
    vertex 61.0000001754744 47.856351124017536 -1.3708067257867107e-06
    vertex 1.75474419372712e-07 47.856351124017536 -1.3708067257867107e-06
  endloop
endfacet
facet normal 0.0 0.9999999999999997 -2.7365705888501242e-08
  outer loop
    vertex 61.0000001754744 47.856351124017536 -1.3708067257867107e-06
    vertex 1.77001935272621e-07 47.85635116569344 1.522923433059636
    vertex 61.00000017700192 47.85635116569344 1.522923433059636
  endloop
endfacet
facet normal 0.9999991998850606 2.7437955742768878e-05 0.0012647040750418848
  outer loop
    vertex 61.005796225161454 3.8608587430412364 0.005767094098032199
    vertex 61.00000017700192 47.85635116569344 1.522923433059636
    vertex 60.99999892776572 3.85634883580608 1.5229245952325146
  endloop
endfacet
facet normal 0.9999991998850606 2.7437955742768878e-05 0.0012647040750418848
  outer loop
    vertex 61.00000017700192 47.85635116569344 1.522923433059636
    vertex 61.005796225161454 3.8608587430412364 0.005767094098032199
    vertex 61.0000001754744 47.856351124017536 -1.3708067257867107e-06
  endloop
endfacet
facet normal 0.00015445823821898805 -0.9999957922592089 -0.0028968269761927333
  outer loop
    vertex 60.99999892776572 3.85634883580608 1.5229245952325146
    vertex 58.00579628255027 3.860858743041237 0.00576710843337235
    vertex 61.005796225161454 3.8608587430412364 0.005767094098032199
  endloop
endfacet
facet normal 0.00015445823821898805 -0.9999957922592089 -0.0028968269761927333
  outer loop
    vertex 58.00579628255027 3.860858743041237 0.00576710843337235
    vertex 60.99999892776572 3.85634883580608 1.5229245952325146
    vertex 58.00470339127121 3.8577535636758027 0.577773528521446
  endloop
endfacet
facet normal 0.00015445823821898805 -0.9999957922592089 -0.0028968269761927333
  outer loop
    vertex 58.00470339127121 3.8577535636758027 0.577773528521446
    vertex 60.99999892776572 3.85634883580608 1.5229245952325146
    vertex 57.99999898515454 3.856348835806081 1.5229246095678548
  endloop
endfacet
facet normal -5.414665395658184e-05 7.612723753615108e-05 0.9999999956363919
  outer loop
    vertex 58.00579628255027 3.860858743041237 0.00576710843337235
    vertex 1.75474419372712e-07 47.856351124017536 -1.3708067257867107e-06
    vertex 1.4140043653642635e-08 3.8563506659073146 -1.1046206628078631e-07
  endloop
endfacet
facet normal -5.414665395658184e-05 7.612723753615108e-05 0.9999999956363919
  outer loop
    vertex 1.75474419372712e-07 47.856351124017536 -1.3708067257867107e-06
    vertex 58.00579628255027 3.860858743041237 0.00576710843337235
    vertex 61.0000001754744 47.856351124017536 -1.3708067257867107e-06
  endloop
endfacet
facet normal -5.414665395658184e-05 7.612723753615108e-05 0.9999999956363919
  outer loop
    vertex 61.0000001754744 47.856351124017536 -1.3708067257867107e-06
    vertex 58.00579628255027 3.860858743041237 0.00576710843337235
    vertex 61.005796225161454 3.8608587430412364 0.005767094098032199
  endloop
endfacet
facet normal -1.0 2.681154383711789e-09 -2.628420032831564e-09
  outer loop
    vertex 0.0 0.9999999999999999 3.9999999999999996
    vertex 0.0 0.0 0.0
    vertex 0.0 0.0 3.9999999999999996
  endloop
endfacet
facet normal -1.0 2.681154383711789e-09 -2.628420032831564e-09
  outer loop
    vertex 0.0 0.0 0.0
    vertex 0.0 0.9999999999999999 3.9999999999999996
    vertex 1.4140043653642635e-08 3.8563506659073146 -1.1046206628078631e-07
  endloop
endfacet
facet normal -1.0 2.681154383711789e-09 -2.628420032831564e-09
  outer loop
    vertex 1.4140043653642635e-08 3.8563506659073146 -1.1046206628078631e-07
    vertex 0.0 0.9999999999999999 3.9999999999999996
    vertex 1.684046467880972e-07 3.8563506659073137 1.522925636732947
  endloop
endfacet
facet normal -1.0 2.681154383711789e-09 -2.628420032831564e-09
  outer loop
    vertex 1.684046467880972e-07 3.8563506659073137 1.522925636732947
    vertex 0.0 0.9999999999999999 3.9999999999999996
    vertex 1.684046467880972e-07 3.8563506659073137 2.0229256367329467
  endloop
endfacet
facet normal -1.0 2.681154383711789e-09 -2.628420032831564e-09
  outer loop
    vertex 1.4140043653642635e-08 3.8563506659073146 -1.1046206628078631e-07
    vertex 1.684046467880972e-07 3.8563506659073137 1.522925636732947
    vertex 1.77001935272621e-07 47.85635116569344 1.522923433059636
  endloop
endfacet
facet normal -1.0 2.681154383711789e-09 -2.628420032831564e-09
  outer loop
    vertex 1.4140043653642635e-08 3.8563506659073146 -1.1046206628078631e-07
    vertex 1.77001935272621e-07 47.85635116569344 1.522923433059636
    vertex 1.75474419372712e-07 47.856351124017536 -1.3708067257867107e-06
  endloop
endfacet
facet normal 0.999999861029871 0.0005158359413390554 0.00010887387382452467
  outer loop
    vertex 58.00579628255027 3.860858743041237 0.00576710843337235
    vertex 58.005796153810216 -1.9334847179394473e-06 3.9999995224289955
    vertex 58.005796153810216 -1.9334847179394473e-06 -4.775710024744752e-07
  endloop
endfacet
facet normal 0.999999861029871 0.0005158359413390554 0.00010887387382452467
  outer loop
    vertex 58.005796153810216 -1.9334847179394473e-06 3.9999995224289955
    vertex 58.00579628255027 3.860858743041237 0.00576710843337235
    vertex 58.005796153810216 0.9999980665152819 3.9999995224289955
  endloop
endfacet
facet normal 0.999999861029871 0.0005158359413390554 0.00010887387382452467
  outer loop
    vertex 58.005796153810216 0.9999980665152819 3.9999995224289955
    vertex 58.00579628255027 3.860858743041237 0.00576710843337235
    vertex 58.00470339127121 3.8577535636758027 0.577773528521446
  endloop
endfacet
facet normal 0.999999861029871 0.0005158359413390554 0.00010887387382452467
  outer loop
    vertex 58.005796153810216 0.9999980665152819 3.9999995224289955
    vertex 58.00470339127121 3.8577535636758027 0.577773528521446
    vertex 57.99999898515454 3.856348835806081 1.5229246095678548
  endloop
endfacet
facet normal 0.999999861029871 0.0005158359413390554 0.00010887387382452467
  outer loop
    vertex 58.005796153810216 0.9999980665152819 3.9999995224289955
    vertex 57.99999898515454 3.856348835806081 1.5229246095678548
    vertex 58.00579632221487 3.8563487324225973 2.0229251591619444
  endloop
endfacet
facet normal -3.333261236191899e-08 -0.9999999999999994 0.0
  outer loop
    vertex 58.005796153810216 -1.9334847179394473e-06 3.9999995224289955
    vertex 0.0 0.0 0.0
    vertex 58.005796153810216 -1.9334847179394473e-06 -4.775710024744752e-07
  endloop
endfacet
facet normal -3.333261236191899e-08 -0.9999999999999994 0.0
  outer loop
    vertex 0.0 0.0 0.0
    vertex 58.005796153810216 -1.9334847179394473e-06 3.9999995224289955
    vertex 0.0 0.0 3.9999999999999996
  endloop
endfacet
facet normal 8.23316003125155e-09 -0.0 1.0
  outer loop
    vertex 58.005796153810216 -1.9334847179394473e-06 3.9999995224289955
    vertex 0.0 0.9999999999999999 3.9999999999999996
    vertex 0.0 0.0 3.9999999999999996
  endloop
endfacet
facet normal 8.23316003125155e-09 -0.0 1.0
  outer loop
    vertex 0.0 0.9999999999999999 3.9999999999999996
    vertex 58.005796153810216 -1.9334847179394473e-06 3.9999995224289955
    vertex 58.005796153810216 0.9999980665152819 3.9999995224289955
  endloop
endfacet
facet normal 2.5740348887661874e-08 0.5691322979568957 0.8222459652818631
  outer loop
    vertex 58.005796153810216 0.9999980665152819 3.9999995224289955
    vertex 1.684046467880972e-07 3.8563506659073137 2.0229256367329467
    vertex 0.0 0.9999999999999999 3.9999999999999996
  endloop
endfacet
facet normal 2.5740348887661874e-08 0.5691322979568957 0.8222459652818631
  outer loop
    vertex 1.684046467880972e-07 3.8563506659073137 2.0229256367329467
    vertex 58.005796153810216 0.9999980665152819 3.9999995224289955
    vertex 58.00579632221487 3.8563487324225973 2.0229251591619444
  endloop
endfacet
facet normal 3.2443131509728275e-08 0.9999999999999942 1.031953997575029e-07
  outer loop
    vertex 1.684046467880972e-07 3.8563506659073137 1.522925636732947
    vertex 58.00579632221487 3.8563487324225973 2.0229251591619444
    vertex 57.99999898515454 3.856348835806081 1.5229246095678548
  endloop
endfacet
facet normal 3.2443131509728275e-08 0.9999999999999942 1.031953997575029e-07
  outer loop
    vertex 58.00579632221487 3.8563487324225973 2.0229251591619444
    vertex 1.684046467880972e-07 3.8563506659073137 1.522925636732947
    vertex 1.684046467880972e-07 3.8563506659073137 2.0229256367329467
  endloop
endfacet
endsolid SideCover
