solid Lever-Clamp
facet normal 0.0 0.0 1.0
  outer loop
    vertex 50.0 0.0 15.0
    vertex 30.65 12.500000000000005 15.0
    vertex 30.65 0.0 15.0
  endloop
endfacet
facet normal 0.0 0.0 1.0
  outer loop
    vertex 30.65 12.500000000000005 15.0
    vertex 50.0 0.0 15.0
    vertex 45.24999999999999 12.499999999999998 15.0
  endloop
endfacet
facet normal 1.8719872095356377e-06 -0.9999999999690308 -7.644227299384069e-06
  outer loop
    vertex 50.0 0.0 0.0
    vertex 30.65 0.0 9.0
    vertex 0.0 0.0 0.0
  endloop
endfacet
facet normal 1.8719872095356377e-06 -0.9999999999690308 -7.644227299384069e-06
  outer loop
    vertex 30.65 0.0 9.0
    vertex 50.0 0.0 0.0
    vertex 50.0 0.0 15.0
  endloop
endfacet
facet normal 1.8719872095356377e-06 -0.9999999999690308 -7.644227299384069e-06
  outer loop
    vertex 0.0 0.0 0.0
    vertex 30.65 0.0 9.0
    vertex 19.372055231610695 -0.0004564962141533572 8.9977809211812
  endloop
endfacet
facet normal 1.8719872095356377e-06 -0.9999999999690308 -7.644227299384069e-06
  outer loop
    vertex 30.65 0.0 9.0
    vertex 50.0 0.0 15.0
    vertex 30.65 0.0 14.0
  endloop
endfacet
facet normal 1.8719872095356377e-06 -0.9999999999690308 -7.644227299384069e-06
  outer loop
    vertex 30.65 0.0 14.0
    vertex 50.0 0.0 15.0
    vertex 30.65 0.0 15.0
  endloop
endfacet
facet normal 1.8719872095356377e-06 -0.9999999999690308 -7.644227299384069e-06
  outer loop
    vertex 19.372055231610695 -0.0004564962141533572 8.9977809211812
    vertex 0.0 0.0 15.0
    vertex 0.0 0.0 0.0
  endloop
endfacet
facet normal 1.8719872095356377e-06 -0.9999999999690308 -7.644227299384069e-06
  outer loop
    vertex 0.0 0.0 15.0
    vertex 19.372055231610695 -0.0004564962141533572 8.9977809211812
    vertex 19.35367770678422 -0.0004564962141533572 13.997787675762885
  endloop
endfacet
facet normal 1.8719872095356377e-06 -0.9999999999690308 -7.644227299384069e-06
  outer loop
    vertex 0.0 0.0 15.0
    vertex 19.35367770678422 -0.0004564962141533572 13.997787675762885
    vertex 19.350002231610684 -0.0004564962141533572 14.997780921181196
  endloop
endfacet
facet normal 5.794451676468284e-16 1.0 1.8799776550319315e-16
  outer loop
    vertex 30.65 12.500000000000005 15.0
    vertex 45.24999999999999 12.499999999999998 7.5
    vertex 30.65 12.500000000000009 7.499999999999999
  endloop
endfacet
facet normal 5.794451676468284e-16 1.0 1.8799776550319315e-16
  outer loop
    vertex 45.24999999999999 12.499999999999998 7.5
    vertex 30.65 12.500000000000005 15.0
    vertex 45.24999999999999 12.499999999999998 15.0
  endloop
endfacet
facet normal 0.9347835805883491 0.35521776062357274 8.455838926864791e-17
  outer loop
    vertex 40.5 24.999999999999996 0.0
    vertex 50.0 0.0 15.0
    vertex 50.0 0.0 0.0
  endloop
endfacet
facet normal 0.9347835805883491 0.35521776062357274 8.455838926864791e-17
  outer loop
    vertex 50.0 0.0 15.0
    vertex 40.5 24.999999999999996 0.0
    vertex 45.24999999999999 12.499999999999998 7.5
  endloop
endfacet
facet normal 0.9347835805883491 0.35521776062357274 8.455838926864791e-17
  outer loop
    vertex 45.24999999999999 12.499999999999998 7.5
    vertex 40.5 24.999999999999996 0.0
    vertex 40.49999999999999 25.000000000000004 7.5
  endloop
endfacet
facet normal 0.9347835805883491 0.35521776062357274 8.455838926864791e-17
  outer loop
    vertex 45.24999999999999 12.499999999999998 15.0
    vertex 50.0 0.0 15.0
    vertex 45.24999999999999 12.499999999999998 7.5
  endloop
endfacet
facet normal 2.1770646051582006e-16 1.0 -4.717463953069043e-16
  outer loop
    vertex 9.500000000000002 25.000000000000007 0.0
    vertex 19.372055231610695 24.99954350378586 0.9977809211811988
    vertex 40.5 24.999999999999996 0.0
  endloop
endfacet
facet normal 2.1770646051582006e-16 1.0 -4.717463953069043e-16
  outer loop
    vertex 19.372055231610695 24.99954350378586 0.9977809211811988
    vertex 9.500000000000002 25.000000000000007 0.0
    vertex 9.500085698666725 24.999984975669484 7.500115416253743
  endloop
endfacet
facet normal 2.1770646051582006e-16 1.0 -4.717463953069043e-16
  outer loop
    vertex 19.372055231610695 24.99954350378586 0.9977809211811988
    vertex 9.500085698666725 24.999984975669484 7.500115416253743
    vertex 19.361114430277414 24.999528479455332 7.497896337434941
  endloop
endfacet
facet normal 2.1770646051582006e-16 1.0 -4.717463953069043e-16
  outer loop
    vertex 40.5 24.999999999999996 0.0
    vertex 30.65 25.000000000000007 0.9999999999999999
    vertex 40.49999999999999 25.000000000000004 7.5
  endloop
endfacet
facet normal 2.1770646051582006e-16 1.0 -4.717463953069043e-16
  outer loop
    vertex 30.65 25.000000000000007 0.9999999999999999
    vertex 40.5 24.999999999999996 0.0
    vertex 19.372055231610695 24.99954350378586 0.9977809211811988
  endloop
endfacet
facet normal 2.1770646051582006e-16 1.0 -4.717463953069043e-16
  outer loop
    vertex 40.49999999999999 25.000000000000004 7.5
    vertex 30.65 25.000000000000007 0.9999999999999999
    vertex 30.65 25.000000000000007 7.5
  endloop
endfacet
facet normal 0.0 0.0 -1.0
  outer loop
    vertex 9.500000000000002 25.000000000000007 0.0
    vertex 22.681778016906236 10.121165708246052 0.0
    vertex 22.599999999999998 9.500000000000002 0.0
  endloop
endfacet
facet normal 0.0 0.0 -1.0
  outer loop
    vertex 22.681778016906236 10.121165708246052 0.0
    vertex 9.500000000000002 25.000000000000007 0.0
    vertex 22.921539030917348 10.700000000000001 0.0
  endloop
endfacet
facet normal 0.0 0.0 -1.0
  outer loop
    vertex 22.921539030917348 10.700000000000001 0.0
    vertex 9.500000000000002 25.000000000000007 0.0
    vertex 23.302943725152286 11.197056274847716 0.0
  endloop
endfacet
facet normal 0.0 0.0 -1.0
  outer loop
    vertex 23.302943725152286 11.197056274847716 0.0
    vertex 9.500000000000002 25.000000000000007 0.0
    vertex 40.5 24.999999999999996 0.0
  endloop
endfacet
facet normal 0.0 0.0 -1.0
  outer loop
    vertex 23.302943725152286 11.197056274847716 0.0
    vertex 40.5 24.999999999999996 0.0
    vertex 23.799999999999997 11.578460969082654 0.0
  endloop
endfacet
facet normal 0.0 0.0 -1.0
  outer loop
    vertex 23.799999999999997 11.578460969082654 0.0
    vertex 40.5 24.999999999999996 0.0
    vertex 24.37883429175395 11.818221983093764 0.0
  endloop
endfacet
facet normal 0.0 0.0 -1.0
  outer loop
    vertex 24.37883429175395 11.818221983093764 0.0
    vertex 40.5 24.999999999999996 0.0
    vertex 25.0 11.9 0.0
  endloop
endfacet
facet normal 0.0 0.0 -1.0
  outer loop
    vertex 25.0 11.9 0.0
    vertex 40.5 24.999999999999996 0.0
    vertex 25.621165708246053 11.818221983093764 0.0
  endloop
endfacet
facet normal 0.0 0.0 -1.0
  outer loop
    vertex 25.621165708246053 11.818221983093764 0.0
    vertex 40.5 24.999999999999996 0.0
    vertex 26.200000000000003 11.578460969082654 0.0
  endloop
endfacet
facet normal 0.0 0.0 -1.0
  outer loop
    vertex 26.200000000000003 11.578460969082654 0.0
    vertex 40.5 24.999999999999996 0.0
    vertex 26.697056274847714 11.197056274847714 0.0
  endloop
endfacet
facet normal 0.0 0.0 -1.0
  outer loop
    vertex 26.697056274847714 11.197056274847714 0.0
    vertex 40.5 24.999999999999996 0.0
    vertex 27.078460969082656 10.7 0.0
  endloop
endfacet
facet normal 0.0 0.0 -1.0
  outer loop
    vertex 27.078460969082656 10.7 0.0
    vertex 40.5 24.999999999999996 0.0
    vertex 27.318221983093764 10.12116570824605 0.0
  endloop
endfacet
facet normal 0.0 0.0 -1.0
  outer loop
    vertex 27.318221983093764 10.12116570824605 0.0
    vertex 40.5 24.999999999999996 0.0
    vertex 27.400000000000002 9.500000000000002 0.0
  endloop
endfacet
facet normal 0.0 0.0 -1.0
  outer loop
    vertex 0.0 0.0 0.0
    vertex 24.37883429175395 7.181778016906237 0.0
    vertex 50.0 0.0 0.0
  endloop
endfacet
facet normal 0.0 0.0 -1.0
  outer loop
    vertex 24.37883429175395 7.181778016906237 0.0
    vertex 0.0 0.0 0.0
    vertex 23.799999999999997 7.421539030917349 0.0
  endloop
endfacet
facet normal 0.0 0.0 -1.0
  outer loop
    vertex 23.799999999999997 7.421539030917349 0.0
    vertex 0.0 0.0 0.0
    vertex 23.302943725152286 7.802943725152287 0.0
  endloop
endfacet
facet normal 0.0 0.0 -1.0
  outer loop
    vertex 23.302943725152286 7.802943725152287 0.0
    vertex 0.0 0.0 0.0
    vertex 9.500000000000002 25.000000000000007 0.0
  endloop
endfacet
facet normal 0.0 0.0 -1.0
  outer loop
    vertex 23.302943725152286 7.802943725152287 0.0
    vertex 9.500000000000002 25.000000000000007 0.0
    vertex 22.921539030917348 8.300000000000002 0.0
  endloop
endfacet
facet normal 0.0 0.0 -1.0
  outer loop
    vertex 22.921539030917348 8.300000000000002 0.0
    vertex 9.500000000000002 25.000000000000007 0.0
    vertex 22.681778016906236 8.878834291753952 0.0
  endloop
endfacet
facet normal 0.0 0.0 -1.0
  outer loop
    vertex 22.681778016906236 8.878834291753952 0.0
    vertex 9.500000000000002 25.000000000000007 0.0
    vertex 22.599999999999998 9.500000000000002 0.0
  endloop
endfacet
facet normal 0.0 0.0 -1.0
  outer loop
    vertex 50.0 0.0 0.0
    vertex 24.37883429175395 7.181778016906237 0.0
    vertex 25.0 7.100000000000001 0.0
  endloop
endfacet
facet normal 0.0 0.0 -1.0
  outer loop
    vertex 50.0 0.0 0.0
    vertex 25.0 7.100000000000001 0.0
    vertex 25.621165708246046 7.181778016906237 0.0
  endloop
endfacet
facet normal 0.0 0.0 -1.0
  outer loop
    vertex 50.0 0.0 0.0
    vertex 25.621165708246046 7.181778016906237 0.0
    vertex 26.199999999999996 7.421539030917347 0.0
  endloop
endfacet
facet normal 0.0 0.0 -1.0
  outer loop
    vertex 50.0 0.0 0.0
    vertex 26.199999999999996 7.421539030917347 0.0
    vertex 26.69705627484771 7.802943725152287 0.0
  endloop
endfacet
facet normal 0.0 0.0 -1.0
  outer loop
    vertex 50.0 0.0 0.0
    vertex 26.69705627484771 7.802943725152287 0.0
    vertex 27.07846096908265 8.3 0.0
  endloop
endfacet
facet normal 0.0 0.0 -1.0
  outer loop
    vertex 50.0 0.0 0.0
    vertex 27.07846096908265 8.3 0.0
    vertex 27.318221983093764 8.878834291753948 0.0
  endloop
endfacet
facet normal 0.0 0.0 -1.0
  outer loop
    vertex 50.0 0.0 0.0
    vertex 27.318221983093764 8.878834291753948 0.0
    vertex 27.400000000000002 9.500000000000002 0.0
  endloop
endfacet
facet normal 0.0 0.0 -1.0
  outer loop
    vertex 50.0 0.0 0.0
    vertex 27.400000000000002 9.500000000000002 0.0
    vertex 40.5 24.999999999999996 0.0
  endloop
endfacet
facet normal 3.12665547618407e-05 0.9999999995091955 -2.002917624603076e-06
  outer loop
    vertex 4.750085698666721 12.499984975669474 7.500115416253743
    vertex 19.350002231610684 12.499543503785844 14.997780921181196
    vertex 19.35008793027741 12.49952847945532 7.497896337434941
  endloop
endfacet
facet normal 3.12665547618407e-05 0.9999999995091955 -2.002917624603076e-06
  outer loop
    vertex 19.350002231610684 12.499543503785844 14.997780921181196
    vertex 4.750085698666721 12.499984975669474 7.500115416253743
    vertex 4.749999999999998 12.499999999999998 15.0
  endloop
endfacet
facet normal -0.9347835805883491 0.3552177606235726 0.0
  outer loop
    vertex 4.749999999999998 12.499999999999998 15.0
    vertex 0.0 0.0 0.0
    vertex 0.0 0.0 15.0
  endloop
endfacet
facet normal -0.9347835805883491 0.3552177606235726 0.0
  outer loop
    vertex 0.0 0.0 0.0
    vertex 4.749999999999998 12.499999999999998 15.0
    vertex 4.750085698666721 12.499984975669474 7.500115416253743
  endloop
endfacet
facet normal -0.9347835805883491 0.3552177606235726 0.0
  outer loop
    vertex 4.750085698666721 12.499984975669474 7.500115416253743
    vertex 9.500000000000002 25.000000000000007 0.0
    vertex 0.0 0.0 0.0
  endloop
endfacet
facet normal -0.9347835805883491 0.3552177606235726 0.0
  outer loop
    vertex 9.500000000000002 25.000000000000007 0.0
    vertex 4.750085698666721 12.499984975669474 7.500115416253743
    vertex 9.500085698666725 24.999984975669484 7.500115416253743
  endloop
endfacet
facet normal 0.00012821577493148825 -2.4361121709589434e-05 0.9999999914836254
  outer loop
    vertex 19.350002231610684 -0.0004564962141533572 14.997780921181196
    vertex 4.749999999999998 12.499999999999998 15.0
    vertex 0.0 0.0 15.0
  endloop
endfacet
facet normal 0.00012821577493148825 -2.4361121709589434e-05 0.9999999914836254
  outer loop
    vertex 4.749999999999998 12.499999999999998 15.0
    vertex 19.350002231610684 -0.0004564962141533572 14.997780921181196
    vertex 19.350002231610684 12.499543503785844 14.997780921181196
  endloop
endfacet
facet normal 0.00017487308366695445 -3.330324995032076e-05 0.999999984155149
  outer loop
    vertex 19.35008793027741 12.49952847945532 7.497896337434941
    vertex 9.500085698666725 24.999984975669484 7.500115416253743
    vertex 4.750085698666721 12.499984975669474 7.500115416253743
  endloop
endfacet
facet normal 0.00017487308366695445 -3.330324995032076e-05 0.999999984155149
  outer loop
    vertex 9.500085698666725 24.999984975669484 7.500115416253743
    vertex 19.35008793027741 12.49952847945532 7.497896337434941
    vertex 19.361114430277414 24.999528479455332 7.497896337434941
  endloop
endfacet
facet normal 0.9999981944093149 -0.0008821184072528258 0.0016831652401237262
  outer loop
    vertex 19.372055231610695 24.99954350378586 0.9977809211811988
    vertex 19.361114430277414 24.999528479455332 7.497896337434941
    vertex 19.35008793027741 12.49952847945532 7.497896337434941
  endloop
endfacet
facet normal 0.9999999838377684 0.00016320226097687096 7.542867642736782e-05
  outer loop
    vertex 19.35008793027741 12.49952847945532 7.497896337434941
    vertex 19.350002231610684 -0.0004564962141533572 14.997780921181196
    vertex 19.35367770678422 -0.0004564962141533572 13.997787675762885
  endloop
endfacet
facet normal 0.9999999838377684 0.00016320226097687096 7.542867642736782e-05
  outer loop
    vertex 19.350002231610684 -0.0004564962141533572 14.997780921181196
    vertex 19.35008793027741 12.49952847945532 7.497896337434941
    vertex 19.350002231610684 12.499543503785844 14.997780921181196
  endloop
endfacet
facet normal -6.636659167618959e-17 -6.900898206943396e-17 1.0
  outer loop
    vertex 45.24999999999999 12.499999999999998 7.5
    vertex 30.65 25.000000000000007 7.5
    vertex 30.65 12.500000000000009 7.499999999999999
  endloop
endfacet
facet normal -6.636659167618959e-17 -6.900898206943396e-17 1.0
  outer loop
    vertex 30.65 25.000000000000007 7.5
    vertex 45.24999999999999 12.499999999999998 7.5
    vertex 40.49999999999999 25.000000000000004 7.5
  endloop
endfacet
facet normal -1.0 0.0 0.0
  outer loop
    vertex 30.65 25.000000000000007 0.9999999999999999
    vertex 30.65 12.500000000000009 7.499999999999999
    vertex 30.65 25.000000000000007 7.5
  endloop
endfacet
facet normal -1.0 0.0 0.0
  outer loop
    vertex 30.65 12.500000000000005 15.0
    vertex 30.65 0.0 14.0
    vertex 30.65 0.0 15.0
  endloop
endfacet
facet normal -1.0 0.0 0.0
  outer loop
    vertex 30.65 0.0 14.0
    vertex 30.65 12.500000000000005 15.0
    vertex 30.65 12.500000000000009 7.499999999999999
  endloop
endfacet
facet normal 4.0443904141849686e-05 -0.9999999991821427 7.432591205806648e-08
  outer loop
    vertex 30.65 0.0 9.0
    vertex 19.35367770678422 -0.0004564962141533572 13.997787675762885
    vertex 19.372055231610695 -0.0004564962141533572 8.9977809211812
  endloop
endfacet
facet normal 4.0443904141849686e-05 -0.9999999991821427 7.432591205806648e-08
  outer loop
    vertex 19.35367770678422 -0.0004564962141533572 13.997787675762885
    vertex 30.65 0.0 9.0
    vertex 30.65 0.0 14.0
  endloop
endfacet
facet normal -0.9914448613738103 0.13052619222005307 8.321655086313046e-20
  outer loop
    vertex 27.400000000000002 9.500000000000002 9.059292115281023
    vertex 27.318221983093764 8.878834291753948 0.0
    vertex 27.318221983093764 8.878834291753948 9.382280471443275
  endloop
endfacet
facet normal -0.9914448613738103 0.13052619222005307 8.321655086313046e-20
  outer loop
    vertex 27.318221983093764 8.878834291753948 0.0
    vertex 27.400000000000002 9.500000000000002 9.059292115281023
    vertex 27.400000000000002 9.500000000000002 0.0
  endloop
endfacet
facet normal -0.9238795325112849 0.3826834323650949 2.866034711528366e-17
  outer loop
    vertex 27.318221983093764 8.878834291753948 9.382280471443275
    vertex 27.07846096908265 8.3 0.0
    vertex 27.07846096908265 8.299999999999999 9.683222080645166
  endloop
endfacet
facet normal -0.9238795325112849 0.3826834323650949 2.866034711528366e-17
  outer loop
    vertex 27.07846096908265 8.3 0.0
    vertex 27.318221983093764 8.878834291753948 9.382280471443275
    vertex 27.318221983093764 8.878834291753948 0.0
  endloop
endfacet
facet normal -0.7933533402912344 0.6087614290087218 -1.0087763378142895e-16
  outer loop
    vertex 26.69705627484771 7.8029437251522875 9.94160868172494
    vertex 27.07846096908265 8.3 0.0
    vertex 26.69705627484771 7.802943725152287 0.0
  endloop
endfacet
facet normal -0.7933533402912344 0.6087614290087218 -1.0087763378142895e-16
  outer loop
    vertex 27.07846096908265 8.3 0.0
    vertex 26.69705627484771 7.8029437251522875 9.94160868172494
    vertex 27.07846096908265 8.299999999999999 9.683222080645166
  endloop
endfacet
facet normal -0.6087614290087214 0.7933533402912345 -1.7083866377407438e-16
  outer loop
    vertex 26.199999999999992 7.421539030917346 10.139831495744811
    vertex 26.69705627484771 7.802943725152287 0.0
    vertex 26.199999999999996 7.421539030917347 0.0
  endloop
endfacet
facet normal -0.6087614290087214 0.7933533402912345 -1.7083866377407438e-16
  outer loop
    vertex 26.69705627484771 7.802943725152287 0.0
    vertex 26.199999999999992 7.421539030917346 10.139831495744811
    vertex 26.69705627484771 7.8029437251522875 9.94160868172494
  endloop
endfacet
facet normal -0.38268343236508934 0.9238795325112871 -4.073473298927271e-17
  outer loop
    vertex 25.621165708246032 7.18177801690623 10.264381800948202
    vertex 26.199999999999996 7.421539030917347 0.0
    vertex 25.621165708246046 7.181778016906237 0.0
  endloop
endfacet
facet normal -0.38268343236508934 0.9238795325112871 -4.073473298927271e-17
  outer loop
    vertex 26.199999999999996 7.421539030917347 0.0
    vertex 25.621165708246032 7.18177801690623 10.264381800948202
    vertex 26.199999999999992 7.421539030917346 10.139831495744811
  endloop
endfacet
facet normal -0.13052619222004705 0.9914448613738112 1.7805798217130335e-16
  outer loop
    vertex 24.99999999999999 7.100000000000001 10.306771699864592
    vertex 25.621165708246046 7.181778016906237 0.0
    vertex 25.0 7.100000000000001 0.0
  endloop
endfacet
facet normal -0.13052619222004705 0.9914448613738112 1.7805798217130335e-16
  outer loop
    vertex 25.621165708246046 7.181778016906237 0.0
    vertex 24.99999999999999 7.100000000000001 10.306771699864592
    vertex 25.621165708246032 7.18177801690623 10.264381800948202
  endloop
endfacet
facet normal 0.1305261922200504 0.9914448613738107 1.5418533820020137e-16
  outer loop
    vertex 24.378834291753954 7.181778016906234 10.26411239093547
    vertex 25.0 7.100000000000001 0.0
    vertex 24.37883429175395 7.181778016906237 0.0
  endloop
endfacet
facet normal 0.1305261922200504 0.9914448613738107 1.5418533820020137e-16
  outer loop
    vertex 25.0 7.100000000000001 0.0
    vertex 24.378834291753954 7.181778016906234 10.26411239093547
    vertex 24.99999999999999 7.100000000000001 10.306771699864592
  endloop
endfacet
facet normal 0.38268343236509084 0.9238795325112863 2.1746329511773983e-17
  outer loop
    vertex 23.799999999999997 7.421539030917349 10.139311035566502
    vertex 24.37883429175395 7.181778016906237 0.0
    vertex 23.799999999999997 7.421539030917349 0.0
  endloop
endfacet
facet normal 0.38268343236509084 0.9238795325112863 2.1746329511773983e-17
  outer loop
    vertex 24.37883429175395 7.181778016906237 0.0
    vertex 23.799999999999997 7.421539030917349 10.139311035566502
    vertex 24.378834291753954 7.181778016906234 10.26411239093547
  endloop
endfacet
facet normal 0.6087614290087212 0.7933533402912349 -2.443363890164874e-17
  outer loop
    vertex 23.302943725152282 7.802943725152289 9.9408726398821
    vertex 23.799999999999997 7.421539030917349 0.0
    vertex 23.302943725152286 7.802943725152287 0.0
  endloop
endfacet
facet normal 0.6087614290087212 0.7933533402912349 -2.443363890164874e-17
  outer loop
    vertex 23.799999999999997 7.421539030917349 0.0
    vertex 23.302943725152282 7.802943725152289 9.9408726398821
    vertex 23.799999999999997 7.421539030917349 10.139311035566502
  endloop
endfacet
facet normal 0.7933533402912372 0.608761429008718 -1.0150519268759859e-16
  outer loop
    vertex 22.921539030917348 8.300000000000002 0.0
    vertex 23.302943725152282 7.802943725152289 9.9408726398821
    vertex 23.302943725152286 7.802943725152287 0.0
  endloop
endfacet
facet normal 0.7933533402912372 0.608761429008718 -1.0150519268759859e-16
  outer loop
    vertex 23.302943725152282 7.802943725152289 9.9408726398821
    vertex 22.921539030917348 8.300000000000002 0.0
    vertex 22.921539030917348 8.300000000000006 9.682320452613197
  endloop
endfacet
facet normal 0.9238795325112865 0.38268343236509056 -1.693220768617377e-16
  outer loop
    vertex 22.681778016906236 8.878834291753952 0.0
    vertex 22.921539030917348 8.300000000000006 9.682320452613197
    vertex 22.921539030917348 8.300000000000002 0.0
  endloop
endfacet
facet normal 0.9238795325112865 0.38268343236509056 -1.693220768617377e-16
  outer loop
    vertex 22.921539030917348 8.300000000000006 9.682320452613197
    vertex 22.681778016906236 8.878834291753952 0.0
    vertex 22.681778016906236 8.878834291753956 9.381274378044479
  endloop
endfacet
facet normal 0.9914448613738103 0.1305261922200541 -3.0651298169331675e-17
  outer loop
    vertex 22.599999999999998 9.500000000000002 0.0
    vertex 22.681778016906236 8.878834291753956 9.381274378044479
    vertex 22.681778016906236 8.878834291753952 0.0
  endloop
endfacet
facet normal 0.9914448613738103 0.1305261922200541 -3.0651298169331675e-17
  outer loop
    vertex 22.681778016906236 8.878834291753956 9.381274378044479
    vertex 22.599999999999998 9.500000000000002 0.0
    vertex 22.599999999999998 9.500000000000002 9.058250208655645
  endloop
endfacet
facet normal 0.9914448613738103 -0.1305261922200532 1.0078338746180199e-17
  outer loop
    vertex 22.681778016906236 10.121165708246052 0.0
    vertex 22.599999999999998 9.500000000000002 9.058250208655645
    vertex 22.599999999999998 9.500000000000002 0.0
  endloop
endfacet
facet normal 0.9914448613738103 -0.1305261922200532 1.0078338746180199e-17
  outer loop
    vertex 22.599999999999998 9.500000000000002 9.058250208655645
    vertex 22.681778016906236 10.121165708246052 0.0
    vertex 22.681778016906236 10.121165708246053 8.735261507767857
  endloop
endfacet
facet normal 0.9238795325112871 -0.38268343236508895 1.8080746679346663e-16
  outer loop
    vertex 22.921539030917348 10.700000000000001 0.0
    vertex 22.681778016906236 10.121165708246053 8.735261507767857
    vertex 22.681778016906236 10.121165708246052 0.0
  endloop
endfacet
facet normal 0.9238795325112871 -0.38268343236508895 1.8080746679346663e-16
  outer loop
    vertex 22.681778016906236 10.121165708246053 8.735261507767857
    vertex 22.921539030917348 10.700000000000001 0.0
    vertex 22.921539030917344 10.700000000000001 8.434319421582563
  endloop
endfacet
facet normal 0.7933533402912345 -0.6087614290087215 2.3915444189044446e-16
  outer loop
    vertex 23.302943725152286 11.197056274847716 0.0
    vertex 22.921539030917344 10.700000000000001 8.434319421582563
    vertex 22.921539030917348 10.700000000000001 0.0
  endloop
endfacet
facet normal 0.7933533402912345 -0.6087614290087215 2.3915444189044446e-16
  outer loop
    vertex 22.921539030917344 10.700000000000001 8.434319421582563
    vertex 23.302943725152286 11.197056274847716 0.0
    vertex 23.302943725152286 11.197056274847718 8.175932655942967
  endloop
endfacet
facet normal 0.6087614290087177 -0.7933533402912377 -3.4568026008624825e-17
  outer loop
    vertex 23.8 11.578460969082652 7.9777098419231
    vertex 23.302943725152286 11.197056274847716 0.0
    vertex 23.799999999999997 11.578460969082654 0.0
  endloop
endfacet
facet normal 0.6087614290087177 -0.7933533402912377 -3.4568026008624825e-17
  outer loop
    vertex 23.302943725152286 11.197056274847716 0.0
    vertex 23.8 11.578460969082652 7.9777098419231
    vertex 23.302943725152286 11.197056274847718 8.175932655942967
  endloop
endfacet
facet normal 0.3826834323650908 -0.9238795325112865 -2.861578205946972e-16
  outer loop
    vertex 24.378834291753954 11.818221983093764 7.853159536719717
    vertex 23.799999999999997 11.578460969082654 0.0
    vertex 24.37883429175395 11.818221983093764 0.0
  endloop
endfacet
facet normal 0.3826834323650908 -0.9238795325112865 -2.861578205946972e-16
  outer loop
    vertex 23.799999999999997 11.578460969082654 0.0
    vertex 24.378834291753954 11.818221983093764 7.853159536719717
    vertex 23.8 11.578460969082652 7.9777098419231
  endloop
endfacet
facet normal 0.13052619222005113 -0.9914448613738105 -9.422659580403784e-17
  outer loop
    vertex 25.000000000000004 11.9 7.810769637803323
    vertex 24.37883429175395 11.818221983093764 0.0
    vertex 25.0 11.9 0.0
  endloop
endfacet
facet normal 0.13052619222005113 -0.9914448613738105 -9.422659580403784e-17
  outer loop
    vertex 24.37883429175395 11.818221983093764 0.0
    vertex 25.000000000000004 11.9 7.810769637803323
    vertex 24.378834291753954 11.818221983093764 7.853159536719717
  endloop
endfacet
facet normal -0.1305261922200522 -0.9914448613738105 1.1244797378310352e-16
  outer loop
    vertex 25.621165708246053 11.818221983093764 7.853429234960659
    vertex 25.0 11.9 0.0
    vertex 25.621165708246053 11.818221983093764 0.0
  endloop
endfacet
facet normal -0.1305261922200522 -0.9914448613738105 1.1244797378310352e-16
  outer loop
    vertex 25.0 11.9 0.0
    vertex 25.621165708246053 11.818221983093764 7.853429234960659
    vertex 25.000000000000004 11.9 7.810769637803323
  endloop
endfacet
facet normal -0.3826834323650871 -0.9238795325112881 3.0276422456660617e-16
  outer loop
    vertex 26.20000000000001 11.578460969082654 7.97823103853873
    vertex 25.621165708246053 11.818221983093764 0.0
    vertex 26.200000000000003 11.578460969082654 0.0
  endloop
endfacet
facet normal -0.3826834323650871 -0.9238795325112881 3.0276422456660617e-16
  outer loop
    vertex 25.621165708246053 11.818221983093764 0.0
    vertex 26.20000000000001 11.578460969082654 7.97823103853873
    vertex 25.621165708246053 11.818221983093764 7.853429234960659
  endloop
endfacet
facet normal -0.6087614290087244 -0.7933533402912323 3.486759516084195e-16
  outer loop
    vertex 26.697056274847714 11.197056274847716 8.176669743707492
    vertex 26.200000000000003 11.578460969082654 0.0
    vertex 26.697056274847714 11.197056274847714 0.0
  endloop
endfacet
facet normal -0.6087614290087244 -0.7933533402912323 3.486759516084195e-16
  outer loop
    vertex 26.200000000000003 11.578460969082654 0.0
    vertex 26.697056274847714 11.197056274847716 8.176669743707492
    vertex 26.20000000000001 11.578460969082654 7.97823103853873
  endloop
endfacet
facet normal -0.7933533402912353 -0.6087614290087205 1.5547413282523447e-16
  outer loop
    vertex 27.078460969082656 10.700000000000001 8.435222080645165
    vertex 26.697056274847714 11.197056274847714 0.0
    vertex 27.078460969082656 10.7 0.0
  endloop
endfacet
facet normal -0.7933533402912353 -0.6087614290087205 1.5547413282523447e-16
  outer loop
    vertex 26.697056274847714 11.197056274847714 0.0
    vertex 27.078460969082656 10.700000000000001 8.435222080645165
    vertex 26.697056274847714 11.197056274847716 8.176669743707492
  endloop
endfacet
facet normal -0.9238795325112881 -0.38268343236508673 6.025574510022555e-17
  outer loop
    vertex 27.078460969082656 10.700000000000001 8.435222080645165
    vertex 27.318221983093764 10.12116570824605 0.0
    vertex 27.318221983093764 10.12116570824605 8.736268134867377
  endloop
endfacet
facet normal -0.9238795325112881 -0.38268343236508673 6.025574510022555e-17
  outer loop
    vertex 27.318221983093764 10.12116570824605 0.0
    vertex 27.078460969082656 10.700000000000001 8.435222080645165
    vertex 27.078460969082656 10.7 0.0
  endloop
endfacet
facet normal -0.9914448613738103 -0.13052619222005366 -1.7873203699236603e-19
  outer loop
    vertex 27.318221983093764 10.12116570824605 8.736268134867377
    vertex 27.400000000000002 9.500000000000002 0.0
    vertex 27.400000000000002 9.500000000000002 9.059292115281023
  endloop
endfacet
facet normal -0.9914448613738103 -0.13052619222005366 -1.7873203699236603e-19
  outer loop
    vertex 27.400000000000002 9.500000000000002 0.0
    vertex 27.318221983093764 10.12116570824605 8.736268134867377
    vertex 27.318221983093764 10.12116570824605 0.0
  endloop
endfacet
facet normal -0.00019099368150372428 0.4613528580765801 0.8872167175307197
  outer loop
    vertex 19.35367770678422 -0.0004564962141533572 13.997787675762885
    vertex 19.372055231610695 24.99954350378586 0.9977809211811988
    vertex 19.35008793027741 12.49952847945532 7.497896337434941
  endloop
endfacet
facet normal -0.00019099368150372428 0.4613528580765801 0.8872167175307197
  outer loop
    vertex 19.372055231610695 24.99954350378586 0.9977809211811988
    vertex 19.35367770678422 -0.0004564962141533572 13.997787675762885
    vertex 22.681778016906236 8.878834291753956 9.381274378044479
  endloop
endfacet
facet normal -0.00019099368150372428 0.4613528580765801 0.8872167175307197
  outer loop
    vertex 22.681778016906236 8.878834291753956 9.381274378044479
    vertex 19.35367770678422 -0.0004564962141533572 13.997787675762885
    vertex 22.921539030917348 8.300000000000006 9.682320452613197
  endloop
endfacet
facet normal -0.00019099368150372428 0.4613528580765801 0.8872167175307197
  outer loop
    vertex 22.921539030917348 8.300000000000006 9.682320452613197
    vertex 19.35367770678422 -0.0004564962141533572 13.997787675762885
    vertex 23.302943725152282 7.802943725152289 9.9408726398821
  endloop
endfacet
facet normal -0.00019099368150372428 0.4613528580765801 0.8872167175307197
  outer loop
    vertex 23.302943725152282 7.802943725152289 9.9408726398821
    vertex 19.35367770678422 -0.0004564962141533572 13.997787675762885
    vertex 30.65 0.0 14.0
  endloop
endfacet
facet normal -0.00019099368150372428 0.4613528580765801 0.8872167175307197
  outer loop
    vertex 19.372055231610695 24.99954350378586 0.9977809211811988
    vertex 22.681778016906236 8.878834291753956 9.381274378044479
    vertex 22.599999999999998 9.500000000000002 9.058250208655645
  endloop
endfacet
facet normal -0.00019099368150372428 0.4613528580765801 0.8872167175307197
  outer loop
    vertex 23.302943725152282 7.802943725152289 9.9408726398821
    vertex 30.65 0.0 14.0
    vertex 23.799999999999997 7.421539030917349 10.139311035566502
  endloop
endfacet
facet normal -0.00019099368150372428 0.4613528580765801 0.8872167175307197
  outer loop
    vertex 23.799999999999997 7.421539030917349 10.139311035566502
    vertex 30.65 0.0 14.0
    vertex 24.378834291753954 7.181778016906234 10.26411239093547
  endloop
endfacet
facet normal -0.00019099368150372428 0.4613528580765801 0.8872167175307197
  outer loop
    vertex 24.378834291753954 7.181778016906234 10.26411239093547
    vertex 30.65 0.0 14.0
    vertex 24.99999999999999 7.100000000000001 10.306771699864592
  endloop
endfacet
facet normal -0.00019099368150372428 0.4613528580765801 0.8872167175307197
  outer loop
    vertex 24.99999999999999 7.100000000000001 10.306771699864592
    vertex 30.65 0.0 14.0
    vertex 25.621165708246032 7.18177801690623 10.264381800948202
  endloop
endfacet
facet normal -0.00019099368150372428 0.4613528580765801 0.8872167175307197
  outer loop
    vertex 25.621165708246032 7.18177801690623 10.264381800948202
    vertex 30.65 0.0 14.0
    vertex 26.199999999999992 7.421539030917346 10.139831495744811
  endloop
endfacet
facet normal -0.00019099368150372428 0.4613528580765801 0.8872167175307197
  outer loop
    vertex 26.199999999999992 7.421539030917346 10.139831495744811
    vertex 30.65 0.0 14.0
    vertex 26.69705627484771 7.8029437251522875 9.94160868172494
  endloop
endfacet
facet normal -0.00019099368150372428 0.4613528580765801 0.8872167175307197
  outer loop
    vertex 26.69705627484771 7.8029437251522875 9.94160868172494
    vertex 30.65 0.0 14.0
    vertex 27.07846096908265 8.299999999999999 9.683222080645166
  endloop
endfacet
facet normal -0.00019099368150372428 0.4613528580765801 0.8872167175307197
  outer loop
    vertex 27.07846096908265 8.299999999999999 9.683222080645166
    vertex 30.65 0.0 14.0
    vertex 27.318221983093764 8.878834291753948 9.382280471443275
  endloop
endfacet
facet normal -0.00019099368150372428 0.4613528580765801 0.8872167175307197
  outer loop
    vertex 27.318221983093764 8.878834291753948 9.382280471443275
    vertex 30.65 0.0 14.0
    vertex 27.400000000000002 9.500000000000002 9.059292115281023
  endloop
endfacet
facet normal -0.00019099368150372428 0.4613528580765801 0.8872167175307197
  outer loop
    vertex 19.372055231610695 24.99954350378586 0.9977809211811988
    vertex 22.921539030917344 10.700000000000001 8.434319421582563
    vertex 30.65 25.000000000000007 0.9999999999999999
  endloop
endfacet
facet normal -0.00019099368150372428 0.4613528580765801 0.8872167175307197
  outer loop
    vertex 22.921539030917344 10.700000000000001 8.434319421582563
    vertex 19.372055231610695 24.99954350378586 0.9977809211811988
    vertex 22.681778016906236 10.121165708246053 8.735261507767857
  endloop
endfacet
facet normal -0.00019099368150372428 0.4613528580765801 0.8872167175307197
  outer loop
    vertex 22.681778016906236 10.121165708246053 8.735261507767857
    vertex 19.372055231610695 24.99954350378586 0.9977809211811988
    vertex 22.599999999999998 9.500000000000002 9.058250208655645
  endloop
endfacet
facet normal -0.00019099368150372428 0.4613528580765801 0.8872167175307197
  outer loop
    vertex 30.65 25.000000000000007 0.9999999999999999
    vertex 22.921539030917344 10.700000000000001 8.434319421582563
    vertex 23.302943725152286 11.197056274847718 8.175932655942967
  endloop
endfacet
facet normal -0.00019099368150372428 0.4613528580765801 0.8872167175307197
  outer loop
    vertex 30.65 25.000000000000007 0.9999999999999999
    vertex 23.302943725152286 11.197056274847718 8.175932655942967
    vertex 23.8 11.578460969082652 7.9777098419231
  endloop
endfacet
facet normal -0.00019099368150372428 0.4613528580765801 0.8872167175307197
  outer loop
    vertex 30.65 25.000000000000007 0.9999999999999999
    vertex 23.8 11.578460969082652 7.9777098419231
    vertex 24.378834291753954 11.818221983093764 7.853159536719717
  endloop
endfacet
facet normal -0.00019099368150372428 0.4613528580765801 0.8872167175307197
  outer loop
    vertex 30.65 25.000000000000007 0.9999999999999999
    vertex 24.378834291753954 11.818221983093764 7.853159536719717
    vertex 25.000000000000004 11.9 7.810769637803323
  endloop
endfacet
facet normal -0.00019099368150372428 0.4613528580765801 0.8872167175307197
  outer loop
    vertex 30.65 25.000000000000007 0.9999999999999999
    vertex 25.000000000000004 11.9 7.810769637803323
    vertex 25.621165708246053 11.818221983093764 7.853429234960659
  endloop
endfacet
facet normal -0.00019099368150372428 0.4613528580765801 0.8872167175307197
  outer loop
    vertex 30.65 25.000000000000007 0.9999999999999999
    vertex 25.621165708246053 11.818221983093764 7.853429234960659
    vertex 26.20000000000001 11.578460969082654 7.97823103853873
  endloop
endfacet
facet normal -0.00019099368150372428 0.4613528580765801 0.8872167175307197
  outer loop
    vertex 30.65 25.000000000000007 0.9999999999999999
    vertex 26.20000000000001 11.578460969082654 7.97823103853873
    vertex 26.697056274847714 11.197056274847716 8.176669743707492
  endloop
endfacet
facet normal -0.00019099368150372428 0.4613528580765801 0.8872167175307197
  outer loop
    vertex 30.65 25.000000000000007 0.9999999999999999
    vertex 26.697056274847714 11.197056274847716 8.176669743707492
    vertex 27.078460969082656 10.700000000000001 8.435222080645165
  endloop
endfacet
facet normal -0.00019099368150372428 0.4613528580765801 0.8872167175307197
  outer loop
    vertex 30.65 25.000000000000007 0.9999999999999999
    vertex 27.078460969082656 10.700000000000001 8.435222080645165
    vertex 27.318221983093764 10.12116570824605 8.736268134867377
  endloop
endfacet
facet normal -0.00019099368150372428 0.4613528580765801 0.8872167175307197
  outer loop
    vertex 30.65 25.000000000000007 0.9999999999999999
    vertex 27.318221983093764 10.12116570824605 8.736268134867377
    vertex 27.400000000000002 9.500000000000002 9.059292115281023
  endloop
endfacet
facet normal -0.00019099368150372428 0.4613528580765801 0.8872167175307197
  outer loop
    vertex 30.65 25.000000000000007 0.9999999999999999
    vertex 27.400000000000002 9.500000000000002 9.059292115281023
    vertex 30.65 0.0 14.0
  endloop
endfacet
facet normal -0.00019099368150372428 0.4613528580765801 0.8872167175307197
  outer loop
    vertex 30.65 25.000000000000007 0.9999999999999999
    vertex 30.65 0.0 14.0
    vertex 30.65 12.500000000000009 7.499999999999999
  endloop
endfacet
endsolid Lever-Clamp
