solid UltraSonic-HeadCover
facet normal 5.731913692019307e-17 -5.977747427731945e-19 1.0
  outer loop
    vertex 28.79999999999991 1.699999999999999 3.000000000000003
    vertex 1.7000000000000017 35.30000000000004 3.0000000000000058
    vertex 1.7000000000000017 1.699999999999999 3.0000000000000058
  endloop
endfacet
facet normal 5.731913692019307e-17 -5.977747427731945e-19 1.0
  outer loop
    vertex 1.7000000000000017 35.30000000000004 3.0000000000000058
    vertex 28.79999999999991 1.699999999999999 3.000000000000003
    vertex 28.79999999999992 35.30000000000004 3.000000000000003
  endloop
endfacet
facet normal -6.220312689055739e-35 -1.0 -5.977747427731944e-19
  outer loop
    vertex 28.79999999999991 1.699999999999999 3.000000000000003
    vertex 1.7000000000000017 1.699999999999999 1.7000000000000057
    vertex 28.79999999999991 1.699999999999999 1.7000000000000028
  endloop
endfacet
facet normal -6.220312689055739e-35 -1.0 -5.977747427731944e-19
  outer loop
    vertex 1.7000000000000017 1.699999999999999 1.7000000000000057
    vertex 28.79999999999991 1.699999999999999 3.000000000000003
    vertex 1.7000000000000017 1.699999999999999 3.0000000000000058
  endloop
endfacet
facet normal 1.0 -3.35710295541416e-16 -5.731913692019307e-17
  outer loop
    vertex 28.79999999999992 35.30000000000004 2.8802221766194333e-15
    vertex 28.79999999999991 1.699999999999999 1.7000000000000028
    vertex 28.79999999999991 1.699999999999999 2.8199664825478975e-15
  endloop
endfacet
facet normal 1.0 -3.35710295541416e-16 -5.731913692019307e-17
  outer loop
    vertex 28.79999999999991 1.699999999999999 1.7000000000000028
    vertex 28.79999999999992 35.30000000000004 2.8802221766194333e-15
    vertex 28.79999999999991 1.699999999999999 3.000000000000003
  endloop
endfacet
facet normal 1.0 -3.35710295541416e-16 -5.731913692019307e-17
  outer loop
    vertex 28.79999999999991 1.699999999999999 3.000000000000003
    vertex 28.79999999999992 35.30000000000004 2.8802221766194333e-15
    vertex 28.79999999999992 35.30000000000004 3.000000000000003
  endloop
endfacet
facet normal 1.0 -3.35710295541416e-16 -5.731913692019307e-17
  outer loop
    vertex 28.79999999999992 35.30000000000004 3.000000000000003
    vertex 28.79999999999992 35.30000000000004 2.8802221766194333e-15
    vertex 28.79999999999992 35.30000000000004 1.7000000000000028
  endloop
endfacet
facet normal 2.0811560756811116e-16 1.0 5.977747427731826e-19
  outer loop
    vertex 1.7000000000000017 35.30000000000004 1.7000000000000057
    vertex 28.79999999999992 35.30000000000004 3.000000000000003
    vertex 28.79999999999992 35.30000000000004 1.7000000000000028
  endloop
endfacet
facet normal 2.0811560756811116e-16 1.0 5.977747427731826e-19
  outer loop
    vertex 28.79999999999992 35.30000000000004 3.000000000000003
    vertex 1.7000000000000017 35.30000000000004 1.7000000000000057
    vertex 1.7000000000000017 35.30000000000004 3.0000000000000058
  endloop
endfacet
facet normal -1.0 0.0 5.731913692019307e-17
  outer loop
    vertex 1.7000000000000017 35.30000000000004 3.0000000000000058
    vertex 1.7000000000000017 1.699999999999999 1.7000000000000057
    vertex 1.7000000000000017 1.699999999999999 3.0000000000000058
  endloop
endfacet
facet normal -1.0 0.0 5.731913692019307e-17
  outer loop
    vertex 1.7000000000000017 1.699999999999999 1.7000000000000057
    vertex 1.7000000000000017 35.30000000000004 3.0000000000000058
    vertex 1.7000000000000017 35.30000000000004 1.7000000000000057
  endloop
endfacet
facet normal -3.8285121287062577e-19 -3.3376052106885255e-19 1.0
  outer loop
    vertex 0.20000000000000004 0.20000000000000004 1.7
    vertex 1.7000000000000017 1.699999999999999 1.7000000000000057
    vertex 0.20000000000000004 36.80000000000004 1.7
  endloop
endfacet
facet normal -3.8285121287062577e-19 -3.3376052106885255e-19 1.0
  outer loop
    vertex 1.7000000000000017 1.699999999999999 1.7000000000000057
    vertex 0.20000000000000004 0.20000000000000004 1.7
    vertex 28.79999999999991 0.20000000000000004 1.7
  endloop
endfacet
facet normal -3.8285121287062577e-19 -3.3376052106885255e-19 1.0
  outer loop
    vertex 1.7000000000000017 1.699999999999999 1.7000000000000057
    vertex 28.79999999999991 0.20000000000000004 1.7
    vertex 28.79999999999991 1.699999999999999 1.7000000000000028
  endloop
endfacet
facet normal -3.8285121287062577e-19 -3.3376052106885255e-19 1.0
  outer loop
    vertex 0.20000000000000004 36.80000000000004 1.7
    vertex 1.7000000000000017 35.30000000000004 1.7000000000000057
    vertex 28.79999999999992 36.80000000000004 1.7
  endloop
endfacet
facet normal -3.8285121287062577e-19 -3.3376052106885255e-19 1.0
  outer loop
    vertex 1.7000000000000017 35.30000000000004 1.7000000000000057
    vertex 0.20000000000000004 36.80000000000004 1.7
    vertex 1.7000000000000017 1.699999999999999 1.7000000000000057
  endloop
endfacet
facet normal -3.8285121287062577e-19 -3.3376052106885255e-19 1.0
  outer loop
    vertex 28.79999999999992 36.80000000000004 1.7
    vertex 1.7000000000000017 35.30000000000004 1.7000000000000057
    vertex 28.79999999999992 35.30000000000004 1.7000000000000028
  endloop
endfacet
facet normal 1.0 7.351310357704145e-34 3.828512128706258e-19
  outer loop
    vertex 28.79999999999992 36.80000000000004 0.0
    vertex 28.79999999999992 35.30000000000004 1.7000000000000028
    vertex 28.79999999999992 35.30000000000004 2.8802221766194333e-15
  endloop
endfacet
facet normal 1.0 7.351310357704145e-34 3.828512128706258e-19
  outer loop
    vertex 28.79999999999992 35.30000000000004 1.7000000000000028
    vertex 28.79999999999992 36.80000000000004 0.0
    vertex 28.79999999999992 36.80000000000004 1.7
  endloop
endfacet
facet normal 0.0 1.0 3.3376052106885255e-19
  outer loop
    vertex 0.20000000000000004 36.80000000000004 1.7
    vertex 28.79999999999992 36.80000000000004 0.0
    vertex 0.20000000000000004 36.80000000000004 0.0
  endloop
endfacet
facet normal 0.0 1.0 3.3376052106885255e-19
  outer loop
    vertex 28.79999999999992 36.80000000000004 0.0
    vertex 0.20000000000000004 36.80000000000004 1.7
    vertex 28.79999999999992 36.80000000000004 1.7
  endloop
endfacet
facet normal -1.0 -0.0 -3.8285121287062577e-19
  outer loop
    vertex 0.20000000000000004 36.80000000000004 1.7
    vertex 0.20000000000000004 0.20000000000000004 0.0
    vertex 0.20000000000000004 0.20000000000000004 1.7
  endloop
endfacet
facet normal -1.0 -0.0 -3.8285121287062577e-19
  outer loop
    vertex 0.20000000000000004 0.20000000000000004 0.0
    vertex 0.20000000000000004 36.80000000000004 1.7
    vertex 0.20000000000000004 36.80000000000004 0.0
  endloop
endfacet
facet normal 0.0 -1.0 -3.3376052106885255e-19
  outer loop
    vertex 28.79999999999991 0.20000000000000004 1.7
    vertex 0.20000000000000004 0.20000000000000004 0.0
    vertex 28.79999999999991 0.20000000000000004 0.0
  endloop
endfacet
facet normal 0.0 -1.0 -3.3376052106885255e-19
  outer loop
    vertex 0.20000000000000004 0.20000000000000004 0.0
    vertex 28.79999999999991 0.20000000000000004 1.7
    vertex 0.20000000000000004 0.20000000000000004 1.7
  endloop
endfacet
facet normal 1.0 -7.197517253986504e-34 3.8285121287062577e-19
  outer loop
    vertex 28.79999999999991 1.699999999999999 2.8199664825478975e-15
    vertex 28.79999999999991 0.20000000000000004 1.7
    vertex 28.79999999999991 0.20000000000000004 0.0
  endloop
endfacet
facet normal 1.0 -7.197517253986504e-34 3.8285121287062577e-19
  outer loop
    vertex 28.79999999999991 0.20000000000000004 1.7
    vertex 28.79999999999991 1.699999999999999 2.8199664825478975e-15
    vertex 28.79999999999991 1.699999999999999 1.7000000000000028
  endloop
endfacet
endsolid UltraSonic-HeadCover
