solid UltaSonicCableCover
facet normal 1.0 0.0 0.0
  outer loop
    vertex 43.0 14.0 1.7999999999999998
    vertex 43.0 -3.0 3.9999999999999996
    vertex 43.0 -3.0 1.7999999999999998
  endloop
endfacet
facet normal 1.0 0.0 0.0
  outer loop
    vertex 43.0 -3.0 3.9999999999999996
    vertex 43.0 14.0 1.7999999999999998
    vertex 43.0 14.0 3.9999999999999996
  endloop
endfacet
facet normal -1.0 0.0 0.0
  outer loop
    vertex 0.9999999999999999 14.0 3.9999999999999996
    vertex 0.9999999999999999 -3.0 1.7999999999999998
    vertex 0.9999999999999999 -3.0 3.9999999999999996
  endloop
endfacet
facet normal -1.0 0.0 0.0
  outer loop
    vertex 0.9999999999999999 -3.0 1.7999999999999998
    vertex 0.9999999999999999 14.0 3.9999999999999996
    vertex 0.9999999999999999 14.0 1.7999999999999998
  endloop
endfacet
facet normal -1.0 0.0 0.0
  outer loop
    vertex 0.0 15.0 1.7999999999999998
    vertex 0.0 -3.0 0.0
    vertex 0.0 -3.0 1.7999999999999998
  endloop
endfacet
facet normal -1.0 0.0 0.0
  outer loop
    vertex 0.0 -3.0 0.0
    vertex 0.0 15.0 1.7999999999999998
    vertex 0.0 15.0 0.0
  endloop
endfacet
facet normal 1.0 0.0 0.0
  outer loop
    vertex 44.0 15.0 0.0
    vertex 44.0 -3.0 1.7999999999999998
    vertex 44.0 -3.0 0.0
  endloop
endfacet
facet normal 1.0 0.0 0.0
  outer loop
    vertex 44.0 -3.0 1.7999999999999998
    vertex 44.0 15.0 0.0
    vertex 44.0 15.0 1.7999999999999998
  endloop
endfacet
facet normal 0.0 -1.0 0.0
  outer loop
    vertex 43.0 -3.0 3.9999999999999996
    vertex 0.9999999999999999 -3.0 1.7999999999999998
    vertex 43.0 -3.0 1.7999999999999998
  endloop
endfacet
facet normal 0.0 -1.0 0.0
  outer loop
    vertex 0.9999999999999999 -3.0 1.7999999999999998
    vertex 43.0 -3.0 3.9999999999999996
    vertex 0.9999999999999999 -3.0 3.9999999999999996
  endloop
endfacet
facet normal 0.0 -1.0 0.0
  outer loop
    vertex 44.0 -3.0 1.7999999999999998
    vertex 0.0 -3.0 0.0
    vertex 44.0 -3.0 0.0
  endloop
endfacet
facet normal 0.0 -1.0 0.0
  outer loop
    vertex 0.0 -3.0 0.0
    vertex 44.0 -3.0 1.7999999999999998
    vertex 0.0 -3.0 1.7999999999999998
  endloop
endfacet
facet normal 0.0 -1.0 0.0
  outer loop
    vertex 0.0 -3.0 1.7999999999999998
    vertex 44.0 -3.0 1.7999999999999998
    vertex 43.0 -3.0 1.7999999999999998
  endloop
endfacet
facet normal 0.0 -1.0 0.0
  outer loop
    vertex 0.0 -3.0 1.7999999999999998
    vertex 43.0 -3.0 1.7999999999999998
    vertex 0.9999999999999999 -3.0 1.7999999999999998
  endloop
endfacet
facet normal -8.553647423404208e-19 1.6681900488323467e-17 -1.0
  outer loop
    vertex 44.0 15.0 0.0
    vertex 27.0 10.5 1.762479051592436e-16
    vertex 27.0 15.0 1.762479051592436e-16
  endloop
endfacet
facet normal -8.553647423404208e-19 1.6681900488323467e-17 -1.0
  outer loop
    vertex 27.0 10.5 1.762479051592436e-16
    vertex 44.0 15.0 0.0
    vertex 39.70096189432335 9.249999999999998 1.4099832412739487e-15
  endloop
endfacet
facet normal -8.553647423404208e-19 1.6681900488323467e-17 -1.0
  outer loop
    vertex 27.0 10.5 1.762479051592436e-16
    vertex 39.70096189432335 9.249999999999998 1.4099832412739487e-15
    vertex 39.5511112605664 8.88822856765378 1.4099832412739487e-15
  endloop
endfacet
facet normal -8.553647423404208e-19 1.6681900488323467e-17 -1.0
  outer loop
    vertex 27.0 10.5 1.762479051592436e-16
    vertex 39.5511112605664 8.88822856765378 1.4099832412739487e-15
    vertex 39.50000000000001 8.5 1.4099832412739487e-15
  endloop
endfacet
facet normal -8.553647423404208e-19 1.6681900488323467e-17 -1.0
  outer loop
    vertex 39.70096189432335 9.249999999999998 1.4099832412739487e-15
    vertex 44.0 15.0 0.0
    vertex 39.939339828220184 9.56066017177982 1.4099832412739487e-15
  endloop
endfacet
facet normal -8.553647423404208e-19 1.6681900488323467e-17 -1.0
  outer loop
    vertex 39.939339828220184 9.56066017177982 1.4099832412739487e-15
    vertex 44.0 15.0 0.0
    vertex 40.25000000000001 9.799038105676656 1.4099832412739487e-15
  endloop
endfacet
facet normal -8.553647423404208e-19 1.6681900488323467e-17 -1.0
  outer loop
    vertex 40.25000000000001 9.799038105676656 1.4099832412739487e-15
    vertex 44.0 15.0 0.0
    vertex 40.611771432346224 9.948888739433599 1.4099832412739487e-15
  endloop
endfacet
facet normal -8.553647423404208e-19 1.6681900488323467e-17 -1.0
  outer loop
    vertex 40.611771432346224 9.948888739433599 1.4099832412739487e-15
    vertex 44.0 15.0 0.0
    vertex 41.00000000000001 9.999999999999996 1.4099832412739487e-15
  endloop
endfacet
facet normal -8.553647423404208e-19 1.6681900488323467e-17 -1.0
  outer loop
    vertex 41.00000000000001 9.999999999999996 1.4099832412739487e-15
    vertex 44.0 15.0 0.0
    vertex 41.38822856765378 9.948888739433599 1.4099832412739487e-15
  endloop
endfacet
facet normal -8.553647423404208e-19 1.6681900488323467e-17 -1.0
  outer loop
    vertex 41.38822856765378 9.948888739433599 1.4099832412739487e-15
    vertex 44.0 15.0 0.0
    vertex 41.508719859050615 9.898979612389184 1.4099832412739487e-15
  endloop
endfacet
facet normal -8.553647423404208e-19 1.6681900488323467e-17 -1.0
  outer loop
    vertex 41.508719859050615 9.898979612389184 1.4099832412739487e-15
    vertex 44.0 15.0 0.0
    vertex 41.75 9.799038105676656 1.4099832412739487e-15
  endloop
endfacet
facet normal -8.553647423404208e-19 1.6681900488323467e-17 -1.0
  outer loop
    vertex 41.75 9.799038105676656 1.4099832412739487e-15
    vertex 44.0 15.0 0.0
    vertex 42.06066017177982 9.56066017177982 1.4099832412739487e-15
  endloop
endfacet
facet normal -8.553647423404208e-19 1.6681900488323467e-17 -1.0
  outer loop
    vertex 42.06066017177982 9.56066017177982 1.4099832412739487e-15
    vertex 44.0 15.0 0.0
    vertex 42.29903810567666 9.249999999999998 1.4099832412739487e-15
  endloop
endfacet
facet normal -8.553647423404208e-19 1.6681900488323467e-17 -1.0
  outer loop
    vertex 42.29903810567666 9.249999999999998 1.4099832412739487e-15
    vertex 44.0 15.0 0.0
    vertex 42.4488887394336 8.888228567653782 1.4099832412739487e-15
  endloop
endfacet
facet normal -8.553647423404208e-19 1.6681900488323467e-17 -1.0
  outer loop
    vertex 42.4488887394336 8.888228567653782 1.4099832412739487e-15
    vertex 44.0 15.0 0.0
    vertex 42.5 8.5 1.4099832412739487e-15
  endloop
endfacet
facet normal -8.553647423404208e-19 1.6681900488323467e-17 -1.0
  outer loop
    vertex 17.0 15.0 1.762479051592436e-16
    vertex 0.0 -3.0 0.0
    vertex 0.0 15.0 0.0
  endloop
endfacet
facet normal -8.553647423404208e-19 1.6681900488323467e-17 -1.0
  outer loop
    vertex 0.0 -3.0 0.0
    vertex 17.0 15.0 1.762479051592436e-16
    vertex 17.0 10.5 5.287437154777307e-16
  endloop
endfacet
facet normal -8.553647423404208e-19 1.6681900488323467e-17 -1.0
  outer loop
    vertex 0.0 -3.0 0.0
    vertex 17.0 10.5 5.287437154777307e-16
    vertex 19.525126265847085 8.025126265847083 4.229949723821846e-15
  endloop
endfacet
facet normal -8.553647423404208e-19 1.6681900488323467e-17 -1.0
  outer loop
    vertex 0.0 -3.0 0.0
    vertex 19.525126265847085 8.025126265847083 4.229949723821846e-15
    vertex 20.25 7.468911086754465 4.229949723821846e-15
  endloop
endfacet
facet normal -8.553647423404208e-19 1.6681900488323467e-17 -1.0
  outer loop
    vertex 0.0 -3.0 0.0
    vertex 20.25 7.468911086754465 4.229949723821846e-15
    vertex 44.0 -3.0 0.0
  endloop
endfacet
facet normal -8.553647423404208e-19 1.6681900488323467e-17 -1.0
  outer loop
    vertex 19.525126265847085 8.025126265847083 4.229949723821846e-15
    vertex 17.0 10.5 5.287437154777307e-16
    vertex 18.968911086754463 8.75 4.229949723821846e-15
  endloop
endfacet
facet normal -8.553647423404208e-19 1.6681900488323467e-17 -1.0
  outer loop
    vertex 18.968911086754463 8.75 4.229949723821846e-15
    vertex 17.0 10.5 5.287437154777307e-16
    vertex 18.619259607988262 9.594133342141175 4.229949723821846e-15
  endloop
endfacet
facet normal -8.553647423404208e-19 1.6681900488323467e-17 -1.0
  outer loop
    vertex 18.619259607988262 9.594133342141175 4.229949723821846e-15
    vertex 17.0 10.5 5.287437154777307e-16
    vertex 18.5 10.5 2.643718577388654e-15
  endloop
endfacet
facet normal -8.553647423404208e-19 1.6681900488323467e-17 -1.0
  outer loop
    vertex 44.0 -3.0 0.0
    vertex 20.25 7.468911086754465 4.229949723821846e-15
    vertex 21.094133342141177 7.119259607988263 4.229949723821846e-15
  endloop
endfacet
facet normal -8.553647423404208e-19 1.6681900488323467e-17 -1.0
  outer loop
    vertex 44.0 -3.0 0.0
    vertex 21.094133342141177 7.119259607988263 4.229949723821846e-15
    vertex 22.0 7.000000000000001 4.229949723821846e-15
  endloop
endfacet
facet normal -8.553647423404208e-19 1.6681900488323467e-17 -1.0
  outer loop
    vertex 44.0 -3.0 0.0
    vertex 22.0 7.000000000000001 4.229949723821846e-15
    vertex 22.905866657858823 7.119259607988263 4.229949723821846e-15
  endloop
endfacet
facet normal -8.553647423404208e-19 1.6681900488323467e-17 -1.0
  outer loop
    vertex 44.0 -3.0 0.0
    vertex 22.905866657858823 7.119259607988263 4.229949723821846e-15
    vertex 23.75 7.468911086754466 4.229949723821846e-15
  endloop
endfacet
facet normal -8.553647423404208e-19 1.6681900488323467e-17 -1.0
  outer loop
    vertex 44.0 -3.0 0.0
    vertex 23.75 7.468911086754466 4.229949723821846e-15
    vertex 24.474873734152915 8.025126265847085 4.229949723821846e-15
  endloop
endfacet
facet normal -8.553647423404208e-19 1.6681900488323467e-17 -1.0
  outer loop
    vertex 44.0 -3.0 0.0
    vertex 24.474873734152915 8.025126265847085 4.229949723821846e-15
    vertex 25.031088913245533 8.75 4.229949723821846e-15
  endloop
endfacet
facet normal -8.553647423404208e-19 1.6681900488323467e-17 -1.0
  outer loop
    vertex 44.0 -3.0 0.0
    vertex 25.031088913245533 8.75 4.229949723821846e-15
    vertex 25.380740392011738 9.594133342141179 4.229949723821846e-15
  endloop
endfacet
facet normal -8.553647423404208e-19 1.6681900488323467e-17 -1.0
  outer loop
    vertex 44.0 -3.0 0.0
    vertex 25.380740392011738 9.594133342141179 4.229949723821846e-15
    vertex 25.5 10.5 2.643718577388654e-15
  endloop
endfacet
facet normal -8.553647423404208e-19 1.6681900488323467e-17 -1.0
  outer loop
    vertex 44.0 -3.0 0.0
    vertex 25.5 10.5 2.643718577388654e-15
    vertex 27.0 10.5 1.762479051592436e-16
  endloop
endfacet
facet normal -8.553647423404208e-19 1.6681900488323467e-17 -1.0
  outer loop
    vertex 44.0 -3.0 0.0
    vertex 27.0 10.5 1.762479051592436e-16
    vertex 39.55111126056641 8.111771432346218 1.4099832412739487e-15
  endloop
endfacet
facet normal -8.553647423404208e-19 1.6681900488323467e-17 -1.0
  outer loop
    vertex 39.55111126056641 8.111771432346218 1.4099832412739487e-15
    vertex 27.0 10.5 1.762479051592436e-16
    vertex 39.50000000000001 8.5 1.4099832412739487e-15
  endloop
endfacet
facet normal -8.553647423404208e-19 1.6681900488323467e-17 -1.0
  outer loop
    vertex 44.0 -3.0 0.0
    vertex 39.55111126056641 8.111771432346218 1.4099832412739487e-15
    vertex 39.70096189432335 7.75 1.4099832412739487e-15
  endloop
endfacet
facet normal -8.553647423404208e-19 1.6681900488323467e-17 -1.0
  outer loop
    vertex 44.0 -3.0 0.0
    vertex 39.70096189432335 7.75 1.4099832412739487e-15
    vertex 39.939339828220184 7.43933982822018 1.4099832412739487e-15
  endloop
endfacet
facet normal -8.553647423404208e-19 1.6681900488323467e-17 -1.0
  outer loop
    vertex 44.0 -3.0 0.0
    vertex 39.939339828220184 7.43933982822018 1.4099832412739487e-15
    vertex 40.25000000000001 7.200961894323344 1.4099832412739487e-15
  endloop
endfacet
facet normal -8.553647423404208e-19 1.6681900488323467e-17 -1.0
  outer loop
    vertex 44.0 -3.0 0.0
    vertex 40.25000000000001 7.200961894323344 1.4099832412739487e-15
    vertex 40.49128014094939 7.101020387610817 1.4099832412739487e-15
  endloop
endfacet
facet normal -8.553647423404208e-19 1.6681900488323467e-17 -1.0
  outer loop
    vertex 44.0 -3.0 0.0
    vertex 40.49128014094939 7.101020387610817 1.4099832412739487e-15
    vertex 40.611771432346224 7.0511112605664 1.4099832412739487e-15
  endloop
endfacet
facet normal -8.553647423404208e-19 1.6681900488323467e-17 -1.0
  outer loop
    vertex 44.0 -3.0 0.0
    vertex 40.611771432346224 7.0511112605664 1.4099832412739487e-15
    vertex 41.00000000000001 7.000000000000003 1.4099832412739487e-15
  endloop
endfacet
facet normal -8.553647423404208e-19 1.6681900488323467e-17 -1.0
  outer loop
    vertex 44.0 -3.0 0.0
    vertex 41.00000000000001 7.000000000000003 1.4099832412739487e-15
    vertex 41.38822856765379 7.0511112605664 1.4099832412739487e-15
  endloop
endfacet
facet normal -8.553647423404208e-19 1.6681900488323467e-17 -1.0
  outer loop
    vertex 44.0 -3.0 0.0
    vertex 41.38822856765379 7.0511112605664 1.4099832412739487e-15
    vertex 41.75 7.2009618943233455 1.4099832412739487e-15
  endloop
endfacet
facet normal -8.553647423404208e-19 1.6681900488323467e-17 -1.0
  outer loop
    vertex 44.0 -3.0 0.0
    vertex 41.75 7.2009618943233455 1.4099832412739487e-15
    vertex 42.06066017177982 7.439339828220182 1.4099832412739487e-15
  endloop
endfacet
facet normal -8.553647423404208e-19 1.6681900488323467e-17 -1.0
  outer loop
    vertex 44.0 -3.0 0.0
    vertex 42.06066017177982 7.439339828220182 1.4099832412739487e-15
    vertex 42.29903810567666 7.750000000000001 1.4099832412739487e-15
  endloop
endfacet
facet normal -8.553647423404208e-19 1.6681900488323467e-17 -1.0
  outer loop
    vertex 44.0 -3.0 0.0
    vertex 42.29903810567666 7.750000000000001 1.4099832412739487e-15
    vertex 42.448888739433606 8.11177143234622 1.4099832412739487e-15
  endloop
endfacet
facet normal -8.553647423404208e-19 1.6681900488323467e-17 -1.0
  outer loop
    vertex 44.0 -3.0 0.0
    vertex 42.448888739433606 8.11177143234622 1.4099832412739487e-15
    vertex 42.5 8.5 1.4099832412739487e-15
  endloop
endfacet
facet normal -8.553647423404208e-19 1.6681900488323467e-17 -1.0
  outer loop
    vertex 44.0 -3.0 0.0
    vertex 42.5 8.5 1.4099832412739487e-15
    vertex 44.0 15.0 0.0
  endloop
endfacet
facet normal -0.0 1.0 -0.0
  outer loop
    vertex 27.0 15.0 1.762479051592436e-16
    vertex 44.0 15.0 1.7999999999999998
    vertex 44.0 15.0 0.0
  endloop
endfacet
facet normal -0.0 1.0 -0.0
  outer loop
    vertex 44.0 15.0 1.7999999999999998
    vertex 27.0 15.0 1.762479051592436e-16
    vertex 27.0 15.0 1.7999999999999998
  endloop
endfacet
facet normal 2.613481942868074e-33 -1.2276452927259195e-32 1.0
  outer loop
    vertex 43.0 -3.0 3.9999999999999996
    vertex 0.9999999999999999 14.0 3.9999999999999996
    vertex 0.9999999999999999 -3.0 3.9999999999999996
  endloop
endfacet
facet normal 2.613481942868074e-33 -1.2276452927259195e-32 1.0
  outer loop
    vertex 0.9999999999999999 14.0 3.9999999999999996
    vertex 43.0 -3.0 3.9999999999999996
    vertex 20.25 7.468911086754465 3.9999999999999996
  endloop
endfacet
facet normal 2.613481942868074e-33 -1.2276452927259195e-32 1.0
  outer loop
    vertex 0.9999999999999999 14.0 3.9999999999999996
    vertex 20.25 7.468911086754465 3.9999999999999996
    vertex 15.999999999999998 10.5 3.9999999999999996
  endloop
endfacet
facet normal 2.613481942868074e-33 -1.2276452927259195e-32 1.0
  outer loop
    vertex 15.999999999999998 10.5 3.9999999999999996
    vertex 20.25 7.468911086754465 3.9999999999999996
    vertex 19.525126265847085 8.025126265847083 3.9999999999999996
  endloop
endfacet
facet normal 2.613481942868074e-33 -1.2276452927259195e-32 1.0
  outer loop
    vertex 15.999999999999998 10.5 3.9999999999999996
    vertex 19.525126265847085 8.025126265847083 3.9999999999999996
    vertex 18.968911086754463 8.75 3.9999999999999996
  endloop
endfacet
facet normal 2.613481942868074e-33 -1.2276452927259195e-32 1.0
  outer loop
    vertex 15.999999999999998 10.5 3.9999999999999996
    vertex 18.968911086754463 8.75 3.9999999999999996
    vertex 18.619259607988262 9.594133342141175 3.9999999999999996
  endloop
endfacet
facet normal 2.613481942868074e-33 -1.2276452927259195e-32 1.0
  outer loop
    vertex 15.999999999999998 10.5 3.9999999999999996
    vertex 18.619259607988262 9.594133342141175 3.9999999999999996
    vertex 18.5 10.5 3.9999999999999996
  endloop
endfacet
facet normal 2.613481942868074e-33 -1.2276452927259195e-32 1.0
  outer loop
    vertex 20.25 7.468911086754465 3.9999999999999996
    vertex 43.0 -3.0 3.9999999999999996
    vertex 21.094133342141177 7.119259607988263 3.9999999999999996
  endloop
endfacet
facet normal 2.613481942868074e-33 -1.2276452927259195e-32 1.0
  outer loop
    vertex 21.094133342141177 7.119259607988263 3.9999999999999996
    vertex 43.0 -3.0 3.9999999999999996
    vertex 22.0 7.000000000000001 3.9999999999999996
  endloop
endfacet
facet normal 2.613481942868074e-33 -1.2276452927259195e-32 1.0
  outer loop
    vertex 22.0 7.000000000000001 3.9999999999999996
    vertex 43.0 -3.0 3.9999999999999996
    vertex 22.905866657858823 7.119259607988263 3.9999999999999996
  endloop
endfacet
facet normal 2.613481942868074e-33 -1.2276452927259195e-32 1.0
  outer loop
    vertex 22.905866657858823 7.119259607988263 3.9999999999999996
    vertex 43.0 -3.0 3.9999999999999996
    vertex 23.75 7.468911086754466 3.9999999999999996
  endloop
endfacet
facet normal 2.613481942868074e-33 -1.2276452927259195e-32 1.0
  outer loop
    vertex 23.75 7.468911086754466 3.9999999999999996
    vertex 43.0 -3.0 3.9999999999999996
    vertex 24.474873734152915 8.025126265847085 3.9999999999999996
  endloop
endfacet
facet normal 2.613481942868074e-33 -1.2276452927259195e-32 1.0
  outer loop
    vertex 24.474873734152915 8.025126265847085 3.9999999999999996
    vertex 43.0 -3.0 3.9999999999999996
    vertex 25.031088913245533 8.75 3.9999999999999996
  endloop
endfacet
facet normal 2.613481942868074e-33 -1.2276452927259195e-32 1.0
  outer loop
    vertex 25.031088913245533 8.75 3.9999999999999996
    vertex 43.0 -3.0 3.9999999999999996
    vertex 25.380740392011738 9.594133342141179 3.9999999999999996
  endloop
endfacet
facet normal 2.613481942868074e-33 -1.2276452927259195e-32 1.0
  outer loop
    vertex 25.380740392011738 9.594133342141179 3.9999999999999996
    vertex 43.0 -3.0 3.9999999999999996
    vertex 25.5 10.5 3.9999999999999996
  endloop
endfacet
facet normal 2.613481942868074e-33 -1.2276452927259195e-32 1.0
  outer loop
    vertex 25.5 10.5 3.9999999999999996
    vertex 43.0 -3.0 3.9999999999999996
    vertex 28.0 10.5 3.9999999999999996
  endloop
endfacet
facet normal 2.613481942868074e-33 -1.2276452927259195e-32 1.0
  outer loop
    vertex 28.0 10.5 3.9999999999999996
    vertex 43.0 -3.0 3.9999999999999996
    vertex 28.0 14.0 3.9999999999999996
  endloop
endfacet
facet normal 2.613481942868074e-33 -1.2276452927259195e-32 1.0
  outer loop
    vertex 28.0 14.0 3.9999999999999996
    vertex 43.0 -3.0 3.9999999999999996
    vertex 39.55111126056641 8.111771432346218 3.9999999999999996
  endloop
endfacet
facet normal 2.613481942868074e-33 -1.2276452927259195e-32 1.0
  outer loop
    vertex 28.0 14.0 3.9999999999999996
    vertex 39.55111126056641 8.111771432346218 3.9999999999999996
    vertex 39.50000000000001 8.5 3.9999999999999996
  endloop
endfacet
facet normal 2.613481942868074e-33 -1.2276452927259195e-32 1.0
  outer loop
    vertex 39.55111126056641 8.111771432346218 3.9999999999999996
    vertex 43.0 -3.0 3.9999999999999996
    vertex 39.70096189432335 7.75 3.9999999999999996
  endloop
endfacet
facet normal 2.613481942868074e-33 -1.2276452927259195e-32 1.0
  outer loop
    vertex 39.70096189432335 7.75 3.9999999999999996
    vertex 43.0 -3.0 3.9999999999999996
    vertex 39.939339828220184 7.43933982822018 3.9999999999999996
  endloop
endfacet
facet normal 2.613481942868074e-33 -1.2276452927259195e-32 1.0
  outer loop
    vertex 39.939339828220184 7.43933982822018 3.9999999999999996
    vertex 43.0 -3.0 3.9999999999999996
    vertex 40.25000000000001 7.200961894323344 3.9999999999999996
  endloop
endfacet
facet normal 2.613481942868074e-33 -1.2276452927259195e-32 1.0
  outer loop
    vertex 40.25000000000001 7.200961894323344 3.9999999999999996
    vertex 43.0 -3.0 3.9999999999999996
    vertex 40.49128014094939 7.101020387610817 3.9999999999999996
  endloop
endfacet
facet normal 2.613481942868074e-33 -1.2276452927259195e-32 1.0
  outer loop
    vertex 40.49128014094939 7.101020387610817 3.9999999999999996
    vertex 43.0 -3.0 3.9999999999999996
    vertex 40.611771432346224 7.0511112605664 3.9999999999999996
  endloop
endfacet
facet normal 2.613481942868074e-33 -1.2276452927259195e-32 1.0
  outer loop
    vertex 40.611771432346224 7.0511112605664 3.9999999999999996
    vertex 43.0 -3.0 3.9999999999999996
    vertex 41.00000000000001 7.000000000000003 3.9999999999999996
  endloop
endfacet
facet normal 2.613481942868074e-33 -1.2276452927259195e-32 1.0
  outer loop
    vertex 41.00000000000001 7.000000000000003 3.9999999999999996
    vertex 43.0 -3.0 3.9999999999999996
    vertex 41.38822856765379 7.0511112605664 3.9999999999999996
  endloop
endfacet
facet normal 2.613481942868074e-33 -1.2276452927259195e-32 1.0
  outer loop
    vertex 41.38822856765379 7.0511112605664 3.9999999999999996
    vertex 43.0 -3.0 3.9999999999999996
    vertex 41.75 7.2009618943233455 3.9999999999999996
  endloop
endfacet
facet normal 2.613481942868074e-33 -1.2276452927259195e-32 1.0
  outer loop
    vertex 41.75 7.2009618943233455 3.9999999999999996
    vertex 43.0 -3.0 3.9999999999999996
    vertex 42.06066017177982 7.439339828220182 3.9999999999999996
  endloop
endfacet
facet normal 2.613481942868074e-33 -1.2276452927259195e-32 1.0
  outer loop
    vertex 42.06066017177982 7.439339828220182 3.9999999999999996
    vertex 43.0 -3.0 3.9999999999999996
    vertex 42.29903810567666 7.750000000000001 3.9999999999999996
  endloop
endfacet
facet normal 2.613481942868074e-33 -1.2276452927259195e-32 1.0
  outer loop
    vertex 42.29903810567666 7.750000000000001 3.9999999999999996
    vertex 43.0 -3.0 3.9999999999999996
    vertex 42.448888739433606 8.11177143234622 3.9999999999999996
  endloop
endfacet
facet normal 2.613481942868074e-33 -1.2276452927259195e-32 1.0
  outer loop
    vertex 42.448888739433606 8.11177143234622 3.9999999999999996
    vertex 43.0 -3.0 3.9999999999999996
    vertex 42.5 8.5 3.9999999999999996
  endloop
endfacet
facet normal 2.613481942868074e-33 -1.2276452927259195e-32 1.0
  outer loop
    vertex 28.0 14.0 3.9999999999999996
    vertex 39.70096189432335 9.249999999999998 3.9999999999999996
    vertex 43.0 14.0 3.9999999999999996
  endloop
endfacet
facet normal 2.613481942868074e-33 -1.2276452927259195e-32 1.0
  outer loop
    vertex 39.70096189432335 9.249999999999998 3.9999999999999996
    vertex 28.0 14.0 3.9999999999999996
    vertex 39.5511112605664 8.88822856765378 3.9999999999999996
  endloop
endfacet
facet normal 2.613481942868074e-33 -1.2276452927259195e-32 1.0
  outer loop
    vertex 39.5511112605664 8.88822856765378 3.9999999999999996
    vertex 28.0 14.0 3.9999999999999996
    vertex 39.50000000000001 8.5 3.9999999999999996
  endloop
endfacet
facet normal 2.613481942868074e-33 -1.2276452927259195e-32 1.0
  outer loop
    vertex 43.0 14.0 3.9999999999999996
    vertex 39.70096189432335 9.249999999999998 3.9999999999999996
    vertex 39.939339828220184 9.56066017177982 3.9999999999999996
  endloop
endfacet
facet normal 2.613481942868074e-33 -1.2276452927259195e-32 1.0
  outer loop
    vertex 43.0 14.0 3.9999999999999996
    vertex 39.939339828220184 9.56066017177982 3.9999999999999996
    vertex 40.25000000000001 9.799038105676656 3.9999999999999996
  endloop
endfacet
facet normal 2.613481942868074e-33 -1.2276452927259195e-32 1.0
  outer loop
    vertex 43.0 14.0 3.9999999999999996
    vertex 40.25000000000001 9.799038105676656 3.9999999999999996
    vertex 40.611771432346224 9.948888739433599 3.9999999999999996
  endloop
endfacet
facet normal 2.613481942868074e-33 -1.2276452927259195e-32 1.0
  outer loop
    vertex 43.0 14.0 3.9999999999999996
    vertex 40.611771432346224 9.948888739433599 3.9999999999999996
    vertex 41.00000000000001 9.999999999999996 3.9999999999999996
  endloop
endfacet
facet normal 2.613481942868074e-33 -1.2276452927259195e-32 1.0
  outer loop
    vertex 43.0 14.0 3.9999999999999996
    vertex 41.00000000000001 9.999999999999996 3.9999999999999996
    vertex 41.38822856765378 9.948888739433599 3.9999999999999996
  endloop
endfacet
facet normal 2.613481942868074e-33 -1.2276452927259195e-32 1.0
  outer loop
    vertex 43.0 14.0 3.9999999999999996
    vertex 41.38822856765378 9.948888739433599 3.9999999999999996
    vertex 41.508719859050615 9.898979612389184 3.9999999999999996
  endloop
endfacet
facet normal 2.613481942868074e-33 -1.2276452927259195e-32 1.0
  outer loop
    vertex 43.0 14.0 3.9999999999999996
    vertex 41.508719859050615 9.898979612389184 3.9999999999999996
    vertex 41.75 9.799038105676656 3.9999999999999996
  endloop
endfacet
facet normal 2.613481942868074e-33 -1.2276452927259195e-32 1.0
  outer loop
    vertex 43.0 14.0 3.9999999999999996
    vertex 41.75 9.799038105676656 3.9999999999999996
    vertex 42.06066017177982 9.56066017177982 3.9999999999999996
  endloop
endfacet
facet normal 2.613481942868074e-33 -1.2276452927259195e-32 1.0
  outer loop
    vertex 43.0 14.0 3.9999999999999996
    vertex 42.06066017177982 9.56066017177982 3.9999999999999996
    vertex 42.29903810567666 9.249999999999998 3.9999999999999996
  endloop
endfacet
facet normal 2.613481942868074e-33 -1.2276452927259195e-32 1.0
  outer loop
    vertex 43.0 14.0 3.9999999999999996
    vertex 42.29903810567666 9.249999999999998 3.9999999999999996
    vertex 42.4488887394336 8.888228567653782 3.9999999999999996
  endloop
endfacet
facet normal 2.613481942868074e-33 -1.2276452927259195e-32 1.0
  outer loop
    vertex 43.0 14.0 3.9999999999999996
    vertex 42.4488887394336 8.888228567653782 3.9999999999999996
    vertex 42.5 8.5 3.9999999999999996
  endloop
endfacet
facet normal 2.613481942868074e-33 -1.2276452927259195e-32 1.0
  outer loop
    vertex 43.0 14.0 3.9999999999999996
    vertex 42.5 8.5 3.9999999999999996
    vertex 43.0 -3.0 3.9999999999999996
  endloop
endfacet
facet normal 2.613481942868074e-33 -1.2276452927259195e-32 1.0
  outer loop
    vertex 15.999999999999998 14.0 3.9999999999999996
    vertex 0.9999999999999999 14.0 3.9999999999999996
    vertex 15.999999999999998 10.5 3.9999999999999996
  endloop
endfacet
facet normal -1.8156865887625704e-17 2.1772771954772236e-18 1.0
  outer loop
    vertex 17.0 10.5 1.8000000000000003
    vertex 15.999999999999998 14.0 1.8000000000000003
    vertex 15.999999999999998 10.5 1.8000000000000003
  endloop
endfacet
facet normal -1.8156865887625704e-17 2.1772771954772236e-18 1.0
  outer loop
    vertex 0.9999999999999999 -3.0 1.7999999999999998
    vertex 0.0 15.0 1.7999999999999998
    vertex 0.0 -3.0 1.7999999999999998
  endloop
endfacet
facet normal -1.8156865887625704e-17 2.1772771954772236e-18 1.0
  outer loop
    vertex 0.0 15.0 1.7999999999999998
    vertex 0.9999999999999999 -3.0 1.7999999999999998
    vertex 0.9999999999999999 14.0 1.7999999999999998
  endloop
endfacet
facet normal -1.8156865887625704e-17 2.1772771954772236e-18 1.0
  outer loop
    vertex 0.0 15.0 1.7999999999999998
    vertex 0.9999999999999999 14.0 1.7999999999999998
    vertex 17.0 15.0 1.7999999999999998
  endloop
endfacet
facet normal -1.8156865887625704e-17 2.1772771954772236e-18 1.0
  outer loop
    vertex 17.0 15.0 1.7999999999999998
    vertex 0.9999999999999999 14.0 1.7999999999999998
    vertex 15.999999999999998 14.0 1.8000000000000003
  endloop
endfacet
facet normal -1.8156865887625704e-17 2.1772771954772236e-18 1.0
  outer loop
    vertex 17.0 15.0 1.7999999999999998
    vertex 15.999999999999998 14.0 1.8000000000000003
    vertex 17.0 10.5 1.8000000000000003
  endloop
endfacet
facet normal -0.0 1.0 -0.0
  outer loop
    vertex 28.0 14.0 3.9999999999999996
    vertex 43.0 14.0 1.7999999999999998
    vertex 28.0 14.0 1.7999999999999998
  endloop
endfacet
facet normal -0.0 1.0 -0.0
  outer loop
    vertex 43.0 14.0 1.7999999999999998
    vertex 28.0 14.0 3.9999999999999996
    vertex 43.0 14.0 3.9999999999999996
  endloop
endfacet
facet normal -1.0 0.0 0.0
  outer loop
    vertex 28.0 14.0 3.9999999999999996
    vertex 28.0 10.5 1.7999999999999998
    vertex 28.0 10.5 3.9999999999999996
  endloop
endfacet
facet normal -1.0 0.0 0.0
  outer loop
    vertex 28.0 10.5 1.7999999999999998
    vertex 28.0 14.0 3.9999999999999996
    vertex 28.0 14.0 1.7999999999999998
  endloop
endfacet
facet normal 1.0 -0.0 -0.0
  outer loop
    vertex 15.999999999999998 14.0 1.8000000000000003
    vertex 15.999999999999998 10.5 3.9999999999999996
    vertex 15.999999999999998 10.5 1.8000000000000003
  endloop
endfacet
facet normal 1.0 -0.0 -0.0
  outer loop
    vertex 15.999999999999998 10.5 3.9999999999999996
    vertex 15.999999999999998 14.0 1.8000000000000003
    vertex 15.999999999999998 14.0 3.9999999999999996
  endloop
endfacet
facet normal -0.0 1.0 -0.0
  outer loop
    vertex 0.9999999999999999 14.0 3.9999999999999996
    vertex 15.999999999999998 14.0 1.8000000000000003
    vertex 0.9999999999999999 14.0 1.7999999999999998
  endloop
endfacet
facet normal -0.0 1.0 -0.0
  outer loop
    vertex 15.999999999999998 14.0 1.8000000000000003
    vertex 0.9999999999999999 14.0 3.9999999999999996
    vertex 15.999999999999998 14.0 3.9999999999999996
  endloop
endfacet
facet normal -0.0 1.0 -0.0
  outer loop
    vertex 15.999999999999998 10.5 3.9999999999999996
    vertex 17.0 10.5 1.8000000000000003
    vertex 15.999999999999998 10.5 1.8000000000000003
  endloop
endfacet
facet normal -0.0 1.0 -0.0
  outer loop
    vertex 17.0 10.5 1.8000000000000003
    vertex 18.5 10.5 2.643718577388654e-15
    vertex 17.0 10.5 5.287437154777307e-16
  endloop
endfacet
facet normal -0.0 1.0 -0.0
  outer loop
    vertex 18.5 10.5 2.643718577388654e-15
    vertex 17.0 10.5 1.8000000000000003
    vertex 18.5 10.5 3.9999999999999996
  endloop
endfacet
facet normal -0.0 1.0 -0.0
  outer loop
    vertex 18.5 10.5 3.9999999999999996
    vertex 17.0 10.5 1.8000000000000003
    vertex 15.999999999999998 10.5 3.9999999999999996
  endloop
endfacet
facet normal -0.0 1.0 -0.0
  outer loop
    vertex 25.5 10.5 2.643718577388654e-15
    vertex 27.0 10.5 1.7999999999999998
    vertex 27.0 10.5 1.762479051592436e-16
  endloop
endfacet
facet normal -0.0 1.0 -0.0
  outer loop
    vertex 27.0 10.5 1.7999999999999998
    vertex 25.5 10.5 2.643718577388654e-15
    vertex 25.5 10.5 3.9999999999999996
  endloop
endfacet
facet normal -0.0 1.0 -0.0
  outer loop
    vertex 27.0 10.5 1.7999999999999998
    vertex 25.5 10.5 3.9999999999999996
    vertex 28.0 10.5 1.7999999999999998
  endloop
endfacet
facet normal -0.0 1.0 -0.0
  outer loop
    vertex 28.0 10.5 1.7999999999999998
    vertex 25.5 10.5 3.9999999999999996
    vertex 28.0 10.5 3.9999999999999996
  endloop
endfacet
facet normal -0.0 -0.0 1.0
  outer loop
    vertex 44.0 -3.0 1.7999999999999998
    vertex 43.0 14.0 1.7999999999999998
    vertex 43.0 -3.0 1.7999999999999998
  endloop
endfacet
facet normal -0.0 -0.0 1.0
  outer loop
    vertex 28.0 10.5 1.7999999999999998
    vertex 27.0 15.0 1.7999999999999998
    vertex 27.0 10.5 1.7999999999999998
  endloop
endfacet
facet normal -0.0 -0.0 1.0
  outer loop
    vertex 27.0 15.0 1.7999999999999998
    vertex 28.0 10.5 1.7999999999999998
    vertex 28.0 14.0 1.7999999999999998
  endloop
endfacet
facet normal -0.0 -0.0 1.0
  outer loop
    vertex 27.0 15.0 1.7999999999999998
    vertex 28.0 14.0 1.7999999999999998
    vertex 44.0 15.0 1.7999999999999998
  endloop
endfacet
facet normal -0.0 -0.0 1.0
  outer loop
    vertex 44.0 15.0 1.7999999999999998
    vertex 28.0 14.0 1.7999999999999998
    vertex 43.0 14.0 1.7999999999999998
  endloop
endfacet
facet normal -0.0 -0.0 1.0
  outer loop
    vertex 44.0 15.0 1.7999999999999998
    vertex 43.0 14.0 1.7999999999999998
    vertex 44.0 -3.0 1.7999999999999998
  endloop
endfacet
facet normal -1.0 0.0 0.0
  outer loop
    vertex 27.0 15.0 1.7999999999999998
    vertex 27.0 10.5 1.762479051592436e-16
    vertex 27.0 10.5 1.7999999999999998
  endloop
endfacet
facet normal -1.0 0.0 0.0
  outer loop
    vertex 27.0 10.5 1.762479051592436e-16
    vertex 27.0 15.0 1.7999999999999998
    vertex 27.0 15.0 1.762479051592436e-16
  endloop
endfacet
facet normal 1.0 -0.0 -0.0
  outer loop
    vertex 17.0 15.0 1.762479051592436e-16
    vertex 17.0 10.5 1.8000000000000003
    vertex 17.0 10.5 5.287437154777307e-16
  endloop
endfacet
facet normal 1.0 -0.0 -0.0
  outer loop
    vertex 17.0 10.5 1.8000000000000003
    vertex 17.0 15.0 1.762479051592436e-16
    vertex 17.0 15.0 1.7999999999999998
  endloop
endfacet
facet normal -0.0 1.0 -0.0
  outer loop
    vertex 0.0 15.0 1.7999999999999998
    vertex 17.0 15.0 1.762479051592436e-16
    vertex 0.0 15.0 0.0
  endloop
endfacet
facet normal -0.0 1.0 -0.0
  outer loop
    vertex 17.0 15.0 1.762479051592436e-16
    vertex 0.0 15.0 1.7999999999999998
    vertex 17.0 15.0 1.7999999999999998
  endloop
endfacet
facet normal -0.9914448613738105 0.13052619222005196 -7.375803917596476e-19
  outer loop
    vertex 25.5 10.5 3.9999999999999996
    vertex 25.380740392011738 9.594133342141179 4.229949723821846e-15
    vertex 25.380740392011738 9.594133342141179 3.9999999999999996
  endloop
endfacet
facet normal -0.9914448613738105 0.13052619222005196 -7.375803917596476e-19
  outer loop
    vertex 25.380740392011738 9.594133342141179 4.229949723821846e-15
    vertex 25.5 10.5 3.9999999999999996
    vertex 25.5 10.5 2.643718577388654e-15
  endloop
endfacet
facet normal 0.9914448613738105 0.13052619222005138 4.0368168999579003e-19
  outer loop
    vertex 18.5 10.5 2.643718577388654e-15
    vertex 18.619259607988262 9.594133342141175 3.9999999999999996
    vertex 18.619259607988262 9.594133342141175 4.229949723821846e-15
  endloop
endfacet
facet normal 0.9914448613738105 0.13052619222005138 4.0368168999579003e-19
  outer loop
    vertex 18.619259607988262 9.594133342141175 3.9999999999999996
    vertex 18.5 10.5 2.643718577388654e-15
    vertex 18.5 10.5 3.9999999999999996
  endloop
endfacet
facet normal 0.9238795325112865 0.38268343236509056 0.0
  outer loop
    vertex 18.619259607988262 9.594133342141175 4.229949723821846e-15
    vertex 18.968911086754463 8.75 3.9999999999999996
    vertex 18.968911086754463 8.75 4.229949723821846e-15
  endloop
endfacet
facet normal 0.9238795325112865 0.38268343236509056 0.0
  outer loop
    vertex 18.968911086754463 8.75 3.9999999999999996
    vertex 18.619259607988262 9.594133342141175 4.229949723821846e-15
    vertex 18.619259607988262 9.594133342141175 3.9999999999999996
  endloop
endfacet
facet normal 0.7933533402912344 0.6087614290087219 0.0
  outer loop
    vertex 18.968911086754463 8.75 4.229949723821846e-15
    vertex 19.525126265847085 8.025126265847083 3.9999999999999996
    vertex 19.525126265847085 8.025126265847083 4.229949723821846e-15
  endloop
endfacet
facet normal 0.7933533402912344 0.6087614290087219 0.0
  outer loop
    vertex 19.525126265847085 8.025126265847083 3.9999999999999996
    vertex 18.968911086754463 8.75 4.229949723821846e-15
    vertex 18.968911086754463 8.75 3.9999999999999996
  endloop
endfacet
facet normal 0.6087614290087217 0.7933533402912346 0.0
  outer loop
    vertex 19.525126265847085 8.025126265847083 3.9999999999999996
    vertex 20.25 7.468911086754465 4.229949723821846e-15
    vertex 19.525126265847085 8.025126265847083 4.229949723821846e-15
  endloop
endfacet
facet normal 0.6087614290087217 0.7933533402912346 0.0
  outer loop
    vertex 20.25 7.468911086754465 4.229949723821846e-15
    vertex 19.525126265847085 8.025126265847083 3.9999999999999996
    vertex 20.25 7.468911086754465 3.9999999999999996
  endloop
endfacet
facet normal 0.3826834323650882 0.9238795325112876 0.0
  outer loop
    vertex 20.25 7.468911086754465 3.9999999999999996
    vertex 21.094133342141177 7.119259607988263 4.229949723821846e-15
    vertex 20.25 7.468911086754465 4.229949723821846e-15
  endloop
endfacet
facet normal 0.3826834323650882 0.9238795325112876 0.0
  outer loop
    vertex 21.094133342141177 7.119259607988263 4.229949723821846e-15
    vertex 20.25 7.468911086754465 3.9999999999999996
    vertex 21.094133342141177 7.119259607988263 3.9999999999999996
  endloop
endfacet
facet normal 0.13052619222005196 0.9914448613738105 0.0
  outer loop
    vertex 21.094133342141177 7.119259607988263 3.9999999999999996
    vertex 22.0 7.000000000000001 4.229949723821846e-15
    vertex 21.094133342141177 7.119259607988263 4.229949723821846e-15
  endloop
endfacet
facet normal 0.13052619222005196 0.9914448613738105 0.0
  outer loop
    vertex 22.0 7.000000000000001 4.229949723821846e-15
    vertex 21.094133342141177 7.119259607988263 3.9999999999999996
    vertex 22.0 7.000000000000001 3.9999999999999996
  endloop
endfacet
facet normal -0.13052619222005155 0.9914448613738105 -0.0
  outer loop
    vertex 22.0 7.000000000000001 3.9999999999999996
    vertex 22.905866657858823 7.119259607988263 4.229949723821846e-15
    vertex 22.0 7.000000000000001 4.229949723821846e-15
  endloop
endfacet
facet normal -0.13052619222005155 0.9914448613738105 -0.0
  outer loop
    vertex 22.905866657858823 7.119259607988263 4.229949723821846e-15
    vertex 22.0 7.000000000000001 3.9999999999999996
    vertex 22.905866657858823 7.119259607988263 3.9999999999999996
  endloop
endfacet
facet normal -0.38268343236509056 0.9238795325112865 -0.0
  outer loop
    vertex 22.905866657858823 7.119259607988263 3.9999999999999996
    vertex 23.75 7.468911086754466 4.229949723821846e-15
    vertex 22.905866657858823 7.119259607988263 4.229949723821846e-15
  endloop
endfacet
facet normal -0.38268343236509056 0.9238795325112865 -0.0
  outer loop
    vertex 23.75 7.468911086754466 4.229949723821846e-15
    vertex 22.905866657858823 7.119259607988263 3.9999999999999996
    vertex 23.75 7.468911086754466 3.9999999999999996
  endloop
endfacet
facet normal -0.6087614290087201 0.7933533402912356 -0.0
  outer loop
    vertex 23.75 7.468911086754466 3.9999999999999996
    vertex 24.474873734152915 8.025126265847085 4.229949723821846e-15
    vertex 23.75 7.468911086754466 4.229949723821846e-15
  endloop
endfacet
facet normal -0.6087614290087201 0.7933533402912356 -0.0
  outer loop
    vertex 24.474873734152915 8.025126265847085 4.229949723821846e-15
    vertex 23.75 7.468911086754466 3.9999999999999996
    vertex 24.474873734152915 8.025126265847085 3.9999999999999996
  endloop
endfacet
facet normal -0.7933533402912359 0.6087614290087199 -0.0
  outer loop
    vertex 25.031088913245533 8.75 3.9999999999999996
    vertex 24.474873734152915 8.025126265847085 4.229949723821846e-15
    vertex 24.474873734152915 8.025126265847085 3.9999999999999996
  endloop
endfacet
facet normal -0.7933533402912359 0.6087614290087199 -0.0
  outer loop
    vertex 24.474873734152915 8.025126265847085 4.229949723821846e-15
    vertex 25.031088913245533 8.75 3.9999999999999996
    vertex 25.031088913245533 8.75 4.229949723821846e-15
  endloop
endfacet
facet normal -0.923879532511287 0.38268343236508945 -0.0
  outer loop
    vertex 25.380740392011738 9.594133342141179 3.9999999999999996
    vertex 25.031088913245533 8.75 4.229949723821846e-15
    vertex 25.031088913245533 8.75 3.9999999999999996
  endloop
endfacet
facet normal -0.923879532511287 0.38268343236508945 -0.0
  outer loop
    vertex 25.031088913245533 8.75 4.229949723821846e-15
    vertex 25.380740392011738 9.594133342141179 3.9999999999999996
    vertex 25.380740392011738 9.594133342141179 4.229949723821846e-15
  endloop
endfacet
facet normal 0.38268343236508434 0.9238795325112891 1.1655834655083183e-31
  outer loop
    vertex 40.25000000000001 7.200961894323344 3.9999999999999996
    vertex 40.49128014094939 7.101020387610817 1.4099832412739487e-15
    vertex 40.25000000000001 7.200961894323344 1.4099832412739487e-15
  endloop
endfacet
facet normal 0.38268343236508434 0.9238795325112891 1.1655834655083183e-31
  outer loop
    vertex 40.49128014094939 7.101020387610817 1.4099832412739487e-15
    vertex 40.25000000000001 7.200961894323344 3.9999999999999996
    vertex 40.49128014094939 7.101020387610817 3.9999999999999996
  endloop
endfacet
facet normal 0.3826834323650924 0.9238795325112859 1.1655834655083135e-31
  outer loop
    vertex 40.49128014094939 7.101020387610817 3.9999999999999996
    vertex 40.611771432346224 7.0511112605664 1.4099832412739487e-15
    vertex 40.49128014094939 7.101020387610817 1.4099832412739487e-15
  endloop
endfacet
facet normal 0.3826834323650924 0.9238795325112859 1.1655834655083135e-31
  outer loop
    vertex 40.611771432346224 7.0511112605664 1.4099832412739487e-15
    vertex 40.49128014094939 7.101020387610817 3.9999999999999996
    vertex 40.611771432346224 7.0511112605664 3.9999999999999996
  endloop
endfacet
facet normal 0.13052619222005263 0.9914448613738104 1.269507190000773e-31
  outer loop
    vertex 40.611771432346224 7.0511112605664 3.9999999999999996
    vertex 41.00000000000001 7.000000000000003 1.4099832412739487e-15
    vertex 40.611771432346224 7.0511112605664 1.4099832412739487e-15
  endloop
endfacet
facet normal 0.13052619222005263 0.9914448613738104 1.269507190000773e-31
  outer loop
    vertex 41.00000000000001 7.000000000000003 1.4099832412739487e-15
    vertex 40.611771432346224 7.0511112605664 3.9999999999999996
    vertex 41.00000000000001 7.000000000000003 3.9999999999999996
  endloop
endfacet
facet normal -0.13052619222005074 0.9914448613738105 1.2869160974545049e-31
  outer loop
    vertex 41.00000000000001 7.000000000000003 3.9999999999999996
    vertex 41.38822856765379 7.0511112605664 1.4099832412739487e-15
    vertex 41.00000000000001 7.000000000000003 1.4099832412739487e-15
  endloop
endfacet
facet normal -0.13052619222005074 0.9914448613738105 1.2869160974545049e-31
  outer loop
    vertex 41.38822856765379 7.0511112605664 1.4099832412739487e-15
    vertex 41.00000000000001 7.000000000000003 3.9999999999999996
    vertex 41.38822856765379 7.0511112605664 3.9999999999999996
  endloop
endfacet
facet normal -0.3826834323650951 0.9238795325112845 1.216623799596116e-31
  outer loop
    vertex 41.38822856765379 7.0511112605664 3.9999999999999996
    vertex 41.75 7.2009618943233455 1.4099832412739487e-15
    vertex 41.38822856765379 7.0511112605664 1.4099832412739487e-15
  endloop
endfacet
facet normal -0.3826834323650951 0.9238795325112845 1.216623799596116e-31
  outer loop
    vertex 41.75 7.2009618943233455 1.4099832412739487e-15
    vertex 41.38822856765379 7.0511112605664 3.9999999999999996
    vertex 41.75 7.2009618943233455 3.9999999999999996
  endloop
endfacet
facet normal -0.608761429008722 0.7933533402912343 1.0634206003611475e-31
  outer loop
    vertex 41.75 7.2009618943233455 3.9999999999999996
    vertex 42.06066017177982 7.439339828220182 1.4099832412739487e-15
    vertex 41.75 7.2009618943233455 1.4099832412739487e-15
  endloop
endfacet
facet normal -0.608761429008722 0.7933533402912343 1.0634206003611475e-31
  outer loop
    vertex 42.06066017177982 7.439339828220182 1.4099832412739487e-15
    vertex 41.75 7.2009618943233455 3.9999999999999996
    vertex 42.06066017177982 7.439339828220182 3.9999999999999996
  endloop
endfacet
facet normal -0.7933533402912326 0.6087614290087243 8.377470445972047e-32
  outer loop
    vertex 42.29903810567666 7.750000000000001 3.9999999999999996
    vertex 42.06066017177982 7.439339828220182 1.4099832412739487e-15
    vertex 42.06066017177982 7.439339828220182 3.9999999999999996
  endloop
endfacet
facet normal -0.7933533402912326 0.6087614290087243 8.377470445972047e-32
  outer loop
    vertex 42.06066017177982 7.439339828220182 1.4099832412739487e-15
    vertex 42.29903810567666 7.750000000000001 3.9999999999999996
    vertex 42.29903810567666 7.750000000000001 1.4099832412739487e-15
  endloop
endfacet
facet normal -0.923879532511285 0.38268343236509444 5.549824121864084e-32
  outer loop
    vertex 42.448888739433606 8.11177143234622 3.9999999999999996
    vertex 42.29903810567666 7.750000000000001 1.4099832412739487e-15
    vertex 42.29903810567666 7.750000000000001 3.9999999999999996
  endloop
endfacet
facet normal -0.923879532511285 0.38268343236509444 5.549824121864084e-32
  outer loop
    vertex 42.29903810567666 7.750000000000001 1.4099832412739487e-15
    vertex 42.448888739433606 8.11177143234622 3.9999999999999996
    vertex 42.448888739433606 8.11177143234622 1.4099832412739487e-15
  endloop
endfacet
facet normal -0.9914448613738114 0.13052619222004508 2.3439664553689377e-32
  outer loop
    vertex 42.5 8.5 3.9999999999999996
    vertex 42.448888739433606 8.11177143234622 1.4099832412739487e-15
    vertex 42.448888739433606 8.11177143234622 3.9999999999999996
  endloop
endfacet
facet normal -0.9914448613738114 0.13052619222004508 2.3439664553689377e-32
  outer loop
    vertex 42.448888739433606 8.11177143234622 1.4099832412739487e-15
    vertex 42.5 8.5 3.9999999999999996
    vertex 42.5 8.5 1.4099832412739487e-15
  endloop
endfacet
facet normal -0.9914448613738096 -0.13052619222005876 -1.0216286514717581e-32
  outer loop
    vertex 42.4488887394336 8.888228567653782 3.9999999999999996
    vertex 42.5 8.5 1.4099832412739487e-15
    vertex 42.5 8.5 3.9999999999999996
  endloop
endfacet
facet normal -0.9914448613738096 -0.13052619222005876 -1.0216286514717581e-32
  outer loop
    vertex 42.5 8.5 1.4099832412739487e-15
    vertex 42.4488887394336 8.888228567653782 3.9999999999999996
    vertex 42.4488887394336 8.888228567653782 1.4099832412739487e-15
  endloop
endfacet
facet normal -0.9238795325112894 -0.38268343236508334 -4.3176014540356456e-32
  outer loop
    vertex 42.29903810567666 9.249999999999998 3.9999999999999996
    vertex 42.4488887394336 8.888228567653782 1.4099832412739487e-15
    vertex 42.4488887394336 8.888228567653782 3.9999999999999996
  endloop
endfacet
facet normal -0.9238795325112894 -0.38268343236508334 -4.3176014540356456e-32
  outer loop
    vertex 42.4488887394336 8.888228567653782 1.4099832412739487e-15
    vertex 42.29903810567666 9.249999999999998 3.9999999999999996
    vertex 42.29903810567666 9.249999999999998 1.4099832412739487e-15
  endloop
endfacet
facet normal -0.7933533402912339 -0.6087614290087225 -7.31933685268105e-32
  outer loop
    vertex 42.06066017177982 9.56066017177982 3.9999999999999996
    vertex 42.29903810567666 9.249999999999998 1.4099832412739487e-15
    vertex 42.29903810567666 9.249999999999998 3.9999999999999996
  endloop
endfacet
facet normal -0.7933533402912339 -0.6087614290087225 -7.31933685268105e-32
  outer loop
    vertex 42.29903810567666 9.249999999999998 1.4099832412739487e-15
    vertex 42.06066017177982 9.56066017177982 3.9999999999999996
    vertex 42.06066017177982 9.56066017177982 1.4099832412739487e-15
  endloop
endfacet
facet normal -0.608761429008722 -0.7933533402912343 -9.822271540592154e-32
  outer loop
    vertex 42.06066017177982 9.56066017177982 3.9999999999999996
    vertex 41.75 9.799038105676656 1.4099832412739487e-15
    vertex 42.06066017177982 9.56066017177982 1.4099832412739487e-15
  endloop
endfacet
facet normal -0.608761429008722 -0.7933533402912343 -9.822271540592154e-32
  outer loop
    vertex 41.75 9.799038105676656 1.4099832412739487e-15
    vertex 42.06066017177982 9.56066017177982 3.9999999999999996
    vertex 41.75 9.799038105676656 3.9999999999999996
  endloop
endfacet
facet normal -0.3826834323650889 -0.9238795325112871 -1.1655834655083155e-31
  outer loop
    vertex 41.75 9.799038105676656 3.9999999999999996
    vertex 41.508719859050615 9.898979612389184 1.4099832412739487e-15
    vertex 41.75 9.799038105676656 1.4099832412739487e-15
  endloop
endfacet
facet normal -0.3826834323650889 -0.9238795325112871 -1.1655834655083155e-31
  outer loop
    vertex 41.508719859050615 9.898979612389184 1.4099832412739487e-15
    vertex 41.75 9.799038105676656 3.9999999999999996
    vertex 41.508719859050615 9.898979612389184 3.9999999999999996
  endloop
endfacet
facet normal -0.38268343236508306 -0.9238795325112895 -1.165583465508319e-31
  outer loop
    vertex 41.508719859050615 9.898979612389184 3.9999999999999996
    vertex 41.38822856765378 9.948888739433599 1.4099832412739487e-15
    vertex 41.508719859050615 9.898979612389184 1.4099832412739487e-15
  endloop
endfacet
facet normal -0.38268343236508306 -0.9238795325112895 -1.165583465508319e-31
  outer loop
    vertex 41.38822856765378 9.948888739433599 1.4099832412739487e-15
    vertex 41.508719859050615 9.898979612389184 3.9999999999999996
    vertex 41.38822856765378 9.948888739433599 3.9999999999999996
  endloop
endfacet
facet normal -0.13052619222005263 -0.9914448613738104 -1.269507190000773e-31
  outer loop
    vertex 41.38822856765378 9.948888739433599 3.9999999999999996
    vertex 41.00000000000001 9.999999999999996 1.4099832412739487e-15
    vertex 41.38822856765378 9.948888739433599 1.4099832412739487e-15
  endloop
endfacet
facet normal -0.13052619222005263 -0.9914448613738104 -1.269507190000773e-31
  outer loop
    vertex 41.00000000000001 9.999999999999996 1.4099832412739487e-15
    vertex 41.38822856765378 9.948888739433599 3.9999999999999996
    vertex 41.00000000000001 9.999999999999996 3.9999999999999996
  endloop
endfacet
facet normal 0.13052619222005263 -0.9914448613738104 -1.286916097454505e-31
  outer loop
    vertex 41.00000000000001 9.999999999999996 3.9999999999999996
    vertex 40.611771432346224 9.948888739433599 1.4099832412739487e-15
    vertex 41.00000000000001 9.999999999999996 1.4099832412739487e-15
  endloop
endfacet
facet normal 0.13052619222005263 -0.9914448613738104 -1.286916097454505e-31
  outer loop
    vertex 40.611771432346224 9.948888739433599 1.4099832412739487e-15
    vertex 41.00000000000001 9.999999999999996 3.9999999999999996
    vertex 40.611771432346224 9.948888739433599 3.9999999999999996
  endloop
endfacet
facet normal 0.38268343236508695 -0.923879532511288 -1.2166237995961197e-31
  outer loop
    vertex 40.611771432346224 9.948888739433599 3.9999999999999996
    vertex 40.25000000000001 9.799038105676656 1.4099832412739487e-15
    vertex 40.611771432346224 9.948888739433599 1.4099832412739487e-15
  endloop
endfacet
facet normal 0.38268343236508695 -0.923879532511288 -1.2166237995961197e-31
  outer loop
    vertex 40.25000000000001 9.799038105676656 1.4099832412739487e-15
    vertex 40.611771432346224 9.948888739433599 3.9999999999999996
    vertex 40.25000000000001 9.799038105676656 3.9999999999999996
  endloop
endfacet
facet normal 0.608761429008722 -0.7933533402912343 -1.0634206003611475e-31
  outer loop
    vertex 40.25000000000001 9.799038105676656 3.9999999999999996
    vertex 39.939339828220184 9.56066017177982 1.4099832412739487e-15
    vertex 40.25000000000001 9.799038105676656 1.4099832412739487e-15
  endloop
endfacet
facet normal 0.608761429008722 -0.7933533402912343 -1.0634206003611475e-31
  outer loop
    vertex 39.939339828220184 9.56066017177982 1.4099832412739487e-15
    vertex 40.25000000000001 9.799038105676656 3.9999999999999996
    vertex 39.939339828220184 9.56066017177982 3.9999999999999996
  endloop
endfacet
facet normal 0.7933533402912339 -0.6087614290087225 -8.377470445972026e-32
  outer loop
    vertex 39.939339828220184 9.56066017177982 1.4099832412739487e-15
    vertex 39.70096189432335 9.249999999999998 3.9999999999999996
    vertex 39.70096189432335 9.249999999999998 1.4099832412739487e-15
  endloop
endfacet
facet normal 0.7933533402912339 -0.6087614290087225 -8.377470445972026e-32
  outer loop
    vertex 39.70096189432335 9.249999999999998 3.9999999999999996
    vertex 39.939339828220184 9.56066017177982 1.4099832412739487e-15
    vertex 39.939339828220184 9.56066017177982 3.9999999999999996
  endloop
endfacet
facet normal 0.923879532511285 -0.38268343236509444 -5.549824121864084e-32
  outer loop
    vertex 39.70096189432335 9.249999999999998 1.4099832412739487e-15
    vertex 39.5511112605664 8.88822856765378 3.9999999999999996
    vertex 39.5511112605664 8.88822856765378 1.4099832412739487e-15
  endloop
endfacet
facet normal 0.923879532511285 -0.38268343236509444 -5.549824121864084e-32
  outer loop
    vertex 39.5511112605664 8.88822856765378 3.9999999999999996
    vertex 39.70096189432335 9.249999999999998 1.4099832412739487e-15
    vertex 39.70096189432335 9.249999999999998 3.9999999999999996
  endloop
endfacet
facet normal 0.9914448613738114 -0.13052619222004508 -2.3439664553689377e-32
  outer loop
    vertex 39.5511112605664 8.88822856765378 1.4099832412739487e-15
    vertex 39.50000000000001 8.5 3.9999999999999996
    vertex 39.50000000000001 8.5 1.4099832412739487e-15
  endloop
endfacet
facet normal 0.9914448613738114 -0.13052619222004508 -2.3439664553689377e-32
  outer loop
    vertex 39.50000000000001 8.5 3.9999999999999996
    vertex 39.5511112605664 8.88822856765378 1.4099832412739487e-15
    vertex 39.5511112605664 8.88822856765378 3.9999999999999996
  endloop
endfacet
facet normal 0.9914448613738096 0.13052619222005876 1.0216286514717581e-32
  outer loop
    vertex 39.50000000000001 8.5 1.4099832412739487e-15
    vertex 39.55111126056641 8.111771432346218 3.9999999999999996
    vertex 39.55111126056641 8.111771432346218 1.4099832412739487e-15
  endloop
endfacet
facet normal 0.9914448613738096 0.13052619222005876 1.0216286514717581e-32
  outer loop
    vertex 39.55111126056641 8.111771432346218 3.9999999999999996
    vertex 39.50000000000001 8.5 1.4099832412739487e-15
    vertex 39.50000000000001 8.5 3.9999999999999996
  endloop
endfacet
facet normal 0.92387953251129 0.3826834323650821 4.317601454035629e-32
  outer loop
    vertex 39.55111126056641 8.111771432346218 1.4099832412739487e-15
    vertex 39.70096189432335 7.75 3.9999999999999996
    vertex 39.70096189432335 7.75 1.4099832412739487e-15
  endloop
endfacet
facet normal 0.92387953251129 0.3826834323650821 4.317601454035629e-32
  outer loop
    vertex 39.70096189432335 7.75 3.9999999999999996
    vertex 39.55111126056641 8.111771432346218 1.4099832412739487e-15
    vertex 39.55111126056641 8.111771432346218 3.9999999999999996
  endloop
endfacet
facet normal 0.7933533402912326 0.6087614290087243 7.319336852681073e-32
  outer loop
    vertex 39.70096189432335 7.75 1.4099832412739487e-15
    vertex 39.939339828220184 7.43933982822018 3.9999999999999996
    vertex 39.939339828220184 7.43933982822018 1.4099832412739487e-15
  endloop
endfacet
facet normal 0.7933533402912326 0.6087614290087243 7.319336852681073e-32
  outer loop
    vertex 39.939339828220184 7.43933982822018 3.9999999999999996
    vertex 39.70096189432335 7.75 1.4099832412739487e-15
    vertex 39.70096189432335 7.75 3.9999999999999996
  endloop
endfacet
facet normal 0.608761429008722 0.7933533402912343 9.822271540592154e-32
  outer loop
    vertex 39.939339828220184 7.43933982822018 3.9999999999999996
    vertex 40.25000000000001 7.200961894323344 1.4099832412739487e-15
    vertex 39.939339828220184 7.43933982822018 1.4099832412739487e-15
  endloop
endfacet
facet normal 0.608761429008722 0.7933533402912343 9.822271540592154e-32
  outer loop
    vertex 40.25000000000001 7.200961894323344 1.4099832412739487e-15
    vertex 39.939339828220184 7.43933982822018 3.9999999999999996
    vertex 40.25000000000001 7.200961894323344 3.9999999999999996
  endloop
endfacet
endsolid UltaSonicCableCover
