solid UltaSonicCircuitBoardCover
facet normal -1.0 0.0 0.0
  outer loop
    vertex 26.500000000000036 18.49999999999999 0.9999999999999999
    vertex 26.500000000000036 12.499999999999991 -0.9999999999999999
    vertex 26.500000000000036 12.499999999999991 0.9999999999999999
  endloop
endfacet
facet normal -1.0 0.0 0.0
  outer loop
    vertex 26.500000000000036 12.499999999999991 -0.9999999999999999
    vertex 26.500000000000036 18.49999999999999 0.9999999999999999
    vertex 26.500000000000036 18.49999999999999 -0.9999999999999999
  endloop
endfacet
facet normal -0.0 1.0 -0.0
  outer loop
    vertex 18.500000000000007 12.499999999999991 0.9999999999999999
    vertex 26.500000000000036 12.499999999999991 -0.9999999999999999
    vertex 18.500000000000007 12.499999999999991 -0.9999999999999999
  endloop
endfacet
facet normal -0.0 1.0 -0.0
  outer loop
    vertex 26.500000000000036 12.499999999999991 -0.9999999999999999
    vertex 18.500000000000007 12.499999999999991 0.9999999999999999
    vertex 26.500000000000036 12.499999999999991 0.9999999999999999
  endloop
endfacet
facet normal 1.0 -0.0 -0.0
  outer loop
    vertex 18.500000000000007 18.49999999999999 -0.9999999999999999
    vertex 18.500000000000007 12.499999999999991 0.9999999999999999
    vertex 18.500000000000007 12.499999999999991 -0.9999999999999999
  endloop
endfacet
facet normal 1.0 -0.0 -0.0
  outer loop
    vertex 18.500000000000007 12.499999999999991 0.9999999999999999
    vertex 18.500000000000007 18.49999999999999 -0.9999999999999999
    vertex 18.500000000000007 18.49999999999999 0.9999999999999999
  endloop
endfacet
facet normal 0.0 -1.0 0.0
  outer loop
    vertex 26.500000000000036 18.49999999999999 0.9999999999999999
    vertex 18.500000000000007 18.49999999999999 -0.9999999999999999
    vertex 26.500000000000036 18.49999999999999 -0.9999999999999999
  endloop
endfacet
facet normal 0.0 -1.0 0.0
  outer loop
    vertex 18.500000000000007 18.49999999999999 -0.9999999999999999
    vertex 26.500000000000036 18.49999999999999 0.9999999999999999
    vertex 18.500000000000007 18.49999999999999 0.9999999999999999
  endloop
endfacet
facet normal -0.0 -0.0 1.0
  outer loop
    vertex 17.5 11.499999999999993 0.9999999999999999
    vertex 18.500000000000007 12.499999999999991 0.9999999999999999
    vertex 17.5 19.49999999999999 0.9999999999999999
  endloop
endfacet
facet normal -0.0 -0.0 1.0
  outer loop
    vertex 18.500000000000007 12.499999999999991 0.9999999999999999
    vertex 17.5 11.499999999999993 0.9999999999999999
    vertex 27.500000000000036 11.499999999999993 0.9999999999999999
  endloop
endfacet
facet normal -0.0 -0.0 1.0
  outer loop
    vertex 18.500000000000007 12.499999999999991 0.9999999999999999
    vertex 27.500000000000036 11.499999999999993 0.9999999999999999
    vertex 26.500000000000036 12.499999999999991 0.9999999999999999
  endloop
endfacet
facet normal -0.0 -0.0 1.0
  outer loop
    vertex 26.500000000000036 12.499999999999991 0.9999999999999999
    vertex 27.500000000000036 11.499999999999993 0.9999999999999999
    vertex 26.500000000000036 18.49999999999999 0.9999999999999999
  endloop
endfacet
facet normal -0.0 -0.0 1.0
  outer loop
    vertex 17.5 19.49999999999999 0.9999999999999999
    vertex 18.500000000000007 18.49999999999999 0.9999999999999999
    vertex 27.500000000000036 19.49999999999999 0.9999999999999999
  endloop
endfacet
facet normal -0.0 -0.0 1.0
  outer loop
    vertex 18.500000000000007 18.49999999999999 0.9999999999999999
    vertex 17.5 19.49999999999999 0.9999999999999999
    vertex 18.500000000000007 12.499999999999991 0.9999999999999999
  endloop
endfacet
facet normal -0.0 -0.0 1.0
  outer loop
    vertex 27.500000000000036 19.49999999999999 0.9999999999999999
    vertex 18.500000000000007 18.49999999999999 0.9999999999999999
    vertex 26.500000000000036 18.49999999999999 0.9999999999999999
  endloop
endfacet
facet normal -0.0 -0.0 1.0
  outer loop
    vertex 27.500000000000036 19.49999999999999 0.9999999999999999
    vertex 26.500000000000036 18.49999999999999 0.9999999999999999
    vertex 27.500000000000036 11.499999999999993 0.9999999999999999
  endloop
endfacet
facet normal 0.0 -1.0 0.0
  outer loop
    vertex 27.500000000000036 19.49999999999999 16.0
    vertex 17.5 19.49999999999999 0.9999999999999999
    vertex 27.500000000000036 19.49999999999999 0.9999999999999999
  endloop
endfacet
facet normal 0.0 -1.0 0.0
  outer loop
    vertex 17.5 19.49999999999999 0.9999999999999999
    vertex 27.500000000000036 19.49999999999999 16.0
    vertex 17.5 19.49999999999999 16.0
  endloop
endfacet
facet normal -1.0 0.0 0.0
  outer loop
    vertex 27.500000000000036 19.49999999999999 16.0
    vertex 27.500000000000036 11.499999999999993 0.9999999999999999
    vertex 27.500000000000036 11.499999999999993 16.0
  endloop
endfacet
facet normal -1.0 0.0 0.0
  outer loop
    vertex 27.500000000000036 11.499999999999993 0.9999999999999999
    vertex 27.500000000000036 19.49999999999999 16.0
    vertex 27.500000000000036 19.49999999999999 0.9999999999999999
  endloop
endfacet
facet normal -0.0 1.0 -0.0
  outer loop
    vertex 17.5 11.499999999999993 16.0
    vertex 27.500000000000036 11.499999999999993 0.9999999999999999
    vertex 17.5 11.499999999999993 0.9999999999999999
  endloop
endfacet
facet normal -0.0 1.0 -0.0
  outer loop
    vertex 27.500000000000036 11.499999999999993 0.9999999999999999
    vertex 17.5 11.499999999999993 16.0
    vertex 27.500000000000036 11.499999999999993 16.0
  endloop
endfacet
facet normal 1.0 -0.0 -0.0
  outer loop
    vertex 17.5 19.49999999999999 0.9999999999999999
    vertex 17.5 11.499999999999993 16.0
    vertex 17.5 11.499999999999993 0.9999999999999999
  endloop
endfacet
facet normal 1.0 -0.0 -0.0
  outer loop
    vertex 17.5 11.499999999999993 16.0
    vertex 17.5 19.49999999999999 0.9999999999999999
    vertex 17.5 19.49999999999999 16.0
  endloop
endfacet
facet normal -0.0 -0.0 1.0
  outer loop
    vertex 15.500000000000005 9.500000000000002 16.0
    vertex 17.5 11.499999999999993 16.0
    vertex 15.500000000000005 21.49999999999999 16.0
  endloop
endfacet
facet normal -0.0 -0.0 1.0
  outer loop
    vertex 17.5 11.499999999999993 16.0
    vertex 15.500000000000005 9.500000000000002 16.0
    vertex 29.500000000000032 9.500000000000002 16.0
  endloop
endfacet
facet normal -0.0 -0.0 1.0
  outer loop
    vertex 17.5 11.499999999999993 16.0
    vertex 29.500000000000032 9.500000000000002 16.0
    vertex 27.500000000000036 11.499999999999993 16.0
  endloop
endfacet
facet normal -0.0 -0.0 1.0
  outer loop
    vertex 27.500000000000036 11.499999999999993 16.0
    vertex 29.500000000000032 9.500000000000002 16.0
    vertex 27.500000000000036 19.49999999999999 16.0
  endloop
endfacet
facet normal -0.0 -0.0 1.0
  outer loop
    vertex 15.500000000000005 21.49999999999999 16.0
    vertex 17.5 19.49999999999999 16.0
    vertex 29.500000000000032 21.49999999999999 16.0
  endloop
endfacet
facet normal -0.0 -0.0 1.0
  outer loop
    vertex 17.5 19.49999999999999 16.0
    vertex 15.500000000000005 21.49999999999999 16.0
    vertex 17.5 11.499999999999993 16.0
  endloop
endfacet
facet normal -0.0 -0.0 1.0
  outer loop
    vertex 29.500000000000032 21.49999999999999 16.0
    vertex 17.5 19.49999999999999 16.0
    vertex 27.500000000000036 19.49999999999999 16.0
  endloop
endfacet
facet normal -0.0 -0.0 1.0
  outer loop
    vertex 29.500000000000032 21.49999999999999 16.0
    vertex 27.500000000000036 19.49999999999999 16.0
    vertex 29.500000000000032 9.500000000000002 16.0
  endloop
endfacet
facet normal 4.220485388323212e-32 0.9805806756909201 0.1961161351381843
  outer loop
    vertex 15.500000000000005 21.49999999999999 16.0
    vertex 32.500000000000036 24.499999999999993 0.9999999999999999
    vertex 12.500000000000005 24.499999999999993 0.9999999999999999
  endloop
endfacet
facet normal 4.220485388323212e-32 0.9805806756909201 0.1961161351381843
  outer loop
    vertex 32.500000000000036 24.499999999999993 0.9999999999999999
    vertex 15.500000000000005 21.49999999999999 16.0
    vertex 29.500000000000032 21.49999999999999 16.0
  endloop
endfacet
facet normal -0.9805806756909203 3.751933644637673e-18 0.19611613513818407
  outer loop
    vertex 15.500000000000005 9.500000000000002 16.0
    vertex 12.500000000000005 24.499999999999993 0.9999999999999999
    vertex 12.500000000000005 6.499999999999994 0.9999999999999999
  endloop
endfacet
facet normal -0.9805806756909203 3.751933644637673e-18 0.19611613513818407
  outer loop
    vertex 12.500000000000005 24.499999999999993 0.9999999999999999
    vertex 15.500000000000005 9.500000000000002 16.0
    vertex 15.500000000000005 21.49999999999999 16.0
  endloop
endfacet
facet normal -5.892298475471164e-18 -0.9805806756909201 0.19611613513818446
  outer loop
    vertex 29.500000000000032 9.500000000000002 16.0
    vertex 12.500000000000005 6.499999999999994 0.9999999999999999
    vertex 32.500000000000036 6.499999999999994 0.9999999999999999
  endloop
endfacet
facet normal -5.892298475471164e-18 -0.9805806756909201 0.19611613513818446
  outer loop
    vertex 12.500000000000005 6.499999999999994 0.9999999999999999
    vertex 29.500000000000032 9.500000000000002 16.0
    vertex 15.500000000000005 9.500000000000002 16.0
  endloop
endfacet
facet normal 0.9805806756909201 3.751933644637648e-18 0.19611613513818432
  outer loop
    vertex 32.500000000000036 24.499999999999993 0.9999999999999999
    vertex 29.500000000000032 9.500000000000002 16.0
    vertex 32.500000000000036 6.499999999999994 0.9999999999999999
  endloop
endfacet
facet normal 0.9805806756909201 3.751933644637648e-18 0.19611613513818432
  outer loop
    vertex 29.500000000000032 9.500000000000002 16.0
    vertex 32.500000000000036 24.499999999999993 0.9999999999999999
    vertex 29.500000000000032 21.49999999999999 16.0
  endloop
endfacet
facet normal 0.0 -1.0 0.0
  outer loop
    vertex 45.000000000000014 -0.9999999999999999 0.9999999999999999
    vertex 0.0 -0.9999999999999999 -0.9999999999999999
    vertex 45.000000000000014 -0.9999999999999999 -0.9999999999999999
  endloop
endfacet
facet normal 0.0 -1.0 0.0
  outer loop
    vertex 0.0 -0.9999999999999999 -0.9999999999999999
    vertex 45.000000000000014 -0.9999999999999999 0.9999999999999999
    vertex 0.0 -0.9999999999999999 0.9999999999999999
  endloop
endfacet
facet normal 0.0 0.0 -1.0
  outer loop
    vertex -5.639932965095795e-15 43.50000000000006 -0.9999999999999999
    vertex 18.500000000000007 18.49999999999999 -0.9999999999999999
    vertex 0.0 -0.9999999999999999 -0.9999999999999999
  endloop
endfacet
facet normal 0.0 0.0 -1.0
  outer loop
    vertex 18.500000000000007 18.49999999999999 -0.9999999999999999
    vertex -5.639932965095795e-15 43.50000000000006 -0.9999999999999999
    vertex 45.000000000000014 43.50000000000006 -0.9999999999999999
  endloop
endfacet
facet normal 0.0 0.0 -1.0
  outer loop
    vertex 18.500000000000007 18.49999999999999 -0.9999999999999999
    vertex 45.000000000000014 43.50000000000006 -0.9999999999999999
    vertex 26.500000000000036 18.49999999999999 -0.9999999999999999
  endloop
endfacet
facet normal 0.0 0.0 -1.0
  outer loop
    vertex 26.500000000000036 18.49999999999999 -0.9999999999999999
    vertex 45.000000000000014 43.50000000000006 -0.9999999999999999
    vertex 26.500000000000036 12.499999999999991 -0.9999999999999999
  endloop
endfacet
facet normal 0.0 0.0 -1.0
  outer loop
    vertex 0.0 -0.9999999999999999 -0.9999999999999999
    vertex 18.500000000000007 12.499999999999991 -0.9999999999999999
    vertex 45.000000000000014 -0.9999999999999999 -0.9999999999999999
  endloop
endfacet
facet normal 0.0 0.0 -1.0
  outer loop
    vertex 18.500000000000007 12.499999999999991 -0.9999999999999999
    vertex 0.0 -0.9999999999999999 -0.9999999999999999
    vertex 18.500000000000007 18.49999999999999 -0.9999999999999999
  endloop
endfacet
facet normal 0.0 0.0 -1.0
  outer loop
    vertex 45.000000000000014 -0.9999999999999999 -0.9999999999999999
    vertex 18.500000000000007 12.499999999999991 -0.9999999999999999
    vertex 26.500000000000036 12.499999999999991 -0.9999999999999999
  endloop
endfacet
facet normal 0.0 0.0 -1.0
  outer loop
    vertex 45.000000000000014 -0.9999999999999999 -0.9999999999999999
    vertex 26.500000000000036 12.499999999999991 -0.9999999999999999
    vertex 45.000000000000014 43.50000000000006 -0.9999999999999999
  endloop
endfacet
facet normal -0.0 -0.0 1.0
  outer loop
    vertex 45.000000000000014 -0.9999999999999999 0.9999999999999999
    vertex 12.500000000000005 6.499999999999994 0.9999999999999999
    vertex 0.0 -0.9999999999999999 0.9999999999999999
  endloop
endfacet
facet normal -0.0 -0.0 1.0
  outer loop
    vertex 12.500000000000005 6.499999999999994 0.9999999999999999
    vertex 45.000000000000014 -0.9999999999999999 0.9999999999999999
    vertex 32.500000000000036 6.499999999999994 0.9999999999999999
  endloop
endfacet
facet normal -0.0 -0.0 1.0
  outer loop
    vertex 32.500000000000036 6.499999999999994 0.9999999999999999
    vertex 45.000000000000014 -0.9999999999999999 0.9999999999999999
    vertex 32.500000000000036 24.499999999999993 0.9999999999999999
  endloop
endfacet
facet normal -0.0 -0.0 1.0
  outer loop
    vertex -5.639932965095795e-15 43.50000000000006 0.9999999999999999
    vertex 12.500000000000005 24.499999999999993 0.9999999999999999
    vertex 45.000000000000014 43.50000000000006 0.9999999999999999
  endloop
endfacet
facet normal -0.0 -0.0 1.0
  outer loop
    vertex 12.500000000000005 24.499999999999993 0.9999999999999999
    vertex -5.639932965095795e-15 43.50000000000006 0.9999999999999999
    vertex 0.0 -0.9999999999999999 0.9999999999999999
  endloop
endfacet
facet normal -0.0 -0.0 1.0
  outer loop
    vertex 12.500000000000005 24.499999999999993 0.9999999999999999
    vertex 0.0 -0.9999999999999999 0.9999999999999999
    vertex 12.500000000000005 6.499999999999994 0.9999999999999999
  endloop
endfacet
facet normal -0.0 -0.0 1.0
  outer loop
    vertex 45.000000000000014 43.50000000000006 0.9999999999999999
    vertex 12.500000000000005 24.499999999999993 0.9999999999999999
    vertex 32.500000000000036 24.499999999999993 0.9999999999999999
  endloop
endfacet
facet normal -0.0 -0.0 1.0
  outer loop
    vertex 45.000000000000014 43.50000000000006 0.9999999999999999
    vertex 32.500000000000036 24.499999999999993 0.9999999999999999
    vertex 45.000000000000014 -0.9999999999999999 0.9999999999999999
  endloop
endfacet
facet normal -1.0 -1.151006727570569e-16 0.0
  outer loop
    vertex -5.639932965095795e-15 43.50000000000006 0.9999999999999999
    vertex 0.0 -0.9999999999999999 -0.9999999999999999
    vertex 0.0 -0.9999999999999999 0.9999999999999999
  endloop
endfacet
facet normal -1.0 -1.151006727570569e-16 0.0
  outer loop
    vertex 0.0 -0.9999999999999999 -0.9999999999999999
    vertex -5.639932965095795e-15 43.50000000000006 0.9999999999999999
    vertex -5.639932965095795e-15 43.50000000000006 -0.9999999999999999
  endloop
endfacet
facet normal 0.0 1.0 0.0
  outer loop
    vertex -5.639932965095795e-15 43.50000000000006 0.9999999999999999
    vertex 45.000000000000014 43.50000000000006 -0.9999999999999999
    vertex -5.639932965095795e-15 43.50000000000006 -0.9999999999999999
  endloop
endfacet
facet normal 0.0 1.0 0.0
  outer loop
    vertex 45.000000000000014 43.50000000000006 -0.9999999999999999
    vertex -5.639932965095795e-15 43.50000000000006 0.9999999999999999
    vertex 45.000000000000014 43.50000000000006 0.9999999999999999
  endloop
endfacet
facet normal 1.0 -0.0 -0.0
  outer loop
    vertex 45.000000000000014 43.50000000000006 -0.9999999999999999
    vertex 45.000000000000014 -0.9999999999999999 0.9999999999999999
    vertex 45.000000000000014 -0.9999999999999999 -0.9999999999999999
  endloop
endfacet
facet normal 1.0 -0.0 -0.0
  outer loop
    vertex 45.000000000000014 -0.9999999999999999 0.9999999999999999
    vertex 45.000000000000014 43.50000000000006 -0.9999999999999999
    vertex 45.000000000000014 43.50000000000006 0.9999999999999999
  endloop
endfacet
endsolid UltaSonicCircuitBoardCover
